<?xml version="1.0" encoding="UTF-8"?>
<svg width="65px" height="64px" viewBox="0 0 65 64" version="1.1" xmlns="http://www.w3.org/2000/svg" xmlns:xlink="http://www.w3.org/1999/xlink">
    <!-- Generator: Sketch 3.8.1 (29687) - http://www.bohemiancoding.com/sketch -->
    <title>apps</title>
    <desc>Created with Sketch.</desc>
    <defs></defs>
    <g id="Page-1" stroke="none" stroke-width="1" fill="none" fill-rule="evenodd" stroke-linejoin="round">
        <g id="Desktop-HD-Copy" transform="translate(-318.000000, -220.000000)" stroke="#222829" stroke-width="2">
            <g id="apps" transform="translate(319.000000, 220.000000)">
                <path d="M14.5596,7 L50.5596,7" id="Stroke-3"></path>
                <path d="M14.5596,57 L50.5596,57" id="Stroke-4"></path>
                <g id="Group-48" transform="translate(0.000000, 0.988800)">
                    <path d="M14.5596,29.0112 L14.5596,57.0112 C14.5596,59.7732 16.7976,62.0112 19.5596,62.0112 L45.5596,62.0112 C48.3216,62.0112 50.5596,59.7732 50.5596,57.0112 L50.5596,47.0112 L14.5596,29.0112 L14.5596,29.0112 Z" id="Stroke-5"></path>
                    <path d="M50.5596,19.0112 L50.5596,5.0112 C50.5596,2.2492 48.3216,0.0112 45.5596,0.0112 L19.5596,0.0112 C16.7976,0.0112 14.5596,2.2492 14.5596,5.0112 L14.5596,9.0112" id="Stroke-7"></path>
                    <path d="M50.5596,33.0112 L50.5596,25.0112" id="Stroke-9"></path>
                    <polygon id="Stroke-11" points="20.5596 20.0112 5.5596 20.0112 0.5596 25.0112 0.5596 12.0112 20.5596 12.0112"></polygon>
                    <polygon id="Stroke-13" points="62.5596 44.0112 34.5596 44.0112 34.5596 36.0112 57.5596 36.0112 62.5596 31.0112"></polygon>
                    <path d="M5.5596,16.0112 L7.5596,16.0112" id="Stroke-15"></path>
                    <path d="M9.5596,16.0112 L11.5596,16.0112" id="Stroke-17"></path>
                    <path d="M13.5596,16.0112 L15.5596,16.0112" id="Stroke-19"></path>
                    <path d="M39.5596,40.0112 L51.5596,40.0112" id="Stroke-21"></path>
                    <path d="M53.5596,40.0112 L57.5596,40.0112" id="Stroke-23"></path>
                    <polygon id="Stroke-25" points="18.56 52.011 22.56 52.011 22.56 48.011 18.56 48.011"></polygon>
                    <polygon id="Stroke-27" points="26.56 52.011 30.56 52.011 30.56 48.011 26.56 48.011"></polygon>
                    <polygon id="Stroke-28" points="34.56 52.011 38.56 52.011 38.56 48.011 34.56 48.011"></polygon>
                    <polygon id="Stroke-29" points="42.56 52.011 46.56 52.011 46.56 48.011 42.56 48.011"></polygon>
                    <path d="M38.5596,26.0112 C38.5596,29.3242 35.8726,32.0112 32.5596,32.0112 C29.2456,32.0112 26.5596,29.3242 26.5596,26.0112 C26.5596,22.6972 29.2456,20.0112 32.5596,20.0112 C35.8726,20.0112 38.5596,22.6972 38.5596,26.0112 L38.5596,26.0112 Z" id="Stroke-30"></path>
                    <polyline id="Stroke-31" points="31.5596 40.0112 18.5596 40.0112 18.5596 29.0112"></polyline>
                    <path d="M46.5596,25.0112 L46.5596,33.0112" id="Stroke-32"></path>
                    <polyline id="Stroke-33" points="23.5596 12.0112 46.5596 12.0112 46.5596 19.0112"></polyline>
                    <path d="M17.5596,44.0112 L19.5596,44.0112" id="Stroke-34"></path>
                    <path d="M21.5596,44.0112 L23.5596,44.0112" id="Stroke-35"></path>
                    <path d="M25.5596,44.0112 L27.5596,44.0112" id="Stroke-36"></path>
                    <path d="M29.5596,44.0112 L31.5596,44.0112" id="Stroke-37"></path>
                    <path d="M41.5596,22.0112 L63.5596,22.0112" id="Stroke-38"></path>
                    <path d="M63.5596,16.0112 L53.5596,16.0112" id="Stroke-39"></path>
                    <path d="M63.5596,12.0112 L53.5596,12.0112" id="Stroke-40"></path>
                    <path d="M6.5596,37.0112 L6.5596,28.0112 C6.5596,26.9062 7.4546,26.0112 8.5596,26.0112 L23.5596,26.0112" id="Stroke-41"></path>
                    <path d="M10.5596,44.0112 C10.5596,46.2202 8.7686,48.0112 6.5596,48.0112 C4.3506,48.0112 2.5596,46.2202 2.5596,44.0112 C2.5596,41.8022 4.3506,40.0112 6.5596,40.0112 C8.7686,40.0112 10.5596,41.8022 10.5596,44.0112 L10.5596,44.0112 Z" id="Stroke-42"></path>
                    <path d="M43.5596,26.0112 L41.5596,26.0112" id="Stroke-43"></path>
                    <path d="M23.5596,37.0112 L21.5596,37.0112" id="Stroke-44"></path>
                    <path d="M25.5596,16.0112 L23.5596,16.0112" id="Stroke-45"></path>
                    <path d="M3.5596,52.0112 L5.5596,52.0112" id="Stroke-46"></path>
                    <path d="M7.5596,52.0112 L9.5596,52.0112" id="Stroke-47"></path>
                </g>
            </g>
        </g>
    </g>
</svg>