<?xml version="1.0" encoding="UTF-8"?>
<svg width="514px" height="428px" viewBox="0 0 514 428" version="1.1" xmlns="http://www.w3.org/2000/svg" xmlns:xlink="http://www.w3.org/1999/xlink">
    <!-- Generator: Sketch 49.3 (51167) - http://www.bohemiancoding.com/sketch -->
    <title>blueprint</title>
    <desc>Created with Sketch.</desc>
    <defs></defs>
    <g id="Page-1" stroke="none" stroke-width="1" fill="none" fill-rule="evenodd">
        <g id="Desktop-HD-Copy" transform="translate(-811.000000, -142.000000)" fill-rule="nonzero">
            <g id="blueprint" transform="translate(811.000000, 142.000000)">
                <g id="Group">
                    <path d="M507.1,422 L39.5,422 C21.5,422 6.8,407.4 6.8,389.3 L6.8,69 L507.1,69 L507.1,422 Z" id="Shape" fill="#A4CFF2"></path>
                    <path d="M39.5,422 L77.2,422 L77.2,343.4 L6.9,343.4 L6.9,389.3 C6.9,407.3 21.5,422 39.5,422 Z" id="Shape" fill="#7BABF1"></path>
                    <rect id="Rectangle-path" fill="#7BABF1" x="480.4" y="69.1" width="26.8" height="352.8"></rect>
                    <rect id="Rectangle-path" fill="#D3E6F8" x="77.2" y="103.6" width="395.9" height="293.4"></rect>
                    <g transform="translate(213.000000, 129.000000)" id="Shape">
                        <path d="M236.3,137.9 L236.3,104.6 L206.9,104.6 C204.6,92.9 200.1,82.1 193.7,72.6 L214.5,51.8 L191,28.3 L170.2,49.1 C160.7,42.7 149.9,38.1 138.2,35.9 L138.2,6.5 L104.9,6.5 L104.9,35.9 C93.2,38.2 82.4,42.7 72.9,49.1 L52.1,28.3 L28.6,51.8 L49.4,72.6 C43,82.1 38.4,92.9 36.2,104.6 L6.8,104.6 L6.8,137.9 L36.2,137.9 C38.5,149.6 43,160.4 49.4,169.9 L28.6,190.7 L52.1,214.2 L72.9,193.4 C82.4,199.8 93.2,204.4 104.9,206.6 L104.9,236 L138.2,236 L138.2,206.6 C149.9,204.3 160.7,199.8 170.2,193.4 L191,214.2 L214.5,190.7 L193.7,169.9 C200.1,160.4 204.7,149.6 206.9,137.9 L236.3,137.9 Z M120.9,163.9 C97.4,163.9 78.3,144.8 78.3,121.3 C78.3,97.8 97.4,78.7 120.9,78.7 C144.4,78.7 163.5,97.8 163.5,121.3 C163.5,144.8 144.5,163.9 120.9,163.9 Z" fill="#FD919E"></path>
                        <g fill="#4C4372">
                            <path d="M120.9,169.7 C94.2,169.7 72.5,148 72.5,121.2 C72.5,94.5 94.2,72.8 120.9,72.8 C147.6,72.8 169.4,94.5 169.4,121.2 C169.4,148 147.7,169.7 120.9,169.7 Z M120.9,84.5 C100.7,84.5 84.2,101 84.2,121.2 C84.2,141.5 100.7,157.9 120.9,157.9 C141.2,157.9 157.6,141.4 157.6,121.2 C157.7,101 141.2,84.5 120.9,84.5 Z"></path>
                            <path d="M138.1,241.9 L104.8,241.9 C101.6,241.9 98.9,239.3 98.9,236 L98.9,211.3 C89.9,209.1 81.5,205.6 73.6,200.8 L56.2,218.2 C55.1,219.3 53.6,219.9 52.1,219.9 C50.6,219.9 49.1,219.3 48,218.2 L24.5,194.7 C22.2,192.4 22.2,188.7 24.5,186.4 L41.9,169 C37.1,161.1 33.6,152.6 31.4,143.7 L6.7,143.7 C3.5,143.7 0.8,141.1 0.8,137.8 L0.8,104.5 C0.8,101.3 3.4,98.6 6.7,98.6 L31.4,98.6 C33.6,89.6 37.1,81.2 41.9,73.3 L24.4,56 C22.1,53.7 22.1,50 24.4,47.7 L47.9,24.2 C50.2,21.9 53.9,21.9 56.2,24.2 L73.6,41.6 C81.5,36.8 90,33.3 98.9,31.1 L98.9,6.4 C98.9,3.2 101.5,0.5 104.8,0.5 L138.1,0.5 C141.3,0.5 144,3.1 144,6.4 L144,31.1 C153,33.3 161.4,36.8 169.3,41.6 L186.7,24.2 C189,21.9 192.7,21.9 195,24.2 L218.5,47.7 C219.6,48.8 220.2,50.3 220.2,51.8 C220.2,53.4 219.6,54.8 218.5,55.9 L201.1,73.3 C205.9,81.2 209.4,89.7 211.6,98.6 L236.3,98.6 C239.5,98.6 242.2,101.2 242.2,104.5 L242.2,137.8 C242.2,141 239.6,143.7 236.3,143.7 L211.6,143.7 C209.4,152.7 205.9,161.1 201.1,169 L218.5,186.4 C219.6,187.5 220.2,189 220.2,190.5 C220.2,192.1 219.6,193.5 218.5,194.6 L195,218.1 C193.9,219.2 192.4,219.8 190.9,219.8 C189.3,219.8 187.9,219.2 186.8,218.1 L169.4,200.7 C161.5,205.5 153,209 144.1,211.2 L144.1,235.9 C144,239.3 141.4,241.9 138.1,241.9 Z M110.7,230.2 L132.2,230.2 L132.2,206.7 C132.2,203.9 134.2,201.5 136.9,200.9 C147.6,198.8 157.7,194.7 166.7,188.5 C169,186.9 172.1,187.2 174.1,189.2 L190.7,205.8 L205.9,190.6 L189.3,174 C187.3,172 187,168.9 188.6,166.6 C194.7,157.5 198.9,147.5 201,136.8 C201.5,134 203.9,132.1 206.8,132.1 L230.3,132.1 L230.3,110.5 L206.8,110.5 C204,110.5 201.6,108.5 201,105.8 C198.9,95.1 194.8,85 188.6,76 C187,73.7 187.3,70.6 189.3,68.6 L205.9,52 L190.7,36.8 L174.1,53.4 C172.1,55.4 169,55.7 166.7,54.1 C157.6,48 147.6,43.8 136.9,41.8 C134.1,41.3 132.2,38.9 132.2,36 L132.2,12.5 L110.7,12.5 L110.7,36 C110.7,38.8 108.7,41.2 106,41.8 C95.3,43.9 85.2,48 76.2,54.1 C73.9,55.7 70.8,55.4 68.8,53.4 L52.2,36.8 L37,52 L53.6,68.6 C55.6,70.6 55.9,73.7 54.3,76 C48.2,85.1 44,95.1 42,105.8 C41.5,108.6 39.1,110.5 36.2,110.5 L12.7,110.5 L12.7,132 L36.2,132 C39,132 41.4,134 42,136.7 C44.1,147.4 48.2,157.5 54.3,166.5 C55.9,168.8 55.6,171.9 53.6,173.9 L37,190.5 L52.2,205.7 L68.8,189.1 C70.8,187.1 73.9,186.8 76.2,188.4 C85.2,194.5 95.3,198.7 106,200.8 C108.8,201.3 110.7,203.7 110.7,206.6 L110.7,230.2 Z"></path>
                        </g>
                    </g>
                    <path d="M507.1,427.8 L35.2,427.8 C16.3,427.8 1,412.5 1,393.6 L1,69 C1,65.8 3.6,63.1 6.9,63.1 L507.2,63.1 C510.4,63.1 513.1,65.7 513.1,69 L513.1,422 C513,425.2 510.4,427.8 507.1,427.8 Z M12.7,74.8 L12.7,393.6 C12.7,406 22.8,416.1 35.2,416.1 L501.3,416.1 L501.3,74.8 L12.7,74.8 Z" id="Shape" fill="#4C4372"></path>
                    <path d="M473.1,402.8 L77.2,402.8 C74,402.8 71.3,400.2 71.3,396.9 L71.3,103.6 C71.3,100.4 73.9,97.7 77.2,97.7 L473.1,97.7 C476.3,97.7 479,100.3 479,103.6 L479,397 C478.9,400.2 476.3,402.8 473.1,402.8 Z M83.1,391.1 L467.3,391.1 L467.3,109.4 L83.1,109.4 L83.1,391.1 Z" id="Shape" fill="#4C4372"></path>
                    <path d="M351.1,370.9 L105.6,370.9 C102.4,370.9 99.7,368.3 99.7,365 L99.7,135.5 C99.7,132.3 102.3,129.6 105.6,129.6 L351.2,129.6 C354.4,129.6 357.1,132.2 357.1,135.5 C357.1,138.7 354.5,141.4 351.2,141.4 L111.4,141.4 L111.4,359.3 L351.1,359.3 C354.3,359.3 357,361.9 357,365.2 C357,368.3 354.4,370.9 351.1,370.9 Z" id="Shape" fill="#4C4372"></path>
                    <path d="M333.9,298.7 L150.2,298.7 C147,298.7 144.3,296.1 144.3,292.8 L144.3,207.6 C144.3,204.4 146.9,201.7 150.2,201.7 L334,201.7 C337.2,201.7 339.9,204.3 339.9,207.6 C339.9,210.8 337.3,213.5 334,213.5 L156,213.5 L156,287 L333.9,287 C337.1,287 339.8,289.6 339.8,292.9 C339.8,296.2 337.2,298.7 333.9,298.7 Z" id="Shape" fill="#4C4372"></path>
                    <path d="M105.6,386.3 C102.4,386.3 99.7,383.7 99.7,380.4 L99.7,120.1 C99.7,116.9 102.3,114.2 105.6,114.2 C108.8,114.2 111.5,116.8 111.5,120.1 L111.5,380.4 C111.4,383.7 108.8,386.3 105.6,386.3 Z" id="Shape" fill="#4C4372"></path>
                    <path d="M150.2,316.1 C147,316.1 144.3,313.5 144.3,310.2 L144.3,190.3 C144.3,187.1 146.9,184.4 150.2,184.4 C153.5,184.4 156.1,187 156.1,190.3 L156.1,310.2 C156,313.4 153.4,316.1 150.2,316.1 Z" id="Shape" fill="#4C4372"></path>
                    <path d="M113.6,141.3 L91.3,141.3 C88.1,141.3 85.4,138.7 85.4,135.4 C85.4,132.2 88,129.5 91.3,129.5 L113.6,129.5 C116.8,129.5 119.5,132.1 119.5,135.4 C119.4,138.7 116.8,141.3 113.6,141.3 Z" id="Shape" fill="#4C4372"></path>
                    <path d="M158,213.5 L135.7,213.5 C132.5,213.5 129.8,210.9 129.8,207.6 C129.8,204.4 132.4,201.7 135.7,201.7 L158,201.7 C161.2,201.7 163.9,204.3 163.9,207.6 C163.9,210.9 161.3,213.5 158,213.5 Z" id="Shape" fill="#4C4372"></path>
                    <path d="M158,298.7 L135.7,298.7 C132.5,298.7 129.8,296.1 129.8,292.8 C129.8,289.5 132.4,286.9 135.7,286.9 L158,286.9 C161.2,286.9 163.9,289.5 163.9,292.8 C163.9,296.1 161.3,298.7 158,298.7 Z" id="Shape" fill="#4C4372"></path>
                    <path d="M113.6,370.9 L91.3,370.9 C88.1,370.9 85.4,368.3 85.4,365 C85.4,361.8 88,359.1 91.3,359.1 L113.6,359.1 C116.8,359.1 119.5,361.7 119.5,365 C119.4,368.3 116.8,370.9 113.6,370.9 Z" id="Shape" fill="#4C4372"></path>
                    <path d="M42,6 C22.6,6 6.9,21.8 6.9,41.2 L6.9,393.2 C6.9,373.7 22.6,358 42,358 C61.4,358 77.2,373.7 77.2,393.2 L77.2,41.2 C77.2,21.8 61.5,6 42,6 Z" id="Shape" fill="#FFFFFF"></path>
                    <path d="M50.4,7 L50.4,359 C62.9,362.1 72.7,371.7 76,384.1 L77.2,384.1 L77.2,41.2 C77.2,24.7 65.8,10.8 50.4,7 Z" id="Shape" fill="#D3E6F8"></path>
                    <path d="M77.2,399 C74,399 71.3,396.4 71.3,393.1 C71.3,376.9 58.2,363.8 42,363.8 C25.8,363.8 12.7,376.9 12.7,393.1 C12.7,396.3 10.1,399 6.8,399 C3.6,399 0.9,396.4 0.9,393.1 L0.9,41.1 C0.9,18.5 19.3,0.1 41.9,0.1 C64.5,0.1 82.9,18.5 82.9,41.1 L82.9,393.1 C83.1,396.4 80.4,399 77.2,399 Z M42,11.9 C25.8,11.9 12.7,25 12.7,41.2 L12.7,364.5 C20.2,356.9 30.5,352.2 42,352.2 C53.5,352.2 63.9,356.9 71.3,364.5 L71.3,41.2 C71.3,25 58.2,11.9 42,11.9 Z" id="Shape" fill="#4C4372"></path>
                </g>
            </g>
        </g>
    </g>
</svg>