<?xml version="1.0" encoding="UTF-8"?>
<svg width="64px" height="54px" viewBox="0 0 64 54" version="1.1" xmlns="http://www.w3.org/2000/svg" xmlns:xlink="http://www.w3.org/1999/xlink">
    <!-- Generator: Sketch 3.8.1 (29687) - http://www.bohemiancoding.com/sketch -->
    <title>cloud services</title>
    <desc>Created with Sketch.</desc>
    <defs></defs>
    <g id="Page-1" stroke="none" stroke-width="1" fill="none" fill-rule="evenodd">
        <g id="Desktop-HD-Copy" transform="translate(-207.000000, -343.000000)" stroke="#222829" stroke-width="2">
            <g id="cloud-services" transform="translate(208.000000, 343.000000)">
                <polyline id="Stroke-2" stroke-linecap="round" stroke-linejoin="round" points="35 33 31 29 27 33"></polyline>
                <g id="Group-21" transform="translate(0.000000, 0.988800)">
                    <path d="M31,52.0112 L31,47.0112 C31,43.1452 34.134,40.0112 38,40.0112 L50,40.0112 C56.627,40.0112 62,34.6382 62,28.0112 C62,22.0642 58,17.0112 52,17.0112 C52,12.0112 49,8.0112 43,8.0112 L42,8.0112 C39.272,3.0872 34.028,0.0112 28,0.0112 C19.164,0.0112 12,7.1752 12,16.0112 C5.373,16.0112 0,21.3842 0,28.0112 C0,34.6382 5.373,40.0112 12,40.0112 L24,40.0112 C27.866,40.0112 31,36.8772 31,33.0112 L31,28.0112" id="Stroke-3"></path>
                    <polyline id="Stroke-5" stroke-linecap="round" stroke-linejoin="round" points="27 48.0112 31 52.0112 35 48.0112"></polyline>
                    <path d="M18,17.0112 C18,10.9362 23,6.0112 28,6.0112" id="Stroke-7"></path>
                    <path d="M20,34.0112 L22,34.0112" id="Stroke-9"></path>
                    <path d="M12,34.0112 L14,34.0112" id="Stroke-11"></path>
                    <path d="M16,34.0112 L18,34.0112" id="Stroke-13"></path>
                    <path d="M48,34.0112 L50,34.0112" id="Stroke-15"></path>
                    <path d="M40,34.0112 L42,34.0112" id="Stroke-17"></path>
                    <path d="M44,34.0112 L46,34.0112" id="Stroke-19"></path>
                </g>
            </g>
        </g>
    </g>
</svg>