<?xml version="1.0" encoding="utf-8"?>
<!-- Generator: Adobe Illustrator 22.0.1, SVG Export Plug-In . SVG Version: 6.00 Build 0)  -->
<svg version="1.1" id="Icon_Set" xmlns="http://www.w3.org/2000/svg" xmlns:xlink="http://www.w3.org/1999/xlink" x="0px" y="0px"
	 viewBox="0 0 512 512" style="enable-background:new 0 0 512 512;" xml:space="preserve">
<style type="text/css">
	.st0{fill:#FFFFFF;}
	.st1{fill:#F0C48A;}
	.st2{fill:#FD919E;}
	.st3{fill:#E8677D;}
	.st4{fill:#4C4372;}
	.st5{fill:#D3E6F8;}
	.st6{fill:#A4CFF2;}
	.st7{fill:#7BABF1;}
	.st8{fill:none;stroke:#4C4372;stroke-width:12;stroke-linecap:round;stroke-linejoin:round;stroke-miterlimit:10;}
</style>
<g id="Compass">
	<g>
		<circle class="st1" cx="256" cy="256" r="207"/>
		<g>
			<g>
				<path class="st2" d="M293.8,72.5h-75.5V43.6c0-20.9,16.9-37.8,37.8-37.8l0,0c20.9,0,37.8,16.9,37.8,37.8V72.5z"/>
			</g>
			<g>
				<path class="st3" d="M258.8,6v66.6h35V43.6C293.8,23.7,278.3,7.4,258.8,6z"/>
			</g>
			<g>
				<path class="st4" d="M293.8,78.4h-75.5c-3.2,0-5.9-2.6-5.9-5.9V43.6C212.4,19.6,231.9,0,256,0s43.6,19.6,43.6,43.6v28.9
					C299.6,75.8,297,78.4,293.8,78.4z M224.1,66.7h63.8v-23c0-17.6-14.3-31.9-31.9-31.9S224.1,26,224.1,43.6V66.7z"/>
			</g>
			<g>
				
					<ellipse transform="matrix(0.7071 -0.7071 0.7071 0.7071 -126.3536 264.4147)" class="st6" cx="256" cy="284.7" rx="221.4" ry="221.4"/>
			</g>
			<g>
				<ellipse class="st5" cx="235.3" cy="284.7" rx="200.7" ry="220.4"/>
			</g>
			<g>
				<circle class="st5" cx="256" cy="284.7" r="180.9"/>
			</g>
			<g>
				<ellipse class="st0" cx="238.5" cy="284.7" rx="163.3" ry="180"/>
			</g>
			<g>
				<path class="st4" d="M256,512c-60.7,0-117.8-23.6-160.7-66.6c-42.9-42.9-66.6-100-66.6-160.7S52.4,167,95.3,124
					c42.9-42.9,100-66.6,160.7-66.6S373.8,81.1,416.7,124c42.9,42.9,66.6,100,66.6,160.7s-23.6,117.8-66.6,160.7
					C373.8,488.4,316.7,512,256,512z M256,69.2c-57.6,0-111.7,22.4-152.4,63.1C62.9,173,40.5,227.2,40.5,284.7
					c0,57.6,22.4,111.7,63.1,152.4c40.7,40.7,94.8,63.1,152.4,63.1s111.7-22.4,152.4-63.1c40.7-40.7,63.1-94.8,63.1-152.4
					c0-57.6-22.4-111.7-63.1-152.4C367.7,91.6,313.6,69.2,256,69.2z"/>
			</g>
			<g>
				<path class="st4" d="M256,471.5c-103,0-186.7-83.8-186.7-186.7C69.3,181.8,153,98,256,98s186.7,83.8,186.7,186.7
					C442.7,387.7,359,471.5,256,471.5z M256,109.7c-96.5,0-175,78.5-175,175s78.5,175,175,175s175-78.5,175-175
					S352.5,109.7,256,109.7z"/>
			</g>
			<g>
				<path class="st4" d="M256,370.5c-47.3,0-85.7-38.5-85.7-85.7c0-47.3,38.5-85.7,85.7-85.7s85.7,38.5,85.7,85.7
					C341.7,332,303.3,370.5,256,370.5z M256,210.7c-40.8,0-74,33.2-74,74c0,40.8,33.2,74,74,74s74-33.2,74-74
					C330,243.9,296.8,210.7,256,210.7z"/>
			</g>
			<g>
				<g>
					<path class="st4" d="M436.9,290.6h-28.3c-3.2,0-5.9-2.6-5.9-5.9c0-3.2,2.6-5.9,5.9-5.9h28.3c3.2,0,5.9,2.6,5.9,5.9
						C442.7,288,440.1,290.6,436.9,290.6z"/>
				</g>
				<g>
					<path class="st4" d="M103.5,290.6H75.1c-3.2,0-5.9-2.6-5.9-5.9c0-3.2,2.6-5.9,5.9-5.9h28.3c3.2,0,5.9,2.6,5.9,5.9
						C109.3,288,106.7,290.6,103.5,290.6z"/>
				</g>
			</g>
			<g>
				<g>
					<polygon class="st5" points="256,284.7 274.4,303.1 215.2,343.9 156,384.8 196.8,325.6 237.6,266.3 					"/>
				</g>
				<g>
					<polygon class="st2" points="256,284.7 237.6,266.3 296.8,225.5 356,184.7 315.2,243.9 274.4,303.1 					"/>
				</g>
				<g>
					<path class="st4" d="M156,390.6c-1.5,0-3-0.6-4.1-1.7c-2-2-2.3-5.1-0.7-7.5L232.8,263c1-1.4,2.6-2.4,4.3-2.5
						c1.7-0.2,3.4,0.5,4.7,1.7l36.8,36.8c1.2,1.2,1.9,2.9,1.7,4.7c-0.2,1.7-1.1,3.3-2.5,4.3l-118.4,81.7
						C158.3,390.3,157.1,390.6,156,390.6z M238.4,275.5l-59.6,86.4l86.4-59.6l-13.4-13.4v0L238.4,275.5z"/>
				</g>
				<g>
					<path class="st4" d="M274.4,309c-1.5,0-3-0.6-4.1-1.7l-18.4-18.4c0,0,0,0,0,0l-18.4-18.4c-1.2-1.2-1.9-2.9-1.7-4.7
						c0.2-1.7,1.1-3.3,2.5-4.3l118.4-81.7c2.3-1.6,5.5-1.3,7.5,0.7c2,2,2.3,5.1,0.7,7.5l-81.7,118.4c-1,1.4-2.6,2.4-4.3,2.5
						C274.7,309,274.6,309,274.4,309z M260.1,280.6l13.4,13.4l59.6-86.4l-86.4,59.6L260.1,280.6L260.1,280.6z"/>
				</g>
			</g>
			<g>
				<g>
					<path class="st4" d="M256,138.1c-3.2,0-5.9-2.6-5.9-5.9v-28.3c0-3.2,2.6-5.9,5.9-5.9c3.2,0,5.9,2.6,5.9,5.9v28.3
						C261.9,135.4,259.2,138.1,256,138.1z"/>
				</g>
				<g>
					<path class="st4" d="M256,471.5c-3.2,0-5.9-2.6-5.9-5.9v-28.3c0-3.2,2.6-5.9,5.9-5.9c3.2,0,5.9,2.6,5.9,5.9v28.3
						C261.9,468.8,259.2,471.5,256,471.5z"/>
				</g>
			</g>
		</g>
	</g>
</g>
</svg>
