<?xml version="1.0" encoding="UTF-8"?>
<svg width="392px" height="393px" viewBox="0 0 392 393" version="1.1" xmlns="http://www.w3.org/2000/svg" xmlns:xlink="http://www.w3.org/1999/xlink">
    <!-- Generator: Sketch 49.3 (51167) - http://www.bohemiancoding.com/sketch -->
    <title>Group</title>
    <desc>Created with Sketch.</desc>
    <defs></defs>
    <g id="Page-1" stroke="none" stroke-width="1" fill="none" fill-rule="evenodd">
        <g id="Solutions---Startups" transform="translate(-208.000000, -80.000000)" fill-rule="nonzero">
            <g id="Hero">
                <g id="estimate" transform="translate(208.000000, 80.000000)">
                    <g id="Group">
                        <g id="Shape">
                            <path d="M5.9,60.9 L5.9,47.5 C5.9,25.1 24.2,6.7 46.6,6.7 L344.9,6.4 C367.3,6.4 385.7,24.7 385.7,47.1 L386,345.4 C386,367.8 367.7,386.2 345.3,386.2 L47,386.5 C24.6,386.5 6.2,368.2 6.2,345.8 L5.9,104.8 L5.9,60.9 Z" fill="#A4CFF2"></path>
                            <path d="M359.7,9.1 L359.7,383.5 C371.9,378.8 381.4,368.4 384.8,355.6 L384.8,38.3 C381.8,24.9 372.2,14 359.7,9.1 Z" fill="#7BABF1"></path>
                            <path d="M102.3,180.3 L62.7,180.3 C46,180.3 32.3,166.7 32.3,150 L32.2,62.7 C32.2,46 45.8,32.3 62.5,32.3 L149.8,32.2 C166.5,32.2 180.2,45.8 180.2,62.5 L180.3,149.8 C180.3,166.5 166.7,180.2 150,180.2 L145.9,180.2 L102.3,180.3 Z" fill="#D3E6F8"></path>
                            <path d="M155.9,31.8 L155.9,179 C169.2,176.9 179.6,166 181.2,152.6 L181.2,59.2 C180,45.3 169.4,34 155.9,31.8 Z" fill="#A4CFF2"></path>
                            <path d="M106.7,138.4 C103.5,138.4 100.8,135.8 100.8,132.5 L100.8,78 C100.8,74.8 103.4,72.1 106.7,72.1 C109.9,72.1 112.6,74.7 112.6,78 L112.6,132.5 C112.5,135.8 109.9,138.4 106.7,138.4 Z" fill="#4C4372"></path>
                            <path d="M133.9,111.1 L79.4,111.1 C76.2,111.1 73.5,108.5 73.5,105.2 C73.5,102 76.1,99.3 79.4,99.3 L133.9,99.3 C137.1,99.3 139.8,101.9 139.8,105.2 C139.8,108.5 137.2,111.1 133.9,111.1 Z" fill="#4C4372"></path>
                            <g transform="translate(26.000000, 206.000000)">
                                <path d="M76.3,154.6 L36.7,154.6 C20,154.6 6.3,141 6.3,124.3 L6.3,37 C6.3,20.3 19.9,6.6 36.6,6.6 L123.9,6.5 C140.6,6.5 154.3,20.1 154.3,36.8 L154.4,124.1 C154.4,140.8 140.8,154.5 124.1,154.5 L120,154.5 L76.3,154.6 Z" fill="#D3E6F8"></path>
                                <path d="M129.9,6.9 L129.9,154.1 C143.2,152 153.6,141.1 155.2,127.7 L155.2,34.3 C154,20.5 143.4,9.2 129.9,6.9 Z" fill="#A4CFF2"></path>
                                <path d="M61.4,105.6 C59.9,105.6 58.4,105 57.3,103.9 C55,101.6 55,97.9 57.3,95.6 L95.9,57 C98.2,54.7 101.9,54.7 104.2,57 C106.5,59.3 106.5,63 104.2,65.3 L65.6,103.9 C64.4,105 62.9,105.6 61.4,105.6 Z" fill="#4C4372"></path>
                                <path d="M100,105.6 C98.5,105.6 97,105 95.9,103.9 L57.3,65.3 C55,63 55,59.3 57.3,57 C59.6,54.7 63.3,54.7 65.6,57 L104.2,95.6 C106.5,97.9 106.5,101.6 104.2,103.9 C103,105 101.5,105.6 100,105.6 Z" fill="#4C4372"></path>
                                <path d="M36.7,160.5 C27.1,160.5 18,156.7 11.1,149.9 C4.2,143.1 0.4,134 0.4,124.3 L0.4,37 C0.4,27.4 4.2,18.3 11,11.4 C17.8,4.5 26.9,0.7 36.6,0.7 L123.9,0.6 C123.9,0.6 123.9,0.6 123.9,0.6 C143.9,0.6 160.1,16.8 160.1,36.8 L160.2,124.1 C160.2,133.7 156.4,142.8 149.6,149.7 C142.8,156.6 133.7,160.4 124,160.4 L76.2,160.5 L36.7,160.5 C36.8,160.5 36.8,160.5 36.7,160.5 Z M124,12.4 C124,12.4 124,12.4 124,12.4 L36.6,12.5 C30.1,12.5 24,15.1 19.3,19.7 C14.7,24.3 12.1,30.5 12.1,37 L12.2,124.3 C12.2,130.8 14.8,136.9 19.4,141.6 C24,146.2 30.2,148.8 36.7,148.8 C36.7,148.8 36.7,148.8 36.7,148.8 L124,148.7 C130.5,148.7 136.6,146.1 141.3,141.5 C145.9,136.9 148.5,130.7 148.5,124.2 L148.4,36.9 C148.4,23.4 137.5,12.4 124,12.4 Z" fill="#4C4372"></path>
                            </g>
                            <g transform="translate(205.000000, 26.000000)">
                                <path d="M76.6,154.3 L37,154.3 C20.3,154.3 6.6,140.7 6.6,124 L6.5,36.7 C6.5,20 20.1,6.3 36.8,6.3 L124.1,6.2 C140.8,6.2 154.5,19.8 154.5,36.5 L154.6,123.8 C154.6,140.5 141,154.2 124.3,154.2 L120.2,154.2 L76.6,154.3 Z" fill="#D3E6F8"></path>
                                <path d="M129.1,5.8 L129.1,153 C142.4,150.9 152.8,140 154.4,126.6 L154.4,33.2 C153.3,19.3 142.7,8 129.1,5.8 Z" fill="#A4CFF2"></path>
                                <path d="M108.2,85.1 L53.7,85.1 C50.5,85.1 47.8,82.5 47.8,79.2 C47.8,76 50.4,73.3 53.7,73.3 L108.2,73.3 C111.4,73.3 114.1,75.9 114.1,79.2 C114,82.5 111.4,85.1 108.2,85.1 Z" fill="#4C4372"></path>
                                <path d="M37,160.2 C27.4,160.2 18.3,156.4 11.4,149.6 C4.5,142.8 0.7,133.7 0.7,124 L0.6,36.7 C0.6,27.1 4.4,18 11.2,11.1 C18,4.2 27.1,0.4 36.8,0.4 L124.1,0.3 C124.1,0.3 124.1,0.3 124.1,0.3 C144,0.3 160.3,16.5 160.3,36.5 L160.4,123.8 C160.4,133.4 156.6,142.5 149.8,149.4 C143,156.3 133.9,160.1 124.2,160.1 L76.4,160.2 L37,160.2 C37,160.2 37,160.2 37,160.2 Z M124.2,12.1 C124.2,12.1 124.2,12.1 124.2,12.1 L36.8,12.2 C30.3,12.2 24.2,14.8 19.5,19.4 C14.9,24 12.3,30.2 12.3,36.7 L12.4,124 C12.4,130.5 15,136.6 19.6,141.3 C24.2,145.9 30.4,148.5 36.9,148.5 C36.9,148.5 36.9,148.5 36.9,148.5 L124.2,148.4 C130.7,148.4 136.8,145.8 141.5,141.2 C146.1,136.6 148.7,130.4 148.7,123.9 L148.6,36.6 C148.7,23 137.7,12.1 124.2,12.1 Z" fill="#4C4372"></path>
                            </g>
                            <g transform="translate(205.000000, 206.000000)">
                                <path d="M76.6,154.6 L37,154.6 C20.3,154.6 6.6,141 6.6,124.3 L6.5,37 C6.5,20.3 20.1,6.6 36.8,6.6 L124.1,6.5 C140.8,6.5 154.5,20.1 154.5,36.8 L154.6,124.1 C154.6,140.8 141,154.5 124.3,154.5 L120.2,154.5 L76.6,154.6 Z" fill="#FD919E"></path>
                                <path d="M129.1,6.9 L129.1,154.1 C142.4,152 152.8,141.1 154.4,127.7 L154.4,34.3 C153.3,20.5 142.7,9.2 129.1,6.9 Z" fill="#E8677D"></path>
                                <path d="M108.2,77.5 L53.7,77.5 C50.5,77.5 47.8,74.9 47.8,71.6 C47.8,68.4 50.4,65.7 53.7,65.7 L108.2,65.7 C111.4,65.7 114.1,68.3 114.1,71.6 C114,74.9 111.4,77.5 108.2,77.5 Z" fill="#4C4372"></path>
                                <path d="M108.2,96 L53.7,96 C50.5,96 47.8,93.4 47.8,90.1 C47.8,86.9 50.4,84.2 53.7,84.2 L108.2,84.2 C111.4,84.2 114.1,86.8 114.1,90.1 C114,93.4 111.4,96 108.2,96 Z" fill="#4C4372"></path>
                                <path d="M37,160.5 C27.4,160.5 18.3,156.7 11.4,149.9 C4.5,143.1 0.7,134 0.7,124.3 L0.6,37 C0.6,27.4 4.4,18.3 11.2,11.4 C18,4.5 27.1,0.7 36.8,0.7 L124.1,0.6 C124.1,0.6 124.1,0.6 124.1,0.6 C144,0.6 160.3,16.8 160.3,36.8 L160.4,124.1 C160.4,133.7 156.6,142.8 149.8,149.7 C143,156.6 133.9,160.4 124.2,160.4 L76.4,160.5 L37,160.5 C37,160.5 37,160.5 37,160.5 Z M124.2,12.4 C124.2,12.4 124.2,12.4 124.2,12.4 L36.8,12.5 C30.3,12.5 24.2,15.1 19.5,19.7 C14.9,24.3 12.3,30.5 12.3,37 L12.4,124.3 C12.4,130.8 15,136.9 19.6,141.6 C24.2,146.2 30.4,148.8 36.9,148.8 C36.9,148.8 36.9,148.8 36.9,148.8 L124.2,148.7 C130.7,148.7 136.8,146.1 141.5,141.5 C146.1,136.9 148.7,130.7 148.7,124.2 L148.6,36.9 C148.7,23.4 137.7,12.4 124.2,12.4 Z" fill="#4C4372"></path>
                            </g>
                            <path d="M47,392.4 C21.3,392.4 0.4,371.5 0.4,345.8 L0,47.5 C0,35.1 4.8,23.4 13.7,14.5 C22.5,5.7 34.2,0.8 46.6,0.8 L344.9,0.5 C344.9,0.5 344.9,0.5 345,0.5 C357.4,0.5 369.1,5.3 377.9,14.2 C386.7,23 391.6,34.7 391.6,47.1 L391.9,345.4 C391.9,371.1 371,392.1 345.3,392.1 L47,392.4 C47,392.4 47,392.4 47,392.4 Z M345,12.2 C344.9,12.2 344.9,12.2 345,12.2 L46.6,12.5 C37.3,12.5 28.6,16.2 22,22.8 C15.4,29.4 11.8,38.2 11.8,47.5 L11.8,60.9 L12.1,345.8 C12.1,365 27.8,380.7 47,380.7 C47,380.7 47,380.7 47,380.7 L345.3,380.4 C364.5,380.4 380.2,364.7 380.2,345.5 L379.9,47.2 C379.9,37.9 376.2,29.2 369.6,22.6 C363,15.8 354.2,12.2 345,12.2 Z" fill="#4C4372"></path>
                            <path d="M62.7,186.2 C53.1,186.2 44,182.4 37.1,175.6 C30.2,168.8 26.4,159.7 26.4,150 L26.3,62.7 C26.3,53.1 30.1,44 36.9,37.1 C43.7,30.2 52.8,26.4 62.5,26.4 L149.8,26.3 C149.8,26.3 149.8,26.3 149.8,26.3 C169.8,26.3 186,42.5 186,62.5 L186.1,149.8 C186.1,159.4 182.3,168.5 175.5,175.4 C168.7,182.3 159.6,186.1 149.9,186.1 L102.1,186.2 L62.7,186.2 C62.8,186.2 62.8,186.2 62.7,186.2 Z M150,38.1 C150,38.1 150,38.1 150,38.1 L62.6,38.2 C56.1,38.2 50,40.8 45.3,45.4 C40.7,50 38.1,56.2 38.1,62.7 L38.2,150 C38.2,156.5 40.8,162.6 45.4,167.3 C50,171.9 56.2,174.5 62.7,174.5 C62.7,174.5 62.7,174.5 62.7,174.5 L150,174.4 C156.5,174.4 162.6,171.8 167.3,167.2 C171.9,162.6 174.5,156.4 174.5,149.9 L174.4,62.6 C174.4,49 163.5,38.1 150,38.1 Z" fill="#4C4372"></path>
                        </g>
                    </g>
                </g>
            </g>
        </g>
    </g>
</svg>