<?xml version="1.0" encoding="UTF-8"?>
<svg width="65px" height="64px" viewBox="0 0 65 64" version="1.1" xmlns="http://www.w3.org/2000/svg" xmlns:xlink="http://www.w3.org/1999/xlink">
    <!-- Generator: Sketch 3.8.1 (29687) - http://www.bohemiancoding.com/sketch -->
    <title>data-science</title>
    <desc>Created with Sketch.</desc>
    <defs></defs>
    <g id="Page-1" stroke="none" stroke-width="1" fill="none" fill-rule="evenodd">
        <g id="Desktop-HD-Copy" transform="translate(-71.000000, -332.000000)" stroke="#222829" stroke-width="2">
            <g id="data-science" transform="translate(72.000000, 333.000000)">
                <path d="M46.8945,31 C46.8945,48.121 40.1785,62 31.8945,62 C23.6105,62 16.8945,48.121 16.8945,31 C16.8945,13.879 23.6105,0 31.8945,0 C40.1785,0 46.8945,13.879 46.8945,31 L46.8945,31 Z" id="Stroke-2"></path>
                <path d="M31.8945,46 C14.7735,46 0.8945,39.284 0.8945,31 C0.8945,22.716 14.7735,16 31.8945,16 C49.0155,16 62.8945,22.716 62.8945,31 C62.8945,39.284 49.0155,46 31.8945,46 L31.8945,46 Z" id="Stroke-3"></path>
                <path d="M42.5009,41.6064 C30.3949,53.7134 15.8319,58.7784 9.9749,52.9204 C4.1159,47.0624 9.1819,32.5004 21.2879,20.3934 C33.3949,8.2874 47.9569,3.2214 53.8149,9.0804 C59.6729,14.9374 54.6079,29.5004 42.5009,41.6064 L42.5009,41.6064 Z" id="Stroke-4"></path>
                <path d="M21.2881,41.6064 C9.1811,29.5004 4.1161,14.9374 9.9741,9.0804 C15.8321,3.2214 30.3941,8.2874 42.5011,20.3934 C54.6071,32.5004 59.6731,47.0624 53.8141,52.9204 C47.9571,58.7784 33.3941,53.7134 21.2881,41.6064 L21.2881,41.6064 Z" id="Stroke-5"></path>
                <path d="M38.8945,25 C38.8945,26.656 35.7605,28 31.8945,28 C28.0285,28 24.8945,26.656 24.8945,25 C24.8945,23.344 28.0285,22 31.8945,22 C35.7605,22 38.8945,23.344 38.8945,25 L38.8945,25 Z" id="Stroke-6"></path>
                <path d="M38.8945,29 C38.8945,30.656 35.7605,32 31.8945,32 C28.0285,32 24.8945,30.656 24.8945,29" id="Stroke-7"></path>
                <path d="M38.8945,33 C38.8945,34.656 35.7605,36 31.8945,36 C28.0285,36 24.8945,34.656 24.8945,33" id="Stroke-8"></path>
                <path d="M38.8945,25 L38.8945,37 C38.8945,38.656 35.7605,40 31.8945,40 C28.0285,40 24.8945,38.656 24.8945,37 L24.8945,25" id="Stroke-9"></path>
                <path d="M48.8945,13 L50.8945,13" id="Stroke-10"></path>
                <path d="M48.8945,49 L50.8945,49" id="Stroke-11"></path>
                <path d="M12.8945,49 L14.8945,49" id="Stroke-12"></path>
                <path d="M12.8945,13 L14.8945,13" id="Stroke-13"></path>
            </g>
        </g>
    </g>
</svg>