<?xml version="1.0" encoding="utf-8"?>
<!-- Generator: Adobe Illustrator 22.0.1, SVG Export Plug-In . SVG Version: 6.00 Build 0)  -->
<svg version="1.1" id="Icon_Set" xmlns="http://www.w3.org/2000/svg" xmlns:xlink="http://www.w3.org/1999/xlink" x="0px" y="0px"
	 viewBox="0 0 512 512" style="enable-background:new 0 0 512 512;" xml:space="preserve">
<style type="text/css">
	.st0{fill:#FFFFFF;}
	.st1{fill:#F0C48A;}
	.st2{fill:#FD919E;}
	.st3{fill:#E8677D;}
	.st4{fill:#4C4372;}
	.st5{fill:#D3E6F8;}
	.st6{fill:#A4CFF2;}
	.st7{fill:#7BABF1;}
	.st8{fill:none;stroke:#4C4372;stroke-width:12;stroke-linecap:round;stroke-linejoin:round;stroke-miterlimit:10;}
</style>
<g id="Design">
	<g>
		<circle class="st1" cx="256" cy="256" r="207"/>
		<g>
			<g>
				<g>
					<path class="st6" d="M123.1,395.1L123.1,395.1l-29.5-55.3v-205c0-9.9,8-17.9,17.9-17.9h23.2c9.9,0,17.9,8,17.9,17.9v205
						L123.1,395.1z"/>
				</g>
				<g>
					<polygon class="st7" points="134.9,339.2 123.1,361.7 107.9,361.7 105.7,363.5 123.2,395 152.8,339.9 					"/>
				</g>
				<g>
					<rect x="134.9" y="164.9" class="st7" width="17.9" height="174.3"/>
				</g>
				<g>
					<path class="st2" d="M151.2,165.6H93.6l0-26.4c0-14.9,10.7-22.4,25.6-22.4h5c20.7,0.1,27,10.7,27,25.7V165.6z"/>
				</g>
				<g>
					<path class="st3" d="M152.8,165.6h-17.9v-48.9l0,0c9.9,0,17.9,8,17.9,17.9V165.6z"/>
				</g>
				<g>
					<path class="st4" d="M152.6,171.2h-59c-3.2,0-5.9-2.6-5.9-5.9s2.6-5.9,5.9-5.9h59c3.2,0,5.9,2.6,5.9,5.9
						S155.8,171.2,152.6,171.2z"/>
				</g>
				<g>
					<path class="st4" d="M152.6,344.9h-59c-3.2,0-5.9-2.6-5.9-5.9c0-3.2,2.6-5.9,5.9-5.9h59c3.2,0,5.9,2.6,5.9,5.9
						C158.5,342.2,155.8,344.9,152.6,344.9z"/>
				</g>
				<g>
					<path class="st4" d="M140.5,367.5h-34.7c-3.2,0-5.9-2.6-5.9-5.9s2.6-5.9,5.9-5.9h34.7c3.2,0,5.9,2.6,5.9,5.9
						S143.7,367.5,140.5,367.5z"/>
				</g>
				<g>
					<path class="st4" d="M123.1,344.9c-3.2,0-5.9-2.6-5.9-5.9V165.4c0-3.2,2.6-5.9,5.9-5.9s5.9,2.6,5.9,5.9V339
						C129,342.2,126.3,344.9,123.1,344.9z"/>
				</g>
				<g>
					<path class="st4" d="M123.1,400.9c-2.2,0-4.2-1.2-5.2-3.1l-29.5-55.3c-0.5-0.8-0.7-1.8-0.7-2.8v-205
						c0-13.1,10.7-23.8,23.8-23.8h23.2c13.1,0,23.8,10.7,23.8,23.8v205c0,1-0.2,1.9-0.7,2.8l-29.5,55.3
						C127.2,399.7,125.3,400.9,123.1,400.9z M99.4,338.3l23.6,44.3l23.6-44.3V134.8c0-6.6-5.4-12-12-12h-23.2c-6.6,0-12,5.4-12,12
						V338.3z"/>
				</g>
			</g>
			<g>
				<g>
					<path class="st0" d="M61.1,310.9H20c-7.8,0-14.1-6.4-14.1-14.1V215c0-7.8,6.4-14.1,14.1-14.1h41.1c7.8,0,14.1,6.4,14.1,14.1
						v81.7C75.2,304.6,68.8,310.9,61.1,310.9z"/>
				</g>
				<g>
					<path class="st6" d="M57.6,310.9h3.5c7.8,0,14.1-6.4,14.1-14.1V229H57.6V310.9z"/>
				</g>
				<g>
					<path class="st6" d="M61.1,200.9H20c-7.8,0-14.1,6.4-14.1,14.1v23.3h69.3V215C75.2,207.3,68.8,200.9,61.1,200.9z"/>
				</g>
				<g>
					<path class="st7" d="M66.4,201.9h-8.8v36.4h17.6V215C75.2,209.1,71.5,204.1,66.4,201.9z"/>
				</g>
				<g>
					<path class="st4" d="M61.1,316.8H20c-11,0-20-9-20-20V215c0-11,9-20,20-20h41.1c11,0,20,9,20,20v81.7
						C81.1,307.8,72.1,316.8,61.1,316.8z M20,206.8c-4.6,0-8.3,3.7-8.3,8.3v81.7c0,4.6,3.7,8.3,8.3,8.3h41.1c4.6,0,8.3-3.7,8.3-8.3
						V215c0-4.6-3.7-8.3-8.3-8.3H20z"/>
				</g>
				<g>
					<path class="st4" d="M75.2,244.2H5.9c-3.2,0-5.9-2.6-5.9-5.9c0-3.2,2.6-5.9,5.9-5.9h69.3c3.2,0,5.9,2.6,5.9,5.9
						C81.1,241.6,78.4,244.2,75.2,244.2z"/>
				</g>
			</g>
			<g>
				<g>
					<path class="st6" d="M172.5,121.5v268.9h333.6L172.5,121.5z M215.6,212.5L393,350.6H215.6V212.5z"/>
				</g>
				<g>
					<polygon class="st7" points="483.9,372.4 506.1,390.3 172.5,390.3 172.5,372.4 483.9,372.4 					"/>
				</g>
				<g>
					<path class="st4" d="M506.1,396.2H172.5c-3.2,0-5.9-2.6-5.9-5.9V121.5c0-2.3,1.3-4.3,3.3-5.3c2-1,4.5-0.7,6.2,0.7l333.6,268.9
						c1.9,1.6,2.7,4.2,1.9,6.5C510.8,394.6,508.6,396.2,506.1,396.2z M178.4,384.5h311.1L178.4,133.7V384.5z"/>
				</g>
				<g>
					<path class="st4" d="M393,356.5H215.6c-3.2,0-5.9-2.6-5.9-5.9V212.5c0-2.2,1.3-4.3,3.3-5.3c2-1,4.4-0.7,6.2,0.6L396.6,346
						c2,1.5,2.8,4.2,1.9,6.5C397.7,354.9,395.5,356.5,393,356.5z M221.5,344.8h154.4L221.5,224.5V344.8z"/>
				</g>
				<g>
					<path class="st4" d="M217.2,395c-3.2,0-5.9-2.6-5.9-5.9v-11.5c0-3.2,2.6-5.9,5.9-5.9c3.2,0,5.9,2.6,5.9,5.9v11.5
						C223.1,392.3,220.5,395,217.2,395z"/>
				</g>
				<g>
					<path class="st4" d="M260.9,395c-3.2,0-5.9-2.6-5.9-5.9v-11.5c0-3.2,2.6-5.9,5.9-5.9c3.2,0,5.9,2.6,5.9,5.9v11.5
						C266.7,392.3,264.1,395,260.9,395z"/>
				</g>
				<g>
					<path class="st4" d="M304.5,395c-3.2,0-5.9-2.6-5.9-5.9v-11.5c0-3.2,2.6-5.9,5.9-5.9c3.2,0,5.9,2.6,5.9,5.9v11.5
						C310.4,392.3,307.7,395,304.5,395z"/>
				</g>
				<g>
					<path class="st4" d="M348.1,395c-3.2,0-5.9-2.6-5.9-5.9v-11.5c0-3.2,2.6-5.9,5.9-5.9c3.2,0,5.9,2.6,5.9,5.9v11.5
						C354,392.3,351.4,395,348.1,395z"/>
				</g>
				<g>
					<path class="st4" d="M391.8,395c-3.2,0-5.9-2.6-5.9-5.9v-11.5c0-3.2,2.6-5.9,5.9-5.9c3.2,0,5.9,2.6,5.9,5.9v11.5
						C397.6,392.3,395,395,391.8,395z"/>
				</g>
				<g>
					<path class="st4" d="M435.4,395c-3.2,0-5.9-2.6-5.9-5.9v-11.5c0-3.2,2.6-5.9,5.9-5.9c3.2,0,5.9,2.6,5.9,5.9v11.5
						C441.2,392.3,438.6,395,435.4,395z"/>
				</g>
			</g>
		</g>
	</g>
</g>
</svg>
