<?xml version="1.0" encoding="UTF-8"?>
<svg width="512px" height="291px" viewBox="0 0 512 291" version="1.1" xmlns="http://www.w3.org/2000/svg" xmlns:xlink="http://www.w3.org/1999/xlink">
    <!-- Generator: Sketch 49.3 (51167) - http://www.bohemiancoding.com/sketch -->
    <title>design</title>
    <desc>Created with Sketch.</desc>
    <defs></defs>
    <g id="Page-1" stroke="none" stroke-width="1" fill="none" fill-rule="evenodd">
        <g id="Desktop-HD-Copy" transform="translate(-588.000000, -685.000000)" fill-rule="nonzero">
            <g id="design" transform="translate(588.000000, 685.000000)">
                <g id="Group">
                    <g transform="translate(87.000000, 0.000000)">
                        <path d="M36.1,285.1 L6.6,229.8 L6.6,24.8 C6.6,14.9 14.6,6.9 24.5,6.9 L47.7,6.9 C57.6,6.9 65.6,14.9 65.6,24.8 L65.6,229.8 L36.1,285.1 Z" id="Shape" fill="#A4CFF2"></path>
                        <polygon id="Shape" fill="#7BABF1" points="47.9 229.2 36.1 251.7 20.9 251.7 18.7 253.5 36.2 285 65.8 229.9"></polygon>
                        <rect id="Rectangle-path" fill="#7BABF1" x="47.9" y="54.9" width="17.9" height="174.3"></rect>
                        <path d="M64.2,55.6 L6.6,55.6 L6.6,29.2 C6.6,14.3 17.3,6.8 32.2,6.8 L37.2,6.8 C57.9,6.9 64.2,17.5 64.2,32.5 L64.2,55.6 Z" id="Shape" fill="#FD919E"></path>
                        <path d="M65.8,55.6 L47.9,55.6 L47.9,6.7 C57.8,6.7 65.8,14.7 65.8,24.6 L65.8,55.6 Z" id="Shape" fill="#E8677D"></path>
                        <path d="M65.6,61.2 L6.6,61.2 C3.4,61.2 0.7,58.6 0.7,55.3 C0.7,52 3.3,49.4 6.6,49.4 L65.6,49.4 C68.8,49.4 71.5,52 71.5,55.3 C71.5,58.6 68.8,61.2 65.6,61.2 Z" id="Shape" fill="#4C4372"></path>
                        <path d="M65.6,234.9 L6.6,234.9 C3.4,234.9 0.7,232.3 0.7,229 C0.7,225.8 3.3,223.1 6.6,223.1 L65.6,223.1 C68.8,223.1 71.5,225.7 71.5,229 C71.5,232.2 68.8,234.9 65.6,234.9 Z" id="Shape" fill="#4C4372"></path>
                        <path d="M53.5,257.5 L18.8,257.5 C15.6,257.5 12.9,254.9 12.9,251.6 C12.9,248.3 15.5,245.7 18.8,245.7 L53.5,245.7 C56.7,245.7 59.4,248.3 59.4,251.6 C59.4,254.9 56.7,257.5 53.5,257.5 Z" id="Shape" fill="#4C4372"></path>
                        <path d="M36.1,234.9 C32.9,234.9 30.2,232.3 30.2,229 L30.2,55.4 C30.2,52.2 32.8,49.5 36.1,49.5 C39.4,49.5 42,52.1 42,55.4 L42,229 C42,232.2 39.3,234.9 36.1,234.9 Z" id="Shape" fill="#4C4372"></path>
                        <path d="M36.1,290.9 C33.9,290.9 31.9,289.7 30.9,287.8 L1.4,232.5 C0.9,231.7 0.7,230.7 0.7,229.7 L0.7,24.7 C0.7,11.6 11.4,0.9 24.5,0.9 L47.7,0.9 C60.8,0.9 71.5,11.6 71.5,24.7 L71.5,229.7 C71.5,230.7 71.3,231.6 70.8,232.5 L41.3,287.8 C40.2,289.7 38.3,290.9 36.1,290.9 Z M12.4,228.3 L36,272.6 L59.6,228.3 L59.6,24.8 C59.6,18.2 54.2,12.8 47.6,12.8 L24.4,12.8 C17.8,12.8 12.4,18.2 12.4,24.8 L12.4,228.3 Z" id="Shape" fill="#4C4372"></path>
                    </g>
                    <g transform="translate(0.000000, 85.000000)" id="Shape">
                        <path d="M61.1,115.9 L20,115.9 C12.2,115.9 5.9,109.5 5.9,101.8 L5.9,20 C5.9,12.2 12.3,5.9 20,5.9 L61.1,5.9 C68.9,5.9 75.2,12.3 75.2,20 L75.2,101.7 C75.2,109.6 68.8,115.9 61.1,115.9 Z" fill="#FFFFFF"></path>
                        <path d="M57.6,115.9 L61.1,115.9 C68.9,115.9 75.2,109.5 75.2,101.8 L75.2,34 L57.6,34 L57.6,115.9 Z" fill="#A4CFF2"></path>
                        <path d="M61.1,5.9 L20,5.9 C12.2,5.9 5.9,12.3 5.9,20 L5.9,43.3 L75.2,43.3 L75.2,20 C75.2,12.3 68.8,5.9 61.1,5.9 Z" fill="#A4CFF2"></path>
                        <path d="M66.4,6.9 L57.6,6.9 L57.6,43.3 L75.2,43.3 L75.2,20 C75.2,14.1 71.5,9.1 66.4,6.9 Z" fill="#7BABF1"></path>
                        <path d="M61.1,121.8 L20,121.8 C9,121.8 0,112.8 0,101.8 L0,20 C0,9 9,0 20,0 L61.1,0 C72.1,0 81.1,9 81.1,20 L81.1,101.7 C81.1,112.8 72.1,121.8 61.1,121.8 Z M20,11.8 C15.4,11.8 11.7,15.5 11.7,20.1 L11.7,101.8 C11.7,106.4 15.4,110.1 20,110.1 L61.1,110.1 C65.7,110.1 69.4,106.4 69.4,101.8 L69.4,20 C69.4,15.4 65.7,11.7 61.1,11.7 L20,11.7 L20,11.8 Z" fill="#4C4372"></path>
                        <path d="M75.2,49.2 L5.9,49.2 C2.7,49.2 0,46.6 0,43.3 C0,40.1 2.6,37.4 5.9,37.4 L75.2,37.4 C78.4,37.4 81.1,40 81.1,43.3 C81.1,46.6 78.4,49.2 75.2,49.2 Z" fill="#4C4372"></path>
                    </g>
                    <g transform="translate(166.000000, 5.000000)" id="Shape">
                        <path d="M6.5,6.5 L6.5,275.4 L340.1,275.4 L6.5,6.5 Z M49.6,97.5 L227,235.6 L49.6,235.6 L49.6,97.5 Z" fill="#A4CFF2"></path>
                        <polygon fill="#7BABF1" points="317.9 257.4 340.1 275.3 6.5 275.3 6.5 257.4"></polygon>
                        <path d="M340.1,281.2 L6.5,281.2 C3.3,281.2 0.6,278.6 0.6,275.3 L0.6,6.5 C0.6,4.2 1.9,2.2 3.9,1.2 C5.9,0.2 8.4,0.5 10.1,1.9 L343.7,270.8 C345.6,272.4 346.4,275 345.6,277.3 C344.8,279.6 342.6,281.2 340.1,281.2 Z M12.4,269.5 L323.5,269.5 L12.4,18.7 L12.4,269.5 Z" fill="#4C4372"></path>
                        <path d="M227,241.5 L49.6,241.5 C46.4,241.5 43.7,238.9 43.7,235.6 L43.7,97.5 C43.7,95.3 45,93.2 47,92.2 C49,91.2 51.4,91.5 53.2,92.8 L230.6,231 C232.6,232.5 233.4,235.2 232.5,237.5 C231.7,239.9 229.5,241.5 227,241.5 Z M55.5,229.8 L209.9,229.8 L55.5,109.5 L55.5,229.8 Z" fill="#4C4372"></path>
                        <path d="M51.2,280 C48,280 45.3,277.4 45.3,274.1 L45.3,262.6 C45.3,259.4 47.9,256.7 51.2,256.7 C54.4,256.7 57.1,259.3 57.1,262.6 L57.1,274.1 C57.1,277.3 54.5,280 51.2,280 Z" fill="#4C4372"></path>
                        <path d="M94.9,280 C91.7,280 89,277.4 89,274.1 L89,262.6 C89,259.4 91.6,256.7 94.9,256.7 C98.1,256.7 100.8,259.3 100.8,262.6 L100.8,274.1 C100.7,277.3 98.1,280 94.9,280 Z" fill="#4C4372"></path>
                        <path d="M138.5,280 C135.3,280 132.6,277.4 132.6,274.1 L132.6,262.6 C132.6,259.4 135.2,256.7 138.5,256.7 C141.7,256.7 144.4,259.3 144.4,262.6 L144.4,274.1 C144.4,277.3 141.7,280 138.5,280 Z" fill="#4C4372"></path>
                        <path d="M182.1,280 C178.9,280 176.2,277.4 176.2,274.1 L176.2,262.6 C176.2,259.4 178.8,256.7 182.1,256.7 C185.3,256.7 188,259.3 188,262.6 L188,274.1 C188,277.3 185.4,280 182.1,280 Z" fill="#4C4372"></path>
                        <path d="M225.8,280 C222.6,280 219.9,277.4 219.9,274.1 L219.9,262.6 C219.9,259.4 222.5,256.7 225.8,256.7 C229,256.7 231.7,259.3 231.7,262.6 L231.7,274.1 C231.6,277.3 229,280 225.8,280 Z" fill="#4C4372"></path>
                        <path d="M269.4,280 C266.2,280 263.5,277.4 263.5,274.1 L263.5,262.6 C263.5,259.4 266.1,256.7 269.4,256.7 C272.6,256.7 275.3,259.3 275.3,262.6 L275.3,274.1 C275.2,277.3 272.6,280 269.4,280 Z" fill="#4C4372"></path>
                    </g>
                </g>
            </g>
        </g>
    </g>
</svg>