<?xml version="1.0" encoding="UTF-8"?>
<svg width="64px" height="60px" viewBox="0 0 64 60" version="1.1" xmlns="http://www.w3.org/2000/svg" xmlns:xlink="http://www.w3.org/1999/xlink">
    <!-- Generator: Sketch 3.8.1 (29687) - http://www.bohemiancoding.com/sketch -->
    <title>e-commerce</title>
    <desc>Created with Sketch.</desc>
    <defs></defs>
    <g id="Page-1" stroke="none" stroke-width="1" fill="none" fill-rule="evenodd">
        <g id="Desktop-HD-Copy" transform="translate(-192.000000, -226.000000)" stroke="#222829" stroke-width="2">
            <g id="e-commerce" transform="translate(192.000000, 226.000000)">
                <path d="M22,49 L45,49" id="Stroke-2" stroke-linejoin="round"></path>
                <path d="M43,53 L24,53" id="Stroke-3" stroke-linejoin="round"></path>
                <g id="Group-32" transform="translate(0.000000, 0.988800)">
                    <path d="M55,52.0112 C55,55.3242 52.313,58.0112 49,58.0112 C45.686,58.0112 43,55.3242 43,52.0112 C43,48.6972 45.686,46.0112 49,46.0112 C52.313,46.0112 55,48.6972 55,52.0112 L55,52.0112 Z" id="Stroke-4" stroke-linejoin="round"></path>
                    <path d="M24,52.0112 C24,55.3242 21.313,58.0112 18,58.0112 C14.686,58.0112 12,55.3242 12,52.0112 C12,48.6972 14.686,46.0112 18,46.0112 C21.313,46.0112 24,48.6972 24,52.0112 L24,52.0112 Z" id="Stroke-6" stroke-linejoin="round"></path>
                    <polyline id="Stroke-8" stroke-linejoin="round" points="58 21.0112 55 34.0112 12 34.0112 12 12.0112 42 12.0112"></polyline>
                    <path d="M5,0.0112 C6.656,0.0112 8,1.3552 8,3.0112 L8,35.0112" id="Stroke-10" stroke-linejoin="round"></path>
                    <path d="M9,0.0112 C10.656,0.0112 12,1.3552 12,3.0112 L12,12.0112" id="Stroke-12" stroke-linejoin="round"></path>
                    <path d="M0,0.0112 L9,0.0112" id="Stroke-14" stroke-linejoin="round"></path>
                    <path d="M0,58.0112 L64,58.0112" id="Stroke-16" stroke-linejoin="round"></path>
                    <path d="M44,20.0112 C41.889,20.0112 42.111,18.0112 40,18.0112 C37.89,18.0112 38.11,20.0112 36,20.0112 C33.891,20.0112 34.109,18.0112 32,18.0112 C29.89,18.0112 30.11,20.0112 28,20.0112 C25.89,20.0112 26.111,18.0112 24,18.0112 C21.89,18.0112 22.11,20.0112 20,20.0112 C17.891,20.0112 18.109,18.0112 16,18.0112" id="Stroke-18" stroke-linejoin="round"></path>
                    <path d="M52,28.0112 C49.887,28.0112 50.113,26.0112 48,26.0112 C45.887,26.0112 46.113,28.0112 44,28.0112 C41.889,28.0112 42.111,26.0112 40,26.0112 C37.89,26.0112 38.11,28.0112 36,28.0112 C33.891,28.0112 34.109,26.0112 32,26.0112 C29.89,26.0112 30.11,28.0112 28,28.0112 C25.89,28.0112 26.111,26.0112 24,26.0112 C21.89,26.0112 22.11,28.0112 20,28.0112 C17.891,28.0112 18.109,26.0112 16,26.0112" id="Stroke-20" stroke-linejoin="round"></path>
                    <path d="M12,52.0112 C7.029,52.0112 3,47.9822 3,43.0112 C3,38.0402 7.029,34.0112 12,34.0112 L55,34.0112 C55,36.2202 53.209,38.0112 51,38.0112 L12,38.0112 C9.238,38.0112 7,40.2492 7,43.0112 C7,45.7732 9.238,48.0112 12,48.0112 L14,48.0112" id="Stroke-22" stroke-linejoin="round"></path>
                    <path d="M63,9.0112 C63,13.9822 58.971,18.0112 54,18.0112 C49.029,18.0112 45,13.9822 45,9.0112 C45,4.0402 49.029,0.0112 54,0.0112 C58.971,0.0112 63,4.0402 63,9.0112 L63,9.0112 Z" id="Stroke-24" stroke-linejoin="round"></path>
                    <polyline id="Stroke-26" points="52 6.0112 54 6.0112 54 13.0112"></polyline>
                    <path d="M19,52.0112 C19,52.5642 18.553,53.0112 18,53.0112 C17.447,53.0112 17,52.5642 17,52.0112 C17,51.4582 17.447,51.0112 18,51.0112 C18.553,51.0112 19,51.4582 19,52.0112 L19,52.0112 Z" id="Stroke-28" stroke-linejoin="round"></path>
                    <path d="M50,52.0112 C50,52.5642 49.553,53.0112 49,53.0112 C48.447,53.0112 48,52.5642 48,52.0112 C48,51.4582 48.447,51.0112 49,51.0112 C49.553,51.0112 50,51.4582 50,52.0112 L50,52.0112 Z" id="Stroke-30" stroke-linejoin="round"></path>
                </g>
            </g>
        </g>
    </g>
</svg>