<?xml version="1.0" encoding="utf-8"?>
<!-- Generator: Adobe Illustrator 22.0.1, SVG Export Plug-In . SVG Version: 6.00 Build 0)  -->
<svg version="1.1" id="Icon_Set" xmlns="http://www.w3.org/2000/svg" xmlns:xlink="http://www.w3.org/1999/xlink" x="0px" y="0px"
	 viewBox="0 0 512 512" style="enable-background:new 0 0 512 512;" xml:space="preserve">
<style type="text/css">
	.st0{fill:#FFFFFF;}
	.st1{fill:#F0C48A;}
	.st2{fill:#FD919E;}
	.st3{fill:#E8677D;}
	.st4{fill:#4C4372;}
	.st5{fill:#D3E6F8;}
	.st6{fill:#A4CFF2;}
	.st7{fill:#7BABF1;}
	.st8{fill:none;stroke:#4C4372;stroke-width:12;stroke-linecap:round;stroke-linejoin:round;stroke-miterlimit:10;}
</style>
<g id="Engineer">
	<g>
		<circle class="st1" cx="256" cy="256" r="207"/>
		<g>
			<g>
				<path class="st2" d="M365.6,181.3H146.4c-10.1,0-18.3-8.2-18.3-18.3l0,0c0-10.1,8.2-18.3,18.3-18.3h219.3
					c10.1,0,18.3,8.2,18.3,18.3l0,0C383.9,173.1,375.7,181.3,365.6,181.3z"/>
			</g>
			<g>
				<path class="st3" d="M383.9,164.1H128.1c0.6,9.6,8.5,17.2,18.2,17.2h219.3C375.4,181.3,383.3,173.7,383.9,164.1z"/>
			</g>
			<g>
				<path class="st2" d="M256,5.9L256,5.9c-51.2,0-92.8,41.5-92.8,92.8v46.1h185.6V98.7C348.8,47.4,307.2,5.9,256,5.9z"/>
			</g>
			<g>
				<path class="st3" d="M348.8,98.7c0-51.2-41.5-92.8-92.8-92.8h0c-2.1,0-4.2,0.1-6.3,0.2c41.8,9,73.1,46.2,73.1,90.7v46.1H163.2
					v1.9h185.6V98.7z"/>
			</g>
			<g>
				<path class="st2" d="M256,5.9L256,5.9c-7.3,0-14.3,0.8-21.1,2.4v136.5h42.2V8.3C270.3,6.7,263.3,5.9,256,5.9z"/>
			</g>
			<g>
				<path class="st6" d="M431.7,506.1H80.3V395.1c0-21.1,17.1-38.2,38.2-38.2h275c21.1,0,38.2,17.1,38.2,38.2V506.1z"/>
			</g>
			<g>
				<path class="st7" d="M406.3,359.1v147.1h25.4V395.1C431.7,378.4,421.1,364.3,406.3,359.1z"/>
			</g>
			<g>
				<path class="st7" d="M164.4,506.1h-16.9v-60.9l0,0c9.3,0,16.9,7.6,16.9,16.9V506.1z"/>
			</g>
			<g>
				<path class="st4" d="M431.7,512H80.3c-3.2,0-5.9-2.6-5.9-5.9V395.1c0-24.3,19.8-44.1,44.1-44.1h275c24.3,0,44.1,19.8,44.1,44.1
					v111.1C437.6,509.4,435,512,431.7,512z M86.1,500.3h339.7V395.1c0-17.8-14.5-32.4-32.4-32.4h-275c-17.8,0-32.4,14.5-32.4,32.4
					V500.3z"/>
			</g>
			<g>
				<path class="st4" d="M147.5,512c-3.2,0-5.9-2.6-5.9-5.9v-60.9c0-3.2,2.6-5.9,5.9-5.9c3.2,0,5.9,2.6,5.9,5.9v60.9
					C153.4,509.4,150.7,512,147.5,512z"/>
			</g>
			<g>
				<path class="st4" d="M358.6,512c-3.2,0-5.9-2.6-5.9-5.9v-60.9c0-3.2,2.6-5.9,5.9-5.9s5.9,2.6,5.9,5.9v60.9
					C364.5,509.4,361.9,512,358.6,512z"/>
			</g>
			<g>
				<path class="st5" d="M256,427.4L256,427.4c-24.6,0-44.6-19.9-44.6-44.6v-95.3h89.1v95.3C300.6,407.5,280.6,427.4,256,427.4z"/>
			</g>
			<g>
				<path class="st6" d="M275.2,423.1c15-7.2,25.4-22.5,25.4-40.2v-95.3h-25.4V423.1z"/>
			</g>
			<g>
				<path class="st4" d="M256,433.3c-27.8,0-50.4-22.6-50.4-50.4v-95.3c0-3.2,2.6-5.9,5.9-5.9h89.1c3.2,0,5.9,2.6,5.9,5.9v95.3
					C306.4,410.7,283.8,433.3,256,433.3z M217.3,293.4v89.5c0,21.3,17.4,38.7,38.7,38.7s38.7-17.4,38.7-38.7v-89.5H217.3z"/>
			</g>
			<g>
				<path class="st5" d="M256,331.7L256,331.7c-45.3,0-82.1-36.7-82.1-82.1v-68.3h164.2v68.3C338.1,294.9,301.3,331.7,256,331.7z"/>
			</g>
			<g>
				<path class="st6" d="M311.7,249.1c0,41.4-30.6,75.6-70.4,81.2c4.8,0.9,9.7,1.3,14.7,1.3h0c45.3,0,82.1-36.7,82.1-82.1v-68.3
					h-26.4V249.1z"/>
			</g>
			<g>
				<path class="st4" d="M256,337.6c-48.5,0-87.9-39.4-87.9-87.9v-68.3c0-3.2,2.6-5.9,5.9-5.9h164.2c3.2,0,5.9,2.6,5.9,5.9v68.3
					C343.9,298.1,304.5,337.6,256,337.6z M179.8,187.2v62.4c0,42,34.2,76.2,76.2,76.2s76.2-34.2,76.2-76.2v-62.4H179.8z"/>
			</g>
			<g>
				<path class="st4" d="M348.8,150.6H163.2c-3.2,0-5.9-2.6-5.9-5.9V98.7C157.3,44.3,201.6,0,256,0s98.7,44.3,98.7,98.7v46.1
					C354.7,148,352,150.6,348.8,150.6z M169.1,138.9h173.9V98.7c0-47.9-39-86.9-86.9-86.9s-86.9,39-86.9,86.9V138.9z"/>
			</g>
			<g>
				<path class="st4" d="M365.6,187.2H146.4c-13.3,0-24.1-10.8-24.1-24.1c0-13.3,10.8-24.1,24.1-24.1h219.3
					c13.3,0,24.1,10.8,24.1,24.1C389.8,176.4,379,187.2,365.6,187.2z M146.4,150.6c-6.8,0-12.4,5.6-12.4,12.4
					c0,6.8,5.6,12.4,12.4,12.4h219.3c6.8,0,12.4-5.6,12.4-12.4c0-6.8-5.6-12.4-12.4-12.4H146.4z"/>
			</g>
			<g>
				<path class="st4" d="M234.9,150.6c-3.2,0-5.9-2.6-5.9-5.9V10.3c0-3.2,2.6-5.9,5.9-5.9s5.9,2.6,5.9,5.9v134.4
					C240.8,148,238.2,150.6,234.9,150.6z"/>
			</g>
			<g>
				<path class="st4" d="M277.1,150.6c-3.2,0-5.9-2.6-5.9-5.9V10.3c0-3.2,2.6-5.9,5.9-5.9s5.9,2.6,5.9,5.9v134.4
					C282.9,148,280.3,150.6,277.1,150.6z"/>
			</g>
		</g>
	</g>
</g>
</svg>
