<?xml version="1.0" encoding="UTF-8"?>
<svg width="364px" height="417px" viewBox="0 0 364 417" version="1.1" xmlns="http://www.w3.org/2000/svg" xmlns:xlink="http://www.w3.org/1999/xlink">
    <!-- Generator: Sketch 49.3 (51167) - http://www.bohemiancoding.com/sketch -->
    <title>engineer</title>
    <desc>Created with Sketch.</desc>
    <defs></defs>
    <g id="Page-1" stroke="none" stroke-width="1" fill="none" fill-rule="evenodd">
        <g id="Desktop-HD-Copy" transform="translate(-257.000000, 0.000000)" fill-rule="nonzero">
            <g id="engineer" transform="translate(257.000000, -95.000000)">
                <g id="Group">
                    <path d="M291.6,181.3 L72.4,181.3 C62.3,181.3 54.1,173.1 54.1,163 C54.1,152.9 62.3,144.7 72.4,144.7 L291.7,144.7 C301.8,144.7 310,152.9 310,163 C309.9,173.1 301.7,181.3 291.6,181.3 Z" id="Shape" fill="#FD919E"></path>
                    <path d="M309.9,164.1 L54.1,164.1 C54.7,173.7 62.6,181.3 72.3,181.3 L291.6,181.3 C301.4,181.3 309.3,173.7 309.9,164.1 Z" id="Shape" fill="#E8677D"></path>
                    <path d="M182,5.9 C130.8,5.9 89.2,47.4 89.2,98.7 L89.2,144.8 L274.8,144.8 L274.8,98.7 C274.8,47.4 233.2,5.9 182,5.9 Z" id="Shape" fill="#FD919E"></path>
                    <path d="M274.8,98.7 C274.8,47.5 233.3,5.9 182,5.9 C179.9,5.9 177.8,6 175.7,6.1 C217.5,15.1 248.8,52.3 248.8,96.8 L248.8,142.9 L89.2,142.9 L89.2,144.8 L274.8,144.8 L274.8,98.7 Z" id="Shape" fill="#E8677D"></path>
                    <path d="M182,5.9 C174.7,5.9 167.7,6.7 160.9,8.3 L160.9,144.8 L203.1,144.8 L203.1,8.3 C196.3,6.7 189.3,5.9 182,5.9 Z" id="Shape" fill="#FD919E"></path>
                    <path d="M357.7,506.1 L6.3,506.1 L6.3,395.1 C6.3,374 23.4,356.9 44.5,356.9 L319.5,356.9 C340.6,356.9 357.7,374 357.7,395.1 L357.7,506.1 Z" id="Shape" fill="#A4CFF2"></path>
                    <path d="M332.3,359.1 L332.3,506.2 L357.7,506.2 L357.7,395.1 C357.7,378.4 347.1,364.3 332.3,359.1 Z" id="Shape" fill="#7BABF1"></path>
                    <path d="M90.4,506.1 L73.5,506.1 L73.5,445.2 C82.8,445.2 90.4,452.8 90.4,462.1 L90.4,506.1 Z" id="Shape" fill="#7BABF1"></path>
                    <path d="M357.7,512 L6.3,512 C3.1,512 0.4,509.4 0.4,506.1 L0.4,395.1 C0.4,370.8 20.2,351 44.5,351 L319.5,351 C343.8,351 363.6,370.8 363.6,395.1 L363.6,506.2 C363.6,509.4 361,512 357.7,512 Z M12.1,500.3 L351.8,500.3 L351.8,395.1 C351.8,377.3 337.3,362.7 319.4,362.7 L44.4,362.7 C26.6,362.7 12,377.2 12,395.1 L12,500.3 L12.1,500.3 Z" id="Shape" fill="#4C4372"></path>
                    <path d="M73.5,512 C70.3,512 67.6,509.4 67.6,506.1 L67.6,445.2 C67.6,442 70.2,439.3 73.5,439.3 C76.7,439.3 79.4,441.9 79.4,445.2 L79.4,506.1 C79.4,509.4 76.7,512 73.5,512 Z" id="Shape" fill="#4C4372"></path>
                    <path d="M284.6,512 C281.4,512 278.7,509.4 278.7,506.1 L278.7,445.2 C278.7,442 281.3,439.3 284.6,439.3 C287.9,439.3 290.5,441.9 290.5,445.2 L290.5,506.1 C290.5,509.4 287.9,512 284.6,512 Z" id="Shape" fill="#4C4372"></path>
                    <path d="M182,427.4 C157.4,427.4 137.4,407.5 137.4,382.8 L137.4,287.5 L226.500373,287.5 L226.5,382.8 C226.6,407.5 206.6,427.4 182,427.4 Z" id="Shape" fill="#D3E6F8"></path>
                    <path d="M201.2,423.1 C216.2,415.9 226.6,400.6 226.6,382.9 L226.6,287.6 L201.2,287.6 L201.2,423.1 Z" id="Shape" fill="#A4CFF2"></path>
                    <path d="M182,433.3 C154.2,433.3 131.6,410.7 131.6,382.9 L131.6,287.6 C131.6,284.4 134.2,281.7 137.5,281.7 L226.6,281.7 C229.8,281.7 232.5,284.3 232.5,287.6 L232.5,382.9 C232.4,410.7 209.8,433.3 182,433.3 Z M143.3,293.4 L143.3,382.9 C143.3,404.2 160.7,421.6 182,421.6 C203.3,421.6 220.7,404.2 220.7,382.9 L220.7,293.4 L143.3,293.4 Z" id="Shape" fill="#4C4372"></path>
                    <path d="M182,331.7 C136.7,331.7 99.9,295 99.9,249.6 L99.9,181.3 L264.1,181.3 L264.1,249.6 C264.1,294.9 227.3,331.7 182,331.7 Z" id="Shape" fill="#D3E6F8"></path>
                    <path d="M237.7,249.1 C237.7,290.5 207.1,324.7 167.3,330.3 C172.1,331.2 177,331.6 182,331.6 C227.3,331.6 264.1,294.9 264.1,249.5 L264.1,181.2 L237.7,181.2 L237.7,249.1 Z" id="Shape" fill="#A4CFF2"></path>
                    <path d="M182,337.6 C133.5,337.6 94.1,298.2 94.1,249.7 L94.1,181.4 C94.1,178.2 96.7,175.5 100,175.5 L264.2,175.5 C267.4,175.5 270.1,178.1 270.1,181.4 L270.1,249.7 C269.9,298.1 230.5,337.6 182,337.6 Z M105.8,187.2 L105.8,249.6 C105.8,291.6 140,325.8 182,325.8 C224,325.8 258.2,291.6 258.2,249.6 L258.2,187.2 L105.8,187.2 Z" id="Shape" fill="#4C4372"></path>
                    <path d="M274.8,150.6 L89.2,150.6 C86,150.6 83.3,148 83.3,144.7 L83.3,98.7 C83.3,44.3 127.6,0 182,0 C236.4,0 280.7,44.3 280.7,98.7 L280.7,144.8 C280.7,148 278,150.6 274.8,150.6 Z M95.1,138.9 L269,138.9 L269,98.7 C269,50.8 230,11.8 182.1,11.8 C134.2,11.8 95.2,50.8 95.2,98.7 L95.2,138.9 L95.1,138.9 Z" id="Shape" fill="#4C4372"></path>
                    <path d="M291.6,187.2 L72.4,187.2 C59.1,187.2 48.3,176.4 48.3,163.1 C48.3,149.8 59.1,139 72.4,139 L291.7,139 C305,139 315.8,149.8 315.8,163.1 C315.8,176.4 305,187.2 291.6,187.2 Z M72.4,150.6 C65.6,150.6 60,156.2 60,163 C60,169.8 65.6,175.4 72.4,175.4 L291.7,175.4 C298.5,175.4 304.1,169.8 304.1,163 C304.1,156.2 298.5,150.6 291.7,150.6 L72.4,150.6 Z" id="Shape" fill="#4C4372"></path>
                    <path d="M160.9,150.6 C157.7,150.6 155,148 155,144.7 L155,10.3 C155,7.1 157.6,4.4 160.9,4.4 C164.2,4.4 166.8,7 166.8,10.3 L166.8,144.7 C166.8,148 164.2,150.6 160.9,150.6 Z" id="Shape" fill="#4C4372"></path>
                    <path d="M203.1,150.6 C199.9,150.6 197.2,148 197.2,144.7 L197.2,10.3 C197.2,7.1 199.8,4.4 203.1,4.4 C206.4,4.4 209,7 209,10.3 L209,144.7 C208.9,148 206.3,150.6 203.1,150.6 Z" id="Shape" fill="#4C4372"></path>
                </g>
            </g>
        </g>
    </g>
</svg>