<?xml version="1.0" encoding="UTF-8"?>
<svg width="402px" height="340px" viewBox="0 0 402 340" version="1.1" xmlns="http://www.w3.org/2000/svg" xmlns:xlink="http://www.w3.org/1999/xlink">
    <!-- Generator: Sketch 49.3 (51167) - http://www.bohemiancoding.com/sketch -->
    <title>solar panel</title>
    <desc>Created with Sketch.</desc>
    <defs></defs>
    <g id="Page-1" stroke="none" stroke-width="1" fill="none" fill-rule="evenodd">
        <g id="Desktop-HD" transform="translate(-155.000000, 0.000000)" fill-rule="nonzero">
            <g id="solar-panel" transform="translate(155.000000, -62.000000)">
                <g id="Group">
                    <g>
                        <path d="M366.4,395.6 L35.6,395.6 C19.3,395.6 6.1,382.4 6.1,366.1 L6.1,35.4 C6.1,19.1 19.3,5.9 35.6,5.9 L366.3,5.9 C382.6,5.9 395.8,19.1 395.8,35.4 L395.8,366.1 C395.9,382.4 382.7,395.6 366.4,395.6 Z" id="Shape" fill="#D3E6F8"></path>
                        <path d="M366.1,395.6 L355.8,395.6 L355.8,6 L366.1,6 C380.2,6 391.7,17.4 391.7,31.6 L391.7,370.1 C391.6,384.2 380.2,395.6 366.1,395.6 Z" id="Shape" fill="#A4CFF2"></path>
                        <g transform="translate(42.000000, 42.000000)" fill="#FFFFFF" id="Rectangle-path">
                            <rect x="183.6" y="0.3" width="133.9" height="133.3"></rect>
                            <rect x="0.6" y="0.3" width="130.1" height="133.3"></rect>
                            <rect x="183.6" y="186.4" width="133.9" height="130.7"></rect>
                            <rect x="0.6" y="186.4" width="130.1" height="130.7"></rect>
                        </g>
                        <g transform="translate(251.000000, 42.000000)" fill="#D3E6F8" id="Rectangle-path">
                            <rect x="89.6" y="0.5" width="18.7" height="133.1"></rect>
                            <rect x="47.9" y="0.5" width="18.7" height="133.1"></rect>
                            <rect x="0.1" y="0.5" width="18.7" height="133.1"></rect>
                        </g>
                        <g transform="translate(65.000000, 42.000000)" fill="#D3E6F8" id="Rectangle-path">
                            <rect x="89.6" y="0.5" width="18.7" height="133.1"></rect>
                            <rect x="47.9" y="0.5" width="18.7" height="133.1"></rect>
                            <rect x="0.1" y="0.5" width="18.7" height="133.1"></rect>
                        </g>
                        <g transform="translate(251.000000, 227.000000)" fill="#D3E6F8" id="Rectangle-path">
                            <rect x="89.6" y="0.3" width="18.7" height="133.1"></rect>
                            <rect x="47.9" y="0.3" width="18.7" height="133.1"></rect>
                            <rect x="0.1" y="0.3" width="18.7" height="133.1"></rect>
                        </g>
                        <g transform="translate(65.000000, 227.000000)" fill="#D3E6F8" id="Rectangle-path">
                            <rect x="89.6" y="0.3" width="18.7" height="133.1"></rect>
                            <rect x="47.9" y="0.3" width="18.7" height="133.1"></rect>
                            <rect x="0.1" y="0.3" width="18.7" height="133.1"></rect>
                        </g>
                        <path d="M366.4,401.5 L35.6,401.5 C16.1,401.5 0.2,385.6 0.2,366.1 L0.2,35.4 C0.3,15.9 16.1,0 35.6,0 L366.3,0 C385.8,0 401.7,15.9 401.7,35.4 L401.7,366.1 C401.7,385.6 385.9,401.5 366.4,401.5 Z M35.6,11.7 C22.6,11.7 11.9,22.3 11.9,35.4 L11.9,366.1 C11.9,379.1 22.5,389.8 35.6,389.8 L366.3,389.8 C379.3,389.8 390,379.2 390,366.1 L390,35.4 C390,22.4 379.4,11.7 366.3,11.7 L35.6,11.7 Z" id="Shape" fill="#4C4372"></path>
                        <g transform="translate(36.000000, 36.000000)" fill="#4C4372" id="Shape">
                            <path d="M323.4,145.5 L189.6,145.5 C186.4,145.5 183.7,142.9 183.7,139.6 L183.7,6.3 C183.7,3.1 186.3,0.4 189.6,0.4 L323.5,0.4 C326.7,0.4 329.4,3 329.4,6.3 L329.4,139.6 C329.3,142.8 326.7,145.5 323.4,145.5 Z M195.4,133.7 L317.5,133.7 L317.5,12.2 L195.4,12.2 L195.4,133.7 Z"></path>
                            <path d="M136.7,145.5 L6.6,145.5 C3.4,145.5 0.7,142.9 0.7,139.6 L0.7,6.3 C0.7,3.1 3.3,0.4 6.6,0.4 L136.7,0.4 C139.9,0.4 142.6,3 142.6,6.3 L142.6,139.6 C142.6,142.8 139.9,145.5 136.7,145.5 Z M12.4,133.7 L130.8,133.7 L130.8,12.2 L12.4,12.2 L12.4,133.7 Z"></path>
                            <path d="M323.4,329 L189.6,329 C186.4,329 183.7,326.4 183.7,323.1 L183.7,192.4 C183.7,189.2 186.3,186.5 189.6,186.5 L323.5,186.5 C326.7,186.5 329.4,189.1 329.4,192.4 L329.4,323.1 C329.3,326.4 326.7,329 323.4,329 Z M195.4,317.3 L317.5,317.3 L317.5,198.3 L195.4,198.3 L195.4,317.3 Z"></path>
                            <path d="M136.7,329 L6.6,329 C3.4,329 0.7,326.4 0.7,323.1 L0.7,192.4 C0.7,189.2 3.3,186.5 6.6,186.5 L136.7,186.5 C139.9,186.5 142.6,189.1 142.6,192.4 L142.6,323.1 C142.6,326.4 139.9,329 136.7,329 Z M12.4,317.3 L130.8,317.3 L130.8,198.3 L12.4,198.3 L12.4,317.3 Z"></path>
                        </g>
                        <g transform="translate(79.000000, 36.000000)" fill="#4C4372" id="Shape">
                            <g>
                                <path d="M5.9,145.5 C2.7,145.5 0,142.9 0,139.6 L0,6.3 C0,3.1 2.6,0.4 5.9,0.4 C9.1,0.4 11.8,3 11.8,6.3 L11.8,139.6 C11.8,142.8 9.2,145.5 5.9,145.5 Z"></path>
                                <path d="M53.2,145.5 C50,145.5 47.3,142.9 47.3,139.6 L47.3,6.3 C47.3,3.1 49.9,0.4 53.2,0.4 C56.4,0.4 59.1,3 59.1,6.3 L59.1,139.6 C59.1,142.8 56.4,145.5 53.2,145.5 Z"></path>
                            </g>
                            <g transform="translate(184.000000, 0.000000)">
                                <path d="M6.8,145.5 C3.6,145.5 0.9,142.9 0.9,139.6 L0.9,6.3 C0.9,3.1 3.5,0.4 6.8,0.4 C10,0.4 12.7,3 12.7,6.3 L12.7,139.6 C12.7,142.8 10,145.5 6.8,145.5 Z"></path>
                                <path d="M54.1,145.5 C50.9,145.5 48.2,142.9 48.2,139.6 L48.2,6.3 C48.2,3.1 50.8,0.4 54.1,0.4 C57.3,0.4 60,3 60,6.3 L60,139.6 C59.9,142.8 57.3,145.5 54.1,145.5 Z"></path>
                            </g>
                            <g transform="translate(0.000000, 186.000000)">
                                <path d="M5.9,143 C2.7,143 0,140.4 0,137.1 L0,6.4 C0,3.2 2.6,0.5 5.9,0.5 C9.1,0.5 11.8,3.1 11.8,6.4 L11.8,137.1 C11.8,140.4 9.2,143 5.9,143 Z"></path>
                                <path d="M53.2,143 C50,143 47.3,140.4 47.3,137.1 L47.3,6.4 C47.3,3.2 49.9,0.5 53.2,0.5 C56.4,0.5 59.1,3.1 59.1,6.4 L59.1,137.1 C59.1,140.4 56.4,143 53.2,143 Z"></path>
                            </g>
                            <g transform="translate(184.000000, 186.000000)">
                                <path d="M6.8,143 C3.6,143 0.9,140.4 0.9,137.1 L0.9,6.4 C0.9,3.2 3.5,0.5 6.8,0.5 C10,0.5 12.7,3.1 12.7,6.4 L12.7,137.1 C12.7,140.4 10,143 6.8,143 Z"></path>
                                <path d="M54.1,143 C50.9,143 48.2,140.4 48.2,137.1 L48.2,6.4 C48.2,3.2 50.8,0.5 54.1,0.5 C57.3,0.5 60,3.1 60,6.4 L60,137.1 C59.9,140.4 57.3,143 54.1,143 Z"></path>
                            </g>
                        </g>
                    </g>
                </g>
            </g>
        </g>
    </g>
</svg>