<?xml version="1.0" encoding="UTF-8"?>
<svg width="64px" height="61px" viewBox="0 0 64 61" version="1.1" xmlns="http://www.w3.org/2000/svg" xmlns:xlink="http://www.w3.org/1999/xlink">
    <!-- Generator: Sketch 3.8.1 (29687) - http://www.bohemiancoding.com/sketch -->
    <title>fintech</title>
    <desc>Created with Sketch.</desc>
    <defs></defs>
    <g id="Page-1" stroke="none" stroke-width="1" fill="none" fill-rule="evenodd">
        <g id="Desktop-HD-Copy" transform="translate(-207.000000, -451.000000)" stroke-width="2" stroke="#222829">
            <g id="fintech" transform="translate(208.000000, 452.000000)">
                <polyline id="Stroke-4" points="59 21.6502 59 58.6502 3 58.6502 3 48.6502"></polyline>
                <polyline id="Stroke-5" points="3 36.6502 3 0.6502 59 0.6502 59 9.6502"></polyline>
                <path d="M41,33.6502 L57,17.6502" id="Stroke-6"></path>
                <path d="M26,23.6502 L36,33.6502" id="Stroke-7"></path>
                <path d="M5,40.6502 L22,23.6502" id="Stroke-8"></path>
                <g id="Group-53" transform="translate(0.000000, 6.639000)">
                    <path d="M6,36.0112 C6,37.6682 4.656,39.0112 3,39.0112 C1.344,39.0112 0,37.6682 0,36.0112 C0,34.3542 1.344,33.0112 3,33.0112 C4.656,33.0112 6,34.3542 6,36.0112 L6,36.0112 Z" id="Stroke-9"></path>
                    <path d="M27,15.0112 C27,16.6682 25.656,18.0112 24,18.0112 C22.344,18.0112 21,16.6682 21,15.0112 C21,13.3542 22.344,12.0112 24,12.0112 C25.656,12.0112 27,13.3542 27,15.0112 L27,15.0112 Z" id="Stroke-11"></path>
                    <path d="M42,29.0112 C42,30.6682 40.656,32.0112 39,32.0112 C37.344,32.0112 36,30.6682 36,29.0112 C36,27.3542 37.344,26.0112 39,26.0112 C40.656,26.0112 42,27.3542 42,29.0112 L42,29.0112 Z" id="Stroke-13"></path>
                    <path d="M62,9.0112 C62,10.6682 60.656,12.0112 59,12.0112 C57.344,12.0112 56,10.6682 56,9.0112 C56,7.3542 57.344,6.0112 59,6.0112 C60.656,6.0112 62,7.3542 62,9.0112 L62,9.0112 Z" id="Stroke-15"></path>
                    <path d="M10,0.0112 L8,0.0112" id="Stroke-17"></path>
                    <path d="M10,4.0112 L8,4.0112" id="Stroke-19"></path>
                    <path d="M7,41.0112 L7,49.0112" id="Stroke-21"></path>
                    <path d="M11,33.0112 L11,49.0112" id="Stroke-23"></path>
                    <path d="M35,34.0112 L35,49.0112" id="Stroke-25"></path>
                    <path d="M39,35.0112 L39,49.0112" id="Stroke-27"></path>
                    <path d="M43,34.0112 L43,49.0112" id="Stroke-29"></path>
                    <path d="M47,26.0112 L47,49.0112" id="Stroke-31"></path>
                    <path d="M51,22.0112 L51,49.0112" id="Stroke-33"></path>
                    <path d="M55,18.0112 L55,49.0112" id="Stroke-35"></path>
                    <path d="M15,29.0112 L15,49.0112" id="Stroke-37"></path>
                    <path d="M19,25.0112 L19,49.0112" id="Stroke-39"></path>
                    <path d="M31,27.0112 L31,49.0112" id="Stroke-41"></path>
                    <path d="M27,23.0112 L27,49.0112" id="Stroke-43"></path>
                    <path d="M23,21.0112 L23,49.0112" id="Stroke-45"></path>
                    <path d="M26,0.0112 L52,0.0112" id="Stroke-47"></path>
                    <path d="M12,0.0112 L24,0.0112" id="Stroke-49"></path>
                    <path d="M12,4.0112 L42,4.0112" id="Stroke-51"></path>
                </g>
            </g>
        </g>
    </g>
</svg>