<?xml version="1.0" encoding="UTF-8"?>
<svg width="65px" height="64px" viewBox="0 0 65 64" version="1.1" xmlns="http://www.w3.org/2000/svg" xmlns:xlink="http://www.w3.org/1999/xlink">
    <!-- Generator: Sketch 3.8.1 (29687) - http://www.bohemiancoding.com/sketch -->
    <title>hardware</title>
    <desc>Created with Sketch.</desc>
    <defs></defs>
    <g id="Page-1" stroke="none" stroke-width="1" fill="none" fill-rule="evenodd">
        <g id="Desktop-HD-Copy" transform="translate(-75.000000, -446.000000)" stroke-width="2" stroke="#222829">
            <g id="hardware" transform="translate(75.000000, 447.000000)">
                <polygon id="Stroke-3" points="27.868 26.0003 45.868 26.0003 45.868 8.0003 27.868 8.0003"></polygon>
                <path d="M5.8682,22 L5.8682,18" id="Stroke-4"></path>
                <polyline id="Stroke-5" points="10.8682 8 3.8682 8 3.8682 4 13.8682 4 13.8682 35"></polyline>
                <polygon id="Stroke-6" points="3.868 30.0003 9.868 30.0003 9.868 26.0003 3.868 26.0003"></polygon>
                <path d="M2.8682,22 L10.8682,22" id="Stroke-7"></path>
                <polyline id="Stroke-8" points="9.8682 15 9.8682 12 1.8682 12 1.8682 18 10.8682 18"></polyline>
                <polyline id="Stroke-9" points="10.8682 34 1.8682 34 1.8682 62 63.8682 62 63.8682 0 4.8682 0"></polyline>
                <polygon id="Stroke-11" points="17.868 22.0003 23.868 22.0003 23.868 8.0003 17.868 8.0003"></polygon>
                <path d="M16.8682,26 L18.8682,26" id="Stroke-12"></path>
                <path d="M26.8682,4 L30.8682,4" id="Stroke-13"></path>
                <path d="M32.8682,4 L40.8682,4" id="Stroke-14"></path>
                <path d="M42.8682,4 L46.8682,4" id="Stroke-15"></path>
                <polygon id="Stroke-16" points="9.868 58.0003 39.868 58.0003 39.868 54.0003 9.868 54.0003"></polygon>
                <polygon id="Stroke-17" points="9.868 50.0003 39.868 50.0003 39.868 46.0003 9.868 46.0003"></polygon>
                <path d="M4.8682,54 L6.8682,54" id="Stroke-18"></path>
                <path d="M4.8682,50 L6.8682,50" id="Stroke-19"></path>
                <path d="M4.8682,40 L6.8682,40" id="Stroke-20"></path>
                <path d="M8.8682,40 L10.8682,40" id="Stroke-21"></path>
                <polygon id="Stroke-22" points="47.868 58.0003 59.868 58.0003 59.868 46.0003 47.868 46.0003"></polygon>
                <path d="M51.8682,7 L51.8682,39" id="Stroke-23"></path>
                <path d="M55.8682,7 L55.8682,39" id="Stroke-24"></path>
                <path d="M59.8682,7 L59.8682,39" id="Stroke-25"></path>
                <path d="M17.8682,46 L17.8682,50" id="Stroke-26"></path>
                <path d="M17.8682,54 L17.8682,58" id="Stroke-27"></path>
                <path d="M52.8682,4 L50.8682,4" id="Stroke-28"></path>
                <path d="M56.8682,4 L54.8682,4" id="Stroke-29"></path>
                <path d="M60.8682,4 L58.8682,4" id="Stroke-30"></path>
                <path d="M52.8682,42 L50.8682,42" id="Stroke-31"></path>
                <path d="M56.8682,42 L54.8682,42" id="Stroke-32"></path>
                <path d="M60.8682,42 L58.8682,42" id="Stroke-33"></path>
                <path d="M44.8682,54 L42.8682,54" id="Stroke-34"></path>
                <path d="M44.8682,50 L42.8682,50" id="Stroke-35"></path>
                <polygon id="Stroke-36" points="33.868 40.0003 43.868 40.0003 43.868 30.0003 33.868 30.0003"></polygon>
                <polyline id="Stroke-37" points="31.8682 21 31.8682 12 40.8682 12"></polyline>
                <polyline id="Stroke-38" points="41.8682 13 41.8682 22 32.8682 22"></polyline>
                <path d="M56.8682,50 L50.8682,50" id="Stroke-39"></path>
                <path d="M56.8682,54 L50.8682,54" id="Stroke-40"></path>
                <polygon id="Stroke-41" points="25.868 34.0003 29.868 34.0003 29.868 30.0003 25.868 30.0003"></polygon>
                <polygon id="Stroke-42" points="17.868 34.0003 21.868 34.0003 21.868 30.0003 17.868 30.0003"></polygon>
                <path d="M30.8682,40 L24.8682,40" id="Stroke-43"></path>
                <path d="M22.8682,40 L16.8682,40" id="Stroke-44"></path>
                <path d="M5.8682,12 L5.8682,15" id="Stroke-45"></path>
                <path d="M2.8682,0 L0.8682,0" id="Stroke-46"></path>
            </g>
        </g>
    </g>
</svg>