<?xml version="1.0" encoding="UTF-8"?>
<svg width="65px" height="60px" viewBox="0 0 65 60" version="1.1" xmlns="http://www.w3.org/2000/svg" xmlns:xlink="http://www.w3.org/1999/xlink">
    <!-- Generator: Sketch 3.8.1 (29687) - http://www.bohemiancoding.com/sketch -->
    <title>Group 10</title>
    <desc>Created with Sketch.</desc>
    <defs></defs>
    <g id="Page-1" stroke="none" stroke-width="1" fill="none" fill-rule="evenodd" stroke-linejoin="round">
        <g id="Desktop-HD-Copy" transform="translate(-107.000000, -544.000000)" stroke="#222829" stroke-width="2">
            <g id="Page-1" transform="translate(108.000000, 544.000000)">
                <g id="Group-10" transform="translate(0.000000, 0.988800)">
                    <path d="M27.5303,8.0112 L34.5303,8.0112 C36.7393,8.0112 38.5303,9.8022 38.5303,12.0112 L38.5303,19.0112 L44.5303,33.0112 L44.5303,34.0112 L38.5303,34.0112 L38.5303,44.0112 C38.5303,46.2202 36.7393,48.0112 34.5303,48.0112 L16.5303,48.0112 L16.5303,58.0112 L6.5303,48.0112 L4.5303,48.0112 C2.3213,48.0112 0.5303,46.2202 0.5303,44.0112 L0.5303,12.0112 C0.5303,9.8022 2.3213,8.0112 4.5303,8.0112 L21.5303,8.0112" id="Stroke-2"></path>
                    <path d="M41.5303,40.0112 L46.5303,40.0112 L46.5303,50.0112 L56.5303,40.0112 L58.5303,40.0112 C60.7393,40.0112 62.5303,38.2202 62.5303,36.0112 L62.5303,4.0112 C62.5303,1.8022 60.7393,0.0112 58.5303,0.0112 L28.5303,0.0112 C26.3213,0.0112 24.5303,1.8022 24.5303,4.0112 L24.5303,13.0112 L18.5303,27.0112 L18.5303,28.0112 L24.5303,28.0112 L24.5303,36.0112 C24.5303,38.2202 26.3213,40.0112 28.5303,40.0112 L35.5303,40.0112" id="Stroke-3"></path>
                    <path d="M43.5303,8.0112 L57.5303,8.0112" id="Stroke-4"></path>
                    <path d="M43.5303,12.0112 L57.5303,12.0112" id="Stroke-5"></path>
                    <path d="M43.5303,16.0112 L53.5303,16.0112" id="Stroke-6"></path>
                    <path d="M5.5303,14.0112 L17.5303,14.0112" id="Stroke-7"></path>
                    <path d="M5.5303,18.0112 L17.5303,18.0112" id="Stroke-8"></path>
                    <path d="M5.5303,22.0112 L13.5303,22.0112" id="Stroke-9"></path>
                </g>
            </g>
        </g>
    </g>
</svg>