<?xml version="1.0" encoding="utf-8"?>
<!-- Generator: Adobe Illustrator 22.0.1, SVG Export Plug-In . SVG Version: 6.00 Build 0)  -->
<svg version="1.1" id="Icon_Set" xmlns="http://www.w3.org/2000/svg" xmlns:xlink="http://www.w3.org/1999/xlink" x="0px" y="0px"
	 viewBox="0 0 512 512" style="enable-background:new 0 0 512 512;" xml:space="preserve">
<style type="text/css">
	.st0{fill:#FFFFFF;}
	.st1{fill:#F0C48A;}
	.st2{fill:#FD919E;}
	.st3{fill:#E8677D;}
	.st4{fill:#4C4372;}
	.st5{fill:#D3E6F8;}
	.st6{fill:#A4CFF2;}
	.st7{fill:#7BABF1;}
	.st8{fill:none;stroke:#4C4372;stroke-width:12;stroke-linecap:round;stroke-linejoin:round;stroke-miterlimit:10;}
</style>
<g id="Agreement">
	<g>
		<circle class="st1" cx="256" cy="256" r="207"/>
		<g>
			<g>
				<path class="st5" d="M129.3,166.1L255.9,207c0,0-104.3,109.9-114.5,102.3c-10.2-7.6-30.1-31.3-30.1-31.3s-10-14.2,11.6-35.9
					c-23.4-23.4-42.1-42.1-42.1-42.1L129.3,166.1z"/>
			</g>
			<g>
				<path class="st6" d="M204.9,254.1L205,240l9.8-19.9c0,0-34.5,13.1-51.2-2.6l22.8,22.8c4.5,4.5,4.5,11.9,0,16.4l-31.1,31.1
					c-3.6,3.6-9.5,3.6-13.1,0l-16.8-16.8c-3.5-3.5-3.5-9.1,0-12.6l8.8-8.8c4.5-4.5,4.5-11.7,0-16.1l-34.7-34.7l-11.5,8.5l34.8,34.8
					c-21.6,19.2-11.6,35.9-11.6,35.9s22.6,23.8,30.1,31.3C148.9,316.7,204.9,254.1,204.9,254.1z"/>
			</g>
			<g>
				<path class="st4" d="M145.6,319.3c-1.5,0-3-0.6-4.1-1.7l-30.3-30.3c-11.5-11.5-11.5-30.2,0-41.7l3.5-3.5l-30.1-30.1
					c-2.3-2.3-2.3-6,0-8.3c2.3-2.3,6-2.3,8.3,0l34.3,34.3c1.1,1.1,1.7,2.6,1.7,4.1c0,1.6-0.6,3-1.7,4.1l-7.7,7.7
					c-6.9,6.9-6.9,18.2,0,25.1l30.3,30.3c2.3,2.3,2.3,6,0,8.3C148.6,318.7,147.1,319.3,145.6,319.3z"/>
			</g>
			<g>
				<g>
					<path class="st5" d="M227.9,453.8c-2.3,2.3-5.3,3.3-8.3,3c-2.3-0.2-4.5-1.2-6.3-3l0,0l-2-2l-12.1-12.1c-4-4-4-10.6,0-14.6
						l0.6-0.6c-2.7,2.7-6.5,3.8-10.1,3.1c-0.4-0.1-0.7-0.2-1.1-0.3c-0.7-0.2-1.4-0.5-2-0.8c-1-0.5-1.9-1.2-2.7-2l-1.2-1.2
						l-14.2-14.2c-4.4-4.4-4.4-11.5,0-15.9c-0.2,0.2-0.5,0.5-0.8,0.7c-0.1,0.1-0.1,0.1-0.2,0.2c-0.2,0.2-0.5,0.4-0.7,0.5
						c0,0-0.1,0-0.1,0.1c-0.3,0.2-0.5,0.3-0.8,0.5c-0.1,0-0.2,0.1-0.3,0.1c-0.2,0.1-0.5,0.2-0.7,0.3c-0.1,0-0.1,0.1-0.2,0.1
						c-0.3,0.1-0.6,0.2-0.8,0.3c-0.1,0-0.2,0.1-0.4,0.1c-0.2,0.1-0.4,0.1-0.6,0.1c-0.1,0-0.3,0.1-0.4,0.1c-0.3,0-0.5,0.1-0.8,0.1
						c-0.2,0-0.3,0-0.5,0c-0.2,0-0.4,0-0.6,0c-0.2,0-0.5,0-0.7,0c-0.1,0-0.2,0-0.4,0c-0.2,0-0.4,0-0.5-0.1c-0.1,0-0.2,0-0.3,0
						c-2.3-0.4-4.4-1.4-6.2-3.1l-15.3-15.3c-4.4-4.4-4.4-11.5,0-15.9c-4.4,4.4-11.5,4.4-15.9,0l-1.1-1.1l-14.3-14.3
						c-4.4-4.4-4.4-11.5,0-15.9L209.2,228c18.9-18.9,49.5-18.9,68.4,0l52.5,52.5c18.7,18.7,18.9,48.9,0.5,67.9L227.9,453.8z"/>
				</g>
				<g>
					<line class="st5" x1="137.5" y1="362" x2="188.4" y2="311.2"/>
				</g>
				<g>
					<line class="st5" x1="168.7" y1="393.2" x2="219.6" y2="342.4"/>
				</g>
				<g>
					<line class="st5" x1="199.9" y1="424.4" x2="250.8" y2="373.6"/>
				</g>
			</g>
			<g>
				
					<rect x="226.3" y="410.4" transform="matrix(0.7071 0.7071 -0.7071 0.7071 376.8738 -37.4059)" class="st6" width="14.5" height="51.7"/>
			</g>
			<g>
				<path class="st6" d="M194.8,429.4l-12.5-8l50.8-50.8c5.7-5.7,14.8-5.7,20.5,0l0,0L194.8,429.4z"/>
			</g>
			<g>
				<path class="st6" d="M163.9,398.5l-12.5-8l50.8-50.8c5.7-5.7,14.8-5.7,20.5,0v0L163.9,398.5z"/>
			</g>
			<g>
				<path class="st6" d="M132.1,366.7l-12.5-8l50.8-50.8c5.7-5.7,14.8-5.7,20.5,0h0L132.1,366.7z"/>
			</g>
			<g>
				<path class="st5" d="M235,180.9l22.3-26.1c0,0,5.5-6.9,24,0c18.4,6.9,35.5,18.8,48.1,6.2c12.6-12.6,33-33.5,33-33.5l74.2,73
					l-47.5,41.9c0,0,20.5,16.3,13.4,32c-7.1,15.7-43.6,41.9-43.6,41.9L235,180.9z"/>
			</g>
			<g>
				<path class="st6" d="M381.2,273.9L358.1,297l15.1,8.1l29.2-30.8c0,0-0.6-25.5-13.4-32c26.2-27.4,26.2-27.4,26.2-27.4l0,0l20-20
					c4.4-4.4,4.4-11.5,0-15.9l-1.1-1.1L374,238.2c-3.9,3.9-3.9,10.3,0,14.3l7.2,7.2C385.2,263.6,385.2,269.9,381.2,273.9z"/>
			</g>
			<g>
				<g>
					<path class="st4" d="M354.6,331.4c-1.5,0-3-0.6-4.1-1.7c-2.3-2.3-2.3-6,0-8.3l42.2-42.2c6.9-6.9,6.9-18.2,0-25.1l-7.7-7.7
						c-1.1-1.1-1.7-2.6-1.7-4.1s0.6-3,1.7-4.1l34.3-34.3c2.3-2.3,6-2.3,8.3,0c2.3,2.3,2.3,6,0,8.3l-30.1,30.1l3.5,3.5
						c11.5,11.5,11.5,30.2,0,41.7l-42.2,42.2C357.6,330.8,356.1,331.4,354.6,331.4z"/>
				</g>
				<g>
					<path class="st4" d="M221.8,216.4c-1.5,0-3-0.6-4.1-1.7c-3.8-3.8-5.9-8.9-5.9-14.3c0-5.4,2.1-10.5,5.9-14.3l35.5-35.5
						c5.6-5.6,14-7.4,21.4-4.6l37,13.8c4.7,1.8,10.1,0.6,13.7-3l24-24c2.3-2.3,6-2.3,8.3,0c2.3,2.3,2.3,6,0,8.3l-24,24
						c-6.8,6.8-17,9-26.1,5.7l-37-13.8c-3.1-1.2-6.6-0.4-8.9,1.9L226,194.4c-1.6,1.6-2.5,3.7-2.5,6c0,2.3,0.9,4.4,2.5,6
						c2.3,2.3,2.3,6,0,8.3C224.8,215.8,223.3,216.4,221.8,216.4z"/>
				</g>
				<g>
					<path class="st2" d="M455.8,212.4l45-45c7.5-7.5,7.5-19.5,0-27l-78.6-78.6c-8-8-21-8-29,0l-43,43c-8,8-8,21,0,29l78.6,78.6
						C436.2,219.9,448.3,219.9,455.8,212.4z"/>
				</g>
				<g>
					<path class="st3" d="M498.7,138.3l2.1,2.1c7.5,7.5,7.5,19.5,0,27l-45,45c-7.5,7.5-19.5,7.5-27,0l-2.1-2.1L498.7,138.3z"/>
				</g>
				<g>
					<path class="st4" d="M442.3,223.6c-6.6,0-13.1-2.5-18.1-7.5l-78.7-78.7c-4.8-4.8-7.5-11.3-7.5-18.1c0-6.8,2.7-13.3,7.5-18.1
						l44.1-44.1c10-10,26.2-10,36.2,0l8.2,8.2c0,0,0,0,0,0l70.4,70.4c4.8,4.8,7.5,11.3,7.5,18.1c0,6.8-2.7,13.3-7.5,18.1l-44.1,44.1
						C455.4,221.1,448.8,223.6,442.3,223.6z M407.7,61.4c-3.6,0-7.1,1.4-9.8,4.1l-44.1,44.1c-2.6,2.6-4.1,6.1-4.1,9.8
						c0,3.7,1.4,7.2,4.1,9.8l78.7,78.7c5.4,5.4,14.2,5.4,19.6,0l44.1-44.1c2.6-2.6,4.1-6.1,4.1-9.8c0-3.7-1.4-7.2-4.1-9.8
						l-78.7-78.7C414.8,62.8,411.3,61.4,407.7,61.4z"/>
				</g>
			</g>
			<g>
				<path class="st0" d="M56.2,212.1l-45-45c-7.5-7.5-7.5-19.5,0-27l78.6-78.6c8-8,21-8,29,0l43,43c8,8,8,21,0,29l-78.6,78.6
					C75.8,219.6,63.7,219.6,56.2,212.1z"/>
			</g>
			<g>
				<path class="st5" d="M13.3,138l-2.1,2.1c-7.5,7.5-7.5,19.5,0,27l45,45c7.5,7.5,19.5,7.5,27,0l2.1-2.1L13.3,138z"/>
			</g>
			<g>
				<g>
					<path class="st4" d="M220.7,462.7c-0.5,0-1,0-1.6-0.1c-3.7-0.4-7.2-2-9.9-4.7l-14.1-14.1c-2.9-2.9-4.4-6.5-4.7-10.3
						c-0.6-0.1-1.1-0.1-1.7-0.2c-0.5-0.1-1.1-0.2-1.6-0.4c-1.1-0.3-2.1-0.7-3.1-1.3c-1.5-0.8-2.9-1.8-4.1-3l-15.3-15.3
						c-2.9-2.9-4.7-6.8-5-10.9c0,0-0.1,0-0.1,0c-0.3,0-0.6-0.1-0.8-0.1c-0.2,0-0.4,0-0.5-0.1c-3.6-0.6-6.8-2.2-9.4-4.8L133.3,382
						c-2.9-2.9-4.7-6.8-5-10.9c-4.1-0.3-8-2-10.9-5l-15.3-15.3c-3.2-3.2-5-7.5-5-12.1c0-4.6,1.8-8.9,5-12.1L205,223.8
						c2.3-2.3,6-2.3,8.3,0c2.3,2.3,2.3,6,0,8.3L110.4,335c-1,1-1.6,2.4-1.6,3.8c0,1.4,0.6,2.8,1.6,3.8l15.3,15.3
						c1,1,2.4,1.6,3.8,1.6c1.4,0,2.8-0.6,3.8-1.6c2.3-2.3,6-2.3,8.3,0c1.1,1.1,1.7,2.6,1.7,4.1c0,1.5-0.6,3-1.7,4.1
						c-1,1-1.6,2.4-1.6,3.8c0,1.4,0.6,2.8,1.6,3.8l15.3,15.3c1,1,2.2,1.4,2.9,1.5l0.2,0c0.1,0,0.2,0,0.3,0l0.1,0c0.1,0,0.2,0,0.4,0
						c0.1,0,0.2,0,0.3,0l0.2,0c0.1,0,0.3,0,0.4-0.1c0,0,0.1,0,0.1,0c0.1,0,0.2-0.1,0.3-0.1l0.2,0c0.1,0,0.2-0.1,0.3-0.1l0.1-0.1
						c0.1,0,0.2-0.1,0.3-0.2l0.1-0.1c0.1-0.1,0.2-0.1,0.3-0.2c0.1,0,0.1-0.1,0.2-0.1c0.1,0,0.2-0.1,0.3-0.2l0.1-0.1
						c0.1-0.1,0.2-0.2,0.3-0.3c2.3-2.3,6-2.3,8.3,0c2.3,2.3,2.3,6,0,8.3c0,0,0,0,0,0l0,0c0,0,0,0,0,0c-2.1,2.1-2.1,5.5,0,7.5
						l15.3,15.3c0.4,0.4,0.8,0.7,1.3,1c0.3,0.2,0.6,0.3,1,0.4c0.2,0.1,0.3,0.1,0.5,0.1c1.7,0.3,3.5-0.2,4.8-1.5l0,0
						c2.3-2.3,6-2.3,8.3,0c2.3,2.3,2.3,6,0,8.3l0,0l-0.6,0.6c-1.7,1.7-1.7,4.6,0,6.3l14.1,14.1c0.9,0.9,2,1.2,2.7,1.3
						c1.3,0.1,2.6-0.3,3.6-1.3l102.5-105.3c2.3-2.3,6-2.4,8.3-0.1c2.3,2.3,2.4,6,0.1,8.3L232.2,457.9
						C229,461,224.9,462.7,220.7,462.7z"/>
				</g>
				<g>
					<path class="st4" d="M137.5,367.9c-1.5,0-3-0.6-4.1-1.7c-2.3-2.3-2.3-6,0-8.3l50.9-50.9c2.3-2.3,6-2.3,8.3,0
						c2.3,2.3,2.3,6,0,8.3l-50.9,50.9C140.5,367.3,139,367.9,137.5,367.9z"/>
				</g>
				<g>
					<path class="st4" d="M168.7,399.1c-1.5,0-3-0.6-4.1-1.7c-2.3-2.3-2.3-6,0-8.3l50.9-50.9c2.3-2.3,6-2.3,8.3,0
						c2.3,2.3,2.3,6,0,8.3l-50.9,50.9C171.7,398.5,170.2,399.1,168.7,399.1z"/>
				</g>
				<g>
					<path class="st4" d="M199.9,430.3c-1.5,0-3-0.6-4.1-1.7c-2.3-2.3-2.3-6,0-8.3l50.9-50.9c2.3-2.3,6-2.3,8.3,0
						c2.3,2.3,2.3,6,0,8.3L204,428.6C202.9,429.7,201.4,430.3,199.9,430.3z"/>
				</g>
			</g>
			<g>
				<g>
					<path class="st5" d="M369,360.6l-51.4-51.4c-4.4-4.4-4.4-11.5,0-15.9l15.3-15.3c4.4-4.4,11.5-4.4,15.9,0l51.4,51.4
						c4.4,4.4,4.4,11.5,0,15.9l-15.3,15.3C380.4,364.9,373.3,364.9,369,360.6z"/>
				</g>
				<g>
					<path class="st6" d="M318.6,292.2l-1.1,1.1c-4.4,4.4-4.4,11.5,0,15.9l51.4,51.4c4.4,4.4,11.5,4.4,15.9,0l1.1-1.1L318.6,292.2z"
						/>
				</g>
				<g>
					<path class="st4" d="M376.9,369.7c-4.4,0-8.7-1.7-12.1-5c0,0,0,0,0,0l-51.4-51.4c-3.2-3.2-5-7.5-5-12.1s1.8-8.9,5-12.1
						l15.3-15.3c6.7-6.7,17.5-6.7,24.2,0l51.4,51.4c3.2,3.2,5,7.5,5,12.1c0,4.6-1.8,8.9-5,12.1L389,364.7
						C385.6,368,381.3,369.7,376.9,369.7z M373.1,356.4c2.1,2.1,5.5,2.1,7.6,0l15.3-15.3c1-1,1.6-2.4,1.6-3.8c0-1.4-0.6-2.8-1.6-3.8
						l-51.4-51.4c-2.1-2.1-5.5-2.1-7.6,0l-15.3,15.3c-1,1-1.6,2.4-1.6,3.8c0,1.4,0.6,2.8,1.6,3.8L373.1,356.4z"/>
				</g>
			</g>
			<g>
				<g>
					<path class="st5" d="M337.8,391.8l-51.4-51.4c-4.4-4.4-4.4-11.5,0-15.9l15.3-15.3c4.4-4.4,11.5-4.4,15.9,0l51.4,51.4
						c4.4,4.4,4.4,11.5,0,15.9l-15.3,15.3C349.2,396.1,342.1,396.1,337.8,391.8z"/>
				</g>
				<g>
					<path class="st6" d="M286.3,324.5c-4.4,4.4-4.4,11.5,0,15.9l51.4,51.4c3,3,7.2,3.9,10.9,2.9l5-5l-66.3-66.3L286.3,324.5z"/>
				</g>
				<g>
					<path class="st4" d="M345.7,400.9L345.7,400.9c-4.6,0-8.9-1.8-12.1-5l-51.4-51.4c-6.7-6.7-6.7-17.5,0-24.2l15.3-15.3
						c3.2-3.2,7.5-5,12.1-5c4.6,0,8.9,1.8,12.1,5l51.4,51.4c3.2,3.2,5,7.5,5,12.1c0,4.6-1.8,8.9-5,12.1l-15.3,15.3
						C354.5,399.1,350.3,400.9,345.7,400.9z M309.6,311.7c-1.4,0-2.8,0.6-3.8,1.6l-15.3,15.3c-2.1,2.1-2.1,5.5,0,7.6l51.4,51.4l0,0
						c1,1,2.4,1.6,3.8,1.6s2.8-0.6,3.8-1.6l15.3-15.3c1-1,1.6-2.4,1.6-3.8c0-1.4-0.6-2.8-1.6-3.8l-51.4-51.4
						C312.4,312.3,311,311.7,309.6,311.7z"/>
				</g>
			</g>
			<g>
				<g>
					<path class="st5" d="M306.6,423l-51.4-51.4c-4.4-4.4-4.4-11.5,0-15.9l15.3-15.3c4.4-4.4,11.5-4.4,15.9,0l51.4,51.4
						c4.4,4.4,4.4,11.5,0,15.9L322.4,423C318,427.3,310.9,427.3,306.6,423z"/>
				</g>
				<g>
					<path class="st6" d="M256.3,354.5l-1.2,1.2c-4.4,4.4-4.4,11.5,0,15.9l51.4,51.4c4.4,4.4,11.5,4.4,15.9,0l1.2-1.2L256.3,354.5z"
						/>
				</g>
				<g>
					<path class="st4" d="M314.5,432.1c-4.4,0-8.7-1.7-12.1-5L251,375.7c-3.2-3.2-5-7.5-5-12.1c0-4.6,1.8-8.9,5-12.1l15.3-15.3
						c3.2-3.2,7.5-5,12.1-5c4.6,0,8.9,1.8,12.1,5l51.4,51.4c6.7,6.7,6.7,17.5,0,24.2l-15.3,15.3
						C323.2,430.4,318.9,432.1,314.5,432.1z M278.4,342.9c-1.4,0-2.8,0.6-3.8,1.6l-15.3,15.3c-1,1-1.6,2.4-1.6,3.8
						c0,1.4,0.6,2.8,1.6,3.8l51.4,51.4c2.1,2.1,5.5,2.1,7.6,0l15.3-15.3c2.1-2.1,2.1-5.5,0-7.6l-51.4-51.4
						C281.2,343.5,279.8,342.9,278.4,342.9z"/>
				</g>
			</g>
			<g>
				<g>
					<path class="st5" d="M278.5,452.3L231.2,405c-4-4-4-10.6,0-14.6l14.1-14.1c4-4,10.6-4,14.6,0l47.3,47.3c4,4,4,10.6,0,14.6
						l-14.1,14.1C289.1,456.3,282.5,456.3,278.5,452.3z"/>
				</g>
				<g>
					<path class="st6" d="M233.2,388.4l-2,2c-4,4-4,10.6,0,14.6l47.3,47.3c4,4,10.6,4,14.6,0l2-2L233.2,388.4z"/>
				</g>
				<g>
					<path class="st4" d="M285.8,461.2c-4.3,0-8.4-1.7-11.4-4.7l0,0c0,0,0,0,0,0l-47.3-47.3c-6.3-6.3-6.3-16.6,0-22.9l14.1-14.1
						c3.1-3.1,7.1-4.7,11.4-4.7c4.3,0,8.4,1.7,11.4,4.7l47.3,47.3c6.3,6.3,6.3,16.6,0,22.9l-14.1,14.1
						C294.2,459.5,290.1,461.2,285.8,461.2z M252.6,379.2c-1.2,0-2.3,0.5-3.1,1.3l-14.1,14.1c-1.7,1.7-1.7,4.6,0,6.3l47.3,47.3
						c0,0,0,0,0,0c0.8,0.8,2,1.3,3.1,1.3c1.2,0,2.3-0.5,3.1-1.3L303,434c1.7-1.7,1.7-4.6,0-6.3l-47.3-47.3
						C254.9,379.6,253.8,379.2,252.6,379.2z"/>
				</g>
			</g>
			<g>
				<path class="st5" d="M169.4,220.4c0,0,35.9,10.3,55.4-8.5c-21.7,25.2-33.8,41.6-5.9,66.4c9.6-6.3,9.6-6.3,9.6-6.3l63.3-66.5
					c0,0,4.9-6.4-1.5-15.5c-6.4-9.1-35.5-35.5-35.5-35.5s-4.9-7.1-22.9-0.4c-18.2,6.8-38.2,14.6-38.2,14.6l-27.7-24.7
					c0,0-5.5-8.9-12.9-1.6c-7.3,7.3-35.2,35.2-35.2,35.2L169.4,220.4z"/>
			</g>
			<g>
				<path class="st4" d="M220.5,282.7c-3.5,0-6.8-1.4-9.2-3.8c-8.2-8.2-12.7-19.1-12.7-30.6c0-11.6,4.5-22.4,12.7-30.6l17-17
					c2.3-2.3,6-2.3,8.3,0c2.3,2.3,2.3,6,0,8.3l-17,17c-6,6-9.2,13.9-9.2,22.3c0,8.4,3.3,16.4,9.2,22.3c0.3,0.3,0.7,0.4,0.9,0.4
					c0.3,0,0.6-0.1,0.9-0.4L286,206c1.6-1.6,2.5-3.7,2.5-6c0-2.3-0.9-4.4-2.5-6l-35.5-35.5c-2.3-2.3-5.9-3.1-8.9-1.9l-37,13.8
					c-9,3.4-19.3,1.1-26.1-5.7l-24-24c-2.3-2.3-2.3-6,0-8.3c2.3-2.3,6-2.3,8.3,0l24,24c3.6,3.6,8.9,4.7,13.7,3l37-13.8
					c7.4-2.8,15.8-0.9,21.4,4.6l35.5,35.5c3.8,3.8,5.9,8.9,5.9,14.3c0,5.4-2.1,10.5-5.9,14.3l-64.6,64.6
					C227.3,281.4,224,282.7,220.5,282.7z"/>
			</g>
			<g>
				<path class="st4" d="M189,231.2c-13.1,0-25-5.1-35.1-15.2c-2.3-2.3-2.3-6,0-8.3c2.3-2.3,6-2.3,8.3,0c25.9,25.9,57.8,1,59.2-0.1
					c2.5-2,6.2-1.6,8.2,0.9c2,2.5,1.6,6.2-0.9,8.2c-0.4,0.3-10.3,8.2-24.3,12.2C199.1,230.4,194,231.2,189,231.2z"/>
			</g>
			<g>
				<path class="st4" d="M69.7,223.3c-6.6,0-13.1-2.5-18.1-7.5L7.5,171.7C2.7,166.9,0,160.4,0,153.6c0-6.8,2.7-13.3,7.5-18.1
					l70.4-70.4c0,0,0,0,0,0l8.2-8.2c10-10,26.2-10,36.2,0l44.1,44.1c4.8,4.8,7.5,11.3,7.5,18.1c0,6.8-2.7,13.3-7.5,18.1l-78.7,78.7
					C82.8,220.8,76.3,223.3,69.7,223.3z M86.2,73.4l-70.4,70.4c-2.6,2.6-4.1,6.1-4.1,9.8c0,3.7,1.4,7.2,4.1,9.8l44.1,44.1
					c5.4,5.4,14.2,5.4,19.6,0l78.7-78.7c2.6-2.6,4.1-6.1,4.1-9.8c0-3.7-1.4-7.2-4.1-9.8l-44.1-44.1c-5.4-5.4-14.2-5.4-19.6,0
					L86.2,73.4z"/>
			</g>
		</g>
	</g>
</g>
</svg>
