<?xml version="1.0" encoding="UTF-8"?>
<svg width="476px" height="414px" viewBox="0 0 476 414" version="1.1" xmlns="http://www.w3.org/2000/svg" xmlns:xlink="http://www.w3.org/1999/xlink">
    <!-- Generator: Sketch 49.3 (51167) - http://www.bohemiancoding.com/sketch -->
    <title>paid</title>
    <desc>Created with Sketch.</desc>
    <defs></defs>
    <g id="Page-1" stroke="none" stroke-width="1" fill="none" fill-rule="evenodd">
        <g id="Desktop-HD-Copy" transform="translate(0.000000, -387.000000)" fill-rule="nonzero">
            <g id="paid" transform="translate(-36.000000, 387.000000)">
                <g id="Group">
                    <path d="M129.3,117.1 L255.9,158 C255.9,158 151.6,267.9 141.4,260.3 C131.2,252.7 111.3,229 111.3,229 C111.3,229 101.3,214.8 122.9,193.1 C99.5,169.7 80.8,151 80.8,151 L129.3,117.1 Z" id="Shape" fill="#D3E6F8"></path>
                    <path d="M204.9,205.1 L205,191 L214.8,171.1 C214.8,171.1 180.3,184.2 163.6,168.5 L186.4,191.3 C190.9,195.8 190.9,203.2 186.4,207.7 L155.3,238.8 C151.7,242.4 145.8,242.4 142.2,238.8 L125.4,222 C121.9,218.5 121.9,212.9 125.4,209.4 L134.2,200.6 C138.7,196.1 138.7,188.9 134.2,184.5 L99.5,149.8 L88,158.3 L122.8,193.1 C101.2,212.3 111.2,229 111.2,229 C111.2,229 133.8,252.8 141.3,260.3 C148.9,267.7 204.9,205.1 204.9,205.1 Z" id="Shape" fill="#A4CFF2"></path>
                    <path d="M145.6,270.3 C144.1,270.3 142.6,269.7 141.5,268.6 L111.2,238.3 C99.7,226.8 99.7,208.1 111.2,196.6 L114.7,193.1 L84.6,163 C82.3,160.7 82.3,157 84.6,154.7 C86.9,152.4 90.6,152.4 92.9,154.7 L127.2,189 C128.3,190.1 128.9,191.6 128.9,193.1 C128.9,194.7 128.3,196.1 127.2,197.2 L119.5,204.9 C112.6,211.8 112.6,223.1 119.5,230 L149.8,260.3 C152.1,262.6 152.1,266.3 149.8,268.6 C148.6,269.7 147.1,270.3 145.6,270.3 Z" id="Shape" fill="#4C4372"></path>
                    <g transform="translate(102.000000, 164.000000)" fill="#D3E6F8" id="Shape">
                        <path d="M125.9,240.8 C123.6,243.1 120.6,244.1 117.6,243.8 C115.3,243.6 113.1,242.6 111.3,240.8 L109.3,238.8 L97.2,226.7 C93.2,222.7 93.2,216.1 97.2,212.1 L97.8,211.5 C95.1,214.2 91.3,215.3 87.7,214.6 C87.3,214.5 87,214.4 86.6,214.3 C85.9,214.1 85.2,213.8 84.6,213.5 C83.6,213 82.7,212.3 81.9,211.5 L80.7,210.3 L66.5,196.1 C62.1,191.7 62.1,184.6 66.5,180.2 C66.3,180.4 66,180.7 65.7,180.9 C65.6,181 65.6,181 65.5,181.1 C65.3,181.3 65,181.5 64.8,181.6 C64.8,181.6 64.7,181.6 64.7,181.7 C64.4,181.9 64.2,182 63.9,182.2 C63.8,182.2 63.7,182.3 63.6,182.3 C63.4,182.4 63.1,182.5 62.9,182.6 C62.8,182.6 62.8,182.7 62.7,182.7 C62.4,182.8 62.1,182.9 61.9,183 C61.8,183 61.7,183.1 61.5,183.1 C61.3,183.2 61.1,183.2 60.9,183.2 C60.8,183.2 60.6,183.3 60.5,183.3 C60.2,183.3 60,183.4 59.7,183.4 C59.5,183.4 59.4,183.4 59.2,183.4 C59,183.4 58.8,183.4 58.6,183.4 C58.4,183.4 58.1,183.4 57.9,183.4 C57.8,183.4 57.7,183.4 57.5,183.4 C57.3,183.4 57.1,183.4 57,183.3 C56.9,183.3 56.8,183.3 56.7,183.3 C54.4,182.9 52.3,181.9 50.5,180.2 L35.2,164.9 C30.8,160.5 30.8,153.4 35.2,149 C30.8,153.4 23.7,153.4 19.3,149 L18.2,147.9 L3.9,133.6 C-0.5,129.2 -0.5,122.1 3.9,117.7 L107.2,15 C126.1,-3.9 156.7,-3.9 175.6,15 L228.1,67.5 C246.8,86.2 247,116.4 228.6,135.4 L125.9,240.8 Z"></path>
                        <path d="M35.5,149 L86.4,98.2"></path>
                        <path d="M66.7,180.2 L117.6,129.4"></path>
                        <path d="M97.9,211.4 L148.8,160.6"></path>
                    </g>
                    <rect id="Rectangle-path" fill="#A4CFF2" transform="translate(233.544630, 387.209680) rotate(45.000000) translate(-233.544630, -387.209680) " x="226.2947" y="361.359928" width="14.4998609" height="51.6995042"></rect>
                    <path d="M194.8,380.4 L182.3,372.4 L233.1,321.6 C238.8,315.9 247.9,315.9 253.6,321.6 L194.8,380.4 Z" id="Shape" fill="#A4CFF2"></path>
                    <path d="M163.9,349.5 L151.4,341.5 L202.2,290.7 C207.9,285 217,285 222.7,290.7 L163.9,349.5 Z" id="Shape" fill="#A4CFF2"></path>
                    <path d="M132.1,317.7 L119.6,309.7 L170.4,258.9 C176.1,253.2 185.2,253.2 190.9,258.9 L132.1,317.7 Z" id="Shape" fill="#A4CFF2"></path>
                    <path d="M235,131.9 L257.3,105.8 C257.3,105.8 262.8,98.9 281.3,105.8 C299.7,112.7 316.8,124.6 329.4,112 C342,99.4 362.4,78.5 362.4,78.5 L436.6,151.5 L389.1,193.4 C389.1,193.4 409.6,209.7 402.5,225.4 C395.4,241.1 358.9,267.3 358.9,267.3 L235,131.9 Z" id="Shape" fill="#D3E6F8"></path>
                    <path d="M381.2,224.9 L358.1,248 L373.2,256.1 L402.4,225.3 C402.4,225.3 401.8,199.8 389,193.3 C415.2,165.9 415.2,165.9 415.2,165.9 L435.2,145.9 C439.6,141.5 439.6,134.4 435.2,130 L434.1,128.9 L374,189.2 C370.1,193.1 370.1,199.5 374,203.5 L381.2,210.7 C385.2,214.6 385.2,220.9 381.2,224.9 Z" id="Shape" fill="#A4CFF2"></path>
                    <g transform="translate(211.000000, 0.000000)" id="Shape">
                        <path d="M143.6,282.4 C142.1,282.4 140.6,281.8 139.5,280.7 C137.2,278.4 137.2,274.7 139.5,272.4 L181.7,230.2 C188.6,223.3 188.6,212 181.7,205.1 L174,197.4 C172.9,196.3 172.3,194.8 172.3,193.3 C172.3,191.8 172.9,190.3 174,189.2 L208.3,154.9 C210.6,152.6 214.3,152.6 216.6,154.9 C218.9,157.2 218.9,160.9 216.6,163.2 L186.5,193.3 L190,196.8 C201.5,208.3 201.5,227 190,238.5 L147.8,280.7 C146.6,281.8 145.1,282.4 143.6,282.4 Z" fill="#4C4372"></path>
                        <path d="M10.8,167.4 C9.3,167.4 7.8,166.8 6.7,165.7 C2.9,161.9 0.8,156.8 0.8,151.4 C0.8,146 2.9,140.9 6.7,137.1 L42.2,101.6 C47.8,96 56.2,94.2 63.6,97 L100.6,110.8 C105.3,112.6 110.7,111.4 114.3,107.8 L138.3,83.8 C140.6,81.5 144.3,81.5 146.6,83.8 C148.9,86.1 148.9,89.8 146.6,92.1 L122.6,116.1 C115.8,122.9 105.6,125.1 96.5,121.8 L59.5,108 C56.4,106.8 52.9,107.6 50.6,109.9 L15,145.4 C13.4,147 12.5,149.1 12.5,151.4 C12.5,153.7 13.4,155.8 15,157.4 C17.3,159.7 17.3,163.4 15,165.7 C13.8,166.8 12.3,167.4 10.8,167.4 Z" fill="#4C4372"></path>
                        <path d="M244.8,163.4 L289.8,118.4 C297.3,110.9 297.3,98.9 289.8,91.4 L211.2,12.8 C203.2,4.8 190.2,4.8 182.2,12.8 L139.2,55.8 C131.2,63.8 131.2,76.8 139.2,84.8 L217.8,163.4 C225.2,170.9 237.3,170.9 244.8,163.4 Z" fill="#FD919E"></path>
                        <path d="M287.7,89.3 L289.8,91.4 C297.3,98.9 297.3,110.9 289.8,118.4 L244.8,163.4 C237.3,170.9 225.3,170.9 217.8,163.4 L215.7,161.3 L287.7,89.3 Z" fill="#E8677D"></path>
                        <path d="M231.3,174.6 C224.7,174.6 218.2,172.1 213.2,167.1 L134.5,88.4 C129.7,83.6 127,77.1 127,70.3 C127,63.5 129.7,57 134.5,52.2 L178.6,8.1 C188.6,-1.9 204.8,-1.9 214.8,8.1 L223,16.3 C223,16.3 223,16.3 223,16.3 L293.4,86.7 C298.2,91.5 300.9,98 300.9,104.8 C300.9,111.6 298.2,118.1 293.4,122.9 L249.3,167 C244.4,172.1 237.8,174.6 231.3,174.6 Z M196.7,12.4 C193.1,12.4 189.6,13.8 186.9,16.5 L142.8,60.6 C140.2,63.2 138.7,66.7 138.7,70.4 C138.7,74.1 140.1,77.6 142.8,80.2 L221.5,158.9 C226.9,164.3 235.7,164.3 241.1,158.9 L285.2,114.8 C287.8,112.2 289.3,108.7 289.3,105 C289.3,101.3 287.9,97.8 285.2,95.2 L206.5,16.5 C203.8,13.8 200.3,12.4 196.7,12.4 Z" fill="#4C4372"></path>
                    </g>
                    <path d="M56.2,163.1 L11.2,118.1 C3.7,110.6 3.7,98.6 11.2,91.1 L89.8,12.5 C97.8,4.5 110.8,4.5 118.8,12.5 L161.8,55.5 C169.8,63.5 169.8,76.5 161.8,84.5 L83.2,163.1 C75.8,170.6 63.7,170.6 56.2,163.1 Z" id="Shape" fill="#FFFFFF"></path>
                    <path d="M13.3,89 L11.2,91.1 C3.7,98.6 3.7,110.6 11.2,118.1 L56.2,163.1 C63.7,170.6 75.7,170.6 83.2,163.1 L85.3,161 L13.3,89 Z" id="Shape" fill="#D3E6F8"></path>
                    <g transform="translate(97.000000, 173.000000)" fill="#4C4372" id="Shape">
                        <path d="M123.7,240.7 C123.2,240.7 122.7,240.7 122.1,240.6 C118.4,240.2 114.9,238.6 112.2,235.9 L98.1,221.8 C95.2,218.9 93.7,215.3 93.4,211.5 C92.8,211.4 92.3,211.4 91.7,211.3 C91.2,211.2 90.6,211.1 90.1,210.9 C89,210.6 88,210.2 87,209.6 C85.5,208.8 84.1,207.8 82.9,206.6 L67.6,191.3 C64.7,188.4 62.9,184.5 62.6,180.4 C62.6,180.4 62.5,180.4 62.5,180.4 C62.2,180.4 61.9,180.3 61.7,180.3 C61.5,180.3 61.3,180.3 61.2,180.2 C57.6,179.6 54.4,178 51.8,175.4 L36.3,160 C33.4,157.1 31.6,153.2 31.3,149.1 C27.2,148.8 23.3,147.1 20.4,144.1 L5.1,128.8 C1.9,125.6 0.1,121.3 0.1,116.7 C0.1,112.1 1.9,107.8 5.1,104.6 L108,1.8 C110.3,-0.5 114,-0.5 116.3,1.8 C118.6,4.1 118.6,7.8 116.3,10.1 L13.4,113 C12.4,114 11.8,115.4 11.8,116.8 C11.8,118.2 12.4,119.6 13.4,120.6 L28.7,135.9 C29.7,136.9 31.1,137.5 32.5,137.5 C33.9,137.5 35.3,136.9 36.3,135.9 C38.6,133.6 42.3,133.6 44.6,135.9 C45.7,137 46.3,138.5 46.3,140 C46.3,141.5 45.7,143 44.6,144.1 C43.6,145.1 43,146.5 43,147.9 C43,149.3 43.6,150.7 44.6,151.7 L59.9,167 C60.9,168 62.1,168.4 62.8,168.5 L63,168.5 C63.1,168.5 63.2,168.5 63.3,168.5 L63.4,168.5 C63.5,168.5 63.6,168.5 63.8,168.5 C63.9,168.5 64,168.5 64.1,168.5 L64.3,168.5 C64.4,168.5 64.6,168.5 64.7,168.4 C64.7,168.4 64.8,168.4 64.8,168.4 C64.9,168.4 65,168.3 65.1,168.3 L65.3,168.3 C65.4,168.3 65.5,168.2 65.6,168.2 L65.7,168.1 C65.8,168.1 65.9,168 66,167.9 L66.1,167.8 C66.2,167.7 66.3,167.7 66.4,167.6 C66.5,167.6 66.5,167.5 66.6,167.5 C66.7,167.5 66.8,167.4 66.9,167.3 L67,167.2 C67.1,167.1 67.2,167 67.3,166.9 C69.6,164.6 73.3,164.6 75.6,166.9 C77.9,169.2 77.9,172.9 75.6,175.2 C75.6,175.2 75.6,175.2 75.6,175.2 C75.6,175.2 75.6,175.2 75.6,175.2 C73.5,177.3 73.5,180.7 75.6,182.7 L90.9,198 C91.3,198.4 91.7,198.7 92.2,199 C92.5,199.2 92.8,199.3 93.2,199.4 C93.4,199.5 93.5,199.5 93.7,199.5 C95.4,199.8 97.2,199.3 98.5,198 C100.8,195.7 104.5,195.7 106.8,198 C109.1,200.3 109.1,204 106.8,206.3 L106.2,206.9 C104.5,208.6 104.5,211.5 106.2,213.2 L120.3,227.3 C121.2,228.2 122.3,228.5 123,228.6 C124.3,228.7 125.6,228.3 126.6,227.3 L229.1,122 C231.4,119.7 235.1,119.6 237.4,121.9 C239.7,124.2 239.8,127.9 237.5,130.2 L135.2,235.9 C132,239 127.9,240.7 123.7,240.7 Z"></path>
                        <path d="M40.5,145.9 C39,145.9 37.5,145.3 36.4,144.2 C34.1,141.9 34.1,138.2 36.4,135.9 L87.3,85 C89.6,82.7 93.3,82.7 95.6,85 C97.9,87.3 97.9,91 95.6,93.3 L44.7,144.2 C43.5,145.3 42,145.9 40.5,145.9 Z"></path>
                        <path d="M71.7,177.1 C70.2,177.1 68.7,176.5 67.6,175.4 C65.3,173.1 65.3,169.4 67.6,167.1 L118.5,116.2 C120.8,113.9 124.5,113.9 126.8,116.2 C129.1,118.5 129.1,122.2 126.8,124.5 L75.9,175.4 C74.7,176.5 73.2,177.1 71.7,177.1 Z"></path>
                        <path d="M102.9,208.3 C101.4,208.3 99.9,207.7 98.8,206.6 C96.5,204.3 96.5,200.6 98.8,198.3 L149.7,147.4 C152,145.1 155.7,145.1 158,147.4 C160.3,149.7 160.3,153.4 158,155.7 L107,206.6 C105.9,207.7 104.4,208.3 102.9,208.3 Z"></path>
                    </g>
                    <g transform="translate(308.000000, 219.000000)" id="Shape">
                        <path d="M61,92.6 L9.6,41.2 C5.2,36.8 5.2,29.7 9.6,25.3 L24.9,10 C29.3,5.6 36.4,5.6 40.8,10 L92.2,61.4 C96.6,65.8 96.6,72.9 92.2,77.3 L76.9,92.6 C72.4,96.9 65.3,96.9 61,92.6 Z" fill="#D3E6F8"></path>
                        <path d="M10.6,24.2 L9.5,25.3 C5.1,29.7 5.1,36.8 9.5,41.2 L60.9,92.6 C65.3,97 72.4,97 76.8,92.6 L77.9,91.5 L10.6,24.2 Z" fill="#A4CFF2"></path>
                        <path d="M68.9,101.7 C64.5,101.7 60.2,100 56.8,96.7 C56.8,96.7 56.8,96.7 56.8,96.7 L5.4,45.3 C2.2,42.1 0.4,37.8 0.4,33.2 C0.4,28.6 2.2,24.3 5.4,21.1 L20.7,5.8 C27.4,-0.9 38.2,-0.9 44.9,5.8 L96.3,57.2 C99.5,60.4 101.3,64.7 101.3,69.3 C101.3,73.9 99.5,78.2 96.3,81.4 L81,96.7 C77.6,100 73.3,101.7 68.9,101.7 Z M65.1,88.4 C67.2,90.5 70.6,90.5 72.7,88.4 L88,73.1 C89,72.1 89.6,70.7 89.6,69.3 C89.6,67.9 89,66.5 88,65.5 L36.6,14.1 C34.5,12 31.1,12 29,14.1 L13.7,29.4 C12.7,30.4 12.1,31.8 12.1,33.2 C12.1,34.6 12.7,36 13.7,37 L65.1,88.4 Z" fill="#4C4372"></path>
                    </g>
                    <g transform="translate(277.000000, 251.000000)" id="Shape">
                        <path d="M60.8,91.8 L9.4,40.4 C5,36 5,28.9 9.4,24.5 L24.7,9.2 C29.1,4.8 36.2,4.8 40.6,9.2 L92,60.6 C96.4,65 96.4,72.1 92,76.5 L76.7,91.8 C72.2,96.1 65.1,96.1 60.8,91.8 Z" fill="#D3E6F8"></path>
                        <path d="M9.3,24.5 C4.9,28.9 4.9,36 9.3,40.4 L60.7,91.8 C63.7,94.8 67.9,95.7 71.6,94.7 L76.6,89.7 L10.3,23.4 L9.3,24.5 Z" fill="#A4CFF2"></path>
                        <path d="M68.7,100.9 C64.1,100.9 59.8,99.1 56.6,95.9 L5.2,44.5 C-1.5,37.8 -1.5,27 5.2,20.3 L20.5,5 C23.7,1.8 28,0 32.6,0 C37.2,0 41.5,1.8 44.7,5 L96.1,56.4 C99.3,59.6 101.1,63.9 101.1,68.5 C101.1,73.1 99.3,77.4 96.1,80.6 L80.8,95.9 C77.5,99.1 73.3,100.9 68.7,100.9 Z M32.6,11.7 C31.2,11.7 29.8,12.3 28.8,13.3 L13.5,28.6 C11.4,30.7 11.4,34.1 13.5,36.2 L64.9,87.6 C65.9,88.6 67.3,89.2 68.7,89.2 C70.1,89.2 71.5,88.6 72.5,87.6 L87.8,72.3 C88.8,71.3 89.4,69.9 89.4,68.5 C89.4,67.1 88.8,65.7 87.8,64.7 L36.4,13.3 C35.4,12.3 34,11.7 32.6,11.7 Z" fill="#4C4372"></path>
                    </g>
                    <g transform="translate(246.000000, 282.000000)" id="Shape">
                        <path d="M60.6,92 L9.2,40.6 C4.8,36.2 4.8,29.1 9.2,24.7 L24.5,9.4 C28.9,5 36,5 40.4,9.4 L91.8,60.8 C96.2,65.2 96.2,72.3 91.8,76.7 L76.4,92 C72,96.3 64.9,96.3 60.6,92 Z" fill="#D3E6F8"></path>
                        <path d="M10.3,23.5 L9.1,24.7 C4.7,29.1 4.7,36.2 9.1,40.6 L60.5,92 C64.9,96.4 72,96.4 76.4,92 L77.6,90.8 L10.3,23.5 Z" fill="#A4CFF2"></path>
                        <path d="M68.5,101.1 C64.1,101.1 59.8,99.4 56.4,96.1 L5,44.7 C1.8,41.5 0,37.2 0,32.6 C0,28 1.8,23.7 5,20.5 L20.3,5.2 C23.5,2 27.8,0.2 32.4,0.2 C37,0.2 41.3,2 44.5,5.2 L95.9,56.6 C102.6,63.3 102.6,74.1 95.9,80.8 L80.6,96.1 C77.2,99.4 72.9,101.1 68.5,101.1 Z M32.4,11.9 C31,11.9 29.6,12.5 28.6,13.5 L13.3,28.8 C12.3,29.8 11.7,31.2 11.7,32.6 C11.7,34 12.3,35.4 13.3,36.4 L64.7,87.8 C66.8,89.9 70.2,89.9 72.3,87.8 L87.6,72.5 C89.7,70.4 89.7,67 87.6,64.9 L36.2,13.5 C35.2,12.5 33.8,11.9 32.4,11.9 Z" fill="#4C4372"></path>
                    </g>
                    <g transform="translate(222.000000, 318.000000)" id="Shape">
                        <path d="M56.5,85.3 L9.2,38 C5.2,34 5.2,27.4 9.2,23.4 L23.3,9.3 C27.3,5.3 33.9,5.3 37.9,9.3 L85.2,56.6 C89.2,60.6 89.2,67.2 85.2,71.2 L71.1,85.3 C67.1,89.3 60.5,89.3 56.5,85.3 Z" fill="#D3E6F8"></path>
                        <path d="M11.2,21.4 L9.2,23.4 C5.2,27.4 5.2,34 9.2,38 L56.5,85.3 C60.5,89.3 67.1,89.3 71.1,85.3 L73.1,83.3 L11.2,21.4 Z" fill="#A4CFF2"></path>
                        <path d="M63.8,94.2 C59.5,94.2 55.4,92.5 52.4,89.5 C52.4,89.5 52.4,89.5 52.4,89.5 L5.1,42.2 C-1.2,35.9 -1.2,25.6 5.1,19.3 L19.2,5.2 C22.3,2.1 26.3,0.5 30.6,0.5 C34.9,0.5 39,2.2 42,5.2 L89.3,52.5 C95.6,58.8 95.6,69.1 89.3,75.4 L75.2,89.5 C72.2,92.5 68.1,94.2 63.8,94.2 Z M30.6,12.2 C29.4,12.2 28.3,12.7 27.5,13.5 L13.4,27.6 C11.7,29.3 11.7,32.2 13.4,33.9 L60.7,81.2 C60.7,81.2 60.7,81.2 60.7,81.2 C61.5,82 62.7,82.5 63.8,82.5 C65,82.5 66.1,82 66.9,81.2 L81,67 C82.7,65.3 82.7,62.4 81,60.7 L33.7,13.4 C32.9,12.6 31.8,12.2 30.6,12.2 Z" fill="#4C4372"></path>
                    </g>
                    <path d="M169.4,171.4 C169.4,171.4 205.3,181.7 224.8,162.9 C203.1,188.1 191,204.5 218.9,229.3 C228.5,223 228.5,223 228.5,223 L291.8,156.5 C291.8,156.5 296.7,150.1 290.3,141 C283.9,131.9 254.8,105.5 254.8,105.5 C254.8,105.5 249.9,98.4 231.9,105.1 C213.7,111.9 193.7,119.7 193.7,119.7 L166,95 C166,95 160.5,86.1 153.1,93.4 C145.8,100.7 117.9,128.6 117.9,128.6 L169.4,171.4 Z" id="Shape" fill="#D3E6F8"></path>
                    <path d="M220.5,233.7 C217,233.7 213.7,232.3 211.3,229.9 C203.1,221.7 198.6,210.8 198.6,199.3 C198.6,187.7 203.1,176.9 211.3,168.7 L228.3,151.7 C230.6,149.4 234.3,149.4 236.6,151.7 C238.9,154 238.9,157.7 236.6,160 L219.6,177 C213.6,183 210.4,190.9 210.4,199.3 C210.4,207.7 213.7,215.7 219.6,221.6 C219.9,221.9 220.3,222 220.5,222 C220.8,222 221.1,221.9 221.4,221.6 L286,157 C287.6,155.4 288.5,153.3 288.5,151 C288.5,148.7 287.6,146.6 286,145 L250.5,109.5 C248.2,107.2 244.6,106.4 241.6,107.6 L204.6,121.4 C195.6,124.8 185.3,122.5 178.5,115.7 L154.5,91.7 C152.2,89.4 152.2,85.7 154.5,83.4 C156.8,81.1 160.5,81.1 162.8,83.4 L186.8,107.4 C190.4,111 195.7,112.1 200.5,110.4 L237.5,96.6 C244.9,93.8 253.3,95.7 258.9,101.2 L294.4,136.7 C298.2,140.5 300.3,145.6 300.3,151 C300.3,156.4 298.2,161.5 294.4,165.3 L229.8,229.9 C227.3,232.4 224,233.7 220.5,233.7 Z" id="Shape" fill="#4C4372"></path>
                    <path d="M189,182.2 C175.9,182.2 164,177.1 153.9,167 C151.6,164.7 151.6,161 153.9,158.7 C156.2,156.4 159.9,156.4 162.2,158.7 C188.1,184.6 220,159.7 221.4,158.6 C223.9,156.6 227.6,157 229.6,159.5 C231.6,162 231.2,165.7 228.7,167.7 C228.3,168 218.4,175.9 204.4,179.9 C199.1,181.4 194,182.2 189,182.2 Z" id="Shape" fill="#4C4372"></path>
                    <path d="M69.7,174.3 C63.1,174.3 56.6,171.8 51.6,166.8 L7.5,122.7 C2.7,117.9 0,111.4 0,104.6 C0,97.8 2.7,91.3 7.5,86.5 L77.9,16.1 C77.9,16.1 77.9,16.1 77.9,16.1 L86.1,7.9 C96.1,-2.1 112.3,-2.1 122.3,7.9 L166.4,52 C171.2,56.8 173.9,63.3 173.9,70.1 C173.9,76.9 171.2,83.4 166.4,88.2 L87.7,166.9 C82.8,171.8 76.3,174.3 69.7,174.3 Z M86.2,24.4 L15.8,94.8 C13.2,97.4 11.7,100.9 11.7,104.6 C11.7,108.3 13.1,111.8 15.8,114.4 L59.9,158.5 C65.3,163.9 74.1,163.9 79.5,158.5 L158.2,79.8 C160.8,77.2 162.3,73.7 162.3,70 C162.3,66.3 160.9,62.8 158.2,60.2 L114.1,16.1 C108.7,10.7 99.9,10.7 94.5,16.1 L86.2,24.4 Z" id="Shape" fill="#4C4372"></path>
                </g>
            </g>
        </g>
    </g>
</svg>