<?xml version="1.0" encoding="utf-8"?>
<!-- Generator: Adobe Illustrator 19.0.0, SVG Export Plug-In . SVG Version: 6.00 Build 0)  -->
<svg version="1.1" id="Layer_1" xmlns="http://www.w3.org/2000/svg" xmlns:xlink="http://www.w3.org/1999/xlink" x="0px" y="0px"
	 viewBox="0 0 800 600" style="enable-background:new 0 0 800 600;" xml:space="preserve">
<style type="text/css">
	.st0{fill:#F0C48A;}
	.st1{fill:#FFFFFF;}
	.st2{fill:#D3E6F8;}
	.st3{fill:#4D4472;}
	.st4{fill:#FD919E;}
</style>
<g id="XMLID_614_">
	<circle id="XMLID_578_" class="st0" cx="405.4" cy="281.3" r="207"/>
	<g id="XMLID_613_">
		<g id="XMLID_594_">
			<path id="XMLID_579_" class="st1" d="M381,252.7h-83.2c-5.9,0-10.7-4.8-10.7-10.7V85.6c0-5.9,4.8-10.7,10.7-10.7H381
				c5.9,0,10.7,4.8,10.7,10.7v156.3C391.7,247.8,386.9,252.7,381,252.7z"/>
			<path id="XMLID_591_" class="st2" d="M380.7,252.7L380.7,252.7c-5.9,0-10.7-4.8-10.7-10.7V85.6c0-5.9,4.8-10.7,10.7-10.7h0
				c5.9,0,10.7,4.8,10.7,10.7v156.3C391.4,247.8,386.6,252.7,380.7,252.7z"/>
		</g>
		<g id="XMLID_595_">
			<path id="XMLID_600_" class="st1" d="M513.2,252.7h-83.2c-5.9,0-10.7-4.8-10.7-10.7V85.6c0-5.9,4.8-10.7,10.7-10.7h83.2
				c5.9,0,10.7,4.8,10.7,10.7v156.3C523.9,247.8,519.1,252.7,513.2,252.7z"/>
			<path id="XMLID_598_" class="st2" d="M512.9,252.7L512.9,252.7c-5.9,0-10.7-4.8-10.7-10.7V85.6c0-5.9,4.8-10.7,10.7-10.7h0
				c5.9,0,10.7,4.8,10.7,10.7v156.3C523.6,247.8,518.8,252.7,512.9,252.7z"/>
		</g>
		<g id="XMLID_601_">
			<path id="XMLID_606_" class="st1" d="M379.1,487.6h-83.2c-5.9,0-10.7-4.8-10.7-10.7V320.6c0-5.9,4.8-10.7,10.7-10.7h83.2
				c5.9,0,10.7,4.8,10.7,10.7v156.3C389.8,482.8,385,487.6,379.1,487.6z"/>
			<path id="XMLID_605_" class="st2" d="M378.8,487.6L378.8,487.6c-5.9,0-10.7-4.8-10.7-10.7V320.6c0-5.9,4.8-10.7,10.7-10.7h0
				c5.9,0,10.7,4.8,10.7,10.7v156.3C389.5,482.8,384.7,487.6,378.8,487.6z"/>
		</g>
		<g id="XMLID_607_">
			<path id="XMLID_609_" class="st1" d="M513.2,487.6h-83.2c-5.9,0-10.7-4.8-10.7-10.7V320.6c0-5.9,4.8-10.7,10.7-10.7h83.2
				c5.9,0,10.7,4.8,10.7,10.7v156.3C523.9,482.8,519.1,487.6,513.2,487.6z"/>
			<path id="XMLID_608_" class="st2" d="M512.9,487.6L512.9,487.6c-5.9,0-10.7-4.8-10.7-10.7V320.6c0-5.9,4.8-10.7,10.7-10.7h0
				c5.9,0,10.7,4.8,10.7,10.7v156.3C523.6,482.8,518.8,487.6,512.9,487.6z"/>
		</g>
		<path id="XMLID_580_" class="st3" d="M508.2,258.8c11.9,0,21.6-9.7,21.6-21.6V90.3c0-11.9-9.7-21.6-21.6-21.6h-73.4
			c-11.9,0-21.6,9.7-21.6,21.6v44.5c-1.9-0.1-3.9,0.5-5.3,2c-2.7,2.7-2.7,7,0,9.7l10.3,10.3h-20.6V90.3c0-11.9-9.7-21.6-21.6-21.6
			h-73.4c-11.9,0-21.6,9.7-21.6,21.6v146.9c0,11.9,9.7,21.6,21.6,21.6h29.8v45h-29.8c-11.9,0-21.6,9.7-21.6,21.6v146.9
			c0,11.9,9.7,21.6,21.6,21.6h73.4c11.9,0,21.6-9.7,21.6-21.6V325.3c0-11.9-9.7-21.6-21.6-21.6h-29.8v-45h29.8
			c11.9,0,21.6-9.7,21.6-21.6v-66.5h20.6l-10.3,10.3c-2.7,2.7-2.7,7,0,9.7c1.3,1.3,3.1,2,4.9,2c0.2,0,0.3,0,0.5,0v44.5
			c0,11.9,9.7,21.6,21.6,21.6h29.8v45h-29.8c-11.9,0-21.6,9.7-21.6,21.6v146.9c0,11.9,9.7,21.6,21.6,21.6h73.4
			c11.9,0,21.6-9.7,21.6-21.6V325.3c0-11.9-9.7-21.6-21.6-21.6h-29.8v-45H508.2z M376.1,317.5c4.3,0,7.8,3.5,7.8,7.8v146.9
			c0,4.3-3.5,7.8-7.8,7.8h-73.4c-4.3,0-7.8-3.5-7.8-7.8V325.3c0-4.3,3.5-7.8,7.8-7.8h29.8v27.9l-10.3-10.3c-2.7-2.7-7-2.7-9.7,0
			s-2.7,7,0,9.7l22,22c0,0,0,0,0,0c0.2,0.2,0.3,0.3,0.5,0.4c0.1,0.1,0.2,0.1,0.2,0.2c0.1,0.1,0.2,0.2,0.3,0.2
			c0.1,0.1,0.2,0.1,0.3,0.2c0.1,0.1,0.2,0.1,0.3,0.2c0.1,0.1,0.2,0.1,0.3,0.1c0.1,0,0.2,0.1,0.3,0.1c0.1,0,0.2,0.1,0.3,0.1
			c0.1,0,0.2,0.1,0.3,0.1c0.1,0,0.2,0.1,0.3,0.1c0.1,0,0.2,0.1,0.3,0.1c0.1,0,0.2,0,0.4,0.1c0.1,0,0.2,0,0.3,0c0.2,0,0.5,0,0.7,0
			c0.2,0,0.5,0,0.7,0c0.1,0,0.2,0,0.3,0c0.1,0,0.2,0,0.4-0.1c0.1,0,0.2-0.1,0.3-0.1c0.1,0,0.2,0,0.3-0.1c0.1,0,0.2-0.1,0.3-0.1
			c0.1,0,0.2-0.1,0.3-0.1c0.1,0,0.2-0.1,0.3-0.1c0.1,0,0.2-0.1,0.3-0.1c0.1-0.1,0.2-0.1,0.3-0.2s0.2-0.1,0.3-0.2
			c0.1-0.1,0.2-0.1,0.3-0.2c0.1-0.1,0.2-0.1,0.2-0.2c0.2-0.1,0.3-0.3,0.5-0.4c0,0,0,0,0,0l22-22c2.7-2.7,2.7-7,0-9.7
			c-2.7-2.7-7-2.7-9.7,0l-10.3,10.3v-27.9H376.1z M302.6,245c-4.3,0-7.8-3.5-7.8-7.8V90.3c0-4.3,3.5-7.8,7.8-7.8h73.4
			c4.3,0,7.8,3.5,7.8,7.8v66.5h-24.1c-2.9-8.5-11-14.7-20.4-14.7c-11.9,0-21.6,9.7-21.6,21.6c0,9.5,6.2,17.6,14.7,20.4V245H302.6z
			 M339.3,171.6c-4.3,0-7.8-3.5-7.8-7.8s3.5-7.8,7.8-7.8c4.3,0,7.8,3.5,7.8,7.8S343.7,171.6,339.3,171.6z M383.9,237.2
			c0,4.3-3.5,7.8-7.8,7.8h-29.8v-60.8c6.4-2.1,11.4-7.2,13.6-13.6h24.1V237.2z M508.2,317.5c4.3,0,7.8,3.5,7.8,7.8v146.9
			c0,4.3-3.5,7.8-7.8,7.8h-73.4c-4.3,0-7.8-3.5-7.8-7.8V325.3c0-4.3,3.5-7.8,7.8-7.8h29.8v27.9l-10.3-10.3c-2.7-2.7-7-2.7-9.7,0
			c-2.7,2.7-2.7,7,0,9.7l22,22c0,0,0,0,0,0c0.2,0.2,0.3,0.3,0.5,0.4c0.1,0.1,0.2,0.1,0.2,0.2c0.1,0.1,0.2,0.2,0.3,0.2
			c0.1,0.1,0.2,0.1,0.3,0.2c0.1,0.1,0.2,0.1,0.3,0.2c0.1,0.1,0.2,0.1,0.3,0.1c0.1,0,0.2,0.1,0.3,0.1c0.1,0,0.2,0.1,0.3,0.1
			c0.1,0,0.2,0.1,0.3,0.1c0.1,0,0.2,0.1,0.3,0.1c0.1,0,0.2,0.1,0.3,0.1c0.1,0,0.2,0,0.4,0.1c0.1,0,0.2,0,0.3,0c0.2,0,0.5,0,0.7,0
			c0.2,0,0.5,0,0.7,0c0.1,0,0.2,0,0.3,0c0.1,0,0.2,0,0.4-0.1c0.1,0,0.2-0.1,0.3-0.1c0.1,0,0.2,0,0.3-0.1c0.1,0,0.2-0.1,0.3-0.1
			c0.1,0,0.2-0.1,0.3-0.1c0.1,0,0.2-0.1,0.3-0.1c0.1,0,0.2-0.1,0.3-0.1c0.1-0.1,0.2-0.1,0.3-0.2s0.2-0.1,0.3-0.2
			c0.1-0.1,0.2-0.1,0.3-0.2c0.1-0.1,0.2-0.1,0.2-0.2c0.2-0.1,0.3-0.3,0.5-0.4c0,0,0,0,0,0l22-22c2.7-2.7,2.7-7,0-9.7
			c-2.7-2.7-7-2.7-9.7,0l-10.3,10.3v-27.9H508.2z M434.8,245c-4.3,0-7.8-3.5-7.8-7.8v-55.9l12.7-12.7c2.7-2.7,2.7-7,0-9.7L427,146.2
			V90.3c0-4.3,3.5-7.8,7.8-7.8h73.4c4.3,0,7.8,3.5,7.8,7.8v146.9c0,4.3-3.5,7.8-7.8,7.8h-29.8v-60.8c8.5-2.9,14.7-11,14.7-20.4
			c0-11.9-9.7-21.6-21.6-21.6s-21.6,9.7-21.6,21.6c0,9.5,6.2,17.6,14.7,20.4V245H434.8z M471.5,171.6c-4.3,0-7.8-3.5-7.8-7.8
			s3.5-7.8,7.8-7.8c4.3,0,7.8,3.5,7.8,7.8S475.8,171.6,471.5,171.6z"/>
		<path id="XMLID_610_" class="st4" d="M340,459.3L340,459.3c-7.9,0-14.3-6.4-14.3-14.3v0c0-7.9,6.4-14.3,14.3-14.3h0
			c7.9,0,14.3,6.4,14.3,14.3v0C354.3,452.8,347.9,459.3,340,459.3z"/>
		<path id="XMLID_611_" class="st4" d="M471.5,459.3L471.5,459.3c-7.9,0-14.3-6.4-14.3-14.3v0c0-7.9,6.4-14.3,14.3-14.3h0
			c7.9,0,14.3,6.4,14.3,14.3v0C485.9,452.8,479.4,459.3,471.5,459.3z"/>
	</g>
</g>
</svg>
