<?xml version="1.0" encoding="UTF-8"?>
<svg width="513px" height="258px" viewBox="0 0 513 258" version="1.1" xmlns="http://www.w3.org/2000/svg" xmlns:xlink="http://www.w3.org/1999/xlink">
    <!-- Generator: Sketch 49.3 (51167) - http://www.bohemiancoding.com/sketch -->
    <title>qa</title>
    <desc>Created with Sketch.</desc>
    <defs></defs>
    <g id="Page-1" stroke="none" stroke-width="1" fill="none" fill-rule="evenodd">
        <g id="Desktop-HD" transform="translate(-100.000000, -78.000000)" fill-rule="nonzero">
            <g id="qa" transform="translate(100.000000, 78.000000)">
                <g id="Group">
                    <rect id="Rectangle-path" fill="#D3E6F8" x="5.9" y="6.3" width="500.3" height="217.6"></rect>
                    <rect id="Rectangle-path" fill="#A4CFF2" x="477.9" y="4.6" width="28.2" height="219.3"></rect>
                    <rect id="Rectangle-path" fill="#FFFFFF" x="57.2" y="48.4" width="99.6" height="61.4"></rect>
                    <rect id="Rectangle-path" fill="#FFFFFF" x="352.4" y="48.4" width="99.6" height="61.4"></rect>
                    <g transform="translate(51.000000, 141.000000)" fill="#FD919E" id="Oval">
                        <circle transform="translate(22.359080, 21.978260) rotate(-80.781636) translate(-22.359080, -21.978260) " cx="22.35908" cy="21.97826" r="18.8002862"></circle>
                        <circle transform="translate(92.372280, 21.991460) rotate(-80.781636) translate(-92.372280, -21.991460) " cx="92.37228" cy="21.99146" r="18.8002862"></circle>
                    </g>
                    <g transform="translate(347.000000, 141.000000)" fill="#FD919E" id="Oval">
                        <circle transform="translate(21.616620, 22.035940) rotate(-80.781636) translate(-21.616620, -22.035940) " cx="21.61662" cy="22.03594" r="18.8002862"></circle>
                        <circle transform="translate(91.629820, 22.049140) rotate(-80.781636) translate(-91.629820, -22.049140) " cx="91.62982" cy="22.04914" r="18.8002862"></circle>
                    </g>
                    <rect id="Rectangle-path" fill="#7BABF1" x="219.3" y="68.1" width="73.3" height="22"></rect>
                    <rect id="Rectangle-path" fill="#7BABF1" x="5.9" y="221.9" width="500.3" height="32.1"></rect>
                    <path d="M506.1,229.7 L5.9,229.7 C2.7,229.7 0,227.1 0,223.8 L0,6.3 C0,3.1 2.6,0.4 5.9,0.4 L506.2,0.4 C509.4,0.4 512.1,3 512.1,6.3 L512.1,223.9 C512,227.1 509.4,229.7 506.1,229.7 Z M11.7,218 L500.2,218 L500.2,12.2 L11.7,12.2 L11.7,218 Z" id="Shape" fill="#4C4372"></path>
                    <g transform="translate(48.000000, 138.000000)" fill="#4C4372" id="Shape">
                        <path d="M25.4,49.7 C11.8,49.7 0.8,38.6 0.8,25.1 C0.8,11.5 11.9,0.5 25.4,0.5 C38.9,0.5 50,11.4 50,25 C50,38.6 39,49.7 25.4,49.7 Z M25.4,12.1 C18.3,12.1 12.5,17.9 12.5,25 C12.5,32.1 18.3,37.9 25.4,37.9 C32.5,37.9 38.3,32.1 38.3,25 C38.3,17.9 32.5,12.1 25.4,12.1 Z"></path>
                        <path d="M95.4,49.7 C81.8,49.7 70.8,38.6 70.8,25.1 C70.8,11.5 81.9,0.5 95.4,0.5 C109,0.5 120,11.6 120,25.1 C120,38.6 109,49.7 95.4,49.7 Z M95.4,12.1 C88.3,12.1 82.5,17.9 82.5,25 C82.5,32.1 88.3,37.9 95.4,37.9 C102.5,37.9 108.3,32.1 108.3,25 C108.3,17.9 102.5,12.1 95.4,12.1 Z"></path>
                    </g>
                    <g transform="translate(344.000000, 138.000000)" fill="#4C4372" id="Shape">
                        <path d="M24.6,49.7 C11,49.7 0,38.6 0,25.1 C0,11.5 11.1,0.5 24.6,0.5 C38.2,0.5 49.2,11.6 49.2,25.1 C49.3,38.6 38.2,49.7 24.6,49.7 Z M24.6,12.1 C17.5,12.1 11.7,17.9 11.7,25 C11.7,32.1 17.5,37.9 24.6,37.9 C31.7,37.9 37.5,32.1 37.5,25 C37.5,17.9 31.7,12.1 24.6,12.1 Z"></path>
                        <path d="M94.6,49.7 C81,49.7 70,38.6 70,25.1 C70,11.5 81.1,0.5 94.6,0.5 C108.1,0.5 119.2,11.6 119.2,25.1 C119.3,38.6 108.2,49.7 94.6,49.7 Z M94.6,12.1 C87.5,12.1 81.7,17.9 81.7,25 C81.7,32.1 87.5,37.9 94.6,37.9 C101.7,37.9 107.5,32.1 107.5,25 C107.6,17.9 101.8,12.1 94.6,12.1 Z"></path>
                    </g>
                    <path d="M292.7,95.9 L219.4,95.9 C216.2,95.9 213.5,93.3 213.5,90 L213.5,68 C213.5,64.8 216.1,62.1 219.4,62.1 L292.7,62.1 C295.9,62.1 298.6,64.7 298.6,68 L298.6,90 C298.5,93.3 295.9,95.9 292.7,95.9 Z M225.2,84.2 L286.8,84.2 L286.8,73.9 L225.2,73.9 L225.2,84.2 Z" id="Shape" fill="#4C4372"></path>
                    <g transform="translate(207.000000, 152.000000)" fill="#4C4372" id="Oval">
                        <circle cx="11.2" cy="11" r="10.9"></circle>
                        <circle cx="49" cy="11" r="10.9"></circle>
                        <circle cx="86.8" cy="11" r="10.9"></circle>
                    </g>
                    <path d="M107,115.6 C105.5,115.6 104,115 102.9,113.9 L68.4,79.4 C66.1,77.1 66.1,73.4 68.4,71.1 C70.7,68.8 74.4,68.8 76.7,71.1 L111.2,105.6 C113.5,107.9 113.5,111.6 111.2,113.9 C110,115.1 108.5,115.6 107,115.6 Z" id="Shape" fill="#4C4372"></path>
                    <path d="M402.2,115.6 C400.7,115.6 399.2,115 398.1,113.9 L364.1,79.9 C361.8,77.6 361.8,73.9 364.1,71.6 C366.4,69.3 370.1,69.3 372.4,71.6 L406.4,105.6 C408.7,107.9 408.7,111.6 406.4,113.9 C405.2,115.1 403.7,115.6 402.2,115.6 Z" id="Shape" fill="#4C4372"></path>
                    <path d="M506.1,257.6 L5.9,257.6 C2.7,257.6 0,255 0,251.7 L0,223.9 C0,220.7 2.6,218 5.9,218 C9.2,218 11.8,220.6 11.8,223.9 L11.8,245.9 L500.3,245.9 L500.3,223.9 C500.3,220.7 502.9,218 506.2,218 C509.4,218 512.1,220.6 512.1,223.9 L512.1,251.7 C512,254.9 509.4,257.6 506.1,257.6 Z" id="Shape" fill="#4C4372"></path>
                    <rect id="Rectangle-path" fill="#D3E6F8" x="129.3" y="47.7" width="28.2" height="62.7"></rect>
                    <rect id="Rectangle-path" fill="#D3E6F8" x="424.5" y="47.7" width="28.2" height="62.7"></rect>
                    <path d="M156.7,115.6 L57.2,115.6 C54,115.6 51.3,113 51.3,109.7 L51.3,48.3 C51.3,45.1 53.9,42.4 57.2,42.4 L156.8,42.4 C160,42.4 162.7,45 162.7,48.3 L162.7,109.7 C162.6,113 160,115.6 156.7,115.6 Z M63,103.9 L150.8,103.9 L150.8,54.2 L63,54.2 L63,103.9 Z" id="Shape" fill="#4C4372"></path>
                    <path d="M452,115.6 L352.4,115.6 C349.2,115.6 346.5,113 346.5,109.7 L346.5,48.3 C346.5,45.1 349.1,42.4 352.4,42.4 L452,42.4 C455.2,42.4 457.9,45 457.9,48.3 L457.9,109.7 C457.9,113 455.2,115.6 452,115.6 Z M358.3,103.9 L446.1,103.9 L446.1,54.2 L358.3,54.2 L358.3,103.9 Z" id="Shape" fill="#4C4372"></path>
                </g>
            </g>
        </g>
    </g>
</svg>