<?xml version="1.0" encoding="UTF-8"?>
<svg width="512px" height="278px" viewBox="0 0 512 278" version="1.1" xmlns="http://www.w3.org/2000/svg" xmlns:xlink="http://www.w3.org/1999/xlink">
    <!-- Generator: Sketch 49.3 (51167) - http://www.bohemiancoding.com/sketch -->
    <title>remote</title>
    <desc>Created with Sketch.</desc>
    <defs></defs>
    <g id="Page-1" stroke="none" stroke-width="1" fill="none" fill-rule="evenodd">
        <g id="Desktop-HD-Copy" transform="translate(-588.000000, -692.000000)" fill-rule="nonzero">
            <g id="remote" transform="translate(588.000000, 692.000000)">
                <g id="Group">
                    <rect id="Rectangle-path" fill="#FFFFFF" x="28.8" y="6.1" width="477.3" height="265.9"></rect>
                    <rect id="Rectangle-path" fill="#D3E6F8" x="477.6" y="6.6" width="28.5" height="265.4"></rect>
                    <g transform="translate(302.000000, 68.000000)">
                        <path d="M102.5,0.9 C46.4,0.9 0.9,46.4 0.9,102.5 L0.9,204 L102.5,204 C158.6,204 204.1,158.5 204.1,102.4 C204.1,46.3 158.7,0.9 102.5,0.9 Z" id="Shape" fill="#E8677D"></path>
                        <circle id="Oval" fill="#A4CFF2" cx="102.5" cy="102.5" r="58.8"></circle>
                        <circle id="Oval" fill="#A4CFF2" cx="102.5" cy="102.5" r="24.2"></circle>
                    </g>
                    <circle id="Oval" fill="#FD919E" cx="404.5" cy="170.5" r="58.8"></circle>
                    <polyline id="Shape" fill="#D3E6F8" points="302.9 201.9 161.4 201.9 161.4 272 302.9 272"></polyline>
                    <rect id="Rectangle-path" fill="#D3E6F8" x="239" y="6.4" width="28.5" height="132.7"></rect>
                    <rect id="Rectangle-path" fill="#A4CFF2" transform="translate(232.161600, 258.425400) rotate(-90.000000) translate(-232.161600, -258.425400) " x="217.9116" y="187.6254" width="28.5" height="141.6"></rect>
                    <rect id="Rectangle-path" fill="#D3E6F8" x="99.2" y="139.1" width="28.5" height="58"></rect>
                    <path d="M506.1,277.9 L28.8,277.9 C25.6,277.9 22.9,275.3 22.9,272 L22.9,6.1 C22.9,2.9 25.5,0.2 28.8,0.2 L506.1,0.2 C509.3,0.2 512,2.8 512,6.1 L512,272 C512,275.3 509.4,277.9 506.1,277.9 Z M34.7,266.2 L500.3,266.2 L500.3,12 L34.7,12 L34.7,266.2 Z" id="Shape" fill="#4C4372"></path>
                    <rect id="Rectangle-path" fill="#7BABF1" x="5.9" y="38" width="45.9" height="67.1"></rect>
                    <rect id="Rectangle-path" fill="#7BABF1" x="5.9" y="173.1" width="45.9" height="67.1"></rect>
                    <path d="M127.7,202.9 C124.5,202.9 121.8,200.3 121.8,197 L121.8,144.9 L30.2,144.9 C27,144.9 24.3,142.3 24.3,139 C24.3,135.7 26.9,133.1 30.2,133.1 L127.7,133.1 C130.9,133.1 133.6,135.7 133.6,139 L133.6,197 C133.6,200.3 131,202.9 127.7,202.9 Z" id="Shape" fill="#4C4372"></path>
                    <path d="M404.5,277.9 L302.9,277.9 C299.7,277.9 297,275.3 297,272 L297,170.5 C297,111.2 345.2,63 404.5,63 C463.8,63 512,111.2 512,170.5 C512,229.7 463.8,277.9 404.5,277.9 Z M308.8,266.2 L404.5,266.2 C457.3,266.2 500.2,223.3 500.2,170.5 C500.2,117.7 457.3,74.8 404.5,74.8 C351.7,74.8 308.8,117.7 308.8,170.5 L308.8,266.2 Z" id="Shape" fill="#4C4372"></path>
                    <path d="M404.5,235.1 C368.9,235.1 339.9,206.1 339.9,170.5 C339.9,134.9 368.9,105.9 404.5,105.9 C440.1,105.9 469.1,134.9 469.1,170.5 C469.1,206.1 440.2,235.1 404.5,235.1 Z M404.5,117.6 C375.3,117.6 351.6,141.3 351.6,170.5 C351.6,199.7 375.3,223.4 404.5,223.4 C433.7,223.4 457.4,199.7 457.4,170.5 C457.4,141.3 433.7,117.6 404.5,117.6 Z" id="Shape" fill="#4C4372"></path>
                    <circle id="Oval" fill="#FD919E" cx="404.5" cy="170.5" r="24.2"></circle>
                    <path d="M302.9,277.9 L161.4,277.9 C158.2,277.9 155.5,275.3 155.5,272 L155.5,201.9 C155.5,198.7 158.1,196 161.4,196 L303,196 C306.2,196 308.9,198.6 308.9,201.9 C308.9,205.1 306.3,207.8 303,207.8 L167.3,207.8 L167.3,266.2 L303,266.2 C306.2,266.2 308.9,268.8 308.9,272.1 C308.9,275.4 306.2,277.9 302.9,277.9 Z" id="Shape" fill="#4C4372"></path>
                    <path d="M51.8,111 L5.9,111 C2.7,111 0,108.4 0,105.1 L0,38 C0,34.8 2.6,32.1 5.9,32.1 L51.8,32.1 C55,32.1 57.7,34.7 57.7,38 L57.7,105.1 C57.7,108.3 55.1,111 51.8,111 Z M11.7,99.2 L45.9,99.2 L45.9,43.8 L11.7,43.8 L11.7,99.2 Z" id="Shape" fill="#4C4372"></path>
                    <path d="M51.8,246 L5.9,246 C2.7,246 0,243.4 0,240.1 L0,173 C0,169.8 2.6,167.1 5.9,167.1 L51.8,167.1 C55,167.1 57.7,169.7 57.7,173 L57.7,240.1 C57.7,243.4 55.1,246 51.8,246 Z M11.7,234.3 L45.9,234.3 L45.9,178.9 L11.7,178.9 L11.7,234.3 Z" id="Shape" fill="#4C4372"></path>
                    <path d="M195.8,277.9 C192.6,277.9 189.9,275.3 189.9,272 L189.9,246.1 C189.9,242.9 192.5,240.2 195.8,240.2 C199,240.2 201.7,242.8 201.7,246.1 L201.7,272 C201.7,275.3 199.1,277.9 195.8,277.9 Z" id="Shape" fill="#4C4372"></path>
                    <path d="M232.2,277.9 C229,277.9 226.3,275.3 226.3,272 L226.3,246.1 C226.3,242.9 228.9,240.2 232.2,240.2 C235.4,240.2 238.1,242.8 238.1,246.1 L238.1,272 C238,275.3 235.4,277.9 232.2,277.9 Z" id="Shape" fill="#4C4372"></path>
                    <path d="M268.5,277.9 C265.3,277.9 262.6,275.3 262.6,272 L262.6,246.1 C262.6,242.9 265.2,240.2 268.5,240.2 C271.7,240.2 274.4,242.8 274.4,246.1 L274.4,272 C274.4,275.3 271.7,277.9 268.5,277.9 Z" id="Shape" fill="#4C4372"></path>
                    <path d="M268.5,144.9 L161.4,144.9 C158.2,144.9 155.5,142.3 155.5,139 C155.5,135.7 158.1,133.1 161.4,133.1 L262.6,133.1 L262.6,6 C262.6,2.8 265.2,0.1 268.5,0.1 C271.7,0.1 274.4,2.7 274.4,6 L274.4,139.1 C274.4,142.3 271.7,144.9 268.5,144.9 Z" id="Shape" fill="#4C4372"></path>
                    <path d="M404.5,200.5 C387.9,200.5 374.5,187 374.5,170.5 C374.5,153.9 388,140.5 404.5,140.5 C421.1,140.5 434.5,154 434.5,170.5 C434.6,187 421.1,200.5 404.5,200.5 Z M404.5,152.1 C394.4,152.1 386.2,160.3 386.2,170.4 C386.2,180.5 394.4,188.7 404.5,188.7 C414.6,188.7 422.8,180.5 422.8,170.4 C422.9,160.4 414.6,152.1 404.5,152.1 Z" id="Shape" fill="#4C4372"></path>
                </g>
            </g>
        </g>
    </g>
</svg>