<?xml version="1.0" encoding="UTF-8"?>
<svg width="512px" height="428px" viewBox="0 0 512 428" version="1.1" xmlns="http://www.w3.org/2000/svg" xmlns:xlink="http://www.w3.org/1999/xlink">
    <!-- Generator: Sketch 49.3 (51167) - http://www.bohemiancoding.com/sketch -->
    <title>tech</title>
    <desc>Created with Sketch.</desc>
    <defs></defs>
    <g id="Page-1" stroke="none" stroke-width="1" fill="none" fill-rule="evenodd">
        <g id="Desktop-HD-Copy" transform="translate(-683.000000, -227.000000)" fill-rule="nonzero">
            <g id="tech" transform="translate(683.000000, 227.000000)">
                <g id="Group">
                    <rect id="Rectangle-path" fill="#FD919E" x="207.8" y="302.3" width="96.4" height="76.2"></rect>
                    <rect id="Rectangle-path" fill="#E8677D" x="268.1" y="304" width="36" height="68.6"></rect>
                    <rect id="Rectangle-path" fill="#E8677D" x="165.7" y="378.5" width="180.5" height="43.5"></rect>
                    <path d="M477.5,302.3 L34.5,302.3 C18.7,302.3 5.9,289.5 5.9,273.7 L5.9,34.6 C5.9,18.8 18.7,6 34.5,6 L477.5,6 C493.3,6 506.1,18.8 506.1,34.6 L506.1,273.7 C506.1,289.5 493.3,302.3 477.5,302.3 Z" id="Shape" fill="#D3E6F8"></path>
                    <path d="M472.2,302.3 L467.1,302.3 L467.1,9 L472.2,9 C489.2,9 503.1,22.8 503.1,39.9 L503.1,271.5 C503,288.5 489.2,302.3 472.2,302.3 Z" id="Shape" fill="#A4CFF2"></path>
                    <rect id="Rectangle-path" fill="#FFFFFF" x="39.2" y="43.8" width="433.5" height="220.6"></rect>
                    <rect id="Rectangle-path" fill="#D3E6F8" x="434" y="45.3" width="36" height="219.2"></rect>
                    <path d="M477.5,308.2 L34.5,308.2 C15.5,308.2 0,292.7 0,273.7 L0,34.6 C0,15.6 15.5,0.1 34.5,0.1 L477.5,0.1 C496.5,0.1 512,15.6 512,34.6 L512,273.7 C512,292.7 496.5,308.2 477.5,308.2 Z M34.5,11.8 C22,11.8 11.7,22 11.7,34.6 L11.7,273.7 C11.7,286.2 21.9,296.5 34.5,296.5 L477.5,296.5 C490,296.5 500.3,286.3 500.3,273.7 L500.3,34.6 C500.3,22.1 490.1,11.8 477.5,11.8 L34.5,11.8 Z" id="Shape" fill="#4C4372"></path>
                    <path d="M472.8,270.3 L39.2,270.3 C36,270.3 33.3,267.7 33.3,264.4 L33.3,43.8 C33.3,40.6 35.9,37.9 39.2,37.9 L472.7,37.9 C475.9,37.9 478.6,40.5 478.6,43.8 L478.6,264.4 C478.6,267.7 476,270.3 472.8,270.3 Z M45.1,258.6 L466.9,258.6 L466.9,49.7 L45.1,49.7 L45.1,258.6 Z" id="Shape" fill="#4C4372"></path>
                    <path d="M304.2,384.3 L207.8,384.3 C204.6,384.3 201.9,381.7 201.9,378.4 L201.9,302.2 C201.9,299 204.5,296.3 207.8,296.3 L304.2,296.3 C307.4,296.3 310.1,298.9 310.1,302.2 L310.1,378.4 C310,381.7 307.4,384.3 304.2,384.3 Z M213.7,372.6 L298.3,372.6 L298.3,308.2 L213.7,308.2 L213.7,372.6 Z" id="Shape" fill="#4C4372"></path>
                    <path d="M346.3,427.9 L165.7,427.9 C162.5,427.9 159.8,425.3 159.8,422 L159.8,378.5 C159.8,375.3 162.4,372.6 165.7,372.6 L346.2,372.6 C349.4,372.6 352.1,375.2 352.1,378.5 L352.1,422 C352.1,425.3 349.5,427.9 346.3,427.9 Z M171.6,416.2 L340.4,416.2 L340.4,384.4 L171.6,384.4 L171.6,416.2 Z" id="Shape" fill="#4C4372"></path>
                    <path d="M230,106.2 C230.1,96.7 232.5,88.2 237,81.6 C241.3,75 248,70.2 256.1,70.2 C264,70.2 270.8,75 275.1,81.6 C279.5,88.2 282,96.7 282,106.2 C282,115.5 279.5,124.2 275.1,130.8 C270.8,137.3 264,142.2 256.1,142.2 C248,142.2 241.3,137.3 237,130.8 C232.5,124.1 230.1,115.5 230,106.2 Z M270.6,106.2 C270.6,98.8 268.5,92.3 265.7,87.9 C262.7,83.6 259.3,81.5 256.1,81.6 C252.9,81.5 249.4,83.6 246.3,87.9 C243.4,92.3 241.4,98.8 241.4,106.2 C241.4,113.5 243.5,120.1 246.3,124.4 C249.4,128.8 252.9,130.8 256.1,130.8 C259.3,130.8 262.7,128.8 265.7,124.4 C268.5,120 270.6,113.4 270.6,106.2 Z" id="Shape" fill="#4C4372"></path>
                    <path d="M268.1,165.4 L268.1,226 C268.1,229.2 265.4,231.7 262.3,231.7 C259.1,231.7 256.6,229.2 256.6,226 L256.6,175.5 L252.5,177.9 C251.6,178.5 250.5,178.7 249.6,178.7 C247.6,178.7 245.8,177.7 244.8,175.8 C243.1,173.2 244,169.6 246.6,168.1 L259.2,160.6 C259.3,160.5 259.5,160.5 259.6,160.4 C259.8,160.4 259.9,160.2 260.1,160.1 C260.3,160.1 260.5,160 260.7,160 C260.8,159.9 261,159.9 261.1,159.9 C261.3,159.8 261.6,159.8 261.8,159.8 C261.9,159.8 262,159.8 262.1,159.8 L262.2,159.8 C262.5,159.8 262.7,159.8 262.9,159.8 C263,159.9 263.2,159.9 263.3,159.9 C263.6,159.9 263.7,160 263.9,160.1 C264,160.1 264.2,160.1 264.3,160.2 C264.6,160.4 264.7,160.5 264.9,160.5 C265,160.6 265.1,160.7 265.3,160.8 C265.4,160.9 265.6,161 265.7,161.1 C265.9,161.2 266,161.4 266.1,161.5 C266.2,161.6 266.3,161.7 266.4,161.9 C266.5,162 266.7,162.2 266.8,162.3 L266.9,162.5 C266.9,162.6 267,162.7 267,162.8 C267.1,163 267.2,163.1 267.2,163.3 C267.3,163.5 267.3,163.7 267.4,163.8 C267.4,164 267.5,164.2 267.5,164.3 C267.5,164.6 267.5,164.8 267.7,165 C268.1,165.2 268.1,165.3 268.1,165.4 Z" id="Shape" fill="#4C4372"></path>
                    <g transform="translate(131.000000, 70.000000)" fill="#4C4372" id="Shape">
                        <path d="M38.9,5.8 L38.9,66.4 C38.9,69.6 36.2,72.1 33.1,72.1 C29.9,72.1 27.4,69.6 27.4,66.4 L27.4,15.9 L23.3,18.3 C22.4,18.9 21.3,19.1 20.4,19.1 C18.4,19.1 16.6,18.1 15.6,16.2 C13.9,13.6 14.8,10 17.4,8.5 L30,1 C30.1,0.9 30.3,0.9 30.4,0.8 C30.6,0.8 30.7,0.6 30.9,0.5 C31.1,0.5 31.3,0.4 31.5,0.4 C31.6,0.3 31.8,0.3 31.9,0.3 C32.1,0.2 32.4,0.2 32.6,0.2 C32.7,0.2 32.8,0.2 32.9,0.2 L33,0.2 C33.3,0.2 33.5,0.2 33.7,0.2 C33.8,0.3 34,0.3 34.1,0.3 C34.4,0.3 34.5,0.4 34.7,0.5 C34.8,0.5 35,0.5 35.1,0.6 C35.4,0.8 35.5,0.9 35.7,0.9 C35.8,1 35.9,1.1 36.1,1.2 C36.2,1.3 36.4,1.4 36.5,1.5 C36.7,1.6 36.8,1.8 36.9,1.9 C37,2 37.1,2.1 37.2,2.3 C37.3,2.4 37.5,2.6 37.6,2.7 L37.7,2.9 C37.7,3 37.8,3.1 37.8,3.2 C37.9,3.4 38,3.5 38,3.7 C38.1,3.9 38.1,4.1 38.2,4.2 C38.2,4.4 38.3,4.6 38.3,4.7 C38.3,5 38.3,5.2 38.5,5.4 C38.9,5.6 38.9,5.7 38.9,5.8 Z"></path>
                        <path d="M235.2,5.8 L235.2,66.4 C235.2,69.6 232.5,72.1 229.4,72.1 C226.2,72.1 223.8,69.6 223.8,66.4 L223.8,15.9 L219.7,18.3 C218.8,18.9 217.7,19.1 216.8,19.1 C214.8,19.1 213,18.1 212,16.2 C210.3,13.6 211.2,10 213.8,8.5 L226.4,1 C226.5,0.9 226.7,0.9 226.8,0.8 C227,0.8 227.1,0.6 227.3,0.5 C227.5,0.5 227.7,0.4 227.9,0.4 C228,0.3 228.2,0.3 228.3,0.3 C228.5,0.2 228.8,0.2 229,0.2 C229.1,0.2 229.2,0.2 229.3,0.2 L229.4,0.2 C229.7,0.2 229.9,0.2 230.1,0.2 C230.2,0.3 230.4,0.3 230.5,0.3 C230.8,0.3 230.9,0.4 231.1,0.5 C231.2,0.5 231.4,0.5 231.5,0.6 C231.8,0.8 231.9,0.9 232.1,0.9 C232.2,1 232.3,1.1 232.5,1.2 C232.6,1.3 232.8,1.4 232.9,1.5 C233.1,1.6 233.2,1.8 233.3,1.9 C233.4,2 233.5,2.1 233.6,2.3 C233.7,2.4 233.9,2.6 234,2.7 L234.1,2.9 C234.1,3 234.2,3.1 234.2,3.2 C234.3,3.4 234.4,3.5 234.4,3.7 C234.5,3.9 234.5,4.1 234.6,4.2 C234.6,4.4 234.7,4.6 234.7,4.7 C234.7,5 234.7,5.2 234.9,5.4 C235.2,5.6 235.2,5.7 235.2,5.8 Z"></path>
                        <path d="M0.9,125.7 C1,116.2 3.4,107.7 7.9,101.1 C12.2,94.5 18.9,89.7 27,89.7 C34.9,89.7 41.7,94.5 46,101.1 C50.4,107.7 52.9,116.2 52.9,125.7 C52.9,135 50.4,143.7 46,150.3 C41.7,156.8 34.9,161.7 27,161.7 C18.9,161.7 12.2,156.8 7.9,150.3 C3.4,143.7 1,135.1 0.9,125.7 Z M41.5,125.7 C41.5,118.3 39.4,111.8 36.6,107.4 C33.6,103.1 30.2,101 27,101.1 C23.8,101 20.3,103.1 17.2,107.4 C14.3,111.8 12.3,118.3 12.3,125.7 C12.3,133 14.4,139.6 17.2,143.9 C20.3,148.3 23.8,150.3 27,150.3 C30.2,150.3 33.6,148.3 36.6,143.9 C39.4,139.6 41.5,133 41.5,125.7 Z"></path>
                        <path d="M197.1,125.7 C197.2,116.2 199.6,107.7 204.1,101.1 C208.4,94.5 215.1,89.7 223.2,89.7 C231.1,89.7 237.9,94.5 242.2,101.1 C246.6,107.7 249.1,116.2 249.1,125.7 C249.1,135 246.6,143.7 242.2,150.3 C237.9,156.8 231.1,161.7 223.2,161.7 C215.1,161.7 208.4,156.8 204.1,150.3 C199.6,143.7 197.2,135.1 197.1,125.7 Z M237.7,125.7 C237.7,118.3 235.6,111.8 232.8,107.4 C229.8,103.1 226.4,101 223.2,101.1 C220,101 216.5,103.1 213.4,107.4 C210.5,111.8 208.5,118.3 208.5,125.7 C208.5,133 210.6,139.6 213.4,143.9 C216.5,148.3 220,150.3 223.2,150.3 C226.4,150.3 229.8,148.3 232.8,143.9 C235.7,139.6 237.7,133 237.7,125.7 Z"></path>
                    </g>
                </g>
            </g>
        </g>
    </g>
</svg>