<?xml version="1.0" encoding="utf-8"?>
<!-- Generator: Adobe Illustrator 22.0.1, SVG Export Plug-In . SVG Version: 6.00 Build 0)  -->
<svg version="1.1" id="Icon_Set" xmlns="http://www.w3.org/2000/svg" xmlns:xlink="http://www.w3.org/1999/xlink" x="0px" y="0px"
	 viewBox="0 0 512 512" style="enable-background:new 0 0 512 512;" xml:space="preserve">
<style type="text/css">
	.st0{fill:#FFFFFF;}
	.st1{fill:#F0C48A;}
	.st2{fill:#FD919E;}
	.st3{fill:#E8677D;}
	.st4{fill:#4C4372;}
	.st5{fill:#D3E6F8;}
	.st6{fill:#A4CFF2;}
	.st7{fill:#7BABF1;}
	.st8{fill:none;stroke:#4C4372;stroke-width:12;stroke-linecap:round;stroke-linejoin:round;stroke-miterlimit:10;}
</style>
<g id="Saw_Blade">
	<g>
		<circle class="st1" cx="256" cy="256" r="207"/>
		<g>
			<g>
				<path class="st6" d="M458.6,256l47.5-39.6l-57.4-23l33-52.4l-61.7-4.1l15.2-60l-60,15.2L371,30.3l-52.4,33l-23-57.4L256,53.4
					L216.4,5.9l-23,57.4l-52.4-33l-4.1,61.7l-60-15.2l15.2,60L30.3,141l33,52.4l-57.4,23L53.4,256L5.9,295.6l57.4,23l-33,52.4
					l61.7,4.1l-15.2,60l60-15.2l4.1,61.7l52.4-33l23,57.4l39.6-47.5l39.6,47.5l23-57.4l52.4,33l4.1-61.7l60,15.2l-15.2-60l61.7-4.1
					l-33-52.4l57.4-23L458.6,256z M256,317.4c-33.9,0-61.4-27.5-61.4-61.4s27.5-61.4,61.4-61.4s61.4,27.5,61.4,61.4
					S289.9,317.4,256,317.4z"/>
			</g>
			<g>
				<path class="st5" d="M256,86.4c-93.7,0-169.6,75.9-169.6,169.6S162.3,425.6,256,425.6S425.6,349.7,425.6,256
					S349.7,86.4,256,86.4z M256,317.4c-33.9,0-61.4-27.5-61.4-61.4s27.5-61.4,61.4-61.4s61.4,27.5,61.4,61.4S289.9,317.4,256,317.4z
					"/>
			</g>
			<g>
				<path class="st2" d="M256,133.3c-67.8,0-122.7,54.9-122.7,122.7S188.2,378.7,256,378.7S378.7,323.8,378.7,256
					S323.8,133.3,256,133.3z M256,317.4c-33.9,0-61.4-27.5-61.4-61.4s27.5-61.4,61.4-61.4s61.4,27.5,61.4,61.4
					S289.9,317.4,256,317.4z"/>
			</g>
			<g>
				<path class="st3" d="M256,169.1c-48,0-86.9,38.9-86.9,86.9s38.9,86.9,86.9,86.9s86.9-38.9,86.9-86.9S304,169.1,256,169.1z
					 M256,317.4c-33.9,0-61.4-27.5-61.4-61.4s27.5-61.4,61.4-61.4s61.4,27.5,61.4,61.4S289.9,317.4,256,317.4z"/>
			</g>
			<g>
				<path class="st4" d="M295.6,512c-1.7,0-3.4-0.8-4.5-2.1L256,467.8l-35.1,42.1c-1.3,1.6-3.4,2.4-5.4,2c-2-0.3-3.8-1.7-4.5-3.6
					l-20.4-50.9l-46.4,29.2c-1.7,1.1-3.9,1.2-5.8,0.3c-1.8-0.9-3.1-2.8-3.2-4.8l-3.6-54.7l-53.2,13.4c-2,0.5-4.1-0.1-5.6-1.5
					c-1.5-1.5-2-3.6-1.5-5.6l13.4-53.2L30,376.8c-2.1-0.1-3.9-1.3-4.8-3.2c-0.9-1.8-0.8-4,0.3-5.8l29.2-46.4L3.7,301.1
					c-1.9-0.8-3.3-2.5-3.6-4.5c-0.3-2,0.5-4.1,2-5.4L44.2,256L2.1,220.9c-1.6-1.3-2.4-3.4-2-5.4c0.3-2,1.7-3.8,3.6-4.5l50.9-20.4
					l-29.2-46.4c-1.1-1.7-1.2-3.9-0.3-5.8c0.9-1.8,2.8-3.1,4.8-3.2l54.7-3.6L71.2,78.4c-0.5-2,0.1-4.1,1.5-5.6
					c1.5-1.5,3.6-2,5.6-1.5l53.2,13.4l3.6-54.7c0.1-2.1,1.3-3.9,3.2-4.8c1.8-0.9,4-0.8,5.8,0.3l46.4,29.2l20.4-50.9
					c0.8-1.9,2.5-3.3,4.5-3.6c2-0.3,4.1,0.5,5.4,2L256,44.2l35.1-42.1c1.3-1.6,3.4-2.4,5.4-2c2,0.3,3.8,1.7,4.5,3.6l20.4,50.9
					l46.4-29.2c1.7-1.1,3.9-1.2,5.8-0.3c1.8,0.9,3.1,2.8,3.2,4.8l3.6,54.7l53.2-13.4c2-0.5,4.1,0.1,5.6,1.5c1.5,1.5,2,3.6,1.5,5.6
					l-13.4,53.2l54.7,3.6c2.1,0.1,3.9,1.3,4.8,3.2c0.9,1.8,0.8,4-0.3,5.8l-29.2,46.4l50.9,20.4c1.9,0.8,3.3,2.5,3.6,4.5
					c0.3,2-0.5,4.1-2,5.4L467.8,256l42.1,35.1c1.6,1.3,2.4,3.4,2,5.4c-0.3,2-1.7,3.8-3.6,4.5l-50.9,20.4l29.2,46.4
					c1.1,1.7,1.2,3.9,0.3,5.8c-0.9,1.8-2.8,3.1-4.8,3.2l-54.7,3.6l13.4,53.2c0.5,2-0.1,4.1-1.5,5.6c-1.5,1.5-3.6,2-5.6,1.5
					l-53.2-13.4l-3.6,54.7c-0.1,2.1-1.3,3.9-3.2,4.8c-1.8,0.9-4,0.8-5.8-0.3l-46.4-29.2l-20.4,50.9c-0.8,1.9-2.5,3.3-4.5,3.6
					C296.2,512,295.9,512,295.6,512z M256,452.7c1.7,0,3.4,0.8,4.5,2.1l33.3,40l19.3-48.3c0.6-1.6,2-2.9,3.6-3.4
					c1.7-0.5,3.5-0.3,4.9,0.6l44,27.7l3.5-51.9c0.1-1.7,1-3.3,2.4-4.4c1.4-1,3.2-1.4,4.9-0.9L427,427l-12.8-50.5
					c-0.4-1.7-0.1-3.5,0.9-4.9c1-1.4,2.6-2.3,4.4-2.4l51.9-3.5l-27.7-44c-0.9-1.5-1.2-3.3-0.6-4.9c0.5-1.7,1.8-3,3.4-3.6l48.3-19.3
					l-40-33.3c-1.3-1.1-2.1-2.8-2.1-4.5c0-1.7,0.8-3.4,2.1-4.5l40-33.3l-48.3-19.3c-1.6-0.6-2.9-2-3.4-3.6c-0.5-1.7-0.3-3.5,0.6-4.9
					l27.7-44l-51.9-3.5c-1.7-0.1-3.3-1-4.4-2.4c-1-1.4-1.4-3.2-0.9-4.9L427,85l-50.5,12.8c-1.7,0.4-3.5,0.1-4.9-0.9
					c-1.4-1-2.3-2.6-2.4-4.4l-3.5-51.9l-44,27.7c-1.5,0.9-3.3,1.2-4.9,0.6c-1.7-0.5-3-1.8-3.6-3.4l-19.3-48.3l-33.3,40
					c-1.1,1.3-2.8,2.1-4.5,2.1s-3.4-0.8-4.5-2.1l-33.3-40l-19.3,48.3c-0.6,1.6-2,2.9-3.6,3.4c-1.7,0.5-3.5,0.3-4.9-0.6l-44-27.7
					l-3.5,51.9c-0.1,1.7-1,3.3-2.4,4.4c-1.4,1-3.2,1.4-4.9,0.9L85,85l12.8,50.5c0.4,1.7,0.1,3.5-0.9,4.9c-1,1.4-2.6,2.3-4.4,2.4
					l-51.9,3.5l27.7,44c0.9,1.5,1.2,3.3,0.6,4.9c-0.5,1.7-1.8,3-3.4,3.6l-48.3,19.3l40,33.3c1.3,1.1,2.1,2.8,2.1,4.5
					c0,1.7-0.8,3.4-2.1,4.5l-40,33.3l48.3,19.3c1.6,0.6,2.9,2,3.4,3.6c0.5,1.7,0.3,3.5-0.6,4.9l-27.7,44l51.9,3.5
					c1.7,0.1,3.3,1,4.4,2.4c1,1.4,1.4,3.2,0.9,4.9L85,427l50.5-12.8c1.7-0.4,3.5-0.1,4.9,0.9c1.4,1,2.3,2.6,2.4,4.4l3.5,51.9
					l44-27.7c1.5-0.9,3.3-1.2,4.9-0.6c1.7,0.5,3,1.8,3.6,3.4l19.3,48.3l33.3-40C252.6,453.5,254.3,452.7,256,452.7z"/>
			</g>
			<g>
				<path class="st4" d="M256,384.6c-70.9,0-128.6-57.7-128.6-128.6c0-70.9,57.7-128.6,128.6-128.6S384.6,185.1,384.6,256
					C384.6,326.9,326.9,384.6,256,384.6z M256,139.1c-64.4,0-116.9,52.4-116.9,116.9c0,64.4,52.4,116.9,116.9,116.9
					S372.9,320.4,372.9,256C372.9,191.6,320.4,139.1,256,139.1z"/>
			</g>
			<g>
				<path class="st4" d="M256,323.3c-37.1,0-67.3-30.2-67.3-67.3c0-37.1,30.2-67.3,67.3-67.3s67.3,30.2,67.3,67.3
					C323.3,293.1,293.1,323.3,256,323.3z M256,200.5c-30.6,0-55.5,24.9-55.5,55.5s24.9,55.5,55.5,55.5s55.5-24.9,55.5-55.5
					S286.6,200.5,256,200.5z"/>
			</g>
		</g>
	</g>
</g>
</svg>
