<?xml version="1.0" encoding="UTF-8"?>
<svg width="512px" height="512px" viewBox="0 0 512 512" version="1.1" xmlns="http://www.w3.org/2000/svg" xmlns:xlink="http://www.w3.org/1999/xlink">
    <!-- Generator: Sketch 49.3 (51167) - http://www.bohemiancoding.com/sketch -->
    <title>work</title>
    <desc>Created with Sketch.</desc>
    <defs></defs>
    <g id="Page-1" stroke="none" stroke-width="1" fill="none" fill-rule="evenodd">
        <g id="Desktop-HD-Copy" transform="translate(-183.000000, -495.000000)" fill-rule="nonzero">
            <g id="work" transform="translate(182.000000, 494.000000)">
                <circle id="Oval" fill="#F0C48A" cx="257" cy="257" r="207"></circle>
                <g id="Group">
                    <path d="M459.6,257 L507.1,217.4 L449.7,194.4 L482.7,142 L421,137.9 L436.2,77.9 L376.2,93.1 L372,31.3 L319.6,64.3 L296.6,6.9 L257,54.4 L217.4,6.9 L194.4,64.3 L142,31.3 L137.9,93 L77.9,77.8 L93.1,137.8 L31.3,142 L64.3,194.4 L6.9,217.4 L54.4,257 L6.9,296.6 L64.3,319.6 L31.3,372 L93,376.1 L77.8,436.1 L137.8,420.9 L141.9,482.6 L194.3,449.6 L217.3,507 L256.9,459.5 L296.5,507 L319.5,449.6 L371.9,482.6 L376,420.9 L436,436.1 L420.8,376.1 L482.5,372 L449.5,319.6 L506.9,296.6 L459.6,257 Z M257,318.4 C223.1,318.4 195.6,290.9 195.6,257 C195.6,223.1 223.1,195.6 257,195.6 C290.9,195.6 318.4,223.1 318.4,257 C318.4,290.9 290.9,318.4 257,318.4 Z" id="Shape" fill="#A4CFF2"></path>
                    <path d="M257,87.4 C163.3,87.4 87.4,163.3 87.4,257 C87.4,350.7 163.3,426.6 257,426.6 C350.7,426.6 426.6,350.7 426.6,257 C426.6,163.3 350.7,87.4 257,87.4 Z M257,318.4 C223.1,318.4 195.6,290.9 195.6,257 C195.6,223.1 223.1,195.6 257,195.6 C290.9,195.6 318.4,223.1 318.4,257 C318.4,290.9 290.9,318.4 257,318.4 Z" id="Shape" fill="#D3E6F8"></path>
                    <path d="M257,134.3 C189.2,134.3 134.3,189.2 134.3,257 C134.3,324.8 189.2,379.7 257,379.7 C324.8,379.7 379.7,324.8 379.7,257 C379.7,189.2 324.8,134.3 257,134.3 Z M257,318.4 C223.1,318.4 195.6,290.9 195.6,257 C195.6,223.1 223.1,195.6 257,195.6 C290.9,195.6 318.4,223.1 318.4,257 C318.4,290.9 290.9,318.4 257,318.4 Z" id="Shape" fill="#FD919E"></path>
                    <path d="M257,170.1 C209,170.1 170.1,209 170.1,257 C170.1,305 209,343.9 257,343.9 C305,343.9 343.9,305 343.9,257 C343.9,209 305,170.1 257,170.1 Z M257,318.4 C223.1,318.4 195.6,290.9 195.6,257 C195.6,223.1 223.1,195.6 257,195.6 C290.9,195.6 318.4,223.1 318.4,257 C318.4,290.9 290.9,318.4 257,318.4 Z" id="Shape" fill="#E8677D"></path>
                    <path d="M296.6,513 C294.9,513 293.2,512.2 292.1,510.9 L257,468.8 L221.9,510.9 C220.6,512.5 218.5,513.3 216.5,512.9 C214.5,512.6 212.7,511.2 212,509.3 L191.6,458.4 L145.2,487.6 C143.5,488.7 141.3,488.8 139.4,487.9 C137.6,487 136.3,485.1 136.2,483.1 L132.6,428.4 L79.4,441.8 C77.4,442.3 75.3,441.7 73.8,440.3 C72.3,438.8 71.8,436.7 72.3,434.7 L85.7,381.5 L31,377.8 C28.9,377.7 27.1,376.5 26.2,374.6 C25.3,372.8 25.4,370.6 26.5,368.8 L55.7,322.4 L4.7,302.1 C2.8,301.3 1.4,299.6 1.1,297.6 C0.8,295.6 1.6,293.5 3.1,292.2 L45.2,257 L3.1,221.9 C1.5,220.6 0.7,218.5 1.1,216.5 C1.4,214.5 2.8,212.7 4.7,212 L55.6,191.6 L26.4,145.2 C25.3,143.5 25.2,141.3 26.1,139.4 C27,137.6 28.9,136.3 30.9,136.2 L85.6,132.6 L72.2,79.4 C71.7,77.4 72.3,75.3 73.7,73.8 C75.2,72.3 77.3,71.8 79.3,72.3 L132.5,85.7 L136.1,31 C136.2,28.9 137.4,27.1 139.3,26.2 C141.1,25.3 143.3,25.4 145.1,26.5 L191.5,55.7 L211.9,4.8 C212.7,2.9 214.4,1.5 216.4,1.2 C218.4,0.9 220.5,1.7 221.8,3.2 L257,45.2 L292.1,3.1 C293.4,1.5 295.5,0.7 297.5,1.1 C299.5,1.4 301.3,2.8 302,4.7 L322.4,55.6 L368.8,26.4 C370.5,25.3 372.7,25.2 374.6,26.1 C376.4,27 377.7,28.9 377.8,30.9 L381.4,85.6 L434.6,72.2 C436.6,71.7 438.7,72.3 440.2,73.7 C441.7,75.2 442.2,77.3 441.7,79.3 L428.3,132.5 L483,136.1 C485.1,136.2 486.9,137.4 487.8,139.3 C488.7,141.1 488.6,143.3 487.5,145.1 L458.3,191.5 L509.2,211.9 C511.1,212.7 512.5,214.4 512.8,216.4 C513.1,218.4 512.3,220.5 510.8,221.8 L468.8,257 L510.9,292.1 C512.5,293.4 513.3,295.5 512.9,297.5 C512.6,299.5 511.2,301.3 509.3,302 L458.4,322.4 L487.6,368.8 C488.7,370.5 488.8,372.7 487.9,374.6 C487,376.4 485.1,377.7 483.1,377.8 L428.4,381.4 L441.8,434.6 C442.3,436.6 441.7,438.7 440.3,440.2 C438.8,441.7 436.7,442.2 434.7,441.7 L381.5,428.3 L377.9,483 C377.8,485.1 376.6,486.9 374.7,487.8 C372.9,488.7 370.7,488.6 368.9,487.5 L322.5,458.3 L302.1,509.2 C301.3,511.1 299.6,512.5 297.6,512.8 C297.2,513 296.9,513 296.6,513 Z M257,453.7 C258.7,453.7 260.4,454.5 261.5,455.8 L294.8,495.8 L314.1,447.5 C314.7,445.9 316.1,444.6 317.7,444.1 C319.4,443.6 321.2,443.8 322.6,444.7 L366.6,472.4 L370.1,420.5 C370.2,418.8 371.1,417.2 372.5,416.1 C373.9,415.1 375.7,414.7 377.4,415.2 L428,428 L415.2,377.5 C414.8,375.8 415.1,374 416.1,372.6 C417.1,371.2 418.7,370.3 420.5,370.2 L472.4,366.7 L444.7,322.7 C443.8,321.2 443.5,319.4 444.1,317.8 C444.6,316.1 445.9,314.8 447.5,314.2 L495.8,294.9 L455.8,261.6 C454.5,260.5 453.7,258.8 453.7,257.1 C453.7,255.4 454.5,253.7 455.8,252.6 L495.8,219.3 L447.5,200 C445.9,199.4 444.6,198 444.1,196.4 C443.6,194.7 443.8,192.9 444.7,191.5 L472.4,147.5 L420.5,144 C418.8,143.9 417.2,143 416.1,141.6 C415.1,140.2 414.7,138.4 415.2,136.7 L428,86 L377.5,98.8 C375.8,99.2 374,98.9 372.6,97.9 C371.2,96.9 370.3,95.3 370.2,93.5 L366.7,41.6 L322.7,69.3 C321.2,70.2 319.4,70.5 317.8,69.9 C316.1,69.4 314.8,68.1 314.2,66.5 L294.9,18.2 L261.6,58.2 C260.5,59.5 258.8,60.3 257.1,60.3 C255.4,60.3 253.7,59.5 252.6,58.2 L219.3,18.2 L200,66.5 C199.4,68.1 198,69.4 196.4,69.9 C194.7,70.4 192.9,70.2 191.5,69.3 L147.5,41.6 L144,93.5 C143.9,95.2 143,96.8 141.6,97.9 C140.2,98.9 138.4,99.3 136.7,98.8 L86,86 L98.8,136.5 C99.2,138.2 98.9,140 97.9,141.4 C96.9,142.8 95.3,143.7 93.5,143.8 L41.6,147.3 L69.3,191.3 C70.2,192.8 70.5,194.6 69.9,196.2 C69.4,197.9 68.1,199.2 66.5,199.8 L18.2,219.1 L58.2,252.4 C59.5,253.5 60.3,255.2 60.3,256.9 C60.3,258.6 59.5,260.3 58.2,261.4 L18.2,294.7 L66.5,314 C68.1,314.6 69.4,316 69.9,317.6 C70.4,319.3 70.2,321.1 69.3,322.5 L41.6,366.5 L93.5,370 C95.2,370.1 96.8,371 97.9,372.4 C98.9,373.8 99.3,375.6 98.8,377.3 L86,428 L136.5,415.2 C138.2,414.8 140,415.1 141.4,416.1 C142.8,417.1 143.7,418.7 143.8,420.5 L147.3,472.4 L191.3,444.7 C192.8,443.8 194.6,443.5 196.2,444.1 C197.9,444.6 199.2,445.9 199.8,447.5 L219.1,495.8 L252.4,455.8 C253.6,454.5 255.3,453.7 257,453.7 Z" id="Shape" fill="#4C4372"></path>
                    <path d="M257,385.6 C186.1,385.6 128.4,327.9 128.4,257 C128.4,186.1 186.1,128.4 257,128.4 C327.9,128.4 385.6,186.1 385.6,257 C385.6,327.9 327.9,385.6 257,385.6 Z M257,140.1 C192.6,140.1 140.1,192.5 140.1,257 C140.1,321.4 192.5,373.9 257,373.9 C321.5,373.9 373.9,321.4 373.9,257 C373.9,192.6 321.4,140.1 257,140.1 Z" id="Shape" fill="#4C4372"></path>
                    <path d="M257,324.3 C219.9,324.3 189.7,294.1 189.7,257 C189.7,219.9 219.9,189.7 257,189.7 C294.1,189.7 324.3,219.9 324.3,257 C324.3,294.1 294.1,324.3 257,324.3 Z M257,201.5 C226.4,201.5 201.5,226.4 201.5,257 C201.5,287.6 226.4,312.5 257,312.5 C287.6,312.5 312.5,287.6 312.5,257 C312.5,226.4 287.6,201.5 257,201.5 Z" id="Shape" fill="#4C4372"></path>
                </g>
            </g>
        </g>
    </g>
</svg>