<?xml version="1.0" encoding="utf-8"?>
<!-- Generator: Adobe Illustrator 22.0.1, SVG Export Plug-In . SVG Version: 6.00 Build 0)  -->
<svg version="1.1" id="Icon_Set" xmlns="http://www.w3.org/2000/svg" xmlns:xlink="http://www.w3.org/1999/xlink" x="0px" y="0px"
	 viewBox="0 0 512 512" style="enable-background:new 0 0 512 512;" xml:space="preserve">
<style type="text/css">
	.st0{fill:#FFFFFF;}
	.st1{fill:#F0C48A;}
	.st2{fill:#FD919E;}
	.st3{fill:#E8677D;}
	.st4{fill:#4C4372;}
	.st5{fill:#D3E6F8;}
	.st6{fill:#A4CFF2;}
	.st7{fill:#7BABF1;}
	.st8{fill:none;stroke:#4C4372;stroke-width:12;stroke-linecap:round;stroke-linejoin:round;stroke-miterlimit:10;}
</style>
<g id="Ball_Bearings">
	<g>
		<circle class="st1" cx="256" cy="256" r="207"/>
		<g>
			<g>
				<g>
					<path class="st7" d="M256,5.9C117.9,5.9,5.9,117.9,5.9,256s112,250.1,250.1,250.1s250.1-112,250.1-250.1S394.1,5.9,256,5.9z
						 M256,360.7c-57.8,0-104.7-46.9-104.7-104.7c0-57.8,46.9-104.7,104.7-104.7S360.7,198.2,360.7,256
						C360.7,313.8,313.8,360.7,256,360.7z"/>
				</g>
				<g>
					<path class="st6" d="M231.4,7.1C104.8,19.4,5.9,126.2,5.9,256s98.9,236.6,225.5,248.9C358,492.6,456.9,385.8,456.9,256
						S358,19.4,231.4,7.1z M256,360.7c-8.5,0-16.7-1-24.6-2.9c-7.9,1.9-16.1,2.9-24.6,2.9c-57.8,0-104.7-46.9-104.7-104.7
						c0-57.8,46.9-104.7,104.7-104.7c8.5,0,16.7,1,24.6,2.9c7.9-1.9,16.1-2.9,24.6-2.9c57.8,0,104.7,46.9,104.7,104.7
						C360.7,313.8,313.8,360.7,256,360.7z"/>
				</g>
				<g>
					<path class="st5" d="M256,56.1C145.6,56.1,56.1,145.6,56.1,256S145.6,455.9,256,455.9S455.9,366.4,455.9,256
						S366.4,56.1,256,56.1z M256,360.7c-57.8,0-104.7-46.9-104.7-104.7c0-57.8,46.9-104.7,104.7-104.7S360.7,198.2,360.7,256
						C360.7,313.8,313.8,360.7,256,360.7z"/>
				</g>
				<g>
					<g>
						
							<ellipse transform="matrix(0.1732 -0.9849 0.9849 0.1732 95.6897 349.4828)" class="st2" cx="256" cy="117.7" rx="33.6" ry="33.6"/>
					</g>
					<g>
						
							<ellipse transform="matrix(0.8951 -0.4458 0.4458 0.8951 -148.9034 155.4551)" class="st2" cx="256" cy="394.3" rx="33.6" ry="33.6"/>
					</g>
					<g>
						
							<ellipse transform="matrix(0.1622 -0.9868 0.9868 0.1622 77.689 603.5034)" class="st2" cx="394.3" cy="256" rx="33.6" ry="33.6"/>
					</g>
					<g>
						
							<ellipse transform="matrix(0.9209 -0.3898 0.3898 0.9209 -90.4803 66.1537)" class="st2" cx="117.7" cy="256" rx="33.6" ry="33.6"/>
					</g>
					<g>
						<circle class="st2" cx="158.2" cy="158.2" r="33.6"/>
					</g>
					<g>
						<circle class="st2" cx="353.8" cy="353.8" r="33.6"/>
					</g>
					<g>
						<circle class="st2" cx="353.8" cy="158.2" r="33.6"/>
					</g>
					<g>
						<circle class="st2" cx="158.2" cy="353.8" r="33.6"/>
					</g>
				</g>
				<g>
					<path class="st4" d="M256,512c-68.4,0-132.7-26.6-181-75C26.6,388.7,0,324.4,0,256S26.6,123.3,75,75C123.3,26.6,187.6,0,256,0
						s132.7,26.6,181,75c48.4,48.4,75,112.6,75,181s-26.6,132.7-75,181C388.7,485.4,324.4,512,256,512z M256,11.7
						c-65.2,0-126.6,25.4-172.7,71.5C37.1,129.4,11.7,190.8,11.7,256s25.4,126.6,71.5,172.7c46.1,46.1,107.5,71.5,172.7,71.5
						s126.6-25.4,172.7-71.5c46.1-46.1,71.5-107.5,71.5-172.7s-25.4-126.6-71.5-172.7C382.6,37.1,321.2,11.7,256,11.7z"/>
				</g>
				<g>
					<path class="st4" d="M256,461.7c-113.4,0-205.7-92.3-205.7-205.7S142.6,50.3,256,50.3S461.7,142.6,461.7,256
						S369.4,461.7,256,461.7z M256,62C149,62,62,149,62,256s87,194,194,194s194-87,194-194S363,62,256,62z"/>
				</g>
				<g>
					<path class="st4" d="M256,366.5c-60.9,0-110.5-49.6-110.5-110.5S195.1,145.5,256,145.5S366.5,195.1,366.5,256
						S316.9,366.5,256,366.5z M256,157.2c-54.5,0-98.8,44.3-98.8,98.8s44.3,98.8,98.8,98.8s98.8-44.3,98.8-98.8
						S310.5,157.2,256,157.2z"/>
				</g>
				<g>
					<path class="st4" d="M256,366.5c-60.9,0-110.5-49.6-110.5-110.5S195.1,145.5,256,145.5S366.5,195.1,366.5,256
						S316.9,366.5,256,366.5z M256,157.2c-54.5,0-98.8,44.3-98.8,98.8s44.3,98.8,98.8,98.8s98.8-44.3,98.8-98.8
						S310.5,157.2,256,157.2z"/>
				</g>
				<g>
					<g>
						<path class="st4" d="M256,157.2c-21.8,0-39.5-17.7-39.5-39.5c0-21.8,17.7-39.5,39.5-39.5s39.5,17.7,39.5,39.5
							C295.5,139.5,277.8,157.2,256,157.2z M256,90c-15.3,0-27.7,12.4-27.7,27.7s12.4,27.7,27.7,27.7c15.3,0,27.7-12.4,27.7-27.7
							S271.3,90,256,90z"/>
					</g>
					<g>
						<path class="st4" d="M256,433.7c-21.8,0-39.5-17.7-39.5-39.5c0-21.8,17.7-39.5,39.5-39.5s39.5,17.7,39.5,39.5
							C295.5,416,277.8,433.7,256,433.7z M256,366.5c-15.3,0-27.7,12.4-27.7,27.7c0,15.3,12.4,27.7,27.7,27.7
							c15.3,0,27.7-12.4,27.7-27.7C283.7,379,271.3,366.5,256,366.5z"/>
					</g>
					<g>
						<path class="st4" d="M394.3,295.5c-21.8,0-39.5-17.7-39.5-39.5s17.7-39.5,39.5-39.5c21.8,0,39.5,17.7,39.5,39.5
							S416,295.5,394.3,295.5z M394.3,228.3c-15.3,0-27.7,12.4-27.7,27.7s12.4,27.7,27.7,27.7c15.3,0,27.7-12.4,27.7-27.7
							S409.5,228.3,394.3,228.3z"/>
					</g>
					<g>
						<path class="st4" d="M117.7,295.5c-21.8,0-39.5-17.7-39.5-39.5s17.7-39.5,39.5-39.5c21.8,0,39.5,17.7,39.5,39.5
							S139.5,295.5,117.7,295.5z M117.7,228.3c-15.3,0-27.7,12.4-27.7,27.7s12.4,27.7,27.7,27.7s27.7-12.4,27.7-27.7
							S133,228.3,117.7,228.3z"/>
					</g>
					<g>
						<path class="st4" d="M158.2,197.7c-10.1,0-20.2-3.8-27.9-11.5c-7.5-7.5-11.6-17.4-11.6-27.9c0-10.5,4.1-20.5,11.6-27.9
							c15.4-15.4,40.4-15.4,55.8,0c15.4,15.4,15.4,40.4,0,55.8C178.5,193.8,168.3,197.7,158.2,197.7z M158.2,130.5
							c-7.1,0-14.2,2.7-19.6,8.1c-5.2,5.2-8.1,12.2-8.1,19.6c0,7.4,2.9,14.4,8.1,19.6c5.2,5.2,12.2,8.1,19.6,8.1
							c7.4,0,14.4-2.9,19.6-8.1c5.2-5.2,8.1-12.2,8.1-19.6c0-7.4-2.9-14.4-8.1-19.6C172.4,133.2,165.3,130.5,158.2,130.5z"/>
					</g>
					<g>
						<path class="st4" d="M353.8,393.2c-10.1,0-20.2-3.8-27.9-11.5c-15.4-15.4-15.4-40.4,0-55.8c15.4-15.4,40.4-15.4,55.8,0v0
							c0,0,0,0,0,0c7.5,7.5,11.6,17.4,11.6,27.9c0,10.5-4.1,20.5-11.6,27.9C374,389.4,363.9,393.2,353.8,393.2z M353.8,326
							c-7.4,0-14.4,2.9-19.6,8.1c-5.2,5.2-8.1,12.2-8.1,19.6c0,7.4,2.9,14.4,8.1,19.6c10.8,10.8,28.4,10.8,39.2,0
							c5.2-5.2,8.1-12.2,8.1-19.6c0-7.4-2.9-14.4-8.1-19.6v0C368.1,328.9,361.2,326,353.8,326z"/>
					</g>
					<g>
						<path class="st4" d="M353.8,197.7c-10.1,0-20.2-3.8-27.9-11.5c-15.4-15.4-15.4-40.4,0-55.8c15.4-15.4,40.4-15.4,55.8,0
							c7.5,7.5,11.6,17.4,11.6,27.9c0,10.5-4.1,20.4-11.6,27.9v0c0,0,0,0,0,0C374,193.8,363.9,197.7,353.8,197.7z M353.8,130.5
							c-7.1,0-14.2,2.7-19.6,8.1c-5.2,5.2-8.1,12.2-8.1,19.6c0,7.4,2.9,14.4,8.1,19.6c5.2,5.2,12.2,8.1,19.6,8.1
							c7.4,0,14.4-2.9,19.6-8.1v0c5.2-5.2,8.1-12.2,8.1-19.6c0-7.4-2.9-14.4-8.1-19.6C368,133.2,360.9,130.5,353.8,130.5z"/>
					</g>
					<g>
						<path class="st4" d="M158.2,393.2c-10.1,0-20.2-3.8-27.9-11.5c-7.5-7.5-11.6-17.4-11.6-27.9c0-10.5,4.1-20.4,11.6-27.9
							c15.4-15.4,40.4-15.4,55.8,0c15.4,15.4,15.4,40.4,0,55.8C178.5,389.4,168.3,393.2,158.2,393.2z M158.2,326
							c-7.4,0-14.4,2.9-19.6,8.1c-5.2,5.2-8.1,12.2-8.1,19.6c0,7.4,2.9,14.4,8.1,19.6c10.8,10.8,28.4,10.8,39.2,0
							c5.2-5.2,8.1-12.2,8.1-19.6c0-7.4-2.9-14.4-8.1-19.6C172.6,328.9,165.6,326,158.2,326z"/>
					</g>
				</g>
			</g>
			<g>
				<g>
					<path class="st4" d="M256,62c-3.2,0-5.9-2.6-5.9-5.9V5.9c0-3.2,2.6-5.9,5.9-5.9c3.2,0,5.9,2.6,5.9,5.9v50.3
						C261.9,59.4,259.2,62,256,62z"/>
				</g>
				<g>
					<path class="st4" d="M256,512c-3.2,0-5.9-2.6-5.9-5.9v-50.3c0-3.2,2.6-5.9,5.9-5.9c3.2,0,5.9,2.6,5.9,5.9v50.3
						C261.9,509.4,259.2,512,256,512z"/>
				</g>
			</g>
			<g>
				<g>
					<path class="st4" d="M397.3,120.5c-1.5,0-3-0.6-4.1-1.7c-2.3-2.3-2.3-6,0-8.3L428.7,75c2.3-2.3,6-2.3,8.3,0
						c2.3,2.3,2.3,6,0,8.3l-35.6,35.6C400.3,120,398.8,120.5,397.3,120.5z"/>
				</g>
				<g>
					<path class="st4" d="M79.1,438.7c-1.5,0-3-0.6-4.1-1.7c-2.3-2.3-2.3-6,0-8.3l35.6-35.6c2.3-2.3,6-2.3,8.3,0
						c2.3,2.3,2.3,6,0,8.3L83.3,437C82.1,438.2,80.6,438.7,79.1,438.7z"/>
				</g>
			</g>
			<g>
				<g>
					<path class="st4" d="M506.1,261.9h-50.3c-3.2,0-5.9-2.6-5.9-5.9c0-3.2,2.6-5.9,5.9-5.9h50.3c3.2,0,5.9,2.6,5.9,5.9
						C512,259.2,509.4,261.9,506.1,261.9z"/>
				</g>
				<g>
					<path class="st4" d="M56.1,261.9H5.9c-3.2,0-5.9-2.6-5.9-5.9c0-3.2,2.6-5.9,5.9-5.9h50.3c3.2,0,5.9,2.6,5.9,5.9
						C62,259.2,59.4,261.9,56.1,261.9z"/>
				</g>
			</g>
			<g>
				<g>
					<path class="st4" d="M432.9,438.7c-1.5,0-3-0.6-4.1-1.7l-35.6-35.6c-2.3-2.3-2.3-6,0-8.3c2.3-2.3,6-2.3,8.3,0l35.6,35.6
						c2.3,2.3,2.3,6,0,8.3C435.9,438.2,434.4,438.7,432.9,438.7z"/>
				</g>
				<g>
					<path class="st4" d="M114.7,120.5c-1.5,0-3-0.6-4.1-1.7L75,83.3c-2.3-2.3-2.3-6,0-8.3c2.3-2.3,6-2.3,8.3,0l35.6,35.6
						c2.3,2.3,2.3,6,0,8.3C117.7,120,116.2,120.5,114.7,120.5z"/>
				</g>
			</g>
		</g>
	</g>
</g>
</svg>
