<?xml version="1.0" encoding="utf-8"?>
<!-- Generator: Adobe Illustrator 22.0.1, SVG Export Plug-In . SVG Version: 6.00 Build 0)  -->
<svg version="1.1" id="Icon_Set" xmlns="http://www.w3.org/2000/svg" xmlns:xlink="http://www.w3.org/1999/xlink" x="0px" y="0px"
	 viewBox="0 0 512 512" style="enable-background:new 0 0 512 512;" xml:space="preserve">
<style type="text/css">
	.st0{fill:#FFFFFF;}
	.st1{fill:#F0C48A;}
	.st2{fill:#FD919E;}
	.st3{fill:#E8677D;}
	.st4{fill:#4C4372;}
	.st5{fill:#D3E6F8;}
	.st6{fill:#A4CFF2;}
	.st7{fill:#7BABF1;}
	.st8{fill:none;stroke:#4C4372;stroke-width:12;stroke-linecap:round;stroke-linejoin:round;stroke-miterlimit:10;}
</style>
<g id="Engineering_Thinking">
	<g>
		<circle class="st1" cx="256" cy="256" r="207"/>
		<g>
			<g>
				<path class="st5" d="M506.1,256c0-29.2-11.8-55.5-30.9-74.6c3.7-9.6,5.7-20,5.7-30.9c0-47.4-38.4-85.8-85.8-85.8
					c-4.9,0-9.6,0.4-14.2,1.2c-5.1-29.7-30.8-52.3-62-52.3c-34.8,0-62.9,28.2-62.9,62.9c0-34.8-28.2-62.9-62.9-62.9
					c-31.1,0-56.9,22.6-62,52.3c-4.6-0.8-9.4-1.2-14.2-1.2c-47.4,0-85.8,38.4-85.8,85.8c0,10.9,2,21.3,5.7,30.9
					C17.7,200.5,5.9,226.8,5.9,256c0,38.5,20.6,72.2,51.4,90.6c-0.8,4.8-1.3,9.8-1.3,14.9c0,43.8,32.8,79.9,75.2,85.1
					c5.3,29.4,31,51.7,61.9,51.7c34.8,0,62.9-28.2,62.9-62.9c0,34.8,28.2,62.9,62.9,62.9c30.9,0,56.6-22.3,61.9-51.7
					c42.4-5.2,75.2-41.3,75.2-85.1c0-5.1-0.5-10.1-1.3-14.9C485.5,328.2,506.1,294.5,506.1,256z"/>
			</g>
			<g>
				<path class="st7" d="M480.9,150.5c0-47.4-38.4-85.8-85.8-85.8c-4.9,0-9.6,0.4-14.2,1.2c-5.1-29.7-30.8-52.3-62-52.3
					c-16.2,0-31,6.1-42.1,16.2c51.7-16.3,76.7,19.7,86.5,40.6c3.6,7.7,11.1,12.9,19.6,13.5c14.4,1,36.9,5.3,54.2,20.8
					c23.9,21.6,23.6,44.2,20,72.7c-0.9,7.1,1.4,14.4,6.4,19.5c19.5,19.8,17.6,62.5,17.6,62.5s-6.2,49.1-32,63.8
					c-7.8,4.4-12.6,12.8-12.2,21.7c0.7,14.9-2.7,37.1-23.6,59c-16.9,17.7-29.1,24.4-37.4,26.5c-7.9,2.1-14.3,7.9-16.8,15.7
					c-5.7,18-22.1,44.1-68.9,45.1c8.6,4.4,18.4,6.9,28.7,6.9c30.9,0,56.6-22.3,61.9-51.7c42.4-5.2,75.2-41.3,75.2-85.1
					c0-5.1-0.5-10.1-1.3-14.9c30.8-18.4,51.4-52.1,51.4-90.6c0-29.2-11.8-55.5-30.9-74.6C478.9,171.8,480.9,161.4,480.9,150.5z"/>
			</g>
			<g>
				<path class="st4" d="M256,441.3c-3.2,0-5.9-2.6-5.9-5.9V76.6c0-3.2,2.6-5.9,5.9-5.9c3.2,0,5.9,2.6,5.9,5.9v358.8
					C261.9,438.6,259.2,441.3,256,441.3z"/>
			</g>
			<g>
				<g>
					<path class="st2" d="M393.7,276V236h-35.2c-2.7-14-8.2-27-15.9-38.4l24.9-24.9l-28.2-28.2l-24.9,24.9
						c-11.4-7.7-24.4-13.2-38.4-15.9v-35.2H236v35.2c-14,2.7-27,8.2-38.4,15.9l-24.9-24.9l-28.2,28.2l24.9,24.9
						c-7.7,11.4-13.2,24.4-15.9,38.4h-35.2V276h35.2c2.7,14,8.2,27,15.9,38.4l-24.9,24.9l28.2,28.2l24.9-24.9
						c11.4,7.7,24.4,13.2,38.4,15.9v35.2H276v-35.2c14-2.7,27-8.2,38.4-15.9l24.9,24.9l28.2-28.2l-24.9-24.9
						c7.7-11.4,13.2-24.4,15.9-38.4H393.7z M255.3,307.1c-28.2,0-51.1-22.9-51.1-51.1s22.9-51.1,51.1-51.1
						c28.2,0,51.1,22.9,51.1,51.1S283.5,307.1,255.3,307.1z"/>
				</g>
				<g>
					<g>
						<path class="st4" d="M255.3,312.9c-31.4,0-56.9-25.5-56.9-56.9c0-31.4,25.5-56.9,56.9-56.9c31.4,0,56.9,25.5,56.9,56.9
							C312.3,287.4,286.7,312.9,255.3,312.9z M255.3,210.8c-24.9,0-45.2,20.3-45.2,45.2c0,24.9,20.3,45.2,45.2,45.2
							c24.9,0,45.2-20.3,45.2-45.2C300.5,231.1,280.3,210.8,255.3,210.8z"/>
					</g>
					<g>
						<path class="st4" d="M276,399.5H236c-3.2,0-5.9-2.6-5.9-5.9v-30.5c-11.2-2.7-21.9-7.1-31.7-13.1l-21.6,21.6
							c-1.1,1.1-2.6,1.7-4.1,1.7l0,0c-1.6,0-3-0.6-4.1-1.7l-28.2-28.2c-2.3-2.3-2.3-6,0-8.3l21.6-21.6c-6-9.8-10.4-20.5-13.1-31.7
							h-30.5c-3.2,0-5.9-2.6-5.9-5.9V236c0-3.2,2.6-5.9,5.9-5.9h30.5c2.7-11.2,7.1-21.9,13.1-31.7l-21.6-21.6c-2.3-2.3-2.3-6,0-8.3
							l28.2-28.2c2.3-2.3,6-2.3,8.3,0l21.6,21.6c9.8-6,20.5-10.4,31.7-13.1v-30.5c0-3.2,2.6-5.9,5.9-5.9H276c3.2,0,5.9,2.6,5.9,5.9
							v30.5c11.2,2.7,21.9,7.1,31.7,13.1l21.6-21.6c2.3-2.3,6-2.3,8.3,0l28.2,28.2c1.1,1.1,1.7,2.6,1.7,4.1c0,1.6-0.6,3-1.7,4.1
							L350,198.5c6,9.8,10.4,20.5,13.1,31.7h30.5c3.2,0,5.9,2.6,5.9,5.9V276c0,3.2-2.6,5.9-5.9,5.9h-30.5
							c-2.7,11.2-7.1,21.9-13.1,31.7l21.6,21.6c2.3,2.3,2.3,6,0,8.3l-28.2,28.2c-1.1,1.1-2.6,1.7-4.1,1.7s-3-0.6-4.1-1.7L313.5,350
							c-9.8,6-20.5,10.4-31.7,13.1v30.5C281.8,396.9,279.2,399.5,276,399.5z M241.9,387.8h28.2v-29.4c0-2.8,2-5.2,4.7-5.8
							c13-2.5,25.2-7.6,36.2-15c2.3-1.6,5.4-1.3,7.4,0.7l20.8,20.8l19.9-19.9l-20.8-20.8c-2-2-2.3-5.1-0.7-7.4
							c7.4-11,12.5-23.2,15-36.2c0.5-2.8,2.9-4.7,5.8-4.7h29.4v-28.2h-29.4c-2.8,0-5.2-2-5.8-4.7c-2.5-13-7.6-25.2-15-36.2
							c-1.6-2.3-1.3-5.4,0.7-7.4l20.8-20.8l-19.9-19.9l-20.8,20.8c-2,2-5.1,2.3-7.4,0.7c-11-7.4-23.2-12.5-36.2-15
							c-2.8-0.5-4.7-2.9-4.7-5.8v-29.4h-28.2v29.4c0,2.8-2,5.2-4.7,5.8c-13,2.5-25.2,7.6-36.2,15c-2.3,1.6-5.4,1.3-7.4-0.7
							l-20.8-20.8l-19.9,19.9l20.8,20.8c2,2,2.3,5.1,0.7,7.4c-7.4,11-12.5,23.2-15,36.2c-0.5,2.8-2.9,4.7-5.8,4.7h-29.4v28.2h29.4
							c2.8,0,5.2,2,5.8,4.7c2.5,13,7.6,25.2,15,36.2c1.6,2.3,1.3,5.4-0.7,7.4l-20.8,20.8l19.9,19.9l20.8-20.8c2-2,5.1-2.3,7.4-0.7
							c11,7.4,23.2,12.5,36.2,15c2.8,0.5,4.7,2.9,4.7,5.8V387.8z"/>
					</g>
				</g>
			</g>
			<g>
				<g>
					<path class="st4" d="M90.7,155.5c-3.2,0-5.9-2.6-5.9-5.9s2.6-5.9,5.9-5.9c31,0,56.1-25.2,56.1-56.1c0-3.2,2.6-5.9,5.9-5.9
						s5.9,2.6,5.9,5.9C158.6,125,128.2,155.5,90.7,155.5z"/>
				</g>
				<g>
					<path class="st4" d="M421.3,155.5c-37.4,0-67.9-30.4-67.9-67.9c0-3.2,2.6-5.9,5.9-5.9s5.9,2.6,5.9,5.9
						c0,31,25.2,56.1,56.1,56.1c3.2,0,5.9,2.6,5.9,5.9S424.5,155.5,421.3,155.5z"/>
				</g>
			</g>
			<g>
				<g>
					<path class="st4" d="M152.7,429.8c-3.2,0-5.9-2.6-5.9-5.9c0-31-25.2-56.1-56.1-56.1c-3.2,0-5.9-2.6-5.9-5.9s2.6-5.9,5.9-5.9
						c37.4,0,67.9,30.4,67.9,67.9C158.6,427.1,156,429.8,152.7,429.8z"/>
				</g>
				<g>
					<path class="st4" d="M359.3,429.8c-3.2,0-5.9-2.6-5.9-5.9c0-37.4,30.4-67.9,67.9-67.9c3.2,0,5.9,2.6,5.9,5.9s-2.6,5.9-5.9,5.9
						c-31,0-56.1,25.2-56.1,56.1C365.1,427.1,362.5,429.8,359.3,429.8z"/>
				</g>
			</g>
			<g>
				<path class="st4" d="M318.9,504.2c-28.1,0-52.2-16.9-62.9-41c-10.7,24.1-34.9,41-62.9,41c-31.9,0-59.3-21.8-66.8-52.4
					c-43.7-7.4-76.2-45.5-76.2-90.3c0-3.9,0.3-8,0.8-12C36.2,340,23.8,327,15,311.8C5.2,294.9,0,275.6,0,256
					c0-28.5,10.6-55.4,30-76.1c-3.2-9.5-4.8-19.3-4.8-29.4c0-50.5,41.1-91.7,91.7-91.7c3.2,0,6.4,0.2,9.7,0.5
					c7.7-30.2,34.9-51.6,66.6-51.6c28.1,0,52.2,16.9,62.9,41c10.7-24.1,34.9-41,62.9-41c31.7,0,58.8,21.4,66.6,51.6
					c3.2-0.3,6.5-0.5,9.7-0.5c50.5,0,91.7,41.1,91.7,91.7c0,10.1-1.6,19.9-4.8,29.4c19.4,20.7,30,47.6,30,76.1
					c0,19.6-5.2,38.9-15,55.8c-8.8,15.2-21.2,28.2-36,37.8c0.5,4,0.8,8,0.8,12c0,44.8-32.5,82.9-76.2,90.3
					C378.2,482.4,350.8,504.2,318.9,504.2z M256,429.5c3.2,0,5.9,2.6,5.9,5.9c0,31.5,25.6,57.1,57.1,57.1
					c27.6,0,51.2-19.7,56.1-46.9c0.5-2.5,2.5-4.5,5.1-4.8c39.9-4.9,70.1-39,70.1-79.3c0-4.6-0.4-9.2-1.2-13.9
					c-0.4-2.4,0.7-4.8,2.8-6c30-17.9,48.6-50.7,48.6-85.5c0-26.6-10.4-51.7-29.2-70.5c-1.6-1.6-2.2-4.1-1.3-6.3
					c3.5-9.2,5.3-18.9,5.3-28.7c0-44.1-35.9-79.9-79.9-79.9c-4.4,0-8.8,0.4-13.3,1.1c-3.2,0.5-6.2-1.6-6.7-4.8
					c-4.7-27.5-28.3-47.4-56.2-47.4c-31.5,0-57.1,25.6-57.1,57.1c0,3.2-2.6,5.9-5.9,5.9c-3.2,0-5.9-2.6-5.9-5.9
					c0-31.5-25.6-57.1-57.1-57.1c-27.9,0-51.5,19.9-56.2,47.4c-0.5,3.2-3.6,5.3-6.7,4.8c-4.4-0.7-8.9-1.1-13.3-1.1
					c-44.1,0-79.9,35.9-79.9,79.9c0,9.9,1.8,19.5,5.3,28.7c0.8,2.2,0.3,4.6-1.3,6.3c-18.8,18.8-29.2,43.9-29.2,70.5
					c0,34.8,18.6,67.6,48.6,85.5c2.1,1.2,3.2,3.7,2.8,6c-0.8,4.7-1.2,9.3-1.2,13.9c0,40.3,30.1,74.4,70.1,79.3
					c2.6,0.3,4.6,2.3,5.1,4.8c4.9,27.2,28.5,46.9,56.1,46.9c31.5,0,57.1-25.6,57.1-57.1C250.1,432.2,252.8,429.5,256,429.5z"/>
			</g>
		</g>
	</g>
</g>
</svg>
