<?xml version="1.0" encoding="utf-8"?>
<!-- Generator: Adobe Illustrator 22.0.1, SVG Export Plug-In . SVG Version: 6.00 Build 0)  -->
<svg version="1.1" id="Icon_Set" xmlns="http://www.w3.org/2000/svg" xmlns:xlink="http://www.w3.org/1999/xlink" x="0px" y="0px"
	 viewBox="0 0 512 512" style="enable-background:new 0 0 512 512;" xml:space="preserve">
<style type="text/css">
	.st0{fill:#FFFFFF;}
	.st1{fill:#F0C48A;}
	.st2{fill:#FD919E;}
	.st3{fill:#E8677D;}
	.st4{fill:#4C4372;}
	.st5{fill:#D3E6F8;}
	.st6{fill:#A4CFF2;}
	.st7{fill:#7BABF1;}
	.st8{fill:none;stroke:#4C4372;stroke-width:12;stroke-linecap:round;stroke-linejoin:round;stroke-miterlimit:10;}
</style>
<g id="Circuit_Board">
	<g>
		<circle class="st1" cx="256" cy="256" r="207"/>
		<g>
			<g>
				<path class="st5" d="M468.9,506.1H43.1c-20.6,0-37.2-16.7-37.2-37.2V43.1c0-20.6,16.7-37.2,37.2-37.2h425.8
					c20.6,0,37.2,16.7,37.2,37.2v425.8C506.1,489.5,489.5,506.1,468.9,506.1z"/>
			</g>
			<g>
				<path class="st6" d="M467.5,506.1h-32.6V5.9h32.6c21.4,0,38.7,17.3,38.7,38.7v422.9C506.1,488.8,488.8,506.1,467.5,506.1z"/>
			</g>
			<g>
				
					<ellipse transform="matrix(0.7071 -0.7071 0.7071 0.7071 -182.3115 137.6511)" class="st2" cx="75" cy="288.9" rx="24.6" ry="24.6"/>
			</g>
			<g>
				
					<ellipse transform="matrix(0.2298 -0.9732 0.9732 0.2298 -154.6708 241.1281)" class="st2" cx="75" cy="218.3" rx="24.6" ry="24.6"/>
			</g>
			<g>
				<circle class="st2" cx="75" cy="147.8" r="24.6"/>
			</g>
			<g>
				<circle class="st2" cx="217.6" cy="74.4" r="24.6"/>
			</g>
			<g>
				
					<ellipse transform="matrix(0.7071 -0.7071 0.7071 0.7071 -156.4936 245.0818)" class="st2" cx="217.6" cy="311.4" rx="24.6" ry="24.6"/>
			</g>
			<g>
				<circle class="st2" cx="217.6" cy="430.2" r="24.6"/>
			</g>
			<g>
				<circle class="st2" cx="287.5" cy="430.2" r="24.6"/>
			</g>
			<g>
				<circle class="st2" cx="359.8" cy="147.9" r="24.6"/>
			</g>
			<g>
				
					<ellipse transform="matrix(0.2298 -0.9732 0.9732 0.2298 120.5948 586.6759)" class="st2" cx="430.9" cy="217.1" rx="24.6" ry="24.6"/>
			</g>
			<g>
				<path class="st4" d="M468.9,512H43.1C19.3,512,0,492.7,0,468.9V43.1C0,19.3,19.3,0,43.1,0h425.8C492.7,0,512,19.3,512,43.1
					v425.8C512,492.7,492.7,512,468.9,512z M43.1,11.7c-17.3,0-31.4,14.1-31.4,31.4v425.8c0,17.3,14.1,31.4,31.4,31.4h425.8
					c17.3,0,31.4-14.1,31.4-31.4V43.1c0-17.3-14.1-31.4-31.4-31.4H43.1z"/>
			</g>
			<g>
				<path class="st4" d="M76.8,510.6c-3.2,0-5.9-2.6-5.9-5.9V314.9c0-3.2,2.6-5.9,5.9-5.9c3.2,0,5.9,2.6,5.9,5.9v189.9
					C82.6,508,80,510.6,76.8,510.6z"/>
			</g>
			<g>
				<path class="st4" d="M75,319.3c-16.8,0-30.4-13.6-30.4-30.4c0-16.8,13.6-30.4,30.4-30.4c16.8,0,30.4,13.6,30.4,30.4
					C105.4,305.7,91.8,319.3,75,319.3z M75,270.2c-10.3,0-18.7,8.4-18.7,18.7c0,10.3,8.4,18.7,18.7,18.7c10.3,0,18.7-8.4,18.7-18.7
					C93.7,278.6,85.3,270.2,75,270.2z"/>
			</g>
			<g>
				<path class="st4" d="M75,248.7c-16.8,0-30.4-13.6-30.4-30.4c0-16.8,13.6-30.4,30.4-30.4c16.8,0,30.4,13.6,30.4,30.4
					C105.4,235.1,91.8,248.7,75,248.7z M75,199.6c-10.3,0-18.7,8.4-18.7,18.7c0,10.3,8.4,18.7,18.7,18.7c10.3,0,18.7-8.4,18.7-18.7
					C93.7,208,85.3,199.6,75,199.6z"/>
			</g>
			<g>
				<path class="st4" d="M75,178.2c-16.8,0-30.4-13.6-30.4-30.4c0-16.8,13.6-30.4,30.4-30.4c16.8,0,30.4,13.6,30.4,30.4
					C105.4,164.6,91.8,178.2,75,178.2z M75,129.1c-10.3,0-18.7,8.4-18.7,18.7s8.4,18.7,18.7,18.7c10.3,0,18.7-8.4,18.7-18.7
					S85.3,129.1,75,129.1z"/>
			</g>
			<g>
				<path class="st4" d="M217.6,104.8c-16.8,0-30.4-13.6-30.4-30.4c0-16.8,13.6-30.4,30.4-30.4c16.8,0,30.4,13.6,30.4,30.4
					C248,91.2,234.4,104.8,217.6,104.8z M217.6,55.7c-10.3,0-18.7,8.4-18.7,18.7c0,10.3,8.4,18.7,18.7,18.7
					c10.3,0,18.7-8.4,18.7-18.7C236.3,64.1,227.9,55.7,217.6,55.7z"/>
			</g>
			<g>
				<path class="st4" d="M217.6,341.9c-16.8,0-30.4-13.6-30.4-30.4c0-16.8,13.6-30.4,30.4-30.4c16.8,0,30.4,13.6,30.4,30.4
					C248,328.2,234.4,341.9,217.6,341.9z M217.6,292.7c-10.3,0-18.7,8.4-18.7,18.7c0,10.3,8.4,18.7,18.7,18.7
					c10.3,0,18.7-8.4,18.7-18.7C236.3,301.1,227.9,292.7,217.6,292.7z"/>
			</g>
			<g>
				<path class="st4" d="M217.6,460.6c-16.8,0-30.4-13.6-30.4-30.4c0-16.8,13.6-30.4,30.4-30.4c16.8,0,30.4,13.6,30.4,30.4
					C248,447,234.4,460.6,217.6,460.6z M217.6,411.5c-10.3,0-18.7,8.4-18.7,18.7c0,10.3,8.4,18.7,18.7,18.7
					c10.3,0,18.7-8.4,18.7-18.7C236.3,419.9,227.9,411.5,217.6,411.5z"/>
			</g>
			<g>
				<path class="st4" d="M287.5,460.6c-16.8,0-30.4-13.6-30.4-30.4c0-16.8,13.6-30.4,30.4-30.4c16.8,0,30.4,13.6,30.4,30.4
					C317.9,447,304.3,460.6,287.5,460.6z M287.5,411.5c-10.3,0-18.7,8.4-18.7,18.7c0,10.3,8.4,18.7,18.7,18.7
					c10.3,0,18.7-8.4,18.7-18.7C306.2,419.9,297.8,411.5,287.5,411.5z"/>
			</g>
			<g>
				<path class="st4" d="M359.8,178.3c-16.8,0-30.4-13.6-30.4-30.4c0-16.8,13.6-30.4,30.4-30.4c16.8,0,30.4,13.6,30.4,30.4
					C390.2,164.7,376.5,178.3,359.8,178.3z M359.8,129.2c-10.3,0-18.7,8.4-18.7,18.7c0,10.3,8.4,18.7,18.7,18.7s18.7-8.4,18.7-18.7
					C378.5,137.6,370.1,129.2,359.8,129.2z"/>
			</g>
			<g>
				<path class="st4" d="M144.8,512c-3.2,0-5.9-2.6-5.9-5.9V247.9c0-13-10.5-23.5-23.5-23.5H99.6c-3.2,0-5.9-2.6-5.9-5.9
					s2.6-5.9,5.9-5.9h15.9c19.4,0,35.2,15.8,35.2,35.2v258.2C150.7,509.4,148,512,144.8,512z"/>
			</g>
			<g>
				<path class="st4" d="M217.6,292.9c-3.2,0-5.9-2.6-5.9-5.9V177.2c0-13-10.5-23.5-23.5-23.5H99.6c-3.2,0-5.9-2.6-5.9-5.9
					s2.6-5.9,5.9-5.9h88.7c19.4,0,35.2,15.8,35.2,35.2v109.9C223.5,290.3,220.8,292.9,217.6,292.9z"/>
			</g>
			<g>
				<path class="st4" d="M287.5,411.5c-3.2,0-5.9-2.6-5.9-5.9v-301c0-19.4,15.8-35.2,35.2-35.2h189.3c3.2,0,5.9,2.6,5.9,5.9
					s-2.6,5.9-5.9,5.9H316.9c-13,0-23.5,10.5-23.5,23.5v301C293.4,408.9,290.8,411.5,287.5,411.5z"/>
			</g>
			<g>
				<path class="st4" d="M359.8,508.6c-3.2,0-5.9-2.6-5.9-5.9V172.5c0-3.2,2.6-5.9,5.9-5.9c3.2,0,5.9,2.6,5.9,5.9v330.3
					C365.6,506,363,508.6,359.8,508.6z"/>
			</g>
			<g>
				<path class="st4" d="M430.9,247.6c-16.8,0-30.4-13.6-30.4-30.4c0-16.8,13.6-30.4,30.4-30.4c16.8,0,30.4,13.6,30.4,30.4
					C461.4,233.9,447.7,247.6,430.9,247.6z M430.9,198.5c-10.3,0-18.7,8.4-18.7,18.7c0,10.3,8.4,18.7,18.7,18.7
					c10.3,0,18.7-8.4,18.7-18.7C449.6,206.8,441.3,198.5,430.9,198.5z"/>
			</g>
			<g>
				<path class="st4" d="M430.9,509.4c-3.2,0-5.9-2.6-5.9-5.9V241.7c0-3.2,2.6-5.9,5.9-5.9c3.2,0,5.9,2.6,5.9,5.9v261.9
					C436.8,506.8,434.2,509.4,430.9,509.4z"/>
			</g>
			<g>
				<path class="st4" d="M193,80.3h-86.9c-19.4,0-35.2-15.8-35.2-35.2V10c0-3.2,2.6-5.9,5.9-5.9c3.2,0,5.9,2.6,5.9,5.9v35.1
					c0,13,10.5,23.5,23.5,23.5H193c3.2,0,5.9,2.6,5.9,5.9C198.9,77.7,196.3,80.3,193,80.3z"/>
			</g>
			<g>
				<path class="st4" d="M217.6,510.6c-3.2,0-5.9-2.6-5.9-5.9v-50c0-3.2,2.6-5.9,5.9-5.9c3.2,0,5.9,2.6,5.9,5.9v50
					C223.5,508,220.8,510.6,217.6,510.6z"/>
			</g>
		</g>
	</g>
</g>
</svg>
