<?xml version="1.0" encoding="UTF-8"?>
<svg width="267px" height="512px" viewBox="0 0 267 512" version="1.1" xmlns="http://www.w3.org/2000/svg" xmlns:xlink="http://www.w3.org/1999/xlink">
    <!-- Generator: Sketch 49.3 (51167) - http://www.bohemiancoding.com/sketch -->
    <title>mobile</title>
    <desc>Created with Sketch.</desc>
    <defs></defs>
    <g id="Page-1" stroke="none" stroke-width="1" fill="none" fill-rule="evenodd">
        <g id="Solutions---Startups" transform="translate(-342.000000, -43.000000)" fill-rule="nonzero">
            <g id="Hero" transform="translate(342.000000, -1081.000000)">
                <g id="mobile" transform="translate(0.000000, 1124.000000)">
                    <g id="Group">
                        <path d="M6.7,93.8 L6.7,41.7 C6.7,22 22.8,5.8 42.6,5.8 L224.9,5.8 C244.6,5.8 260.8,21.9 260.8,41.7 L260.8,470.2 C260.8,489.9 244.7,506.1 224.9,506.1 L42.6,506.1 C22.9,506.1 6.7,490 6.7,470.2 L6.7,137.8 L6.7,93.8 Z" id="Shape" fill="#D3E6F8"></path>
                        <path d="M235.4,428 L235.4,504.6 C250.1,500.1 260.8,486.4 260.8,470.3 L260.8,428 L235.4,428 Z" id="Shape" fill="#7BABF1"></path>
                        <path d="M235.4,7.4 L235.4,76.2 L260.8,76.2 L260.8,41.7 C260.8,25.6 250,11.9 235.4,7.4 Z" id="Shape" fill="#7BABF1"></path>
                        <rect id="Rectangle-path" fill="#FFFFFF" x="6.7" y="76.2" width="255" height="351.8"></rect>
                        <rect id="Rectangle-path" fill="#D3E6F8" x="235.4" y="76.2" width="26.4" height="351.8"></rect>
                        <circle id="Oval" fill="#7BABF1" cx="133.8" cy="467.5" r="22"></circle>
                        <g transform="translate(44.000000, 167.000000)" id="Shape">
                            <path d="M172.8,101 L172.8,77 L151.5,77 C149.9,68.6 146.6,60.7 141.9,53.8 L156.9,38.8 L139.9,21.8 L124.9,36.8 C118,32.2 110.2,28.9 101.7,27.2 L101.7,5.9 L77.6,5.9 L77.6,27.2 C69.2,28.8 61.3,32.1 54.4,36.8 L39.4,21.8 L22.4,38.8 L37.4,53.8 C32.8,60.7 29.5,68.5 27.8,77 L6.5,77 L6.5,101 L28,101 C29.6,109.4 32.9,117.3 37.6,124.2 L22.6,139.2 L39.6,156.2 L54.6,141.2 C61.5,145.8 69.3,149.1 77.8,150.8 L77.8,172.1 L101.9,172.1 L101.9,150.8 C110.3,149.2 118.2,145.9 125.1,141.2 L140.1,156.2 L157.1,139.2 L142.1,124.2 C146.7,117.3 150,109.5 151.7,101 L172.8,101 Z M89.3,119.8 C72.3,119.8 58.5,106 58.5,89 C58.5,72 72.3,58.2 89.3,58.2 C106.3,58.2 120.1,72 120.1,89 C120.1,106 106.4,119.8 89.3,119.8 Z" fill="#FD919E"></path>
                            <g fill="#4C4372">
                                <path d="M89.3,125.7 C69.1,125.7 52.6,109.2 52.6,89 C52.6,68.8 69.1,52.3 89.3,52.3 C109.5,52.3 126,68.8 126,89 C126,109.2 109.6,125.7 89.3,125.7 Z M89.3,64.1 C75.5,64.1 64.4,75.3 64.4,89 C64.4,102.8 75.6,113.9 89.3,113.9 C103,113.9 114.2,102.7 114.2,89 C114.3,75.2 103.1,64.1 89.3,64.1 Z"></path>
                                <path d="M101.8,177.9 L77.7,177.9 C74.5,177.9 71.8,175.3 71.8,172 L71.8,155.4 C66,153.9 60.5,151.6 55.4,148.6 L43.7,160.3 C42.6,161.4 41.1,162 39.6,162 C38.1,162 36.6,161.4 35.5,160.3 L18.5,143.3 C16.2,141 16.2,137.3 18.5,135 L30.2,123.3 C27.2,118.1 24.9,112.6 23.4,106.9 L6.8,106.9 C3.6,106.9 0.9,104.3 0.9,101 L0.9,77 C0.9,73.8 3.5,71.1 6.8,71.1 L23.4,71.1 C24.9,65.3 27.2,59.8 30.2,54.7 L18.5,43 C16.2,40.7 16.2,37 18.5,34.7 L35.5,17.7 C37.8,15.4 41.5,15.4 43.8,17.7 L55.5,29.4 C60.7,26.4 66.2,24.1 71.9,22.6 L71.9,6 C71.9,2.8 74.5,0.1 77.8,0.1 L101.9,0.1 C105.1,0.1 107.8,2.7 107.8,6 L107.8,22.6 C113.6,24.1 119.1,26.4 124.2,29.4 L135.9,17.7 C138.2,15.4 141.9,15.4 144.2,17.7 L161.2,34.7 C163.5,37 163.5,40.7 161.2,43 L149.5,54.7 C152.5,59.9 154.8,65.4 156.3,71.1 L172.9,71.1 C176.1,71.1 178.8,73.7 178.8,77 L178.8,101 C178.8,104.2 176.2,106.9 172.9,106.9 L156.3,106.9 C154.8,112.7 152.5,118.2 149.5,123.3 L161.2,135 C163.5,137.3 163.5,141 161.2,143.3 L144.2,160.3 C143.1,161.4 141.6,162 140.1,162 C138.5,162 137.1,161.4 136,160.3 L124.3,148.6 C119.1,151.6 113.6,153.9 107.9,155.4 L107.9,172 C107.6,175.3 105,177.9 101.8,177.9 Z M83.6,166.2 L95.9,166.2 L95.9,150.8 C95.9,148 97.9,145.6 100.6,145 C108.2,143.5 115.2,140.6 121.6,136.3 C123.9,134.7 127,135 129,137 L139.9,147.9 L148.6,139.2 L137.7,128.3 C135.7,126.3 135.4,123.2 137,120.9 C141.3,114.5 144.2,107.5 145.7,99.9 C146.2,97.1 148.6,95.2 151.5,95.2 L166.9,95.2 L166.9,82.9 L151.5,82.9 C148.7,82.9 146.3,80.9 145.7,78.2 C144.2,70.6 141.3,63.6 137,57.2 C135.4,54.9 135.7,51.8 137.7,49.8 L148.6,38.9 L139.9,30.2 L129,41.1 C127,43.1 123.9,43.4 121.6,41.8 C115.2,37.5 108.2,34.6 100.6,33.1 C97.8,32.6 95.9,30.2 95.9,27.3 L95.9,11.9 L83.6,11.9 L83.6,27.3 C83.6,30.1 81.6,32.5 78.9,33.1 C71.3,34.6 64.3,37.5 57.9,41.8 C55.6,43.4 52.5,43.1 50.5,41.1 L39.6,30.2 L30.9,38.9 L41.8,49.8 C43.8,51.8 44.1,54.9 42.5,57.2 C38.2,63.6 35.3,70.6 33.8,78.2 C33.3,81 30.9,82.9 28,82.9 L12.6,82.9 L12.6,95.2 L28,95.2 C30.8,95.2 33.2,97.2 33.8,99.9 C35.3,107.5 38.2,114.5 42.5,120.9 C44.1,123.2 43.8,126.3 41.8,128.3 L30.9,139.2 L39.6,147.9 L50.5,137 C52.5,135 55.6,134.7 57.9,136.3 C64.3,140.6 71.3,143.5 78.9,145 C81.7,145.5 83.6,147.9 83.6,150.8 L83.6,166.2 Z"></path>
                            </g>
                        </g>
                        <path d="M261.3,82.1 L6.3,82.1 C3.1,82.1 2.4,79.5 2.4,76.2 C2.4,73 3,70.3 6.3,70.3 L261.3,70.3 C264.5,70.3 264,72.7 264,75.9 C264,79.1 264.5,82.1 261.3,82.1 Z" id="Shape" fill="#4C4372"></path>
                        <path d="M261.3,433.8 L6.3,433.8 C3.1,433.8 3.1,432.2 3.1,429 C3.1,425.8 3.1,422.1 6.3,422.1 L261.3,422.1 C264.5,422.1 265.2,424.7 265.2,428 C265.1,431.2 264.5,433.8 261.3,433.8 Z" id="Shape" fill="#4C4372"></path>
                        <path d="M133.8,495.4 C118.4,495.4 106,482.9 106,467.6 C106,452.2 118.5,439.8 133.8,439.8 C149.1,439.8 161.6,452.3 161.6,467.6 C161.6,482.9 149.1,495.4 133.8,495.4 Z M133.8,451.4 C124.9,451.4 117.7,458.6 117.7,467.5 C117.7,476.4 124.9,483.6 133.8,483.6 C142.7,483.6 149.9,476.4 149.9,467.5 C149.9,458.6 142.6,451.4 133.8,451.4 Z" id="Shape" fill="#4C4372"></path>
                        <path d="M224.9,512 L42.6,512 C19.6,512 0.9,493.3 0.9,470.3 L0.9,41.7 C0.9,18.7 19.6,0 42.6,0 L224.9,0 C247.9,0 266.6,18.7 266.6,41.7 L266.6,470.2 C266.6,493.3 247.9,512 224.9,512 Z M42.6,11.7 C26,11.7 12.6,25.2 12.6,41.7 L12.6,470.2 C12.6,486.8 26.1,500.2 42.6,500.2 L224.9,500.2 C241.5,500.2 254.9,486.7 254.9,470.2 L254.9,41.7 C254.9,25.1 241.4,11.7 224.9,11.7 L42.6,11.7 Z" id="Shape" fill="#4C4372"></path>
                    </g>
                </g>
            </g>
        </g>
    </g>
</svg>