<?xml version="1.0" encoding="utf-8"?>
<!-- Generator: Adobe Illustrator 22.0.1, SVG Export Plug-In . SVG Version: 6.00 Build 0)  -->
<svg version="1.1" id="Icon_Set" xmlns="http://www.w3.org/2000/svg" xmlns:xlink="http://www.w3.org/1999/xlink" x="0px" y="0px"
	 viewBox="0 0 512 512" style="enable-background:new 0 0 512 512;" xml:space="preserve">
<style type="text/css">
	.st0{fill:#FFFFFF;}
	.st1{fill:#F0C48A;}
	.st2{fill:#FD919E;}
	.st3{fill:#E8677D;}
	.st4{fill:#4C4372;}
	.st5{fill:#D3E6F8;}
	.st6{fill:#A4CFF2;}
	.st7{fill:#7BABF1;}
	.st8{fill:none;stroke:#4C4372;stroke-width:12;stroke-linecap:round;stroke-linejoin:round;stroke-miterlimit:10;}
</style>
<g id="Building_Area_Measurement">
	<g>
		<circle class="st1" cx="256" cy="256" r="207"/>
		<g>
			<g>
				<rect x="28.8" y="123.1" class="st0" width="477.3" height="265.9"/>
			</g>
			<g>
				<rect x="477.6" y="123.6" class="st5" width="28.5" height="265.4"/>
			</g>
			<g>
				<g>
					<path class="st3" d="M404.5,185.9c-56.1,0-101.6,45.5-101.6,101.6V389h101.6c56.1,0,101.6-45.5,101.6-101.6
						S460.7,185.9,404.5,185.9z"/>
				</g>
				<g>
					<circle class="st6" cx="404.5" cy="287.5" r="58.8"/>
				</g>
				<g>
					<circle class="st6" cx="404.5" cy="287.5" r="24.2"/>
				</g>
			</g>
			<g>
				<circle class="st2" cx="404.5" cy="287.5" r="58.8"/>
			</g>
			<g>
				<polyline class="st5" points="302.9,318.9 161.4,318.9 161.4,389 302.9,389 				"/>
			</g>
			<g>
				<rect x="239" y="123.4" class="st5" width="28.5" height="132.7"/>
			</g>
			<g>
				
					<rect x="217.9" y="304.6" transform="matrix(6.123234e-17 -1 1 6.123234e-17 -143.2384 607.5754)" class="st6" width="28.5" height="141.6"/>
			</g>
			<g>
				<rect x="99.2" y="256.1" class="st5" width="28.5" height="58"/>
			</g>
			<g>
				<path class="st4" d="M506.1,394.9H28.8c-3.2,0-5.9-2.6-5.9-5.9V123.1c0-3.2,2.6-5.9,5.9-5.9h477.3c3.2,0,5.9,2.6,5.9,5.9V389
					C512,392.3,509.4,394.9,506.1,394.9z M34.7,383.2h465.6V129H34.7V383.2z"/>
			</g>
			<g>
				<rect x="5.9" y="155" class="st7" width="45.9" height="67.1"/>
			</g>
			<g>
				<rect x="5.9" y="290.1" class="st7" width="45.9" height="67.1"/>
			</g>
			<g>
				<path class="st4" d="M127.7,319.9c-3.2,0-5.9-2.6-5.9-5.9v-52.1H30.2c-3.2,0-5.9-2.6-5.9-5.9s2.6-5.9,5.9-5.9h97.5
					c3.2,0,5.9,2.6,5.9,5.9v58C133.6,317.3,131,319.9,127.7,319.9z"/>
			</g>
			<g>
				<path class="st4" d="M404.5,394.9H302.9c-3.2,0-5.9-2.6-5.9-5.9V287.5c0-59.3,48.2-107.5,107.5-107.5
					c59.3,0,107.5,48.2,107.5,107.5C512,346.7,463.8,394.9,404.5,394.9z M308.8,383.2h95.7c52.8,0,95.7-42.9,95.7-95.7
					c0-52.8-42.9-95.7-95.7-95.7c-52.8,0-95.7,42.9-95.7,95.7V383.2z"/>
			</g>
			<g>
				<path class="st4" d="M404.5,352.1c-35.6,0-64.6-29-64.6-64.6s29-64.6,64.6-64.6c35.6,0,64.6,29,64.6,64.6
					S440.2,352.1,404.5,352.1z M404.5,234.6c-29.2,0-52.9,23.7-52.9,52.9s23.7,52.9,52.9,52.9c29.2,0,52.9-23.7,52.9-52.9
					S433.7,234.6,404.5,234.6z"/>
			</g>
			<g>
				<circle class="st2" cx="404.5" cy="287.5" r="24.2"/>
			</g>
			<g>
				<path class="st4" d="M302.9,394.9H161.4c-3.2,0-5.9-2.6-5.9-5.9v-70.1c0-3.2,2.6-5.9,5.9-5.9h141.6c3.2,0,5.9,2.6,5.9,5.9
					c0,3.2-2.6,5.9-5.9,5.9H167.3v58.4h135.7c3.2,0,5.9,2.6,5.9,5.9S306.2,394.9,302.9,394.9z"/>
			</g>
			<g>
				<path class="st4" d="M51.8,228H5.9c-3.2,0-5.9-2.6-5.9-5.9V155c0-3.2,2.6-5.9,5.9-5.9h45.9c3.2,0,5.9,2.6,5.9,5.9v67.1
					C57.7,225.3,55.1,228,51.8,228z M11.7,216.2h34.2v-55.4H11.7V216.2z"/>
			</g>
			<g>
				<path class="st4" d="M51.8,363H5.9c-3.2,0-5.9-2.6-5.9-5.9v-67.1c0-3.2,2.6-5.9,5.9-5.9h45.9c3.2,0,5.9,2.6,5.9,5.9v67.1
					C57.7,360.4,55.1,363,51.8,363z M11.7,351.3h34.2v-55.4H11.7V351.3z"/>
			</g>
			<g>
				<path class="st4" d="M195.8,394.9c-3.2,0-5.9-2.6-5.9-5.9v-25.9c0-3.2,2.6-5.9,5.9-5.9c3.2,0,5.9,2.6,5.9,5.9V389
					C201.7,392.3,199.1,394.9,195.8,394.9z"/>
			</g>
			<g>
				<path class="st4" d="M232.2,394.9c-3.2,0-5.9-2.6-5.9-5.9v-25.9c0-3.2,2.6-5.9,5.9-5.9c3.2,0,5.9,2.6,5.9,5.9V389
					C238,392.3,235.4,394.9,232.2,394.9z"/>
			</g>
			<g>
				<path class="st4" d="M268.5,394.9c-3.2,0-5.9-2.6-5.9-5.9v-25.9c0-3.2,2.6-5.9,5.9-5.9c3.2,0,5.9,2.6,5.9,5.9V389
					C274.4,392.3,271.7,394.9,268.5,394.9z"/>
			</g>
			<g>
				<path class="st4" d="M268.5,261.9H161.4c-3.2,0-5.9-2.6-5.9-5.9s2.6-5.9,5.9-5.9h101.2V123c0-3.2,2.6-5.9,5.9-5.9
					c3.2,0,5.9,2.6,5.9,5.9v133.1C274.4,259.3,271.7,261.9,268.5,261.9z"/>
			</g>
			<g>
				<path class="st4" d="M404.5,317.5c-16.6,0-30-13.5-30-30c0-16.6,13.5-30,30-30c16.6,0,30,13.5,30,30
					C434.6,304,421.1,317.5,404.5,317.5z M404.5,269.1c-10.1,0-18.3,8.2-18.3,18.3c0,10.1,8.2,18.3,18.3,18.3
					c10.1,0,18.3-8.2,18.3-18.3C422.9,277.4,414.6,269.1,404.5,269.1z"/>
			</g>
		</g>
	</g>
</g>
</svg>
