<?xml version="1.0" encoding="utf-8"?>
<!-- Generator: Adobe Illustrator 22.0.1, SVG Export Plug-In . SVG Version: 6.00 Build 0)  -->
<svg version="1.1" id="Icon_Set" xmlns="http://www.w3.org/2000/svg" xmlns:xlink="http://www.w3.org/1999/xlink" x="0px" y="0px"
	 viewBox="0 0 512 512" style="enable-background:new 0 0 512 512;" xml:space="preserve">
<style type="text/css">
	.st0{fill:#FFFFFF;}
	.st1{fill:#F0C48A;}
	.st2{fill:#FD919E;}
	.st3{fill:#E8677D;}
	.st4{fill:#4C4372;}
	.st5{fill:#D3E6F8;}
	.st6{fill:#A4CFF2;}
	.st7{fill:#7BABF1;}
	.st8{fill:none;stroke:#4C4372;stroke-width:12;stroke-linecap:round;stroke-linejoin:round;stroke-miterlimit:10;}
</style>
<g id="Geodetic_Station">
	<g>
		<circle class="st1" cx="256" cy="256" r="207"/>
		<g>
			<g>
				<polygon class="st7" points="18.1,178.7 18.1,333.3 109,458.4 256,506.1 403,458.4 493.9,333.3 493.9,178.7 403,53.6 256,5.9 
					109,53.6 				"/>
			</g>
			<g>
				<polygon class="st6" points="45.3,187.5 45.3,324.5 125.8,435.3 256,477.6 386.2,435.3 466.7,324.5 466.7,187.5 386.2,76.7 
					256,34.4 125.8,76.7 				"/>
			</g>
			<g>
				<polygon class="st5" points="313.8,78.2 198.2,78.2 104.8,146.1 69.1,256 104.8,365.9 198.2,433.8 313.8,433.8 407.2,365.9 
					442.9,256 407.2,146.1 				"/>
			</g>
			<g>
				<polygon class="st3" points="256,142.1 139.1,227 183.7,364.5 328.3,364.5 372.9,227 				"/>
			</g>
			<g>
				<polygon class="st2" points="256,180.5 175.6,238.9 206.3,333.4 305.7,333.4 336.4,238.9 				"/>
			</g>
			<g>
				<path class="st4" d="M256,512c-0.6,0-1.2-0.1-1.8-0.3l-147-47.8c-1.2-0.4-2.2-1.1-2.9-2.1L13.4,336.7c-0.7-1-1.1-2.2-1.1-3.4
					V178.7c0-1.2,0.4-2.4,1.1-3.4l90.9-125.1c0.7-1,1.8-1.7,2.9-2.1l147-47.8c1.2-0.4,2.4-0.4,3.6,0l147,47.8
					c1.2,0.4,2.2,1.1,2.9,2.1l90.9,125.1c0.7,1,1.1,2.2,1.1,3.4v154.6c0,1.2-0.4,2.4-1.1,3.4l-90.9,125.1c-0.7,1-1.8,1.7-2.9,2.1
					l-147,47.8C257.2,511.9,256.6,512,256,512z M112.6,453.4L256,500l143.4-46.6l88.6-122V180.6l-88.6-122L256,12L112.6,58.6
					L24,180.6v150.8L112.6,453.4z"/>
			</g>
			<g>
				<path class="st4" d="M313.8,439.6H198.2c-1.2,0-2.4-0.4-3.4-1.1l-93.5-67.9c-1-0.7-1.7-1.8-2.1-2.9L63.5,257.8
					c-0.4-1.2-0.4-2.4,0-3.6l35.7-109.9c0.4-1.2,1.1-2.2,2.1-2.9l93.5-67.9c1-0.7,2.2-1.1,3.4-1.1h115.5c1.2,0,2.4,0.4,3.4,1.1
					l93.5,67.9c1,0.7,1.7,1.8,2.1,2.9l35.7,109.9c0.4,1.2,0.4,2.4,0,3.6l-35.7,109.9c-0.4,1.2-1.1,2.2-2.1,2.9l-93.5,67.9
					C316.2,439.3,315,439.6,313.8,439.6z M200.1,427.9h111.7l90.4-65.7L436.8,256l-34.5-106.3l-90.4-65.7H200.1l-90.4,65.7L75.2,256
					l34.5,106.3L200.1,427.9z"/>
			</g>
			<g>
				<path class="st4" d="M328.3,370.3H183.7c-2.5,0-4.8-1.6-5.6-4.1l-44.7-137.4c-0.8-2.4,0.1-5.1,2.1-6.6l116.9-84.9
					c2.1-1.5,4.8-1.5,6.9,0l116.9,84.9c2.1,1.5,2.9,4.1,2.1,6.6l-44.7,137.4C333.1,368.7,330.8,370.3,328.3,370.3z M188,358.6h136
					l42-129.3l-110-79.9l-110,79.9L188,358.6z"/>
			</g>
			<g>
				<path class="st4" d="M256,512c-1.8,0-3.5-0.8-4.6-2.2l-55.4-69.3L110.5,464c-1.7,0.5-3.6,0.1-5-0.9c-1.4-1-2.3-2.7-2.4-4.5
					l-4-88.6l-83-31.2c-1.7-0.6-3-2-3.5-3.7c-0.6-1.7-0.3-3.6,0.7-5L62,256l-48.8-74.1c-1-1.5-1.2-3.3-0.7-5c0.6-1.7,1.8-3,3.5-3.7
					l83-31.2l4-88.6c0.1-1.8,1-3.4,2.4-4.5c1.4-1,3.3-1.4,5-0.9l85.5,23.6l55.4-69.3c1.1-1.4,2.8-2.2,4.6-2.2s3.5,0.8,4.6,2.2
					l55.4,69.3L401.5,48c1.7-0.5,3.6-0.1,5,0.9c1.4,1,2.3,2.7,2.4,4.5l4,88.6l83,31.2c1.7,0.6,3,2,3.5,3.7c0.6,1.7,0.3,3.5-0.7,5
					L450,256l48.8,74.1c1,1.5,1.2,3.3,0.7,5c-0.6,1.7-1.8,3-3.5,3.7l-83,31.2l-4,88.6c-0.1,1.8-1,3.4-2.4,4.5c-1.4,1-3.3,1.4-5,0.9
					l-85.5-23.6l-55.4,69.3C259.5,511.2,257.8,512,256,512z M198.2,427.9c1.8,0,3.5,0.8,4.6,2.2l53.2,66.6l53.2-66.6
					c1.5-1.8,3.9-2.6,6.1-2l82.2,22.6l3.9-85.2c0.1-2.3,1.6-4.4,3.8-5.2l79.8-30L438,259.2c-1.3-2-1.3-4.5,0-6.5l46.9-71.2l-79.8-30
					c-2.2-0.8-3.7-2.9-3.8-5.2l-3.9-85.2l-82.2,22.6c-2.3,0.6-4.7-0.2-6.1-2L256,15.3l-53.2,66.6c-1.5,1.8-3.9,2.6-6.1,2l-82.2-22.6
					l-3.9,85.2c-0.1,2.3-1.6,4.4-3.8,5.2l-79.8,30L74,252.8c1.3,2,1.3,4.5,0,6.5L27,330.4l79.8,30c2.2,0.8,3.7,2.9,3.8,5.2l3.9,85.2
					l82.2-22.6C197.2,428,197.7,427.9,198.2,427.9z"/>
			</g>
			<g>
				<path class="st4" d="M256,147.9c-1.7,0-3.2-0.7-4.3-1.9l-57.8-63.9c-2.2-2.4-2-6.1,0.4-8.3c2.4-2.2,6.1-2,8.3,0.4l53.4,59
					l53.4-59c2.2-2.4,5.9-2.6,8.3-0.4c2.4,2.2,2.6,5.9,0.4,8.3L260.3,146C259.2,147.2,257.7,147.9,256,147.9z"/>
			</g>
			<g>
				<path class="st4" d="M442.9,261.9c-0.7,0-1.5-0.1-2.2-0.4l-70-29c-1.4-0.6-2.6-1.7-3.2-3.2c-0.6-1.4-0.6-3.1,0-4.5l34.3-80.9
					c1.3-3,4.7-4.4,7.7-3.1c3,1.3,4.4,4.7,3.1,7.7l-32,75.4l64.5,26.7c3,1.2,4.4,4.7,3.2,7.7C447.4,260.5,445.2,261.9,442.9,261.9z"
					/>
			</g>
			<g>
				<path class="st4" d="M313.8,439.6c-0.4,0-0.8,0-1.2-0.1c-3.2-0.7-5.2-3.8-4.5-6.9l14.5-69.3c0.6-2.8,3-4.7,5.8-4.7l79,1.4
					c3.2,0.1,5.8,2.7,5.8,6c-0.1,3.2-2.7,5.8-6,5.8l-74.1-1.3L319.5,435C318.9,437.7,316.5,439.6,313.8,439.6z"/>
			</g>
			<g>
				<path class="st4" d="M198.2,439.6c-2.7,0-5.2-1.9-5.7-4.7L179,370.4l-74.1,1.3c-3.3,0-5.9-2.5-6-5.8c-0.1-3.2,2.5-5.9,5.8-6
					l79-1.4c2.8,0,5.3,1.9,5.8,4.7l14.5,69.3c0.7,3.2-1.4,6.3-4.5,6.9C199,439.6,198.6,439.6,198.2,439.6z"/>
			</g>
			<g>
				<path class="st4" d="M69.1,261.9c-2.3,0-4.5-1.4-5.4-3.6c-1.2-3,0.2-6.4,3.2-7.7l64.5-26.7l-32-75.4c-1.3-3,0.1-6.4,3.1-7.7
					c3-1.3,6.4,0.1,7.7,3.1l34.3,80.9c0.6,1.4,0.6,3.1,0,4.5c-0.6,1.4-1.7,2.6-3.2,3.2l-70,29C70.6,261.7,69.8,261.9,69.1,261.9z"/>
			</g>
			<g>
				<path class="st4" d="M256,439.6c-1.5,0-2.9-0.5-4.1-1.6l-71.7-68.8l-96.7-54.8c-1.4-0.8-2.4-2.1-2.8-3.7
					c-0.4-1.6-0.1-3.2,0.8-4.6l51.9-81.1l11.8-113.1c0.2-1.7,1.1-3.3,2.5-4.2c1.4-1,3.2-1.3,4.9-0.8L256.1,136l108.9-25.3
					c1.7-0.4,3.5,0,4.8,1c1.4,1,2.2,2.6,2.3,4.4l6.4,109.2l49.6,88.6c0.8,1.4,1,3.1,0.5,4.6c-0.5,1.5-1.5,2.8-3,3.5l-94.1,47.3
					L260.1,438C258.9,439.1,257.5,439.6,256,439.6z M94.7,307.3l92,52.1c0.4,0.2,0.8,0.5,1.2,0.9l68.2,65.4l68.2-65.4
					c0.4-0.4,0.9-0.7,1.4-1l89.4-44.9l-47.3-84.4c-0.4-0.8-0.7-1.6-0.7-2.5L361,123.7l-103.6,24c-1,0.2-2,0.2-2.9-0.1L156.1,120
					l-11.2,107.6c-0.1,0.9-0.4,1.8-0.9,2.6L94.7,307.3z M139.1,227L139.1,227L139.1,227z"/>
			</g>
			<g>
				<path class="st4" d="M256,268.4c-0.6,0-1.1-0.1-1.7-0.3l-116.9-35.5c-3.1-0.9-4.8-4.2-3.9-7.3c0.9-3.1,4.2-4.8,7.3-3.9
					l109.4,33.2V142.1c0-3.2,2.6-5.9,5.9-5.9c3.2,0,5.9,2.6,5.9,5.9v120.4c0,1.9-0.9,3.6-2.4,4.7C258.5,268,257.2,268.4,256,268.4z"
					/>
			</g>
			<g>
				<path class="st4" d="M328.3,370.3c-1.8,0-3.6-0.9-4.8-2.5L256,272.7l-67.5,95.2c-1.9,2.6-5.5,3.3-8.2,1.4
					c-2.6-1.9-3.3-5.5-1.4-8.2l72.3-101.9c1.1-1.6,2.9-2.5,4.8-2.5c1.9,0,3.7,0.9,4.8,2.5L333,361.1c1.9,2.6,1.2,6.3-1.4,8.2
					C330.6,370,329.4,370.3,328.3,370.3z"/>
			</g>
			<g>
				<path class="st4" d="M256,268.4c-2.5,0-4.8-1.6-5.6-4.2c-0.9-3.1,0.8-6.4,3.9-7.3l116.9-35.5c3.1-0.9,6.4,0.8,7.3,3.9
					c0.9,3.1-0.8,6.4-3.9,7.3l-116.9,35.5C257.1,268.3,256.6,268.4,256,268.4z"/>
			</g>
		</g>
	</g>
</g>
</svg>
