<?xml version="1.0" encoding="utf-8"?>
<!-- Generator: Adobe Illustrator 22.0.1, SVG Export Plug-In . SVG Version: 6.00 Build 0)  -->
<svg version="1.1" id="Icon_Set" xmlns="http://www.w3.org/2000/svg" xmlns:xlink="http://www.w3.org/1999/xlink" x="0px" y="0px"
	 viewBox="0 0 512 512" style="enable-background:new 0 0 512 512;" xml:space="preserve">
<style type="text/css">
	.st0{fill:#FFFFFF;}
	.st1{fill:#F0C48A;}
	.st2{fill:#FD919E;}
	.st3{fill:#E8677D;}
	.st4{fill:#4C4372;}
	.st5{fill:#D3E6F8;}
	.st6{fill:#A4CFF2;}
	.st7{fill:#7BABF1;}
	.st8{fill:none;stroke:#4C4372;stroke-width:12;stroke-linecap:round;stroke-linejoin:round;stroke-miterlimit:10;}
</style>
<g id="Binary_Code">
	<g>
		<circle class="st1" cx="256" cy="256" r="207"/>
		<g>
			<g>
				<rect x="207.8" y="344.3" class="st2" width="96.4" height="76.2"/>
			</g>
			<g>
				<rect x="268.1" y="346" class="st3" width="36" height="68.6"/>
			</g>
			<g>
				<rect x="165.7" y="420.5" class="st3" width="180.5" height="43.5"/>
			</g>
			<g>
				<path class="st5" d="M477.5,344.3h-443c-15.8,0-28.6-12.8-28.6-28.6V76.6C5.9,60.8,18.7,48,34.5,48h443
					c15.8,0,28.6,12.8,28.6,28.6v239.1C506.1,331.5,493.3,344.3,477.5,344.3z"/>
			</g>
			<g>
				<path class="st6" d="M472.2,344.3h-5.1V51h5.1c17,0,30.9,13.8,30.9,30.9v231.6C503,330.5,489.2,344.3,472.2,344.3z"/>
			</g>
			<g>
				<rect x="39.2" y="85.8" class="st0" width="433.5" height="220.6"/>
			</g>
			<g>
				<rect x="434" y="87.3" class="st5" width="36" height="219.2"/>
			</g>
			<g>
				<path class="st4" d="M477.5,350.2h-443c-19,0-34.5-15.5-34.5-34.5V76.6c0-19,15.5-34.5,34.5-34.5h443c19,0,34.5,15.5,34.5,34.5
					v239.1C512,334.7,496.5,350.2,477.5,350.2z M34.5,53.8c-12.5,0-22.8,10.2-22.8,22.8v239.1c0,12.5,10.2,22.8,22.8,22.8h443
					c12.5,0,22.8-10.2,22.8-22.8V76.6c0-12.5-10.2-22.8-22.8-22.8H34.5z"/>
			</g>
			<g>
				<path class="st4" d="M472.8,312.3H39.2c-3.2,0-5.9-2.6-5.9-5.9V85.8c0-3.2,2.6-5.9,5.9-5.9h433.5c3.2,0,5.9,2.6,5.9,5.9v220.6
					C478.6,309.7,476,312.3,472.8,312.3z M45.1,300.6h421.8V91.7H45.1V300.6z"/>
			</g>
			<g>
				<path class="st4" d="M304.2,426.3h-96.4c-3.2,0-5.9-2.6-5.9-5.9v-76.2c0-3.2,2.6-5.9,5.9-5.9h96.4c3.2,0,5.9,2.6,5.9,5.9v76.2
					C310,423.7,307.4,426.3,304.2,426.3z M213.7,414.6h84.6v-64.4h-84.6V414.6z"/>
			</g>
			<g>
				<path class="st4" d="M346.3,469.9H165.7c-3.2,0-5.9-2.6-5.9-5.9v-43.5c0-3.2,2.6-5.9,5.9-5.9h180.5c3.2,0,5.9,2.6,5.9,5.9V464
					C352.1,467.3,349.5,469.9,346.3,469.9z M171.6,458.2h168.8v-31.8H171.6V458.2z"/>
			</g>
			<g>
				<path class="st4" d="M230,148.2c0.1-9.5,2.5-18,7-24.6c4.3-6.6,11-11.4,19.1-11.4c7.9,0,14.7,4.8,19,11.4
					c4.4,6.6,6.9,15.1,6.9,24.6c0,9.3-2.5,18-6.9,24.6c-4.3,6.5-11.1,11.4-19,11.4c-8.1,0-14.8-4.9-19.1-11.4
					C232.5,166.1,230.1,157.5,230,148.2z M270.6,148.2c0-7.4-2.1-13.9-4.9-18.3c-3-4.3-6.4-6.4-9.6-6.3c-3.2-0.1-6.7,2-9.8,6.3
					c-2.9,4.4-4.9,10.9-4.9,18.3c0,7.3,2.1,13.9,4.9,18.2c3.1,4.4,6.6,6.4,9.8,6.4c3.2,0,6.6-2,9.6-6.4
					C268.5,162,270.6,155.4,270.6,148.2z"/>
			</g>
			<g>
				<path class="st4" d="M268.1,207.4V268c0,3.2-2.7,5.7-5.8,5.7c-3.2,0-5.7-2.5-5.7-5.7v-50.5l-4.1,2.4c-0.9,0.6-2,0.8-2.9,0.8
					c-2,0-3.8-1-4.8-2.9c-1.7-2.6-0.8-6.2,1.8-7.7l12.6-7.5c0.1-0.1,0.3-0.1,0.4-0.2c0.2,0,0.3-0.2,0.5-0.3c0.2,0,0.4-0.1,0.6-0.1
					c0.1-0.1,0.3-0.1,0.4-0.1c0.2-0.1,0.5-0.1,0.7-0.1c0.1,0,0.2,0,0.3,0h0.1c0.3,0,0.5,0,0.7,0c0.1,0.1,0.3,0.1,0.4,0.1
					c0.3,0,0.4,0.1,0.6,0.2c0.1,0,0.3,0,0.4,0.1c0.3,0.2,0.4,0.3,0.6,0.3c0.1,0.1,0.2,0.2,0.4,0.3c0.1,0.1,0.3,0.2,0.4,0.3
					c0.2,0.1,0.3,0.3,0.4,0.4c0.1,0.1,0.2,0.2,0.3,0.4c0.1,0.1,0.3,0.3,0.4,0.4l0.1,0.2c0,0.1,0.1,0.2,0.1,0.3
					c0.1,0.2,0.2,0.3,0.2,0.5c0.1,0.2,0.1,0.4,0.2,0.5c0,0.2,0.1,0.4,0.1,0.5c0,0.3,0,0.5,0.2,0.7
					C268.1,207.2,268.1,207.3,268.1,207.4z"/>
			</g>
			<g>
				<g>
					<path class="st4" d="M169.9,117.8v60.6c0,3.2-2.7,5.7-5.8,5.7c-3.2,0-5.7-2.5-5.7-5.7v-50.5l-4.1,2.4c-0.9,0.6-2,0.8-2.9,0.8
						c-2,0-3.8-1-4.8-2.9c-1.7-2.6-0.8-6.2,1.8-7.7l12.6-7.5c0.1-0.1,0.3-0.1,0.4-0.2c0.2,0,0.3-0.2,0.5-0.3c0.2,0,0.4-0.1,0.6-0.1
						c0.1-0.1,0.3-0.1,0.4-0.1c0.2-0.1,0.5-0.1,0.7-0.1c0.1,0,0.2,0,0.3,0h0.1c0.3,0,0.5,0,0.7,0c0.1,0.1,0.3,0.1,0.4,0.1
						c0.3,0,0.4,0.1,0.6,0.2c0.1,0,0.3,0,0.4,0.1c0.3,0.2,0.4,0.3,0.6,0.3c0.1,0.1,0.2,0.2,0.4,0.3c0.1,0.1,0.3,0.2,0.4,0.3
						c0.2,0.1,0.3,0.3,0.4,0.4c0.1,0.1,0.2,0.2,0.3,0.4c0.1,0.1,0.3,0.3,0.4,0.4l0.1,0.2c0,0.1,0.1,0.2,0.1,0.3
						c0.1,0.2,0.2,0.3,0.2,0.5c0.1,0.2,0.1,0.4,0.2,0.5c0,0.2,0.1,0.4,0.1,0.5c0,0.3,0,0.5,0.2,0.7
						C169.9,117.6,169.9,117.7,169.9,117.8z"/>
				</g>
				<g>
					<path class="st4" d="M366.2,117.8v60.6c0,3.2-2.7,5.7-5.8,5.7c-3.2,0-5.6-2.5-5.6-5.7v-50.5l-4.1,2.4c-0.9,0.6-2,0.8-2.9,0.8
						c-2,0-3.8-1-4.8-2.9c-1.7-2.6-0.8-6.2,1.8-7.7l12.6-7.5c0.1-0.1,0.3-0.1,0.4-0.2c0.2,0,0.3-0.2,0.5-0.3c0.2,0,0.4-0.1,0.6-0.1
						c0.1-0.1,0.3-0.1,0.4-0.1c0.2-0.1,0.5-0.1,0.7-0.1c0.1,0,0.2,0,0.3,0h0.1c0.3,0,0.5,0,0.7,0c0.1,0.1,0.3,0.1,0.4,0.1
						c0.3,0,0.4,0.1,0.6,0.2c0.1,0,0.3,0,0.4,0.1c0.3,0.2,0.4,0.3,0.6,0.3c0.1,0.1,0.2,0.2,0.4,0.3c0.1,0.1,0.3,0.2,0.4,0.3
						c0.2,0.1,0.3,0.3,0.4,0.4c0.1,0.1,0.2,0.2,0.3,0.4c0.1,0.1,0.3,0.3,0.4,0.4l0.1,0.2c0,0.1,0.1,0.2,0.1,0.3
						c0.1,0.2,0.2,0.3,0.2,0.5c0.1,0.2,0.1,0.4,0.2,0.5c0,0.2,0.1,0.4,0.1,0.5c0,0.3,0,0.5,0.2,0.7
						C366.2,117.6,366.2,117.7,366.2,117.8z"/>
				</g>
				<g>
					<path class="st4" d="M131.9,237.7c0.1-9.5,2.5-18,7-24.6c4.3-6.6,11-11.4,19.1-11.4c7.9,0,14.7,4.8,19,11.4
						c4.4,6.6,6.9,15.1,6.9,24.6c0,9.3-2.5,18-6.9,24.6c-4.3,6.5-11.1,11.4-19,11.4c-8.1,0-14.8-4.9-19.1-11.4
						C134.4,255.7,132,247.1,131.9,237.7z M172.5,237.7c0-7.4-2.1-13.9-4.9-18.3c-3-4.3-6.4-6.4-9.6-6.3c-3.2-0.1-6.7,2-9.8,6.3
						c-2.9,4.4-4.9,10.9-4.9,18.3c0,7.3,2.1,13.9,4.9,18.2c3.1,4.4,6.6,6.4,9.8,6.4c3.2,0,6.6-2,9.6-6.4
						C170.4,251.6,172.5,245,172.5,237.7z"/>
				</g>
				<g>
					<path class="st4" d="M328.1,237.7c0.1-9.5,2.5-18,7-24.6c4.3-6.6,11-11.4,19.1-11.4c7.9,0,14.7,4.8,19,11.4
						c4.4,6.6,6.9,15.1,6.9,24.6c0,9.3-2.5,18-6.9,24.6c-4.3,6.5-11.1,11.4-19,11.4c-8.1,0-14.8-4.9-19.1-11.4
						C330.6,255.7,328.2,247.1,328.1,237.7z M368.7,237.7c0-7.4-2.1-13.9-4.9-18.3c-3-4.3-6.4-6.4-9.6-6.3c-3.2-0.1-6.7,2-9.8,6.3
						c-2.9,4.4-4.9,10.9-4.9,18.3c0,7.3,2.1,13.9,4.9,18.2c3.1,4.4,6.6,6.4,9.8,6.4s6.6-2,9.6-6.4
						C366.7,251.6,368.7,245,368.7,237.7z"/>
				</g>
			</g>
		</g>
	</g>
</g>
</svg>
