<?xml version="1.0" encoding="UTF-8"?>
<svg width="440px" height="440px" viewBox="0 0 440 440" version="1.1" xmlns="http://www.w3.org/2000/svg" xmlns:xlink="http://www.w3.org/1999/xlink">
    <!-- Generator: Sketch 49.3 (51167) - http://www.bohemiancoding.com/sketch -->
    <title>time</title>
    <desc>Created with Sketch.</desc>
    <defs></defs>
    <g id="Page-1" stroke="none" stroke-width="1" fill="none" fill-rule="evenodd">
        <g id="Solutions---Startups" transform="translate(-99.000000, -139.000000)" fill-rule="nonzero">
            <g id="Hero">
                <g id="time" transform="translate(99.000000, 139.000000)">
                    <path d="M251.647615,342.219207 C251.647615,297.868476 284.126463,261.105776 326.689469,254.302714 C323.808281,251.032011 321.974797,246.714683 321.974797,241.874043 C321.974797,232.061935 329.439694,224.08142 339,223.165623 L339,9 L48,9 L48,385 L262.648515,385 C255.576508,372.309673 251.647615,357.787752 251.647615,342.219207 Z" id="XMLID_837_" fill="#A4CFF2"></path>
                    <rect id="XMLID_836_" fill="#FFFFFF" x="9" y="9" width="40" height="376"></rect>
                    <path d="M306.5,73 C305.976923,73 305.323077,73 304.8,72.869341 C304.276923,72.7386819 303.753846,72.6080229 303.230769,72.3467049 C302.707692,72.0853868 302.184615,71.8240687 301.792308,71.5627507 C301.269231,71.3014326 300.876923,70.9094555 300.484615,70.5174785 C300.092308,70.1255014 299.7,69.7335243 299.438462,69.2108882 C299.176923,68.6882521 298.915385,68.296275 298.653846,67.7736389 C298.392308,67.2510028 298.261538,66.7283666 298.130769,66.2057305 C298,65.6830944 298,65.0297993 298,64.5071632 C298,63.984527 298,63.3312319 298.130769,62.8085958 C298.261538,62.2859597 298.392308,61.7633236 298.653846,61.2406874 C298.915385,60.7180513 299.176923,60.1954152 299.438462,59.8034381 C299.7,59.280802 300.092308,58.8888249 300.484615,58.4968479 C300.876923,58.1048708 301.269231,57.7128937 301.792308,57.4515756 C302.315385,57.1902576 302.707692,56.9289395 303.230769,56.6676215 C303.753846,56.4063034 304.276923,56.2756444 304.8,56.1449853 C307.546154,55.6223492 310.553846,56.5369624 312.515385,58.4968479 C312.907692,58.8888249 313.3,59.280802 313.561538,59.8034381 C313.823077,60.3260742 314.084615,60.7180513 314.346154,61.2406874 C314.607692,61.7633236 314.738462,62.2859597 314.869231,62.8085958 C315,63.3312319 315,63.984527 315,64.5071632 C315,66.7283666 314.084615,68.9495701 312.515385,70.5174785 C310.946154,72.0853868 308.723077,73 306.5,73 Z" id="XMLID_835_" fill="#000000"></path>
                    <path d="M275.366038,73 L188.633962,73 C183.924528,73 180,69.2651515 180,64.5 C180,59.8636364 183.793711,56 188.633962,56 L275.366038,56 C280.075472,56 284,59.7348485 284,64.5 C284,69.2651515 280.206289,73 275.366038,73 Z" id="XMLID_834_" fill="#000000"></path>
                    <path d="M188.5,108 C187.976923,108 187.323077,108 186.8,107.869341 C186.276923,107.738682 185.753846,107.608023 185.230769,107.346705 C184.707692,107.085387 184.184615,106.824069 183.792308,106.562751 C183.269231,106.301433 182.876923,105.909456 182.484615,105.517478 C180.915385,103.94957 180,101.728367 180,99.5071632 C180,97.2859597 180.915385,95.0647562 182.484615,93.4968479 C182.876923,93.1048708 183.269231,92.7128937 183.792308,92.4515756 C184.315385,92.1902576 184.707692,91.9289395 185.230769,91.6676215 C185.753846,91.4063034 186.276923,91.2756444 186.8,91.1449853 C189.546154,90.6223492 192.553846,91.5369624 194.515385,93.4968479 C196.084615,95.0647562 197,97.2859597 197,99.5071632 C197,101.728367 196.084615,103.94957 194.515385,105.517478 C194.123077,105.909456 193.730769,106.301433 193.207692,106.562751 C192.684615,106.824069 192.292308,107.085387 191.769231,107.346705 C191.246154,107.608023 190.723077,107.738682 190.2,107.869341 C189.676923,108 189.153846,108 188.5,108 Z" id="XMLID_833_" fill="#000000"></path>
                    <path d="M306.366038,108 L219.633962,108 C214.924528,108 211,104.265152 211,99.5 C211,94.8636364 214.793711,91 219.633962,91 L306.366038,91 C311.075472,91 315,94.7348485 315,99.5 C314.869182,104.265152 311.075472,108 306.366038,108 Z" id="XMLID_832_" fill="#000000"></path>
                    <circle id="XMLID_831_" fill="#FFFFFF" cx="117" cy="82" r="38"></circle>
                    <path d="M117.5,129 C91.8855932,129 71,108.114407 71,82.5 C71,56.8855932 91.8855932,36 117.5,36 C143.114407,36 164,56.8855932 164,82.5 C164,108.114407 143.114407,129 117.5,129 Z M117.5,53.0762712 C101.34322,53.0762712 88.2076271,66.2118644 88.2076271,82.3686441 C88.2076271,98.5254237 101.34322,111.661017 117.5,111.661017 C133.65678,111.661017 146.792373,98.5254237 146.792373,82.3686441 C146.792373,66.2118644 133.65678,53.0762712 117.5,53.0762712 Z" id="XMLID_828_" fill="#000000"></path>
                    <path d="M114.57968,98 C113.535877,98 112.361599,97.7393075 111.317796,97.3482688 L100.357869,92.9164969 C95.9217083,91.0916497 93.8341032,86.1384929 95.6607577,81.706721 C97.4874122,77.2749491 102.445474,75.1894094 106.881635,77.0142566 L112.492074,79.3604888 L123.321526,68.5417515 C126.713885,65.1527495 132.063373,65.1527495 135.455731,68.5417515 C138.84809,71.9307536 138.84809,77.2749491 135.455731,80.6639511 L120.581544,95.5234216 C118.885365,97.0875764 116.79776,98 114.57968,98 Z" id="XMLID_827_" fill="#000000"></path>
                    <path d="M306.5,188 C305.976923,188 305.323077,188 304.8,187.869732 C304.276923,187.739464 303.753846,187.609195 303.230769,187.348659 C302.707692,187.088123 302.184615,186.827586 301.792308,186.56705 C301.269231,186.306513 300.876923,185.915709 300.484615,185.524904 C300.092308,185.1341 299.7,184.743295 299.438462,184.222222 C299.176923,183.701149 298.915385,183.310345 298.653846,182.789272 C298.392308,182.268199 298.261538,181.747126 298.130769,181.226054 C298,180.704981 298,180.05364 298,179.532567 C298,179.011494 298,178.360153 298.130769,177.83908 C298.261538,177.318008 298.392308,176.796935 298.653846,176.275862 C298.915385,175.754789 299.176923,175.233716 299.438462,174.842912 C299.7,174.321839 300.092308,173.931034 300.484615,173.54023 C300.876923,173.149425 301.269231,172.758621 301.792308,172.498084 C302.315385,172.237548 302.707692,171.977011 303.230769,171.716475 C303.753846,171.455939 304.276923,171.32567 304.8,171.195402 C305.846154,170.934866 307.023077,170.934866 308.2,171.195402 C308.723077,171.32567 309.246154,171.455939 309.769231,171.716475 C310.292308,171.977011 310.815385,172.237548 311.207692,172.498084 C311.730769,172.758621 312.123077,173.149425 312.515385,173.54023 C312.907692,173.931034 313.3,174.321839 313.561538,174.842912 C313.823077,175.363985 314.084615,175.754789 314.346154,176.275862 C314.607692,176.796935 314.738462,177.318008 314.869231,177.83908 C315,178.360153 315,179.011494 315,179.532567 C315,180.05364 315,180.704981 314.869231,181.226054 C314.738462,181.747126 314.607692,182.268199 314.346154,182.789272 C314.084615,183.310345 313.823077,183.831418 313.561538,184.222222 C313.3,184.743295 312.907692,185.1341 312.515385,185.524904 C312.123077,185.915709 311.730769,186.306513 311.207692,186.56705 C310.684615,186.827586 310.292308,187.088123 309.769231,187.348659 C309.246154,187.609195 308.723077,187.739464 308.2,187.869732 C307.546154,187.869732 307.023077,188 306.5,188 Z" id="XMLID_826_" fill="#000000"></path>
                    <path d="M275.366038,188 L188.633962,188 C183.924528,188 180,184.265152 180,179.5 C180,174.863636 183.793711,171 188.633962,171 L275.366038,171 C280.075472,171 284,174.734848 284,179.5 C284,184.136364 280.206289,188 275.366038,188 Z" id="XMLID_825_" fill="#000000"></path>
                    <path d="M188.5,223 C187.976923,223 187.323077,223 186.8,222.869732 C186.276923,222.739464 185.753846,222.609195 185.230769,222.348659 C184.707692,222.088123 184.184615,221.827586 183.792308,221.56705 C183.269231,221.306513 182.876923,220.915709 182.484615,220.524904 C182.092308,220.1341 181.7,219.743295 181.438462,219.222222 C181.176923,218.701149 180.915385,218.310345 180.653846,217.789272 C180.392308,217.268199 180.261538,216.747126 180.130769,216.226054 C180,215.704981 180,215.05364 180,214.532567 C180,214.011494 180,213.360153 180.130769,212.83908 C180.261538,212.318008 180.392308,211.796935 180.653846,211.275862 C180.915385,210.754789 181.176923,210.233716 181.438462,209.842912 C181.7,209.321839 182.092308,208.931034 182.484615,208.54023 C182.876923,208.149425 183.269231,207.758621 183.792308,207.498084 C184.315385,207.237548 184.707692,206.977011 185.230769,206.716475 C185.753846,206.455939 186.276923,206.32567 186.8,206.195402 C187.846154,205.934866 189.023077,205.934866 190.2,206.195402 C190.723077,206.32567 191.246154,206.455939 191.769231,206.716475 C192.292308,206.977011 192.815385,207.237548 193.207692,207.498084 C193.730769,207.758621 194.123077,208.149425 194.515385,208.54023 C194.907692,208.931034 195.3,209.321839 195.561538,209.842912 C195.823077,210.363985 196.084615,210.754789 196.346154,211.275862 C196.607692,211.796935 196.738462,212.318008 196.869231,212.83908 C197,213.360153 197,214.011494 197,214.532567 C197,215.05364 197,215.704981 196.869231,216.226054 C196.738462,216.747126 196.607692,217.268199 196.346154,217.789272 C196.084615,218.310345 195.823077,218.831418 195.561538,219.222222 C195.3,219.743295 194.907692,220.1341 194.515385,220.524904 C194.123077,220.915709 193.730769,221.306513 193.207692,221.56705 C192.684615,221.827586 192.292308,222.088123 191.769231,222.348659 C191.246154,222.609195 190.723077,222.739464 190.2,222.869732 C189.676923,222.869732 189.153846,223 188.5,223 Z" id="XMLID_824_" fill="#000000"></path>
                    <path d="M306.366038,223 L219.633962,223 C214.924528,223 211,219.265152 211,214.5 C211,209.863636 214.793711,206 219.633962,206 L306.366038,206 C311.075472,206 315,209.734848 315,214.5 C314.869182,219.136364 311.075472,223 306.366038,223 Z" id="XMLID_823_" fill="#000000"></path>
                    <circle id="XMLID_822_" fill="#FFFFFF" cx="117" cy="197" r="38"></circle>
                    <path d="M117.5,243 C91.8855932,243 71,222.114407 71,196.5 C71,170.885593 91.8855932,150 117.5,150 C143.114407,150 164,170.885593 164,196.5 C164,222.114407 143.114407,243 117.5,243 Z M117.5,167.207627 C101.34322,167.207627 88.2076271,180.34322 88.2076271,196.5 C88.2076271,212.65678 101.34322,225.792373 117.5,225.792373 C133.65678,225.792373 146.792373,212.65678 146.792373,196.5 C146.792373,180.34322 133.65678,167.207627 117.5,167.207627 Z" id="XMLID_819_" fill="#000000"></path>
                    <path d="M114.57968,213 C113.535877,213 112.361599,212.739308 111.317796,212.348269 L100.357869,207.916497 C95.9217083,206.09165 93.8341032,201.138493 95.6607577,196.706721 C97.4874122,192.274949 102.445474,190.189409 106.881635,192.014257 L112.492074,194.360489 L123.321526,183.541752 C126.713885,180.152749 132.063373,180.152749 135.455731,183.541752 C138.84809,186.930754 138.84809,192.274949 135.455731,195.663951 L120.581544,210.523422 C118.885365,212.217923 116.79776,213 114.57968,213 Z" id="XMLID_818_" fill="#000000"></path>
                    <path d="M306.5,302 C305.976923,302 305.323077,302 304.8,301.869231 C304.276923,301.738462 303.753846,301.607692 303.230769,301.346154 C302.707692,301.084615 302.184615,300.823077 301.792308,300.561538 C301.269231,300.3 300.876923,299.907692 300.484615,299.515385 C300.092308,299.123077 299.7,298.730769 299.438462,298.207692 C299.176923,297.684615 298.915385,297.292308 298.653846,296.769231 C298.392308,296.246154 298.261538,295.723077 298.130769,295.2 C298,294.676923 298,294.023077 298,293.5 C298,292.976923 298,292.323077 298.130769,291.8 C298.261538,291.276923 298.392308,290.753846 298.653846,290.230769 C298.915385,289.707692 299.176923,289.184615 299.438462,288.792308 C299.7,288.269231 300.092308,287.876923 300.484615,287.484615 C302.053846,285.915385 304.276923,285 306.5,285 C308.723077,285 310.946154,285.915385 312.515385,287.484615 C312.907692,287.876923 313.3,288.269231 313.561538,288.792308 C313.823077,289.315385 314.084615,289.707692 314.346154,290.230769 C314.607692,290.753846 314.738462,291.276923 314.869231,291.8 C315,292.323077 315,292.976923 315,293.5 C315,294.023077 315,294.676923 314.869231,295.2 C314.738462,295.723077 314.607692,296.246154 314.346154,296.769231 C314.084615,297.292308 313.823077,297.815385 313.561538,298.207692 C313.3,298.730769 312.907692,299.123077 312.515385,299.515385 C310.946154,301.084615 308.723077,302 306.5,302 Z" id="XMLID_817_" fill="#000000"></path>
                    <path d="M188.5,338 C186.276923,338 184.053846,337.088123 182.484615,335.524904 C182.092308,335.1341 181.7,334.743295 181.438462,334.222222 C181.176923,333.701149 180.915385,333.310345 180.653846,332.789272 C180.392308,332.268199 180.261538,331.747126 180.130769,331.226054 C180,330.704981 180,330.05364 180,329.532567 C180,329.011494 180,328.360153 180.130769,327.83908 C180.261538,327.318008 180.392308,326.796935 180.653846,326.275862 C180.915385,325.754789 181.176923,325.233716 181.438462,324.842912 C181.7,324.321839 182.092308,323.931034 182.484615,323.54023 C182.876923,323.149425 183.269231,322.758621 183.792308,322.498084 C184.315385,322.237548 184.707692,321.977011 185.230769,321.716475 C185.753846,321.455939 186.276923,321.32567 186.8,321.195402 C187.846154,320.934866 189.023077,320.934866 190.2,321.195402 C190.723077,321.32567 191.246154,321.455939 191.769231,321.716475 C192.292308,321.977011 192.815385,322.237548 193.207692,322.498084 C193.730769,322.758621 194.123077,323.149425 194.515385,323.54023 C194.907692,323.931034 195.3,324.321839 195.561538,324.842912 C195.823077,325.363985 196.084615,325.754789 196.346154,326.275862 C196.607692,326.796935 196.738462,327.318008 196.869231,327.83908 C197,328.360153 197,329.011494 197,329.532567 C197,330.05364 197,330.704981 196.869231,331.226054 C196.738462,331.747126 196.607692,332.268199 196.346154,332.789272 C196.084615,333.310345 195.823077,333.831418 195.561538,334.222222 C195.3,334.743295 194.907692,335.1341 194.515385,335.524904 C193.076923,337.088123 190.853846,338 188.5,338 Z" id="XMLID_816_" fill="#000000"></path>
                    <circle id="XMLID_815_" fill="#FFFFFF" cx="117" cy="311" r="38"></circle>
                    <path d="M117.5,358 C91.8855932,358 71,337.114407 71,311.5 C71,285.885593 91.8855932,265 117.5,265 C143.114407,265 164,285.885593 164,311.5 C164,337.114407 143.114407,358 117.5,358 Z M117.5,282.076271 C101.34322,282.076271 88.2076271,295.211864 88.2076271,311.368644 C88.2076271,327.525424 101.34322,340.661017 117.5,340.661017 C133.65678,340.661017 146.792373,327.525424 146.792373,311.368644 C146.792373,295.211864 133.65678,282.076271 117.5,282.076271 Z" id="XMLID_812_" fill="#000000"></path>
                    <path d="M114.57968,327 C113.535877,327 112.361599,326.739308 111.317796,326.348269 L100.357869,321.916497 C95.9217083,320.09165 93.8341032,315.138493 95.6607577,310.706721 C97.4874122,306.274949 102.445474,304.189409 106.881635,306.014257 L112.492074,308.360489 L123.321526,297.541752 C126.713885,294.152749 132.063373,294.152749 135.455731,297.541752 C138.84809,300.930754 138.84809,306.274949 135.455731,309.663951 L120.581544,324.523422 C118.885365,326.087576 116.79776,327 114.57968,327 Z" id="XMLID_811_" fill="#000000"></path>
                    <circle id="XMLID_810_" fill="#F48F9D" cx="341" cy="342" r="89"></circle>
                    <path d="M413.549645,291 L431,273.672535 L411.187943,254 L394,271.066901 C401.478723,276.669014 408.039007,283.443662 413.549645,291 Z" id="XMLID_809_" fill="#F48F9D"></path>
                    <g id="XMLID_806_" transform="translate(280.000000, 222.000000)">
                        <path d="M60.7617021,30.5601449 C65.6031915,30.5601449 70.3138298,30.9536232 74.893617,31.7405797 C77.7723404,28.4615942 79.6042553,24.1333333 79.6042553,19.2804348 C79.6042553,8.78768116 71.2297872,0.393478261 60.7617021,0.393478261 C50.293617,0.393478261 41.9191489,8.78768116 41.9191489,19.2804348 C41.9191489,24.0021739 43.6202128,28.4615942 46.6297872,31.7405797 C51.2095745,30.9536232 55.9202128,30.5601449 60.7617021,30.5601449 Z" id="XMLID_808_" fill="#F48F9D"></path>
                        <path d="M121.345745,119.87971 L121.345745,120.273188 C121.214894,137.97971 113.625532,153.85 101.456383,164.867391 C90.7265957,174.704348 76.4638298,180.606522 60.7617021,180.606522 C27.3946809,180.606522 0.177659574,153.456522 0.177659574,119.87971 C0.177659574,86.8275362 26.6095745,59.9398551 59.3223404,59.284058 C59.7148936,59.284058 60.2382979,59.284058 60.6308511,59.284058 C94.1287234,59.284058 121.345745,86.434058 121.345745,119.87971 Z" id="XMLID_807_" fill="#FFFFFF"></path>
                    </g>
                    <path d="M402,342.606452 L402,343 L341,343 L341,282 C374.596112,282 402,309.154839 402,342.606452 Z" id="XMLID_805_" fill="#F48F9D"></path>
                    <path d="M437.446049,279.452381 C440.851317,276.047619 440.851317,270.678571 437.446049,267.27381 L417.669296,247.5 C414.264027,244.095238 408.894181,244.095238 405.488912,247.5 L393.308528,259.678571 C385.450216,254.702381 376.806072,250.77381 367.50707,248.154762 C368.030957,246.059524 368.292901,243.964286 368.292901,241.738095 C368.292901,228.904762 359.386814,218.166667 347.599345,215.154762 L347.599345,8.64285714 C347.599345,3.92857143 343.801161,0 338.955202,0 L48.1976485,0 L8.64414347,0 C3.92915612,0 0,3.79761905 0,8.64285714 L0,385 C0,389.714286 3.79818425,393.642857 8.64414347,393.642857 L48.1976485,393.642857 L257.883614,393.642857 C275.171901,421.404762 305.95029,440 341.050752,440 C395.011162,440 438.886739,396.130952 438.886739,342.178571 C438.886739,323.845238 433.778836,306.690476 425.003721,292.02381 L437.446049,279.452381 Z M411.775562,265.833333 L419.37193,273.428571 L414.787915,278.011905 C412.430421,275.261905 409.941956,272.77381 407.322518,270.416667 L411.775562,265.833333 Z M351.266558,241.738095 C351.266558,242.916667 351.135586,243.964286 350.74267,244.880952 C350.218783,244.880952 349.694895,244.75 349.171008,244.75 C348.909064,244.75 348.64712,244.75 348.516148,244.75 C348.123233,244.75 347.599345,244.75 347.20643,244.619048 C346.813514,244.619048 346.420598,244.619048 346.027683,244.488095 C345.765739,244.488095 345.503795,244.488095 345.241851,244.488095 C343.932133,244.488095 342.491442,244.357143 341.181723,244.357143 C337.907427,244.357143 334.63313,244.488095 331.489805,244.880952 C331.489805,244.75 331.358833,244.619048 331.358833,244.619048 C331.358833,244.488095 331.358833,244.488095 331.227861,244.357143 C331.227861,244.095238 331.096889,243.964286 331.096889,243.702381 C331.096889,243.571429 331.096889,243.571429 331.096889,243.440476 C331.096889,243.178571 331.096889,243.047619 330.965918,242.785714 C330.965918,242.654762 330.965918,242.654762 330.965918,242.52381 C330.965918,242.261905 330.965918,242 330.965918,241.607143 C330.965918,241.214286 330.965918,240.952381 330.965918,240.559524 C330.965918,240.559524 330.965918,240.428571 330.965918,240.428571 C330.965918,240.166667 331.096889,239.904762 331.096889,239.642857 C331.096889,239.642857 331.096889,239.511905 331.096889,239.511905 C331.096889,239.25 331.227861,238.988095 331.358833,238.595238 C331.358833,238.595238 331.358833,238.595238 331.358833,238.595238 C332.668552,234.404762 336.597708,231.392857 341.181723,231.392857 C346.682542,231.52381 351.266558,236.107143 351.266558,241.738095 Z M17.2882869,17.2857143 L39.553505,17.2857143 L39.553505,376.488095 L17.2882869,376.488095 L17.2882869,17.2857143 Z M249.370442,376.357143 L56.7108201,376.357143 L56.7108201,17.2857143 L330.44203,17.2857143 L330.44203,216.333333 C322.583718,219.607143 316.689984,226.285714 314.463462,234.535714 C314.463462,234.666667 314.33249,234.797619 314.33249,235.059524 C314.201518,235.321429 314.201518,235.714286 314.070546,235.97619 C313.939574,236.369048 313.939574,236.761905 313.808602,237.154762 C313.808602,237.416667 313.677631,237.678571 313.677631,237.940476 C313.546659,238.464286 313.546659,238.988095 313.546659,239.511905 C313.546659,239.642857 313.546659,239.904762 313.546659,240.035714 C313.546659,240.690476 313.415687,241.214286 313.415687,241.869048 C313.415687,242.392857 313.415687,242.916667 313.415687,243.309524 C313.415687,243.440476 313.415687,243.571429 313.415687,243.702381 C313.415687,244.095238 313.415687,244.488095 313.546659,244.75 C313.546659,244.880952 313.546659,245.011905 313.546659,245.142857 C313.546659,245.535714 313.677631,246.059524 313.808602,246.452381 C313.808602,246.452381 313.808602,246.452381 313.808602,246.583333 C313.939574,247.107143 314.070546,247.630952 314.070546,248.02381 C314.070546,248.02381 314.070546,248.02381 314.070546,248.02381 C313.939574,248.02381 313.939574,248.02381 313.808602,248.154762 C312.891799,248.416667 311.974996,248.678571 311.189165,248.940476 C310.796249,249.071429 310.403334,249.202381 310.14139,249.333333 C309.486531,249.595238 308.831671,249.72619 308.176812,249.988095 C307.652925,250.119048 307.129037,250.380952 306.736121,250.511905 C306.081262,250.77381 305.426403,251.035714 304.771543,251.297619 C304.247656,251.428571 303.85474,251.690476 303.330853,251.952381 C302.937937,252.083333 302.545022,252.345238 302.152106,252.47619 C301.104331,253 300.056556,253.392857 299.008781,253.916667 C298.877809,254.047619 298.746837,254.047619 298.615865,254.178571 C297.961006,254.440476 297.306147,254.833333 296.651287,255.22619 C296.651287,255.22619 296.520316,255.22619 296.520316,255.357143 C285.387707,261.119048 275.302872,268.97619 266.920673,278.666667 C265.087067,280.892857 263.25346,283.119048 261.681798,285.345238 L188.861438,285.345238 C184.14645,285.345238 180.217294,289.142857 180.217294,293.988095 C180.217294,298.702381 184.015478,302.630952 188.861438,302.630952 L251.727936,302.630952 C251.204048,303.940476 250.680161,305.119048 250.156273,306.428571 C249.89433,307.083333 249.632386,307.738095 249.370442,308.392857 C249.370442,308.392857 249.370442,308.392857 249.370442,308.392857 C247.929751,312.452381 246.620033,316.511905 245.70323,320.702381 L220.163715,320.702381 C215.448727,320.702381 211.519571,324.5 211.519571,329.345238 C211.519571,334.190476 215.317756,337.988095 220.163715,337.988095 L243.476708,337.988095 C243.476708,338.380952 243.476708,338.77381 243.476708,339.166667 C243.476708,339.428571 243.476708,339.821429 243.476708,340.083333 C243.476708,340.869048 243.476708,341.654762 243.476708,342.440476 C243.476708,343.22619 243.476708,344.011905 243.476708,344.797619 C243.476708,345.190476 243.476708,345.452381 243.476708,345.845238 C243.476708,346.238095 243.476708,346.630952 243.476708,347.154762 C243.476708,347.678571 243.476708,348.071429 243.60768,348.595238 C243.60768,348.857143 243.60768,349.119048 243.60768,349.380952 C243.60768,349.904762 243.738652,350.428571 243.738652,351.083333 C243.738652,351.214286 243.738652,351.345238 243.738652,351.607143 C243.738652,352.261905 243.869623,352.916667 243.869623,353.571429 C243.869623,353.571429 243.869623,353.571429 243.869623,353.702381 C244.524483,359.464286 245.70323,365.095238 247.274892,370.464286 C247.274892,370.595238 247.405864,370.72619 247.405864,370.988095 C247.536836,371.511905 247.667808,371.904762 247.79878,372.428571 C247.929751,372.821429 248.060723,373.083333 248.191695,373.47619 C248.322667,373.738095 248.453639,374.130952 248.453639,374.392857 C248.715583,375.047619 248.846555,375.702381 249.108498,376.357143 C249.108498,376.357143 249.108498,376.357143 249.108498,376.357143 C249.23947,375.964286 249.370442,376.22619 249.370442,376.357143 Z M341.050752,422.714286 C305.819318,422.714286 275.82676,400.059524 264.825123,368.5 C264.694151,368.238095 264.563179,367.845238 264.563179,367.583333 C264.432207,367.321429 264.301235,366.928571 264.301235,366.666667 C264.170263,366.142857 263.90832,365.488095 263.777348,364.964286 C263.777348,364.833333 263.646376,364.702381 263.646376,364.571429 C262.205685,359.72619 261.288882,354.880952 260.895967,349.904762 C260.895967,349.77381 260.895967,349.77381 260.895967,349.642857 C260.895967,348.988095 260.764995,348.202381 260.764995,347.547619 C260.764995,347.416667 260.764995,347.154762 260.764995,347.02381 C260.764995,346.369048 260.764995,345.845238 260.634023,345.190476 C260.634023,344.928571 260.634023,344.797619 260.634023,344.535714 C260.634023,343.75 260.634023,342.964286 260.634023,342.178571 C260.634023,341 260.634023,339.952381 260.764995,338.77381 C260.764995,338.642857 260.764995,338.380952 260.764995,338.25 C260.764995,337.333333 260.895967,336.285714 260.895967,335.369048 C260.895967,334.97619 260.895967,334.583333 261.026939,334.321429 C261.15791,333.535714 261.15791,332.75 261.288882,331.964286 C261.419854,331.309524 261.419854,330.785714 261.550826,330.130952 C261.550826,330 261.550826,329.869048 261.550826,329.869048 C266.527757,297.52381 290.888525,271.595238 322.321774,264 C322.845662,263.869048 323.500521,263.738095 324.024408,263.607143 C324.286352,263.47619 324.679268,263.47619 324.941211,263.345238 C325.988986,263.083333 327.036761,262.952381 328.084536,262.821429 C328.215508,262.821429 328.477452,262.821429 328.608424,262.690476 C329.525227,262.559524 330.573002,262.428571 331.489805,262.297619 C331.620777,262.297619 331.751749,262.297619 331.751749,262.297619 C333.847299,262.035714 335.942849,261.904762 337.907427,261.77381 C337.907427,261.77381 338.038399,261.77381 338.038399,261.77381 C340.133949,261.642857 342.098527,261.642857 344.194076,261.77381 C344.325048,261.77381 344.45602,261.77381 344.586992,261.77381 C345.503795,261.77381 346.55157,261.904762 347.468373,261.904762 C347.599345,261.904762 347.861289,261.904762 347.992261,261.904762 C348.778092,261.904762 349.432951,262.035714 350.218783,262.166667 C350.480726,262.166667 350.873642,262.297619 351.135586,262.297619 C351.921417,262.428571 352.707248,262.559524 353.493079,262.559524 C392.129781,268.583333 421.729424,301.97619 421.729424,342.178571 C421.598452,386.571429 385.450216,422.714286 341.050752,422.714286 Z" id="XMLID_798_" fill="#4D4472"></path>
                    <path d="M341,273 C340.477273,273 339.954545,273 339.431818,273 C321.397727,273.392045 304.409091,280.710227 291.732955,293.647727 C279.056818,306.585227 272,323.835227 272,342 C272,380.028409 302.971591,411 341,411 C358.25,411 374.715909,404.596591 387.392045,393.096591 C401.636364,380.159091 409.869318,361.602273 410,342.392045 L410,342 C410,303.971591 379.028409,273 341,273 Z M389.875,324.619318 C390.005682,325.142045 390.267045,325.664773 390.397727,326.1875 C390.528409,326.448864 390.528409,326.710227 390.659091,326.971591 C390.789773,327.494318 390.920455,328.017045 391.051136,328.539773 C391.181818,328.801136 391.181818,329.0625 391.3125,329.323864 C391.443182,329.977273 391.573864,330.5 391.704545,331.153409 C391.704545,331.284091 391.835227,331.414773 391.835227,331.545455 C391.965909,332.198864 392.096591,332.982955 392.227273,333.636364 L349.625,333.636364 L349.625,290.772727 C350.147727,290.903409 350.670455,290.903409 351.0625,291.034091 C351.193182,291.034091 351.323864,291.034091 351.454545,291.164773 C352.238636,291.295455 353.022727,291.556818 353.806818,291.6875 C354.068182,291.6875 354.198864,291.818182 354.460227,291.818182 C354.982955,291.948864 355.505682,292.079545 356.159091,292.340909 C356.420455,292.471591 356.681818,292.471591 356.943182,292.602273 C357.465909,292.732955 357.988636,292.994318 358.380682,293.125 C358.642045,293.255682 358.903409,293.255682 359.164773,293.386364 C359.6875,293.647727 360.340909,293.778409 360.863636,294.039773 C360.994318,294.039773 361.125,294.170455 361.386364,294.170455 C362.039773,294.431818 362.823864,294.823864 363.477273,295.085227 C363.738636,295.215909 363.869318,295.346591 364.130682,295.346591 C364.653409,295.607955 365.045455,295.869318 365.568182,296.130682 C365.829545,296.261364 366.090909,296.392045 366.352273,296.522727 C366.744318,296.784091 367.267045,297.045455 367.659091,297.306818 C367.920455,297.4375 368.181818,297.568182 368.3125,297.698864 C368.835227,297.960227 369.357955,298.352273 369.75,298.613636 C369.880682,298.744318 370.011364,298.744318 370.142045,298.875 C370.795455,299.267045 371.318182,299.789773 371.971591,300.181818 C372.102273,300.3125 372.363636,300.443182 372.494318,300.573864 C372.886364,300.965909 373.409091,301.227273 373.801136,301.619318 C374.0625,301.75 374.193182,302.011364 374.454545,302.142045 C374.846591,302.403409 375.238636,302.795455 375.630682,303.1875 C375.892045,303.318182 376.022727,303.579545 376.284091,303.710227 C376.676136,304.102273 377.198864,304.494318 377.590909,304.886364 C377.721591,305.017045 377.852273,305.147727 377.982955,305.278409 C378.505682,305.801136 379.028409,306.323864 379.551136,306.846591 C379.681818,306.977273 379.8125,307.238636 379.943182,307.369318 C380.335227,307.761364 380.727273,308.153409 380.988636,308.545455 C381.119318,308.806818 381.380682,308.9375 381.511364,309.198864 C381.772727,309.590909 382.164773,309.982955 382.426136,310.375 C382.556818,310.636364 382.6875,310.767045 382.948864,311.028409 C383.340909,311.551136 383.602273,311.943182 383.994318,312.465909 C384.125,312.596591 384.125,312.727273 384.255682,312.857955 C384.647727,313.511364 385.039773,314.164773 385.431818,314.818182 C385.5625,314.948864 385.693182,315.210227 385.693182,315.340909 C385.954545,315.863636 386.215909,316.255682 386.477273,316.778409 C386.607955,317.039773 386.738636,317.301136 386.869318,317.431818 C387.130682,317.954545 387.392045,318.346591 387.522727,318.869318 C387.653409,319.130682 387.784091,319.392045 387.914773,319.522727 C388.176136,320.045455 388.4375,320.698864 388.698864,321.221591 C388.698864,321.352273 388.829545,321.482955 388.829545,321.613636 C389.090909,322.267045 389.352273,323.051136 389.613636,323.704545 C389.744318,324.227273 389.744318,324.488636 389.875,324.619318 Z M375.892045,380.420455 C366.352273,389.045455 353.9375,393.880682 341,393.880682 C312.380682,393.880682 289.119318,370.619318 289.119318,342 C289.119318,316.517045 307.9375,294.954545 332.375,290.903409 L332.375,342.392045 C332.375,347.096591 336.164773,351.017045 341,351.017045 L392.096591,351.017045 C390.136364,362.255682 384.386364,372.579545 375.892045,380.420455 Z" id="XMLID_794_" fill="#4D4472"></path>
                </g>
            </g>
        </g>
    </g>
</svg>