<?xml version="1.0" encoding="UTF-8"?>
<svg width="1440px" height="429px" viewBox="0 0 1440 429" version="1.1" xmlns="http://www.w3.org/2000/svg" xmlns:xlink="http://www.w3.org/1999/xlink">
    <!-- Generator: Sketch 49.3 (51167) - http://www.bohemiancoding.com/sketch -->
    <title>pt5</title>
    <desc>Created with Sketch.</desc>
    <defs></defs>
    <g id="Page-1" stroke="none" stroke-width="1" fill="none" fill-rule="evenodd">
        <g id="Solutions---Startups" transform="translate(0.000000, -653.000000)">
            <g id="Hero">
                <g id="pt5" transform="translate(0.000000, 1.000000)">
                    <g transform="translate(0.000000, 652.000000)">
                        <path d="M1118.11765,190.193572 L1143,190.193572 L1143,145.781592 L1118.11765,145.781592 C1117.97941,145.781592 1113.55588,135.511322 1113.27941,134.956172 L1130.97353,117.607743 L1100.28529,87.0745069 L1081.34706,104.978086 C1080.79412,104.700511 1071.11765,100.398101 1068.35294,100.259313 L1068.35294,75 L1025.5,75 L1025.5,100.120526 C1025.5,100.259313 1015.27059,104.700511 1014.71765,104.978086 L997.438235,87.2132944 L967.026471,118.024105 L984.858824,134.817385 C984.582353,135.372535 980.297059,145.642805 980.158824,145.642805 L955,145.642805 L955,190.054785 L980.020588,190.054785 C980.158824,191.442659 984.582353,201.712929 984.858824,202.406866 L967.164706,220.449233 L997.852941,251.398831 L1014.57941,233.634039 C1015.13235,233.911614 1025.36176,238.352812 1025.36176,238.630387 L1025.36176,265 L1068.21471,265 L1068.21471,238.630387 C1070.97941,238.4916 1080.51765,234.050402 1081.20882,233.772827 L1099.45588,251.537619 L1130.55882,220.726808 L1113.00294,202.406866 C1113.27941,201.851717 1117.84118,191.581446 1118.11765,190.193572 Z" id="XMLID_102_" fill="#FD919E" fill-rule="nonzero"></path>
                        <path d="M1070,169.5 C1070,181.414013 1060.41401,191 1048.5,191 C1036.58599,191 1027,181.414013 1027,169.5 C1027,157.585987 1036.58599,148 1048.5,148 C1060.41401,148 1070,157.72293 1070,169.5 Z" id="Shape" fill="#31C0D8" fill-rule="nonzero"></path>
                        <g id="Group" transform="translate(101.000000, 233.000000)" fill-rule="nonzero">
                            <path d="M164.343066,115.109489 L190,115.109489 L190,70.729927 L164.343066,70.729927 C164.20438,70.729927 159.766423,60.4671533 159.489051,59.9124088 L177.240876,42.5766423 L146.452555,12.0656934 L127.868613,29.9562044 C127.313869,29.6788321 116.635036,25.379562 115.248175,25.2408759 L115.248175,0 L70.8686131,0 L70.8686131,25.1021898 C70.8686131,25.2408759 60.8832117,29.6788321 60.3284672,29.9562044 L43.270073,12.2043796 L12.7591241,42.9927007 L30.649635,59.7737226 C30.3722628,60.3284672 26.0729927,70.5912409 25.9343066,70.5912409 L0,70.5912409 L0,114.970803 L25.7956204,114.970803 C25.9343066,116.357664 30.3722628,126.620438 30.649635,127.313869 L12.8978102,145.343066 L43.6861314,176.270073 L60.189781,158.518248 C60.7445255,158.79562 70.729927,163.233577 70.729927,163.510949 L70.729927,189.861314 L115.109489,189.861314 L115.109489,163.510949 C116.49635,163.372263 127.175182,158.934307 127.729927,158.656934 L145.89781,176.408759 L176.963504,145.620438 L159.350365,127.313869 C159.627737,126.759124 164.065693,116.49635 164.343066,115.109489 Z" id="XMLID_101_" fill="#A4CFF2"></path>
                            <path d="M116.773723,94.3065693 C116.773723,106.372263 107.065693,116.080292 95,116.080292 C82.9343066,116.080292 73.2262774,106.372263 73.2262774,94.3065693 C73.2262774,82.2408759 82.9343066,72.5328467 95,72.5328467 C107.065693,72.5328467 116.773723,82.379562 116.773723,94.3065693 Z" id="Shape" fill="#FD919E"></path>
                        </g>
                        <circle id="Oval" fill="#31C0D8" fill-rule="nonzero" cx="834.5" cy="123.5" r="103.5"></circle>
                        <circle id="Oval" fill="#C8E2F7" fill-rule="nonzero" cx="835.5" cy="123.5" r="61.5"></circle>
                        <ellipse id="Oval" fill="#FD919E" fill-rule="nonzero" cx="1196.5" cy="91" rx="47.5" ry="48"></ellipse>
                        <circle id="Oval" fill="#31C0D8" fill-rule="nonzero" cx="1198" cy="91" r="29"></circle>
                        <ellipse id="Oval" fill="#FD919E" fill-rule="nonzero" cx="352.5" cy="158" rx="47.5" ry="48"></ellipse>
                        <circle id="Oval" fill="#31C0D8" fill-rule="nonzero" cx="355" cy="158" r="29"></circle>
                        <polyline id="XMLID_100_" fill="#FD919E" fill-rule="nonzero" points="793 80 735 80 735 112 793 112"></polyline>
                        <polyline id="XMLID_99_" fill="#FD919E" fill-rule="nonzero" points="881 112 912.814059 112 942 96 912.814059 80 881 80"></polyline>
                        <path d="M811,110.713969 C811,114.700665 807.821192,118 803.980132,118 L798.019868,118 C794.178808,118 791,114.700665 791,110.713969 L791,63.286031 C791,59.2993348 794.178808,56 798.019868,56 L803.980132,56 C807.821192,56 811,59.2993348 811,63.286031 L811,110.713969 Z" id="XMLID_98_" stroke="#000000" stroke-width="4" stroke-linejoin="round"></path>
                        <path d="M833,108.977778 L833,64.7511111 C833,60.7555556 831.933333,58 828.066667,58 L821,58 C817.133333,58 813,60.7555556 813,64.7511111 L813,112.008889 C813,116.004444 817.133333,120 821,120 L827.666667,120" id="XMLID_97_" stroke="#000000" stroke-width="4" stroke-linejoin="round"></path>
                        <path d="M833,97 L833,64.825 C833,60.7857143 838.847953,58 843.087719,58 L850.836257,58 C855.076023,58 858,60.7857143 858,64.825 L858,97" id="XMLID_96_" stroke="#000000" stroke-width="4" stroke-linejoin="round"></path>
                        <path d="M856,108.875 L856,64.7375 C856,60.75 859.85,58 863.8375,58 L871.125,58 C875.1125,58 878,60.75 878,64.7375 L878,113" id="XMLID_95_" stroke="#000000" stroke-width="4" stroke-linejoin="round"></path>
                        <path d="M890,121.980132 C890,125.821192 886.700665,129 882.713969,129 L835.286031,129 C831.299335,129 828,125.821192 828,121.980132 L828,116.019868 C828,112.178808 831.299335,109 835.286031,109 L882.713969,109 C886.700665,109 890,112.178808 890,116.019868 L890,121.980132 Z" id="XMLID_94_" stroke="#000000" stroke-width="4" stroke-linejoin="round"></path>
                        <rect id="XMLID_93_" stroke="#000000" stroke-width="4" stroke-linejoin="round" x="784" y="164" width="103" height="20"></rect>
                        <polyline id="XMLID_92_" stroke="#000000" stroke-width="4" stroke-linejoin="round" points="794 368 794 184 878 184 878 365.233083"></polyline>
                        <path d="M813,195 L813,207" id="XMLID_91_" stroke="#000000" stroke-width="4" stroke-linejoin="round"></path>
                        <path d="M813,214 L813,223" id="XMLID_90_" stroke="#000000" stroke-width="4" stroke-linejoin="round"></path>
                        <path d="M911,80 L911,112" id="XMLID_89_" stroke="#000000" stroke-width="4" stroke-linejoin="round"></path>
                        <path d="M761,93 L793,93" id="XMLID_88_" stroke="#000000" stroke-width="4" stroke-linejoin="round"></path>
                        <path d="M881,93 L910,93" id="XMLID_87_" stroke="#000000" stroke-width="4" stroke-linejoin="round"></path>
                        <path d="M761,80 L761,112" id="XMLID_86_" stroke="#000000" stroke-width="4" stroke-linejoin="round"></path>
                        <path d="M793,113 L793,164 L869.520685,164 C869.520685,164 890,151.87027 890,126.508108" id="XMLID_85_" stroke="#000000" stroke-width="4" stroke-linejoin="round"></path>
                        <polyline id="XMLID_84_" stroke="#000000" stroke-width="4" stroke-linejoin="round" points="1186.21528 210.106788 1186.21528 104.811036 1168 104.811036 1198.5 62 1229 104.811036 1211.63194 104.811036 1211.63194 411"></polyline>
                        <polyline id="XMLID_83_" stroke="#000000" stroke-width="4" stroke-linejoin="round" points="369.925926 286.821248 369.925926 181.728499 388 181.728499 357.5 139 327 181.728499 344.509259 181.728499 344.509259 385"></polyline>
                        <rect id="XMLID_82_" fill="#FFFFFF" fill-rule="nonzero" x="420" y="74" width="58" height="35"></rect>
                        <path d="M477,93 L590,93" id="XMLID_81_" stroke="#000000" stroke-width="4" stroke-linejoin="round"></path>
                        <path d="M427,84 L436,84" id="XMLID_80_" stroke="#000000" stroke-width="4" stroke-linejoin="round"></path>
                        <path d="M427,94 L466,94" id="XMLID_79_" stroke="#000000" stroke-width="4" stroke-linejoin="round"></path>
                        <rect id="XMLID_78_" fill="#FFFFFF" fill-rule="nonzero" x="589" y="74" width="58" height="35"></rect>
                        <path d="M598,84 L607,84" id="XMLID_77_" stroke="#000000" stroke-width="4" stroke-linejoin="round"></path>
                        <path d="M598,94 L637,94" id="XMLID_76_" stroke="#000000" stroke-width="4" stroke-linejoin="round"></path>
                        <rect id="XMLID_75_" fill="#FFFFFF" fill-rule="nonzero" x="505" y="74" width="58" height="35"></rect>
                        <path d="M512,84 L524,84" id="XMLID_74_" stroke="#000000" stroke-width="4" stroke-linejoin="round"></path>
                        <path d="M512,94 L553,94" id="XMLID_73_" stroke="#000000" stroke-width="4" stroke-linejoin="round"></path>
                        <g id="Group" transform="translate(919.000000, 407.000000)">
                            <rect id="XMLID_72_" fill="#FFFFFF" fill-rule="nonzero" x="0" y="0" width="58.2909091" height="36"></rect>
                            <path d="M58.2909091,19.3846154 L170.709091,19.3846154" id="XMLID_71_" stroke="#000000" stroke-width="4" stroke-linejoin="round"></path>
                            <path d="M8.32727273,11.0769231 L19.430303,11.0769231" id="XMLID_70_" stroke="#000000" stroke-width="4" stroke-linejoin="round"></path>
                            <rect id="XMLID_68_" fill="#FFFFFF" fill-rule="nonzero" x="170.709091" y="0" width="58.2909091" height="36"></rect>
                            <path d="M179.036364,11.0769231 L190.139394,11.0769231" id="XMLID_67_" stroke="#000000" stroke-width="4" stroke-linejoin="round"></path>
                            <rect id="XMLID_65_" fill="#FFFFFF" fill-rule="nonzero" x="86.0484848" y="0" width="58.2909091" height="36"></rect>
                            <path d="M94.3757576,11.0769231 L104.090909,11.0769231" id="XMLID_64_" stroke="#000000" stroke-width="4" stroke-linejoin="round"></path>
                        </g>
                        <polyline id="XMLID_62_" stroke="#000000" stroke-width="4" stroke-linejoin="round" points="624 368 690.181818 368 690.181818 314 715 314"></polyline>
                        <g id="Group" transform="translate(901.000000, 25.000000)" stroke="#000000" stroke-linejoin="round">
                            <path d="M21.6774194,0 L21.6774194,15.46875" id="XMLID_61_" stroke-width="4"></path>
                            <path d="M21.6774194,29.53125 L21.6774194,45" id="XMLID_60_" stroke-width="4"></path>
                            <path d="M0,22.5 L13.5483871,22.5" id="XMLID_59_" stroke-width="4"></path>
                            <path d="M28.4516129,22.5 L42,22.5" id="XMLID_58_" stroke-width="4"></path>
                            <path d="M6.23225806,37.40625 L13.0064516,30.234375" id="Shape" stroke-width="4.5"></path>
                            <path d="M29.2645161,13.359375 L36.0387097,6.46875" id="Shape" stroke-width="4.5"></path>
                            <path d="M6.23225806,6.46875 L13.5483871,14.0625" id="Shape" stroke-width="4.5"></path>
                            <path d="M28.9935484,30.09375 L36.0387097,37.40625" id="Shape" stroke-width="4.5"></path>
                        </g>
                        <g id="Group" transform="translate(741.000000, 0.000000)" stroke="#000000" stroke-linejoin="round">
                            <path d="M22.5,0 L22.5,15.46875" id="XMLID_57_" stroke-width="4"></path>
                            <path d="M22.5,29.53125 L22.5,45" id="XMLID_56_" stroke-width="4"></path>
                            <path d="M0,22.5 L15.46875,22.5" id="XMLID_55_" stroke-width="4"></path>
                            <path d="M29.53125,22.5 L45,22.5" id="XMLID_54_" stroke-width="4"></path>
                            <path d="M7.171875,37.40625 L14.203125,30.234375" id="Shape" stroke-width="4.5"></path>
                            <path d="M31.078125,13.359375 L38.109375,6.46875" id="Shape" stroke-width="4.5"></path>
                            <path d="M7.171875,6.46875 L14.765625,14.0625" id="Shape" stroke-width="4.5"></path>
                            <path d="M30.796875,30.09375 L38.109375,37.40625" id="Shape" stroke-width="4.5"></path>
                        </g>
                        <g id="Group" transform="translate(690.000000, 149.000000)" stroke="#000000" stroke-linejoin="round">
                            <path d="M22.5,0 L22.5,15.46875" id="XMLID_53_" stroke-width="4"></path>
                            <path d="M22.5,29.53125 L22.5,45" id="XMLID_52_" stroke-width="4"></path>
                            <path d="M0,22.5 L15.46875,22.5" id="XMLID_51_" stroke-width="4"></path>
                            <path d="M29.53125,22.5 L45,22.5" id="XMLID_50_" stroke-width="4"></path>
                            <path d="M7.171875,37.40625 L14.203125,30.234375" id="Shape" stroke-width="4.5"></path>
                            <path d="M31.078125,13.359375 L38.109375,6.46875" id="Shape" stroke-width="4.5"></path>
                            <path d="M7.171875,6.46875 L14.765625,14.0625" id="Shape" stroke-width="4.5"></path>
                            <path d="M30.796875,30.09375 L38.109375,37.40625" id="Shape" stroke-width="4.5"></path>
                        </g>
                        <g id="Group" transform="translate(948.000000, 138.000000)" stroke="#000000" stroke-linejoin="round">
                            <path d="M21.6774194,0 L21.6774194,15.46875" id="XMLID_49_" stroke-width="4"></path>
                            <path d="M21.6774194,29.53125 L21.6774194,45" id="XMLID_48_" stroke-width="4"></path>
                            <path d="M0,22.5 L13.5483871,22.5" id="XMLID_47_" stroke-width="4"></path>
                            <path d="M28.4516129,22.5 L42,22.5" id="XMLID_46_" stroke-width="4"></path>
                            <path d="M6.23225806,37.40625 L13.0064516,30.234375" id="Shape" stroke-width="4.5"></path>
                            <path d="M29.2645161,13.359375 L36.0387097,6.46875" id="Shape" stroke-width="4.5"></path>
                            <path d="M6.23225806,6.46875 L13.5483871,14.0625" id="Shape" stroke-width="4.5"></path>
                            <path d="M28.9935484,30.09375 L36.0387097,37.40625" id="Shape" stroke-width="4.5"></path>
                        </g>
                        <polygon id="XMLID_45_" fill="#FD919E" fill-rule="nonzero" points="239 100 239 174.88 184.5 174.88 184.5 204 156.132051 174.88 130 174.88 130 100"></polygon>
                        <path d="M142,164 L154,164" id="XMLID_44_" stroke="#000000" stroke-width="4" stroke-linejoin="round"></path>
                        <path d="M159,164 L171,164" id="XMLID_43_" stroke="#000000" stroke-width="4" stroke-linejoin="round"></path>
                        <path d="M142,143 L224,143" id="XMLID_42_" stroke="#000000" stroke-width="4" stroke-linejoin="round"></path>
                        <path d="M142,127 L224,127" id="XMLID_41_" stroke="#000000" stroke-width="4" stroke-linejoin="round"></path>
                        <path d="M142,111 L196,111" id="XMLID_40_" stroke="#000000" stroke-width="4" stroke-linejoin="round"></path>
                        <polygon id="XMLID_39_" fill="#A4CFF2" fill-rule="nonzero" points="1270 100 1270 174.88 1324.5 174.88 1324.5 204 1353.56667 174.88 1379 174.88 1379 100"></polygon>
                        <path d="M1366,164 L1354,164" id="XMLID_38_" stroke="#000000" stroke-width="4" stroke-linejoin="round"></path>
                        <path d="M1350,164 L1338,164" id="XMLID_37_" stroke="#000000" stroke-width="4" stroke-linejoin="round"></path>
                        <path d="M1365,143 L1283,143" id="XMLID_36_" stroke="#000000" stroke-width="4" stroke-linejoin="round"></path>
                        <path d="M1365,127 L1283,127" id="XMLID_35_" stroke="#000000" stroke-width="4" stroke-linejoin="round"></path>
                        <path d="M1366,111 L1312,111" id="XMLID_34_" stroke="#000000" stroke-width="4" stroke-linejoin="round"></path>
                        <path d="M536,262.034237 C536,238.233951 516.666667,219 492.570048,219 C468.47343,219 449,238.233951 449,262.034237 C449,280.57632 460.628019,296.212553 477.439614,302.300999 L477.439614,316 L508.26087,316 L508.26087,302.024251 C525.072464,295.659058 536,280.161198 536,262.034237 Z" id="XMLID_33_" fill="#FD919E" fill-rule="nonzero"></path>
                        <rect id="XMLID_32_" stroke="#000000" stroke-width="4" stroke-linejoin="round" x="476" y="317" width="32" height="17"></rect>
                        <path d="M493,320 L493,262" id="XMLID_31_" stroke="#000000" stroke-width="4" stroke-linejoin="round"></path>
                        <circle id="Oval" stroke="#000000" stroke-width="4.5" stroke-linejoin="round" cx="492" cy="253" r="7"></circle>
                        <path d="M476,346 L508,346" id="XMLID_30_" stroke="#000000" stroke-width="4" stroke-linejoin="round"></path>
                        <path d="M476,356 L508,356" id="XMLID_29_" stroke="#000000" stroke-width="4" stroke-linejoin="round"></path>
                        <path d="M493,356 L493,368" id="XMLID_28_" stroke="#000000" stroke-width="4" stroke-linejoin="round"></path>
                        <path d="M533.764706,321.72327 L557.570588,298.201258 L544.205882,286.855346 C544.484314,286.440252 547.964706,280.075472 548.103922,280.075472 L563,280.075472 L563,246.867925 L548.103922,246.867925 C547.964706,239.949686 544.623529,236.352201 544.345098,235.798742 L557.84902,221.27044 L534.321569,197.471698 L519.843137,210.616352 C519.42549,210.339623 514.135294,206.742138 509.958824,206.603774 L509.958824,190 L476.547059,190 L476.547059,206.603774 C476.547059,206.742138 469.029412,210.062893 468.611765,210.339623 L455.52549,196.918239 L432.276471,220.301887 L445.919608,235.798742 C445.641176,236.213836 442.439216,239.949686 442.3,246.867925 L421,246.867925 L421,280.075472 L442.578431,280.075472 C442.717647,280.075472 446.058824,286.440252 446.337255,286.855346 L432.833333,299.169811 L456.360784,322" id="XMLID_27_" stroke="#000000" stroke-width="4" stroke-linejoin="round"></path>
                        <polyline id="XMLID_26_" stroke="#000000" stroke-width="4" stroke-linejoin="round" points="1065 67 1065 108 1040 108 1040 67"></polyline>
                        <polyline id="XMLID_25_" stroke="#000000" stroke-width="4" stroke-linejoin="round" points="1040 78 1040 107 1020 107 1020 78"></polyline>
                        <polyline id="XMLID_24_" stroke="#000000" stroke-width="4" stroke-linejoin="round" points="1085 54 1085 108 1065 108 1065 54"></polyline>
                        <rect id="XMLID_23_" fill="#FFFFFF" fill-rule="nonzero" x="1019" y="67" width="20" height="13"></rect>
                        <rect id="XMLID_22_" fill="#FFFFFF" fill-rule="nonzero" x="1039" y="54" width="22" height="13"></rect>
                        <rect id="XMLID_21_" fill="#FFFFFF" fill-rule="nonzero" x="1060" y="38" width="27" height="16"></rect>
                        <polyline id="XMLID_20_" stroke="#000000" stroke-width="4" stroke-linejoin="round" points="230 385 230 426 208 426 208 385"></polyline>
                        <polyline id="XMLID_19_" stroke="#000000" stroke-width="4" stroke-linejoin="round" points="208 397 208 426 188 426 188 397"></polyline>
                        <polyline id="XMLID_18_" stroke="#000000" stroke-width="4" stroke-linejoin="round" points="251 372 251 426 231 426 231 372"></polyline>
                        <rect id="XMLID_17_" fill="#FFFFFF" fill-rule="nonzero" x="184" y="385" width="20" height="13"></rect>
                        <rect id="XMLID_16_" fill="#FFFFFF" fill-rule="nonzero" x="205" y="372" width="25" height="13"></rect>
                        <rect id="XMLID_15_" fill="#FFFFFF" fill-rule="nonzero" x="229" y="356" width="26" height="16"></rect>
                        <rect id="XMLID_14_" fill="#A4CFF2" fill-rule="nonzero" x="373" y="411" width="201" height="28"></rect>
                        <polygon id="Shape" fill="#FD919E" fill-rule="nonzero" points="613 424.497436 574 411 574 439"></polygon>
                        <rect id="XMLID_13_" fill="#FD919E" fill-rule="nonzero" x="334" y="411" width="41" height="28"></rect>
                        <path d="M372,411 L372,439" id="XMLID_12_" stroke="#000000" stroke-width="4" stroke-linejoin="round"></path>
                        <path d="M574,411 L574,439" id="XMLID_11_" stroke="#000000" stroke-width="4" stroke-linejoin="round"></path>
                        <path d="M573,426 L372,426" id="XMLID_10_" stroke="#000000" stroke-width="4" stroke-linejoin="round"></path>
                        <rect id="XMLID_9_" fill="#000000" fill-rule="nonzero" x="655" y="405" width="59" height="6"></rect>
                        <rect id="XMLID_8_" fill="#000000" fill-rule="nonzero" x="723" y="405" width="20" height="6"></rect>
                        <path d="M655,423 L839,423" id="XMLID_7_" stroke="#000000" stroke-width="4" stroke-linejoin="round"></path>
                        <path d="M349,85 L339.885714,85 C334.914286,85 334.914286,72 329.942857,72 C324.971429,72 324.971429,84.7142857 320,84.7142857 C315.028571,84.7142857 315.028571,72 310.057143,72 C305.085714,72 305.085714,85 300.114286,85 L291,85" id="XMLID_5_" stroke="#000000" stroke-width="4" stroke-linejoin="round"></path>
                        <path d="M1172,363 L1163.57619,363 C1158.60476,363 1158.60476,350 1153.63333,350 C1148.6619,350 1148.6619,362.714286 1143.82857,362.714286 C1138.85714,362.714286 1138.85714,350 1133.88571,350 C1128.91429,350 1128.91429,363 1123.94286,363 L1114,363" id="XMLID_4_" stroke="#000000" stroke-width="4" stroke-linejoin="round"></path>
                        <path d="M58,235.714286 L48.8857143,235.714286 C43.9142857,235.714286 43.9142857,223 38.9428571,223 C33.9714286,223 33.9714286,236 29.1380952,236 C24.1666667,236 24.1666667,223 19.1952381,223 C14.2238095,223 14.2238095,235.714286 9.25238095,235.714286 L0,235.714286" id="XMLID_3_" stroke="#000000" stroke-width="4" stroke-linejoin="round"></path>
                        <path d="M666,292 L657.57619,292 C652.604762,292 652.604762,279 647.633333,279 C642.661905,279 642.661905,291.714286 637.828571,291.714286 C632.857143,291.714286 632.857143,279 627.885714,279 C622.914286,279 622.914286,292 617.942857,292 L608,292" id="XMLID_2_" stroke="#000000" stroke-width="4" stroke-linejoin="round"></path>
                        <path d="M1441,235.714286 L1431.88571,235.714286 C1426.91429,235.714286 1426.91429,223 1421.94286,223 C1416.97143,223 1416.97143,236 1412.1381,236 C1407.16667,236 1407.16667,223 1402.19524,223 C1397.22381,223 1397.22381,235.714286 1392.25238,235.714286 L1383,235.714286" id="XMLID_1_" stroke="#000000" stroke-width="4" stroke-linejoin="round"></path>
                        <polygon id="Shape" fill="#FD919E" fill-rule="nonzero" points="972 310 978.614815 340.272727 986.074074 333.045455 999.585185 346 1010 335.909091 996.62963 322.954545 1003.24444 316.409091"></polygon>
                        <polygon id="Shape" fill="#FD919E" fill-rule="nonzero" points="139 385 108.612167 391.590406 116.003802 399.162362 103 412.483395 113.129278 423 126.13308 409.538745 132.56654 416.129151"></polygon>
                        <polygon id="Shape" fill="#FD919E" fill-rule="nonzero" points="1379 353 1348.61217 359.590406 1356.0038 367.162362 1343 380.483395 1353.12928 391 1366.13308 377.538745 1372.56654 384.129151"></polygon>
                        <polygon id="Shape" fill="#FD919E" fill-rule="nonzero" points="564 132 570.518248 162.738462 578.423358 154.846154 591.737226 168 602 157.753846 588.824818 144.461538 594.788321 138.507692"></polygon>
                    </g>
                </g>
            </g>
        </g>
    </g>
</svg>