<?xml version="1.0" encoding="UTF-8"?>
<svg width="330px" height="330px" viewBox="0 0 330 330" version="1.1" xmlns="http://www.w3.org/2000/svg" xmlns:xlink="http://www.w3.org/1999/xlink">
    <!-- Generator: Sketch 3.8.1 (29687) - http://www.bohemiancoding.com/sketch -->
    <title>Page 1</title>
    <desc>Created with Sketch.</desc>
    <defs></defs>
    <g id="Page-1" stroke="none" stroke-width="1" fill="none" fill-rule="evenodd">
        <g id="Desktop-HD" transform="translate(276.000000, -55.000000) scale(1, -1) translate(-276.000000, 55.000000) translate(-444.000000, -567.000000)">
            <g id="Page-1" transform="translate(609.000000, 292.000000) scale(1, -1) translate(-609.000000, -292.000000) translate(444.000000, 127.000000)">
                <path d="M330,165 C330,256.126406 256.126406,330 165,330 C73.8735937,330 0,256.126406 0,165 C0,73.8735937 73.8735937,0 165,0 C256.126406,0 330,73.8735937 330,165" id="Fill-1" fill="#FC8BA4"></path>
                <path d="M164.653242,0.008765625 C126.922383,0.086109375 92.1898828,12.8504063 64.4286328,34.233375 L63.8691797,229.454156 C63.8691797,240.797906 73.1504297,250.079156 84.4941797,250.079156 L250.231523,250.079156 C261.577852,250.079156 270.856523,240.797906 270.856523,229.454156 L270.706992,38.3300156 C242.125898,14.4514219 205.351523,0.055171875 165.207539,0.0061875 C165.021914,0.0061875 164.838867,0.008765625 164.653242,0.008765625" id="Fill-3" fill="#EBEBEB"></path>
                <path d="M211.922391,179.179688 C211.922391,204.097266 191.722781,224.296875 166.805203,224.296875 C141.890203,224.296875 121.688016,204.097266 121.688016,179.179688 C121.688016,154.262109 141.890203,134.0625 166.805203,134.0625 C191.722781,134.0625 211.922391,154.262109 211.922391,179.179688" id="Fill-5" fill="#FFFFFF"></path>
                <path d="M211.922391,179.179688 C211.922391,204.097266 191.722781,224.296875 166.805203,224.296875 C141.890203,224.296875 121.688016,204.097266 121.688016,179.179688 C121.688016,154.262109 141.890203,134.0625 166.805203,134.0625 C191.722781,134.0625 211.922391,154.262109 211.922391,179.179688" id="Fill-7" fill="#FFFFFF"></path>
                <path d="M166.289062,136.640625 C142.833281,136.640625 123.75,155.723906 123.75,179.179688 C123.75,202.635469 142.833281,221.71875 166.289062,221.71875 C189.744844,221.71875 208.828125,202.635469 208.828125,179.179688 C208.828125,155.723906 189.744844,136.640625 166.289062,136.640625 M166.289062,226.875 C139.989609,226.875 118.59375,205.479141 118.59375,179.179688 C118.59375,152.880234 139.989609,131.484375 166.289062,131.484375 C192.588516,131.484375 213.984375,152.880234 213.984375,179.179688 C213.984375,205.479141 192.588516,226.875 166.289062,226.875" id="Fill-9" fill="#ADADAD"></path>
                <path d="M162.719906,201.199453 C161.374125,201.199453 160.028344,200.704453 159.00225,199.711875 L140.759437,182.087813 C138.704672,180.105234 138.704672,176.890313 140.759437,174.907734 C142.809047,172.922578 146.142562,172.922578 148.19475,174.907734 L162.719906,188.937891 L215.321391,138.128203 C217.376156,136.145625 220.701937,136.145625 222.756703,138.128203 C224.808891,140.110781 224.808891,143.328281 222.756703,145.310859 L166.437562,199.711875 C165.411469,200.704453 164.065687,201.199453 162.719906,201.199453" id="Fill-11" fill="#75B600"></path>
                <path d="M242.315906,43.828125 L190.810125,43.828125 C189.368953,43.828125 188.203641,42.673125 188.203641,41.25 C188.203641,39.826875 189.368953,38.671875 190.810125,38.671875 L242.315906,38.671875 C243.757078,38.671875 244.922391,39.826875 244.922391,41.25 C244.922391,42.673125 243.757078,43.828125 242.315906,43.828125" id="Fill-13" fill="#ADADAD"></path>
                <path d="M170.156508,43.828125 L95.3908828,43.828125 C93.9677578,43.828125 92.8127578,42.673125 92.8127578,41.25 C92.8127578,39.826875 93.9677578,38.671875 95.3908828,38.671875 L170.156508,38.671875 C171.582211,38.671875 172.734633,39.826875 172.734633,41.25 C172.734633,42.673125 171.582211,43.828125 170.156508,43.828125" id="Fill-15" fill="#ADADAD"></path>
                <path d="M213.966328,25.78125 L95.4086719,25.78125 C93.9752344,25.78125 92.8125,24.62625 92.8125,23.203125 C92.8125,21.78 93.9752344,20.625 95.4086719,20.625 L213.966328,20.625 C215.402344,20.625 216.5625,21.78 216.5625,23.203125 C216.5625,24.62625 215.402344,25.78125 213.966328,25.78125" id="Fill-17" fill="#ADADAD"></path>
                <path d="M242.30843,61.875 L139.253039,61.875 C137.809289,61.875 136.641398,60.72 136.641398,59.296875 C136.641398,57.87375 137.809289,56.71875 139.253039,56.71875 L242.30843,56.71875 C243.75218,56.71875 244.922648,57.87375 244.922648,59.296875 C244.922648,60.72 243.75218,61.875 242.30843,61.875" id="Fill-19" fill="#ADADAD"></path>
                <path d="M116.015883,61.875 L95.3908828,61.875 C93.9677578,61.875 92.8127578,60.72 92.8127578,59.296875 C92.8127578,57.87375 93.9677578,56.71875 95.3908828,56.71875 L116.015883,56.71875 C117.439008,56.71875 118.594008,57.87375 118.594008,59.296875 C118.594008,60.72 117.439008,61.875 116.015883,61.875" id="Fill-21" fill="#ADADAD"></path>
                <path d="M242.1705,79.921875 L224.469094,79.921875 C222.948,79.921875 221.718234,78.766875 221.718234,77.34375 C221.718234,75.920625 222.948,74.765625 224.469094,74.765625 L242.1705,74.765625 C243.691594,74.765625 244.921359,75.920625 244.921359,77.34375 C244.921359,78.766875 243.691594,79.921875 242.1705,79.921875" id="Fill-23" fill="#ADADAD"></path>
                <path d="M211.354945,79.921875 L172.786195,79.921875 C171.332133,79.921875 170.156508,78.766875 170.156508,77.34375 C170.156508,75.920625 171.332133,74.765625 172.786195,74.765625 L211.354945,74.765625 C212.809008,74.765625 213.984633,75.920625 213.984633,77.34375 C213.984633,78.766875 212.809008,79.921875 211.354945,79.921875" id="Fill-25" fill="#ADADAD"></path>
                <path d="M154.6875,79.921875 L95.390625,79.921875 C93.9675,79.921875 92.8125,78.766875 92.8125,77.34375 C92.8125,75.920625 93.9675,74.765625 95.390625,74.765625 L154.6875,74.765625 C156.110625,74.765625 157.265625,75.920625 157.265625,77.34375 C157.265625,78.766875 156.110625,79.921875 154.6875,79.921875" id="Fill-27" fill="#ADADAD"></path>
                <path d="M242.351484,97.96875 L159.836016,97.96875 C158.415469,97.96875 157.265625,96.81375 157.265625,95.390625 C157.265625,93.9675 158.415469,92.8125 159.836016,92.8125 L242.351484,92.8125 C243.772031,92.8125 244.921875,93.9675 244.921875,95.390625 C244.921875,96.81375 243.772031,97.96875 242.351484,97.96875" id="Fill-29" fill="#ADADAD"></path>
                <path d="M136.640367,97.96875 L95.3903672,97.96875 C93.9672422,97.96875 92.8122422,96.81375 92.8122422,95.390625 C92.8122422,93.9675 93.9672422,92.8125 95.3903672,92.8125 L136.640367,92.8125 C138.063492,92.8125 139.218492,93.9675 139.218492,95.390625 C139.218492,96.81375 138.063492,97.96875 136.640367,97.96875" id="Fill-31" fill="#ADADAD"></path>
                <path d="M242.305852,116.015625 L206.286867,116.015625 C204.843117,116.015625 203.672648,114.860625 203.672648,113.4375 C203.672648,112.014375 204.843117,110.859375 206.286867,110.859375 L242.305852,110.859375 C243.75218,110.859375 244.922648,112.014375 244.922648,113.4375 C244.922648,114.860625 243.75218,116.015625 242.305852,116.015625" id="Fill-33" fill="#ADADAD"></path>
                <path d="M180.46875,116.015625 L95.390625,116.015625 C93.9675,116.015625 92.8125,114.860625 92.8125,113.4375 C92.8125,112.014375 93.9675,110.859375 95.390625,110.859375 L180.46875,110.859375 C181.894453,110.859375 183.046875,112.014375 183.046875,113.4375 C183.046875,114.860625 181.894453,116.015625 180.46875,116.015625" id="Fill-35" fill="#ADADAD"></path>
                <path d="M45.7691953,142.76625 C45.7691953,141.758203 44.6219297,140.760469 43.2220078,140.546484 L38.4215391,139.819453 C37.0216172,139.605469 35.7016172,138.285469 35.4902109,136.885547 L34.7631797,132.092812 C34.5517734,130.692891 33.5540391,129.545625 32.5459922,129.545625 C31.5379453,129.545625 30.5402109,130.692891 30.3288047,132.092812 L29.6017734,136.885547 C29.3903672,138.285469 28.0703672,139.605469 26.6704453,139.819453 L21.8699766,140.546484 C20.4700547,140.760469 19.3227891,141.758203 19.3227891,142.76625 C19.3227891,143.774297 20.4700547,144.772031 21.8699766,144.983437 L26.6704453,145.710469 C28.0703672,145.921875 29.3903672,147.241875 29.6017734,148.644375 L30.3288047,153.434531 C30.5402109,154.837031 31.5379453,155.984297 32.5459922,155.984297 C33.5540391,155.984297 34.5414609,154.837031 34.7399766,153.431953 L35.5134141,147.899297 C35.7145078,146.494219 37.0293516,145.259297 38.4447422,145.153594 L43.1988047,144.792656 C44.6141953,144.686953 45.7691953,143.774297 45.7691953,142.76625" id="Fill-37" fill="#FFFFFF"></path>
                <path d="M229.453125,285.844453 C229.453125,284.836406 228.305859,283.838672 226.905938,283.624687 L222.105469,282.897656 C220.705547,282.683672 219.385547,281.363672 219.174141,279.96375 L218.447109,275.173594 C218.235703,273.771094 217.237969,272.623828 216.229922,272.623828 C215.221875,272.623828 214.224141,273.771094 214.012734,275.173594 L213.285703,279.96375 C213.074297,281.363672 211.754297,282.683672 210.354375,282.897656 L205.553906,283.624687 C204.153984,283.838672 203.006719,284.836406 203.006719,285.844453 C203.006719,286.8525 204.153984,287.850234 205.553906,288.061641 L210.354375,288.788672 C211.754297,289.000078 213.074297,290.320078 213.285703,291.72 L214.012734,296.515312 C214.224141,297.915234 215.221875,299.0625 216.229922,299.0625 C217.237969,299.0625 218.225391,297.915234 218.423906,296.510156 L219.197344,290.9775 C219.398438,289.572422 220.713281,288.3375 222.128672,288.231797 L226.882734,287.870859 C228.298125,287.765156 229.453125,286.8525 229.453125,285.844453" id="Fill-39" fill="#FFFFFF"></path>
                <path d="M299.061211,169.827539 C296.03707,169.827539 293.577539,172.289648 293.577539,175.316367 C293.577539,178.340508 296.03707,180.797461 299.061211,180.797461 C302.085352,180.797461 304.547461,178.340508 304.547461,175.316367 C304.547461,172.289648 302.085352,169.827539 299.061211,169.827539 M299.061211,185.626289 C293.376445,185.626289 288.751289,181.001133 288.751289,175.316367 C288.751289,169.626445 293.376445,165.001289 299.061211,165.001289 C304.748555,165.001289 309.376289,169.626445 309.376289,175.316367 C309.376289,181.001133 304.748555,185.626289 299.061211,185.626289" id="Fill-41" fill="#FFFFFF"></path>
                <path d="M118.592719,275.528602 C115.568578,275.528602 113.109047,277.990711 113.109047,281.01743 C113.109047,284.04157 115.568578,286.501102 118.592719,286.501102 C121.616859,286.501102 124.078969,284.04157 124.078969,281.01743 C124.078969,277.990711 121.616859,275.528602 118.592719,275.528602 M118.592719,291.327352 C112.905375,291.327352 108.280219,286.702195 108.280219,281.01743 C108.280219,275.327508 112.905375,270.699773 118.592719,270.699773 C124.280062,270.699773 128.905219,275.327508 128.905219,281.01743 C128.905219,286.702195 124.280062,291.327352 118.592719,291.327352" id="Fill-43" fill="#FFFFFF"></path>
                <path d="M268.125,36.2404453 L268.125,229.452867 C268.125,239.40443 260.027109,247.499742 250.078125,247.499742 L85.078125,247.499742 C75.1291406,247.499742 67.03125,239.40443 67.03125,229.452867 L67.03125,32.2443516 C65.2807031,33.5385703 63.5714063,34.8791953 61.875,36.2404453 L61.875,229.452867 C61.875,242.248102 72.2828906,252.655992 85.078125,252.655992 L250.078125,252.655992 C262.873359,252.655992 273.28125,242.248102 273.28125,229.452867 L273.28125,40.5588047 C271.59,39.0866953 269.875547,37.6455234 268.125,36.2404453" id="Fill-45" fill="#7C4119"></path>
            </g>
        </g>
    </g>
</svg>