<?xml version="1.0" encoding="UTF-8"?>
<svg width="335px" height="335px" viewBox="0 0 335 335" version="1.1" xmlns="http://www.w3.org/2000/svg" xmlns:xlink="http://www.w3.org/1999/xlink">
    <!-- Generator: Sketch 3.8.1 (29687) - http://www.bohemiancoding.com/sketch -->
    <title>Group 11</title>
    <desc>Created with Sketch.</desc>
    <defs>
        <polygon id="path-1" points="0 248 247.998062 248 247.998062 0 0 0"></polygon>
    </defs>
    <g id="Page-1" stroke="none" stroke-width="1" fill="none" fill-rule="evenodd">
        <g id="Desktop-HD" transform="translate(277.000000, -52.000000) scale(1, -1) translate(-277.000000, 52.000000) translate(-443.000000, -564.000000)">
            <g id="Group-11" transform="translate(443.000000, 125.000000)">
                <circle id="Oval-139" fill="#FBD000" cx="167.5" cy="167.5" r="167.5"></circle>
                <g id="Page-1" transform="translate(167.000000, 168.000000) scale(1, -1) translate(-167.000000, -168.000000) translate(43.000000, 44.000000)">
                    <path d="M228.679831,57.6084625 C228.613956,57.5019 228.546144,57.3992125 228.476394,57.29265 L19.5208937,57.29265 C18.8137062,58.397025 18.1103937,59.505275 17.4380812,60.6329 L17.4380812,187.442275 C25.0292062,200.169713 34.8329562,211.62615 46.3242687,220.875775 L201.407581,220.875775 C212.571456,211.93615 222.165956,201.1249 229.687331,188.8954 L228.679831,57.6084625 Z" id="Fill-3" fill="#F4B10B"></path>
                    <path d="M139.499225,17.1904687 C137.226538,17.1904687 135.378163,19.0407812 135.378163,21.3134687 C135.378163,23.5861562 137.226538,25.4345312 139.499225,25.4345312 C141.771913,25.4345312 143.622225,23.5861562 143.622225,21.3134687 C143.622225,19.0407812 141.771913,17.1904687 139.499225,17.1904687 M139.499225,29.0634687 C135.2251,29.0634687 131.749225,25.5875937 131.749225,21.3134687 C131.749225,17.0393437 135.2251,13.5634687 139.499225,13.5634687 C143.771413,13.5634687 147.249225,17.0393437 147.249225,21.3134687 C147.249225,25.5875937 143.771413,29.0634687 139.499225,29.0634687" id="Fill-5" fill="#FFFFFF"></path>
                    <path d="M132.249487,232.747806 C132.249487,231.990244 131.3873,231.240431 130.335237,231.079619 L126.727612,230.533244 C125.67555,230.372431 124.68355,229.380431 124.524675,228.328369 L123.980237,224.726556 C123.819425,223.674494 123.069612,222.812306 122.31205,222.812306 C121.554487,222.812306 120.804675,223.674494 120.6458,224.726556 L120.101362,228.328369 C119.942487,229.380431 118.94855,230.372431 117.896487,230.533244 L114.288863,231.079619 C113.2368,231.240431 112.374613,231.990244 112.374613,232.747806 C112.374613,233.505369 113.2368,234.255181 114.288863,234.414056 L117.896487,234.960431 C118.94855,235.119306 119.942487,236.111306 120.101362,237.165306 L120.6458,240.765181 C120.804675,241.819181 121.554487,242.681369 122.31205,242.681369 C123.069612,242.681369 123.811675,241.819181 123.960862,240.763244 L124.54405,236.605369 C124.693237,235.549431 125.681362,234.621369 126.74505,234.541931 L130.3178,234.270681 C131.381487,234.191244 132.249487,233.505369 132.249487,232.747806" id="Fill-7" fill="#FFFFFF"></path>
                    <path d="M116.749487,23.0039375 C116.749487,22.246375 115.8873,21.4965625 114.835237,21.33575 L111.227612,20.789375 C110.17555,20.6285625 109.18355,19.6365625 109.024675,18.5845 L108.480237,14.9826875 C108.319425,13.930625 107.569612,13.0684375 106.81205,13.0684375 C106.054487,13.0684375 105.304675,13.930625 105.1458,14.9826875 L104.601362,18.5845 C104.442487,19.6365625 103.44855,20.6285625 102.396487,20.789375 L98.7888625,21.33575 C97.7368,21.4965625 96.8746125,22.246375 96.8746125,23.0039375 C96.8746125,23.7615 97.7368,24.5113125 98.7888625,24.6701875 L102.396487,25.2165625 C103.44855,25.3754375 104.442487,26.3674375 104.601362,27.4195 L105.1458,31.02325 C105.304675,32.0753125 106.054487,32.9375 106.81205,32.9375 C107.569612,32.9375 108.311675,32.0753125 108.460862,31.019375 L109.04405,26.8615 C109.193237,25.8055625 110.181362,24.8775 111.24505,24.7980625 L114.8178,24.5268125 C115.881487,24.447375 116.749487,23.7615 116.749487,23.0039375" id="Fill-9" fill="#FFFFFF"></path>
                    <path d="M229.873719,194.037525 C229.908594,198.300025 226.448219,201.78365 222.183781,201.7759 L25.1865313,201.5124 C20.9240313,201.50465 17.4365313,198.013275 17.4365313,193.750775 L17.4365313,45.9175875 C17.4365313,41.6550875 20.9240313,38.1675875 25.1865313,38.1675875 L220.928281,38.1675875 C225.190781,38.1675875 228.703469,41.6550875 228.738344,45.9175875 L229.873719,194.037525 Z" id="Fill-11" fill="#FFFFFF"></path>
                    <path d="M229.907819,68.100025 L17.4105688,68.100025 L17.4105688,45.9175875 C17.4105688,41.6550875 20.8980688,38.1675875 25.1605688,38.1675875 L222.157819,38.1675875 C223.066506,38.1675875 229.907819,41.6589625 229.907819,45.9175875 L229.907819,68.100025 Z" id="Fill-13" fill="#EBEBEB"></path>
                    <path d="M25.1609562,40.6875 C21.9563312,40.6875 19.3484562,43.295375 19.3484562,46.5 L19.3484562,193.75 C19.3484562,196.954625 21.9563312,199.5625 25.1609562,199.5625 L220.875581,199.5625 C224.080206,199.5625 226.688081,196.954625 226.690019,193.75 L226.711331,46.5 C226.711331,44.9558125 226.106831,43.4988125 225.006331,42.396375 C223.901956,41.2939375 222.444956,40.6875 220.900769,40.6875 L25.1609562,40.6875 Z M220.875581,203.4375 L25.1609562,203.4375 C19.8192687,203.4375 15.5005812,199.091688 15.5005812,193.75 L15.5005812,46.5 C15.5005812,41.1583125 19.8192687,36.8125 25.1609562,36.8125 L220.900769,36.8125 C223.479581,36.8125 225.911144,37.8219375 227.745956,39.65675 C229.578831,41.4915625 230.565019,43.9211875 230.563081,46.5019375 L230.563081,193.75 C230.561144,199.091688 226.215331,203.4375 220.875581,203.4375 L220.875581,203.4375 Z" id="Fill-15" fill="#C98A0D"></path>
                    <mask id="mask-2" fill="white">
                        <use xlink:href="#path-1"></use>
                    </mask>
                    <g id="Clip-18"></g>
                    <polygon id="Fill-17" fill="#D4D6D6" mask="url(#mask-2)" points="87.1875 58.125 217 58.125 217 48.4375 87.1875 48.4375"></polygon>
                    <path d="M17.4375,67.8125 L227.809312,67.8125" id="Fill-19" fill="#FFFFFF" mask="url(#mask-2)"></path>
                    <path d="M227.809506,69.75 L17.4376937,69.75 C16.3681938,69.75 15.5001937,68.882 15.5001937,67.8125 C15.5001937,66.743 16.3681938,65.875 17.4376937,65.875 L227.809506,65.875 C228.880944,65.875 229.747006,66.743 229.747006,67.8125 C229.747006,68.882 228.880944,69.75 227.809506,69.75" id="Fill-20" fill="#C98A0D" mask="url(#mask-2)"></path>
                    <polygon id="Fill-21" fill="#E2C48F" mask="url(#mask-2)" points="31 170.5 104.625 170.5 104.625 112.375 31 112.375"></polygon>
                    <path d="M127.875,91.0625 L96.8730625,91.0625 C94.7340625,91.0625 92.9980625,89.3265 92.9980625,87.1875 C92.9980625,85.0465625 94.7340625,83.3125 96.8730625,83.3125 L127.875,83.3125 C130.014,83.3125 131.75,85.0465625 131.75,87.1875 C131.75,89.3265 130.014,91.0625 127.875,91.0625" id="Fill-22" fill="#3AD0F9" mask="url(#mask-2)"></path>
                    <path d="M162.75,91.0625 L149.185562,91.0625 C147.046562,91.0625 145.310562,89.3265 145.310562,87.1875 C145.310562,85.0465625 147.046562,83.3125 149.185562,83.3125 L162.75,83.3125 C164.889,83.3125 166.625,85.0465625 166.625,87.1875 C166.625,89.3265 164.889,91.0625 162.75,91.0625" id="Fill-23" fill="#3AD0F9" mask="url(#mask-2)"></path>
                    <path d="M211.189438,91.0625 L184.0625,91.0625 C181.921563,91.0625 180.1875,89.3265 180.1875,87.1875 C180.1875,85.0465625 181.921563,83.3125 184.0625,83.3125 L211.189438,83.3125 C213.328438,83.3125 215.064438,85.0465625 215.064438,87.1875 C215.064438,89.3265 213.328438,91.0625 211.189438,91.0625" id="Fill-24" fill="#3AD0F9" mask="url(#mask-2)"></path>
                    <path d="M69.75,93 L36.8125,93 C33.6020625,93 31,90.3979375 31,87.1875 C31,83.9770625 33.6020625,81.375 36.8125,81.375 L69.75,81.375 C72.9604375,81.375 75.5625,83.9770625 75.5625,87.1875 C75.5625,90.3979375 72.9604375,93 69.75,93" id="Fill-25" fill="#7C6F59" mask="url(#mask-2)"></path>
                    <path d="M149.1875,120.125 L118.1875,120.125 C116.046562,120.125 114.3125,118.389 114.3125,116.25 C114.3125,114.109062 116.046562,112.375 118.1875,112.375 L149.1875,112.375 C151.3265,112.375 153.0625,114.109062 153.0625,116.25 C153.0625,118.389 151.3265,120.125 149.1875,120.125" id="Fill-26" fill="#7C6F59" mask="url(#mask-2)"></path>
                    <path d="M189.875,133.6875 L116.25,133.6875 C115.1805,133.6875 114.3125,132.821438 114.3125,131.75 C114.3125,130.678562 115.1805,129.8125 116.25,129.8125 L189.875,129.8125 C190.946437,129.8125 191.8125,130.678562 191.8125,131.75 C191.8125,132.821438 190.946437,133.6875 189.875,133.6875" id="Fill-27" fill="#D3B888" mask="url(#mask-2)"></path>
                    <path d="M149.1875,145.3125 L116.25,145.3125 C115.1805,145.3125 114.3125,144.446438 114.3125,143.375 C114.3125,142.303562 115.1805,141.4375 116.25,141.4375 L149.1875,141.4375 C150.258938,141.4375 151.125,142.303562 151.125,143.375 C151.125,144.446438 150.258938,145.3125 149.1875,145.3125" id="Fill-28" fill="#D3B888" mask="url(#mask-2)"></path>
                    <path d="M182.125,145.3125 L160.8125,145.3125 C159.741062,145.3125 158.875,144.446438 158.875,143.375 C158.875,142.303562 159.741062,141.4375 160.8125,141.4375 L182.125,141.4375 C183.196437,141.4375 184.0625,142.303562 184.0625,143.375 C184.0625,144.446438 183.196437,145.3125 182.125,145.3125" id="Fill-29" fill="#D3B888" mask="url(#mask-2)"></path>
                    <path d="M139.5,156.9375 L116.25,156.9375 C115.1805,156.9375 114.3125,156.071437 114.3125,155 C114.3125,153.928562 115.1805,153.0625 116.25,153.0625 L139.5,153.0625 C140.571437,153.0625 141.4375,153.928562 141.4375,155 C141.4375,156.071437 140.571437,156.9375 139.5,156.9375" id="Fill-30" fill="#D3B888" mask="url(#mask-2)"></path>
                    <path d="M162.75,156.9375 L149.1875,156.9375 C148.116062,156.9375 147.25,156.071437 147.25,155 C147.25,153.928562 148.116062,153.0625 149.1875,153.0625 L162.75,153.0625 C163.821438,153.0625 164.6875,153.928562 164.6875,155 C164.6875,156.071437 163.821438,156.9375 162.75,156.9375" id="Fill-31" fill="#D3B888" mask="url(#mask-2)"></path>
                    <path d="M184.0625,156.9375 L172.4375,156.9375 C171.366062,156.9375 170.5,156.071437 170.5,155 C170.5,153.928562 171.366062,153.0625 172.4375,153.0625 L184.0625,153.0625 C185.133938,153.0625 186,153.928562 186,155 C186,156.071437 185.133938,156.9375 184.0625,156.9375" id="Fill-32" fill="#D3B888" mask="url(#mask-2)"></path>
                    <path d="M158.875,168.5625 L116.25,168.5625 C115.1805,168.5625 114.3125,167.696438 114.3125,166.625 C114.3125,165.553562 115.1805,164.6875 116.25,164.6875 L158.875,164.6875 C159.946438,164.6875 160.8125,165.553562 160.8125,166.625 C160.8125,167.696438 159.946438,168.5625 158.875,168.5625" id="Fill-33" fill="#D3B888" mask="url(#mask-2)"></path>
                    <path d="M75.5625,178.25 L32.9375,178.25 C31.868,178.25 31,177.383938 31,176.3125 C31,175.241062 31.868,174.375 32.9375,174.375 L75.5625,174.375 C76.632,174.375 77.5,175.241062 77.5,176.3125 C77.5,177.383938 76.632,178.25 75.5625,178.25" id="Fill-34" fill="#D3B888" mask="url(#mask-2)"></path>
                    <path d="M135.625,186 L118.1875,186 C116.046562,186 114.3125,184.264 114.3125,182.125 C114.3125,179.984063 116.046562,178.25 118.1875,178.25 L135.625,178.25 C137.764,178.25 139.5,179.984063 139.5,182.125 C139.5,184.264 137.764,186 135.625,186" id="Fill-35" fill="#3AD0F9" mask="url(#mask-2)"></path>
                    <path d="M54.3350563,140.627238 L37.6260563,170.499613 L84.6084938,170.499613 L67.8975563,140.627238 C64.1678688,133.958363 58.0647438,133.958363 54.3350563,140.627238" id="Fill-36" fill="#CEA76A" mask="url(#mask-2)"></path>
                    <path d="M96.875,131.75 C96.875,136.029937 93.4049375,139.5 89.125,139.5 C84.8450625,139.5 81.375,136.029937 81.375,131.75 C81.375,127.470062 84.8450625,124 89.125,124 C93.4049375,124 96.875,127.470062 96.875,131.75" id="Fill-37" fill="#F9E3C7" mask="url(#mask-2)"></path>
                    <path d="M63.9375,124 C61.80625,124 60.0625,123.128125 60.0625,122.0625 C60.0625,120.996875 57.446875,120.125 54.25,120.125 L46.5,120.125 C43.303125,120.125 40.6875,120.996875 40.6875,122.0625 C40.6875,123.128125 42.43125,124 44.5625,124 C46.69375,124 48.4375,124.871875 48.4375,125.9375 C48.4375,127.003125 51.053125,127.875 54.25,127.875 L62,127.875 C65.196875,127.875 67.8125,127.003125 67.8125,125.9375 C67.8125,124.871875 66.06875,124 63.9375,124" id="Fill-38" fill="#F9E3C7" mask="url(#mask-2)"></path>
                    <path d="M56.1875,53.280475 C56.1875,55.9581 54.0194375,58.124225 51.3418125,58.124225 C48.666125,58.124225 46.5,55.9581 46.5,53.280475 C46.5,50.6047875 48.666125,48.436725 51.3418125,48.436725 C54.0194375,48.436725 56.1875,50.6047875 56.1875,53.280475" id="Fill-39" fill="#92C438" mask="url(#mask-2)"></path>
                    <path d="M38.75,53.280475 C38.75,55.9581 36.5819375,58.124225 33.90625,58.124225 C31.2305625,58.124225 29.0625,55.9581 29.0625,53.280475 C29.0625,50.6047875 31.2305625,48.436725 33.90625,48.436725 C36.5819375,48.436725 38.75,50.6047875 38.75,53.280475" id="Fill-40" fill="#F84541" mask="url(#mask-2)"></path>
                    <path d="M73.625,53.280475 C73.625,55.9581 71.455,58.124225 68.7793125,58.124225 C66.1075,58.124225 63.9375,55.9581 63.9375,53.280475 C63.9375,50.6047875 66.1075,48.436725 68.7793125,48.436725 C71.455,48.436725 73.625,50.6047875 73.625,53.280475" id="Fill-41" fill="#FBD000" mask="url(#mask-2)"></path>
                </g>
            </g>
        </g>
    </g>
</svg>