<?xml version="1.0" encoding="UTF-8"?>
<svg width="450px" height="450px" viewBox="0 0 450 450" version="1.1" xmlns="http://www.w3.org/2000/svg" xmlns:xlink="http://www.w3.org/1999/xlink">
    <!-- Generator: Sketch 3.8.1 (29687) - http://www.bohemiancoding.com/sketch -->
    <title>Page 1</title>
    <desc>Created with Sketch.</desc>
    <defs></defs>
    <g id="Page-1" stroke="none" stroke-width="1" fill="none" fill-rule="evenodd">
        <g id="Desktop-HD" transform="translate(-202.000000, 83.000000) scale(1, -1) translate(202.000000, -83.000000) translate(-922.000000, -429.000000)">
            <g id="Page-1" transform="translate(922.000000, 145.000000)">
                <path d="M450,225 C450,349.263281 349.263281,450 224.996484,450 C100.736719,450 0,349.263281 0,225 C0,100.736719 100.736719,0 224.996484,0 C349.263281,0 450,100.736719 450,225" id="Fill-1" fill="#3AD0F9"></path>
                <path d="M335.010938,338.020313 L398.292188,338.020313 L398.292188,274.739063 L335.010938,274.739063 L335.010938,338.020313 Z M335.010938,267.707813 L398.292188,267.707813 L398.292188,204.426563 L335.010938,204.426563 L335.010938,267.707813 Z M335.010938,197.395313 L398.292188,197.395313 L398.292188,134.114063 L335.010938,134.114063 L335.010938,197.395313 Z M264.698438,127.082813 L327.979688,127.082813 L327.979688,63.8015625 L264.698438,63.8015625 L264.698438,127.082813 Z M264.698438,197.395313 L327.979688,197.395313 L327.979688,134.114063 L264.698438,134.114063 L264.698438,197.395313 Z M264.698438,267.707813 L327.979688,267.707813 L327.979688,204.426563 L264.698438,204.426563 L264.698438,267.707813 Z M264.698438,338.020313 L327.979688,338.020313 L327.979688,274.739063 L264.698438,274.739063 L264.698438,338.020313 Z M264.698438,408.332813 L327.979688,408.332813 L327.979688,345.051563 L264.698438,345.051563 L264.698438,408.332813 Z M194.382422,127.082813 L257.663672,127.082813 L257.663672,63.8015625 L194.382422,63.8015625 L194.382422,127.082813 Z M194.382422,197.395313 L257.663672,197.395313 L257.663672,134.114063 L194.382422,134.114063 L194.382422,197.395313 Z M194.382422,267.707813 L257.663672,267.707813 L257.663672,204.426563 L194.382422,204.426563 L194.382422,267.707813 Z M194.382422,338.020313 L257.663672,338.020313 L257.663672,274.739063 L194.382422,274.739063 L194.382422,338.020313 Z M194.382422,408.332813 L257.663672,408.332813 L257.663672,345.051563 L194.382422,345.051563 L194.382422,408.332813 Z M124.069922,127.082813 L187.351172,127.082813 L187.351172,63.8015625 L124.069922,63.8015625 L124.069922,127.082813 Z M124.069922,197.395313 L187.351172,197.395313 L187.351172,134.114063 L124.069922,134.114063 L124.069922,197.395313 Z M124.069922,267.707813 L187.351172,267.707813 L187.351172,204.426563 L124.069922,204.426563 L124.069922,267.707813 Z M124.069922,338.020313 L187.351172,338.020313 L187.351172,274.739063 L124.069922,274.739063 L124.069922,338.020313 Z M124.069922,408.332813 L187.351172,408.332813 L187.351172,345.051563 L124.069922,345.051563 L124.069922,408.332813 Z M53.7574219,197.395313 L117.038672,197.395313 L117.038672,134.114063 L53.7574219,134.114063 L53.7574219,197.395313 Z M53.7574219,267.707813 L117.038672,267.707813 L117.038672,204.426563 L53.7574219,204.426563 L53.7574219,267.707813 Z M53.7574219,338.020313 L117.038672,338.020313 L117.038672,274.739063 L53.7574219,274.739063 L53.7574219,338.020313 Z M405.323438,359.588672 L405.323438,345.051563 L415.258594,345.051563 C416.721094,342.738281 418.141406,340.393359 419.523047,338.020313 L405.323438,338.020313 L405.323438,274.739063 L444.413672,274.739063 C444.941016,272.408203 445.44375,270.066797 445.900781,267.707813 L405.323438,267.707813 L405.323438,204.426563 L449.022656,204.426563 C448.808203,202.074609 448.541016,199.733203 448.252734,197.395313 L405.323438,197.395313 L405.323438,134.114063 L430.825781,134.114063 C429.781641,131.758594 428.744531,129.399609 427.623047,127.082813 L405.323438,127.082813 L405.323438,90.4113281 C403.055859,87.3808594 400.703906,84.4136719 398.292188,81.4992188 L398.292188,127.082813 L335.010938,127.082813 L335.010938,63.8015625 L381.898828,63.8015625 C379.430859,61.4039063 376.920703,59.0589844 374.34375,56.7703125 L335.010938,56.7703125 L335.010938,28.74375 C332.690625,27.4429688 330.342188,26.1914063 327.979688,24.9714844 L327.979688,56.7703125 L264.694922,56.7703125 L264.694922,3.56484375 C262.360547,3.15 260.022656,2.73164063 257.663672,2.390625 L257.663672,56.7703125 L194.382422,56.7703125 L194.382422,2.13046875 C192.026953,2.446875 189.682031,2.80195313 187.351172,3.19570313 L187.351172,56.7703125 L124.069922,56.7703125 L124.069922,23.9203125 C121.707422,25.1085938 119.351953,26.3003906 117.038672,27.5660156 L117.038672,56.7703125 L75.6527344,56.7703125 C73.0792969,59.0589844 70.565625,61.4039063 68.1011719,63.8015625 L117.038672,63.8015625 L117.038672,127.082813 L53.7574219,127.082813 L53.7574219,79.1367188 C51.3421875,81.9632813 48.9972656,84.853125 46.7261719,87.8027344 L46.7261719,127.082813 L22.3769531,127.082813 C21.2554688,129.399609 20.2183594,131.758594 19.1777344,134.114063 L46.7261719,134.114063 L46.7261719,197.395313 L1.74726563,197.395313 C1.45898438,199.733203 1.18828125,202.074609 0.97734375,204.426563 L46.7261719,204.426563 L46.7261719,267.707813 L4.09921875,267.707813 C4.55273438,270.066797 5.05898438,272.408203 5.58632813,274.739063 L46.7261719,274.739063 L46.7261719,338.020313 L30.4769531,338.020313 C31.8585938,340.393359 33.2789063,342.738281 34.7414063,345.051563 L46.7261719,345.051563 L46.7261719,362.197266 C48.9972656,365.146875 51.3421875,368.036719 53.7574219,370.863281 L53.7574219,345.051563 L117.038672,345.051563 L117.038672,408.332813 L94.6441406,408.332813 C98.0683594,410.772656 101.555859,413.121094 105.113672,415.364063 L117.038672,415.364063 L117.038672,422.433984 C119.351953,423.703125 121.707422,424.891406 124.069922,426.079688 L124.069922,415.364063 L187.351172,415.364063 L187.351172,446.804297 C189.682031,447.198047 192.026953,447.553125 194.382422,447.873047 L194.382422,415.364063 L257.663672,415.364063 L257.663672,447.609375 C260.022656,447.268359 262.360547,446.853516 264.694922,446.435156 L264.694922,415.364063 L327.979688,415.364063 L327.979688,425.028516 C330.342188,423.808594 332.690625,422.557031 335.010938,421.25625 L335.010938,415.364063 L344.882813,415.364063 C348.444141,413.121094 351.931641,410.772656 355.355859,408.332813 L335.010938,408.332813 L335.010938,345.051563 L398.292188,345.051563 L398.292188,368.500781 C400.703906,365.586328 403.055859,362.622656 405.323438,359.588672 L405.323438,359.588672 Z" id="Fill-3" fill="#FFFFFF"></path>
                <path d="M382.33793,207.318867 L59.0551172,377.468086 C78.6406641,398.568867 102.216445,415.900898 128.59418,428.272383 L418.359023,275.76457 L382.33793,207.318867 Z" id="Fill-5" fill="#17B2CC"></path>
                <path d="M383.203125,144.140625 C383.203125,149.941406 378.457031,154.6875 372.65625,154.6875 L319.921875,154.6875 C314.121094,154.6875 309.375,149.941406 309.375,144.140625 L309.375,126.5625 C309.375,120.761719 314.121094,116.015625 319.921875,116.015625 L372.65625,116.015625 C378.457031,116.015625 383.203125,120.761719 383.203125,126.5625 L383.203125,144.140625 Z" id="Fill-7" fill="#17B2CC"></path>
                <path d="M86.0762109,78.0201562 L62.1875391,68.2045312 C51.1906641,79.5846094 41.3820703,92.1107812 32.9656641,105.607266 L169.509023,161.720156 L210.04418,155.571328 L186.879727,119.444766 L86.0762109,78.0201562 Z" id="Fill-9" fill="#17B2CC"></path>
                <polygon id="Fill-11" fill="#FBD000" points="418.359375 254.670117 60.5882813 442.966992 24.5671875 374.524805 382.338281 186.224414"></polygon>
                <path d="M29.3164453,375.996797 L62.0644922,438.219844 L413.61293,253.196016 L380.864883,190.972969 L29.3164453,375.996797 Z M60.5879297,446.485078 C60.2398828,446.485078 59.8883203,446.432344 59.5473047,446.326875 C58.6578516,446.049141 57.9125391,445.430391 57.4801172,444.607734 L21.4590234,376.162031 C20.5519922,374.442891 21.2129297,372.315937 22.9320703,371.412422 L380.699648,183.115547 C381.522305,182.676094 382.48207,182.584687 383.38207,182.865937 C384.271523,183.143672 385.016836,183.762422 385.449258,184.588594 L421.470352,253.030781 C422.377383,254.753437 421.71293,256.876875 419.997305,257.780391 L62.2262109,446.080781 C61.7164453,446.347969 61.1539453,446.485078 60.5879297,446.485078 L60.5879297,446.485078 Z" id="Fill-13" fill="#064370"></path>
                <path d="M86.9551172,428.635195 C85.6930078,428.635195 84.4695703,427.953164 83.8402734,426.757852 L67.4680078,395.648086 C66.5644922,393.928945 67.2219141,391.801992 68.9410547,390.901992 C70.6601953,390.001992 72.7871484,390.659414 73.6906641,392.375039 L90.0629297,423.481289 C90.9664453,425.20043 90.3090234,427.327383 88.5898828,428.230898 C88.0660547,428.505117 87.5070703,428.635195 86.9551172,428.635195" id="Fill-15" fill="#064370"></path>
                <path d="M136.731797,402.43957 C135.469687,402.43957 134.24625,401.757539 133.616953,400.562227 L117.244687,369.448945 C116.341172,367.729805 116.998594,365.602852 118.717734,364.702852 C120.436875,363.802852 122.563828,364.460273 123.467344,366.175898 L139.839609,397.285664 C140.743125,399.004805 140.085703,401.131758 138.366562,402.035273 C137.842734,402.309492 137.28375,402.43957 136.731797,402.43957" id="Fill-17" fill="#064370"></path>
                <path d="M111.844336,415.537383 C110.582227,415.537383 109.358789,414.865898 108.729492,413.688164 L98.9068359,395.304961 C98.0033203,393.613945 98.6607422,391.518633 100.379883,390.62918 C102.099023,389.746758 104.225977,390.393633 105.125977,392.081133 L114.952148,410.464336 C115.855664,412.155352 115.198242,414.250664 113.479102,415.140117 C112.955273,415.41082 112.396289,415.537383 111.844336,415.537383" id="Fill-19" fill="#064370"></path>
                <path d="M186.510234,376.24043 C185.248125,376.24043 184.024688,375.558398 183.395391,374.363086 L167.019609,343.249805 C166.116094,341.530664 166.777031,339.403711 168.492656,338.503711 C170.211797,337.600195 172.342266,338.261133 173.242266,339.976758 L189.618047,371.086523 C190.521563,372.805664 189.864141,374.932617 188.145,375.836133 C187.621172,376.110352 187.062188,376.24043 186.510234,376.24043" id="Fill-21" fill="#064370"></path>
                <path d="M161.621016,389.338242 C160.358906,389.338242 159.135469,388.656211 158.506172,387.460898 L148.683516,368.79293 C147.776484,367.073789 148.437422,364.950352 150.156563,364.046836 C151.875703,363.146836 154.002656,363.804258 154.902656,365.519883 L164.728828,384.184336 C165.632344,385.903477 164.974922,388.03043 163.255781,388.933945 C162.731953,389.208164 162.172969,389.338242 161.621016,389.338242" id="Fill-23" fill="#064370"></path>
                <path d="M236.285156,350.041641 C235.023047,350.041641 233.799609,349.359609 233.170313,348.164297 L216.798047,317.051016 C215.894531,315.331875 216.551953,313.204922 218.271094,312.304922 C219.99375,311.401406 222.117187,312.062344 223.017187,313.777969 L239.392969,344.887734 C240.3,346.606875 239.635547,348.733828 237.919922,349.637344 C237.396094,349.911563 236.837109,350.041641 236.285156,350.041641" id="Fill-25" fill="#064370"></path>
                <path d="M211.397695,363.139453 C210.135586,363.139453 208.912148,362.457422 208.282852,361.262109 L198.45668,342.594141 C197.553164,340.878516 198.214102,338.751562 199.929727,337.848047 C201.652383,336.944531 203.779336,337.605469 204.679336,339.321094 L214.505508,357.985547 C215.409023,359.701172 214.751602,361.831641 213.032461,362.735156 C212.508633,363.009375 211.949648,363.139453 211.397695,363.139453" id="Fill-27" fill="#064370"></path>
                <path d="M286.063242,323.8425 C284.801133,323.8425 283.577695,323.160469 282.948398,321.965156 L266.572617,290.855391 C265.665586,289.139766 266.330039,287.009297 268.045664,286.109297 C269.761289,285.205781 271.888242,285.863203 272.795273,287.582344 L289.171055,318.688594 C290.078086,320.404219 289.413633,322.534687 287.698008,323.438203 C287.17418,323.712422 286.615195,323.8425 286.063242,323.8425" id="Fill-29" fill="#064370"></path>
                <path d="M261.172617,336.943828 C259.910508,336.943828 258.68707,336.261797 258.057773,335.066484 L248.235117,316.398516 C247.328086,314.679375 247.992539,312.555938 249.708164,311.652422 C251.423789,310.752422 253.554258,311.406328 254.457773,313.125469 L264.28043,331.789922 C265.187461,333.509063 264.523008,335.636016 262.807383,336.539531 C262.283555,336.81375 261.72457,336.943828 261.172617,336.943828" id="Fill-31" fill="#064370"></path>
                <path d="M335.838164,297.643711 C334.576055,297.643711 333.352617,296.96168 332.72332,295.766367 L316.351055,264.656602 C315.444023,262.937461 316.108477,260.810508 317.824102,259.910508 C319.536211,259.006992 321.670195,259.664414 322.573711,261.383555 L338.945977,292.489805 C339.853008,294.208945 339.188555,296.335898 337.47293,297.239414 C336.949102,297.513633 336.390117,297.643711 335.838164,297.643711" id="Fill-33" fill="#064370"></path>
                <path d="M310.950703,310.744687 C309.688594,310.744687 308.465156,310.062656 307.835859,308.867344 L298.009687,290.199375 C297.106172,288.48375 297.767109,286.356797 299.482734,285.453281 C301.198359,284.553281 303.328828,285.207187 304.232344,286.926328 L314.058516,305.590781 C314.965547,307.309922 314.301094,309.436875 312.585469,310.340391 C312.061641,310.614609 311.502656,310.744687 310.950703,310.744687" id="Fill-35" fill="#064370"></path>
                <path d="M385.616602,271.448086 C384.354492,271.448086 383.131055,270.766055 382.501758,269.570742 L366.125977,238.457461 C365.218945,236.741836 365.883398,234.614883 367.599023,233.711367 C369.314648,232.807852 371.445117,233.465273 372.348633,235.184414 L388.724414,266.29418 C389.631445,268.01332 388.966992,270.140273 387.251367,271.043789 C386.727539,271.318008 386.168555,271.448086 385.616602,271.448086" id="Fill-37" fill="#064370"></path>
                <path d="M360.725625,284.545898 C359.463516,284.545898 358.240078,283.863867 357.610781,282.668555 L347.788125,264.000586 C346.881094,262.281445 347.545547,260.154492 349.261172,259.254492 C350.980312,258.354492 353.107266,259.008398 354.010781,260.727539 L363.833437,279.391992 C364.740469,281.111133 364.076016,283.238086 362.360391,284.141602 C361.836562,284.41582 361.277578,284.545898 360.725625,284.545898" id="Fill-39" fill="#064370"></path>
                <path d="M330.472266,234.455273 C329.210156,234.455273 327.986719,233.773242 327.357422,232.57793 C326.450391,230.855273 327.114844,228.731836 328.830469,227.82832 L373.710938,204.206836 C375.423047,203.30332 377.557031,203.964258 378.457031,205.679883 C379.364063,207.399023 378.703125,209.525977 376.983984,210.429492 L332.107031,234.050977 C331.583203,234.325195 331.024219,234.455273 330.472266,234.455273" id="Fill-41" fill="#FFFFFF"></path>
                <path d="M52.7378906,380.631797 C51.4757813,380.631797 50.2523438,379.949766 49.6230469,378.754453 C48.7195313,377.035312 49.3769531,374.908359 51.0960938,374.004844 L297.189844,244.478672 C298.905469,243.575156 301.035938,244.236094 301.939453,245.951719 C302.846484,247.674375 302.182031,249.797812 300.466406,250.701328 L54.3726563,380.2275 C53.8488281,380.501719 53.2898438,380.631797 52.7378906,380.631797" id="Fill-43" fill="#FFFFFF"></path>
                <polygon id="Fill-45" fill="#EBEBEB" points="186.880781 102.443906 210.045234 138.566953 169.510078 144.719297"></polygon>
                <polygon id="Fill-47" fill="#EBEBEB" points="169.51043 144.717539 23.1795703 84.5827734 40.5502734 42.3108984 186.881133 102.442148"></polygon>
                <polygon id="Fill-49" fill="#28A5C6" points="68.7041016 103.292227 23.1802734 84.5855859 40.5509766 42.3101953 86.0748047 61.0168359"></polygon>
                <path d="M29.1304687,82.4371875 L167.786719,139.594219 L182.358984,104.012578 L43.70625,46.8555469 L29.1304687,82.4371875 Z M169.685156,147.655547 C169.235156,147.655547 168.785156,147.567656 168.359766,147.391875 L23.2558594,87.5770312 C21.4734375,86.8422656 20.6226563,84.7996875 21.3574219,83.01375 L38.5804688,40.9633594 C38.9320313,40.1055469 39.6105469,39.4235156 40.4613281,39.0649219 C41.3121094,38.7063281 42.2753906,38.7028125 43.1296875,39.0578906 L188.233594,98.8727344 C190.016016,99.6075 190.866797,101.650078 190.135547,103.436016 L172.908984,145.486406 C172.557422,146.347734 171.882422,147.029766 171.028125,147.384844 C170.599219,147.564141 170.142187,147.655547 169.685156,147.655547 L169.685156,147.655547 Z" id="Fill-51" fill="#064370"></path>
                <path d="M187.970625,110.026406 L175.293281,140.31 L204.877266,135.904922 L187.970625,110.026406 Z M169.576875,148.234219 C168.487031,148.234219 167.442891,147.745547 166.760859,146.887734 C165.962812,145.892812 165.772969,144.553359 166.265156,143.382656 L183.959297,101.107266 C184.469062,99.894375 185.618672,99.0611719 186.951094,98.9416406 C188.28,98.825625 189.566719,99.444375 190.287422,100.548281 L213.887812,136.671328 C214.541719,137.673281 214.633125,138.931875 214.133906,140.018203 C213.634687,141.104531 212.608125,141.867422 211.409297,142.043203 L170.114766,148.192031 C169.935469,148.220156 169.756172,148.234219 169.576875,148.234219 L169.576875,148.234219 Z" id="Fill-53" fill="#064370"></path>
                <polygon id="Fill-55" fill="#064370" points="193.829766 141.026836 210.043828 138.569414 200.780156 124.11668"></polygon>
                <path d="M66.9174609,70.3125 C66.4885547,70.3125 66.0491016,70.2316406 65.6307422,70.0628906 L46.8010547,62.5746094 C45.0678516,61.8855469 44.2381641,59.9660156 44.9518359,58.2890625 C45.6619922,56.6121094 47.6518359,55.8070313 49.3780078,56.4996094 L68.2076953,63.9878906 C69.9408984,64.6769531 70.7670703,66.5964844 70.0569141,68.2734375 C69.5190234,69.5460938 68.2533984,70.3125 66.9174609,70.3125" id="Fill-57" fill="#FFFFFF"></path>
                <path d="M165.275508,112.285547 C164.832539,112.285547 164.379023,112.201172 163.943086,112.018359 L95.6520703,83.9601562 C93.8555859,83.221875 92.9977734,81.16875 93.7360547,79.3722656 C94.4743359,77.5757812 96.5309766,76.7179687 98.3239453,77.45625 L166.611445,105.517969 C168.411445,106.25625 169.265742,108.309375 168.527461,110.102344 C167.971992,111.462891 166.660664,112.285547 165.275508,112.285547" id="Fill-59" fill="#FFFFFF"></path>
                <path d="M383.203125,130.078125 C383.203125,135.878906 378.457031,140.625 372.65625,140.625 L319.921875,140.625 C314.121094,140.625 309.375,135.878906 309.375,130.078125 L309.375,112.5 C309.375,106.699219 314.121094,101.953125 319.921875,101.953125 L372.65625,101.953125 C378.457031,101.953125 383.203125,106.699219 383.203125,112.5 L383.203125,130.078125 Z" id="Fill-61" fill="#EBEBEB"></path>
                <path d="M319.921875,105.46875 C316.044141,105.46875 312.890625,108.622266 312.890625,112.5 L312.890625,130.078125 C312.890625,133.955859 316.044141,137.109375 319.921875,137.109375 L372.65625,137.109375 C376.530469,137.109375 379.6875,133.955859 379.6875,130.078125 L379.6875,112.5 C379.6875,108.622266 376.530469,105.46875 372.65625,105.46875 L319.921875,105.46875 Z M372.65625,144.140625 L319.921875,144.140625 C312.166406,144.140625 305.859375,137.833594 305.859375,130.078125 L305.859375,112.5 C305.859375,104.744531 312.166406,98.4375 319.921875,98.4375 L372.65625,98.4375 C380.411719,98.4375 386.71875,104.744531 386.71875,112.5 L386.71875,130.078125 C386.71875,137.833594 380.411719,144.140625 372.65625,144.140625 L372.65625,144.140625 Z" id="Fill-63" fill="#064370"></path>
                <path d="M365.625,119.53125 L326.953125,119.53125 C325.008984,119.53125 323.4375,117.95625 323.4375,116.015625 C323.4375,114.075 325.008984,112.5 326.953125,112.5 L365.625,112.5 C367.569141,112.5 369.140625,114.075 369.140625,116.015625 C369.140625,117.95625 367.569141,119.53125 365.625,119.53125" id="Fill-65" fill="#FFFFFF"></path>
                <path d="M298.826367,372.208008 C294.702539,372.208008 291.348633,375.561914 291.348633,379.689258 C291.348633,383.813086 294.702539,387.166992 298.826367,387.166992 C302.950195,387.166992 306.307617,383.813086 306.307617,379.689258 C306.307617,375.561914 302.950195,372.208008 298.826367,372.208008 M298.826367,393.748242 C291.074414,393.748242 284.767383,387.444727 284.767383,379.689258 C284.767383,371.933789 291.074414,365.623242 298.826367,365.623242 C306.581836,365.623242 312.892383,371.933789 312.892383,379.689258 C312.892383,387.444727 306.581836,393.748242 298.826367,393.748242" id="Fill-67" fill="#FFFFFF"></path>
                <path d="M284.762461,76.8955078 C280.638633,76.8955078 277.284727,80.2529297 277.284727,84.3767578 C277.284727,88.5005859 280.638633,91.8544922 284.762461,91.8544922 C288.886289,91.8544922 292.243711,88.5005859 292.243711,84.3767578 C292.243711,80.2529297 288.886289,76.8955078 284.762461,76.8955078 M284.762461,98.4357422 C277.010508,98.4357422 270.703477,92.1322266 270.703477,84.3767578 C270.703477,76.6212891 277.010508,70.3107422 284.762461,70.3107422 C292.514414,70.3107422 298.824961,76.6212891 298.824961,84.3767578 C298.824961,92.1322266 292.514414,98.4357422 284.762461,98.4357422" id="Fill-69" fill="#FFFFFF"></path>
                <path d="M105.46875,231.584766 C105.46875,230.210156 103.904297,228.849609 101.991797,228.557813 L95.4527344,227.569922 C93.5402344,227.278125 91.7402344,225.474609 91.4519531,223.565625 L90.4605469,217.030078 C90.1722656,215.121094 88.8117187,213.556641 87.4371094,213.556641 C86.0625,213.556641 84.7019531,215.121094 84.4136719,217.030078 L83.4222656,223.565625 C83.1339844,225.474609 81.3339844,227.278125 79.4214844,227.569922 L72.8824219,228.557813 C70.9699219,228.849609 69.4054687,230.210156 69.4054687,231.584766 C69.4054687,232.959375 70.9699219,234.319922 72.8824219,234.608203 L79.4214844,235.599609 C81.3339844,235.887891 83.1339844,237.687891 83.4222656,239.596875 L84.4136719,246.135938 C84.7019531,248.044922 86.0625,249.609375 87.4371094,249.609375 C88.8117187,249.609375 90.1546875,248.044922 90.4253906,246.128906 L91.4871094,238.584375 C91.7578125,236.668359 93.5542969,234.984375 95.4808594,234.840234 L101.963672,234.348047 C103.890234,234.203906 105.46875,232.959375 105.46875,231.584766" id="Fill-71" fill="#FFFFFF"></path>
            </g>
        </g>
    </g>
</svg>