<?xml version="1.0" encoding="UTF-8"?>
<svg width="580px" height="654px" viewBox="0 0 580 654" version="1.1" xmlns="http://www.w3.org/2000/svg" xmlns:xlink="http://www.w3.org/1999/xlink">
    <!-- Generator: Sketch 3.8.1 (29687) - http://www.bohemiancoding.com/sketch -->
    <title>014-global connection</title>
    <desc>Created with Sketch.</desc>
    <defs></defs>
    <g id="Page-1" stroke="none" stroke-width="1" fill="none" fill-rule="evenodd">
        <g id="014-global-connection">
            <g id="global_connection">
                <g id="global_connection_1_">
                    <ellipse id="Oval" fill="#C4C4C4" cx="491.787705" cy="118.623345" rx="82.9352459" ry="82.9578777"></ellipse>
                    <ellipse id="Oval" fill="#C4C4C4" cx="40.4098361" cy="35.4039209" rx="35.3942623" ry="35.4039209"></ellipse>
                    <ellipse id="Oval" fill="#E4E5E7" cx="128.360656" cy="553.756317" rx="99.8360656" ry="99.8633094"></ellipse>
                    <rect id="Rectangle-path" fill="#34C9A2" x="52.295082" y="315.972266" width="71.3114754" height="9.51079137"></rect>
                    <rect id="Rectangle-path" fill="#34C9A2" x="456.393443" y="315.972266" width="71.3114754" height="9.51079137"></rect>
                    <rect id="Rectangle-path" fill="#34C9A2" x="285.245902" y="82.9578777" width="9.50819672" height="71.3309353"></rect>
                    <rect id="Rectangle-path" fill="#34C9A2" x="285.245902" y="201.676331" width="9.50819672" height="95.2886187"></rect>
                    <rect id="Rectangle-path" fill="#34C9A2" x="285.245902" y="344.428554" width="9.50819672" height="95.2886187"></rect>
                    <rect id="Rectangle-path" fill="#34C9A2" x="171.009672" y="315.934223" width="95.262623" height="9.51079137"></rect>
                    <rect id="Rectangle-path" fill="#34C9A2" x="313.722951" y="315.934223" width="95.262623" height="9.51079137"></rect>
                    <rect id="Rectangle-path" fill="#34C9A2" x="285.245902" y="487.166511" width="9.50819672" height="71.3309353"></rect>
                    <rect id="Rectangle-path" fill="#000000" transform="translate(433.547380, 177.141914) rotate(45.000000) translate(-433.547380, -177.141914) " x="428.793327" y="142.449257" width="9.50810554" height="69.385313"></rect>
                    <rect id="Rectangle-path" fill="#000000" transform="translate(147.378855, 463.394384) rotate(45.000000) translate(-147.378855, -463.394384) " x="142.624802" y="428.701727" width="9.50810554" height="69.385313"></rect>
                    <rect id="Rectangle-path" fill="#000000" transform="translate(433.548404, 463.387143) rotate(45.000000) translate(-433.548404, -463.387143) " x="398.865212" y="458.631793" width="69.3663839" height="9.51070016"></rect>
                    <rect id="Rectangle-path" fill="#000000" transform="translate(147.374027, 177.140527) rotate(45.000000) translate(-147.374027, -177.140527) " x="112.690835" y="172.385177" width="69.3663839" height="9.51070016"></rect>
                    <path d="M290,587.044086 C143.198197,587.044086 23.7704918,467.579036 23.7704918,320.741928 C23.7704918,173.90482 143.198197,54.4397698 290,54.4397698 C436.801803,54.4397698 556.229508,173.90482 556.229508,320.741928 C556.229508,467.579036 436.801803,587.044086 290,587.044086 L290,587.044086 Z M290,63.9505612 C148.446721,63.9505612 33.2786885,179.145266 33.2786885,320.741928 C33.2786885,462.33859 148.446721,577.533295 290,577.533295 C431.553279,577.533295 546.721311,462.33859 546.721311,320.741928 C546.721311,179.145266 431.553279,63.9505612 290,63.9505612 L290,63.9505612 Z" id="Shape" fill="#000000"></path>
                    <path d="M297.582787,532.223885 L297.25,522.717849 C301.937541,522.55141 306.672623,522.223288 311.312623,521.733482 L312.30623,531.191964 C307.442787,531.705547 302.489016,532.052691 297.582787,532.223885 L297.582787,532.223885 Z M268.112131,531.239518 C263.224918,530.740201 258.304426,530.055424 253.493279,529.218475 L255.128689,519.84559 C259.721148,520.644496 264.418197,521.295986 269.091475,521.776281 L268.112131,531.239518 L268.112131,531.239518 Z M341.349016,526.075158 L339.057541,516.849691 C343.602459,515.717906 348.156885,514.410173 352.601967,512.964532 L355.544754,522.00454 C350.890492,523.516755 346.112623,524.886309 341.349016,526.075158 L341.349016,526.075158 Z M224.859344,522.132935 C220.195574,520.625475 215.517541,518.927799 210.963115,517.092216 L214.51918,508.270957 C218.864426,510.025698 223.333279,511.642532 227.783115,513.083417 L224.859344,522.132935 L224.859344,522.132935 Z M382.885574,510.919712 L378.706721,502.374266 C382.918852,500.31518 387.097705,498.084899 391.133934,495.745245 L395.897541,503.972079 C391.675902,506.425863 387.297377,508.760763 382.885574,510.919712 L382.885574,510.919712 Z M184.425738,504.162295 C180.175574,501.708511 175.968197,499.078777 171.898689,496.339669 L177.209016,488.450468 C181.093115,491.065935 185.119836,493.58154 189.179836,495.92595 L184.425738,504.162295 L184.425738,504.162295 Z M420.31459,487.451835 L414.457541,479.957331 C418.122951,477.094583 421.750328,474.046374 425.249344,470.888791 L431.619836,477.950554 C427.954426,481.255554 424.151148,484.45118 420.31459,487.451835 L420.31459,487.451835 Z M148.646393,478.183568 C144.97623,474.888079 141.401148,471.440417 138.01623,467.940446 L144.852623,461.325691 C148.08541,464.668734 151.494098,467.959468 155.002623,471.10754 L148.646393,478.183568 L148.646393,478.183568 Z M452.090984,456.727223 L444.821967,450.602273 C447.821803,447.035727 450.74082,443.297986 453.507705,439.498424 L461.195082,445.09077 C458.299836,449.075791 455.238197,452.989482 452.090984,456.727223 L452.090984,456.727223 Z M119.009344,445.376094 C116.137869,441.438626 113.351967,437.329964 110.732459,433.164237 L118.781148,428.104496 C121.281803,432.084763 123.944098,436.012719 126.687213,439.769482 L119.009344,445.376094 L119.009344,445.376094 Z M476.84082,420.077388 L468.45459,415.597806 C470.641475,411.498655 472.72377,407.23782 474.64918,402.924676 L483.330164,406.790813 C481.31918,411.308439 479.132295,415.778511 476.84082,420.077388 L476.84082,420.077388 Z M96.8314754,407.156978 C94.83,402.696417 92.9663934,398.102705 91.2739344,393.494727 L100.206885,390.223014 C101.81377,394.621755 103.601311,399.010986 105.502951,403.262309 L96.8314754,407.156978 L96.8314754,407.156978 Z M493.423115,379.038324 L484.285738,376.418101 C485.574098,371.929007 486.715082,367.325784 487.680164,362.741583 L496.983934,364.705561 C495.971311,369.508511 494.773279,374.335237 493.423115,379.038324 L493.423115,379.038324 Z M83.1111475,365.138302 C82.0890164,360.354374 81.2237705,355.465827 80.5344262,350.605813 L89.947541,349.274302 C90.6036066,353.915568 91.4308197,358.585367 92.4054098,363.155302 L83.1111475,365.138302 L83.1111475,365.138302 Z M501.053443,335.493165 L491.564262,334.836921 C491.887541,330.181388 492.053934,325.435504 492.053934,320.741928 L492.053934,319.881201 L501.562131,319.881201 L501.562131,320.741928 C501.557377,325.654252 501.38623,330.618885 501.053443,335.493165 L501.053443,335.493165 Z M78.442623,321.169914 L78.442623,320.741928 C78.442623,316.000799 78.5995082,311.188338 78.9180328,306.437698 L88.4072131,307.06541 C88.1077049,311.611568 87.9508197,316.214791 87.9508197,320.741928 L78.442623,321.169914 L78.442623,321.169914 Z M489.99541,291.80059 C489.315574,287.135547 488.483607,282.465748 487.504262,277.91959 L496.798525,275.917568 C497.82541,280.672964 498.700164,285.556755 499.40377,290.440547 L489.99541,291.80059 L489.99541,291.80059 Z M92.2295082,279.151237 L82.9257377,277.206281 C83.9240984,272.422353 85.1078689,267.600381 86.4485246,262.873518 L95.5954098,265.465209 C94.3213115,269.978079 93.1898361,274.581302 92.2295082,279.151237 L92.2295082,279.151237 Z M479.650492,250.861388 C478.034098,246.472158 476.237049,242.087683 474.321148,237.831604 L482.992623,233.922669 C484.998852,238.38323 486.876721,242.972187 488.573934,247.57541 L479.650492,250.861388 L479.650492,250.861388 Z M105.179672,238.944367 L96.4891803,235.092496 C98.4954098,230.560604 100.668033,226.090532 102.95,221.791655 L111.345738,226.256971 C109.168361,230.356122 107.09082,234.621712 105.179672,238.944367 L105.179672,238.944367 Z M460.990656,213.02746 C458.475738,209.042439 455.803934,205.119237 453.056066,201.381496 L460.724426,195.751108 C463.595902,199.669554 466.391311,203.77346 469.029836,207.943942 L460.990656,213.02746 L460.990656,213.02746 Z M126.25459,202.32782 L118.548197,196.749741 C121.419672,192.778986 124.476557,188.86054 127.62377,185.094266 L134.911803,191.195439 C131.907213,194.790518 128.992951,198.533014 126.25459,202.32782 L126.25459,202.32782 Z M434.866885,179.858576 C431.60082,176.501266 428.177869,173.215288 424.688361,170.095748 L431.030328,163.010209 C434.681475,166.277165 438.261311,169.715317 441.679508,173.229554 L434.866885,179.858576 L434.866885,179.858576 Z M154.432131,170.875633 L148.052131,163.823381 C151.684262,160.537403 155.478033,157.332266 159.328852,154.303079 L165.204918,161.778561 C161.534754,164.674597 157.907377,167.732317 154.432131,170.875633 L154.432131,170.875633 Z M402.443934,152.800374 C398.559836,150.189662 394.523607,147.683568 390.458852,145.353424 L395.193934,137.107568 C399.448852,139.547086 403.665738,142.172065 407.744754,144.906417 L402.443934,152.800374 L402.443934,152.800374 Z M188.504754,145.947849 L183.722131,137.72577 C187.953279,135.262475 192.327049,132.918065 196.719836,130.75436 L200.917705,139.290295 C196.72459,141.358892 192.545738,143.598683 188.504754,145.947849 L188.504754,145.947849 Z M365.100492,133.055971 C360.740984,131.310741 356.272131,129.703417 351.817541,128.272043 L354.722295,119.21777 C359.386066,120.715719 364.068852,122.403885 368.628033,124.229957 L365.100492,133.055971 L365.100492,133.055971 Z M227.003443,128.652475 L224.041639,119.617223 C228.714918,118.08123 233.488033,116.702165 238.223115,115.513317 L240.533607,124.734029 C236.021967,125.870568 231.467541,127.187813 227.003443,128.652475 L227.003443,128.652475 Z M324.457705,121.566935 C319.860492,120.77754 315.163443,120.135561 310.490164,119.669532 L311.445738,110.206295 C316.328197,110.700856 321.248689,111.371367 326.06459,112.198806 L324.457705,121.566935 L324.457705,121.566935 Z M268.269016,119.793173 L267.256393,110.339446 C272.105574,109.821108 277.05459,109.464453 281.975082,109.278993 L282.326885,118.785029 C277.625082,118.956223 272.894754,119.298612 268.269016,119.793173 L268.269016,119.793173 Z" id="Shape" fill="#000000"></path>
                    <path d="M290,468.159194 C208.733443,468.159194 142.622951,402.025906 142.622951,320.741928 C142.622951,239.45795 208.733443,173.324662 290,173.324662 C371.266557,173.324662 437.377049,239.45795 437.377049,320.741928 C437.377049,402.025906 371.266557,468.159194 290,468.159194 L290,468.159194 Z M290,182.835453 C213.981967,182.835453 152.131148,244.698396 152.131148,320.741928 C152.131148,396.78546 213.981967,458.648403 290,458.648403 C366.018033,458.648403 427.868852,396.78546 427.868852,320.741928 C427.868852,244.698396 366.018033,182.835453 290,182.835453 L290,182.835453 Z" id="Shape" fill="#000000"></path>
                    <g id="Group" transform="translate(0.000000, 292.079137)">
                        <ellipse id="Oval" fill="#FFFFFF" cx="28.5245902" cy="28.6627914" rx="23.7704918" ry="23.7769784"></ellipse>
                        <path d="M28.5245902,57.1951655 C12.7932787,57.1951655 0,44.3983957 0,28.6627914 C0,12.9271871 12.7932787,0.130417266 28.5245902,0.130417266 C44.2559016,0.130417266 57.0491803,12.9271871 57.0491803,28.6627914 C57.0491803,44.3983957 44.2559016,57.1951655 28.5245902,57.1951655 L28.5245902,57.1951655 Z M28.5245902,9.64120863 C18.0370492,9.64120863 9.50819672,18.1723885 9.50819672,28.6627914 C9.50819672,39.1531942 18.0370492,47.6843741 28.5245902,47.6843741 C39.0121311,47.6843741 47.5409836,39.1531942 47.5409836,28.6627914 C47.5409836,18.1723885 39.0121311,9.64120863 28.5245902,9.64120863 L28.5245902,9.64120863 Z" id="Shape" fill="#000000"></path>
                    </g>
                    <g id="Group" transform="translate(522.950820, 292.079137)">
                        <ellipse id="Oval" fill="#FFFFFF" cx="28.5245902" cy="28.6627914" rx="23.7704918" ry="23.7769784"></ellipse>
                        <path d="M28.5245902,57.1951655 C12.7932787,57.1951655 0,44.3983957 0,28.6627914 C0,12.9271871 12.7932787,0.130417266 28.5245902,0.130417266 C44.2559016,0.130417266 57.0491803,12.9271871 57.0491803,28.6627914 C57.0491803,44.3983957 44.2559016,57.1951655 28.5245902,57.1951655 L28.5245902,57.1951655 Z M28.5245902,9.64120863 C18.0370492,9.64120863 9.50819672,18.1723885 9.50819672,28.6627914 C9.50819672,39.1531942 18.0370492,47.6843741 28.5245902,47.6843741 C39.0121311,47.6843741 47.5409836,39.1531942 47.5409836,28.6627914 C47.5409836,18.1723885 39.0121311,9.64120863 28.5245902,9.64120863 L28.5245902,9.64120863 Z" id="Shape" fill="#000000"></path>
                    </g>
                    <g id="Group" transform="translate(261.475410, 30.532374)">
                        <ellipse id="Oval" fill="#FFFFFF" cx="28.5245902" cy="28.6627914" rx="23.7704918" ry="23.7769784"></ellipse>
                        <path d="M28.5245902,57.1951655 C12.7932787,57.1951655 0,44.3983957 0,28.6627914 C0,12.9271871 12.7932787,0.130417266 28.5245902,0.130417266 C44.2559016,0.130417266 57.0491803,12.9271871 57.0491803,28.6627914 C57.0491803,44.3983957 44.2559016,57.1951655 28.5245902,57.1951655 L28.5245902,57.1951655 Z M28.5245902,9.64120863 C18.0370492,9.64120863 9.50819672,18.1723885 9.50819672,28.6627914 C9.50819672,39.1531942 18.0370492,47.6843741 28.5245902,47.6843741 C39.0121311,47.6843741 47.5409836,39.1531942 47.5409836,28.6627914 C47.5409836,18.1723885 39.0121311,9.64120863 28.5245902,9.64120863 L28.5245902,9.64120863 Z" id="Shape" fill="#000000"></path>
                    </g>
                    <g id="Group" transform="translate(261.475410, 553.625899)">
                        <ellipse id="Oval" fill="#FFFFFF" cx="28.5245902" cy="28.6627914" rx="23.7704918" ry="23.7769784"></ellipse>
                        <path d="M28.5245902,57.1951655 C12.7932787,57.1951655 0,44.3983957 0,28.6627914 C0,12.9271871 12.7932787,0.130417266 28.5245902,0.130417266 C44.2559016,0.130417266 57.0491803,12.9271871 57.0491803,28.6627914 C57.0491803,44.3983957 44.2559016,57.1951655 28.5245902,57.1951655 L28.5245902,57.1951655 Z M28.5245902,9.64120863 C18.0370492,9.64120863 9.50819672,18.1723885 9.50819672,28.6627914 C9.50819672,39.1531942 18.0370492,47.6843741 28.5245902,47.6843741 C39.0121311,47.6843741 47.5409836,39.1531942 47.5409836,28.6627914 C47.5409836,18.1723885 39.0121311,9.64120863 28.5245902,9.64120863 L28.5245902,9.64120863 Z" id="Shape" fill="#000000"></path>
                    </g>
                    <g id="Group" transform="translate(76.065574, 106.618705)">
                        <ellipse id="Oval" fill="#FFFFFF" cx="29.0427869" cy="29.1811295" rx="23.7704918" ry="23.7769784"></ellipse>
                        <path d="M29.0427869,57.7135036 C21.4172131,57.7135036 14.257541,54.7413813 8.87114754,49.353518 C-2.24868852,38.2306475 -2.24868852,20.1268561 8.87114754,9.00398561 C14.2622951,3.6161223 21.4267213,0.644 29.0427869,0.644 C36.6588525,0.644 43.8232787,3.6161223 49.2096721,9.00398561 C54.6008197,14.3918489 57.567377,21.5582302 57.567377,29.1811295 C57.567377,36.8040288 54.6008197,43.9656547 49.2096721,49.3582734 C43.8280328,54.7461367 36.6636066,57.7135036 29.0427869,57.7135036 L29.0427869,57.7135036 Z M29.0427869,10.1595468 C23.9654098,10.1595468 19.187541,12.1425468 15.5934426,15.7328705 C8.17704918,23.1512878 8.17704918,35.2157266 15.5934426,42.6341439 C19.187541,46.2244676 23.9654098,48.2074676 29.0427869,48.2074676 C34.1201639,48.2074676 38.8932787,46.2244676 42.487377,42.6341439 C46.0814754,39.0438201 48.0591803,34.2646475 48.0591803,29.1858849 C48.0591803,24.1071223 46.0814754,19.3279496 42.487377,15.7328705 C38.8980328,12.1377914 34.124918,10.1595468 29.0427869,10.1595468 L29.0427869,10.1595468 Z" id="Shape" fill="#34C9A2"></path>
                    </g>
                    <g id="Group" transform="translate(446.131148, 476.539568)">
                        <ellipse id="Oval" fill="#FFFFFF" cx="28.7604918" cy="29.1444532" rx="23.7704918" ry="23.7769784"></ellipse>
                        <path d="M28.7604918,57.6768273 C21.1396721,57.6768273 13.98,54.704705 8.59360656,49.3168417 C3.20245902,43.9289784 0.235901639,36.7625971 0.235901639,29.1396978 C0.235901639,21.5167986 3.20245902,14.3551727 8.59360656,8.96255396 C13.98,3.57469065 21.1444262,0.607323741 28.7604918,0.607323741 C36.3860656,0.607323741 43.5457377,3.57944604 48.9321311,8.96730935 C60.0519672,20.0901799 60.0519672,38.1939712 48.9321311,49.3168417 C43.5409836,54.7094604 36.3765574,57.6768273 28.7604918,57.6768273 L28.7604918,57.6768273 Z M28.7604918,10.1228705 C23.6831148,10.1228705 18.91,12.1058705 15.3159016,15.6961942 C11.7218033,19.286518 9.74409836,24.0656906 9.74409836,29.1444532 C9.74409836,34.2232158 11.7218033,39.0023885 15.3159016,42.5974676 C18.91,46.1877914 23.6831148,48.1707914 28.7604918,48.1707914 C33.8378689,48.1707914 38.6157377,46.1877914 42.2098361,42.5974676 C49.6262295,35.1790504 49.6262295,23.1146115 42.2098361,15.6961942 C38.6157377,12.1011151 33.8378689,10.1228705 28.7604918,10.1228705 L28.7604918,10.1228705 Z" id="Shape" fill="#34C9A2"></path>
                    </g>
                    <g id="Group" transform="translate(261.475410, 434.741007)">
                        <ellipse id="Oval" fill="#FFFFFF" cx="28.5245902" cy="28.6627914" rx="23.7704918" ry="23.7769784"></ellipse>
                        <path d="M28.5245902,57.1999209 C20.9037705,57.1999209 13.7440984,54.2277986 8.35770492,48.8399353 C2.96655738,43.4473165 0,36.2856906 0,28.6627914 C0,21.0398921 2.96655738,13.8782662 8.35770492,8.48564748 C13.7440984,3.09778417 20.9085246,0.130417266 28.5245902,0.130417266 C36.1501639,0.130417266 43.3098361,3.10253957 48.6962295,8.49040288 C59.8160656,19.6132734 59.8160656,37.7170647 48.6962295,48.8399353 C43.305082,54.2277986 36.1454098,57.1999209 28.5245902,57.1999209 L28.5245902,57.1999209 Z M28.5245902,9.64120863 C23.4472131,9.64120863 18.6740984,11.6242086 15.08,15.2145324 C11.4859016,18.8048561 9.50819672,23.5840288 9.50819672,28.6627914 C9.50819672,33.741554 11.4859016,38.5207266 15.08,42.1158058 C18.6740984,45.7061295 23.4472131,47.6891295 28.5245902,47.6891295 C33.6019672,47.6891295 38.3798361,45.7061295 41.9739344,42.1158058 C49.3903279,34.6973885 49.3903279,22.6329496 41.9739344,15.2145324 C38.3798361,11.6242086 33.6019672,9.64120863 28.5245902,9.64120863 L28.5245902,9.64120863 Z" id="Shape" fill="#34C9A2"></path>
                    </g>
                    <g id="Group" transform="translate(261.475410, 292.079137)">
                        <ellipse id="Oval" fill="#FFFFFF" cx="28.5245902" cy="28.6627914" rx="23.7704918" ry="23.7769784"></ellipse>
                        <path d="M28.5245902,57.1951655 C20.9037705,57.1951655 13.7440984,54.2230432 8.35770492,48.8351799 C2.96655738,43.4473165 0,36.2856906 0,28.6627914 C0,21.0398921 2.96655738,13.8782662 8.35770492,8.48564748 C13.7440984,3.09778417 20.9085246,0.130417266 28.5245902,0.130417266 C36.1501639,0.130417266 43.305082,3.10253957 48.6962295,8.49040288 C59.8160656,19.6132734 59.8160656,37.7170647 48.6962295,48.8399353 C43.305082,54.2277986 36.1454098,57.1951655 28.5245902,57.1951655 L28.5245902,57.1951655 Z M28.5245902,9.64120863 C23.4472131,9.64120863 18.6740984,11.6242086 15.08,15.2145324 C11.4859016,18.8048561 9.50819672,23.5792734 9.50819672,28.6627914 C9.50819672,33.7463094 11.4859016,38.5207266 15.08,42.1158058 C18.6740984,45.7061295 23.4472131,47.6891295 28.5245902,47.6891295 C33.6019672,47.6891295 38.3798361,45.7061295 41.9739344,42.1158058 C49.3903279,34.6973885 49.3903279,22.6329496 41.9739344,15.2145324 C38.3798361,11.6194532 33.6019672,9.64120863 28.5245902,9.64120863 L28.5245902,9.64120863 Z" id="Shape" fill="#000000"></path>
                    </g>
                    <g id="Group" transform="translate(261.475410, 149.417266)">
                        <ellipse id="Oval" fill="#FFFFFF" cx="28.5245902" cy="28.6627914" rx="23.7704918" ry="23.7769784"></ellipse>
                        <path d="M28.5245902,57.1999209 C20.9037705,57.1999209 13.7440984,54.2277986 8.35770492,48.8399353 C2.96655738,43.4473165 0,36.2856906 0,28.6627914 C0,21.0398921 2.96655738,13.8782662 8.35770492,8.48564748 C13.7440984,3.09778417 20.9085246,0.130417266 28.5245902,0.130417266 C36.1501639,0.130417266 43.3098361,3.10253957 48.6962295,8.49040288 C59.8160656,19.6132734 59.8160656,37.7170647 48.6962295,48.8399353 C43.305082,54.2277986 36.1454098,57.1999209 28.5245902,57.1999209 L28.5245902,57.1999209 Z M28.5245902,9.64120863 C23.4472131,9.64120863 18.6740984,11.6242086 15.08,15.2145324 C11.4859016,18.8048561 9.50819672,23.5840288 9.50819672,28.6627914 C9.50819672,33.741554 11.4859016,38.5207266 15.08,42.1158058 C18.6740984,45.7061295 23.4472131,47.6891295 28.5245902,47.6891295 C33.6019672,47.6891295 38.3798361,45.7061295 41.9739344,42.1158058 C49.3903279,34.6973885 49.3903279,22.6329496 41.9739344,15.2145324 C38.3798361,11.6242086 33.6019672,9.64120863 28.5245902,9.64120863 L28.5245902,9.64120863 Z" id="Shape" fill="#34C9A2"></path>
                    </g>
                    <g id="Group" transform="translate(404.098361, 292.079137)">
                        <ellipse id="Oval" fill="#FFFFFF" cx="28.5245902" cy="28.6627914" rx="23.7704918" ry="23.7769784"></ellipse>
                        <path d="M28.5245902,57.1951655 C20.9037705,57.1951655 13.7440984,54.2230432 8.35770492,48.8351799 C-2.76688525,37.7123094 -2.76688525,19.608518 8.35770492,8.48564748 C13.7488525,3.09778417 20.9132787,0.130417266 28.5293443,0.130417266 C36.1454098,0.130417266 43.3098361,3.09778417 48.6962295,8.48564748 C59.8160656,19.6132734 59.8160656,37.7123094 48.6962295,48.8351799 C43.305082,54.2277986 36.1454098,57.1951655 28.5245902,57.1951655 L28.5245902,57.1951655 Z M28.5293443,9.64120863 C23.4519672,9.64120863 18.6740984,11.6194532 15.08,15.209777 C7.66360656,22.6234388 7.66360656,34.6926331 15.08,42.1110504 C22.2681967,49.3012086 34.7904918,49.3012086 41.9739344,42.1110504 C49.3903279,34.6926331 49.3903279,22.6281942 41.9739344,15.209777 C38.3845902,11.6194532 33.6067213,9.64120863 28.5293443,9.64120863 L28.5293443,9.64120863 Z" id="Shape" fill="#34C9A2"></path>
                    </g>
                    <g id="Group" transform="translate(118.852459, 292.079137)">
                        <ellipse id="Oval" fill="#FFFFFF" cx="28.5245902" cy="28.6627914" rx="23.7704918" ry="23.7769784"></ellipse>
                        <path d="M28.5245902,57.1951655 C20.9037705,57.1951655 13.7440984,54.2230432 8.35770492,48.8351799 C-2.76688525,37.7123094 -2.76688525,19.608518 8.35770492,8.48564748 C13.7488525,3.09778417 20.9132787,0.130417266 28.5293443,0.130417266 C36.1454098,0.130417266 43.3098361,3.09778417 48.6962295,8.48564748 C59.8160656,19.6132734 59.8160656,37.7123094 48.6962295,48.8351799 C43.305082,54.2277986 36.1454098,57.1951655 28.5245902,57.1951655 L28.5245902,57.1951655 Z M28.5293443,9.64120863 C23.4519672,9.64120863 18.6740984,11.6194532 15.08,15.209777 C7.66360656,22.6234388 7.66360656,34.6926331 15.08,42.1110504 C22.2681967,49.3012086 34.7904918,49.3012086 41.9739344,42.1110504 C49.3903279,34.6926331 49.3903279,22.6281942 41.9739344,15.209777 C38.3845902,11.6194532 33.6067213,9.64120863 28.5293443,9.64120863 L28.5293443,9.64120863 Z" id="Shape" fill="#34C9A2"></path>
                    </g>
                    <g id="Group" transform="translate(446.131148, 106.618705)">
                        <ellipse id="Oval" fill="#FFFFFF" cx="28.7604918" cy="29.1811295" rx="23.7704918" ry="23.7769784"></ellipse>
                        <path d="M28.7652459,57.7135036 C21.1444262,57.7135036 13.9847541,54.7461367 8.59360656,49.353518 C3.20245902,43.9656547 0.235901639,36.7992734 0.235901639,29.1763741 C0.235901639,21.5534748 3.20245902,14.3918489 8.59360656,9.00398561 C13.9847541,3.61136691 21.1491803,0.644 28.7652459,0.644 C36.3813115,0.644 43.5409836,3.61136691 48.9321311,9.00398561 C60.0519672,20.1268561 60.0519672,38.2306475 48.9321311,49.353518 C43.5409836,54.7461367 36.3765574,57.7135036 28.7652459,57.7135036 L28.7652459,57.7135036 Z M28.7652459,10.1595468 C23.6878689,10.1595468 18.91,12.1377914 15.3159016,15.7328705 C11.7218033,19.3279496 9.74409836,24.1023669 9.74409836,29.1811295 C9.74409836,34.2598921 11.7218033,39.0390647 15.3159016,42.6341439 C22.4993443,49.8195468 35.0216393,49.8243022 42.2098361,42.6341439 C49.6214754,35.2157266 49.6214754,23.1512878 42.2098361,15.7328705 C38.6157377,12.1377914 33.8378689,10.1595468 28.7652459,10.1595468 L28.7652459,10.1595468 Z" id="Shape" fill="#34C9A2"></path>
                    </g>
                    <g id="Group" transform="translate(76.065574, 476.539568)">
                        <ellipse id="Oval" fill="#FFFFFF" cx="29.0427869" cy="29.1444532" rx="23.7704918" ry="23.7769784"></ellipse>
                        <path d="M29.0380328,57.6768273 C21.4219672,57.6768273 14.2622951,54.7094604 8.87114754,49.3168417 C-2.24868852,38.1939712 -2.24868852,20.0901799 8.87114754,8.96730935 C14.2622951,3.57469065 21.4267213,0.607323741 29.0380328,0.607323741 C36.6588525,0.607323741 43.8185246,3.57469065 49.2096721,8.96730935 C54.6008197,14.3551727 57.567377,21.521554 57.567377,29.1444532 C57.567377,36.7673525 54.6008197,43.9289784 49.2096721,49.3168417 C43.8232787,54.7094604 36.6588525,57.6768273 29.0380328,57.6768273 L29.0380328,57.6768273 Z M29.0380328,10.1228705 C23.9654098,10.1228705 19.187541,12.1011151 15.5934426,15.6961942 C8.18180328,23.1146115 8.18180328,35.1790504 15.5934426,42.5974676 C22.7816393,49.7876259 35.3039344,49.7828705 42.487377,42.5974676 C46.0814754,39.0023885 48.0591803,34.2279712 48.0591803,29.1492086 C48.0591803,24.070446 46.0814754,19.2912734 42.487377,15.6961942 C38.8932787,12.1011151 34.1201639,10.1228705 29.0380328,10.1228705 L29.0380328,10.1228705 Z" id="Shape" fill="#34C9A2"></path>
                    </g>
                    <g id="Group" transform="translate(362.311475, 191.215827)">
                        <ellipse id="Oval" fill="#FFFFFF" cx="28.5372131" cy="28.6546475" rx="23.7704918" ry="23.7769784"></ellipse>
                        <path d="M28.5372131,57.1870216 C20.9163934,57.1870216 13.7567213,54.2196547 8.37032787,48.8317914 C2.97918033,43.4439281 0.0126229508,36.2775468 0.0126229508,28.6546475 C0.0126229508,21.0317482 2.97918033,13.8701223 8.37032787,8.4775036 C13.7567213,3.08964029 20.9211475,0.122273381 28.5372131,0.122273381 C36.1532787,0.122273381 43.3177049,3.08964029 48.7040984,8.4775036 C54.0952459,13.8653669 57.0618033,21.0317482 57.0618033,28.6546475 C57.0618033,36.2775468 54.0952459,43.4391727 48.7040984,48.8317914 C43.3177049,54.2196547 36.1532787,57.1870216 28.5372131,57.1870216 L28.5372131,57.1870216 Z M28.5372131,9.63306475 C23.4598361,9.63306475 18.6867213,11.6113094 15.092623,15.2016331 C11.4985246,18.7967122 9.52081967,23.5711295 9.52081967,28.6546475 C9.52081967,33.7381655 11.4985246,38.5125827 15.092623,42.1076619 C22.2808197,49.2930647 34.7983607,49.2930647 41.9818033,42.1076619 C45.5759016,38.5125827 47.5536066,33.7381655 47.5536066,28.6546475 C47.5536066,23.5711295 45.5759016,18.7967122 41.9818033,15.2016331 C38.3877049,11.6113094 33.6145902,9.63306475 28.5372131,9.63306475 L28.5372131,9.63306475 Z" id="Shape" fill="#000000"></path>
                    </g>
                    <g id="Group" transform="translate(159.885246, 392.942446)">
                        <ellipse id="Oval" fill="#FFFFFF" cx="29.2613115" cy="28.680446" rx="23.7704918" ry="23.7769784"></ellipse>
                        <path d="M29.2613115,57.2128201 C21.6452459,57.2128201 14.4855738,54.2454532 9.09442623,48.8575899 C3.70327869,43.4697266 0.736721311,36.3033453 0.736721311,28.680446 C0.736721311,21.0575468 3.70327869,13.8959209 9.09442623,8.50330216 C14.4855738,3.11068345 21.65,0.148071942 29.2613115,0.148071942 C36.8821311,0.148071942 44.0418033,3.11543885 49.4329508,8.50330216 C54.8240984,13.8911655 57.7906557,21.0575468 57.7906557,28.680446 C57.7906557,36.3033453 54.8240984,43.4649712 49.4329508,48.8575899 C44.0418033,54.2502086 36.8821311,57.2128201 29.2613115,57.2128201 L29.2613115,57.2128201 Z M29.2613115,9.65886331 C24.1886885,9.65886331 19.4108197,11.6371079 15.8167213,15.2274317 C12.222623,18.8225108 10.244918,23.5969281 10.244918,28.680446 C10.244918,33.763964 12.222623,38.5383813 15.8167213,42.1334604 C19.4108197,45.7237842 24.1886885,47.7020288 29.2613115,47.7020288 C34.3386885,47.7020288 39.1165574,45.7237842 42.7106557,42.1334604 C46.3047541,38.5383813 48.282459,33.763964 48.282459,28.680446 C48.282459,23.5969281 46.3047541,18.8225108 42.7106557,15.2274317 C39.1165574,11.6371079 34.3386885,9.65886331 29.2613115,9.65886331 L29.2613115,9.65886331 Z" id="Shape" fill="#000000"></path>
                    </g>
                    <g id="Group" transform="translate(362.311475, 392.942446)">
                        <ellipse id="Oval" fill="#FFFFFF" cx="28.532459" cy="28.680446" rx="23.7704918" ry="23.7769784"></ellipse>
                        <path d="M28.532459,57.2128201 C20.9116393,57.2128201 13.7519672,54.2406978 8.36557377,48.8528345 C2.97442623,43.4649712 0.00786885246,36.2985899 0.00786885246,28.6756906 C0.00786885246,21.0527914 2.97442623,13.8911655 8.36557377,8.49854676 C13.7519672,3.11068345 20.9163934,0.143316547 28.532459,0.143316547 C36.1485246,0.143316547 43.3129508,3.11068345 48.6993443,8.49854676 C54.0904918,13.8864101 57.0570492,21.0527914 57.0570492,28.6756906 C57.0570492,36.2985899 54.0904918,43.4602158 48.6993443,48.8528345 C43.3129508,54.2406978 36.1485246,57.2128201 28.532459,57.2128201 L28.532459,57.2128201 Z M28.532459,9.65410791 C23.455082,9.65410791 18.6819672,11.6323525 15.0878689,15.2226763 C11.4937705,18.8177554 9.51606557,23.5921727 9.51606557,28.6756906 C9.51606557,33.7592086 11.4937705,38.5336259 15.0878689,42.128705 C22.2760656,49.3188633 34.7936066,49.3188633 41.9770492,42.128705 C45.5711475,38.5336259 47.5488525,33.7592086 47.5488525,28.6756906 C47.5488525,23.5921727 45.5711475,18.8177554 41.9770492,15.2226763 C38.3829508,11.6323525 33.6098361,9.65410791 28.532459,9.65410791 L28.532459,9.65410791 Z" id="Shape" fill="#000000"></path>
                    </g>
                    <g id="Group" transform="translate(159.885246, 191.215827)">
                        <ellipse id="Oval" fill="#FFFFFF" cx="29.2565574" cy="28.6498921" rx="23.7704918" ry="23.7769784"></ellipse>
                        <path d="M29.2613115,57.1822662 C21.6404918,57.1822662 14.4808197,54.2148993 9.08967213,48.827036 C3.69852459,43.4391727 0.731967213,36.2727914 0.731967213,28.6498921 C0.731967213,21.0269928 3.69852459,13.8653669 9.08967213,8.4727482 C14.4808197,3.0801295 21.6452459,0.117517986 29.2613115,0.117517986 C36.877377,0.117517986 44.0370492,3.08488489 49.4281967,8.4727482 C60.5480328,19.6003741 60.5480328,37.6994101 49.4281967,48.8222806 C44.0418033,54.2148993 36.877377,57.1822662 29.2613115,57.1822662 L29.2613115,57.1822662 Z M29.2613115,9.62830935 C24.1839344,9.62830935 19.4060656,11.606554 15.8119672,15.1968777 C8.39557377,22.615295 8.39557377,34.6844892 15.8119672,42.0981511 C22.9954098,49.2787986 35.5177049,49.283554 42.7059016,42.0981511 C50.117541,34.6797338 50.117541,22.615295 42.7059016,15.1968777 C39.1118033,11.606554 34.3386885,9.62830935 29.2613115,9.62830935 L29.2613115,9.62830935 Z" id="Shape" fill="#000000"></path>
                    </g>
                    <rect id="Rectangle-path" fill="#000000" transform="translate(239.572827, 270.329057) rotate(44.995949) translate(-239.572827, -270.329057) " x="192.02656" y="265.573371" width="95.0925333" height="9.5113727"></rect>
                    <rect id="Rectangle-path" fill="#000000" transform="translate(340.425166, 371.171185) rotate(45.000000) translate(-340.425166, -371.171185) " x="292.887015" y="366.415835" width="95.0763013" height="9.51070016"></rect>
                    <rect id="Rectangle-path" fill="#000000" transform="translate(239.572582, 371.174931) rotate(45.000000) translate(-239.572582, -371.174931) " x="234.818529" y="323.619053" width="9.50810554" height="95.1117569"></rect>
                    <rect id="Rectangle-path" fill="#000000" transform="translate(340.423356, 270.291046) rotate(45.000000) translate(-340.423356, -270.291046) " x="335.669303" y="222.739923" width="9.50810554" height="95.1022462"></rect>
                </g>
            </g>
        </g>
    </g>
</svg>