<?xml version="1.0" encoding="iso-8859-1"?>
<!-- Generator: Adobe Illustrator 17.0.0, SVG Export Plug-In . SVG Version: 6.00 Build 0)  -->
<!DOCTYPE svg PUBLIC "-//W3C//DTD SVG 1.1//EN" "http://www.w3.org/Graphics/SVG/1.1/DTD/svg11.dtd">
<svg version="1.1" id="phone" xmlns="http://www.w3.org/2000/svg" xmlns:xlink="http://www.w3.org/1999/xlink" x="0px" y="0px"
	 width="122px" height="141.837px" viewBox="0 0 122 141.837" style="enable-background:new 0 0 122 141.837;" xml:space="preserve"
	>
<g id="phone_1_">
	<g>
		<g>
			<path style="fill:#C4C4C4;" d="M1,107.136c0,13.588,10.306,24.767,23.526,26.152c0.385,2.092,1.629,4.682,4.707,7.534
				c0,0-1.425-3.867,1.647-7.638c12.828-1.75,22.715-12.741,22.715-26.049c0-14.523-11.774-26.298-26.298-26.298
				C12.775,80.838,1,92.613,1,107.136z M31.055,132.964c0.014-0.015,0.021-0.025,0.035-0.04
				C31.076,132.939,31.069,132.949,31.055,132.964z"/>
		</g>
		<g>
			<path style="fill:#C4C4C4;" d="M31.09,132.924c-0.014,0.015-0.021,0.025-0.035,0.04"/>
		</g>
	</g>
	<g>
		<path d="M100.463,141.837c-1.812-1.812-2.896-3.772-3.235-5.847c-1.857-0.302-3.85-1.237-5.835-3.224
			c-1.812-1.812-2.896-3.771-3.235-5.845c-1.857-0.303-3.849-1.238-5.835-3.225c-1.825-1.824-4.173-6.378,0-10.552l1.414,1.414
			c-0.393,0.393-3.728,3.945,0.002,7.726c1.476,1.476,2.944,2.248,4.326,2.57c0.287-4.106,3.278-7.027,3.41-7.154
			c0.062-0.062,0.755-0.734,1.806-1.085c1.484-0.495,2.962-0.104,4.164,1.099c2.193,2.195,1.201,4.78,0,5.982
			c-0.048,0.048-3.1,3.029-7.229,3.316c0.348,1.509,1.215,2.963,2.591,4.339c1.476,1.476,2.945,2.249,4.328,2.571
			c0.288-4.105,3.278-7.026,3.41-7.153c0.062-0.062,0.754-0.734,1.804-1.085c1.482-0.494,2.961-0.104,4.164,1.099
			c2.194,2.194,1.202,4.78,0,5.982c-0.048,0.048-3.1,3.028-7.227,3.316c0.347,1.509,1.215,2.963,2.591,4.34L100.463,141.837z
			 M103.609,127.475c-0.203,0-0.412,0.037-0.628,0.108c-0.605,0.202-1.031,0.611-1.036,0.615c-0.039,0.038-2.597,2.558-2.818,5.901
			c3.341-0.174,5.812-2.588,5.972-2.747c0.256-0.263,1.479-1.675,0-3.154C104.612,127.713,104.128,127.475,103.609,127.475z
			 M94.54,118.406c-0.203,0-0.411,0.036-0.628,0.108c-0.605,0.202-1.033,0.611-1.037,0.615c-0.039,0.038-2.598,2.559-2.818,5.902
			c3.342-0.173,5.813-2.589,5.974-2.748c0.255-0.263,1.478-1.675-0.001-3.154C95.544,118.643,95.06,118.406,94.54,118.406z"/>
	</g>
	<g>
		<g>
			<polygon style="fill:#4B8DC9;" points="47.669,73.157 26.456,51.944 36.356,42.043 15.143,20.83 1,34.973 8.072,56.186 
				36.356,84.47 64.64,112.754 85.853,119.825 99.995,105.684 78.782,84.47 68.882,94.369 			"/>
		</g>
		<g>
			
				<rect x="70.853" y="97.613" transform="matrix(0.7071 0.7071 -0.7071 0.7071 94.8725 -31.8244)" style="fill:#2D71BB;" width="30" height="2"/>
		</g>
		<g>
			
				<rect x="7.213" y="33.973" transform="matrix(0.7071 0.7071 -0.7071 0.7071 31.2363 -5.4634)" style="fill:#2D71BB;" width="30" height="2"/>
		</g>
	</g>
	<g>
		<g>
			<g>
				<path style="fill:#E4E5E7;" d="M86,0.83c-19.33,0-35,15.67-35,35c0,17.711,13.158,32.34,30.231,34.668
					c4.09,5.019,2.193,10.166,2.193,10.166c4.096-3.798,5.753-7.244,6.265-10.028C107.284,68.792,121,53.914,121,35.83
					C121,16.5,105.33,0.83,86,0.83z M80.953,70.152c0.018,0.02,0.029,0.033,0.047,0.054C80.983,70.185,80.971,70.171,80.953,70.152z
					"/>
			</g>
			<g>
				<path style="fill:none;stroke:#E4E5E7;stroke-width:0;stroke-linecap:round;stroke-linejoin:round;" d="M80.953,70.152
					c0.018,0.02,0.029,0.033,0.047,0.054"/>
			</g>
		</g>
		<g>
			<g>
				<polygon points="98.291,36.79 88.771,36.79 88.771,20.748 90.771,20.748 90.771,34.79 96.291,34.79 96.291,20.748 
					98.291,20.748 				"/>
			</g>
			<g>
				<g>
					<path d="M82.249,51.832h-8.452l-0.065-0.93c-0.021-0.283-0.445-7.023,3.375-15.522c3.299-7.339,4.031-10.436,4.141-10.955
						c-0.026-0.602-0.296-2.677-2.759-2.677c-2.683,0-2.76,2.478-2.76,2.761h-2c0-1.646,0.995-4.761,4.76-4.761
						c3.766,0,4.761,3.114,4.761,4.761l-0.013,0.159c-0.021,0.125-0.534,3.141-4.306,11.532c-2.806,6.241-3.188,11.557-3.217,13.632
						h6.535V51.832z"/>
				</g>
				<g>
					<rect x="96.291" y="35.79" width="2" height="15.042"/>
				</g>
			</g>
		</g>
		<g>
			<path d="M86.046,65.498H86c-1.018,0-2.043-0.052-3.049-0.155l0.203-1.989c0.938,0.096,1.896,0.145,2.846,0.145L86.046,65.498z
				 M92.209,64.847l-0.416-1.956c0.939-0.2,1.879-0.453,2.792-0.75l0.621,1.901C94.226,64.361,93.218,64.632,92.209,64.847z
				 M76.886,64.07c-0.981-0.316-1.958-0.689-2.9-1.107l0.811-1.828c0.879,0.39,1.788,0.737,2.703,1.032L76.886,64.07z
				 M100.863,61.512l-1.004-1.73c0.831-0.482,1.646-1.014,2.423-1.58l1.18,1.615C102.629,60.424,101.755,60.995,100.863,61.512z
				 M68.613,59.872c-0.828-0.6-1.641-1.255-2.414-1.947l1.334-1.49c0.723,0.646,1.48,1.258,2.254,1.818L68.613,59.872z
				 M108.061,55.667l-1.486-1.338c0.643-0.714,1.255-1.471,1.821-2.25l1.617,1.177C109.406,54.09,108.75,54.901,108.061,55.667z
				 M62.041,53.331c-0.606-0.831-1.179-1.704-1.698-2.595l1.729-1.007c0.484,0.832,1.018,1.646,1.585,2.421L62.041,53.331z
				 M113.114,47.889l-1.828-0.812c0.393-0.882,0.741-1.792,1.037-2.703l1.902,0.618C113.908,45.968,113.534,46.943,113.114,47.889z
				 M57.804,45.082c-0.32-0.977-0.593-1.985-0.811-2.995l1.955-0.421c0.203,0.942,0.457,1.882,0.756,2.793L57.804,45.082z
				 M115.508,38.927l-1.99-0.205c0.1-0.958,0.149-1.931,0.149-2.891l-0.001-0.187h2l0.001,0.171
				C115.667,36.859,115.613,37.9,115.508,38.927z M56.333,35.924v-0.093c0-1.005,0.051-2.016,0.15-3.001l1.99,0.201
				c-0.094,0.92-0.141,1.862-0.141,2.8L56.333,35.924z M113.031,29.907c-0.206-0.942-0.464-1.881-0.765-2.79l1.898-0.629
				c0.323,0.975,0.599,1.981,0.819,2.992L113.031,29.907z M59.65,27.373l-1.904-0.61c0.315-0.985,0.687-1.962,1.102-2.902
				l1.83,0.809C60.29,25.544,59.944,26.454,59.65,27.373z M109.883,21.855c-0.486-0.829-1.021-1.642-1.592-2.416l1.609-1.187
				c0.612,0.83,1.187,1.702,1.707,2.591L109.883,21.855z M63.552,19.655l-1.621-1.171c0.604-0.837,1.258-1.65,1.944-2.417
				l1.49,1.333C64.727,18.115,64.116,18.874,63.552,19.655z M104.396,15.166c-0.714-0.637-1.473-1.246-2.257-1.81l1.168-1.624
				c0.841,0.605,1.655,1.258,2.421,1.941L104.396,15.166z M69.645,13.514l-1.184-1.612c0.832-0.61,1.704-1.183,2.593-1.703
				l1.01,1.727C71.234,12.41,70.42,12.944,69.645,13.514z M97.122,10.49c-0.881-0.387-1.792-0.731-2.706-1.023l0.607-1.905
				c0.981,0.313,1.958,0.682,2.903,1.098L97.122,10.49z M77.33,9.549L76.703,7.65c0.979-0.322,1.986-0.597,2.995-0.815L80.12,8.79
				C79.181,8.993,78.241,9.249,77.33,9.549z M88.756,8.299C87.847,8.209,86.92,8.164,86,8.164l-0.14,0v-2l0.129,0
				c0.996,0,1.989,0.049,2.964,0.145L88.756,8.299z"/>
		</g>
	</g>
	<g>
		<g>
			<path d="M21.5,119.331h-2c0-2.206-1.794-4-4-4v-2C18.809,113.331,21.5,116.022,21.5,119.331z"/>
		</g>
		<g>
			<path d="M31.5,119.331h-2c0-7.72-6.28-14-14-14v-2C24.322,103.331,31.5,110.508,31.5,119.331z"/>
		</g>
		<g>
			<path d="M41.5,119.331h-2c0-13.233-10.767-24-24-24v-2C29.837,93.331,41.5,104.994,41.5,119.331z"/>
		</g>
	</g>
	<g>
		<path style="fill:#C4C4C4;" d="M48.533,16.928l-2.738-0.272c-0.134-0.013-3.193-0.342-5.926-2.697l-2.527-0.072l-26.796,0
			c-3.828,0-6.943-3.115-6.943-6.944S6.718,0,10.546,0h30.907c3.829,0,6.944,3.115,6.944,6.943c0,2.366-1.24,4.574-3.222,5.839
			c0.293,0.775,0.772,1.505,1.433,2.179L48.533,16.928z M10.546,2C7.82,2,5.603,4.218,5.603,6.943c0,2.726,2.218,4.944,4.943,4.944
			H37.37l3.296,0.094l0.275,0.254c0.843,0.778,1.738,1.312,2.537,1.676c-0.202-0.45-0.357-0.915-0.465-1.392l-0.176-0.78
			l0.723-0.343c1.75-0.831,2.837-2.537,2.837-4.452C46.397,4.218,44.18,2,41.453,2H10.546z"/>
	</g>
	<g>
		<path style="fill:#4B8DC9;" d="M92.133,92.871l1.926-1.966c0.66-0.673,1.14-1.403,1.432-2.178
			c-1.98-1.265-3.221-3.474-3.221-5.839c0-3.829,3.115-6.943,6.944-6.943h15.843c3.828,0,6.943,3.115,6.943,6.943
			s-3.115,6.943-6.943,6.943h-11.76l-2.499,0.072c-2.732,2.355-5.793,2.683-5.926,2.696L92.133,92.871z M99.214,77.944
			c-2.727,0-4.944,2.218-4.944,4.943c0,1.916,1.087,3.622,2.837,4.452l0.723,0.343l-0.176,0.78
			c-0.107,0.475-0.262,0.938-0.462,1.385c0.802-0.364,1.697-0.896,2.534-1.669l0.275-0.254l3.268-0.094l11.788,0
			c2.726,0,4.943-2.218,4.943-4.943s-2.218-4.943-4.943-4.943H99.214z"/>
	</g>
	<g>
		<path d="M6,78.331c-3.309,0-6-2.691-6-6s2.691-6,6-6s6,2.691,6,6S9.309,78.331,6,78.331z M6,68.331c-2.206,0-4,1.794-4,4
			s1.794,4,4,4s4-1.794,4-4S8.206,68.331,6,68.331z"/>
	</g>
</g>
</svg>
