<?xml version="1.0" encoding="UTF-8"?>
<svg width="442px" height="523px" viewBox="0 0 442 523" version="1.1" xmlns="http://www.w3.org/2000/svg" xmlns:xlink="http://www.w3.org/1999/xlink">
    <!-- Generator: Sketch 3.8.1 (29687) - http://www.bohemiancoding.com/sketch -->
    <title>Talk to Us</title>
    <desc>Created with Sketch.</desc>
    <defs></defs>
    <g id="Page-1" stroke="none" stroke-width="1" fill="none" fill-rule="evenodd">
        <g id="Talk-to-Us">
            <g id="encrypted_dialog">
                <g id="encrypted_dialog_1_">
                    <rect id="Rectangle-path" fill="#4B8DC9" x="36.5289256" y="120.692308" width="129.677686" height="36.5734266"></rect>
                    <path d="M288.578512,193.839161 L43.8347107,193.839161 C19.6269917,193.839161 0,213.490063 0,237.727273 L0,405.965035 C0,430.202245 19.6269917,449.853147 43.8347107,449.853147 L54.7933884,449.853147 L54.7933884,523 L109.586777,449.853147 L288.578512,449.853147 C312.786231,449.853147 332.413223,430.202245 332.413223,405.965035 L332.413223,237.727273 C332.413223,213.490063 312.786231,193.839161 288.578512,193.839161 L288.578512,193.839161 Z" id="Shape" fill="#C4C4C4"></path>
                    <path d="M394.512397,343.79021 L153.421488,343.79021 C127.237554,343.79021 105.933884,322.460587 105.933884,296.244755 L105.933884,128.006993 C105.933884,101.791161 127.237554,80.4615385 153.421488,80.4615385 L326.933884,80.4615385 L387.206612,0 L387.206612,80.4615385 L394.512397,80.4615385 C420.696331,80.4615385 442,101.791161 442,128.006993 L442,296.244755 C442,322.460587 420.696331,343.79021 394.512397,343.79021 L394.512397,343.79021 Z M153.421488,87.7762238 C131.266694,87.7762238 113.239669,105.82521 113.239669,128.006993 L113.239669,296.244755 C113.239669,318.426538 131.266694,336.475524 153.421488,336.475524 L394.512397,336.475524 C416.66719,336.475524 434.694215,318.426538 434.694215,296.244755 L434.694215,128.006993 C434.694215,105.82521 416.66719,87.7762238 394.512397,87.7762238 L379.900826,87.7762238 L379.900826,21.9440559 L330.586777,87.7762238 L153.421488,87.7762238 L153.421488,87.7762238 Z" id="Shape" fill="#000000"></path>
                    <g id="Group" transform="translate(146.115702, 141.257888)">
                        <rect id="Rectangle-path" fill="#2D71BB" x="0.00365289256" y="76.9647763" width="146.115702" height="85.3367762"></rect>
                        <path d="M125.418413,76.9647763 L118.112628,76.9647763 L118.112628,52.5812728 C118.112628,27.7113427 97.9048264,7.47526576 73.0615041,7.47526576 C48.2181818,7.47526576 28.0103802,27.7113427 28.0103802,52.5812728 L28.0103802,76.9647763 L20.704595,76.9647763 L20.704595,52.5812728 C20.704595,23.6772937 44.1926942,0.16058045 73.0615041,0.16058045 C101.930314,0.16058045 125.418413,23.6772937 125.418413,52.5812728 L125.418413,76.9647763 L125.418413,76.9647763 Z" id="Shape" fill="#000000"></path>
                        <polygon id="Shape" fill="#4B8DC9" points="146.119355 76.9647763 0.00365289256 76.9647763 0.00365289256 144.958434 146.119355 93.4484196"></polygon>
                        <g transform="translate(63.238349, 104.923504)">
                            <g>
                                <ellipse id="Oval" fill="#FCFCFC" cx="9.82315532" cy="9.83259442" rx="6.0893719" ry="6.09679021"></ellipse>
                                <path d="M9.82315532,19.5867273 C4.44975036,19.5867273 0.080890858,15.2125455 0.080890858,9.83259442 C0.080890858,4.45264337 4.44975036,0.0784615537 9.82315532,0.0784615537 C15.1965603,0.0784615537 19.5654198,4.45264337 19.5654198,9.83259442 C19.5654198,15.2125455 15.1965603,19.5867273 9.82315532,19.5867273 L9.82315532,19.5867273 Z M9.82315532,7.39314687 C8.47889086,7.39314687 7.38667598,8.48669232 7.38667598,9.83259442 C7.38667598,11.1784965 8.47889086,12.272042 9.82315532,12.272042 C11.1674198,12.272042 12.2596347,11.1784965 12.2596347,9.83259442 C12.2596347,8.48669232 11.1674198,7.39314687 9.82315532,7.39314687 L9.82315532,7.39314687 Z" id="Shape" fill="#000000"></path>
                            </g>
                            <rect id="Rectangle-path" fill="#000000" x="6.17026276" y="15.9293846" width="7.30578512" height="12.1899231"></rect>
                        </g>
                    </g>
                    <rect id="Rectangle-path" fill="#000000" x="146.119355" y="373.048951" width="258.135306" height="7.31468531"></rect>
                    <rect id="Rectangle-path" fill="#000000" x="146.119355" y="391.335664" width="258.135306" height="7.31468531"></rect>
                    <rect id="Rectangle-path" fill="#000000" x="146.119355" y="409.622378" width="258.135306" height="7.31468531"></rect>
                    <rect id="Rectangle-path" fill="#000000" x="146.119355" y="427.909091" width="109.583124" height="7.31468531"></rect>
                    <rect id="Rectangle-path" fill="#C4C4C4" x="37.1389587" y="7.31468531" width="258.135306" height="7.31468531"></rect>
                    <rect id="Rectangle-path" fill="#C4C4C4" x="37.1389587" y="25.6013986" width="258.135306" height="7.31468531"></rect>
                    <rect id="Rectangle-path" fill="#C4C4C4" x="37.1389587" y="43.8881119" width="258.135306" height="7.31468531"></rect>
                    <rect id="Rectangle-path" fill="#C4C4C4" x="37.1389587" y="62.1748252" width="109.583124" height="7.31468531"></rect>
                    <ellipse id="Oval" fill="#E4E5E7" cx="365.289256" cy="486.426573" rx="36.5289256" ry="36.5734266"></ellipse>
                    <ellipse id="Oval" fill="#E4E5E7" cx="383.553719" cy="138.979021" rx="18.2644628" ry="18.2867133"></ellipse>
                    <path d="M310.495868,160.923077 C298.408446,160.923077 288.578512,151.081168 288.578512,138.979021 C288.578512,126.876874 298.408446,117.034965 310.495868,117.034965 C322.583289,117.034965 332.413223,126.876874 332.413223,138.979021 C332.413223,151.081168 322.583289,160.923077 310.495868,160.923077 L310.495868,160.923077 Z M310.495868,124.34965 C302.437587,124.34965 295.884298,130.910923 295.884298,138.979021 C295.884298,147.047119 302.437587,153.608392 310.495868,153.608392 C318.554149,153.608392 325.107438,147.047119 325.107438,138.979021 C325.107438,130.910923 318.554149,124.34965 310.495868,124.34965 L310.495868,124.34965 Z" id="Shape" fill="#000000"></path>
                    <ellipse id="Oval" fill="#4B8DC9" cx="383.553719" cy="212.125874" rx="18.2644628" ry="18.2867133"></ellipse>
                    <rect id="Rectangle-path" fill="#2D71BB" x="127.85124" y="486.426573" width="164.380165" height="36.5734266"></rect>
                </g>
            </g>
        </g>
    </g>
</svg>