<?xml version="1.0" encoding="UTF-8"?>
<svg width="442px" height="514px" viewBox="0 0 442 514" version="1.1" xmlns="http://www.w3.org/2000/svg" xmlns:xlink="http://www.w3.org/1999/xlink">
    <!-- Generator: Sketch 3.8.1 (29687) - http://www.bohemiancoding.com/sketch -->
    <title>001-phone</title>
    <desc>Created with Sketch.</desc>
    <defs></defs>
    <g id="Page-1" stroke="none" stroke-width="1" fill="none" fill-rule="evenodd">
        <g id="001-phone">
            <g id="phone_1_">
                <g id="Group" transform="translate(3.622951, 292.304255)" fill="#C4C4C4">
                    <path d="M0,95.4978856 C0,144.682618 37.3381311,185.147449 85.233541,190.160759 C86.628377,197.73321 91.1353279,207.10828 102.28677,217.431717 C102.28677,217.431717 97.1240656,203.434266 108.25377,189.784308 C154.728984,183.449801 190.549098,143.665477 190.549098,95.4942659 C190.549098,42.9250969 147.892475,0.302913774 95.2727377,0.302913774 C42.6602459,0.306533493 0,42.9287166 0,95.4978856 L0,95.4978856 Z M108.887787,188.98797 C108.938508,188.933674 108.963869,188.897477 109.01459,188.843181 C108.963869,188.897477 108.938508,188.933674 108.887787,188.98797 L108.887787,188.98797 Z" id="Shape"></path>
                    <path id="Shape"></path>
                </g>
                <path d="M363.972508,513.409986 C357.407721,506.851056 353.480443,499.756408 352.252262,492.245493 C345.524443,491.152338 338.303902,487.767901 331.112344,480.575521 C324.547557,474.016592 320.620279,466.925563 319.392098,459.418268 C312.664279,458.321493 305.447361,454.937056 298.25218,447.744676 C291.640295,441.14231 283.133607,424.658113 298.25218,409.549408 L303.375033,414.66769 C301.951213,416.090239 289.868672,428.947479 303.382279,442.633634 C308.729754,447.976338 314.048246,450.770761 319.055164,451.93631 C320.094951,437.073746 330.931197,426.500549 331.409426,426.040845 C331.634049,425.816423 334.144754,423.383972 337.952475,422.113451 C343.328934,420.32169 348.683656,421.737 353.038443,426.091521 C360.983574,434.036803 357.389607,443.393775 353.038443,447.744676 C352.864541,447.918423 341.807295,458.708803 326.848131,459.747662 C328.108918,465.209817 331.250016,470.472887 336.235197,475.45362 C341.582672,480.796324 346.904787,483.594366 351.915328,484.759915 C352.958738,469.900972 363.791361,459.327775 364.26959,458.86807 C364.494213,458.643648 367.001295,456.211197 370.805393,454.940676 C376.174607,453.152535 381.532951,454.564225 385.891361,458.918746 C393.840115,466.860408 390.246148,476.221 385.891361,480.571901 C385.717459,480.745648 374.660213,491.532408 359.708295,492.574887 C360.965459,498.037042 364.11018,503.300113 369.095361,508.284465 L363.972508,513.409986 L363.972508,513.409986 Z M375.370311,461.423592 C374.634852,461.423592 373.877656,461.557521 373.095098,461.814521 C370.903213,462.545704 369.359836,464.026169 369.341721,464.040648 C369.200426,464.178197 359.932918,473.299887 359.132246,485.400606 C371.236525,484.770775 380.188836,476.032775 380.768508,475.457239 C381.695984,474.505254 386.126852,469.394211 380.768508,464.040648 C379.004131,462.285085 377.250623,461.423592 375.370311,461.423592 L375.370311,461.423592 Z M342.51377,428.596366 C341.778311,428.596366 341.024738,428.726676 340.238557,428.987296 C338.046672,429.718479 336.496049,431.198944 336.481557,431.213423 C336.340262,431.350972 327.069131,440.476282 326.272082,452.577 C338.379984,451.950789 347.332295,443.205549 347.91559,442.630014 C348.839443,441.678028 353.270311,436.566986 347.911967,431.213423 C346.151213,429.454239 344.397705,428.596366 342.51377,428.596366 L342.51377,428.596366 Z" id="Shape" fill="#000000"></path>
                <g id="Group" transform="translate(3.622951, 75.121157)">
                    <polygon id="Shape" fill="#4B8DC9" points="169.079492 189.686576 92.2258361 112.901491 128.093049 77.0626603 51.2393934 0.277575746 0 51.4712518 25.6215082 128.256336 128.093049 230.636449 230.56459 333.016562 307.418246 358.61159 358.654016 307.425153 281.800361 230.636449 245.933148 266.468041"></polygon>
                    <rect id="Rectangle-path" fill="#2D71BB" transform="translate(307.407029, 281.824727) rotate(45.000000) translate(-307.407029, -281.824727) " x="253.063288" y="278.205043" width="108.687482" height="7.23936719"></rect>
                    <rect id="Rectangle-path" fill="#2D71BB" transform="translate(76.856206, 51.470602) rotate(45.000000) translate(-76.856206, -51.470602) " x="22.5124652" y="47.8509188" width="108.687482" height="7.23936719"></rect>
                </g>
                <g id="Group" transform="translate(184.770492, 2.726790)">
                    <g id="Shape">
                        <path d="M126.803279,0.277575746 C56.7716393,0.277575746 0,56.9985617 0,126.967717 C0,191.076548 47.6707869,244.029407 109.525426,252.456111 C124.343295,270.623477 117.470557,289.254167 117.470557,289.254167 C132.310164,275.506477 138.313393,263.032928 140.168344,252.955632 C203.914164,246.280872 253.606557,192.426703 253.606557,126.967717 C253.606557,56.9985617 196.834918,0.277575746 126.803279,0.277575746 L126.803279,0.277575746 Z M108.518246,251.203688 C108.583459,251.276083 108.623311,251.323139 108.688525,251.399153 C108.626934,251.323139 108.583459,251.272463 108.518246,251.203688 L108.518246,251.203688 Z" fill="#E4E5E7"></path>
                        <path stroke="#E4E5E7"></path>
                    </g>
                    <g transform="translate(82.069116, 68.411253)" fill="#000000">
                        <polygon id="Shape" points="89.2638516 62.0313935 54.7733598 62.0313935 54.7733598 3.96387238 62.0192615 3.96387238 62.0192615 54.7919569 82.01795 54.7919569 82.01795 3.96387238 89.2638516 3.96387238"></polygon>
                        <g transform="translate(0.000000, -0.000000)">
                            <path d="M31.1444746,116.479196 L0.523294272,116.479196 L0.287802469,113.112858 C0.211720502,112.088478 -1.32441065,87.6915766 12.5152615,56.9275907 C24.4673762,30.362478 27.1193762,19.1522104 27.5179008,17.2735766 C27.4237041,15.0945062 26.4455074,7.58359069 17.5221795,7.58359069 C7.80180247,7.58359069 7.52283526,16.5532527 7.52283526,17.5776329 L0.276933617,17.5776329 C0.276933617,11.6195766 3.88176968,0.34415407 17.5221795,0.34415407 C31.1662123,0.34415407 34.7710484,11.6159569 34.7710484,17.5776329 L34.72395,18.1531682 C34.647868,18.6056329 32.7892943,29.5227034 19.1235238,59.8957597 C8.95752378,82.4864217 7.57355657,101.728844 7.46849099,109.23976 L31.1444746,109.23976 L31.1444746,116.479196 L31.1444746,116.479196 Z" id="Shape"></path>
                            <rect id="Rectangle-path" x="82.01795" y="58.4116752" width="7.24590164" height="54.4478028"></rect>
                        </g>
                    </g>
                    <path d="M126.969934,234.357519 L126.803279,234.357519 C123.115115,234.357519 119.40159,234.169294 115.756902,233.796463 L116.492361,226.596843 C119.890689,226.944336 123.361475,227.121703 126.803279,227.121703 L126.969934,234.357519 L126.969934,234.357519 Z M149.29818,232.001083 L147.791033,224.920914 C151.192984,224.19697 154.598557,223.281181 157.906311,222.206125 L160.156164,229.08721 C156.605672,230.2419 152.953738,231.222843 149.29818,232.001083 L149.29818,232.001083 Z M93.7837049,229.188562 C90.2295902,228.044731 86.6899672,226.694576 83.2771475,225.181533 L86.2153607,218.564688 C89.3999344,219.976379 92.6931967,221.232421 96.0081967,222.300238 L93.7837049,229.188562 L93.7837049,229.188562 Z M180.651197,219.929322 L177.013754,213.66721 C180.024426,211.922505 182.977131,209.996815 185.792164,207.948055 L190.067246,213.7939 C187.049328,215.991069 183.882869,218.057928 180.651197,219.929322 L180.651197,219.929322 Z M63.8110328,213.992984 C60.8112295,211.821153 57.8657705,209.450238 55.0652295,206.945393 L59.8982459,201.552012 C62.5176393,203.89035 65.2602131,206.105618 68.064377,208.13266 L63.8110328,213.992984 L63.8110328,213.992984 Z M206.729197,198.772069 L201.345492,193.928886 C203.675049,191.344407 205.892295,188.60428 207.942885,185.784519 L213.801197,190.044928 C211.602066,193.063773 209.22541,195.999364 206.729197,198.772069 L206.729197,198.772069 Z M40.001,190.316407 C37.8054918,187.308421 35.729541,184.148407 33.8492295,180.923238 L40.1133115,177.278181 C41.8668197,180.289787 43.8014754,183.236238 45.8556885,186.041519 L40.001,190.316407 L40.001,190.316407 Z M225.035967,170.6179 L218.413213,167.678688 C219.837033,164.486097 221.09782,161.192153 222.170213,157.89459 L229.061066,160.131576 C227.91259,163.664421 226.557607,167.193646 225.035967,170.6179 L225.035967,170.6179 Z M24.6505574,160.45735 C23.4912131,156.920886 22.5021475,153.27221 21.7123443,149.616294 L28.7952131,148.092393 C29.5306721,151.502167 30.4509016,154.904703 31.5341639,158.202266 L24.6505574,160.45735 L24.6505574,160.45735 Z M233.709311,138.177984 L226.499639,137.435942 C226.861934,133.968252 227.039459,130.446266 227.039459,126.971336 L227.035836,126.294449 L234.281738,126.294449 L234.285361,126.913421 C234.285361,130.692407 234.089721,134.460533 233.709311,138.177984 L233.709311,138.177984 Z M19.3211967,127.30797 L19.3211967,126.971336 C19.3211967,123.333519 19.5059672,119.673984 19.8646393,116.108562 L27.0743115,116.836125 C26.7337541,120.166266 26.5634754,123.576041 26.5634754,126.971336 L19.3211967,127.30797 L19.3211967,127.30797 Z M224.735262,105.528125 C223.988934,102.11835 223.054213,98.7194349 221.963705,95.429111 L228.840066,93.1523081 C230.010279,96.6815335 231.010213,100.32297 231.807262,103.982505 L224.735262,105.528125 L224.735262,105.528125 Z M31.3385246,96.3557588 L24.4404262,94.1477307 C25.5816557,90.5823081 26.9293934,87.0458434 28.432918,83.6433081 L35.062918,86.5716603 C33.6572131,89.7352941 32.4036721,93.0292377 31.3385246,96.3557588 L31.3385246,96.3557588 Z M213.330213,76.3821532 C211.569459,73.3814067 209.63118,70.4385757 207.562475,67.6369138 L213.391803,63.3403081 C215.609049,66.3446743 217.692246,69.5010687 219.57618,72.7189983 L213.330213,76.3821532 L213.330213,76.3821532 Z M45.4752787,68.4187729 L39.6024754,64.1800828 C41.7907377,61.1503786 44.1601475,58.2075476 46.6454918,55.4312236 L52.0436885,60.2563081 C49.7322459,62.8444067 47.518623,65.5917729 45.4752787,68.4187729 L45.4752787,68.4187729 Z M193.451082,52.1698574 C190.864295,49.8640969 188.114475,47.6596884 185.274082,45.6181673 L189.505689,39.7397448 C192.55259,41.9296743 195.501672,44.2933504 198.276852,46.765618 L193.451082,52.1698574 L193.451082,52.1698574 Z M67.549918,46.1900828 L63.2603443,40.3550969 C66.2746393,38.1470687 69.4338525,36.0729701 72.6546557,34.1907166 L76.3138361,40.4419701 C73.3067869,42.1939138 70.3577049,44.1268434 67.549918,46.1900828 L67.549918,46.1900828 Z M167.097738,35.2440546 C163.905918,33.8432236 160.60541,32.5980405 157.294033,31.5410828 L159.493164,24.6455194 C163.047279,25.7784912 166.586902,27.1141673 170.01059,28.6199701 L167.097738,35.2440546 L167.097738,35.2440546 Z M95.3922951,31.8378997 L93.1207049,24.9640546 C96.6675738,23.7985053 100.315885,22.8030828 103.971443,22.0139842 L105.500328,29.0905335 C102.098377,29.8253363 98.6928033,30.7519842 95.3922951,31.8378997 L95.3922951,31.8378997 Z M136.788131,27.3132518 C133.494869,26.9874772 130.136393,26.8245898 126.803279,26.8245898 L126.296066,26.8245898 L126.296066,19.5851532 L126.763426,19.5851532 C130.371885,19.5851532 133.969475,19.7625194 137.501852,20.1100124 L136.788131,27.3132518 L136.788131,27.3132518 Z" id="Shape" fill="#000000"></path>
                </g>
                <g id="Group" transform="translate(55.708460, 337.633803)" fill="#000000">
                    <path d="M22.1849828,94.3108028 L14.9390812,94.3108028 C14.9390812,86.3257042 8.43950739,79.8319296 0.447277879,79.8319296 L0.447277879,72.592493 C12.4356221,72.592493 22.1849828,82.3331549 22.1849828,94.3108028 L22.1849828,94.3108028 Z" id="Shape"></path>
                    <path d="M58.414491,94.3108028 L51.1685894,94.3108028 C51.1685894,66.3665775 28.4164582,43.6347465 0.447277879,43.6347465 L0.447277879,36.3953099 C32.40895,36.3953099 58.414491,62.3740282 58.414491,94.3108028 L58.414491,94.3108028 Z" id="Shape"></path>
                    <path d="M94.6439992,94.3108028 L87.3980976,94.3108028 C87.3980976,46.4110704 48.3897861,7.43756338 0.447277879,7.43756338 L0.447277879,0.198126761 C52.3895238,0.198126761 94.6439992,42.4149014 94.6439992,94.3108028 L94.6439992,94.3108028 Z" id="Shape"></path>
                </g>
                <path d="M175.832672,61.2745915 L165.913033,60.2900282 C165.427557,60.2429718 154.344951,59.0520845 144.443426,50.5276479 L135.28823,50.2670282 L38.2076393,50.2670282 C24.3389836,50.2670282 13.0534918,38.9916056 13.0534918,25.1317042 C13.0534918,11.2718028 24.3389836,0 38.2076393,0 L150.18218,0 C164.054459,0 175.339951,11.2754225 175.339951,25.1317042 C175.339951,33.6959577 170.847492,41.6882958 163.666803,46.2672394 C164.728328,49.0725211 166.463721,51.7149155 168.858492,54.1546056 L175.832672,61.2745915 L175.832672,61.2745915 Z M38.2076393,7.23943662 C28.3314754,7.23943662 20.2993934,15.2679718 20.2993934,25.1317042 C20.2993934,34.9990563 28.3350984,43.0275915 38.2076393,43.0275915 L135.389672,43.0275915 L147.330918,43.3678451 L148.32723,44.2872535 C151.381377,47.1033944 154.623918,49.0363239 157.518656,50.3539014 C156.78682,48.7250282 156.225262,47.0418592 155.833984,45.3152535 L155.196344,42.4918732 L157.815738,41.2503099 C164.155902,38.2423239 168.094049,32.0670845 168.094049,25.1353239 C168.094049,15.2679718 160.061967,7.23943662 150.18218,7.23943662 L38.2076393,7.23943662 L38.2076393,7.23943662 Z" id="Shape" fill="#C4C4C4"></path>
                <path d="M333.793328,336.166859 L340.771131,329.050493 C343.162279,326.614423 344.901295,323.972028 345.959197,321.166746 C338.785754,316.587803 334.289672,308.591845 334.289672,300.031211 C334.289672,286.17131 345.575164,274.899507 359.447443,274.899507 L416.845852,274.899507 C430.714508,274.899507 442,286.17493 442,300.031211 C442,313.887493 430.714508,325.162915 416.845852,325.162915 L374.239951,325.162915 L365.186197,325.423535 C355.288295,333.947972 344.198443,335.135239 343.71659,335.182296 L333.793328,336.166859 L333.793328,336.166859 Z M359.447443,282.135324 C349.567656,282.135324 341.535574,290.163859 341.535574,300.027592 C341.535574,306.962972 345.473721,313.138211 351.813885,316.142577 L354.433279,317.384141 L353.795639,320.207521 C353.407984,321.926887 352.846426,323.602817 352.121836,325.220831 C355.027443,323.903254 358.269984,321.977563 361.302393,319.179521 L362.298705,318.260113 L374.138508,317.919859 L416.845852,317.919859 C426.722016,317.919859 434.754098,309.891324 434.754098,300.027592 C434.754098,290.163859 426.718393,282.135324 416.845852,282.135324 L359.447443,282.135324 L359.447443,282.135324 Z" id="Shape" fill="#4B8DC9"></path>
                <path d="M21.7377049,283.536155 C9.74936066,283.536155 0,273.795493 0,261.817845 C0,249.840197 9.74936066,240.099535 21.7377049,240.099535 C33.7260492,240.099535 43.4754098,249.840197 43.4754098,261.817845 C43.4754098,273.795493 33.7260492,283.536155 21.7377049,283.536155 L21.7377049,283.536155 Z M21.7377049,247.338972 C13.7454754,247.338972 7.24590164,253.832746 7.24590164,261.817845 C7.24590164,269.802944 13.7454754,276.296718 21.7377049,276.296718 C29.7299344,276.296718 36.2295082,269.802944 36.2295082,261.817845 C36.2295082,253.832746 29.7299344,247.338972 21.7377049,247.338972 L21.7377049,247.338972 Z" id="Shape" fill="#000000"></path>
            </g>
        </g>
    </g>
</svg>