<?xml version="1.0" encoding="UTF-8"?>
<svg width="442px" height="515px" viewBox="0 0 442 515" version="1.1" xmlns="http://www.w3.org/2000/svg" xmlns:xlink="http://www.w3.org/1999/xlink">
    <!-- Generator: Sketch 3.8.1 (29687) - http://www.bohemiancoding.com/sketch -->
    <title>Product Launch</title>
    <desc>Created with Sketch.</desc>
    <defs></defs>
    <g id="Page-1" stroke="none" stroke-width="1" fill="none" fill-rule="evenodd">
        <g id="Product-Launch" transform="translate(-1.000000, 0.000000)">
            <g id="Page-1">
                <g>
                    <g id="Product-Launch">
                        <g id="Group" transform="translate(22.088124, 3.626761)" fill="#C4C4C4">
                            <g id="Rectangle-path" transform="translate(0.000000, 80.782941)">
                                <rect x="0.538118154" y="327.234876" width="18.1150298" height="81.6021127"></rect>
                                <rect x="25.8991598" y="245.632763" width="18.1150298" height="163.204225"></rect>
                                <rect x="51.2602015" y="164.030651" width="18.1150298" height="244.806338"></rect>
                                <rect x="76.6212432" y="244.421425" width="18.1150298" height="164.415563"></rect>
                                <rect x="101.982285" y="326.629207" width="18.1150298" height="82.2077817"></rect>
                                <rect x="127.343327" y="245.632763" width="18.1150298" height="163.204225"></rect>
                                <rect x="152.704368" y="82.428538" width="18.1150298" height="326.408451"></rect>
                                <rect x="178.06541" y="0.826425309" width="18.1150298" height="408.010563"></rect>
                            </g>
                            <g id="Rectangle-path" transform="translate(202.888333, 0.000000)">
                                <rect x="178.06541" y="367.216761" width="18.1150298" height="122.403169"></rect>
                                <rect x="152.704368" y="244.813592" width="18.1150298" height="244.806338"></rect>
                                <rect x="127.343327" y="0.00725352113" width="18.1150298" height="489.612676"></rect>
                                <rect x="101.982285" y="69.3690493" width="18.1150298" height="420.25088"></rect>
                                <rect x="76.6212432" y="407.412148" width="18.1150298" height="82.2077817"></rect>
                                <rect x="51.2602015" y="285.614648" width="18.1150298" height="204.005282"></rect>
                                <rect x="25.8991598" y="163.211479" width="18.1150298" height="326.408451"></rect>
                                <rect x="0.538118154" y="122.410423" width="18.1150298" height="367.209507"></rect>
                            </g>
                        </g>
                        <path d="M221.89157,515 C162.858311,515 107.361105,491.988204 65.6168308,450.204296 C-20.5491199,363.945423 -20.5491199,223.593415 65.6168308,137.330915 C107.361105,95.547007 162.858311,72.5352113 221.89157,72.5352113 C280.924829,72.5352113 336.422034,95.547007 378.166308,137.330915 C464.332259,223.589789 464.332259,363.941796 378.166308,450.204296 C336.422034,491.988204 280.924829,515 221.89157,515 L221.89157,515 Z M221.89157,79.7887324 C164.792996,79.7887324 111.11454,102.046162 70.7397612,142.459155 C-12.6002448,225.889155 -12.6002448,361.646056 70.7397612,445.07243 C111.11454,485.489049 164.792996,507.746479 221.89157,507.746479 C278.990143,507.746479 332.6686,485.489049 373.043378,445.076056 C456.383384,361.646056 456.383384,225.892782 373.043378,142.462782 C332.6686,102.046162 278.990143,79.7887324 221.89157,79.7887324 L221.89157,79.7887324 Z" id="Shape" fill="#000000"></path>
                        <ellipse id="Oval" fill="#E4E5E7" cx="221.89157" cy="293.767606" rx="181.150298" ry="181.338028"></ellipse>
                        <rect id="Rectangle-path" fill="#000000" x="218.268564" y="58.028169" width="7.24601191" height="18.1338028"></rect>
                        <g id="Group" transform="translate(361.657410, 75.517837)">
                            <rect id="Rectangle-path" fill="#E4E5E7" transform="translate(39.193896, 39.101556) rotate(45.000000) translate(-39.193896, -39.101556) " x="2.9641841" y="20.9679276" width="72.4594242" height="36.2672578"></rect>
                            <rect id="Rectangle-path" fill="#C4C4C4" transform="translate(26.375727, 26.285295) rotate(45.000000) translate(-26.375727, -26.285295) " x="22.7527558" y="8.15166657" width="7.24594242" height="36.2672578"></rect>
                            <rect id="Rectangle-path" fill="#C4C4C4" transform="translate(39.187788, 39.107360) rotate(45.000000) translate(-39.187788, -39.107360) " x="35.5648171" y="20.9737309" width="7.24594242" height="36.2672578"></rect>
                            <rect id="Rectangle-path" fill="#C4C4C4" transform="translate(51.995088, 51.929061) rotate(45.000000) translate(-51.995088, -51.929061) " x="48.3721172" y="33.7954322" width="7.24594242" height="36.2672578"></rect>
                        </g>
                        <rect id="Rectangle-path" fill="#000000" transform="translate(381.821622, 133.671517) rotate(45.000000) translate(-381.821622, -133.671517) " x="378.198651" y="124.87308" width="7.24594242" height="17.5968735"></rect>
                        <path d="M221.89157,61.6549296 C204.910541,61.6549296 191.096019,47.8260915 191.096019,30.8274648 C191.096019,13.828838 204.910541,0 221.89157,0 C238.872599,0 252.68712,13.828838 252.68712,30.8274648 C252.68712,47.8260915 238.872599,61.6549296 221.89157,61.6549296 L221.89157,61.6549296 Z M221.89157,7.25352113 C208.906716,7.25352113 198.342031,17.8291549 198.342031,30.8274648 C198.342031,43.8257746 208.906716,54.4014085 221.89157,54.4014085 C234.876423,54.4014085 245.441108,43.8257746 245.441108,30.8274648 C245.441108,17.8291549 234.876423,7.25352113 221.89157,7.25352113 L221.89157,7.25352113 Z" id="Shape" fill="#000000"></path>
                        <path d="M221.862586,324.602324 C207.3923,324.602324 194.729894,314.298697 191.751783,300.09993 C190.059839,292.041268 191.606863,283.804894 196.106636,276.910423 C200.602787,270.015951 207.511859,265.286655 215.565801,263.600211 C217.656276,263.157746 219.793849,262.936514 221.916931,262.936514 C236.387216,262.936514 249.049622,273.240141 252.027733,287.442535 C253.719677,295.501197 252.172653,303.733944 247.67288,310.628415 C243.17673,317.522887 236.267657,322.252183 228.213715,323.938627 C226.123241,324.381092 223.985667,324.602324 221.862586,324.602324 L221.862586,324.602324 Z M221.920554,270.190035 C220.297447,270.190035 218.663471,270.360493 217.054857,270.697782 C210.89937,271.988908 205.613404,275.608415 202.175171,280.878099 C198.736939,286.147782 197.555839,292.443838 198.845629,298.609331 C201.124499,309.471479 210.805171,317.348803 221.866209,317.348803 C223.489315,317.348803 225.123291,317.178345 226.731906,316.841056 C232.887393,315.54993 238.173358,311.930423 241.611591,306.660739 C245.049824,301.391056 246.230924,295.095 244.941133,288.929507 C242.665886,278.070986 232.985214,270.190035 221.920554,270.190035 L221.920554,270.190035 Z" id="Shape" fill="#000000"></path>
                        <ellipse id="Oval" fill="#11BACC" cx="221.89157" cy="293.767606" rx="9.35822438" ry="9.36792254"></ellipse>
                        <path d="M221.89157,130.56338 L221.89157,239.366197 C248.078657,239.369824 269.932629,257.913451 275.077297,282.60081 L381.47049,260.256338 C366.025615,186.201514 300.452831,130.56338 221.89157,130.56338 L221.89157,130.56338 Z" id="Shape" fill="#03A2DC"></path>
                        <g id="Group" transform="translate(217.730445, 103.537713)" fill="#000000">
                            <rect id="Rectangle-path" x="0.538118154" y="0.278308364" width="7.24601191" height="18.1338028"></rect>
                            <rect id="Rectangle-path" x="0.538118154" y="362.50102" width="7.24601191" height="18.1338028"></rect>
                        </g>
                        <g id="Group" transform="translate(30.970595, 290.140845)" fill="#000000">
                            <rect id="Rectangle-path" x="362.789131" y="0.224859155" width="18.1150298" height="7.25352113"></rect>
                            <rect id="Rectangle-path" x="0.941411637" y="0.224859155" width="18.1150298" height="7.25352113"></rect>
                        </g>
                        <g id="Group" transform="translate(84.322410, 156.944913)" fill="#000000">
                            <rect id="Rectangle-path" transform="translate(265.500096, 8.980789) rotate(45.000000) translate(-265.500096, -8.980789) " x="261.877125" y="-0.0878392221" width="7.24594242" height="18.1372556"></rect>
                            <rect id="Rectangle-path" transform="translate(9.639675, 265.109875) rotate(45.000000) translate(-9.639675, -265.109875) " x="6.01670361" y="256.041247" width="7.24594242" height="18.1372556"></rect>
                        </g>
                        <g id="Group" transform="translate(84.322410, 156.944913)" fill="#000000">
                            <rect id="Rectangle-path" transform="translate(265.501848, 265.110685) rotate(45.000000) translate(-265.501848, -265.110685) " x="256.442608" y="261.483959" width="18.118479" height="7.25345157"></rect>
                            <rect id="Rectangle-path" transform="translate(9.637922, 8.985110) rotate(45.000000) translate(-9.637922, -8.985110) " x="0.578682468" y="5.35838418" width="18.118479" height="7.25345157"></rect>
                        </g>
                        <g id="Group" transform="translate(144.277053, 117.050547)" fill="#000000">
                            <rect id="Rectangle-path" transform="translate(147.468770, 9.888432) rotate(22.711094) translate(-147.468770, -9.888432) " x="143.843808" y="0.821170452" width="7.24992294" height="18.1345233"></rect>
                            <rect id="Rectangle-path" transform="translate(7.740027, 343.998840) rotate(22.687740) translate(-7.740027, -343.998840) " x="4.11710188" y="334.932142" width="7.24584978" height="18.1333971"></rect>
                        </g>
                        <g id="Group" transform="translate(44.469345, 216.961499)" fill="#000000">
                            <rect id="Rectangle-path" transform="translate(344.311895, 146.924169) rotate(22.713306) translate(-344.311895, -146.924169) " x="335.254856" y="143.297599" width="18.1140784" height="7.25314021"></rect>
                            <rect id="Rectangle-path" transform="translate(10.527983, 7.102242) rotate(22.713306) translate(-10.527983, -7.102242) " x="1.47094361" y="3.47567202" width="18.1140784" height="7.25314021"></rect>
                        </g>
                        <g id="Group" transform="translate(44.469345, 217.605634)" fill="#000000">
                            <rect id="Rectangle-path" transform="translate(344.846209, 7.696508) rotate(67.728318) translate(-344.846209, -7.696508) " x="341.223192" y="-1.37223454" width="7.24603423" height="18.1374854"></rect>
                            <rect id="Rectangle-path" transform="translate(10.031151, 145.074134) rotate(67.720844) translate(-10.031151, -145.074134) " x="6.41014282" y="136.005886" width="7.24201555" height="18.1364946"></rect>
                        </g>
                        <g id="Group" transform="translate(145.913512, 116.056338)" fill="#000000">
                            <rect id="Rectangle-path" transform="translate(144.612528, 345.538446) rotate(67.710241) translate(-144.612528, -345.538446) " x="135.552982" y="341.913411" width="18.1190929" height="7.25007048"></rect>
                            <rect id="Rectangle-path" transform="translate(7.360314, 10.368880) rotate(67.710241) translate(-7.360314, -10.368880) " x="-1.69923237" y="6.743845" width="18.1190929" height="7.25007048"></rect>
                        </g>
                        <rect id="Rectangle-path" fill="#000000" transform="translate(330.632901, 270.917599) rotate(78.164165) translate(-330.632901, -270.917599) " x="327.010041" y="186.89981" width="7.24572098" height="168.035577"></rect>
                    </g>
                </g>
            </g>
        </g>
    </g>
</svg>