<?xml version="1.0" encoding="UTF-8"?>
<svg width="443px" height="517px" viewBox="0 0 443 517" version="1.1" xmlns="http://www.w3.org/2000/svg" xmlns:xlink="http://www.w3.org/1999/xlink">
    <!-- Generator: Sketch 3.8.1 (29687) - http://www.bohemiancoding.com/sketch -->
    <title>Smart team Matching</title>
    <desc>Created with Sketch.</desc>
    <defs></defs>
    <g id="Page-1" stroke="none" stroke-width="1" fill="none" fill-rule="evenodd">
        <g id="Smart-team-Matching">
            <g id="Page-1">
                <g>
                    <g id="Smart-team-Matching">
                        <rect id="Rectangle-path" fill="#E4E5E7" x="257.997159" y="12.8826945" width="36.856737" height="128.826945"></rect>
                        <rect id="Rectangle-path" fill="#C4C4C4" x="294.853896" y="0" width="147.426948" height="154.592334"></rect>
                        <g id="Group" transform="translate(276.425528, 33.126929)">
                            <path d="M144.220412,206.123112 L136.849065,206.123112 L136.849065,42.3288533 C136.849065,39.2848567 134.368606,36.8076986 131.320554,36.8076986 C128.272502,36.8076986 125.792043,39.2848567 125.792043,42.3288533 L125.792043,94.4743199 L109.206512,94.4743199 L109.206512,20.2442342 C109.206512,17.2002375 106.726053,14.7230794 103.678001,14.7230794 C100.629949,14.7230794 98.1494907,17.2002375 98.1494907,20.2442342 L98.1494907,94.4743199 L81.563959,94.4743199 L81.563959,12.8826945 C81.563959,9.83869782 79.0835006,7.36153971 76.0354485,7.36153971 C72.9873963,7.36153971 70.5069379,9.83869782 70.5069379,12.8826945 L70.5069379,94.4743199 L53.9214063,94.4743199 L53.9214063,31.2865438 C53.9214063,28.2425471 51.4409478,25.765389 48.3928957,25.765389 C45.3448435,25.765389 42.8643851,28.2425471 42.8643851,31.2865438 L42.8643851,145.879952 L20.4591747,109.962999 L20.4481177,109.970361 L18.3767691,106.930045 C17.3521518,105.277379 15.6014568,104.287252 13.6922778,104.287252 C10.6442256,104.287252 8.16376725,106.76441 8.16376725,109.808407 C8.16376725,111.427946 8.89353064,112.631558 9.50535248,113.356669 L9.81863474,113.787319 L42.8680708,166.768321 L42.8680708,206.123112 L35.4967234,206.123112 L35.4967234,168.873721 L3.69304505,117.887697 C1.82072281,115.576173 0.792419846,112.719896 0.792419846,109.808407 C0.792419846,102.704521 6.57892756,96.9257126 13.6922778,96.9257126 C16.9172423,96.9257126 19.9394947,98.1109205 22.2688405,100.208959 L22.70375,99.9439439 L24.7787843,102.965856 L35.4930377,120.144009 L35.4930377,31.2865438 C35.4930377,24.182658 41.2795455,18.4038493 48.3928957,18.4038493 C55.5062459,18.4038493 61.2927537,24.182658 61.2927537,31.2865438 L61.2927537,87.1127802 L63.1355905,87.1127802 L63.1355905,12.8826945 C63.1355905,5.77880867 68.9220982,0 76.0354485,0 C83.1487987,0 88.9353064,5.77880867 88.9353064,12.8826945 L88.9353064,87.1127802 L90.7781433,87.1127802 L90.7781433,20.2442342 C90.7781433,13.1403484 96.564651,7.36153971 103.678001,7.36153971 C110.791351,7.36153971 116.577859,13.1403484 116.577859,20.2442342 L116.577859,87.1127802 L118.420696,87.1127802 L118.420696,42.3288533 C118.420696,35.2249675 124.207204,29.4461588 131.320554,29.4461588 C138.433904,29.4461588 144.220412,35.2249675 144.220412,42.3288533 L144.220412,206.123112 L144.220412,206.123112 L144.220412,206.123112 Z" id="Shape" fill="#000000"></path>
                            <rect id="Rectangle-path" fill="#E4E5E7" x="23.9568791" y="206.123112" width="128.99858" height="36.8076986"></rect>
                            <rect id="Rectangle-path" fill="#03A2DC" x="11.0570211" y="242.93081" width="154.798295" height="239.250041"></rect>
                        </g>
                        <g id="Group" transform="translate(0.000000, 351.650236)">
                            <path d="M348.296165,143.578945 L184.283685,143.578945 L184.283685,136.217405 L348.296165,136.217405 C351.344217,136.217405 353.824675,133.740247 353.824675,130.69625 C353.824675,127.652254 351.344217,125.175095 348.296165,125.175095 L296.081225,125.175095 L296.081225,108.611631 L370.410207,108.611631 C373.458259,108.611631 375.938718,106.134473 375.938718,103.090476 C375.938718,100.04648 373.458259,97.5693215 370.410207,97.5693215 L296.081225,97.5693215 L296.081225,81.0058572 L377.781554,81.0058572 C380.829607,81.0058572 383.310065,78.528699 383.310065,75.4847024 C383.310065,72.4407057 380.829607,69.9635476 377.781554,69.9635476 L296.081225,69.9635476 L296.081225,53.4000832 L359.353186,53.4000832 C362.401238,53.4000832 364.881696,50.9229251 364.881696,47.8789285 C364.881696,44.8349318 362.401238,42.3577737 359.353186,42.3577737 L244.603421,42.3577737 L280.590339,19.9713314 L280.582968,19.9566083 L283.608906,17.8953772 C285.267459,16.875804 286.258905,15.1237575 286.258905,13.2171187 C286.258905,10.1731221 283.778447,7.69596394 280.730394,7.69596394 C279.105012,7.69596394 277.899797,8.42475637 277.177405,9.03576417 L276.742496,9.34862961 L223.690908,42.3540929 L184.283685,42.3540929 L184.283685,34.9925532 L221.582703,34.9925532 L272.636655,3.23119011 C274.951258,1.36135902 277.815027,0.330743463 280.730394,0.330743463 C287.843745,0.330743463 293.630252,6.10955214 293.630252,13.213438 C293.630252,16.4414731 292.436094,19.4670659 290.327889,21.7969933 L290.585886,22.2239626 L287.578376,24.2925552 L270.381023,34.9925532 L359.353186,34.9925532 C366.466536,34.9925532 372.253044,40.7713619 372.253044,47.8752477 C372.253044,54.9791335 366.466536,60.7579422 359.353186,60.7579422 L303.452573,60.7579422 L303.452573,62.5983271 L377.781554,62.5983271 C384.894905,62.5983271 390.681412,68.3771358 390.681412,75.4810216 C390.681412,82.5849074 384.894905,88.3637161 377.781554,88.3637161 L303.452573,88.3637161 L303.452573,90.204101 L370.410207,90.204101 C377.523557,90.204101 383.310065,95.9829097 383.310065,103.086796 C383.310065,110.190681 377.523557,115.96949 370.410207,115.96949 L303.452573,115.96949 L303.452573,117.809875 L348.296165,117.809875 C355.409515,117.809875 361.196023,123.588684 361.196023,130.692569 C361.196023,137.796455 355.405829,143.578945 348.296165,143.578945 L348.296165,143.578945 Z" id="Shape" fill="#000000"></path>
                            <rect id="Rectangle-path" fill="#E4E5E7" x="147.426948" y="23.4717435" width="36.856737" height="128.826945"></rect>
                            <rect id="Rectangle-path" fill="#C4C4C4" x="0" y="10.589049" width="147.426948" height="154.592334"></rect>
                        </g>
                        <g id="Group">
                            <path d="M89.8161824,482.180851 C82.7028322,482.180851 76.9163245,476.402042 76.9163245,469.298157 L76.9163245,395.068071 L75.0734876,395.068071 L75.0734876,461.936617 C75.0734876,469.040503 69.2869799,474.819311 62.1736297,474.819311 C55.0602794,474.819311 49.2737717,469.040503 49.2737717,461.936617 L49.2737717,395.068071 L47.4309349,395.068071 L47.4309349,439.851998 C47.4309349,446.955884 41.6444272,452.734692 34.5310769,452.734692 C27.4177267,452.734692 21.631219,446.955884 21.631219,439.851998 L21.631219,276.057739 L29.0025664,276.057739 L29.0025664,439.851998 C29.0025664,442.895994 31.4830248,445.373153 34.5310769,445.373153 C37.5791291,445.373153 40.0595875,442.895994 40.0595875,439.851998 L40.0595875,387.706531 L56.6451191,387.706531 L56.6451191,461.936617 C56.6451191,464.980614 59.1255775,467.457772 62.1736297,467.457772 C65.2216818,467.457772 67.7021402,464.980614 67.7021402,461.936617 L67.7021402,387.706531 L84.2876719,387.706531 L84.2876719,469.298157 C84.2876719,472.342153 86.7681303,474.819311 89.8161824,474.819311 C92.8642346,474.819311 95.344693,472.342153 95.344693,469.298157 L95.344693,387.706531 L111.930225,387.706531 L111.930225,450.894307 C111.930225,453.938304 114.410683,456.415462 117.458735,456.415462 C120.506787,456.415462 122.987246,453.938304 122.987246,450.894307 L122.987246,336.300899 L145.392456,372.217852 L145.403513,372.21049 L147.474862,375.250806 C148.499479,376.903472 150.250174,377.893599 152.159353,377.893599 C155.207405,377.893599 157.687864,375.416441 157.687864,372.372444 C157.687864,370.752905 156.9581,369.549293 156.346278,368.824182 L156.032996,368.393532 L122.98356,315.41253 L122.98356,276.057739 L130.354907,276.057739 L130.354907,313.30713 L162.158586,364.293154 C164.030908,366.604678 165.059211,369.460955 165.059211,372.372444 C165.059211,379.47633 159.272703,385.255138 152.159353,385.255138 C148.934389,385.255138 145.912136,384.069931 143.58279,381.971892 L143.147881,382.236907 L141.072847,379.214995 L130.358593,362.036842 L130.358593,450.890627 C130.358593,457.994512 124.572085,463.773321 117.458735,463.773321 C110.345385,463.773321 104.558877,457.994512 104.558877,450.890627 L104.558877,395.06439 L102.71604,395.06439 L102.71604,469.298157 C102.71604,476.402042 96.925847,482.180851 89.8161824,482.180851 L89.8161824,482.180851 Z" id="Shape" fill="#000000"></path>
                            <rect id="Rectangle-path" fill="#E4E5E7" x="12.899858" y="239.250041" width="128.99858" height="36.8076986"></rect>
                            <rect id="Rectangle-path" fill="#03A2DC" x="0" y="0" width="154.798295" height="239.250041"></rect>
                        </g>
                        <path d="M161.554135,164.846959 C154.440785,164.846959 148.654277,159.06815 148.654277,151.964264 C148.654277,148.714144 149.863178,145.670148 151.993498,143.33654 L151.750243,142.916932 L154.706154,140.885147 L171.903507,130.185149 L82.9276583,130.185149 C75.814308,130.185149 70.0278003,124.40634 70.0278003,117.302455 C70.0278003,110.198569 75.814308,104.41976 82.9276583,104.41976 L138.831957,104.41976 L138.831957,102.579375 L64.4992898,102.579375 C57.3859395,102.579375 51.5994318,96.8005664 51.5994318,89.6966806 C51.5994318,82.5927948 57.3859395,76.8139861 64.4992898,76.8139861 L138.831957,76.8139861 L138.831957,74.9736012 L71.8706372,74.9736012 C64.7572869,74.9736012 58.9707792,69.1947925 58.9707792,62.0909067 C58.9707792,54.9870209 64.7572869,49.2082122 71.8706372,49.2082122 L138.831957,49.2082122 L138.831957,47.3678273 L93.9846794,47.3678273 C86.8713291,47.3678273 81.0848214,41.5890186 81.0848214,34.4851328 C81.0848214,27.381247 86.8713291,21.6024383 93.9846794,21.6024383 L257.997159,21.6024383 L257.997159,28.963978 L93.9846794,28.963978 C90.9366272,28.963978 88.4561688,31.4411361 88.4561688,34.4851328 C88.4561688,37.5291294 90.9366272,40.0062876 93.9846794,40.0062876 L146.203304,40.0062876 L146.203304,56.5697519 L71.8706372,56.5697519 C68.822585,56.5697519 66.3421266,59.04691 66.3421266,62.0909067 C66.3421266,65.1349034 68.822585,67.6120615 71.8706372,67.6120615 L146.203304,67.6120615 L146.203304,84.1755258 L64.4992898,84.1755258 C61.4512376,84.1755258 58.9707792,86.6526839 58.9707792,89.6966806 C58.9707792,92.7406773 61.4512376,95.2178354 64.4992898,95.2178354 L146.203304,95.2178354 L146.203304,111.7813 L82.9276583,111.7813 C79.8796061,111.7813 77.3991477,114.258458 77.3991477,117.302455 C77.3991477,120.346451 79.8796061,122.823609 82.9276583,122.823609 L197.673738,122.823609 L161.638906,145.243178 L161.646277,145.257902 L158.671939,147.282325 C157.017071,148.301898 156.025625,150.050264 156.025625,151.960583 C156.025625,155.00458 158.506083,157.481738 161.554135,157.481738 C163.175832,157.481738 164.381047,156.752946 165.103439,156.141938 L165.538349,155.829073 L218.589936,122.823609 L257.997159,122.823609 L257.997159,130.185149 L220.698141,130.185149 L169.644189,161.946512 C167.329586,163.816343 164.469503,164.846959 161.554135,164.846959 L161.554135,164.846959 Z" id="Shape" fill="#000000"></path>
                        <ellipse id="Oval" fill="#E4E5E7" cx="221.140422" cy="257.65389" rx="55.2851055" ry="55.2115478"></ellipse>
                        <polygon id="Shape" fill="#000000" points="221.140422 278.50177 200.102597 257.495617 205.317825 252.291008 221.140422 268.092553 255.387702 233.887159 260.60293 239.091768"></polygon>
                    </g>
                </g>
            </g>
        </g>
    </g>
</svg>