<?xml version="1.0" standalone="no"?>
<!DOCTYPE svg PUBLIC "-//W3C//DTD SVG 1.1//EN" "http://www.w3.org/Graphics/SVG/1.1/DTD/svg11.dtd" >
<svg>
<metadata>
Created by FontForge 20090622 at Thu Jul  6 13:08:27 2017
 By deploy user
&#194;&#169; 2016 Connary Fagen
</metadata>
<defs>
<font id="ArticulatCFv2-Text" horiz-adv-x="535" >
  <font-face 
    font-family="Articulat CF v2 Text"
    font-weight="400"
    font-stretch="normal"
    units-per-em="1000"
    panose-1="0 0 5 0 0 0 0 0 0 0"
    ascent="800"
    descent="-200"
    x-height="520"
    cap-height="700"
    bbox="-165 -281 1053 932"
    underline-thickness="50"
    underline-position="-50"
    unicode-range="U+0020-U+FB02"
  />
<missing-glyph horiz-adv-x="510" 
d="M418 800v-1020h-323v1020h323zM340 732h-169v-34h67v-38h-68v-33h170v33h-68v38h68v34zM272 600h-102v-106h170v35h-68v71zM238 565v-36h-34v36h34zM340 466h-170v-33h68v-38h-68v-34h102v72h68v33zM340 405h-34v-67h-136v-35h170v102zM340 281h-102v-57h34v23h34v-48
h-102v82h-34v-115h170v115zM340 104h-170v-115h170v115zM306 71v-48h-102v48h102zM340 -34h-170v-34h72l-72 -48v-34h170v34h-104l71 48h33v34z" />
    <glyph glyph-name="fi" unicode="fi" horiz-adv-x="510" 
d="M92 574q0 83 38 112.5t99 29.5q46 0 76 -11v-60q-26 7 -60 7q-38 0 -55.5 -18t-17.5 -61v-53h127v-64h-127v-456h-80v456h-72v64h72v54zM373 709h80v-74h-80v74zM373 0v520h80v-520h-80z" />
    <glyph glyph-name="fl" unicode="fl" horiz-adv-x="510" 
d="M92 574q0 83 38 112.5t99 29.5q46 0 76 -11v-60q-26 7 -60 7q-38 0 -55.5 -18t-17.5 -61v-53h127v-64h-127v-456h-80v456h-72v64h72v54zM373 706h80v-706h-80v706z" />
    <glyph glyph-name=".notdef" horiz-adv-x="510" 
d="M418 800v-1020h-323v1020h323zM340 732h-169v-34h67v-38h-68v-33h170v33h-68v38h68v34zM272 600h-102v-106h170v35h-68v71zM238 565v-36h-34v36h34zM340 466h-170v-33h68v-38h-68v-34h102v72h68v33zM340 405h-34v-67h-136v-35h170v102zM340 281h-102v-57h34v23h34v-48
h-102v82h-34v-115h170v115zM340 104h-170v-115h170v115zM306 71v-48h-102v48h102zM340 -34h-170v-34h72l-72 -48v-34h170v34h-104l71 48h33v34z" />
    <glyph glyph-name=".null" horiz-adv-x="0" 
 />
    <glyph glyph-name="nonmarkingreturn" horiz-adv-x="333" 
 />
    <glyph glyph-name="space" unicode=" " horiz-adv-x="273" 
 />
    <glyph glyph-name="exclam" unicode="!" horiz-adv-x="211" 
d="M144 195h-77l-2 505h82zM58 102h96v-102h-96v102z" />
    <glyph glyph-name="quotedbl" unicode="&#x22;" horiz-adv-x="302" 
d="M40 456h76v244h-76v-244zM186 456h76v244h-76v-244z" />
    <glyph glyph-name="numbersign" unicode="#" horiz-adv-x="592" 
d="M547 445h-108l-19 -190h101v-64h-108l-19 -191h-62l19 191h-144l-19 -191h-62l19 191h-100v64h107l19 190h-100v64h106l19 191h62l-19 -191h144l19 191h62l-19 -191h102v-64zM358 255l19 190h-144l-19 -190h144z" />
    <glyph glyph-name="dollar" unicode="$" horiz-adv-x="589" 
d="M546 191q0 -88 -61.5 -141.5t-168.5 -58.5v-81h-41v82q-106 5 -164.5 62.5t-67.5 149.5h83q21 -131 149 -141v266l-38 8q-180 39 -180 183q0 80 57.5 132.5t160.5 56.5v81h41v-82q94 -7 148 -55.5t64 -129.5h-82q-19 102 -130 114v-245l28 -6q102 -22 152 -66t50 -129z
M253 405l22 -5v238q-67 -4 -101.5 -39t-34.5 -81q0 -90 114 -113zM316 63q71 4 109 39t38 90q0 56 -33.5 84t-94.5 41l-19 4v-258z" />
    <glyph glyph-name="percent" unicode="%" horiz-adv-x="725" 
d="M174 399q-57 0 -93 40.5t-36 112.5t36 112.5t93 40.5t93.5 -40.5t36.5 -112.5t-36.5 -112.5t-93.5 -40.5zM126 0l412 702l61 -2l-410 -700h-63zM174 454q72 0 72 98q0 99 -72 99q-71 0 -71 -99q0 -98 71 -98zM550 -5q-57 0 -93 40.5t-36 112.5t36 112.5t93 40.5
t93.5 -40.5t36.5 -112.5t-36.5 -112.5t-93.5 -40.5zM550 50q72 0 72 98q0 99 -72 99q-71 0 -71 -99q0 -98 71 -98z" />
    <glyph glyph-name="ampersand" unicode="&#x26;" horiz-adv-x="681" 
d="M649 0h-91l-66 73q-84 -85 -207 -85q-108 0 -175 56t-67 142q0 68 40.5 112.5t122.5 92.5q-90 102 -90 172q0 67 43 109t126 42q78 0 121 -42t43 -107q0 -56 -30.5 -97t-111.5 -89l176 -196q41 74 44 178h73q-8 -143 -66 -234zM285 653q-47 0 -74 -25t-27 -67
q0 -31 20.5 -62t60.5 -75q64 36 90.5 67t26.5 71q0 41 -26.5 66t-70.5 25zM286 58q91 0 157 70l-195 217q-120 -69 -120 -157q0 -57 44 -93.5t114 -36.5z" />
    <glyph glyph-name="quotesingle" unicode="'" horiz-adv-x="156" 
d="M40 456h76v244h-76v-244z" />
    <glyph glyph-name="parenleft" unicode="(" horiz-adv-x="266" 
d="M151 745h75q-101 -183 -101 -425q0 -256 101 -450h-75q-106 189 -106 450q0 248 106 425z" />
    <glyph glyph-name="parenright" unicode=")" horiz-adv-x="266" 
d="M120 745q106 -177 106 -425q0 -261 -106 -450h-75q101 194 101 450q0 242 -101 425h75z" />
    <glyph glyph-name="asterisk" unicode="*" horiz-adv-x="470" 
d="M395 565l-109 -29l72 -95l-58 -37l-64 92l-65 -92l-58 37l72 94l-110 30l17 66l112 -34l-3 117h67l-2 -117l113 34zM253 549l-5 18h-25l-5 -18l18 -15z" />
    <glyph glyph-name="plus" unicode="+" horiz-adv-x="518" 
d="M473 318v-71h-177v-178h-75v178h-176v71h176v176h75v-176h177z" />
    <glyph glyph-name="comma" unicode="," horiz-adv-x="196" 
d="M50 -145v27q22 10 30.5 30t8.5 57v31h-39v102h96v-127q0 -118 -96 -120z" />
    <glyph glyph-name="hyphen" unicode="-" horiz-adv-x="355" 
d="M40 311h275v-62h-275v62z" />
    <glyph glyph-name="period" unicode="." horiz-adv-x="196" 
d="M50 102h96v-102h-96v102z" />
    <glyph glyph-name="slash" unicode="/" horiz-adv-x="411" 
d="M381 700l-271 -699h-80l272 699h79z" />
    <glyph glyph-name="zero" unicode="0" horiz-adv-x="629" 
d="M315 709q119 0 195.5 -93t76.5 -266t-76.5 -266t-195.5 -93t-195.5 93t-76.5 266t76.5 266t195.5 93zM507 350q0 133 -50.5 211t-141.5 78t-141.5 -78t-50.5 -211q0 -134 50.5 -211.5t141.5 -77.5t141.5 77.5t50.5 211.5z" />
    <glyph glyph-name="one" unicode="1" horiz-adv-x="318" 
d="M246 700v-700h-80v592q-47 -53 -128 -56v67q48 4 82.5 31t45.5 66h80z" />
    <glyph glyph-name="two" unicode="2" horiz-adv-x="543" 
d="M40 0v23q0 95 45 159.5t161 136.5q92 57 119 82q48 46 49 108q0 60 -40.5 95t-103.5 35q-64 0 -104.5 -38t-40.5 -111v-15h-78v15q0 99 59 158t164 59q104 0 164 -56t60 -142q0 -35 -12 -65.5t-25.5 -50.5t-46.5 -45.5t-52.5 -37.5l-65.5 -40q-83 -51 -124.5 -95.5
t-41.5 -100.5v-7h372v-67h-458z" />
    <glyph glyph-name="three" unicode="3" horiz-adv-x="577" 
d="M380 378q63 -10 110 -55.5t47 -123.5q0 -95 -68 -153t-184 -58t-182.5 65t-67.5 172h76q2 -78 49.5 -122.5t123.5 -44.5q75 0 124 38t49 105t-49.5 105.5t-139.5 38.5h-24v57h24q82 0 118 36t36 86q0 52 -39 83.5t-102 31.5q-64 0 -104.5 -38.5t-41.5 -118.5h-75
q0 109 59 168t162 59q99 0 159 -51.5t60 -127.5q0 -56 -32 -96t-88 -56z" />
    <glyph glyph-name="four" unicode="4" horiz-adv-x="554" 
d="M519 186h-80v-186h-80v186h-324v66l324 448h80v-448h80v-66zM359 252v347l-250 -347h250z" />
    <glyph glyph-name="five" unicode="5" horiz-adv-x="574" 
d="M307 475q98 0 163.5 -65t65.5 -176q0 -113 -67 -178.5t-181 -65.5q-111 0 -176 62t-67 160h73q2 -71 49 -113.5t121 -42.5t121.5 45.5t47.5 132.5q0 84 -48.5 131t-115.5 47q-94 0 -154 -76h-75l54 364h358v-64h-304l-35 -234q23 31 67.5 52t102.5 21z" />
    <glyph glyph-name="six" unicode="6" horiz-adv-x="581" 
d="M314 464q93 0 158.5 -62t65.5 -170q0 -113 -68.5 -177.5t-172.5 -64.5q-118 0 -183.5 87.5t-65.5 259.5q0 78 12.5 141.5t40.5 117t79.5 83.5t123.5 30q99 0 154 -52.5t60 -124.5h-70q-8 50 -46 82.5t-98 32.5q-183 0 -181 -297q18 52 67.5 83t123.5 31zM298 57
q73 0 118 47t45 129q0 81 -45 127t-117 46q-68 0 -116 -44.5t-48 -114.5q0 -86 45.5 -138t117.5 -52z" />
    <glyph glyph-name="seven" unicode="7" horiz-adv-x="486" 
d="M451 700v-67q-202 -311 -246 -633h-82q51 328 253 633h-346v67h421z" />
    <glyph glyph-name="eight" unicode="8" horiz-adv-x="572" 
d="M397 392q64 -23 101 -70.5t37 -115.5q0 -100 -70.5 -158t-178.5 -58q-107 0 -177.5 58t-70.5 158q0 68 37 115.5t101 70.5q-45 22 -70.5 60t-25.5 86q0 73 55 121t151 48t151.5 -48t55.5 -121q0 -47 -26 -85.5t-70 -60.5zM286 649q-64 0 -99.5 -32t-35.5 -84
q0 -53 36.5 -85.5t98.5 -32.5t99 33t37 85t-35.5 84t-100.5 32zM286 57q78 0 123.5 41.5t45.5 110.5t-46.5 110t-122.5 41t-122 -41t-46 -110t45.5 -110.5t122.5 -41.5z" />
    <glyph glyph-name="nine" unicode="9" horiz-adv-x="576" 
d="M262 235q-93 0 -158.5 62t-65.5 170q0 113 68.5 177.5t172.5 64.5q118 0 183.5 -87.5t65.5 -259.5q0 -78 -12.5 -141.5t-40.5 -117t-79.5 -83.5t-123.5 -30q-99 0 -154 52.5t-60 124.5h70q8 -50 46 -82.5t98 -32.5q183 0 181 297q-18 -52 -67.5 -83t-123.5 -31zM278 642
q-73 0 -118 -47t-45 -129q0 -81 45 -127t117 -46q68 0 116 44.5t48 114.5q0 86 -45.5 138t-117.5 52z" />
    <glyph glyph-name="colon" unicode=":" horiz-adv-x="191" 
d="M50 520h96v-102h-96v102zM50 102h96v-102h-96v102z" />
    <glyph glyph-name="semicolon" unicode=";" horiz-adv-x="196" 
d="M50 520h96v-102h-96v102zM50 -145v27q22 10 30.5 30t8.5 57v31h-39v102h96v-127q0 -118 -96 -120z" />
    <glyph glyph-name="less" unicode="&#x3c;" horiz-adv-x="507" 
d="M462 78l-346 163l346 163v78l-417 -203v-76l417 -203v78z" />
    <glyph glyph-name="equal" unicode="=" horiz-adv-x="458" 
d="M39 391h298v-62h-298v62zM39 231h298v-62h-298v62z" />
    <glyph glyph-name="greater" unicode="&#x3e;" horiz-adv-x="507" 
d="M45 78v-78l417 203v76l-417 203v-78l346 -163z" />
    <glyph glyph-name="question" unicode="?" horiz-adv-x="524" 
d="M265 707q-99 0 -160 -57.5t-60 -166.5h80q0 75 37.5 114.5t102.5 39.5q62 0 98 -32t36 -89q0 -33 -18 -58.5t-43.5 -44t-51 -39.5t-43.5 -55.5t-18 -80.5v-43h85v43q0 38 17.5 66.5t42 47l49.5 38t42.5 51t17.5 75.5q0 91 -59.5 141t-154.5 50zM220 102h96v-102h-96v102z
" />
    <glyph glyph-name="at" unicode="@" horiz-adv-x="771" 
d="M480 514h55v-203q0 -43 17 -67.5t48 -24.5q34 0 53.5 35.5t19.5 96.5q0 133 -84 216.5t-204 83.5q-118 0 -202 -81.5t-84 -222.5q0 -135 85 -216t201 -81q100 0 168 55l65 -19q-90 -93 -233 -93q-138 0 -240 98t-102 256q0 162 102 261t240 99q140 0 242 -100t102 -256
q0 -88 -38 -137t-92 -49q-47 0 -73 27t-32 71q-12 -44 -47.5 -71.5t-79.5 -27.5q-62 0 -109 46.5t-47 135.5q0 85 47 131t107 46q42 0 78 -28t37 -66v85zM371 219q44 0 73.5 35.5t29.5 91.5q0 55 -29.5 88.5t-73.5 33.5q-42 0 -72.5 -33.5t-30.5 -88.5q0 -58 30.5 -92.5
t72.5 -34.5z" />
    <glyph glyph-name="A" unicode="A" horiz-adv-x="685" 
d="M568 0l-68 179h-314l-68 -179h-90l278 700h73l279 -700h-90zM210 243h266l-133 349z" />
    <glyph glyph-name="B" unicode="B" horiz-adv-x="625" 
d="M426 384q73 -19 112 -67.5t39 -117.5q0 -95 -63 -147t-189 -52h-267v700h263q106 0 159 -46.5t53 -124.5q0 -52 -27.5 -90.5t-79.5 -54.5zM141 629v-220h185q56 0 88.5 31.5t32.5 83.5q0 48 -30.5 76.5t-93.5 28.5h-182zM325 71q85 0 124.5 35.5t39.5 96.5
q0 63 -42.5 101.5t-125.5 38.5h-180v-272h184z" />
    <glyph glyph-name="C" unicode="C" horiz-adv-x="652" 
d="M352 65q142 0 186 113h84q-19 -88 -92.5 -137.5t-178.5 -49.5q-138 0 -223 92.5t-85 266.5t85 266.5t223 92.5q104 0 177 -49t92 -137h-85q-42 113 -183 113q-101 0 -162 -73.5t-61 -212.5q0 -138 61 -211.5t162 -73.5z" />
    <glyph glyph-name="D" unicode="D" horiz-adv-x="657" 
d="M280 700q168 0 254 -90t86 -260q0 -169 -86 -259.5t-254 -90.5h-222v700h222zM273 74q136 0 199.5 67.5t63.5 208.5t-63.5 209t-199.5 68h-132v-553h132z" />
    <glyph glyph-name="E" unicode="E" horiz-adv-x="552" 
d="M141 74h381v-74h-464v700h454v-73h-371v-233h321v-68h-321v-252z" />
    <glyph glyph-name="F" unicode="F" horiz-adv-x="533" 
d="M503 627h-362v-243h297v-69h-297v-315h-83v700h445v-73z" />
    <glyph glyph-name="G" unicode="G" horiz-adv-x="690" 
d="M643 359v-40q0 -328 -288 -328q-142 0 -227 92t-85 267q0 174 84.5 266.5t223.5 92.5q101 0 170 -45.5t91 -128.5h-84q-46 101 -176 101q-102 0 -162.5 -73.5t-60.5 -212.5t61 -212t165 -73q207 0 211 226h-180v68h257z" />
    <glyph glyph-name="H" unicode="H" horiz-adv-x="649" 
d="M508 700h84v-700h-84v309h-367v-309h-83v700h83v-322h367v322z" />
    <glyph glyph-name="I" unicode="I" horiz-adv-x="199" 
d="M141 0h-83v700h83v-700z" />
    <glyph glyph-name="J" unicode="J" horiz-adv-x="500" 
d="M68 134q55 -67 149 -67q65 0 106 40.5t41 135.5v457h84v-460q0 -127 -65.5 -187t-165.5 -60q-126 0 -194 89z" />
    <glyph glyph-name="K" unicode="K" horiz-adv-x="641" 
d="M525 0l-277 318l-107 -118v-200h-83v700h83v-387l355 387h98l-293 -324l320 -376h-96z" />
    <glyph glyph-name="L" unicode="L" horiz-adv-x="531" 
d="M141 74h358v-74h-441v700h83v-626z" />
    <glyph glyph-name="M" unicode="M" horiz-adv-x="829" 
d="M58 700h92l265 -594l264 594h93v-700h-84v546h-3l-236 -546h-68l-237 546h-3v-546h-83v700z" />
    <glyph glyph-name="N" unicode="N" horiz-adv-x="662" 
d="M605 700v-700h-94l-367 569h-3v-569h-83v700h91l370 -572h2v572h84z" />
    <glyph glyph-name="O" unicode="O" horiz-adv-x="715" 
d="M358 709q142 0 228.5 -93t86.5 -266q0 -172 -86.5 -265.5t-228.5 -93.5q-143 0 -229 93t-86 266t86 266t229 93zM358 65q106 0 167 72.5t61 212.5t-61 213t-167 73t-167.5 -73t-61.5 -213t61.5 -212.5t167.5 -72.5z" />
    <glyph glyph-name="P" unicode="P" horiz-adv-x="592" 
d="M310 700q122 0 186 -59.5t64 -166.5q0 -106 -64 -165.5t-186 -59.5h-169v-249h-83v700h252zM311 322q78 0 119.5 39.5t41.5 112.5q0 74 -41.5 113.5t-119.5 39.5h-170v-305h170z" />
    <glyph glyph-name="Q" unicode="Q" horiz-adv-x="723" 
d="M678 34l-49 -48l-71 71q-80 -66 -200 -66q-143 0 -229 93t-86 266t86 266t229 93q142 0 228.5 -93t86.5 -266q0 -150 -68 -243zM358 65q88 0 144 49l-127 129l49 48l122 -123q40 69 40 182q0 140 -61 213t-167 73t-167.5 -73t-61.5 -213t61.5 -212.5t167.5 -72.5z" />
    <glyph glyph-name="R" unicode="R" horiz-adv-x="624" 
d="M571 117q0 -90 20 -117h-83q-20 27 -20 117v56q0 113 -125 113h-222v-286h-83v700h274q119 0 179 -53t60 -147q0 -125 -112 -175q60 -17 86 -52.5t26 -97.5v-58zM344 354q66 0 104 36t38 103q0 134 -155 134h-190v-273h203z" />
    <glyph glyph-name="S" unicode="S" horiz-adv-x="609" 
d="M356 386q106 -22 158 -66t52 -129q0 -92 -69.5 -146t-189.5 -54q-121 0 -188 58t-76 155h86q25 -142 178 -142q83 0 128 36t45 94q0 56 -35 84t-98 41l-102 20q-188 39 -188 183q0 83 64 136t178 53q110 0 173.5 -49.5t74.5 -136.5h-85q-22 115 -163 115
q-78 0 -117 -35.5t-39 -84.5q0 -90 118 -113z" />
    <glyph glyph-name="T" unicode="T" horiz-adv-x="580" 
d="M552 700v-73h-220v-627h-84v627h-220v73h524z" />
    <glyph glyph-name="U" unicode="U" horiz-adv-x="654" 
d="M596 266q0 -129 -72.5 -202t-196.5 -73q-125 0 -197 73t-72 202v434h83v-430q0 -98 49 -151.5t137 -53.5t137 53.5t49 151.5v430h83v-434z" />
    <glyph glyph-name="V" unicode="V" horiz-adv-x="675" 
d="M563 700h90l-279 -700h-73l-278 700h89l226 -591z" />
    <glyph glyph-name="W" unicode="W" horiz-adv-x="998" 
d="M884 700h87l-203 -700h-79l-190 580l-189 -580h-79l-203 700h87l160 -576l181 576h86l182 -576z" />
    <glyph glyph-name="X" unicode="X" horiz-adv-x="644" 
d="M621 0h-94l-205 294l-205 -294h-94l252 361l-236 339h94l189 -271l189 271h94l-236 -339z" />
    <glyph glyph-name="Y" unicode="Y" horiz-adv-x="652" 
d="M369 274v-274h-85v274l-256 426h93l205 -345l205 345h94z" />
    <glyph glyph-name="Z" unicode="Z" horiz-adv-x="609" 
d="M569 74v-74h-529v68l429 559h-413v73h509v-68l-429 -558h433z" />
    <glyph glyph-name="bracketleft" unicode="[" horiz-adv-x="280" 
d="M138 675v-735h85v-70h-165v875h165v-70h-85z" />
    <glyph glyph-name="backslash" unicode="\" horiz-adv-x="411" 
d="M30 700h79l272 -699h-80z" />
    <glyph glyph-name="bracketright" unicode="]" horiz-adv-x="280" 
d="M142 675h-85v70h165v-875h-165v70h85v735z" />
    <glyph glyph-name="asciicircum" unicode="^" horiz-adv-x="480" 
d="M370 465l-130 182l-129 -182h-66l169 235h53l168 -235h-65z" />
    <glyph glyph-name="underscore" unicode="_" horiz-adv-x="590" 
d="M45 0h500v-70h-500v70z" />
    <glyph glyph-name="grave" unicode="`" horiz-adv-x="175" 
d="M175 581l-88 128h-88l106 -128h70z" />
    <glyph glyph-name="a" unicode="a" 
d="M474 90q0 -21 8.5 -30.5t29.5 -8.5v-49q-13 -6 -33 -6q-78 0 -78 74v37q-7 -14 -20 -30t-36 -37t-60.5 -34t-81.5 -13q-76 0 -123 40t-47 115q0 67 44.5 102.5t138.5 50.5q146 21 178 38v7q0 65 -31 91.5t-95 26.5q-113 0 -127 -78h-76q8 69 60.5 104t143.5 35
q106 0 155.5 -46t49.5 -152v-237zM394 166v122q-27 -15 -168 -39q-62 -10 -87.5 -33.5t-25.5 -65.5q0 -44 28.5 -70.5t79.5 -26.5q37 0 69.5 13t53 34t32 36.5t18.5 29.5z" />
    <glyph glyph-name="b" unicode="b" horiz-adv-x="576" 
d="M313 525q43 0 82.5 -16t73.5 -47t54 -83.5t20 -118.5q0 -130 -69 -198.5t-163 -68.5q-62 0 -107 31.5t-66 80.5v-105h-80v706h80v-283q23 48 69.5 75t105.5 27zM299 60q71 0 118.5 51t47.5 149t-47.5 148t-118.5 50q-70 0 -117.5 -50t-47.5 -148q0 -96 48 -148t117 -52z
" />
    <glyph glyph-name="c" unicode="c" horiz-adv-x="523" 
d="M277 60q108 0 142 97h74q-21 -87 -79.5 -125.5t-137.5 -38.5q-99 0 -171 68t-72 198t71.5 198t170.5 68q174 0 214 -160h-74q-34 94 -139 94q-71 0 -118.5 -51.5t-47.5 -148.5t47.5 -148t119.5 -51z" />
    <glyph glyph-name="d" unicode="d" horiz-adv-x="576" 
d="M263 525q59 0 105.5 -27t69.5 -75v283h80v-706h-80v105q-21 -49 -66 -80.5t-107 -31.5q-94 0 -163 68.5t-69 198.5q0 66 20 118.5t54 83.5t73.5 47t82.5 16zM277 60q69 0 117 52t48 148q0 98 -47.5 148t-117.5 50q-71 0 -118.5 -50t-47.5 -148t47.5 -149t118.5 -51z" />
    <glyph glyph-name="e" unicode="e" horiz-adv-x="539" 
d="M507 256q0 -16 -1 -25h-395q7 -89 51.5 -132.5t117.5 -43.5q49 0 80.5 14t54.5 47h74q-59 -123 -213 -123q-104 0 -173.5 68t-69.5 198q0 129 70.5 197.5t171.5 68.5t166.5 -68.5t65.5 -200.5zM111 286h319q-1 85 -43 131t-112 46q-68 0 -112.5 -45t-51.5 -132z" />
    <glyph glyph-name="f" unicode="f" horiz-adv-x="325" 
d="M245 652q-38 0 -55.5 -18t-17.5 -61v-53h127v-64h-127v-456h-80v456h-72v64h72v54q0 83 38 112.5t99 29.5q46 0 76 -11v-60q-26 7 -60 7z" />
    <glyph glyph-name="g" unicode="g" horiz-adv-x="574" 
d="M437 521h80v-518q0 -52 -15 -92.5t-38.5 -64.5t-56 -39.5t-63.5 -21t-66 -5.5q-74 0 -131.5 27t-83.5 73l52 33q51 -66 156 -66q166 0 166 156v102q-21 -49 -66 -80t-108 -31q-93 0 -161.5 68.5t-68.5 197.5t69 197t160 68q58 0 104.5 -27t70.5 -75v98zM277 61
q69 0 116.5 51.5t47.5 147.5q0 98 -47 148.5t-117 50.5t-117.5 -50.5t-47.5 -148.5t47.5 -148.5t117.5 -50.5z" />
    <glyph glyph-name="h" unicode="h" horiz-adv-x="565" 
d="M323 525q185 0 185 -210v-315h-80v312q0 78 -34 111.5t-97 33.5q-66 0 -107.5 -44t-51.5 -91v-322h-80v706h80v-307q12 40 61.5 83t123.5 43z" />
    <glyph glyph-name="i" unicode="i" horiz-adv-x="195" 
d="M58 709h80v-74h-80v74zM58 520h80v-520h-80v520z" />
    <glyph glyph-name="j" unicode="j" horiz-adv-x="211" 
d="M74 709h80v-74h-80v74zM-68 -132q43 -18 78 -18q64 0 64 76v594h80v-601q0 -139 -127 -139q-58 0 -95 21v67z" />
    <glyph glyph-name="k" unicode="k" horiz-adv-x="539" 
d="M435 0l-211 243l-86 -89v-154h-80v706h80v-458l262 272h94l-219 -225l251 -295h-91z" />
    <glyph glyph-name="l" unicode="l" horiz-adv-x="195" 
d="M58 706h80v-706h-80v706z" />
    <glyph glyph-name="m" unicode="m" horiz-adv-x="903" 
d="M668 525q80 0 129 -50.5t49 -161.5v-313h-80v310q0 147 -121 147q-67 0 -110 -47t-43 -94v-316h-80v310q0 147 -121 147q-65 0 -105 -44.5t-48 -91.5v-321h-80v520h80v-121q10 40 58 83t119 43q135 0 168 -126q17 48 67 87t118 39z" />
    <glyph glyph-name="n" unicode="n" horiz-adv-x="565" 
d="M323 525q185 0 185 -210v-315h-80v312q0 78 -34 111.5t-97 33.5q-66 0 -107.5 -44t-51.5 -91v-322h-80v520h80v-121q12 40 61.5 83t123.5 43z" />
    <glyph glyph-name="o" unicode="o" horiz-adv-x="548" 
d="M274 525q60 0 113.5 -27t91 -89t37.5 -149q0 -88 -37.5 -150.5t-91 -89.5t-113.5 -27q-96 0 -168.5 69t-72.5 198q0 66 21.5 118t56.5 83.5t77 47.5t86 16zM438 260q0 97 -47.5 147.5t-116.5 50.5t-116.5 -50.5t-47.5 -147.5q0 -98 47.5 -149t116.5 -51t116.5 51
t47.5 149z" />
    <glyph glyph-name="p" unicode="p" horiz-adv-x="576" 
d="M313 525q91 0 160.5 -68.5t69.5 -196.5q0 -130 -69.5 -198.5t-162.5 -68.5q-63 0 -107.5 31t-65.5 80v-294h-80v710h80v-98q23 48 69.5 75.5t105.5 27.5zM298 60q71 0 119 51t48 149t-48 148t-119 50q-70 0 -117 -50t-47 -148q0 -96 47.5 -148t116.5 -52z" />
    <glyph glyph-name="q" unicode="q" horiz-adv-x="576" 
d="M263 525q59 0 105.5 -27.5t69.5 -75.5v98h80v-710h-80v294q-21 -49 -65.5 -80t-107.5 -31q-93 0 -162.5 68.5t-69.5 198.5q0 128 69.5 196.5t160.5 68.5zM278 60q69 0 116.5 52t47.5 148q0 98 -47 148t-117 50q-71 0 -119 -50t-48 -148t48 -149t119 -51z" />
    <glyph glyph-name="r" unicode="r" horiz-adv-x="380" 
d="M316 525q22 0 37 -2v-71q-15 1 -31 1q-78 0 -124.5 -39.5t-59.5 -109.5v-304h-80v520h80v-126q14 56 60.5 93.5t117.5 37.5z" />
    <glyph glyph-name="s" unicode="s" horiz-adv-x="480" 
d="M367 387q-25 76 -128 76q-55 0 -86 -23t-31 -59q0 -31 21 -50t69 -30l84 -20q84 -19 120 -45.5t36 -92.5q0 -75 -59.5 -112.5t-149.5 -37.5t-148 39.5t-67 119.5h75q20 -96 141 -96q56 0 92 22.5t36 65.5q0 36 -21.5 52t-70.5 28l-91 21q-73 17 -108 50.5t-35 87.5
q0 66 52.5 104t140.5 38q82 0 134 -35.5t68 -102.5h-74z" />
    <glyph glyph-name="t" unicode="t" horiz-adv-x="319" 
d="M230 59q28 0 57 8v-61q-33 -12 -81 -12q-108 0 -108 101v361h-80v64h80v130h80v-130h101v-64h-101v-353q0 -44 52 -44z" />
    <glyph glyph-name="u" unicode="u" horiz-adv-x="560" 
d="M423 520h80v-520h-80v121q-12 -40 -61.5 -84t-123.5 -44q-185 0 -185 212v315h80v-313q0 -146 131 -146q66 0 107 44t52 92v323z" />
    <glyph glyph-name="v" unicode="v" horiz-adv-x="549" 
d="M320 0h-90l-207 520h80l172 -442l172 442h80z" />
    <glyph glyph-name="w" unicode="w" horiz-adv-x="803" 
d="M781 520l-155 -520h-74l-150 422l-151 -422h-74l-154 520h81l119 -421l146 421h65l147 -421l119 421h81z" />
    <glyph glyph-name="x" unicode="x" horiz-adv-x="525" 
d="M498 0h-90l-145 209l-146 -209h-89l191 268l-181 252h89l136 -192l135 192h89l-180 -252z" />
    <glyph glyph-name="y" unicode="y" 
d="M431 520h82l-224 -558q-36 -90 -85.5 -125t-124.5 -26v70q99 -13 138 84q14 36 4 60l-198 495h83l161 -428z" />
    <glyph glyph-name="z" unicode="z" horiz-adv-x="498" 
d="M135 69h323v-69h-418v69l323 383h-313v68h408v-68z" />
    <glyph glyph-name="braceleft" unicode="{" horiz-adv-x="285" 
d="M170 374l-45 -68l45 -66v-267q0 -33 35 -33h35v-70h-64q-36 0 -61 22t-25 65v278l-45 71l45 73v279q0 43 25 65t61 22h64v-70h-35q-35 0 -35 -33v-268z" />
    <glyph glyph-name="bar" unicode="|" horiz-adv-x="220" 
d="M75 800h70v-990h-70v990z" />
    <glyph glyph-name="braceright" unicode="}" horiz-adv-x="285" 
d="M115 374v268q0 33 -35 33h-35v70h64q36 0 61 -22t25 -65v-279l45 -73l-45 -71v-278q0 -43 -25 -65t-61 -22h-64v70h35q35 0 35 33v267l45 66z" />
    <glyph glyph-name="asciitilde" unicode="~" horiz-adv-x="469" 
d="M379 327h40q0 -48 -29.5 -77t-74.5 -29q-39 0 -89 38.5t-81 38.5q-26 0 -41 -14t-14 -31h-40q0 48 29.5 77t75.5 29q32 0 60.5 -19.5l55.5 -38.5t54 -19q26 0 40.5 14t13.5 31z" />
    <glyph glyph-name="exclamdown" unicode="&#xa1;" horiz-adv-x="191" 
d="M58 418v102h96v-102h-96zM144 325l3 -505h-82l2 505h77z" />
    <glyph glyph-name="cent" unicode="&#xa2;" horiz-adv-x="523" 
d="M493 229q-20 -81 -74.5 -119.5t-129.5 -41.5v-108h-37v109q-92 8 -155.5 74.5t-63.5 185.5t63.5 185.5t155.5 74.5v111h37v-110q161 -7 200 -157h-74q-33 86 -126 92v-391q97 4 130 95h74zM110 329q0 -86 40 -135.5t102 -57.5v387q-62 -8 -102 -57.5t-40 -136.5z" />
    <glyph glyph-name="sterling" unicode="&#xa3;" horiz-adv-x="541" 
d="M496 480h-75v18q0 64 -39 101.5t-104 37.5t-103.5 -35t-38.5 -94q0 -22 6.5 -46.5t12.5 -38.5t20 -43l18 -37h135v-49h-116q6 -21 6 -44q0 -101 -93 -190q55 21 121 15.5t114.5 -15t127.5 9.5v-70q-52 -13 -107.5 -10t-98 13.5t-95.5 9t-100 -22.5l-41 54q96 101 95 195
q0 24 -9 55h-87v49h66l-10 20t-11 22.5l-9.5 20.5t-9.5 25t-6 23.5t-5.5 28t-1.5 28.5q0 89 61.5 142.5t158.5 53.5q94 0 156 -56.5t62 -152.5v-18z" />
    <glyph glyph-name="currency" unicode="&#xa4;" horiz-adv-x="565" 
d="M506 476q0 -68 -38 -125l46 -45l-53 -52l-44 43q-59 -45 -135 -45q-74 0 -135 45l-43 -43l-53 52l45 45q-38 57 -38 125t39 127l-46 46l53 52l45 -44q59 43 133 43q75 0 133 -44l46 45l53 -52l-47 -46q39 -56 39 -127zM282 320q67 0 112 48t45 108t-45 108.5t-112 48.5
q-68 0 -112.5 -48.5t-44.5 -108.5q0 -61 44.5 -108.5t112.5 -47.5z" />
    <glyph glyph-name="yen" unicode="&#xa5;" horiz-adv-x="652" 
d="M369 274v-1h132v-50h-132v-52h132v-50h-132v-121h-85v121h-131v50h131v52h-131v50h131v1l-256 426h93l205 -345l205 345h94z" />
    <glyph glyph-name="brokenbar" unicode="&#xa6;" horiz-adv-x="220" 
d="M75 800h70v-280h-70v280zM75 90h70v-280h-70v280z" />
    <glyph glyph-name="section" unicode="&#xa7;" horiz-adv-x="636" 
d="M586 186q0 -71 -43 -117q33 -46 33 -110q0 -94 -69.5 -144.5t-192.5 -50.5q-121 0 -187 54.5t-77 151.5h88q21 -132 177 -132q87 0 130 32t43 89t-34.5 87t-97.5 43l-101 21q-187 40 -187 187q0 71 47 118q-37 45 -37 110q0 83 62.5 133t177.5 50q111 0 172 -47t72 -133
h-86q-17 106 -158 106q-79 0 -115.5 -31t-36.5 -80q0 -90 115 -115l94 -20q104 -22 157.5 -69t53.5 -133zM365 160q68 -14 114 -39q19 26 19 66q0 102 -132 130l-101 21q-47 11 -83 27q-26 -27 -26 -70q0 -90 115 -115z" />
    <glyph glyph-name="dieresis" unicode="&#xa8;" horiz-adv-x="297" 
d="M0 709h84v-90h-84v90zM214 709h83v-90h-83v90z" />
    <glyph glyph-name="copyright" unicode="&#xa9;" horiz-adv-x="799" 
d="M400 -7q-150 0 -253.5 101.5t-103.5 255.5q0 153 104 254.5t253 101.5t253 -101.5t104 -254.5q0 -154 -103.5 -255.5t-253.5 -101.5zM400 44q129 0 217.5 86.5t88.5 219.5q0 132 -89 218.5t-217 86.5t-217 -86.5t-89 -218.5q0 -133 88.5 -219.5t217.5 -86.5zM399 193
q91 0 120 72h58q-20 -66 -68 -96t-110 -30q-82 0 -141 57t-59 154t59 153.5t141 56.5q136 0 177 -124h-59q-30 71 -118 71q-60 0 -101 -41t-41 -116q0 -74 41 -115.5t101 -41.5z" />
    <glyph glyph-name="ordfeminine" unicode="&#xaa;" horiz-adv-x="354" 
d="M310 471q0 -55 22 -87h-54q-19 23 -20 56q-46 -58 -117 -58q-45 0 -76.5 25t-31.5 74q0 84 116 94l102 8q0 39 -18 57t-58 18q-67 0 -78 -42h-52q13 93 132 93q73 0 103 -36t30 -114v-88zM156 433q69 0 95 60v47q-13 -2 -50 -5.5t-49 -4.5q-61 -5 -61 -47q0 -50 65 -50z
" />
    <glyph glyph-name="guillemotleft" unicode="&#xab;" horiz-adv-x="403" 
d="M188 379l-93 -80l93 -80v-78l-148 126v64l148 125v-77zM363 379l-93 -80l93 -80v-78l-148 126v62l148 127v-77z" />
    <glyph glyph-name="logicalnot" unicode="&#xac;" horiz-adv-x="490" 
d="M445 312v-179h-80v115h-320v64h400z" />
    <glyph glyph-name="uni00AD" unicode="&#xad;" horiz-adv-x="355" 
d="M40 311h275v-62h-275v62z" />
    <glyph glyph-name="registered" unicode="&#xae;" horiz-adv-x="799" 
d="M400 -7q-150 0 -253.5 101.5t-103.5 255.5q0 153 104 254.5t253 101.5t253 -101.5t104 -254.5q0 -154 -103.5 -255.5t-253.5 -101.5zM400 44q129 0 217.5 86.5t88.5 219.5q0 132 -89 218.5t-217 86.5t-217 -86.5t-89 -218.5q0 -133 88.5 -219.5t217.5 -86.5zM542 220
q0 -54 12 -68h-54q-10 13 -10 70v28q0 37 -18.5 50t-49.5 13h-110v-161h-50v396h149q131 0 131 -111q0 -76 -72 -101q38 -7 55 -27t17 -58v-31zM415 355q78 0 78 79q0 72 -82 72h-99v-151h103z" />
    <glyph glyph-name="macron" unicode="&#xaf;" horiz-adv-x="307" 
d="M0 709h307v-50h-307v50z" />
    <glyph glyph-name="degree" unicode="&#xb0;" horiz-adv-x="384" 
d="M192 426q-61 0 -104 43t-43 104t43 103.5t104 42.5t104 -42.5t43 -103.5t-43 -104t-104 -43zM192 487q38 0 62 26t24 60t-24 59.5t-62 25.5q-37 0 -61 -25.5t-24 -59.5q0 -35 23.5 -60.5t61.5 -25.5z" />
    <glyph glyph-name="plusminus" unicode="&#xb1;" horiz-adv-x="518" 
d="M296 398h177v-71h-177v-178h-75v178h-176v71h176v176h75v-176zM100 -17v62h298v-62h-298z" />
    <glyph glyph-name="uni00B2" unicode="&#xb2;" horiz-adv-x="254" 
d="M40 440v9q0 37 16.5 64.5t57.5 53.5l31.5 19.5t16.5 17t8 26.5q0 19 -13 31t-34 12t-34 -13t-13 -36v-7h-36v7q0 37 22 59t61 22t61 -21t22 -54q0 -29 -18 -48.5t-57 -42.5q-52 -31 -52 -64v-3h130v-32h-169z" />
    <glyph glyph-name="uni00B3" unicode="&#xb3;" horiz-adv-x="264" 
d="M166 579q23 -4 40.5 -20.5t17.5 -45.5q0 -34 -24.5 -55.5t-70.5 -21.5q-44 0 -69 23.5t-25 61.5h35q1 -54 61 -54q26 0 42 12.5t16 36.5q0 47 -65 47h-11v27h11q27 0 40.5 13t13.5 31t-13 29t-36 11q-52 0 -52 -51h-33q0 39 23 60.5t62 21.5q38 0 60.5 -19.5t22.5 -49.5
q0 -44 -46 -57z" />
    <glyph glyph-name="acute" unicode="&#xb4;" horiz-adv-x="176" 
d="M0 581h70l106 128h-88z" />
    <glyph glyph-name="uni00B5" unicode="&#xb5;" horiz-adv-x="560" 
d="M423 520h80v-520h-80v121q-12 -40 -61.5 -84t-123.5 -44q-62 0 -105 26v-209h-80v710h80v-313q0 -146 131 -146q66 0 107 44t52 92v323z" />
    <glyph glyph-name="paragraph" unicode="&#xb6;" horiz-adv-x="593" 
d="M535 700v-920h-66v867h-87v-867h-72v526h-69q-97 0 -152.5 55.5t-55.5 140.5q0 87 55.5 142.5t152.5 55.5h294z" />
    <glyph glyph-name="periodcentered" unicode="&#xb7;" horiz-adv-x="196" 
d="M50 336h96v-102h-96v102z" />
    <glyph glyph-name="cedilla" unicode="&#xb8;" horiz-adv-x="160" 
d="M67 -55q36 4 64.5 -16.5t28.5 -58.5q0 -93 -155 -93v37q92 3 92 54q0 27 -23.5 35.5t-52.5 -7.5l-21 32l46 73h72z" />
    <glyph glyph-name="uni00B9" unicode="&#xb9;" horiz-adv-x="168" 
d="M128 701v-261h-34v214q-15 -26 -54 -21v32q18 -1 33 10t21 26h34z" />
    <glyph glyph-name="ordmasculine" unicode="&#xba;" horiz-adv-x="378" 
d="M189 708q62 0 109.5 -44t47.5 -119q0 -76 -47.5 -121t-109.5 -45t-109 44.5t-47 121.5q0 75 47 119t109 44zM286 545q0 51 -28 79.5t-69 28.5t-69 -28.5t-28 -79.5q0 -52 28 -81t69 -29t69 29t28 81z" />
    <glyph glyph-name="guillemotright" unicode="&#xbb;" horiz-adv-x="388" 
d="M30 379v77l148 -127v-62l-148 -126v78l93 80zM205 379v77l148 -125v-64l-148 -126v78l93 80z" />
    <glyph glyph-name="onequarter" unicode="&#xbc;" horiz-adv-x="593" 
d="M128 701v-261h-34v214q-15 -26 -54 -21v32q18 -1 33 10t21 26h34zM91 0h-44l436 700h44zM543 66h-30v-66h-34v66h-119v28l119 167h34v-167h30v-28zM479 94v123l-87 -123h87z" />
    <glyph glyph-name="onehalf" unicode="&#xbd;" horiz-adv-x="580" 
d="M125 701v-261h-34v214q-15 -26 -54 -21v32q18 -1 33 10t21 26h34zM97 0h-44l436 700h44zM367 0v9q0 37 16.5 64.5t57.5 53.5l31.5 19.5t16.5 17t8 26.5q0 19 -13 31t-34 12t-34 -13t-13 -36v-7h-36v7q0 37 22 59t61 22t61 -21t22 -54q0 -29 -18 -48.5t-57 -42.5
q-52 -31 -52 -64v-3h130v-32h-169z" />
    <glyph glyph-name="threequarters" unicode="&#xbe;" horiz-adv-x="627" 
d="M171 579q23 -4 40.5 -20.5t17.5 -45.5q0 -34 -24.5 -55.5t-70.5 -21.5q-44 0 -69 23.5t-25 61.5h35q1 -54 61 -54q26 0 42 12.5t16 36.5q0 47 -65 47h-11v27h11q27 0 40.5 13t13.5 31t-13 29t-36 11q-52 0 -52 -51h-33q0 39 23 60.5t62 21.5q38 0 60.5 -19.5t22.5 -49.5
q0 -44 -46 -57zM132 0h-44l436 700h44zM564 66h-30v-66h-34v66h-119v28l119 167h34v-167h30v-28zM500 94v123l-87 -123h87z" />
    <glyph glyph-name="questiondown" unicode="&#xbf;" horiz-adv-x="524" 
d="M304 418h-96v102h96v-102zM259 -187q99 0 160 57.5t60 166.5h-80q0 -75 -37.5 -114.5t-102.5 -39.5q-62 0 -98 32t-36 89q0 33 18 58.5t43.5 44t51 39.5t43.5 55.5t18 80.5v43h-85v-43q0 -38 -17.5 -66.5t-42 -47l-49.5 -38t-42.5 -51t-17.5 -75.5q0 -91 59.5 -141
t154.5 -50z" />
    <glyph glyph-name="Agrave" unicode="&#xc0;" horiz-adv-x="685" 
d="M394 761h-70l-106 128h88zM568 0l-68 179h-314l-68 -179h-90l278 700h73l279 -700h-90zM210 243h266l-133 349z" />
    <glyph glyph-name="Aacute" unicode="&#xc1;" horiz-adv-x="685" 
d="M465 889l-106 -128h-70l88 128h88zM568 0l-68 179h-314l-68 -179h-90l278 700h73l279 -700h-90zM210 243h266l-133 349z" />
    <glyph glyph-name="Acircumflex" unicode="&#xc2;" horiz-adv-x="685" 
d="M343 848l-95 -89h-65l90 130h140l89 -130h-64zM568 0l-68 179h-314l-68 -179h-90l278 700h73l279 -700h-90zM210 243h266l-133 349z" />
    <glyph glyph-name="Atilde" unicode="&#xc3;" horiz-adv-x="685" 
d="M257 852q-25 0 -39 -13t-13 -29h-39q0 46 28 73t72 27q37 0 85 -36t77 -36q25 0 39 13t13 29h38q0 -46 -28 -73t-72 -27q-37 0 -84.5 36t-76.5 36zM568 0l-68 179h-314l-68 -179h-90l278 700h73l279 -700h-90zM210 243h266l-133 349z" />
    <glyph glyph-name="Adieresis" unicode="&#xc4;" horiz-adv-x="685" 
d="M278 889v-90h-84v90h84zM491 889v-90h-83v90h83zM568 0l-68 179h-314l-68 -179h-90l278 700h73l279 -700h-90zM210 243h266l-133 349z" />
    <glyph glyph-name="Aring" unicode="&#xc5;" horiz-adv-x="685" 
d="M343 761q-36 0 -61.5 25t-25.5 60t25.5 60.5t61.5 25.5q37 0 62 -25t25 -61q0 -35 -25 -60t-62 -25zM343 892q-20 0 -33 -13t-13 -33t13.5 -33t32.5 -13q20 0 33.5 13.5t13.5 32.5q0 20 -13.5 33t-33.5 13zM568 0l-68 179h-314l-68 -179h-90l278 700h73l279 -700h-90z
M210 243h266l-133 349z" />
    <glyph glyph-name="AE" unicode="&#xc6;" horiz-adv-x="1001" 
d="M591 74h381v-74h-464v179h-270l-122 -179h-88l479 700h455v-73h-371v-233h321v-68h-321v-252zM284 246h224v328z" />
    <glyph glyph-name="Ccedilla" unicode="&#xc7;" horiz-adv-x="652" 
d="M622 178q-18 -82 -83.5 -131t-159.5 -55l-43 -47q36 4 64.5 -16.5t28.5 -58.5q0 -93 -155 -93v37q92 3 92 54q0 27 -23.5 35.5t-52.5 -7.5l-21 32l41 65q-122 14 -194.5 105.5t-72.5 251.5q0 174 85 266.5t223 92.5q104 0 177 -49t92 -137h-85q-42 113 -183 113
q-101 0 -162 -73.5t-61 -212.5q0 -138 61 -211.5t162 -73.5q142 0 186 113h84z" />
    <glyph glyph-name="Egrave" unicode="&#xc8;" horiz-adv-x="552" 
d="M332 761h-70l-106 128h88zM141 74h381v-74h-464v700h454v-73h-371v-233h321v-68h-321v-252z" />
    <glyph glyph-name="Eacute" unicode="&#xc9;" horiz-adv-x="552" 
d="M403 889l-106 -128h-70l88 128h88zM141 74h381v-74h-464v700h454v-73h-371v-233h321v-68h-321v-252z" />
    <glyph glyph-name="Ecircumflex" unicode="&#xca;" horiz-adv-x="552" 
d="M281 848l-95 -89h-65l90 130h140l89 -130h-64zM141 74h381v-74h-464v700h454v-73h-371v-233h321v-68h-321v-252z" />
    <glyph glyph-name="Edieresis" unicode="&#xcb;" horiz-adv-x="552" 
d="M216 889v-90h-84v90h84zM429 889v-90h-83v90h83zM141 74h381v-74h-464v700h454v-73h-371v-233h321v-68h-321v-252z" />
    <glyph glyph-name="Igrave" unicode="&#xcc;" horiz-adv-x="199" 
d="M150 761l-88 128h-88l106 -128h70zM141 0h-83v700h83v-700z" />
    <glyph glyph-name="Iacute" unicode="&#xcd;" horiz-adv-x="199" 
d="M45 761h70l106 128h-88zM141 0h-83v700h83v-700z" />
    <glyph glyph-name="Icircumflex" unicode="&#xce;" horiz-adv-x="199" 
d="M194 759l-95 89l-95 -89h-65l90 130h140l89 -130h-64zM141 0h-83v700h83v-700z" />
    <glyph glyph-name="Idieresis" unicode="&#xcf;" horiz-adv-x="199" 
d="M-50 889h84v-90h-84v90zM164 889h83v-90h-83v90zM141 0h-83v700h83v-700z" />
    <glyph glyph-name="Eth" unicode="&#xd0;" horiz-adv-x="680" 
d="M303 700q168 0 254 -90t86 -260q0 -169 -86 -259.5t-254 -90.5h-222v317h-61v62h61v321h222zM296 74q136 0 199.5 67.5t63.5 208.5t-63.5 209t-199.5 68h-132v-248h131v-62h-131v-243h132z" />
    <glyph glyph-name="Ntilde" unicode="&#xd1;" horiz-adv-x="662" 
d="M469 880h38q0 -46 -28 -73t-72 -27q-37 0 -84.5 36t-76.5 36q-25 0 -39 -13t-13 -29h-39q0 46 28 73t72 27q37 0 85 -36t77 -36q25 0 39 13t13 29zM605 700v-700h-94l-367 569h-3v-569h-83v700h91l370 -572h2v572h84z" />
    <glyph glyph-name="Ograve" unicode="&#xd2;" horiz-adv-x="715" 
d="M409 761l-88 128h-88l106 -128h70zM358 709q142 0 228.5 -93t86.5 -266q0 -172 -86.5 -265.5t-228.5 -93.5q-143 0 -229 93t-86 266t86 266t229 93zM358 65q106 0 167 72.5t61 212.5t-61 213t-167 73t-167.5 -73t-61.5 -213t61.5 -212.5t167.5 -72.5z" />
    <glyph glyph-name="Oacute" unicode="&#xd3;" horiz-adv-x="715" 
d="M304 761h70l106 128h-88zM358 709q142 0 228.5 -93t86.5 -266q0 -172 -86.5 -265.5t-228.5 -93.5q-143 0 -229 93t-86 266t86 266t229 93zM358 65q106 0 167 72.5t61 212.5t-61 213t-167 73t-167.5 -73t-61.5 -213t61.5 -212.5t167.5 -72.5z" />
    <glyph glyph-name="Ocircumflex" unicode="&#xd4;" horiz-adv-x="715" 
d="M453 759l-95 89l-95 -89h-65l90 130h140l89 -130h-64zM358 709q142 0 228.5 -93t86.5 -266q0 -172 -86.5 -265.5t-228.5 -93.5q-143 0 -229 93t-86 266t86 266t229 93zM358 65q106 0 167 72.5t61 212.5t-61 213t-167 73t-167.5 -73t-61.5 -213t61.5 -212.5t167.5 -72.5z
" />
    <glyph glyph-name="Otilde" unicode="&#xd5;" horiz-adv-x="715" 
d="M495 880h38q0 -46 -28 -73t-72 -27q-37 0 -84.5 36t-76.5 36q-25 0 -39 -13t-13 -29h-39q0 46 28 73t72 27q37 0 85 -36t77 -36q25 0 39 13t13 29zM358 709q142 0 228.5 -93t86.5 -266q0 -172 -86.5 -265.5t-228.5 -93.5q-143 0 -229 93t-86 266t86 266t229 93zM358 65
q106 0 167 72.5t61 212.5t-61 213t-167 73t-167.5 -73t-61.5 -213t61.5 -212.5t167.5 -72.5z" />
    <glyph glyph-name="Odieresis" unicode="&#xd6;" horiz-adv-x="715" 
d="M209 889h84v-90h-84v90zM423 889h83v-90h-83v90zM358 709q142 0 228.5 -93t86.5 -266q0 -172 -86.5 -265.5t-228.5 -93.5q-143 0 -229 93t-86 266t86 266t229 93zM358 65q106 0 167 72.5t61 212.5t-61 213t-167 73t-167.5 -73t-61.5 -213t61.5 -212.5t167.5 -72.5z" />
    <glyph glyph-name="multiply" unicode="&#xd7;" horiz-adv-x="444" 
d="M398 384l-125 -125l125 -125l-50 -50l-125 125l-126 -125l-53 53l126 125l-125 125l51 50l124 -124l125 124z" />
    <glyph glyph-name="Oslash" unicode="&#xd8;" horiz-adv-x="715" 
d="M536 660q137 -92 137 -310q0 -172 -86.5 -265.5t-228.5 -93.5q-72 0 -130 24l-31 -65h-87l50 105q-117 95 -117 295q0 173 86 266t229 93q59 0 107 -16l25 52h87zM129 350q0 -144 67 -219l237 494q-36 11 -75 11q-106 0 -167.5 -73t-61.5 -213zM358 65q106 0 167 72.5
t61 212.5q0 164 -84 237l-241 -503q42 -19 97 -19z" />
    <glyph glyph-name="Ugrave" unicode="&#xd9;" horiz-adv-x="654" 
d="M375 761l-88 128h-88l106 -128h70zM596 266q0 -129 -72.5 -202t-196.5 -73q-125 0 -197 73t-72 202v434h83v-430q0 -98 49 -151.5t137 -53.5t137 53.5t49 151.5v430h83v-434z" />
    <glyph glyph-name="Uacute" unicode="&#xda;" horiz-adv-x="654" 
d="M270 761h70l106 128h-88zM596 266q0 -129 -72.5 -202t-196.5 -73q-125 0 -197 73t-72 202v434h83v-430q0 -98 49 -151.5t137 -53.5t137 53.5t49 151.5v430h83v-434z" />
    <glyph glyph-name="Ucircumflex" unicode="&#xdb;" horiz-adv-x="654" 
d="M419 759l-95 89l-95 -89h-65l90 130h140l89 -130h-64zM596 266q0 -129 -72.5 -202t-196.5 -73q-125 0 -197 73t-72 202v434h83v-430q0 -98 49 -151.5t137 -53.5t137 53.5t49 151.5v430h83v-434z" />
    <glyph glyph-name="Udieresis" unicode="&#xdc;" horiz-adv-x="654" 
d="M175 889h84v-90h-84v90zM389 889h83v-90h-83v90zM596 266q0 -129 -72.5 -202t-196.5 -73q-125 0 -197 73t-72 202v434h83v-430q0 -98 49 -151.5t137 -53.5t137 53.5t49 151.5v430h83v-434z" />
    <glyph glyph-name="Yacute" unicode="&#xdd;" horiz-adv-x="652" 
d="M272 761h70l106 128h-88zM369 274v-274h-85v274l-256 426h93l205 -345l205 345h94z" />
    <glyph glyph-name="Thorn" unicode="&#xde;" horiz-adv-x="597" 
d="M308 565q124 0 190.5 -56t66.5 -157q0 -213 -257 -213h-170v-139h-80v700h80v-135h170zM310 209q175 0 175 143q0 70 -46 106.5t-129 36.5h-172v-286h172z" />
    <glyph glyph-name="germandbls" unicode="&#xdf;" horiz-adv-x="593" 
d="M393 384q71 -13 112 -61.5t41 -116.5q0 -206 -264 -206h-61v70h62q183 0 183 138q0 69 -51 103.5t-137 34.5h-57v64h57q74 0 109 27.5t35 85.5q0 52 -37.5 79.5t-103.5 27.5q-75 0 -109 -30t-34 -97v-503h-80v503q0 197 220 197q105 0 164.5 -44t59.5 -130
q0 -58 -28.5 -94.5t-80.5 -47.5z" />
    <glyph glyph-name="agrave" unicode="&#xe0;" 
d="M317 581h-70l-106 128h88zM474 90q0 -21 8.5 -30.5t29.5 -8.5v-49q-13 -6 -33 -6q-78 0 -78 74v37q-7 -14 -20 -30t-36 -37t-60.5 -34t-81.5 -13q-76 0 -123 40t-47 115q0 67 44.5 102.5t138.5 50.5q146 21 178 38v7q0 65 -31 91.5t-95 26.5q-113 0 -127 -78h-76
q8 69 60.5 104t143.5 35q106 0 155.5 -46t49.5 -152v-237zM394 166v122q-27 -15 -168 -39q-62 -10 -87.5 -33.5t-25.5 -65.5q0 -44 28.5 -70.5t79.5 -26.5q37 0 69.5 13t53 34t32 36.5t18.5 29.5z" />
    <glyph glyph-name="aacute" unicode="&#xe1;" 
d="M388 709l-106 -128h-70l88 128h88zM474 90q0 -21 8.5 -30.5t29.5 -8.5v-49q-13 -6 -33 -6q-78 0 -78 74v37q-7 -14 -20 -30t-36 -37t-60.5 -34t-81.5 -13q-76 0 -123 40t-47 115q0 67 44.5 102.5t138.5 50.5q146 21 178 38v7q0 65 -31 91.5t-95 26.5q-113 0 -127 -78h-76
q8 69 60.5 104t143.5 35q106 0 155.5 -46t49.5 -152v-237zM394 166v122q-27 -15 -168 -39q-62 -10 -87.5 -33.5t-25.5 -65.5q0 -44 28.5 -70.5t79.5 -26.5q37 0 69.5 13t53 34t32 36.5t18.5 29.5z" />
    <glyph glyph-name="acircumflex" unicode="&#xe2;" 
d="M266 668l-95 -89h-65l90 130h140l89 -130h-64zM474 90q0 -21 8.5 -30.5t29.5 -8.5v-49q-13 -6 -33 -6q-78 0 -78 74v37q-7 -14 -20 -30t-36 -37t-60.5 -34t-81.5 -13q-76 0 -123 40t-47 115q0 67 44.5 102.5t138.5 50.5q146 21 178 38v7q0 65 -31 91.5t-95 26.5
q-113 0 -127 -78h-76q8 69 60.5 104t143.5 35q106 0 155.5 -46t49.5 -152v-237zM394 166v122q-27 -15 -168 -39q-62 -10 -87.5 -33.5t-25.5 -65.5q0 -44 28.5 -70.5t79.5 -26.5q37 0 69.5 13t53 34t32 36.5t18.5 29.5z" />
    <glyph glyph-name="atilde" unicode="&#xe3;" 
d="M180 672q-25 0 -39 -13t-13 -29h-39q0 46 28 73t72 27q37 0 85 -36t77 -36q25 0 39 13t13 29h38q0 -46 -28 -73t-72 -27q-37 0 -84.5 36t-76.5 36zM474 90q0 -21 8.5 -30.5t29.5 -8.5v-49q-13 -6 -33 -6q-78 0 -78 74v37q-7 -14 -20 -30t-36 -37t-60.5 -34t-81.5 -13
q-76 0 -123 40t-47 115q0 67 44.5 102.5t138.5 50.5q146 21 178 38v7q0 65 -31 91.5t-95 26.5q-113 0 -127 -78h-76q8 69 60.5 104t143.5 35q106 0 155.5 -46t49.5 -152v-237zM394 166v122q-27 -15 -168 -39q-62 -10 -87.5 -33.5t-25.5 -65.5q0 -44 28.5 -70.5t79.5 -26.5
q37 0 69.5 13t53 34t32 36.5t18.5 29.5z" />
    <glyph glyph-name="adieresis" unicode="&#xe4;" 
d="M201 709v-90h-84v90h84zM414 709v-90h-83v90h83zM474 90q0 -21 8.5 -30.5t29.5 -8.5v-49q-13 -6 -33 -6q-78 0 -78 74v37q-7 -14 -20 -30t-36 -37t-60.5 -34t-81.5 -13q-76 0 -123 40t-47 115q0 67 44.5 102.5t138.5 50.5q146 21 178 38v7q0 65 -31 91.5t-95 26.5
q-113 0 -127 -78h-76q8 69 60.5 104t143.5 35q106 0 155.5 -46t49.5 -152v-237zM394 166v122q-27 -15 -168 -39q-62 -10 -87.5 -33.5t-25.5 -65.5q0 -44 28.5 -70.5t79.5 -26.5q37 0 69.5 13t53 34t32 36.5t18.5 29.5z" />
    <glyph glyph-name="aring" unicode="&#xe5;" 
d="M266 581q-36 0 -61.5 25t-25.5 60t25.5 60.5t61.5 25.5t61.5 -25t25.5 -61q0 -35 -25 -60t-62 -25zM266 712q-20 0 -33 -13t-13 -33t13 -33t33 -13t33.5 13.5t13.5 32.5q0 20 -13.5 33t-33.5 13zM474 90q0 -21 8.5 -30.5t29.5 -8.5v-49q-13 -6 -33 -6q-78 0 -78 74v37
q-7 -14 -20 -30t-36 -37t-60.5 -34t-81.5 -13q-76 0 -123 40t-47 115q0 67 44.5 102.5t138.5 50.5q146 21 178 38v7q0 65 -31 91.5t-95 26.5q-113 0 -127 -78h-76q8 69 60.5 104t143.5 35q106 0 155.5 -46t49.5 -152v-237zM394 166v122q-27 -15 -168 -39
q-62 -10 -87.5 -33.5t-25.5 -65.5q0 -44 28.5 -70.5t79.5 -26.5q37 0 69.5 13t53 34t32 36.5t18.5 29.5z" />
    <glyph glyph-name="ae" unicode="&#xe6;" horiz-adv-x="901" 
d="M869 256q0 -16 -1 -25h-395q7 -89 51.5 -132.5t117.5 -43.5q49 0 80.5 14t54.5 47h74q-59 -123 -213 -123q-70 0 -127.5 32.5t-87.5 95.5q-33 -57 -89.5 -92.5t-130.5 -35.5q-75 0 -122.5 39.5t-47.5 110.5q0 131 180 155q7 1 31 4l35.5 4.5t32.5 5t33 6.5t26 7t23 9v12
q0 65 -31 91.5t-96 26.5q-112 0 -126 -75h-76q8 67 60.5 101.5t141.5 34.5q143 0 185 -84q68 84 185 84q101 0 166.5 -68.5t65.5 -200.5zM473 286h319q-1 85 -43 131t-112 46q-68 0 -112.5 -45t-51.5 -132zM394 163v118q-29 -15 -174 -36q-107 -17 -107 -99q0 -41 29 -67
t79 -26q37 0 69.5 13t53 32.5t32 35t18.5 29.5z" />
    <glyph glyph-name="ccedilla" unicode="&#xe7;" horiz-adv-x="523" 
d="M493 157q-36 -149 -187 -163l-45 -49q36 4 64.5 -16.5t28.5 -58.5q0 -93 -155 -93v37q92 3 92 54q0 27 -23.5 35.5t-52.5 -7.5l-21 32l43 68q-87 13 -145.5 79.5t-58.5 183.5q0 130 71.5 198t170.5 68q174 0 214 -160h-74q-34 94 -139 94q-71 0 -118.5 -51.5
t-47.5 -148.5t47.5 -148t119.5 -51q108 0 142 97h74z" />
    <glyph glyph-name="egrave" unicode="&#xe8;" horiz-adv-x="539" 
d="M324 581h-70l-106 128h88zM507 256q0 -16 -1 -25h-395q7 -89 51.5 -132.5t117.5 -43.5q49 0 80.5 14t54.5 47h74q-59 -123 -213 -123q-104 0 -173.5 68t-69.5 198q0 129 70.5 197.5t171.5 68.5t166.5 -68.5t65.5 -200.5zM111 286h319q-1 85 -43 131t-112 46
q-68 0 -112.5 -45t-51.5 -132z" />
    <glyph glyph-name="eacute" unicode="&#xe9;" horiz-adv-x="539" 
d="M395 709l-106 -128h-70l88 128h88zM507 256q0 -16 -1 -25h-395q7 -89 51.5 -132.5t117.5 -43.5q49 0 80.5 14t54.5 47h74q-59 -123 -213 -123q-104 0 -173.5 68t-69.5 198q0 129 70.5 197.5t171.5 68.5t166.5 -68.5t65.5 -200.5zM111 286h319q-1 85 -43 131t-112 46
q-68 0 -112.5 -45t-51.5 -132z" />
    <glyph glyph-name="ecircumflex" unicode="&#xea;" horiz-adv-x="539" 
d="M273 668l-95 -89h-65l90 130h140l89 -130h-64zM507 256q0 -16 -1 -25h-395q7 -89 51.5 -132.5t117.5 -43.5q49 0 80.5 14t54.5 47h74q-59 -123 -213 -123q-104 0 -173.5 68t-69.5 198q0 129 70.5 197.5t171.5 68.5t166.5 -68.5t65.5 -200.5zM111 286h319q-1 85 -43 131
t-112 46q-68 0 -112.5 -45t-51.5 -132z" />
    <glyph glyph-name="edieresis" unicode="&#xeb;" horiz-adv-x="539" 
d="M208 709v-90h-84v90h84zM421 709v-90h-83v90h83zM507 256q0 -16 -1 -25h-395q7 -89 51.5 -132.5t117.5 -43.5q49 0 80.5 14t54.5 47h74q-59 -123 -213 -123q-104 0 -173.5 68t-69.5 198q0 129 70.5 197.5t171.5 68.5t166.5 -68.5t65.5 -200.5zM111 286h319q-1 85 -43 131
t-112 46q-68 0 -112.5 -45t-51.5 -132z" />
    <glyph glyph-name="igrave" unicode="&#xec;" horiz-adv-x="195" 
d="M149 581l-88 128h-88l106 -128h70zM58 520h80v-520h-80v520z" />
    <glyph glyph-name="iacute" unicode="&#xed;" horiz-adv-x="195" 
d="M44 581h70l106 128h-88zM58 520h80v-520h-80v520z" />
    <glyph glyph-name="icircumflex" unicode="&#xee;" horiz-adv-x="195" 
d="M193 579l-95 89l-95 -89h-65l90 130h140l89 -130h-64zM58 520h80v-520h-80v520z" />
    <glyph glyph-name="idieresis" unicode="&#xef;" horiz-adv-x="195" 
d="M-51 709h84v-90h-84v90zM163 709h83v-90h-83v90zM58 520h80v-520h-80v520z" />
    <glyph glyph-name="eth" unicode="&#xf0;" horiz-adv-x="573" 
d="M397 584q70 -94 94.5 -162.5t24.5 -162.5q0 -129 -69.5 -199t-177.5 -70q-100 0 -168 69t-68 193q0 129 61 198.5t168 69.5q83 0 132 -46q-30 51 -67 101l-109 -14v41l80 10q-32 42 -75 88h84l62 -78l97 12v-41zM271 60q71 0 118 49t47 143q0 198 -165 198
q-159 0 -159 -198q0 -94 46 -143t113 -49z" />
    <glyph glyph-name="ntilde" unicode="&#xf1;" horiz-adv-x="565" 
d="M197 672q-25 0 -39 -13t-13 -29h-39q0 46 28 73t72 27q37 0 85 -36t77 -36q25 0 39 13t13 29h38q0 -46 -28 -73t-72 -27q-37 0 -84.5 36t-76.5 36zM323 525q185 0 185 -210v-315h-80v312q0 78 -34 111.5t-97 33.5q-66 0 -107.5 -44t-51.5 -91v-322h-80v520h80v-121
q12 40 61.5 83t123.5 43z" />
    <glyph glyph-name="ograve" unicode="&#xf2;" horiz-adv-x="548" 
d="M325 581l-88 128h-88l106 -128h70zM274 525q60 0 113.5 -27t91 -89t37.5 -149q0 -88 -37.5 -150.5t-91 -89.5t-113.5 -27q-96 0 -168.5 69t-72.5 198q0 66 21.5 118t56.5 83.5t77 47.5t86 16zM438 260q0 97 -47.5 147.5t-116.5 50.5t-116.5 -50.5t-47.5 -147.5
q0 -98 47.5 -149t116.5 -51t116.5 51t47.5 149z" />
    <glyph glyph-name="oacute" unicode="&#xf3;" horiz-adv-x="548" 
d="M220 581h70l106 128h-88zM274 525q60 0 113.5 -27t91 -89t37.5 -149q0 -88 -37.5 -150.5t-91 -89.5t-113.5 -27q-96 0 -168.5 69t-72.5 198q0 66 21.5 118t56.5 83.5t77 47.5t86 16zM438 260q0 97 -47.5 147.5t-116.5 50.5t-116.5 -50.5t-47.5 -147.5q0 -98 47.5 -149
t116.5 -51t116.5 51t47.5 149z" />
    <glyph glyph-name="ocircumflex" unicode="&#xf4;" horiz-adv-x="548" 
d="M369 579l-95 89l-95 -89h-65l90 130h140l89 -130h-64zM274 525q60 0 113.5 -27t91 -89t37.5 -149q0 -88 -37.5 -150.5t-91 -89.5t-113.5 -27q-96 0 -168.5 69t-72.5 198q0 66 21.5 118t56.5 83.5t77 47.5t86 16zM438 260q0 97 -47.5 147.5t-116.5 50.5t-116.5 -50.5
t-47.5 -147.5q0 -98 47.5 -149t116.5 -51t116.5 51t47.5 149z" />
    <glyph glyph-name="otilde" unicode="&#xf5;" horiz-adv-x="548" 
d="M411 700h38q0 -46 -28 -73t-72 -27q-37 0 -84.5 36t-76.5 36q-25 0 -39 -13t-13 -29h-39q0 46 28 73t72 27q37 0 85 -36t77 -36q25 0 39 13t13 29zM274 525q60 0 113.5 -27t91 -89t37.5 -149q0 -88 -37.5 -150.5t-91 -89.5t-113.5 -27q-96 0 -168.5 69t-72.5 198
q0 66 21.5 118t56.5 83.5t77 47.5t86 16zM438 260q0 97 -47.5 147.5t-116.5 50.5t-116.5 -50.5t-47.5 -147.5q0 -98 47.5 -149t116.5 -51t116.5 51t47.5 149z" />
    <glyph glyph-name="odieresis" unicode="&#xf6;" horiz-adv-x="548" 
d="M125 709h84v-90h-84v90zM339 709h83v-90h-83v90zM274 525q60 0 113.5 -27t91 -89t37.5 -149q0 -88 -37.5 -150.5t-91 -89.5t-113.5 -27q-96 0 -168.5 69t-72.5 198q0 66 21.5 118t56.5 83.5t77 47.5t86 16zM438 260q0 97 -47.5 147.5t-116.5 50.5t-116.5 -50.5
t-47.5 -147.5q0 -98 47.5 -149t116.5 -51t116.5 51t47.5 149z" />
    <glyph glyph-name="divide" unicode="&#xf7;" horiz-adv-x="460" 
d="M232 399q-16 0 -27.5 11.5t-11.5 27.5t11.5 27t27.5 11t27 -11t11 -27t-11 -27.5t-27 -11.5zM41 311h298v-62h-298v62zM232 83q-16 0 -27.5 11.5t-11.5 27.5t11.5 27.5t27.5 11.5t27 -11.5t11 -27.5t-11 -27.5t-27 -11.5z" />
    <glyph glyph-name="oslash" unicode="&#xf8;" horiz-adv-x="548" 
d="M413 481q103 -72 103 -221q0 -88 -37.5 -150.5t-91 -89.5t-113.5 -27q-46 0 -88 16l-28 -59h-72l44 91q-97 74 -97 219q0 66 21.5 118t56.5 83.5t77 47.5t86 16q39 0 81 -14l32 67h72zM110 260q0 -99 51 -153l165 343q-27 8 -52 8q-69 0 -116.5 -50.5t-47.5 -147.5z
M274 60q69 0 116.5 51t47.5 149q0 102 -56 156l-166 -345q25 -11 58 -11z" />
    <glyph glyph-name="ugrave" unicode="&#xf9;" horiz-adv-x="560" 
d="M327 581h-70l-106 128h88zM423 520h80v-520h-80v121q-12 -40 -61.5 -84t-123.5 -44q-185 0 -185 212v315h80v-313q0 -146 131 -146q66 0 107 44t52 92v323z" />
    <glyph glyph-name="uacute" unicode="&#xfa;" horiz-adv-x="560" 
d="M398 709l-106 -128h-70l88 128h88zM423 520h80v-520h-80v121q-12 -40 -61.5 -84t-123.5 -44q-185 0 -185 212v315h80v-313q0 -146 131 -146q66 0 107 44t52 92v323z" />
    <glyph glyph-name="ucircumflex" unicode="&#xfb;" horiz-adv-x="560" 
d="M276 668l-95 -89h-65l90 130h140l89 -130h-64zM423 520h80v-520h-80v121q-12 -40 -61.5 -84t-123.5 -44q-185 0 -185 212v315h80v-313q0 -146 131 -146q66 0 107 44t52 92v323z" />
    <glyph glyph-name="udieresis" unicode="&#xfc;" horiz-adv-x="560" 
d="M211 709v-90h-84v90h84zM424 709v-90h-83v90h83zM423 520h80v-520h-80v121q-12 -40 -61.5 -84t-123.5 -44q-185 0 -185 212v315h80v-313q0 -146 131 -146q66 0 107 44t52 92v323z" />
    <glyph glyph-name="yacute" unicode="&#xfd;" 
d="M215 581h70l106 128h-88zM431 520h82l-224 -558q-36 -90 -85.5 -125t-124.5 -26v70q99 -13 138 84q14 36 4 60l-198 495h83l161 -428z" />
    <glyph glyph-name="thorn" unicode="&#xfe;" horiz-adv-x="576" 
d="M313 525q43 0 82.5 -16t73.5 -47t54 -83.5t20 -118.5q0 -130 -69 -198.5t-163 -68.5q-63 0 -107.5 31t-65.5 80v-294h-80v896h80v-283q23 47 67.5 74t102.5 28h1h2h2zM465 258v2v2v1v2v1q0 30 -7 61q0 1 -1 1v1v1v1l-1 1v1q-16 62 -59 93.5t-98 31.5q-70 0 -117.5 -50
t-47.5 -148q0 -96 48 -148t117 -52q56 0 98.5 32.5t59.5 96.5v1v1l1 1v1v1q7 32 7 60v1v2v1z" />
    <glyph glyph-name="ydieresis" unicode="&#xff;" 
d="M120 709h84v-90h-84v90zM334 709h83v-90h-83v90zM431 520h82l-224 -558q-36 -90 -85.5 -125t-124.5 -26v70q99 -13 138 84q14 36 4 60l-198 495h83l161 -428z" />
    <glyph glyph-name="Amacron" unicode="&#x100;" horiz-adv-x="685" 
d="M496 889v-50h-307v50h307zM568 0l-68 179h-314l-68 -179h-90l278 700h73l279 -700h-90zM210 243h266l-133 349z" />
    <glyph glyph-name="amacron" unicode="&#x101;" 
d="M419 709v-50h-307v50h307zM474 90q0 -21 8.5 -30.5t29.5 -8.5v-49q-13 -6 -33 -6q-78 0 -78 74v37q-7 -14 -20 -30t-36 -37t-60.5 -34t-81.5 -13q-76 0 -123 40t-47 115q0 67 44.5 102.5t138.5 50.5q146 21 178 38v7q0 65 -31 91.5t-95 26.5q-113 0 -127 -78h-76
q8 69 60.5 104t143.5 35q106 0 155.5 -46t49.5 -152v-237zM394 166v122q-27 -15 -168 -39q-62 -10 -87.5 -33.5t-25.5 -65.5q0 -44 28.5 -70.5t79.5 -26.5q37 0 69.5 13t53 34t32 36.5t18.5 29.5z" />
    <glyph glyph-name="Abreve" unicode="&#x102;" horiz-adv-x="685" 
d="M343 761q-73 0 -109 36t-36 92h55q10 -72 90 -72q82 0 90 72h55q0 -56 -36 -92t-109 -36zM568 0l-68 179h-314l-68 -179h-90l278 700h73l279 -700h-90zM210 243h266l-133 349z" />
    <glyph glyph-name="abreve" unicode="&#x103;" 
d="M266 581q-73 0 -109 36t-36 92h55q10 -72 90 -72q82 0 90 72h55q0 -56 -36 -92t-109 -36zM474 90q0 -21 8.5 -30.5t29.5 -8.5v-49q-13 -6 -33 -6q-78 0 -78 74v37q-7 -14 -20 -30t-36 -37t-60.5 -34t-81.5 -13q-76 0 -123 40t-47 115q0 67 44.5 102.5t138.5 50.5
q146 21 178 38v7q0 65 -31 91.5t-95 26.5q-113 0 -127 -78h-76q8 69 60.5 104t143.5 35q106 0 155.5 -46t49.5 -152v-237zM394 166v122q-27 -15 -168 -39q-62 -10 -87.5 -33.5t-25.5 -65.5q0 -44 28.5 -70.5t79.5 -26.5q37 0 69.5 13t53 34t32 36.5t18.5 29.5z" />
    <glyph glyph-name="Aogonek" unicode="&#x104;" horiz-adv-x="685" 
d="M629 0q-61 -21 -92.5 -51t-31.5 -65q0 -31 25 -42.5t69 -1.5v-39q-31 -11 -69 -14t-70 19t-32 64q0 46 43 81t97 49l-68 179h-314l-68 -179h-90l278 700h73l279 -700h-29zM210 243h266l-133 349z" />
    <glyph glyph-name="aogonek" unicode="&#x105;" 
d="M512 51v-49l-8 -3h6q-61 -21 -92.5 -51t-31.5 -65q0 -31 25 -42.5t69 -1.5v-39q-31 -11 -69 -14t-70 19t-32 64q0 46 43 81t97 49h1q-49 11 -49 71v37q-7 -14 -20 -30t-36 -37t-60.5 -34t-81.5 -13q-76 0 -123 40t-47 115q0 67 44.5 102.5t138.5 50.5q146 21 178 38v7
q0 65 -31 91.5t-95 26.5q-113 0 -127 -78h-76q8 69 60.5 104t143.5 35q106 0 155.5 -46t49.5 -152v-237q0 -21 8.5 -30.5t29.5 -8.5zM394 166v122q-27 -15 -168 -39q-62 -10 -87.5 -33.5t-25.5 -65.5q0 -44 28.5 -70.5t79.5 -26.5q37 0 69.5 13t53 34t32 36.5t18.5 29.5z
" />
    <glyph glyph-name="Cacute" unicode="&#x106;" horiz-adv-x="652" 
d="M295 761h70l106 128h-88zM352 65q142 0 186 113h84q-19 -88 -92.5 -137.5t-178.5 -49.5q-138 0 -223 92.5t-85 266.5t85 266.5t223 92.5q104 0 177 -49t92 -137h-85q-42 113 -183 113q-101 0 -162 -73.5t-61 -212.5q0 -138 61 -211.5t162 -73.5z" />
    <glyph glyph-name="cacute" unicode="&#x107;" horiz-adv-x="523" 
d="M216 581h70l106 128h-88zM277 60q108 0 142 97h74q-21 -87 -79.5 -125.5t-137.5 -38.5q-99 0 -171 68t-72 198t71.5 198t170.5 68q174 0 214 -160h-74q-34 94 -139 94q-71 0 -118.5 -51.5t-47.5 -148.5t47.5 -148t119.5 -51z" />
    <glyph glyph-name="Cdotaccent" unicode="&#x10a;" horiz-adv-x="652" 
d="M307 889h84v-90h-84v90zM352 65q142 0 186 113h84q-19 -88 -92.5 -137.5t-178.5 -49.5q-138 0 -223 92.5t-85 266.5t85 266.5t223 92.5q104 0 177 -49t92 -137h-85q-42 113 -183 113q-101 0 -162 -73.5t-61 -212.5q0 -138 61 -211.5t162 -73.5z" />
    <glyph glyph-name="cdotaccent" unicode="&#x10b;" horiz-adv-x="523" 
d="M228 709h84v-90h-84v90zM277 60q108 0 142 97h74q-21 -87 -79.5 -125.5t-137.5 -38.5q-99 0 -171 68t-72 198t71.5 198t170.5 68q174 0 214 -160h-74q-34 94 -139 94q-71 0 -118.5 -51.5t-47.5 -148.5t47.5 -148t119.5 -51z" />
    <glyph glyph-name="Ccaron" unicode="&#x10c;" horiz-adv-x="652" 
d="M443 880h64l-89 -130h-140l-90 130h65l95 -89zM352 65q142 0 186 113h84q-19 -88 -92.5 -137.5t-178.5 -49.5q-138 0 -223 92.5t-85 266.5t85 266.5t223 92.5q104 0 177 -49t92 -137h-85q-42 113 -183 113q-101 0 -162 -73.5t-61 -212.5q0 -138 61 -211.5t162 -73.5z" />
    <glyph glyph-name="ccaron" unicode="&#x10d;" horiz-adv-x="523" 
d="M364 700h64l-89 -130h-140l-90 130h65l95 -89zM277 60q108 0 142 97h74q-21 -87 -79.5 -125.5t-137.5 -38.5q-99 0 -171 68t-72 198t71.5 198t170.5 68q174 0 214 -160h-74q-34 94 -139 94q-71 0 -118.5 -51.5t-47.5 -148.5t47.5 -148t119.5 -51z" />
    <glyph glyph-name="Dcaron" unicode="&#x10e;" horiz-adv-x="657" 
d="M400 750h-140l-90 130h65l95 -89l95 89h64zM280 700q168 0 254 -90t86 -260q0 -169 -86 -259.5t-254 -90.5h-222v700h222zM273 74q136 0 199.5 67.5t63.5 208.5t-63.5 209t-199.5 68h-132v-553h132z" />
    <glyph glyph-name="dcaron" unicode="&#x10f;" horiz-adv-x="717" 
d="M263 525q59 0 105.5 -27t69.5 -75v283h80v-706h-80v105q-21 -49 -66 -80.5t-107 -31.5q-94 0 -163 68.5t-69 198.5q0 66 20 118.5t54 83.5t73.5 47t82.5 16zM551 572h70l106 128h-88zM277 60q69 0 117 52t48 148q0 98 -47.5 148t-117.5 50q-71 0 -118.5 -50t-47.5 -148
t47.5 -149t118.5 -51z" />
    <glyph glyph-name="Dcroat" unicode="&#x110;" horiz-adv-x="680" 
d="M303 700q168 0 254 -90t86 -260q0 -169 -86 -259.5t-254 -90.5h-222v317h-61v62h61v321h222zM296 74q136 0 199.5 67.5t63.5 208.5t-63.5 209t-199.5 68h-132v-248h131v-62h-131v-243h132z" />
    <glyph glyph-name="dcroat" unicode="&#x111;" horiz-adv-x="623" 
d="M606 645v-50h-88v-595h-80v105q-21 -49 -66 -80.5t-107 -31.5q-94 0 -163 68.5t-69 198.5q0 66 20 118.5t54 83.5t73.5 47t82.5 16q59 0 105.5 -27t69.5 -75v172h-139v50h139v61h80v-61h88zM277 60q69 0 117 52t48 148q0 98 -47.5 148t-117.5 50q-71 0 -118.5 -50
t-47.5 -148t47.5 -149t118.5 -51z" />
    <glyph glyph-name="Emacron" unicode="&#x112;" horiz-adv-x="552" 
d="M434 889v-50h-307v50h307zM141 74h381v-74h-464v700h454v-73h-371v-233h321v-68h-321v-252z" />
    <glyph glyph-name="emacron" unicode="&#x113;" horiz-adv-x="539" 
d="M426 709v-50h-307v50h307zM507 256q0 -16 -1 -25h-395q7 -89 51.5 -132.5t117.5 -43.5q49 0 80.5 14t54.5 47h74q-59 -123 -213 -123q-104 0 -173.5 68t-69.5 198q0 129 70.5 197.5t171.5 68.5t166.5 -68.5t65.5 -200.5zM111 286h319q-1 85 -43 131t-112 46
q-68 0 -112.5 -45t-51.5 -132z" />
    <glyph glyph-name="Edotaccent" unicode="&#x116;" horiz-adv-x="552" 
d="M323 889v-90h-84v90h84zM141 74h381v-74h-464v700h454v-73h-371v-233h321v-68h-321v-252z" />
    <glyph glyph-name="edotaccent" unicode="&#x117;" horiz-adv-x="539" 
d="M315 709v-90h-84v90h84zM507 256q0 -16 -1 -25h-395q7 -89 51.5 -132.5t117.5 -43.5q49 0 80.5 14t54.5 47h74q-59 -123 -213 -123q-104 0 -173.5 68t-69.5 198q0 129 70.5 197.5t171.5 68.5t166.5 -68.5t65.5 -200.5zM111 286h319q-1 85 -43 131t-112 46
q-68 0 -112.5 -45t-51.5 -132z" />
    <glyph glyph-name="Eogonek" unicode="&#x118;" horiz-adv-x="552" 
d="M522 0q-61 -21 -92.5 -51t-31.5 -65q0 -31 25 -42.5t69 -1.5v-39q-31 -11 -69 -14t-70 19t-32 64q0 46 43 81t97 49h-403v700h454v-73h-371v-233h321v-68h-321v-252h381v-74z" />
    <glyph glyph-name="eogonek" unicode="&#x119;" horiz-adv-x="539" 
d="M507 256q0 -16 -1 -25h-395q7 -89 51.5 -132.5t117.5 -43.5q49 0 80.5 14t54.5 47h74q-50 -105 -165 -120h16q-61 -21 -92.5 -51t-31.5 -65q0 -31 25 -42.5t69 -1.5v-39q-31 -11 -69 -14t-70 19t-32 64q0 43 39.5 77.5t90.5 49.5q-101 2 -168.5 70.5t-67.5 195.5
q0 129 70.5 197.5t171.5 68.5t166.5 -68.5t65.5 -200.5zM111 286h319q-1 85 -43 131t-112 46q-68 0 -112.5 -45t-51.5 -132z" />
    <glyph glyph-name="Ecaron" unicode="&#x11a;" horiz-adv-x="552" 
d="M350 750h-140l-90 130h65l95 -89l95 89h64zM141 74h381v-74h-464v700h454v-73h-371v-233h321v-68h-321v-252z" />
    <glyph glyph-name="ecaron" unicode="&#x11b;" horiz-adv-x="539" 
d="M342 570h-140l-90 130h65l95 -89l95 89h64zM507 256q0 -16 -1 -25h-395q7 -89 51.5 -132.5t117.5 -43.5q49 0 80.5 14t54.5 47h74q-59 -123 -213 -123q-104 0 -173.5 68t-69.5 198q0 129 70.5 197.5t171.5 68.5t166.5 -68.5t65.5 -200.5zM111 286h319q-1 85 -43 131
t-112 46q-68 0 -112.5 -45t-51.5 -132z" />
    <glyph glyph-name="Gbreve" unicode="&#x11e;" horiz-adv-x="690" 
d="M441 889h55q0 -56 -36 -92t-109 -36t-109 36t-36 92h55q10 -72 90 -72q82 0 90 72zM643 359v-40q0 -328 -288 -328q-142 0 -227 92t-85 267q0 174 84.5 266.5t223.5 92.5q101 0 170 -45.5t91 -128.5h-84q-46 101 -176 101q-102 0 -162.5 -73.5t-60.5 -212.5t61 -212
t165 -73q207 0 211 226h-180v68h257z" />
    <glyph glyph-name="gbreve" unicode="&#x11f;" horiz-adv-x="574" 
d="M274 581q-73 0 -109 36t-36 92h55q10 -72 90 -72q82 0 90 72h55q0 -56 -36 -92t-109 -36zM437 521h80v-518q0 -52 -15 -92.5t-38.5 -64.5t-56 -39.5t-63.5 -21t-66 -5.5q-74 0 -131.5 27t-83.5 73l52 33q51 -66 156 -66q166 0 166 156v102q-21 -49 -66 -80t-108 -31
q-93 0 -161.5 68.5t-68.5 197.5t69 197t160 68q58 0 104.5 -27t70.5 -75v98zM277 61q69 0 116.5 51.5t47.5 147.5q0 98 -47 148.5t-117 50.5t-117.5 -50.5t-47.5 -148.5t47.5 -148.5t117.5 -50.5z" />
    <glyph glyph-name="Gdotaccent" unicode="&#x120;" horiz-adv-x="690" 
d="M309 889h84v-90h-84v90zM643 359v-40q0 -328 -288 -328q-142 0 -227 92t-85 267q0 174 84.5 266.5t223.5 92.5q101 0 170 -45.5t91 -128.5h-84q-46 101 -176 101q-102 0 -162.5 -73.5t-60.5 -212.5t61 -212t165 -73q207 0 211 226h-180v68h257z" />
    <glyph glyph-name="gdotaccent" unicode="&#x121;" horiz-adv-x="574" 
d="M316 709v-90h-84v90h84zM437 521h80v-518q0 -52 -15 -92.5t-38.5 -64.5t-56 -39.5t-63.5 -21t-66 -5.5q-74 0 -131.5 27t-83.5 73l52 33q51 -66 156 -66q166 0 166 156v102q-21 -49 -66 -80t-108 -31q-93 0 -161.5 68.5t-68.5 197.5t69 197t160 68q58 0 104.5 -27
t70.5 -75v98zM277 61q69 0 116.5 51.5t47.5 147.5q0 98 -47 148.5t-117 50.5t-117.5 -50.5t-47.5 -148.5t47.5 -148.5t117.5 -50.5z" />
    <glyph glyph-name="Gcommaaccent" unicode="&#x122;" horiz-adv-x="690" 
d="M643 359v-40q0 -328 -288 -328q-142 0 -227 92t-85 267q0 174 84.5 266.5t223.5 92.5q101 0 170 -45.5t91 -128.5h-84q-46 101 -176 101q-102 0 -162.5 -73.5t-60.5 -212.5t61 -212t165 -73q207 0 211 226h-180v68h257zM306 -270v27q22 10 30.5 30t8.5 57v31h-39v102h96
v-127q0 -118 -96 -120z" />
    <glyph glyph-name="gcommaaccent" unicode="&#x123;" horiz-adv-x="574" 
d="M315 670v-102h-96v127q0 118 96 120v-27q-22 -10 -30.5 -30t-8.5 -57v-31h39zM437 521h80v-518q0 -52 -15 -92.5t-38.5 -64.5t-56 -39.5t-63.5 -21t-66 -5.5q-74 0 -131.5 27t-83.5 73l52 33q51 -66 156 -66q166 0 166 156v102q-21 -49 -66 -80t-108 -31
q-93 0 -161.5 68.5t-68.5 197.5t69 197t160 68q58 0 104.5 -27t70.5 -75v98zM277 61q69 0 116.5 51.5t47.5 147.5q0 98 -47 148.5t-117 50.5t-117.5 -50.5t-47.5 -148.5t47.5 -148.5t117.5 -50.5z" />
    <glyph glyph-name="Hbar" unicode="&#x126;" horiz-adv-x="649" 
d="M508 700h84v-700h-84v309h-367v-309h-83v700h83v-160h367v160zM141 378h367v97h-367v-97z" />
    <glyph glyph-name="hbar" unicode="&#x127;" horiz-adv-x="594" 
d="M352 525q185 0 185 -210v-315h-80v312q0 78 -34 111.5t-97 33.5q-66 0 -107.5 -44t-51.5 -91v-322h-80v557h-69v57h69v92h80v-92h111v-57h-111v-158q12 40 61.5 83t123.5 43z" />
    <glyph glyph-name="Imacron" unicode="&#x12a;" horiz-adv-x="199" 
d="M-55 889h307v-50h-307v50zM141 0h-83v700h83v-700z" />
    <glyph glyph-name="imacron" unicode="&#x12b;" horiz-adv-x="195" 
d="M-56 709h307v-50h-307v50zM58 520h80v-520h-80v520z" />
    <glyph glyph-name="Iogonek" unicode="&#x12e;" horiz-adv-x="199" 
d="M141 0q-61 -21 -92.5 -51t-31.5 -65q0 -31 25 -42.5t69 -1.5v-39q-31 -11 -69 -14t-70 19t-32 64q0 46 43 81t97 49h-22v700h83v-700z" />
    <glyph glyph-name="iogonek" unicode="&#x12f;" horiz-adv-x="195" 
d="M56 709h84v-90h-84v90zM58 0v520h80v-520h-19q-61 -21 -92.5 -51t-31.5 -65q0 -31 25 -42.5t69 -1.5v-39q-31 -11 -69 -14t-70 19t-32 64q0 46 43 81t97 49z" />
    <glyph glyph-name="Idotaccent" unicode="&#x130;" horiz-adv-x="199" 
d="M57 889h84v-90h-84v90zM141 0h-83v700h83v-700z" />
    <glyph glyph-name="dotlessi" unicode="&#x131;" horiz-adv-x="195" 
d="M58 520h80v-520h-80v520z" />
    <glyph glyph-name="IJ" unicode="&#x132;" horiz-adv-x="699" 
d="M141 0h-83v700h83v-700zM267 134q55 -67 149 -67q65 0 106 40.5t41 135.5v457h84v-460q0 -127 -65.5 -187t-165.5 -60q-126 0 -194 89z" />
    <glyph glyph-name="ij" unicode="&#x133;" horiz-adv-x="396" 
d="M58 709h80v-74h-80v74zM259 709h80v-74h-80v74zM58 520h80v-520h-80v520zM117 -132q43 -18 78 -18q64 0 64 76v594h80v-601q0 -139 -127 -139q-58 0 -95 21v67z" />
    <glyph glyph-name="Kcommaaccent" unicode="&#x136;" horiz-adv-x="641" 
d="M301 376l320 -376h-96l-277 318l-107 -118v-200h-83v700h83v-387l355 387h98zM274 -125v102h96v-127q0 -118 -96 -120v27q22 10 30.5 30t8.5 57v31h-39z" />
    <glyph glyph-name="kcommaaccent" unicode="&#x137;" horiz-adv-x="539" 
d="M275 295l251 -295h-91l-211 243l-86 -89v-154h-80v706h80v-458l262 272h94zM228 -125v102h96v-127q0 -118 -96 -120v27q22 10 30.5 30t8.5 57v31h-39z" />
    <glyph glyph-name="Lacute" unicode="&#x139;" horiz-adv-x="531" 
d="M65 759h70l106 128h-88zM141 74h358v-74h-441v700h83v-626z" />
    <glyph glyph-name="lacute" unicode="&#x13a;" horiz-adv-x="195" 
d="M44 767h70l106 128h-88zM58 706h80v-706h-80v706z" />
    <glyph glyph-name="Lcommaaccent" unicode="&#x13b;" horiz-adv-x="531" 
d="M141 74h358v-74h-441v700h83v-626zM217 -275v27q22 10 30.5 30t8.5 57v31h-39v102h96v-127q0 -118 -96 -120z" />
    <glyph glyph-name="lcommaaccent" unicode="&#x13c;" horiz-adv-x="195" 
d="M58 706h80v-706h-80v706zM49 -270v27q22 10 30.5 30t8.5 57v31h-39v102h96v-127q0 -118 -96 -120z" />
    <glyph glyph-name="Lcaron" unicode="&#x13d;" horiz-adv-x="531" 
d="M141 74h358v-74h-441v700h83v-626zM263 453v27q22 10 30.5 30t8.5 57v31h-39v102h96v-127q0 -118 -96 -120z" />
    <glyph glyph-name="lcaron" unicode="&#x13e;" horiz-adv-x="357" 
d="M58 706h80v-706h-80v706zM221 453v27q22 10 30.5 30t8.5 57v31h-39v102h96v-127q0 -118 -96 -120z" />
    <glyph glyph-name="Lslash" unicode="&#x141;" horiz-adv-x="562" 
d="M172 74h358v-74h-441v242l-71 -75v84l71 75v374h83v-286l114 120h1v-83l-115 -121v-256z" />
    <glyph glyph-name="lslash" unicode="&#x142;" horiz-adv-x="316" 
d="M289 535v-90l-100 -105v-340h-80v255l-81 -85v91l81 85v360h80v-275l99 104h1z" />
    <glyph glyph-name="Nacute" unicode="&#x143;" horiz-adv-x="662" 
d="M278 761h70l106 128h-88zM605 700v-700h-94l-367 569h-3v-569h-83v700h91l370 -572h2v572h84z" />
    <glyph glyph-name="nacute" unicode="&#x144;" horiz-adv-x="565" 
d="M405 709l-106 -128h-70l88 128h88zM323 525q185 0 185 -210v-315h-80v312q0 78 -34 111.5t-97 33.5q-66 0 -107.5 -44t-51.5 -91v-322h-80v520h80v-121q12 40 61.5 83t123.5 43z" />
    <glyph glyph-name="Ncommaaccent" unicode="&#x145;" horiz-adv-x="662" 
d="M605 700v-700h-94l-367 569h-3v-569h-83v700h91l370 -572h2v572h84zM283 -270v27q22 10 30.5 30t8.5 57v31h-39v102h96v-127q0 -118 -96 -120z" />
    <glyph glyph-name="ncommaaccent" unicode="&#x146;" horiz-adv-x="565" 
d="M323 525q185 0 185 -210v-315h-80v312q0 78 -34 111.5t-97 33.5q-66 0 -107.5 -44t-51.5 -91v-322h-80v520h80v-121q12 40 61.5 83t123.5 43zM234 -125v102h96v-127q0 -118 -96 -120v27q22 10 30.5 30t8.5 57v31h-39z" />
    <glyph glyph-name="Ncaron" unicode="&#x147;" horiz-adv-x="662" 
d="M426 880h64l-89 -130h-140l-90 130h65l95 -89zM605 700v-700h-94l-367 569h-3v-569h-83v700h91l370 -572h2v572h84z" />
    <glyph glyph-name="ncaron" unicode="&#x148;" horiz-adv-x="565" 
d="M352 570h-140l-90 130h65l95 -89l95 89h64zM323 525q185 0 185 -210v-315h-80v312q0 78 -34 111.5t-97 33.5q-66 0 -107.5 -44t-51.5 -91v-322h-80v520h80v-121q12 40 61.5 83t123.5 43z" />
    <glyph glyph-name="Eng" unicode="&#x14a;" horiz-adv-x="662" 
d="M521 700h84v-673q0 -128 -65.5 -187.5t-165.5 -59.5q-126 0 -194 89l45 51q56 -67 149 -67q128 0 145 136l-375 580h-3v-569h-83v700h91l370 -573h2v573z" />
    <glyph glyph-name="eng" unicode="&#x14b;" horiz-adv-x="565" 
d="M323 525q185 0 185 -210v-396q0 -139 -127 -139q-58 0 -94 21v67q43 -18 77 -18q64 0 64 76v386q0 78 -34 111.5t-97 33.5q-66 0 -107.5 -44t-51.5 -91v-322h-80v520h80v-121q12 40 61.5 83t123.5 43z" />
    <glyph glyph-name="Omacron" unicode="&#x14c;" horiz-adv-x="715" 
d="M204 889h307v-50h-307v50zM358 709q142 0 228.5 -93t86.5 -266q0 -172 -86.5 -265.5t-228.5 -93.5q-143 0 -229 93t-86 266t86 266t229 93zM358 65q106 0 167 72.5t61 212.5t-61 213t-167 73t-167.5 -73t-61.5 -213t61.5 -212.5t167.5 -72.5z" />
    <glyph glyph-name="omacron" unicode="&#x14d;" horiz-adv-x="548" 
d="M120 709h307v-50h-307v50zM274 525q60 0 113.5 -27t91 -89t37.5 -149q0 -88 -37.5 -150.5t-91 -89.5t-113.5 -27q-96 0 -168.5 69t-72.5 198q0 66 21.5 118t56.5 83.5t77 47.5t86 16zM438 260q0 97 -47.5 147.5t-116.5 50.5t-116.5 -50.5t-47.5 -147.5q0 -98 47.5 -149
t116.5 -51t116.5 51t47.5 149z" />
    <glyph glyph-name="Ohungarumlaut" unicode="&#x150;" horiz-adv-x="715" 
d="M231 761h70l106 128h-88zM396 761h70l106 128h-88zM358 709q142 0 228.5 -93t86.5 -266q0 -172 -86.5 -265.5t-228.5 -93.5q-143 0 -229 93t-86 266t86 266t229 93zM358 65q106 0 167 72.5t61 212.5t-61 213t-167 73t-167.5 -73t-61.5 -213t61.5 -212.5t167.5 -72.5z" />
    <glyph glyph-name="ohungarumlaut" unicode="&#x151;" horiz-adv-x="548" 
d="M147 581h70l106 128h-88zM312 581h70l106 128h-88zM274 525q60 0 113.5 -27t91 -89t37.5 -149q0 -88 -37.5 -150.5t-91 -89.5t-113.5 -27q-96 0 -168.5 69t-72.5 198q0 66 21.5 118t56.5 83.5t77 47.5t86 16zM438 260q0 97 -47.5 147.5t-116.5 50.5t-116.5 -50.5
t-47.5 -147.5q0 -98 47.5 -149t116.5 -51t116.5 51t47.5 149z" />
    <glyph glyph-name="OE" unicode="&#x152;" horiz-adv-x="1083" 
d="M672 74h381v-74h-464v87q-84 -96 -231 -96q-143 0 -229 93t-86 266t86 266t229 93q147 0 231 -96v87h454v-73h-371v-233h321v-68h-320q-1 -4 -1 -11v-241zM358 65q106 0 167 72.5t61 212.5t-61 213t-167 73t-167.5 -73t-61.5 -213t61.5 -212.5t167.5 -72.5z" />
    <glyph glyph-name="oe" unicode="&#x153;" horiz-adv-x="945" 
d="M913 256q0 -16 -1 -25h-395q7 -89 51.5 -132.5t117.5 -43.5q49 0 80.5 14t54.5 47h74q-59 -123 -213 -123q-65 0 -119.5 28t-86.5 83q-34 -55 -88.5 -83t-113.5 -28q-96 0 -168.5 69t-72.5 198q0 66 21.5 118t56.5 83.5t77 47.5t86 16q60 0 114.5 -28.5t88.5 -83.5
q32 55 86.5 83.5t117.5 28.5q101 0 166.5 -68.5t65.5 -200.5zM517 286h319q-1 85 -43 131t-112 46q-68 0 -112.5 -45t-51.5 -132zM274 60q69 0 116.5 51t47.5 149q0 97 -47.5 147.5t-116.5 50.5t-116.5 -50.5t-47.5 -147.5q0 -98 47.5 -149t116.5 -51z" />
    <glyph glyph-name="Racute" unicode="&#x154;" horiz-adv-x="624" 
d="M424 889l-106 -128h-70l88 128h88zM571 117q0 -90 20 -117h-83q-20 27 -20 117v56q0 113 -125 113h-222v-286h-83v700h274q119 0 179 -53t60 -147q0 -125 -112 -175q60 -17 86 -52.5t26 -97.5v-58zM344 354q66 0 104 36t38 103q0 134 -155 134h-190v-273h203z" />
    <glyph glyph-name="racute" unicode="&#x155;" horiz-adv-x="380" 
d="M316 709l-106 -128h-70l88 128h88zM316 525q22 0 37 -2v-71q-15 1 -31 1q-78 0 -124.5 -39.5t-59.5 -109.5v-304h-80v520h80v-126q14 56 60.5 93.5t117.5 37.5z" />
    <glyph glyph-name="Rcommaaccent" unicode="&#x156;" horiz-adv-x="624" 
d="M571 117q0 -90 20 -117h-83q-20 27 -20 117v56q0 113 -125 113h-222v-286h-83v700h274q119 0 179 -53t60 -147q0 -125 -112 -175q60 -17 86 -52.5t26 -97.5v-58zM344 354q66 0 104 36t38 103q0 134 -155 134h-190v-273h203zM253 -125v102h96v-127q0 -118 -96 -120v27
q22 10 30.5 30t8.5 57v31h-39z" />
    <glyph glyph-name="rcommaaccent" unicode="&#x157;" horiz-adv-x="380" 
d="M316 525q22 0 37 -2v-71q-15 1 -31 1q-78 0 -124.5 -39.5t-59.5 -109.5v-304h-80v520h80v-126q14 56 60.5 93.5t117.5 37.5zM49 -125v102h96v-127q0 -118 -96 -120v27q22 10 30.5 30t8.5 57v31h-39z" />
    <glyph glyph-name="Rcaron" unicode="&#x158;" horiz-adv-x="624" 
d="M371 750h-140l-90 130h65l95 -89l95 89h64zM571 117q0 -90 20 -117h-83q-20 27 -20 117v56q0 113 -125 113h-222v-286h-83v700h274q119 0 179 -53t60 -147q0 -125 -112 -175q60 -17 86 -52.5t26 -97.5v-58zM344 354q66 0 104 36t38 103q0 134 -155 134h-190v-273h203z
" />
    <glyph glyph-name="rcaron" unicode="&#x159;" horiz-adv-x="380" 
d="M263 570h-140l-90 130h65l95 -89l95 89h64zM316 525q22 0 37 -2v-71q-15 1 -31 1q-78 0 -124.5 -39.5t-59.5 -109.5v-304h-80v520h80v-126q14 56 60.5 93.5t117.5 37.5z" />
    <glyph glyph-name="Sacute" unicode="&#x15a;" horiz-adv-x="609" 
d="M243 761h70l106 128h-88zM356 386q106 -22 158 -66t52 -129q0 -92 -69.5 -146t-189.5 -54q-121 0 -188 58t-76 155h86q25 -142 178 -142q83 0 128 36t45 94q0 56 -35 84t-98 41l-102 20q-188 39 -188 183q0 83 64 136t178 53q110 0 173.5 -49.5t74.5 -136.5h-85
q-22 115 -163 115q-78 0 -117 -35.5t-39 -84.5q0 -90 118 -113z" />
    <glyph glyph-name="sacute" unicode="&#x15b;" horiz-adv-x="480" 
d="M186 581h70l106 128h-88zM367 387q-25 76 -128 76q-55 0 -86 -23t-31 -59q0 -31 21 -50t69 -30l84 -20q84 -19 120 -45.5t36 -92.5q0 -75 -59.5 -112.5t-149.5 -37.5t-148 39.5t-67 119.5h75q20 -96 141 -96q56 0 92 22.5t36 65.5q0 36 -21.5 52t-70.5 28l-91 21
q-73 17 -108 50.5t-35 87.5q0 66 52.5 104t140.5 38q82 0 134 -35.5t68 -102.5h-74z" />
    <glyph glyph-name="Scedilla" unicode="&#x15e;" horiz-adv-x="609" 
d="M566 191q0 -88 -63.5 -141.5t-173.5 -57.5l-42 -47q36 4 64.5 -16.5t28.5 -58.5q0 -93 -155 -93v37q92 3 92 54q0 27 -23.5 35.5t-52.5 -7.5l-21 32l41 65q-99 11 -154 67.5t-64 143.5h86q25 -142 178 -142q83 0 128 36t45 94q0 56 -35 84t-98 41l-102 20
q-188 39 -188 183q0 83 64 136t178 53q110 0 173.5 -49.5t74.5 -136.5h-85q-22 115 -163 115q-78 0 -117 -35.5t-39 -84.5q0 -90 118 -113l95 -19q106 -22 158 -66t52 -129z" />
    <glyph glyph-name="scedilla" unicode="&#x15f;" horiz-adv-x="480" 
d="M452 143q0 -68 -49 -105.5t-127 -43.5l-46 -50q36 4 64.5 -16.5t28.5 -58.5q0 -93 -155 -93v37q92 3 92 54q0 27 -23.5 35.5t-52.5 -7.5l-21 32l43 68q-75 8 -122 47t-56 110h75q20 -96 141 -96q56 0 92 22.5t36 65.5q0 36 -21.5 52t-70.5 28l-91 21q-73 17 -108 50.5
t-35 87.5q0 66 52.5 104t140.5 38q82 0 134 -35.5t68 -102.5h-74q-25 76 -128 76q-55 0 -86 -23t-31 -59q0 -31 21 -50t69 -30l84 -20q84 -19 120 -45.5t36 -92.5z" />
    <glyph glyph-name="Scaron" unicode="&#x160;" horiz-adv-x="609" 
d="M391 880h64l-89 -130h-140l-90 130h65l95 -89zM356 386q106 -22 158 -66t52 -129q0 -92 -69.5 -146t-189.5 -54q-121 0 -188 58t-76 155h86q25 -142 178 -142q83 0 128 36t45 94q0 56 -35 84t-98 41l-102 20q-188 39 -188 183q0 83 64 136t178 53q110 0 173.5 -49.5
t74.5 -136.5h-85q-22 115 -163 115q-78 0 -117 -35.5t-39 -84.5q0 -90 118 -113z" />
    <glyph glyph-name="scaron" unicode="&#x161;" horiz-adv-x="480" 
d="M334 700h64l-89 -130h-140l-90 130h65l95 -89zM367 387q-25 76 -128 76q-55 0 -86 -23t-31 -59q0 -31 21 -50t69 -30l84 -20q84 -19 120 -45.5t36 -92.5q0 -75 -59.5 -112.5t-149.5 -37.5t-148 39.5t-67 119.5h75q20 -96 141 -96q56 0 92 22.5t36 65.5q0 36 -21.5 52
t-70.5 28l-91 21q-73 17 -108 50.5t-35 87.5q0 66 52.5 104t140.5 38q82 0 134 -35.5t68 -102.5h-74z" />
    <glyph glyph-name="uni0162" unicode="&#x162;" horiz-adv-x="580" 
d="M332 0h-12l-51 -56q36 4 64.5 -16.5t28.5 -58.5q0 -93 -155 -93v37q92 3 92 54q0 27 -23.5 35.5t-52.5 -7.5l-21 32l46 73v627h-220v73h524v-73h-220v-627z" />
    <glyph glyph-name="uni0163" unicode="&#x163;" horiz-adv-x="319" 
d="M287 6q-24 -8 -52 -11l-46 -50q36 4 64.5 -16.5t28.5 -58.5q0 -93 -155 -93v37q92 3 92 54q0 27 -23.5 35.5t-52.5 -7.5l-21 32l44 70q-68 15 -68 97v361h-80v64h80v130h80v-130h101v-64h-101v-353q0 -44 52 -44q28 0 57 8v-61z" />
    <glyph glyph-name="Tcaron" unicode="&#x164;" horiz-adv-x="580" 
d="M358 750h-140l-90 130h65l95 -89l95 89h64zM552 700v-73h-220v-627h-84v627h-220v73h524z" />
    <glyph glyph-name="tcaron" unicode="&#x165;" horiz-adv-x="411" 
d="M391 700l-106 -128h-70l88 128h88zM178 103q0 -44 52 -44q28 0 57 8v-61q-33 -12 -81 -12q-108 0 -108 101v361h-80v64h80v130h80v-130h101v-64h-101v-353z" />
    <glyph glyph-name="Tbar" unicode="&#x166;" horiz-adv-x="580" 
d="M552 627h-220v-117h112v-50h-112v-460h-84v460h-111v50h111v117h-220v73h524v-73z" />
    <glyph glyph-name="tbar" unicode="&#x167;" horiz-adv-x="319" 
d="M230 59q28 0 57 8v-61q-33 -12 -81 -12q-108 0 -108 101v221h-80v66h80v74h-80v64h80v130h80v-130h101v-64h-101v-74h101v-66h-101v-213q0 -44 52 -44z" />
    <glyph glyph-name="Utilde" unicode="&#x168;" horiz-adv-x="654" 
d="M461 880h38q0 -46 -28 -73t-72 -27q-37 0 -84.5 36t-76.5 36q-25 0 -39 -13t-13 -29h-39q0 46 28 73t72 27q37 0 85 -36t77 -36q25 0 39 13t13 29zM596 266q0 -129 -72.5 -202t-196.5 -73q-125 0 -197 73t-72 202v434h83v-430q0 -98 49 -151.5t137 -53.5t137 53.5
t49 151.5v430h83v-434z" />
    <glyph glyph-name="utilde" unicode="&#x169;" horiz-adv-x="560" 
d="M190 672q-25 0 -39 -13t-13 -29h-39q0 46 28 73t72 27q37 0 85 -36t77 -36q25 0 39 13t13 29h38q0 -46 -28 -73t-72 -27q-37 0 -84.5 36t-76.5 36zM423 520h80v-520h-80v121q-12 -40 -61.5 -84t-123.5 -44q-185 0 -185 212v315h80v-313q0 -146 131 -146q66 0 107 44
t52 92v323z" />
    <glyph glyph-name="Umacron" unicode="&#x16a;" horiz-adv-x="654" 
d="M170 889h307v-50h-307v50zM596 266q0 -129 -72.5 -202t-196.5 -73q-125 0 -197 73t-72 202v434h83v-430q0 -98 49 -151.5t137 -53.5t137 53.5t49 151.5v430h83v-434z" />
    <glyph glyph-name="umacron" unicode="&#x16b;" horiz-adv-x="560" 
d="M429 709v-50h-307v50h307zM423 520h80v-520h-80v121q-12 -40 -61.5 -84t-123.5 -44q-185 0 -185 212v315h80v-313q0 -146 131 -146q66 0 107 44t52 92v323z" />
    <glyph glyph-name="Ubreve" unicode="&#x16c;" horiz-adv-x="654" 
d="M414 889h55q0 -56 -36 -92t-109 -36t-109 36t-36 92h55q10 -72 90 -72q82 0 90 72zM596 266q0 -129 -72.5 -202t-196.5 -73q-125 0 -197 73t-72 202v434h83v-430q0 -98 49 -151.5t137 -53.5t137 53.5t49 151.5v430h83v-434z" />
    <glyph glyph-name="ubreve" unicode="&#x16d;" horiz-adv-x="560" 
d="M276 581q-73 0 -109 36t-36 92h55q10 -72 90 -72q82 0 90 72h55q0 -56 -36 -92t-109 -36zM423 520h80v-520h-80v121q-12 -40 -61.5 -84t-123.5 -44q-185 0 -185 212v315h80v-313q0 -146 131 -146q66 0 107 44t52 92v323z" />
    <glyph glyph-name="Uring" unicode="&#x16e;" horiz-adv-x="654" 
d="M324 761q-36 0 -61.5 25t-25.5 60t25.5 60.5t61.5 25.5t61.5 -25t25.5 -61q0 -35 -25 -60t-62 -25zM324 800q20 0 33.5 13.5t13.5 32.5q0 20 -13.5 33t-33.5 13t-33 -13t-13 -33t13 -33t33 -13zM596 266q0 -129 -72.5 -202t-196.5 -73q-125 0 -197 73t-72 202v434h83
v-430q0 -98 49 -151.5t137 -53.5t137 53.5t49 151.5v430h83v-434z" />
    <glyph glyph-name="uring" unicode="&#x16f;" horiz-adv-x="560" 
d="M276 581q-36 0 -61.5 25t-25.5 60t25.5 60.5t61.5 25.5t61.5 -25t25.5 -61q0 -35 -25 -60t-62 -25zM276 712q-20 0 -33 -13t-13 -33t13 -33t33 -13t33.5 13.5t13.5 32.5q0 20 -13.5 33t-33.5 13zM423 520h80v-520h-80v121q-12 -40 -61.5 -84t-123.5 -44q-185 0 -185 212
v315h80v-313q0 -146 131 -146q66 0 107 44t52 92v323z" />
    <glyph glyph-name="Uhungarumlaut" unicode="&#x170;" horiz-adv-x="654" 
d="M197 761h70l106 128h-88zM362 761h70l106 128h-88zM596 266q0 -129 -72.5 -202t-196.5 -73q-125 0 -197 73t-72 202v434h83v-430q0 -98 49 -151.5t137 -53.5t137 53.5t49 151.5v430h83v-434z" />
    <glyph glyph-name="uhungarumlaut" unicode="&#x171;" horiz-adv-x="560" 
d="M325 709l-106 -128h-70l88 128h88zM384 581h-70l88 128h88zM423 520h80v-520h-80v121q-12 -40 -61.5 -84t-123.5 -44q-185 0 -185 212v315h80v-313q0 -146 131 -146q66 0 107 44t52 92v323z" />
    <glyph glyph-name="Uogonek" unicode="&#x172;" horiz-adv-x="654" 
d="M513 700h83v-434q0 -106 -50 -175.5t-139 -90.5h3q-61 -21 -92.5 -51t-31.5 -65q0 -31 25 -42.5t69 -1.5v-39q-31 -11 -69 -14t-70 19t-32 64q0 39 33 71t79 50q-122 2 -192.5 75t-70.5 200v434h83v-430q0 -98 49 -151.5t137 -53.5t137 53.5t49 151.5v430z" />
    <glyph glyph-name="uogonek" unicode="&#x173;" horiz-adv-x="560" 
d="M423 520h80v-520h-19q-61 -21 -92.5 -51t-31.5 -65q0 -31 25 -42.5t69 -1.5v-39q-31 -11 -69 -14t-70 19t-32 64q0 46 43 81t97 49v121q-12 -40 -61.5 -84t-123.5 -44q-185 0 -185 212v315h80v-313q0 -146 131 -146q66 0 107 44t52 92v323z" />
    <glyph glyph-name="Wcircumflex" unicode="&#x174;" horiz-adv-x="998" 
d="M594 759l-95 89l-95 -89h-65l90 130h140l89 -130h-64zM884 700h87l-203 -700h-79l-190 580l-189 -580h-79l-203 700h87l160 -576l181 576h86l182 -576z" />
    <glyph glyph-name="wcircumflex" unicode="&#x175;" horiz-adv-x="803" 
d="M497 579l-95 89l-95 -89h-65l90 130h140l89 -130h-64zM781 520l-155 -520h-74l-150 422l-151 -422h-74l-154 520h81l119 -421l146 421h65l147 -421l119 421h81z" />
    <glyph glyph-name="Ycircumflex" unicode="&#x176;" horiz-adv-x="652" 
d="M421 759l-95 89l-95 -89h-65l90 130h140l89 -130h-64zM369 274v-274h-85v274l-256 426h93l205 -345l205 345h94z" />
    <glyph glyph-name="ycircumflex" unicode="&#x177;" 
d="M364 579l-95 89l-95 -89h-65l90 130h140l89 -130h-64zM431 520h82l-224 -558q-36 -90 -85.5 -125t-124.5 -26v70q99 -13 138 84q14 36 4 60l-198 495h83l161 -428z" />
    <glyph glyph-name="Ydieresis" unicode="&#x178;" horiz-adv-x="652" 
d="M177 889h84v-90h-84v90zM391 889h83v-90h-83v90zM369 274v-274h-85v274l-256 426h93l205 -345l205 345h94z" />
    <glyph glyph-name="Zacute" unicode="&#x179;" horiz-adv-x="609" 
d="M256 761h70l106 128h-88zM569 74v-74h-529v68l429 559h-413v73h509v-68l-429 -558h433z" />
    <glyph glyph-name="zacute" unicode="&#x17a;" horiz-adv-x="498" 
d="M192 581h70l106 128h-88zM135 69h323v-69h-418v69l323 383h-313v68h408v-68z" />
    <glyph glyph-name="Zdotaccent" unicode="&#x17b;" horiz-adv-x="609" 
d="M268 889h84v-90h-84v90zM569 74v-74h-529v68l429 559h-413v73h509v-68l-429 -558h433z" />
    <glyph glyph-name="zdotaccent" unicode="&#x17c;" horiz-adv-x="498" 
d="M204 709h84v-90h-84v90zM135 69h323v-69h-418v69l323 383h-313v68h408v-68z" />
    <glyph glyph-name="Zcaron" unicode="&#x17d;" horiz-adv-x="609" 
d="M404 880h64l-89 -130h-140l-90 130h65l95 -89zM569 74v-74h-529v68l429 559h-413v73h509v-68l-429 -558h433z" />
    <glyph glyph-name="zcaron" unicode="&#x17e;" horiz-adv-x="498" 
d="M340 700h64l-89 -130h-140l-90 130h65l95 -89zM135 69h323v-69h-418v69l323 383h-313v68h408v-68z" />
    <glyph glyph-name="florin" unicode="&#x192;" horiz-adv-x="290" 
d="M270 634q-43 0 -64 -24t-21 -81v-101h85v-70h-85v-385q0 -90 -42.5 -126.5t-122.5 -36.5v70q43 0 64 24.5t21 80.5v373h-79v70h79v112q0 89 40.5 126.5t124.5 37.5v-70z" />
    <glyph glyph-name="uni01CD" unicode="&#x1cd;" horiz-adv-x="685" 
d="M412 750h-140l-90 130h65l95 -89l95 89h64zM568 0l-68 179h-314l-68 -179h-90l278 700h73l279 -700h-90zM210 243h266l-133 349z" />
    <glyph glyph-name="uni01CE" unicode="&#x1ce;" 
d="M335 570h-140l-90 130h65l95 -89l95 89h64zM474 90q0 -21 8.5 -30.5t29.5 -8.5v-49q-13 -6 -33 -6q-78 0 -78 74v37q-7 -14 -20 -30t-36 -37t-60.5 -34t-81.5 -13q-76 0 -123 40t-47 115q0 67 44.5 102.5t138.5 50.5q146 21 178 38v7q0 65 -31 91.5t-95 26.5
q-113 0 -127 -78h-76q8 69 60.5 104t143.5 35q106 0 155.5 -46t49.5 -152v-237zM394 166v122q-27 -15 -168 -39q-62 -10 -87.5 -33.5t-25.5 -65.5q0 -44 28.5 -70.5t79.5 -26.5q37 0 69.5 13t53 34t32 36.5t18.5 29.5z" />
    <glyph glyph-name="uni01CF" unicode="&#x1cf;" horiz-adv-x="199" 
d="M193 880h64l-89 -130h-140l-90 130h65l95 -89zM141 0h-83v700h83v-700z" />
    <glyph glyph-name="uni01D0" unicode="&#x1d0;" horiz-adv-x="195" 
d="M192 700h64l-89 -130h-140l-90 130h65l95 -89zM58 520h80v-520h-80v520z" />
    <glyph glyph-name="uni01D1" unicode="&#x1d1;" horiz-adv-x="715" 
d="M452 880h64l-89 -130h-140l-90 130h65l95 -89zM358 709q142 0 228.5 -93t86.5 -266q0 -172 -86.5 -265.5t-228.5 -93.5q-143 0 -229 93t-86 266t86 266t229 93zM358 65q106 0 167 72.5t61 212.5t-61 213t-167 73t-167.5 -73t-61.5 -213t61.5 -212.5t167.5 -72.5z" />
    <glyph glyph-name="uni01D2" unicode="&#x1d2;" horiz-adv-x="548" 
d="M368 700h64l-89 -130h-140l-90 130h65l95 -89zM274 525q60 0 113.5 -27t91 -89t37.5 -149q0 -88 -37.5 -150.5t-91 -89.5t-113.5 -27q-96 0 -168.5 69t-72.5 198q0 66 21.5 118t56.5 83.5t77 47.5t86 16zM438 260q0 97 -47.5 147.5t-116.5 50.5t-116.5 -50.5
t-47.5 -147.5q0 -98 47.5 -149t116.5 -51t116.5 51t47.5 149z" />
    <glyph glyph-name="uni01D3" unicode="&#x1d3;" horiz-adv-x="654" 
d="M418 880h64l-89 -130h-140l-90 130h65l95 -89zM596 266q0 -129 -72.5 -202t-196.5 -73q-125 0 -197 73t-72 202v434h83v-430q0 -98 49 -151.5t137 -53.5t137 53.5t49 151.5v430h83v-434z" />
    <glyph glyph-name="uni01D4" unicode="&#x1d4;" horiz-adv-x="560" 
d="M345 570h-140l-90 130h65l95 -89l95 89h64zM423 520h80v-520h-80v121q-12 -40 -61.5 -84t-123.5 -44q-185 0 -185 212v315h80v-313q0 -146 131 -146q66 0 107 44t52 92v323z" />
    <glyph glyph-name="uni01EA" unicode="&#x1ea;" horiz-adv-x="715" 
d="M423 -3q-56 -21 -85 -50.5t-29 -62.5q0 -31 25 -42.5t69 -1.5v-39q-31 -11 -69 -14t-70 19t-32 64q0 40 33 71.5t80 49.5q-137 5 -219.5 98t-82.5 261q0 173 86 266t229 93q142 0 228.5 -93t86.5 -266q0 -151 -67.5 -242t-182.5 -111zM129 350q0 -140 61.5 -212.5
t167.5 -72.5t167 72.5t61 212.5t-61 213t-167 73t-167.5 -73t-61.5 -213z" />
    <glyph glyph-name="uni01EB" unicode="&#x1eb;" horiz-adv-x="548" 
d="M516 260q0 -108 -53 -174.5t-131 -85.5h7q-61 -21 -92.5 -51t-31.5 -65q0 -31 25 -42.5t69 -1.5v-39q-31 -11 -69 -14t-70 19t-32 64q0 41 35 73.5t84 50.5q-91 6 -157.5 74.5t-66.5 191.5q0 66 21.5 118t56.5 83.5t77 47.5t86 16q60 0 113.5 -27t91 -89t37.5 -149z
M274 60q69 0 116.5 51t47.5 149q0 97 -47.5 147.5t-116.5 50.5t-116.5 -50.5t-47.5 -147.5q0 -98 47.5 -149t116.5 -51z" />
    <glyph glyph-name="Scommaaccent" unicode="&#x218;" horiz-adv-x="609" 
d="M356 386q106 -22 158 -66t52 -129q0 -92 -69.5 -146t-189.5 -54q-121 0 -188 58t-76 155h86q25 -142 178 -142q83 0 128 36t45 94q0 56 -35 84t-98 41l-102 20q-188 39 -188 183q0 83 64 136t178 53q110 0 173.5 -49.5t74.5 -136.5h-85q-22 115 -163 115
q-78 0 -117 -35.5t-39 -84.5q0 -90 118 -113zM251 -270v27q22 10 30.5 30t8.5 57v31h-39v102h96v-127q0 -118 -96 -120z" />
    <glyph glyph-name="scommaaccent" unicode="&#x219;" horiz-adv-x="480" 
d="M367 387q-25 76 -128 76q-55 0 -86 -23t-31 -59q0 -31 21 -50t69 -30l84 -20q84 -19 120 -45.5t36 -92.5q0 -75 -59.5 -112.5t-149.5 -37.5t-148 39.5t-67 119.5h75q20 -96 141 -96q56 0 92 22.5t36 65.5q0 36 -21.5 52t-70.5 28l-91 21q-73 17 -108 50.5t-35 87.5
q0 66 52.5 104t140.5 38q82 0 134 -35.5t68 -102.5h-74zM195 -281v27q22 10 30.5 30t8.5 57v31h-39v102h96v-127q0 -118 -96 -120z" />
    <glyph glyph-name="uni021A" unicode="&#x21a;" horiz-adv-x="580" 
d="M552 700v-73h-220v-627h-84v627h-220v73h524zM233 -126v102h96v-127q0 -118 -96 -120v27q22 10 30.5 30t8.5 57v31h-39z" />
    <glyph glyph-name="uni021B" unicode="&#x21b;" horiz-adv-x="319" 
d="M230 59q28 0 57 8v-61q-33 -12 -81 -12q-108 0 -108 101v361h-80v64h80v130h80v-130h101v-64h-101v-353q0 -44 52 -44zM153 -125v102h96v-127q0 -118 -96 -120v27q22 10 30.5 30t8.5 57v31h-39z" />
    <glyph glyph-name="uni0237" unicode="&#x237;" horiz-adv-x="211" 
d="M-68 -132q43 -18 78 -18q64 0 64 76v594h80v-601q0 -139 -127 -139q-58 0 -95 21v67z" />
    <glyph glyph-name="circumflex" unicode="&#x2c6;" horiz-adv-x="319" 
d="M255 579l-95 89l-95 -89h-65l90 130h140l89 -130h-64z" />
    <glyph glyph-name="caron" unicode="&#x2c7;" horiz-adv-x="319" 
d="M255 700h64l-89 -130h-140l-90 130h65l95 -89z" />
    <glyph glyph-name="breve" unicode="&#x2d8;" horiz-adv-x="290" 
d="M235 709h55q0 -56 -36 -92t-109 -36t-109 36t-36 92h55q10 -72 90 -72q82 0 90 72z" />
    <glyph glyph-name="dotaccent" unicode="&#x2d9;" horiz-adv-x="84" 
d="M0 709h84v-90h-84v90z" />
    <glyph glyph-name="ring" unicode="&#x2da;" horiz-adv-x="174" 
d="M87 581q-36 0 -61.5 25t-25.5 60t25.5 60.5t61.5 25.5q37 0 62 -25t25 -61q0 -35 -25 -60t-62 -25zM87 620q20 0 33.5 13.5t13.5 32.5q0 20 -13.5 33t-33.5 13t-33 -13t-13 -33t13.5 -33t32.5 -13z" />
    <glyph glyph-name="ogonek" unicode="&#x2db;" horiz-adv-x="201" 
d="M171 -199q-31 -11 -69 -14t-70 19t-32 64q0 46 43 81t97 49h61q-61 -21 -92.5 -51t-31.5 -65q0 -31 25 -42.5t69 -1.5v-39z" />
    <glyph glyph-name="tilde" unicode="&#x2dc;" horiz-adv-x="352" 
d="M314 700h38q0 -46 -28 -73t-72 -27q-37 0 -84.5 36t-76.5 36q-25 0 -39 -13t-13 -29h-39q0 46 28 73t72 27q37 0 85 -36t77 -36q25 0 39 13t13 29z" />
    <glyph glyph-name="hungarumlaut" unicode="&#x2dd;" horiz-adv-x="344" 
d="M0 581h70l106 128h-88zM165 581h70l106 128h-88z" />
    <glyph glyph-name="uni0326" unicode="&#x326;" horiz-adv-x="0" 
d="M-96 -270v27q22 10 30.5 30t8.5 57v31h-39v102h96v-127q0 -118 -96 -120z" />
    <glyph glyph-name="uni0394" unicode="&#x394;" horiz-adv-x="728" 
d="M681 0h-633l305 700h23zM576 70l-211 495l-212 -495h423z" />
    <glyph glyph-name="uni03A9" unicode="&#x3a9;" horiz-adv-x="779" 
d="M737 357q0 -167 -153 -280h128v-77h-207v113l41 31q110 85 110 213q0 119 -80.5 196t-185.5 77t-185.5 -77t-80.5 -196q0 -128 110 -213l40 -31v-113h-206v77h128q-153 113 -153 280q0 99 50.5 180.5t130 125.5t166.5 44t166 -44t130 -125.5t51 -180.5z" />
    <glyph glyph-name="uni03BC" unicode="&#x3bc;" horiz-adv-x="560" 
d="M423 520h80v-520h-80v121q-12 -40 -61.5 -84t-123.5 -44q-62 0 -105 26v-209h-80v710h80v-313q0 -146 131 -146q66 0 107 44t52 92v323z" />
    <glyph glyph-name="pi" unicode="&#x3c0;" horiz-adv-x="668" 
d="M558 64q32 0 68 18v-70q-36 -18 -83 -18q-46 0 -76.5 23.5t-30.5 76.5v356h-208v-450h-80v450h-100v70h567v-70h-99v-331q0 -33 9.5 -44t32.5 -11z" />
    <glyph glyph-name="uni0401" unicode="&#x401;" horiz-adv-x="552" 
d="M216 889v-90h-84v90h84zM429 889v-90h-83v90h83zM141 74h381v-74h-464v700h454v-73h-371v-233h321v-68h-321v-252z" />
    <glyph glyph-name="uni0403" unicode="&#x403;" horiz-adv-x="499" 
d="M192 761h70l106 128h-88zM472 700v-73h-331v-627h-83v700h414z" />
    <glyph glyph-name="uni0404" unicode="&#x404;" horiz-adv-x="652" 
d="M538 178h84q-19 -88 -92.5 -137.5t-178.5 -49.5q-138 0 -223 92.5t-85 266.5t85 266.5t223 92.5q104 0 177 -49t92 -137h-85q-42 113 -183 113q-93 0 -152.5 -62t-68.5 -180h247v-68h-248q5 -127 65.5 -194t156.5 -67q142 0 186 113z" />
    <glyph glyph-name="uni0407" unicode="&#x407;" horiz-adv-x="199" 
d="M-50 889h84v-90h-84v90zM164 889h83v-90h-83v90zM141 0h-83v700h83v-700z" />
    <glyph glyph-name="uni040C" unicode="&#x40c;" horiz-adv-x="641" 
d="M443 889l-106 -128h-70l88 128h88zM525 0l-277 318l-107 -118v-200h-83v700h83v-387l355 387h98l-293 -324l320 -376h-96z" />
    <glyph glyph-name="uni040E" unicode="&#x40e;" horiz-adv-x="565" 
d="M373 889h55q0 -56 -36 -92t-109 -36t-109 36t-36 92h55q10 -72 90 -72q82 0 90 72zM447 700h91l-234 -558q-38 -90 -87 -125t-123 -26v77q53 -7 82.5 12.5t48.5 64.5q18 44 1 83l-198 472h90l164 -410z" />
    <glyph glyph-name="uni0410" unicode="&#x410;" horiz-adv-x="685" 
d="M568 0l-68 179h-314l-68 -179h-90l278 700h73l279 -700h-90zM210 243h266l-133 349z" />
    <glyph glyph-name="uni0411" unicode="&#x411;" horiz-adv-x="607" 
d="M310 446q122 0 186 -58.5t64 -163.5q0 -106 -64 -165t-186 -59h-252v700h414v-73h-331v-181h169zM311 74q79 0 120 38.5t41 111.5q0 72 -41 110t-120 38h-170v-298h170z" />
    <glyph glyph-name="uni0412" unicode="&#x412;" horiz-adv-x="625" 
d="M426 384q73 -19 112 -67.5t39 -117.5q0 -95 -63 -147t-189 -52h-267v700h263q106 0 159 -46.5t53 -124.5q0 -52 -27.5 -90.5t-79.5 -54.5zM141 629v-220h185q56 0 88.5 31.5t32.5 83.5q0 48 -30.5 76.5t-93.5 28.5h-182zM325 71q85 0 124.5 35.5t39.5 96.5
q0 63 -42.5 101.5t-125.5 38.5h-180v-272h184z" />
    <glyph glyph-name="uni0413" unicode="&#x413;" horiz-adv-x="499" 
d="M472 700v-73h-331v-627h-83v700h414z" />
    <glyph glyph-name="uni0414" unicode="&#x414;" horiz-adv-x="750" 
d="M630 70h90v-139h-80v69h-532v-69h-80v139h59q47 50 64.5 154t17.5 316v160h461v-630zM177 70h370v557h-295v-87q0 -213 -16 -316.5t-59 -153.5z" />
    <glyph glyph-name="uni0415" unicode="&#x415;" horiz-adv-x="552" 
d="M141 74h381v-74h-464v700h454v-73h-371v-233h321v-68h-321v-252z" />
    <glyph glyph-name="uni0416" unicode="&#x416;" horiz-adv-x="900" 
d="M880 0h-97l-291 322v-322h-83v323l-292 -323h-97l321 357l-306 343h97l277 -308v308h83v-307l276 307h97l-306 -343z" />
    <glyph glyph-name="uni0417" unicode="&#x417;" horiz-adv-x="577" 
d="M380 378q63 -10 110 -55.5t47 -123.5q0 -95 -68 -153t-184 -58t-182.5 65t-67.5 172h76q2 -78 49.5 -122.5t123.5 -44.5q75 0 124 38t49 105t-49.5 105.5t-139.5 38.5h-24v57h24q82 0 118 36t36 86q0 52 -39 83.5t-102 31.5q-64 0 -104.5 -38.5t-41.5 -118.5h-75
q0 109 59 168t162 59q99 0 159 -51.5t60 -127.5q0 -56 -32 -96t-88 -56z" />
    <glyph glyph-name="uni0418" unicode="&#x418;" horiz-adv-x="662" 
d="M57 700h84v-572h2l370 572h91v-700h-83v569h-3l-367 -569h-94v700z" />
    <glyph glyph-name="uni0419" unicode="&#x419;" horiz-adv-x="662" 
d="M420 889h55q0 -56 -36 -92t-109 -36t-109 36t-36 92h55q10 -72 90 -72q82 0 90 72zM57 700h84v-572h2l370 572h91v-700h-83v569h-3l-367 -569h-94v700z" />
    <glyph glyph-name="uni041A" unicode="&#x41a;" horiz-adv-x="641" 
d="M525 0l-277 318l-107 -118v-200h-83v700h83v-387l355 387h98l-293 -324l320 -376h-96z" />
    <glyph glyph-name="uni041B" unicode="&#x41b;" horiz-adv-x="676" 
d="M619 700v-700h-84v627h-309v-407q0 -123 -57.5 -178t-153.5 -49v74q60 -1 93.5 33t33.5 123v477h477z" />
    <glyph glyph-name="uni041C" unicode="&#x41c;" horiz-adv-x="829" 
d="M58 700h92l265 -594l264 594h93v-700h-84v546h-3l-236 -546h-68l-237 546h-3v-546h-83v700z" />
    <glyph glyph-name="uni041D" unicode="&#x41d;" horiz-adv-x="649" 
d="M508 700h84v-700h-84v309h-367v-309h-83v700h83v-322h367v322z" />
    <glyph glyph-name="uni041E" unicode="&#x41e;" horiz-adv-x="715" 
d="M358 709q142 0 228.5 -93t86.5 -266q0 -172 -86.5 -265.5t-228.5 -93.5q-143 0 -229 93t-86 266t86 266t229 93zM358 65q106 0 167 72.5t61 212.5t-61 213t-167 73t-167.5 -73t-61.5 -213t61.5 -212.5t167.5 -72.5z" />
    <glyph glyph-name="uni041F" unicode="&#x41f;" horiz-adv-x="649" 
d="M592 700v-700h-84v627h-367v-627h-83v700h534z" />
    <glyph glyph-name="uni0420" unicode="&#x420;" horiz-adv-x="592" 
d="M310 700q122 0 186 -59.5t64 -166.5q0 -106 -64 -165.5t-186 -59.5h-169v-249h-83v700h252zM311 322q78 0 119.5 39.5t41.5 112.5q0 74 -41.5 113.5t-119.5 39.5h-170v-305h170z" />
    <glyph glyph-name="uni0421" unicode="&#x421;" horiz-adv-x="652" 
d="M352 65q142 0 186 113h84q-19 -88 -92.5 -137.5t-178.5 -49.5q-138 0 -223 92.5t-85 266.5t85 266.5t223 92.5q104 0 177 -49t92 -137h-85q-42 113 -183 113q-101 0 -162 -73.5t-61 -212.5q0 -138 61 -211.5t162 -73.5z" />
    <glyph glyph-name="uni0422" unicode="&#x422;" horiz-adv-x="580" 
d="M552 700v-73h-220v-627h-84v627h-220v73h524z" />
    <glyph glyph-name="uni0423" unicode="&#x423;" horiz-adv-x="565" 
d="M447 700h91l-234 -558q-38 -90 -87 -125t-123 -26v77q53 -7 82.5 12.5t48.5 64.5q18 44 1 83l-198 472h90l164 -410z" />
    <glyph glyph-name="uni0424" unicode="&#x424;" horiz-adv-x="715" 
d="M672 350q0 -129 -73.5 -204t-199.5 -86v-75h-83v75q-126 11 -199.5 85.5t-73.5 204.5t73.5 205t199.5 86v74h83v-74q126 -11 199.5 -86t73.5 -205zM123 350q0 -99 51.5 -157t141.5 -69v452q-91 -11 -142 -68.5t-51 -157.5zM399 124q91 12 142 69.5t51 156.5
q0 100 -51 157t-142 69v-452z" />
    <glyph glyph-name="uni0425" unicode="&#x425;" horiz-adv-x="644" 
d="M621 0h-94l-205 294l-205 -294h-94l252 361l-236 339h94l189 -271l189 271h94l-236 -339z" />
    <glyph glyph-name="uni0426" unicode="&#x426;" horiz-adv-x="664" 
d="M592 74h45v-215h-80v141h-499v700h83v-626h367v626h84v-626z" />
    <glyph glyph-name="uni0427" unicode="&#x427;" horiz-adv-x="625" 
d="M484 700h84v-700h-84v297q-12 -40 -77 -87t-159 -47q-90 0 -147.5 53.5t-57.5 166.5v317h83v-314q0 -77 42 -112.5t112 -35.5q82 0 138.5 46t65.5 92v324z" />
    <glyph glyph-name="uni0428" unicode="&#x428;" horiz-adv-x="789" 
d="M648 700h83v-700h-673v700h83v-626h212v626h83v-626h212v626z" />
    <glyph glyph-name="uni0429" unicode="&#x429;" horiz-adv-x="806" 
d="M731 74h47v-215h-80v141h-640v700h83v-626h212v626h83v-626h212v626h83v-626z" />
    <glyph glyph-name="uni042A" unicode="&#x42a;" horiz-adv-x="660" 
d="M363 446q122 0 186 -58.5t64 -163.5q0 -106 -64 -165t-186 -59h-252v627h-83v73h166v-254h169zM364 74q79 0 120 38.5t41 111.5q0 72 -41 110t-120 38h-170v-298h170z" />
    <glyph glyph-name="uni042B" unicode="&#x42b;" horiz-adv-x="776" 
d="M310 446q122 0 186 -58.5t64 -163.5q0 -106 -64 -165t-186 -59h-252v700h83v-254h169zM636 700h83v-700h-83v700zM311 74q79 0 120 38.5t41 111.5q0 72 -41 110t-120 38h-170v-298h170z" />
    <glyph glyph-name="uni042C" unicode="&#x42c;" horiz-adv-x="607" 
d="M310 446q122 0 186 -58.5t64 -163.5q0 -106 -64 -165t-186 -59h-252v700h83v-254h169zM311 74q79 0 120 38.5t41 111.5q0 72 -41 110t-120 38h-170v-298h170z" />
    <glyph glyph-name="uni042D" unicode="&#x42d;" horiz-adv-x="665" 
d="M314 709q138 0 223 -92.5t85 -266.5t-85 -266.5t-223 -92.5q-105 0 -178.5 49.5t-92.5 137.5h84q44 -113 186 -113q96 0 156.5 67t65.5 194h-248v68h247q-9 118 -68.5 180t-152.5 62q-141 0 -183 -113h-85q19 88 92 137t177 49z" />
    <glyph glyph-name="uni042E" unicode="&#x42e;" horiz-adv-x="922" 
d="M565 709q142 0 228.5 -93t86.5 -266q0 -172 -86.5 -265.5t-228.5 -93.5q-134 0 -218.5 82.5t-95.5 235.5h-110v-309h-83v700h83v-322h110q7 160 92 245.5t222 85.5zM565 65q106 0 167 72.5t61 212.5t-61 213t-167 73t-167.5 -73t-61.5 -213t61.5 -212.5t167.5 -72.5z" />
    <glyph glyph-name="uni042F" unicode="&#x42f;" horiz-adv-x="624" 
d="M566 700v-700h-83v286h-222q-125 0 -125 -113v-56q0 -90 -20 -117h-83q20 27 20 117v58q0 62 26 97.5t86 52.5q-112 50 -112 175q0 94 60 147t179 53h274zM483 354v273h-190q-155 0 -155 -134q0 -67 38 -103t104 -36h203z" />
    <glyph glyph-name="uni0430" unicode="&#x430;" 
d="M474 90q0 -21 8.5 -30.5t29.5 -8.5v-49q-13 -6 -33 -6q-78 0 -78 74v37q-7 -14 -20 -30t-36 -37t-60.5 -34t-81.5 -13q-76 0 -123 40t-47 115q0 67 44.5 102.5t138.5 50.5q146 21 178 38v7q0 65 -31 91.5t-95 26.5q-113 0 -127 -78h-76q8 69 60.5 104t143.5 35
q106 0 155.5 -46t49.5 -152v-237zM394 166v122q-27 -15 -168 -39q-62 -10 -87.5 -33.5t-25.5 -65.5q0 -44 28.5 -70.5t79.5 -26.5q37 0 69.5 13t53 34t32 36.5t18.5 29.5z" />
    <glyph glyph-name="uni0431" unicode="&#x431;" horiz-adv-x="558" 
d="M298 524q91 0 159 -68t68 -197q0 -131 -72.5 -199.5t-168.5 -68.5q-45 0 -86.5 17t-77 50.5t-56.5 93t-21 137.5v177q0 117 56.5 175.5t164.5 58.5h70q54 0 76 22h76q-20 -48 -53 -67t-99 -19h-70q-67 0 -106 -38t-39 -103v-75q21 50 70.5 77t108.5 27zM284 58
q69 0 116.5 51t47.5 150q0 98 -47.5 149.5t-116.5 51.5t-116.5 -51.5t-47.5 -149.5t48 -149.5t116 -51.5z" />
    <glyph glyph-name="uni0432" unicode="&#x432;" horiz-adv-x="553" 
d="M409 287q55 -15 83 -51t28 -84q0 -152 -219 -152h-243v520h243q87 0 133.5 -33t46.5 -95q0 -36 -18 -64.5t-54 -40.5zM138 453v-146h164q105 0 105 75q0 71 -106 71h-163zM303 68q77 0 107.5 24t30.5 66q0 94 -137 94h-166v-184h165z" />
    <glyph glyph-name="uni0433" unicode="&#x433;" horiz-adv-x="418" 
d="M390 520v-64h-252v-456h-80v520h332z" />
    <glyph glyph-name="uni0434" unicode="&#x434;" horiz-adv-x="600" 
d="M536 65h36v-129h-73v64h-398v-64h-73v129h35q31 36 38.5 108t7.5 232v115h427v-455zM141 65h315v391h-267v-51q0 -158 -8 -231t-40 -109z" />
    <glyph glyph-name="uni0435" unicode="&#x435;" horiz-adv-x="539" 
d="M507 256q0 -16 -1 -25h-395q7 -89 51.5 -132.5t117.5 -43.5q49 0 80.5 14t54.5 47h74q-59 -123 -213 -123q-104 0 -173.5 68t-69.5 198q0 129 70.5 197.5t171.5 68.5t166.5 -68.5t65.5 -200.5zM111 286h319q-1 85 -43 131t-112 46q-68 0 -112.5 -45t-51.5 -132z" />
    <glyph glyph-name="uni0436" unicode="&#x436;" horiz-adv-x="750" 
d="M737 0h-99l-222 225v-225h-80v225l-222 -225h-99l262 263l-253 257h99l213 -219v219h80v-219l214 219h99l-254 -257z" />
    <glyph glyph-name="uni0437" unicode="&#x437;" horiz-adv-x="513" 
d="M342 276q53 -8 93.5 -40t40.5 -89q0 -72 -63.5 -114t-164.5 -42t-158 50.5t-57 136.5h73q0 -56 39 -91t103 -35q68 0 108.5 27t40.5 72q0 48 -45 73.5t-121 25.5v46q139 3 139 90q0 35 -34 58t-86 23q-55 0 -89.5 -29t-34.5 -73h-73q0 72 53 117t143 45q89 0 142.5 -38.5
t53.5 -97.5q0 -91 -103 -115z" />
    <glyph glyph-name="uni0438" unicode="&#x438;" horiz-adv-x="581" 
d="M58 520h80v-414h2l296 414h87v-520h-80v411h-2l-293 -411h-90v520z" />
    <glyph glyph-name="uni0439" unicode="&#x439;" horiz-adv-x="581" 
d="M381 709h55q0 -56 -36 -92t-109 -36t-109 36t-36 92h55q10 -72 90 -72q82 0 90 72zM58 520h80v-414h2l296 414h87v-520h-80v411h-2l-293 -411h-90v520z" />
    <glyph glyph-name="uni043A" unicode="&#x43a;" horiz-adv-x="539" 
d="M435 0l-211 243l-86 -89v-154h-80v520h80v-272l262 272h94l-219 -225l251 -295h-91z" />
    <glyph glyph-name="uni043B" unicode="&#x43b;" horiz-adv-x="595" 
d="M538 520v-520h-78l-2 456h-241v-240q0 -124 -53 -175.5t-149 -45.5v65q59 -1 90.5 33.5t31.5 125.5v301h401z" />
    <glyph glyph-name="uni043C" unicode="&#x43c;" horiz-adv-x="700" 
d="M58 520h89l203 -428l204 428h89v-520h-80v379h-3l-177 -379h-65l-177 379h-3v-379h-80v520z" />
    <glyph glyph-name="uni043D" unicode="&#x43d;" horiz-adv-x="530" 
d="M393 520h80v-520h-80v238h-255v-238h-80v520h80v-217h255v217z" />
    <glyph glyph-name="uni043E" unicode="&#x43e;" horiz-adv-x="548" 
d="M274 525q60 0 113.5 -27t91 -89t37.5 -149q0 -88 -37.5 -150.5t-91 -89.5t-113.5 -27q-96 0 -168.5 69t-72.5 198q0 66 21.5 118t56.5 83.5t77 47.5t86 16zM438 260q0 97 -47.5 147.5t-116.5 50.5t-116.5 -50.5t-47.5 -147.5q0 -98 47.5 -149t116.5 -51t116.5 51
t47.5 149z" />
    <glyph glyph-name="uni043F" unicode="&#x43f;" 
d="M478 520v-520h-80v456h-260v-456h-80v520h420z" />
    <glyph glyph-name="uni0440" unicode="&#x440;" horiz-adv-x="576" 
d="M313 525q91 0 160.5 -68.5t69.5 -196.5q0 -130 -69.5 -198.5t-162.5 -68.5q-63 0 -107.5 31t-65.5 80v-294h-80v710h80v-98q23 48 69.5 75.5t105.5 27.5zM298 60q71 0 119 51t48 149t-48 148t-119 50q-70 0 -117 -50t-47 -148q0 -96 47.5 -148t116.5 -52z" />
    <glyph glyph-name="uni0441" unicode="&#x441;" horiz-adv-x="523" 
d="M277 60q108 0 142 97h74q-21 -87 -79.5 -125.5t-137.5 -38.5q-99 0 -171 68t-72 198t71.5 198t170.5 68q174 0 214 -160h-74q-34 94 -139 94q-71 0 -118.5 -51.5t-47.5 -148.5t47.5 -148t119.5 -51z" />
    <glyph glyph-name="uni0442" unicode="&#x442;" horiz-adv-x="475" 
d="M445 520v-64h-167v-456h-80v456h-168v64h415z" />
    <glyph glyph-name="uni0443" unicode="&#x443;" 
d="M431 520h82l-224 -558q-36 -90 -85.5 -125t-124.5 -26v70q99 -13 138 84q14 36 4 60l-198 495h83l161 -428z" />
    <glyph glyph-name="uni0444" unicode="&#x444;" horiz-adv-x="588" 
d="M556 259q0 -119 -63.5 -187t-160.5 -79v-178h-75v178q-96 11 -160 79t-64 187t64 187t160 79v180h75v-180q97 -12 160.5 -80t63.5 -186zM100 259q0 -91 42.5 -142t114.5 -61v406q-72 -10 -114.5 -61t-42.5 -142zM332 56q72 10 114 61t42 142t-42 142t-114 61v-406z" />
    <glyph glyph-name="uni0445" unicode="&#x445;" horiz-adv-x="525" 
d="M498 0h-90l-145 209l-146 -209h-89l191 268l-181 252h89l136 -192l135 192h89l-180 -252z" />
    <glyph glyph-name="uni0446" unicode="&#x446;" horiz-adv-x="543" 
d="M478 65h42v-205h-76v140h-386v520h80v-455h260v455h80v-455z" />
    <glyph glyph-name="uni0447" unicode="&#x447;" horiz-adv-x="540" 
d="M403 520h80v-520h-80v260q-11 -40 -61 -82t-124 -42q-84 0 -134.5 48t-50.5 152v184h80v-182q0 -134 131 -134q67 0 107.5 42t51.5 89v185z" />
    <glyph glyph-name="uni0448" unicode="&#x448;" horiz-adv-x="758" 
d="M621 520h80v-520h-643v520h80v-455h203v455h76v-455h204v455z" />
    <glyph glyph-name="uni0449" unicode="&#x449;" horiz-adv-x="766" 
d="M701 65h42v-205h-76v140h-609v520h80v-455h203v455h76v-455h204v455h80v-455z" />
    <glyph glyph-name="uni044A" unicode="&#x44a;" horiz-adv-x="590" 
d="M348 331q100 0 155 -43.5t55 -121.5q0 -79 -55 -122.5t-155 -43.5h-230v456h-90v64h170v-189h150zM349 65q131 0 131 101t-131 101h-151v-202h151z" />
    <glyph glyph-name="uni044B" unicode="&#x44b;" horiz-adv-x="700" 
d="M288 331q100 0 155 -43.5t55 -121.5q0 -79 -55 -122.5t-155 -43.5h-230v520h80v-189h150zM563 520h80v-520h-80v520zM289 65q131 0 131 101t-131 101h-151v-202h151z" />
    <glyph glyph-name="uni044C" unicode="&#x44c;" horiz-adv-x="530" 
d="M288 331q100 0 155 -43.5t55 -121.5q0 -79 -55 -122.5t-155 -43.5h-230v520h80v-189h150zM289 65q131 0 131 101t-131 101h-151v-202h151z" />
    <glyph glyph-name="uni044D" unicode="&#x44d;" horiz-adv-x="525" 
d="M250 525q99 0 170.5 -68t71.5 -198t-72 -198t-171 -68q-79 0 -137.5 38.5t-79.5 125.5h74q34 -97 142 -97q68 0 115 46t52 135h-180v52h178q-9 81 -54.5 123.5t-109.5 42.5q-105 0 -139 -94h-74q40 160 214 160z" />
    <glyph glyph-name="uni044E" unicode="&#x44e;" horiz-adv-x="725" 
d="M451 525q60 0 113.5 -27t91 -89t37.5 -149q0 -88 -37.5 -150.5t-91 -89.5t-113.5 -27q-89 0 -159 60t-81 174h-73v-228h-80v520h80v-227h73q10 113 80.5 173t159.5 60zM451 60q69 0 116.5 51t47.5 149q0 97 -47.5 147.5t-116.5 50.5t-116.5 -50.5t-47.5 -147.5
q0 -98 47.5 -149t116.5 -51z" />
    <glyph glyph-name="uni044F" unicode="&#x44f;" horiz-adv-x="537" 
d="M479 520v-520h-80v189h-191q-45 0 -64 -15.5t-19 -50.5v-45q0 -59 -15 -78h-80q15 19 15 78v45q0 77 67 97q-73 43 -73 134q0 79 55 122.5t155 43.5h230zM399 253v202h-151q-131 0 -131 -101t131 -101h151z" />
    <glyph glyph-name="uni0451" unicode="&#x451;" horiz-adv-x="539" 
d="M208 709v-90h-84v90h84zM421 709v-90h-83v90h83zM507 256q0 -16 -1 -25h-395q7 -89 51.5 -132.5t117.5 -43.5q49 0 80.5 14t54.5 47h74q-59 -123 -213 -123q-104 0 -173.5 68t-69.5 198q0 129 70.5 197.5t171.5 68.5t166.5 -68.5t65.5 -200.5zM111 286h319q-1 85 -43 131
t-112 46q-68 0 -112.5 -45t-51.5 -132z" />
    <glyph glyph-name="uni0453" unicode="&#x453;" horiz-adv-x="418" 
d="M155 581h70l106 128h-88zM390 520v-64h-252v-456h-80v520h332z" />
    <glyph glyph-name="uni0454" unicode="&#x454;" horiz-adv-x="523" 
d="M419 157h74q-21 -87 -79.5 -125.5t-137.5 -38.5q-99 0 -171 68t-72 198t71.5 198t170.5 68q174 0 214 -160h-74q-34 94 -139 94q-64 0 -109.5 -42.5t-54.5 -123.5h178v-52h-180q5 -89 52 -135t115 -46q108 0 142 97z" />
    <glyph glyph-name="uni0457" unicode="&#x457;" horiz-adv-x="195" 
d="M-51 709h84v-90h-84v90zM163 709h83v-90h-83v90zM58 520h80v-520h-80v520z" />
    <glyph glyph-name="uni045C" unicode="&#x45c;" horiz-adv-x="539" 
d="M392 709l-106 -128h-70l88 128h88zM435 0l-211 243l-86 -89v-154h-80v520h80v-272l262 272h94l-219 -225l251 -295h-91z" />
    <glyph glyph-name="uni045E" unicode="&#x45e;" 
d="M358 709h55q0 -56 -36 -92t-109 -36t-109 36t-36 92h55q10 -72 90 -72q82 0 90 72zM431 520h82l-224 -558q-36 -90 -85.5 -125t-124.5 -26v70q99 -13 138 84q14 36 4 60l-198 495h83l161 -428z" />
    <glyph glyph-name="uni0490" unicode="&#x490;" horiz-adv-x="499" 
d="M388 800h84v-173h-331v-627h-83v700h330v100z" />
    <glyph glyph-name="uni0491" unicode="&#x491;" horiz-adv-x="418" 
d="M320 586h70v-130h-252v-456h-80v520h262v66z" />
    <glyph glyph-name="Wgrave" unicode="&#x1e80;" horiz-adv-x="998" 
d="M550 761l-88 128h-88l106 -128h70zM884 700h87l-203 -700h-79l-190 580l-189 -580h-79l-203 700h87l160 -576l181 576h86l182 -576z" />
    <glyph glyph-name="wgrave" unicode="&#x1e81;" horiz-adv-x="803" 
d="M453 581l-88 128h-88l106 -128h70zM781 520l-155 -520h-74l-150 422l-151 -422h-74l-154 520h81l119 -421l146 421h65l147 -421l119 421h81z" />
    <glyph glyph-name="Wacute" unicode="&#x1e82;" horiz-adv-x="998" 
d="M445 761h70l106 128h-88zM884 700h87l-203 -700h-79l-190 580l-189 -580h-79l-203 700h87l160 -576l181 576h86l182 -576z" />
    <glyph glyph-name="wacute" unicode="&#x1e83;" horiz-adv-x="803" 
d="M348 581h70l106 128h-88zM781 520l-155 -520h-74l-150 422l-151 -422h-74l-154 520h81l119 -421l146 421h65l147 -421l119 421h81z" />
    <glyph glyph-name="Wdieresis" unicode="&#x1e84;" horiz-adv-x="998" 
d="M350 889h84v-90h-84v90zM564 889h83v-90h-83v90zM884 700h87l-203 -700h-79l-190 580l-189 -580h-79l-203 700h87l160 -576l181 576h86l182 -576z" />
    <glyph glyph-name="wdieresis" unicode="&#x1e85;" horiz-adv-x="803" 
d="M253 709h84v-90h-84v90zM467 709h83v-90h-83v90zM781 520l-155 -520h-74l-150 422l-151 -422h-74l-154 520h81l119 -421l146 421h65l147 -421l119 421h81z" />
    <glyph glyph-name="uni1E9E" unicode="&#x1e9e;" horiz-adv-x="659" 
d="M391 429q99 -9 162 -69t63 -156q0 -99 -58.5 -156.5t-159.5 -57.5q-100 0 -153.5 53t-53.5 149h80q0 -53 33 -90.5t94 -37.5q64 0 98 40t34 100q0 74 -68 118t-186 42l163 272h-206q-52 0 -72 -23t-20 -74v-539h-83v544q0 90 40.5 128t129.5 38h340z" />
    <glyph glyph-name="Ygrave" unicode="&#x1ef2;" horiz-adv-x="652" 
d="M377 761l-88 128h-88l106 -128h70zM369 274v-274h-85v274l-256 426h93l205 -345l205 345h94z" />
    <glyph glyph-name="ygrave" unicode="&#x1ef3;" 
d="M320 581l-88 128h-88l106 -128h70zM431 520h82l-224 -558q-36 -90 -85.5 -125t-124.5 -26v70q99 -13 138 84q14 36 4 60l-198 495h83l161 -428z" />
    <glyph glyph-name="endash" unicode="&#x2013;" horiz-adv-x="600" 
d="M45 311h510v-62h-510v62z" />
    <glyph glyph-name="emdash" unicode="&#x2014;" horiz-adv-x="660" 
d="M45 311h570v-62h-570v62z" />
    <glyph glyph-name="quoteleft" unicode="&#x2018;" horiz-adv-x="176" 
d="M136 700v-27q-22 -10 -30.5 -30t-8.5 -57v-31h39v-102h-96v127q0 118 96 120z" />
    <glyph glyph-name="quoteright" unicode="&#x2019;" horiz-adv-x="176" 
d="M40 453v27q22 10 30.5 30t8.5 57v31h-39v102h96v-127q0 -118 -96 -120z" />
    <glyph glyph-name="quotesinglbase" unicode="&#x201a;" horiz-adv-x="176" 
d="M40 -145v27q22 10 30.5 30t8.5 57v31h-39v102h96v-127q0 -118 -96 -120z" />
    <glyph glyph-name="quotedblleft" unicode="&#x201c;" horiz-adv-x="340" 
d="M136 701v-27q-22 -10 -30.5 -30t-8.5 -57v-31h39v-102h-96v127q0 118 96 120zM300 701v-27q-22 -10 -30.5 -30t-8.5 -57v-31h39v-102h-96v127q0 118 96 120z" />
    <glyph glyph-name="quotedblright" unicode="&#x201d;" horiz-adv-x="340" 
d="M40 453v27q22 10 30.5 30t8.5 57v31h-39v102h96v-127q0 -118 -96 -120zM204 453v27q22 10 30.5 30t8.5 57v31h-39v102h96v-127q0 -118 -96 -120z" />
    <glyph glyph-name="quotedblbase" unicode="&#x201e;" horiz-adv-x="340" 
d="M40 -145v27q22 10 30.5 30t8.5 57v31h-39v102h96v-127q0 -118 -96 -120zM204 -145v27q22 10 30.5 30t8.5 57v31h-39v102h96v-127q0 -118 -96 -120z" />
    <glyph glyph-name="dagger" unicode="&#x2020;" horiz-adv-x="339" 
d="M289 579v-62h-86v-255h-65v255h-88v62h88v121h65v-121h86z" />
    <glyph glyph-name="daggerdbl" unicode="&#x2021;" horiz-adv-x="339" 
d="M289 487h-86v-273h86v-62h-86v-152h-65v152h-88v62h88v273h-88v62h88v151h65v-151h86v-62z" />
    <glyph glyph-name="bullet" unicode="&#x2022;" horiz-adv-x="261" 
d="M131 183q-34 0 -57.5 23.5t-23.5 57.5q0 33 23.5 56.5t57.5 23.5q33 0 56.5 -23.5t23.5 -56.5q0 -34 -23.5 -57.5t-56.5 -23.5z" />
    <glyph glyph-name="ellipsis" unicode="&#x2026;" horiz-adv-x="690" 
d="M50 102h96v-102h-96v102zM297 102h96v-102h-96v102zM544 102h96v-102h-96v102z" />
    <glyph glyph-name="perthousand" unicode="&#x2030;" horiz-adv-x="1044" 
d="M174 399q-57 0 -93 40.5t-36 112.5t36 112.5t93 40.5t93.5 -40.5t36.5 -112.5t-36.5 -112.5t-93.5 -40.5zM126 0l412 702l61 -2l-410 -700h-63zM174 454q72 0 72 98q0 99 -72 99q-71 0 -71 -99q0 -98 71 -98zM869 -4q-57 0 -93 40.5t-36 112.5t36 112.5t93 40.5
t93.5 -40.5t36.5 -112.5t-36.5 -112.5t-93.5 -40.5zM550 -5q-57 0 -93 40.5t-36 112.5t36 112.5t93 40.5t93.5 -40.5t36.5 -112.5t-36.5 -112.5t-93.5 -40.5zM869 51q72 0 72 98q0 99 -72 99q-71 0 -71 -99q0 -98 71 -98zM550 50q72 0 72 98q0 99 -72 99q-71 0 -71 -99
q0 -98 71 -98z" />
    <glyph glyph-name="guilsinglleft" unicode="&#x2039;" horiz-adv-x="228" 
d="M188 379l-93 -80l93 -80v-78l-148 126v64l148 125v-77z" />
    <glyph glyph-name="guilsinglright" unicode="&#x203a;" horiz-adv-x="213" 
d="M30 379v77l148 -125v-64l-148 -126v78l93 80z" />
    <glyph glyph-name="fraction" unicode="&#x2044;" horiz-adv-x="150" 
d="M-121 0h-44l436 700h44z" />
    <glyph glyph-name="Euro" unicode="&#x20ac;" horiz-adv-x="697" 
d="M583 178h84q-19 -88 -92.5 -137.5t-178.5 -49.5q-117 0 -197.5 68t-102.5 197h-61v52h54q-1 14 -1 42v22h-53v52h58q18 139 99.5 212t203.5 73q104 0 177 -49t92 -137h-85q-42 113 -183 113q-86 0 -144 -54t-74 -158h184v-52h-189v-22q0 -16 2 -42h187v-52h-180
q19 -93 76 -142t138 -49q142 0 186 113z" />
    <glyph glyph-name="trademark" unicode="&#x2122;" horiz-adv-x="494" 
d="M206 666h-63v-146h-39v146h-64v34h166v-34zM454 700v-180h-39v114l-51 -114h-32l-51 114v-114h-39v180h39l67 -142l67 142h39z" />
    <glyph glyph-name="partialdiff" unicode="&#x2202;" horiz-adv-x="581" 
d="M272 464q74 0 123.5 -31t67.5 -83q2 297 -181 297q-60 0 -98 -32.5t-46 -82.5h-70q5 72 60 124.5t154 52.5q72 0 123.5 -30t79.5 -83.5t40.5 -117t12.5 -141.5q0 -172 -65.5 -259.5t-183.5 -87.5q-104 0 -172.5 64.5t-68.5 177.5q0 108 65.5 170t158.5 62zM288 57
q72 0 117.5 52t45.5 138q0 70 -48 114.5t-116 44.5q-72 0 -117 -46t-45 -127q0 -82 45 -129t118 -47z" />
    <glyph glyph-name="product" unicode="&#x220f;" horiz-adv-x="678" 
d="M45 800h588v-990h-75v918h-437v-918h-76v990z" />
    <glyph glyph-name="summation" unicode="&#x2211;" horiz-adv-x="663" 
d="M618 727h-444l234 -422l-234 -422h444v-73h-573l275 495l-275 495h573v-73z" />
    <glyph glyph-name="minus" unicode="&#x2212;" horiz-adv-x="425" 
d="M39 291h298v-62h-298v62z" />
    <glyph glyph-name="radical" unicode="&#x221a;" horiz-adv-x="740" 
d="M695 800l-272 -990h-87l-179 459h-112v84h164l166 -434l242 881h78z" />
    <glyph glyph-name="infinity" unicode="&#x221e;" horiz-adv-x="807" 
d="M594 428q72 0 121.5 -47t49.5 -119q0 -73 -49.5 -120.5t-121.5 -47.5q-97 0 -190 113q-93 -113 -189 -113q-74 0 -123 47t-49 121q0 72 49.5 119t122.5 47q96 0 189 -113q93 113 190 113zM219 158q71 0 143 104q-72 102 -143 102q-46 0 -74.5 -29t-28.5 -73
q0 -45 28.5 -74.5t74.5 -29.5zM588 158q46 0 74.5 29.5t28.5 74.5q0 44 -28.5 73t-74.5 29q-72 0 -142 -102q71 -104 142 -104z" />
    <glyph glyph-name="integral" unicode="&#x222b;" horiz-adv-x="290" 
d="M105 540q0 89 40.5 126.5t124.5 37.5v-70q-43 0 -64 -24t-21 -81v-556q0 -90 -42.5 -126.5t-122.5 -36.5v70q43 0 64 24.5t21 80.5v555z" />
    <glyph glyph-name="approxequal" unicode="&#x2248;" horiz-adv-x="459" 
d="M374 395h40q0 -48 -29.5 -77t-74.5 -29q-32 0 -61 19.5l-56 38.5t-53 19t-41 -14t-14 -31h-40q0 48 29.5 77t75.5 29q32 0 60.5 -19.5l55.5 -38.5t54 -19q26 0 40.5 14t13.5 31zM374 235h40q0 -48 -29.5 -77t-74.5 -29q-32 0 -61 19.5l-56 38.5t-53 19t-41 -14t-14 -31
h-40q0 48 29.5 77t75.5 29q32 0 60.5 -19.5l55.5 -38.5t54 -19q26 0 40.5 14t13.5 31z" />
    <glyph glyph-name="notequal" unicode="&#x2260;" horiz-adv-x="425" 
d="M349 561l-66 -170h53v-62h-77l-38 -98h115v-62h-139l-66 -169h-55l66 169h-104v62h128l38 98h-166v62h190l66 170h55z" />
    <glyph glyph-name="lessequal" unicode="&#x2264;" horiz-adv-x="444" 
d="M393 228l-285 148l285 147v71l-343 -184v-69l343 -184v71zM50 63h344v-63h-344v63z" />
    <glyph glyph-name="greaterequal" unicode="&#x2265;" horiz-adv-x="444" 
d="M51 228v-71l343 184v69l-343 184v-71l285 -147zM394 63v-63h-344v63h344z" />
    <glyph glyph-name="lozenge" unicode="&#x25ca;" horiz-adv-x="507" 
d="M307 700l155 -350l-155 -350h-107l-155 350l155 350h107zM254 64l126 286l-126 286l-127 -286z" />
    <glyph glyph-name="G.ss01" horiz-adv-x="680" 
d="M399 353h238v-353h-77v112q-65 -121 -211 -121q-138 0 -222 92t-84 267q0 174 84.5 266.5t223.5 92.5q101 0 170 -45.5t91 -128.5h-84q-46 101 -176 101q-102 0 -162.5 -73.5t-60.5 -212.5t61 -212t165 -73q93 -1 148.5 50.5t55.5 136.5v32h-160v69z" />
    <glyph glyph-name="G.ss05" horiz-adv-x="680" 
d="M399 353h238v-353h-77v112q-65 -121 -211 -121q-138 0 -222 92t-84 267q0 174 84.5 266.5t223.5 92.5q101 0 170 -45.5t91 -128.5h-84q-46 101 -176 101q-102 0 -162.5 -73.5t-60.5 -212.5t61 -212t165 -73q93 -1 148.5 50.5t55.5 136.5v32h-160v69z" />
    <glyph glyph-name="i.loclTRK" horiz-adv-x="195" 
d="M56 709h84v-90h-84v90zM58 520h80v-520h-80v520z" />
    <glyph glyph-name="a.ss01" horiz-adv-x="572" 
d="M263 525q121 0 172 -100v95h80v-520h-80v101q-20 -50 -64 -79t-108 -29q-93 0 -161.5 68t-68.5 199q0 130 69 197.5t161 67.5zM276 60q70 0 116.5 51t46.5 149q0 100 -46.5 149.5t-116.5 49.5q-71 0 -117 -49.5t-46 -149.5t46 -150t117 -50z" />
    <glyph glyph-name="aacute.ss01" horiz-adv-x="572" 
d="M235 581h70l106 128h-88zM263 525q121 0 172 -100v95h80v-520h-80v101q-20 -50 -64 -79t-108 -29q-93 0 -161.5 68t-68.5 199q0 130 69 197.5t161 67.5zM276 60q70 0 116.5 51t46.5 149q0 100 -46.5 149.5t-116.5 49.5q-71 0 -117 -49.5t-46 -149.5t46 -150t117 -50z" />
    <glyph glyph-name="abreve.ss01" horiz-adv-x="572" 
d="M378 709h55q0 -56 -36 -92t-109 -36t-109 36t-36 92h55q10 -72 90 -72q82 0 90 72zM263 525q121 0 172 -100v95h80v-520h-80v101q-20 -50 -64 -79t-108 -29q-93 0 -161.5 68t-68.5 199q0 130 69 197.5t161 67.5zM276 60q70 0 116.5 51t46.5 149q0 100 -46.5 149.5
t-116.5 49.5q-71 0 -117 -49.5t-46 -149.5t46 -150t117 -50z" />
    <glyph glyph-name="uni01CE.ss01" horiz-adv-x="572" 
d="M382 700h64l-89 -130h-140l-90 130h65l95 -89zM263 525q121 0 172 -100v95h80v-520h-80v101q-20 -50 -64 -79t-108 -29q-93 0 -161.5 68t-68.5 199q0 130 69 197.5t161 67.5zM276 60q70 0 116.5 51t46.5 149q0 100 -46.5 149.5t-116.5 49.5q-71 0 -117 -49.5t-46 -149.5
t46 -150t117 -50z" />
    <glyph glyph-name="acircumflex.ss01" horiz-adv-x="572" 
d="M383 579l-95 89l-95 -89h-65l90 130h140l89 -130h-64zM263 525q121 0 172 -100v95h80v-520h-80v101q-20 -50 -64 -79t-108 -29q-93 0 -161.5 68t-68.5 199q0 130 69 197.5t161 67.5zM276 60q70 0 116.5 51t46.5 149q0 100 -46.5 149.5t-116.5 49.5q-71 0 -117 -49.5
t-46 -149.5t46 -150t117 -50z" />
    <glyph glyph-name="adieresis.ss01" horiz-adv-x="572" 
d="M140 709h84v-90h-84v90zM354 709h83v-90h-83v90zM263 525q121 0 172 -100v95h80v-520h-80v101q-20 -50 -64 -79t-108 -29q-93 0 -161.5 68t-68.5 199q0 130 69 197.5t161 67.5zM276 60q70 0 116.5 51t46.5 149q0 100 -46.5 149.5t-116.5 49.5q-71 0 -117 -49.5
t-46 -149.5t46 -150t117 -50z" />
    <glyph glyph-name="agrave.ss01" horiz-adv-x="572" 
d="M339 581l-88 128h-88l106 -128h70zM263 525q121 0 172 -100v95h80v-520h-80v101q-20 -50 -64 -79t-108 -29q-93 0 -161.5 68t-68.5 199q0 130 69 197.5t161 67.5zM276 60q70 0 116.5 51t46.5 149q0 100 -46.5 149.5t-116.5 49.5q-71 0 -117 -49.5t-46 -149.5t46 -150
t117 -50z" />
    <glyph glyph-name="amacron.ss01" horiz-adv-x="572" 
d="M135 709h307v-50h-307v50zM263 525q121 0 172 -100v95h80v-520h-80v101q-20 -50 -64 -79t-108 -29q-93 0 -161.5 68t-68.5 199q0 130 69 197.5t161 67.5zM276 60q70 0 116.5 51t46.5 149q0 100 -46.5 149.5t-116.5 49.5q-71 0 -117 -49.5t-46 -149.5t46 -150t117 -50z
" />
    <glyph glyph-name="aogonek.ss01" horiz-adv-x="572" 
d="M435 520h80v-520h-19q-61 -21 -92.5 -51t-31.5 -65q0 -31 25 -42.5t69 -1.5v-39q-31 -11 -69 -14t-70 19t-32 64q0 46 43 81t97 49v101q-20 -50 -64 -79t-108 -29q-93 0 -161.5 68t-68.5 199q0 130 69 197.5t161 67.5q121 0 172 -100v95zM276 60q70 0 116.5 51t46.5 149
q0 100 -46.5 149.5t-116.5 49.5q-71 0 -117 -49.5t-46 -149.5t46 -150t117 -50z" />
    <glyph glyph-name="aring.ss01" horiz-adv-x="572" 
d="M289 581q-36 0 -61.5 25t-25.5 60t25.5 60.5t61.5 25.5q37 0 62 -25t25 -61q0 -35 -25 -60t-62 -25zM289 620q20 0 33.5 13.5t13.5 32.5q0 20 -13.5 33t-33.5 13t-33 -13t-13 -33t13.5 -33t32.5 -13zM263 525q121 0 172 -100v95h80v-520h-80v101q-20 -50 -64 -79
t-108 -29q-93 0 -161.5 68t-68.5 199q0 130 69 197.5t161 67.5zM276 60q70 0 116.5 51t46.5 149q0 100 -46.5 149.5t-116.5 49.5q-71 0 -117 -49.5t-46 -149.5t46 -150t117 -50z" />
    <glyph glyph-name="atilde.ss01" horiz-adv-x="572" 
d="M426 700h38q0 -46 -28 -73t-72 -27q-37 0 -84.5 36t-76.5 36q-25 0 -39 -13t-13 -29h-39q0 46 28 73t72 27q37 0 85 -36t77 -36q25 0 39 13t13 29zM263 525q121 0 172 -100v95h80v-520h-80v101q-20 -50 -64 -79t-108 -29q-93 0 -161.5 68t-68.5 199q0 130 69 197.5
t161 67.5zM276 60q70 0 116.5 51t46.5 149q0 100 -46.5 149.5t-116.5 49.5q-71 0 -117 -49.5t-46 -149.5t46 -150t117 -50z" />
    <glyph glyph-name="g.ss01" 
d="M262 126q97 0 165 -42.5t68 -130.5t-68 -130.5t-166 -42.5q-93 0 -160.5 42.5t-67.5 130.5q0 102 110 141q-43 4 -71.5 23.5t-28.5 52.5q0 26 18 44.5t50 23.5q-42 45 -42 116q0 80 53 126t137 46q87 0 139 -47q24 42 85 41v-60q-35 0 -55 -18q22 -39 22 -88
q0 -81 -53 -127t-138 -46q-65 0 -110 27q-40 -4 -40 -37q0 -45 92 -45h61zM259 467q-59 0 -90 -31t-31 -82q0 -52 31 -83t90 -31q60 0 91 31t31 83q0 51 -31.5 82t-90.5 31zM263 -160q71 0 112.5 28t41.5 85t-41.5 85t-112.5 28q-70 0 -111 -28t-41 -85t41 -85t111 -28z" />
    <glyph glyph-name="l.ss01" horiz-adv-x="207" 
d="M184 -2q-66 -7 -96 14t-30 85v608h80v-608q0 -39 46 -38v-61z" />
    <glyph glyph-name="a.ss02" horiz-adv-x="572" 
d="M263 525q121 0 172 -100v95h80v-520h-80v101q-20 -50 -64 -79t-108 -29q-93 0 -161.5 68t-68.5 199q0 130 69 197.5t161 67.5zM276 60q70 0 116.5 51t46.5 149q0 100 -46.5 149.5t-116.5 49.5q-71 0 -117 -49.5t-46 -149.5t46 -150t117 -50z" />
    <glyph glyph-name="aacute.ss02" horiz-adv-x="572" 
d="M234 581h70l106 128h-88zM263 525q121 0 172 -100v95h80v-520h-80v101q-20 -50 -64 -79t-108 -29q-93 0 -161.5 68t-68.5 199q0 130 69 197.5t161 67.5zM276 60q70 0 116.5 51t46.5 149q0 100 -46.5 149.5t-116.5 49.5q-71 0 -117 -49.5t-46 -149.5t46 -150t117 -50z" />
    <glyph glyph-name="abreve.ss02" horiz-adv-x="572" 
d="M378 709h55q0 -56 -36 -92t-109 -36t-109 36t-36 92h55q10 -72 90 -72q82 0 90 72zM263 525q121 0 172 -100v95h80v-520h-80v101q-20 -50 -64 -79t-108 -29q-93 0 -161.5 68t-68.5 199q0 130 69 197.5t161 67.5zM276 60q70 0 116.5 51t46.5 149q0 100 -46.5 149.5
t-116.5 49.5q-71 0 -117 -49.5t-46 -149.5t46 -150t117 -50z" />
    <glyph glyph-name="uni01CE.ss02" horiz-adv-x="572" 
d="M382 700h64l-89 -130h-140l-90 130h65l95 -89zM263 525q121 0 172 -100v95h80v-520h-80v101q-20 -50 -64 -79t-108 -29q-93 0 -161.5 68t-68.5 199q0 130 69 197.5t161 67.5zM276 60q70 0 116.5 51t46.5 149q0 100 -46.5 149.5t-116.5 49.5q-71 0 -117 -49.5t-46 -149.5
t46 -150t117 -50z" />
    <glyph glyph-name="acircumflex.ss02" horiz-adv-x="572" 
d="M383 579l-95 89l-95 -89h-65l90 130h140l89 -130h-64zM263 525q121 0 172 -100v95h80v-520h-80v101q-20 -50 -64 -79t-108 -29q-93 0 -161.5 68t-68.5 199q0 130 69 197.5t161 67.5zM276 60q70 0 116.5 51t46.5 149q0 100 -46.5 149.5t-116.5 49.5q-71 0 -117 -49.5
t-46 -149.5t46 -150t117 -50z" />
    <glyph glyph-name="adieresis.ss02" horiz-adv-x="572" 
d="M139 709h84v-90h-84v90zM353 709h83v-90h-83v90zM263 525q121 0 172 -100v95h80v-520h-80v101q-20 -50 -64 -79t-108 -29q-93 0 -161.5 68t-68.5 199q0 130 69 197.5t161 67.5zM276 60q70 0 116.5 51t46.5 149q0 100 -46.5 149.5t-116.5 49.5q-71 0 -117 -49.5
t-46 -149.5t46 -150t117 -50z" />
    <glyph glyph-name="agrave.ss02" horiz-adv-x="572" 
d="M339 581l-88 128h-88l106 -128h70zM263 525q121 0 172 -100v95h80v-520h-80v101q-20 -50 -64 -79t-108 -29q-93 0 -161.5 68t-68.5 199q0 130 69 197.5t161 67.5zM276 60q70 0 116.5 51t46.5 149q0 100 -46.5 149.5t-116.5 49.5q-71 0 -117 -49.5t-46 -149.5t46 -150
t117 -50z" />
    <glyph glyph-name="amacron.ss02" horiz-adv-x="572" 
d="M134 709h307v-50h-307v50zM263 525q121 0 172 -100v95h80v-520h-80v101q-20 -50 -64 -79t-108 -29q-93 0 -161.5 68t-68.5 199q0 130 69 197.5t161 67.5zM276 60q70 0 116.5 51t46.5 149q0 100 -46.5 149.5t-116.5 49.5q-71 0 -117 -49.5t-46 -149.5t46 -150t117 -50z
" />
    <glyph glyph-name="aogonek.ss02" horiz-adv-x="572" 
d="M435 520h80v-520h-19q-61 -21 -92.5 -51t-31.5 -65q0 -31 25 -42.5t69 -1.5v-39q-31 -11 -69 -14t-70 19t-32 64q0 46 43 81t97 49v101q-20 -50 -64 -79t-108 -29q-93 0 -161.5 68t-68.5 199q0 130 69 197.5t161 67.5q121 0 172 -100v95zM276 60q70 0 116.5 51t46.5 149
q0 100 -46.5 149.5t-116.5 49.5q-71 0 -117 -49.5t-46 -149.5t46 -150t117 -50z" />
    <glyph glyph-name="aring.ss02" horiz-adv-x="572" 
d="M288 581q-36 0 -61.5 25t-25.5 60t25.5 60.5t61.5 25.5t61.5 -25t25.5 -61q0 -35 -25 -60t-62 -25zM288 620q20 0 33.5 13.5t13.5 32.5q0 20 -13.5 33t-33.5 13t-33 -13t-13 -33t13 -33t33 -13zM263 525q121 0 172 -100v95h80v-520h-80v101q-20 -50 -64 -79t-108 -29
q-93 0 -161.5 68t-68.5 199q0 130 69 197.5t161 67.5zM276 60q70 0 116.5 51t46.5 149q0 100 -46.5 149.5t-116.5 49.5q-71 0 -117 -49.5t-46 -149.5t46 -150t117 -50z" />
    <glyph glyph-name="atilde.ss02" horiz-adv-x="572" 
d="M425 700h38q0 -46 -28 -73t-72 -27q-37 0 -84.5 36t-76.5 36q-25 0 -39 -13t-13 -29h-39q0 46 28 73t72 27q37 0 85 -36t77 -36q25 0 39 13t13 29zM263 525q121 0 172 -100v95h80v-520h-80v101q-20 -50 -64 -79t-108 -29q-93 0 -161.5 68t-68.5 199q0 130 69 197.5
t161 67.5zM276 60q70 0 116.5 51t46.5 149q0 100 -46.5 149.5t-116.5 49.5q-71 0 -117 -49.5t-46 -149.5t46 -150t117 -50z" />
    <glyph glyph-name="g.ss03" 
d="M262 126q97 0 165 -42.5t68 -130.5t-68 -130.5t-166 -42.5q-93 0 -160.5 42.5t-67.5 130.5q0 102 110 141q-43 4 -71.5 23.5t-28.5 52.5q0 26 18 44.5t50 23.5q-42 45 -42 116q0 80 53 126t137 46q87 0 139 -47q24 42 85 41v-60q-35 0 -55 -18q22 -39 22 -88
q0 -81 -53 -127t-138 -46q-65 0 -110 27q-40 -4 -40 -37q0 -45 92 -45h61zM259 467q-59 0 -90 -31t-31 -82q0 -52 31 -83t90 -31q60 0 91 31t31 83q0 51 -31.5 82t-90.5 31zM263 -160q71 0 112.5 28t41.5 85t-41.5 85t-112.5 28q-70 0 -111 -28t-41 -85t41 -85t111 -28z" />
    <glyph glyph-name="l.ss04" horiz-adv-x="207" 
d="M184 -2q-66 -7 -96 14t-30 85v608h80v-608q0 -39 46 -38v-61z" />
    <glyph glyph-name="f_t" horiz-adv-x="640" 
d="M551 59q28 0 57 8v-61q-33 -12 -81 -12q-108 0 -108 101v361h-247v-456h-80v456h-72v64h72v54q0 83 38 112.5t99 29.5q46 0 76 -11v-60q-26 7 -60 7q-38 0 -55.5 -18t-17.5 -61v-53h247v130h80v-130h101v-64h-101v-353q0 -44 52 -44z" />
    <glyph glyph-name="r_t" horiz-adv-x="644" 
d="M555 59q28 0 57 8v-61q-33 -12 -81 -12q-108 0 -108 101v361h-71q-183 0 -214 -154v-302h-80v520h80v-127q14 55 67.5 90.5t137.5 36.5h80v130h80v-130h101v-64h-101v-353q0 -44 52 -44z" />
    <glyph glyph-name="Aacutecy" horiz-adv-x="685" 
d="M465 889l-106 -128h-70l88 128h88zM568 0l-68 179h-314l-68 -179h-90l278 700h73l279 -700h-90zM210 243h266l-133 349z" />
    <glyph glyph-name="Ieacutecy" horiz-adv-x="552" 
d="M403 889l-106 -128h-70l88 128h88zM141 74h381v-74h-464v700h454v-73h-371v-233h321v-68h-321v-252z" />
    <glyph glyph-name="Iiacutecy" horiz-adv-x="662" 
d="M278 761h70l106 128h-88zM57 700h84v-572h2l370 572h91v-700h-83v569h-3l-367 -569h-94v700z" />
    <glyph glyph-name="Oacutecy" horiz-adv-x="715" 
d="M304 761h70l106 128h-88zM358 709q142 0 228.5 -93t86.5 -266q0 -172 -86.5 -265.5t-228.5 -93.5q-143 0 -229 93t-86 266t86 266t229 93zM358 65q106 0 167 72.5t61 212.5t-61 213t-167 73t-167.5 -73t-61.5 -213t61.5 -212.5t167.5 -72.5z" />
    <glyph glyph-name="Uacutecy" horiz-adv-x="565" 
d="M229 761h70l106 128h-88zM447 700h91l-234 -558q-38 -90 -87 -125t-123 -26v77q53 -7 82.5 12.5t48.5 64.5q18 44 1 83l-198 472h90l164 -410z" />
    <glyph glyph-name="Yeruacutecy" horiz-adv-x="776" 
d="M511 889l-106 -128h-70l88 128h88zM310 446q122 0 186 -58.5t64 -163.5q0 -106 -64 -165t-186 -59h-252v700h83v-254h169zM636 700h83v-700h-83v700zM311 74q79 0 120 38.5t41 111.5q0 72 -41 110t-120 38h-170v-298h170z" />
    <glyph glyph-name="Ereversedacutecy" horiz-adv-x="665" 
d="M455 889l-106 -128h-70l88 128h88zM314 709q138 0 223 -92.5t85 -266.5t-85 -266.5t-223 -92.5q-105 0 -178.5 49.5t-92.5 137.5h84q44 -113 186 -113q96 0 156.5 67t65.5 194h-248v68h247q-9 118 -68.5 180t-152.5 62q-141 0 -183 -113h-85q19 88 92 137t177 49z" />
    <glyph glyph-name="Iuacutecy" horiz-adv-x="922" 
d="M583 889l-106 -128h-70l88 128h88zM565 709q142 0 228.5 -93t86.5 -266q0 -172 -86.5 -265.5t-228.5 -93.5q-134 0 -218.5 82.5t-95.5 235.5h-110v-309h-83v700h83v-322h110q7 160 92 245.5t222 85.5zM565 65q106 0 167 72.5t61 212.5t-61 213t-167 73t-167.5 -73
t-61.5 -213t61.5 -212.5t167.5 -72.5z" />
    <glyph glyph-name="Iaacutecy" horiz-adv-x="624" 
d="M434 889l-106 -128h-70l88 128h88zM566 700v-700h-83v286h-222q-125 0 -125 -113v-56q0 -90 -20 -117h-83q20 27 20 117v58q0 62 26 97.5t86 52.5q-112 50 -112 175q0 94 60 147t179 53h274zM483 354v273h-190q-155 0 -155 -134q0 -67 38 -103t104 -36h203z" />
    <glyph glyph-name="aacutecy" 
d="M388 709l-106 -128h-70l88 128h88zM474 90q0 -21 8.5 -30.5t29.5 -8.5v-49q-13 -6 -33 -6q-78 0 -78 74v37q-7 -14 -20 -30t-36 -37t-60.5 -34t-81.5 -13q-76 0 -123 40t-47 115q0 67 44.5 102.5t138.5 50.5q146 21 178 38v7q0 65 -31 91.5t-95 26.5q-113 0 -127 -78h-76
q8 69 60.5 104t143.5 35q106 0 155.5 -46t49.5 -152v-237zM394 166v122q-27 -15 -168 -39q-62 -10 -87.5 -33.5t-25.5 -65.5q0 -44 28.5 -70.5t79.5 -26.5q37 0 69.5 13t53 34t32 36.5t18.5 29.5z" />
    <glyph glyph-name="ieacutecy" horiz-adv-x="539" 
d="M395 709l-106 -128h-70l88 128h88zM507 256q0 -16 -1 -25h-395q7 -89 51.5 -132.5t117.5 -43.5q49 0 80.5 14t54.5 47h74q-59 -123 -213 -123q-104 0 -173.5 68t-69.5 198q0 129 70.5 197.5t171.5 68.5t166.5 -68.5t65.5 -200.5zM111 286h319q-1 85 -43 131t-112 46
q-68 0 -112.5 -45t-51.5 -132z" />
    <glyph glyph-name="iiacutecy" horiz-adv-x="581" 
d="M237 581h70l106 128h-88zM58 520h80v-414h2l296 414h87v-520h-80v411h-2l-293 -411h-90v520z" />
    <glyph glyph-name="oacutecy" horiz-adv-x="548" 
d="M220 581h70l106 128h-88zM274 525q60 0 113.5 -27t91 -89t37.5 -149q0 -88 -37.5 -150.5t-91 -89.5t-113.5 -27q-96 0 -168.5 69t-72.5 198q0 66 21.5 118t56.5 83.5t77 47.5t86 16zM438 260q0 97 -47.5 147.5t-116.5 50.5t-116.5 -50.5t-47.5 -147.5q0 -98 47.5 -149
t116.5 -51t116.5 51t47.5 149z" />
    <glyph glyph-name="uacutecy" 
d="M214 581h70l106 128h-88zM431 520h82l-224 -558q-36 -90 -85.5 -125t-124.5 -26v70q99 -13 138 84q14 36 4 60l-198 495h83l161 -428z" />
    <glyph glyph-name="yeruacutecy" horiz-adv-x="700" 
d="M472 709l-106 -128h-70l88 128h88zM288 331q100 0 155 -43.5t55 -121.5q0 -79 -55 -122.5t-155 -43.5h-230v520h80v-189h150zM563 520h80v-520h-80v520zM289 65q131 0 131 101t-131 101h-151v-202h151z" />
    <glyph glyph-name="ereversedacutecy" horiz-adv-x="525" 
d="M385 709l-106 -128h-70l88 128h88zM250 525q99 0 170.5 -68t71.5 -198t-72 -198t-171 -68q-79 0 -137.5 38.5t-79.5 125.5h74q34 -97 142 -97q68 0 115 46t52 135h-180v52h178q-9 81 -54.5 123.5t-109.5 42.5q-105 0 -139 -94h-74q40 160 214 160z" />
    <glyph glyph-name="iuacutecy" horiz-adv-x="725" 
d="M485 709l-106 -128h-70l88 128h88zM451 525q60 0 113.5 -27t91 -89t37.5 -149q0 -88 -37.5 -150.5t-91 -89.5t-113.5 -27q-89 0 -159 60t-81 174h-73v-228h-80v520h80v-227h73q10 113 80.5 173t159.5 60zM451 60q69 0 116.5 51t47.5 149q0 97 -47.5 147.5t-116.5 50.5
t-116.5 -50.5t-47.5 -147.5q0 -98 47.5 -149t116.5 -51z" />
    <glyph glyph-name="iaacutecy" horiz-adv-x="537" 
d="M391 709l-106 -128h-70l88 128h88zM479 520v-520h-80v189h-191q-45 0 -64 -15.5t-19 -50.5v-45q0 -59 -15 -78h-80q15 19 15 78v45q0 77 67 97q-73 43 -73 134q0 79 55 122.5t155 43.5h230zM399 253v202h-151q-131 0 -131 -101t131 -101h151z" />
    <glyph glyph-name="zero.dnom" horiz-adv-x="282" 
d="M141 -2q48 0 77 35t29 91v13q0 56 -29 91t-77 35q-47 0 -76.5 -35t-29.5 -91v-13q0 -56 29.5 -91t76.5 -35zM141 231q31 0 51 -25.5t20 -68.5v-13q0 -43 -20 -68t-51 -25t-51 25t-20 68v13q0 43 20 68.5t51 25.5z" />
    <glyph glyph-name="one.dnom" horiz-adv-x="173" 
d="M128 261v-261h-34v214q-15 -26 -54 -21v32q18 -1 33 10t21 26h34z" />
    <glyph glyph-name="two.dnom" horiz-adv-x="254" 
d="M40 0v9q0 37 16.5 64.5t57.5 53.5l31.5 19.5t16.5 17t8 26.5q0 19 -13 31t-34 12t-34 -13t-13 -36v-7h-36v7q0 37 22 59t61 22t61 -21t22 -54q0 -29 -18 -48.5t-57 -42.5q-52 -31 -52 -64v-3h130v-32h-169z" />
    <glyph glyph-name="three.dnom" horiz-adv-x="269" 
d="M171 139q23 -4 40.5 -20.5t17.5 -45.5q0 -34 -24.5 -55.5t-70.5 -21.5q-44 0 -69 23.5t-25 61.5h35q1 -54 61 -54q26 0 42 12.5t16 36.5q0 47 -65 47h-11v27h11q27 0 40.5 13t13.5 31t-13 29t-36 11q-52 0 -52 -51h-33q0 39 23 60.5t62 21.5q38 0 60.5 -19.5t22.5 -49.5
q0 -44 -46 -57z" />
    <glyph glyph-name="four.dnom" horiz-adv-x="263" 
d="M223 66h-30v-66h-34v66h-119v28l119 167h34v-167h30v-28zM159 94v123l-87 -123h87z" />
    <glyph glyph-name="five.dnom" horiz-adv-x="245" 
d="M130 175q35 0 60 -24t25 -64q0 -43 -25.5 -67.5t-68.5 -24.5q-42 0 -66.5 23.5t-24.5 61.5h33q1 -23 16 -38t42 -15t42.5 15.5t15.5 44.5q0 31 -16.5 45.5t-38.5 14.5q-34 0 -55 -26h-33l21 140h135v-31h-110l-12 -79q18 24 60 24z" />
    <glyph glyph-name="six.dnom" horiz-adv-x="270" 
d="M144 171q36 0 61 -21t25 -63q0 -46 -26.5 -69t-65.5 -23q-43 0 -70.5 32t-27.5 99q0 61 24 99.5t74 38.5q39 0 60.5 -21.5t22.5 -48.5h-31q-6 40 -52 40q-61 0 -64 -100q8 14 27 25.5t43 11.5zM138 27q25 0 40.5 15t15.5 46q0 27 -15.5 41.5t-40.5 14.5t-42 -15.5
t-17 -40.5q0 -28 17 -44.5t42 -16.5z" />
    <glyph glyph-name="seven.dnom" horiz-adv-x="226" 
d="M196 261v-31l-105 -230h-33l106 230h-144v31h176z" />
    <glyph glyph-name="eight.dnom" horiz-adv-x="232" 
d="M161 143q46 -21 46 -67q0 -35 -25.5 -56.5t-65.5 -21.5q-39 0 -65 21.5t-26 56.5q0 46 46 67q-31 21 -31 54q0 27 20.5 46.5t55.5 19.5q36 0 56 -19.5t20 -46.5q0 -35 -31 -54zM70 197q0 -18 13.5 -30t32.5 -12q20 0 33 11.5t13 30.5q0 39 -46 39q-22 0 -34 -11t-12 -28z
M116 26q27 0 42.5 13t15.5 37q0 50 -58 50q-25 0 -42 -13t-17 -37q0 -23 17 -36.5t42 -13.5z" />
    <glyph glyph-name="nine.dnom" horiz-adv-x="270" 
d="M126 89q-36 0 -61 21t-25 62q0 46 26.5 69t65.5 23q43 0 70.5 -32t27.5 -98q0 -62 -24 -100.5t-74 -38.5q-39 0 -60.5 22t-22.5 49h31q6 -41 52 -41q61 0 64 101q-7 -15 -26 -26t-44 -11zM132 232q-25 0 -40.5 -15t-15.5 -45q0 -28 15.5 -42t40.5 -14t42 15t17 40
q0 28 -17 44.5t-42 16.5z" />
    <glyph glyph-name="zero.numr" horiz-adv-x="282" 
d="M141 438q48 0 77 35t29 91v13q0 56 -29 91t-77 35q-47 0 -76.5 -35t-29.5 -91v-13q0 -56 29.5 -91t76.5 -35zM141 671q31 0 51 -25.5t20 -68.5v-13q0 -43 -20 -68t-51 -25t-51 25t-20 68v13q0 43 20 68.5t51 25.5z" />
    <glyph glyph-name="one.numr" horiz-adv-x="178" 
d="M128 701v-261h-34v214q-15 -26 -54 -21v32q18 -1 33 10t21 26h34z" />
    <glyph glyph-name="two.numr" horiz-adv-x="254" 
d="M40 440v9q0 37 16.5 64.5t57.5 53.5l31.5 19.5t16.5 17t8 26.5q0 19 -13 31t-34 12t-34 -13t-13 -36v-7h-36v7q0 37 22 59t61 22t61 -21t22 -54q0 -29 -18 -48.5t-57 -42.5q-52 -31 -52 -64v-3h130v-32h-169z" />
    <glyph glyph-name="three.numr" horiz-adv-x="280" 
d="M171 579q23 -4 40.5 -20.5t17.5 -45.5q0 -34 -24.5 -55.5t-70.5 -21.5q-44 0 -69 23.5t-25 61.5h35q1 -54 61 -54q26 0 42 12.5t16 36.5q0 47 -65 47h-11v27h11q27 0 40.5 13t13.5 31t-13 29t-36 11q-52 0 -52 -51h-33q0 39 23 60.5t62 21.5q38 0 60.5 -19.5t22.5 -49.5
q0 -44 -46 -57z" />
    <glyph glyph-name="four.numr" horiz-adv-x="263" 
d="M223 506h-30v-66h-34v66h-119v28l119 167h34v-167h30v-28zM159 534v123l-87 -123h87z" />
    <glyph glyph-name="five.numr" horiz-adv-x="245" 
d="M130 615q35 0 60 -24t25 -64q0 -43 -25.5 -67.5t-68.5 -24.5q-42 0 -66.5 23.5t-24.5 61.5h33q1 -23 16 -38t42 -15t42.5 15.5t15.5 44.5q0 31 -16.5 45.5t-38.5 14.5q-34 0 -55 -26h-33l21 140h135v-31h-110l-12 -79q18 24 60 24z" />
    <glyph glyph-name="six.numr" horiz-adv-x="270" 
d="M144 610q36 0 61 -21t25 -63q0 -46 -26.5 -69t-65.5 -23q-43 0 -70.5 32t-27.5 99q0 61 24 99.5t74 38.5q39 0 60.5 -21.5t22.5 -48.5h-31q-6 40 -52 40q-61 0 -64 -100q8 14 27 25.5t43 11.5zM138 466q25 0 40.5 15t15.5 46q0 27 -15.5 41.5t-40.5 14.5t-42 -15.5
t-17 -40.5q0 -28 17 -44.5t42 -16.5z" />
    <glyph glyph-name="seven.numr" horiz-adv-x="226" 
d="M196 701v-31l-105 -230h-33l106 230h-144v31h176z" />
    <glyph glyph-name="eight.numr" horiz-adv-x="232" 
d="M161 583q46 -21 46 -67q0 -35 -25.5 -56.5t-65.5 -21.5q-39 0 -65 21.5t-26 56.5q0 46 46 67q-31 21 -31 54q0 27 20.5 46.5t55.5 19.5q36 0 56 -19.5t20 -46.5q0 -35 -31 -54zM70 637q0 -18 13.5 -30t32.5 -12q20 0 33 11.5t13 30.5q0 39 -46 39q-22 0 -34 -11t-12 -28z
M116 466q27 0 42.5 13t15.5 37q0 50 -58 50q-25 0 -42 -13t-17 -37q0 -23 17 -36.5t42 -13.5z" />
    <glyph glyph-name="nine.numr" horiz-adv-x="270" 
d="M126 529q-36 0 -61 21t-25 62q0 46 26.5 69t65.5 23q43 0 70.5 -32t27.5 -98q0 -62 -24 -100.5t-74 -38.5q-39 0 -60.5 22t-22.5 49h31q6 -41 52 -41q61 0 64 101q-7 -15 -26 -26t-44 -11zM132 672q-25 0 -40.5 -15t-15.5 -45q0 -28 15.5 -42t40.5 -14t42 15t17 40
q0 28 -17 44.5t-42 16.5z" />
    <glyph glyph-name="ampersand.001" horiz-adv-x="681" 
d="M649 0h-90l-66 73q-84 -85 -208 -85q-108 0 -175 56t-67 142q0 68 40 112.5t123 92.5q-89 101 -89 172q0 67 43.5 109t126.5 42q79 0 122.5 -42t43.5 -107q0 -57 -31.5 -97t-114.5 -89l176 -196q41 74 44 178h73q-8 -143 -66 -234zM287 653q-48 0 -75.5 -25t-27.5 -68
q0 -31 20 -61.5t62 -74.5q64 36 91.5 67t27.5 70q0 41 -26.5 66.5t-71.5 25.5zM286 58q91 0 157 70l-195 217q-120 -69 -120 -157q0 -57 44 -93.5t114 -36.5z" />
    </font>
</defs>
</svg>
