<?xml version="1.0" encoding="UTF-8"?>
<svg width="62px" height="75px" viewBox="0 0 62 75" version="1.1" xmlns="http://www.w3.org/2000/svg" xmlns:xlink="http://www.w3.org/1999/xlink">
    <!-- Generator: Sketch 49.3 (51167) - http://www.bohemiancoding.com/sketch -->
    <title>idea</title>
    <desc>Created with Sketch.</desc>
    <defs></defs>
    <g id="Page-1" stroke="none" stroke-width="1" fill="none" fill-rule="evenodd">
        <g id="Solutions---Enterprise" transform="translate(-120.000000, -2350.000000)" fill-rule="nonzero">
            <g id="PM" transform="translate(0.000000, 1995.000000)">
                <g id="Group-3" transform="translate(86.000000, 305.000000)">
                    <g id="1">
                        <g id="idea">
                            <g transform="translate(34.000000, 50.190385)">
                                <g id="Group">
                                    <g transform="translate(0.576847, 0.347169)" id="Shape">
                                        <path d="M59.5010653,26.7353142 C59.5010653,12.6688726 46.5039631,1.25236706 30.4645455,1.23421681 C14.4251278,1.21606657 1.3659375,12.6688726 1.3659375,26.7353142 C1.3659375,37.4258099 8.87859375,46.5735345 19.5163494,50.3669362 L19.5163494,67.3011168 C19.5163494,70.3503584 22.3310085,72.8006418 25.7872443,72.8006418 L35.0797585,72.8006418 C38.5566903,72.8006418 41.3506534,70.3322081 41.3506534,67.3011168 L41.3506534,50.3669362 C51.9884091,46.5916847 59.5010653,37.4258099 59.5010653,26.7353142 Z" fill="#FFFFFF"></path>
                                        <path d="M30.4231534,1.25236706 C30.4231534,1.25236706 30.4231534,1.25236706 30.4231534,1.25236706 C30.8370739,1.37941879 54.2856676,8.85732066 54.2856676,26.6082625 C54.2856676,39.8942435 44.2687926,44.5951575 39.0947869,46.1379285 C37.294233,46.682436 36.0938636,48.152606 36.0938636,49.8224287 L36.0938636,58.5345474 L41.3506534,58.5345474 L41.3506534,55.7031088 L41.3506534,50.3669362 C51.9884091,46.5735345 59.5010653,37.4258099 59.5010653,26.7353142 C59.5010653,12.6688726 46.483267,1.25236706 30.4231534,1.25236706 Z" fill="#D3E6F8"></path>
                                        <path d="M34.6865341,72.891393 L26.1597727,72.891393 C22.4758807,72.891393 19.4956534,70.2777574 19.4956534,67.0470134 L19.4956534,58.5163972 L41.3300645,58.5163972 L41.3299574,67.0470134 C41.3506534,70.2777574 38.3704261,72.891393 34.6865341,72.891393 Z" fill="#A4CFF2"></path>
                                        <path d="M36.0938636,72.7643413 C39.0947869,72.2016836 41.3506534,69.8603017 41.3506534,67.0470134 L41.3506534,58.5163972 L36.0938636,58.5163972 L36.0938636,72.7643413 Z" fill="#7BABF1"></path>
                                        <g transform="translate(12.003693, 10.345641)">
                                            <path d="M35.6178551,18.4406512 L35.6178551,14.0664416 L31.2096023,14.0664416 C30.8784659,12.5418209 30.1954972,11.1079513 29.2227841,9.85558426 L32.3271875,7.13304717 L28.8088636,4.04750514 L25.7044602,6.77004223 C24.2764347,5.93513085 22.6621449,5.33617269 20.902983,5.02761849 L20.902983,1.16161582 L15.9359375,1.16161582 L15.9359375,5.02761849 C14.1974716,5.31802245 12.5624858,5.91698061 11.1344602,6.77004223 L8.03005682,4.04750514 L4.51173295,7.13304717 L7.61613636,9.85558426 C6.66411932,11.1079513 5.98115057,12.5236706 5.62931818,14.0664416 L1.22106534,14.0664416 L1.22106534,18.4406512 L5.62931818,18.4406512 C5.96045455,19.965272 6.6434233,21.3991415 7.61613636,22.6515086 L4.51173295,25.3740457 L8.03005682,28.4595877 L11.1344602,25.7370506 C12.5624858,26.571962 14.1767756,27.1709202 15.9359375,27.4794744 L15.9359375,31.345477 L20.902983,31.345477 L20.902983,27.4794744 C22.6414489,27.1890704 24.2764347,26.5901122 25.7044602,25.7370506 L28.8088636,28.4595877 L32.3271875,25.3740457 L29.2227841,22.6515086 C30.1748011,21.3991415 30.8577699,19.9834222 31.2096023,18.4406512 L35.6178551,18.4406512 Z M18.3366761,21.8528977 C14.8183523,21.8528977 11.9623011,19.3481636 11.9623011,16.2626215 C11.9623011,13.1770795 14.8183523,10.6723454 18.3366761,10.6723454 C21.855,10.6723454 24.7110511,13.1770795 24.7110511,16.2626215 C24.7110511,19.3481636 21.855,21.8528977 18.3366761,21.8528977 Z" fill="#FD919E"></path>
                                            <g fill="#4C4372">
                                                <path d="M18.3366761,22.9237623 C14.1560795,22.9237623 10.7412358,19.9289715 10.7412358,16.2626215 C10.7412358,12.5962716 14.1560795,9.6014808 18.3366761,9.6014808 C22.5172727,9.6014808 25.9321165,12.5962716 25.9321165,16.2626215 C25.9321165,19.9289715 22.5172727,22.9237623 18.3366761,22.9237623 Z M18.3366761,11.74321 C15.480625,11.74321 13.1833665,13.7760377 13.1833665,16.2626215 C13.1833665,18.7673557 15.501321,20.7820331 18.3366761,20.7820331 C21.1927273,20.7820331 23.4899858,18.7492054 23.4899858,16.2626215 C23.4899858,13.7760377 21.1927273,11.74321 18.3366761,11.74321 Z"></path>
                                                <path d="M20.902983,32.3981914 L15.9359375,32.3981914 C15.2736648,32.3981914 14.7148722,31.9262849 14.7148722,31.3273268 L14.7148722,28.3143857 C13.5145028,28.042132 12.3762216,27.6246763 11.3207244,27.0801689 L8.87859375,29.2218981 C8.6509375,29.4215508 8.34049716,29.5304523 8.03005682,29.5304523 C7.69892045,29.5304523 7.40917614,29.4215508 7.18151989,29.2218981 L3.66319602,26.1363561 C3.1871875,25.7189004 3.1871875,25.0473412 3.66319602,24.6298855 L6.08463068,22.5063066 C5.46375,21.5624937 4.98774148,20.5642301 4.67730114,19.5296661 L1.24176136,19.5296661 C0.579488636,19.5296661 0.0206960227,19.0577596 0.0206960227,18.4588015 L0.0206960227,14.0845919 C0.0206960227,13.503784 0.558792614,13.0137273 1.24176136,13.0137273 L4.67730114,13.0137273 C4.98774148,11.9610129 5.46375,10.9627493 6.08463068,10.0370867 L3.66319602,7.91350781 C3.1871875,7.49605212 3.1871875,6.82449297 3.66319602,6.40703728 L7.18151989,3.32149525 C7.65752841,2.90403956 8.42328125,2.90403956 8.89928977,3.32149525 L11.3207244,5.44507418 C12.3969176,4.90056676 13.5351989,4.48311107 14.7148722,4.21085736 L14.7148722,1.19791632 C14.7148722,0.617108407 15.2529687,0.127051731 15.9359375,0.127051731 L20.902983,0.127051731 C21.5652557,0.127051731 22.1240483,0.59895816 22.1240483,1.19791632 L22.1240483,4.21085736 C23.3244176,4.48311107 24.4626989,4.90056676 25.518196,5.44507418 L27.9396307,3.32149525 C28.4156392,2.90403956 29.181392,2.90403956 29.6574006,3.32149525 L33.1757244,6.40703728 C33.4033807,6.60669 33.5275568,6.87894371 33.5275568,7.15119742 C33.5275568,7.44160138 33.4033807,7.69570484 33.1757244,7.89535756 L30.7542898,10.0189365 C31.3751705,10.9627493 31.851179,11.9610129 32.1616193,12.995577 L35.5971591,12.995577 C36.2594318,12.995577 36.8182244,13.4674835 36.8182244,14.0664416 L36.8182244,18.4406512 C36.8182244,19.0214591 36.2801278,19.5115158 35.5971591,19.5115158 L32.1616193,19.5115158 C31.851179,20.5642301 31.3751705,21.5624937 30.7542898,22.4881564 L33.1757244,24.6117353 C33.4033807,24.811388 33.5275568,25.0836417 33.5275568,25.3558954 C33.5275568,25.6462994 33.4033807,25.9004028 33.1757244,26.1000556 L29.6574006,29.1855976 C29.4297443,29.3852503 29.119304,29.4941518 28.8088636,29.4941518 C28.4777273,29.4941518 28.187983,29.3852503 27.9603267,29.1855976 L25.538892,27.0620187 C24.4626989,27.6065261 23.3244176,28.0239818 22.1447443,28.2962355 L22.1447443,31.3091765 C22.1240483,31.9262849 21.5859517,32.3981914 20.902983,32.3981914 Z M17.1363068,30.2746124 L19.6819176,30.2746124 L19.6819176,27.4794744 C19.6819176,26.9712674 20.0958381,26.5356615 20.6753267,26.42676 C22.2482244,26.1545063 23.696946,25.6281491 25.0214915,24.8476885 C25.4975,24.5572845 26.1390767,24.6117353 26.5529972,24.9747402 L28.8088636,26.9531172 L30.6094176,25.3740457 L28.3535511,23.3956687 C27.9396307,23.0326638 27.8775426,22.4700061 28.208679,22.0525504 C29.098608,20.8909346 29.6987926,19.6204173 30.009233,18.2409985 C30.1127131,17.7327916 30.6301136,17.3697866 31.2096023,17.3697866 L34.3967898,17.3697866 L34.3967898,15.1373062 L31.2096023,15.1373062 C30.6301136,15.1373062 30.1334091,14.7743013 30.009233,14.2660943 C29.6987926,12.8866756 29.098608,11.6161582 28.208679,10.4545424 C27.8775426,10.0370867 27.9396307,9.47442907 28.3535511,9.11142413 L30.6094176,7.13304717 L28.8088636,5.55397566 L26.5529972,7.53235261 C26.1390767,7.89535756 25.4975,7.9498083 25.0214915,7.65940434 C23.696946,6.87894371 22.2482244,6.35258654 20.6753267,6.08033283 C20.0958381,5.9895816 19.6819176,5.53582541 19.6819176,5.02761849 L19.6819176,2.23248041 L17.1363068,2.23248041 L17.1363068,5.02761849 C17.1363068,5.53582541 16.7223864,5.97143135 16.1428977,6.08033283 C14.57,6.35258654 13.1212784,6.87894371 11.796733,7.65940434 C11.3207244,7.9498083 10.6791477,7.89535756 10.2652273,7.53235261 L8.0093608,5.55397566 L6.20880682,7.13304717 L8.4646733,9.11142413 C8.87859375,9.47442907 8.94068182,10.0370867 8.60954545,10.4545424 C7.71961648,11.6161582 7.11943182,12.8866756 6.80899148,14.2660943 C6.70551136,14.7743013 6.1881108,15.1373062 5.60862216,15.1373062 L2.42143466,15.1373062 L2.42143466,17.3697866 L5.60862216,17.3697866 C6.1881108,17.3697866 6.68481534,17.7327916 6.80899148,18.2409985 C7.11943182,19.6204173 7.71961648,20.8909346 8.60954545,22.0525504 C8.94068182,22.4700061 8.87859375,23.0326638 8.4646733,23.3956687 L6.20880682,25.3740457 L8.0093608,26.9531172 L10.2652273,24.9747402 C10.6791477,24.6117353 11.3207244,24.5572845 11.796733,24.8476885 C13.1212784,25.6281491 14.57,26.1545063 16.1428977,26.42676 C16.7223864,26.5175112 17.1363068,26.9712674 17.1363068,27.4794744 L17.1363068,30.2746124 Z"></path>
                                            </g>
                                        </g>
                                        <path d="M41.3506534,59.5509613 L19.4956534,59.5509613 C18.8333807,59.5509613 18.2745881,59.0790548 18.2745881,58.4800967 C18.2745881,57.8992888 18.8126847,57.4092321 19.4956534,57.4092321 L41.3299574,57.4092321 C41.9922301,57.4092321 42.5510227,57.8811385 42.5510227,58.4800967 C42.5510227,59.0790548 42.0129261,59.5509613 41.3506534,59.5509613 Z" fill="#4C4372"></path>
                                        <path d="M30.4231534,59.5509613 C29.7608807,59.5509613 29.2020881,59.0790548 29.2020881,58.4800967 L29.2020881,50.4576874 C29.2020881,49.8768795 29.7401847,49.3868228 30.4231534,49.3868228 C31.0854261,49.3868228 31.6442187,49.8587292 31.6442187,50.4576874 L31.6442187,58.4982469 C31.6442187,59.0790548 31.0854261,59.5509613 30.4231534,59.5509613 Z" fill="#4C4372"></path>
                                        <path d="M41.3506534,64.4696783 L19.4956534,64.4696783 C18.8333807,64.4696783 18.2745881,63.9977718 18.2745881,63.3988137 C18.2745881,62.8180058 18.8126847,62.3279491 19.4956534,62.3279491 L41.3299574,62.3279491 C41.9922301,62.3279491 42.5510227,62.7998555 42.5510227,63.3988137 C42.5510227,63.9977718 42.0129261,64.4696783 41.3506534,64.4696783 Z" fill="#4C4372"></path>
                                        <path d="M41.1436932,69.0798411 L19.7026136,69.0798411 C19.0403409,69.0798411 18.4815483,68.6079346 18.4815483,68.0089765 C18.4815483,67.4281686 19.0196449,66.9381119 19.7026136,66.9381119 L41.1436932,66.9381119 C41.8059659,66.9381119 42.3647585,67.4100183 42.3647585,68.0089765 C42.3647585,68.6079346 41.8059659,69.0798411 41.1436932,69.0798411 Z" fill="#4C4372"></path>
                                        <path d="M35.0590625,73.8715064 L25.7665483,73.8715064 C21.6273437,73.8715064 18.2745881,70.9311663 18.2745881,67.3011168 L18.2745881,51.0747958 C13.0798864,49.0782686 8.6509375,45.8656748 5.42235795,41.7455687 C1.96612216,37.3169084 0.124176136,32.1259377 0.124176136,26.7353142 C0.124176136,19.6567178 3.29066761,12.9774268 9.02346591,7.9498083 C14.7562642,2.92218981 22.3517045,0.163352225 30.4438494,0.163352225 C47.1248437,0.181502473 60.7014347,12.0880647 60.7014347,26.717164 C60.7014347,32.1077874 58.8594886,37.2987581 55.4032528,41.7274185 C52.1746733,45.8475246 47.7457244,49.0601183 42.5510227,51.0566455 L42.5510227,67.2829666 C42.5510227,70.9311663 39.198267,73.8715064 35.0590625,73.8715064 Z M30.4231534,2.3050814 C22.9932812,2.3050814 16.0187216,4.84611602 10.7412358,9.45627882 C5.46375,14.0845919 2.56630682,20.2193754 2.56630682,26.7353142 C2.56630682,31.6903317 4.24268466,36.4638467 7.42987216,40.5295021 C10.5342756,44.5044063 14.8804403,47.5717981 19.9509659,49.3686726 C20.4062784,49.5320248 20.7167187,49.91318 20.7167187,50.3487859 L20.7167187,67.2829666 C20.7167187,69.73325 22.9932812,71.7297772 25.7872443,71.7297772 L35.0797585,71.7297772 C37.8737216,71.7297772 40.1502841,69.73325 40.1502841,67.2829666 L40.1502841,50.3487859 C40.1502841,49.91318 40.4400284,49.5320248 40.9160369,49.3686726 C45.9865625,47.5536478 50.3327273,44.5044063 53.4371307,40.5295021 C56.6243182,36.4638467 58.300696,31.6903317 58.300696,26.7353142 C58.300696,13.285981 45.8209943,2.32323165 30.4645455,2.3050814 C30.4438494,2.3050814 30.4231534,2.3050814 30.4231534,2.3050814 Z" fill="#4C4372"></path>
                                    </g>
                                </g>
                            </g>
                        </g>
                    </g>
                </g>
            </g>
        </g>
    </g>
</svg>