<?xml version="1.0" encoding="UTF-8"?>
<svg width="332px" height="332px" viewBox="0 0 332 332" version="1.1" xmlns="http://www.w3.org/2000/svg" xmlns:xlink="http://www.w3.org/1999/xlink">
    <!-- Generator: Sketch 3.8.1 (29687) - http://www.bohemiancoding.com/sketch -->
    <title>Page 1</title>
    <desc>Created with Sketch.</desc>
    <defs></defs>
    <g id="Page-1" stroke="none" stroke-width="1" fill="none" fill-rule="evenodd">
        <g id="Desktop-HD" transform="translate(276.000000, -55.000000) scale(1, -1) translate(-276.000000, 55.000000) translate(-444.000000, -567.000000)">
            <g id="Page-1" transform="translate(610.000000, 291.000000) scale(1, -1) translate(-610.000000, -291.000000) translate(444.000000, 125.000000)">
                <path d="M331.997406,166 C331.997406,257.678688 257.678687,332 165.997406,332 C74.3213125,332 0,257.678688 0,166 C0,74.3213125 74.3213125,0 165.997406,0 C257.678687,0 331.997406,74.3213125 331.997406,166" id="Fill-1" fill="#3DB39E"></path>
                <path d="M49.717,134.059266 C49.717,133.045109 48.5627813,132.041328 47.154375,131.826047 L42.3248125,131.094609 C40.9164063,130.879328 39.5884063,129.551328 39.3757188,128.142922 L38.6442813,123.323734 C38.4315938,121.912734 37.4278125,120.758516 36.4136563,120.758516 C35.3995,120.758516 34.3957188,121.912734 34.1830313,123.323734 L33.4515938,128.142922 C33.2389063,129.551328 31.9109063,130.879328 30.5025,131.094609 L25.6729375,131.826047 C24.2645313,132.041328 23.1103125,133.045109 23.1103125,134.059266 C23.1103125,135.073422 24.2645313,136.077203 25.6729375,136.289891 L30.5025,137.021328 C31.9109063,137.234016 33.2389063,138.562016 33.4515938,139.970422 L34.1830313,144.794797 C34.3957188,146.203203 35.3995,147.357422 36.4136563,147.357422 C37.4278125,147.357422 38.418625,146.203203 38.6209375,144.789609 L39.3990625,139.223422 C39.601375,137.809828 40.9267813,136.567422 42.3481563,136.461078 L47.1310313,136.097953 C48.5524063,135.991609 49.717,135.073422 49.717,134.059266" id="Fill-3" fill="#FFFFFF"></path>
                <path d="M305.545825,205.455866 C305.545825,204.441709 304.391606,203.437928 302.9832,203.222647 L298.153638,202.491209 C296.745231,202.275928 295.417231,200.947928 295.204544,199.539522 L294.473106,194.720334 C294.260419,193.309334 293.256638,192.155116 292.242481,192.155116 C291.228325,192.155116 290.224544,193.309334 290.011856,194.720334 L289.280419,199.539522 C289.067731,200.947928 287.739731,202.275928 286.331325,202.491209 L281.501763,203.222647 C280.093356,203.437928 278.939138,204.441709 278.939138,205.455866 C278.939138,206.470022 280.093356,207.473803 281.501763,207.686491 L286.331325,208.417928 C287.739731,208.630616 289.067731,209.958616 289.280419,211.367022 L290.011856,216.191397 C290.224544,217.599803 291.228325,218.754022 292.242481,218.754022 C293.256638,218.754022 294.250044,217.599803 294.449763,216.186209 L295.227888,210.620022 C295.4302,209.206428 296.755606,207.964022 298.176981,207.857678 L302.959856,207.494553 C304.381231,207.388209 305.545825,206.470022 305.545825,205.455866" id="Fill-5" fill="#FFFFFF"></path>
                <path d="M300.873703,132.28125 C298.012797,132.28125 295.688797,134.610437 295.688797,137.471344 C295.688797,140.329656 298.012797,142.65625 300.873703,142.65625 C303.734609,142.65625 306.061203,140.329656 306.061203,137.471344 C306.061203,134.610437 303.734609,132.28125 300.873703,132.28125 M300.873703,147.84375 C295.154484,147.84375 290.501297,143.190562 290.501297,137.471344 C290.501297,131.749531 295.154484,127.09375 300.873703,127.09375 C306.595516,127.09375 311.251297,131.749531 311.251297,137.471344 C311.251297,143.190562 306.595516,147.84375 300.873703,147.84375" id="Fill-7" fill="#FFFFFF"></path>
                <path d="M36.3112031,197.125 C33.4528906,197.125 31.1262969,199.451594 31.1262969,202.315094 C31.1262969,205.176 33.4528906,207.5 36.3112031,207.5 C39.1721094,207.5 41.4987031,205.176 41.4987031,202.315094 C41.4987031,199.451594 39.1721094,197.125 36.3112031,197.125 M36.3112031,212.6875 C30.5919844,212.6875 25.9387969,208.034313 25.9387969,202.315094 C25.9387969,196.593281 30.5919844,191.9375 36.3112031,191.9375 C42.0330156,191.9375 46.6887969,196.593281 46.6887969,202.315094 C46.6887969,208.034313 42.0330156,212.6875 36.3112031,212.6875" id="Fill-9" fill="#FFFFFF"></path>
                <path d="M269.365088,267.136019 L269.365088,267.136019 L269.365088,60.1418 L252.246338,45.813925 L54.6674312,45.813925 L62.098525,66.7428938 L62.098525,267.880425 L62.1348375,267.885613 C62.513525,279.025769 71.1974,288.044238 82.1949,288.939081 L82.1949,289.027269 L291.256338,289.027269 C303.3484,289.027269 313.150181,279.225488 313.150181,267.136019 L269.365088,267.136019 Z" id="Fill-11" fill="#EBEBEB"></path>
                <path d="M63.0680688,66.4749594 C63.0680688,66.4749594 57.3099438,45.5823031 41.6047875,45.8416781 C25.89185,46.0984594 17.3584125,67.0274281 17.3584125,67.0274281 L63.0680688,66.4749594 Z" id="Fill-13" fill="#FF4848"></path>
                <path d="M86.4979312,289.684266 C86.4979312,289.684266 101.3264,285.401984 102.708869,280.606141 C104.091337,275.810297 105.883619,267.136797 105.883619,267.136797 L313.150181,267.136797 C313.150181,267.136797 313.409556,287.513297 283.581431,289.030641 C253.753306,290.547984 86.4979312,289.684266 86.4979312,289.684266" id="Fill-15" fill="#FF4848"></path>
                <path d="M62.0980062,267.136019 C62.0980062,279.225487 71.8971937,289.027269 83.9866625,289.027269 C96.0813187,289.027269 105.8831,279.225487 105.8831,267.136019 L269.364569,267.136019" id="Fill-17" fill="#EBEBEB"></path>
                <path d="M291.854975,287.90625 L96.0761313,287.90625 C102.329662,284.007844 106.705319,277.391187 107.519756,269.72925 L269.180412,269.72925 C269.304912,269.72925 269.408662,269.677375 269.527975,269.659219 C269.647287,269.677375 269.751037,269.72925 269.875537,269.72925 L311.064287,269.72925 C309.790756,279.673687 301.361069,287.90625 291.854975,287.90625 L291.854975,287.90625 Z M20.7510375,64.84375 C22.0375375,55.7837813 30.20785,49.28125 40.1419125,49.28125 C50.1978812,49.28125 58.562725,55.6177812 59.6572875,64.84375 C59.4316312,64.7815 20.7510375,64.84375 20.7510375,64.84375 L20.7510375,64.84375 Z M251.594787,49.28125 C264.400131,51.875 267.157287,58.6057812 267.157287,67.4375 L267.157287,264.5625 L105.0531,264.5625 C103.616162,264.5625 102.448975,265.701156 102.448975,267.1355 C102.448975,277.777656 91.3918187,287.90625 82.1788187,287.90625 C72.9658187,287.90625 65.1767875,276.939875 64.8447875,267.15625 C64.8396,267.036938 64.8447875,67.4375 64.8447875,67.4375 C64.8447875,59.9337813 63.5167875,56.0924375 58.645725,49.28125 L251.594787,49.28125 Z M313.834412,264.5625 L272.344787,264.5625 L272.344787,67.4375 C272.344787,54.46875 267.157287,44.09375 248.41485,44.09375 L40.2378812,44.09375 C40.2067562,44.0963438 40.1730375,44.09375 40.1419125,44.09375 C26.358725,44.09375 15.5635375,54.4635625 15.5635375,67.70725 C15.5635375,69.139 16.7281312,70.03125 18.1676625,70.03125 C18.1676625,70.03125 59.392725,70.1220312 59.6572875,70.03125 L59.6572875,267.15625 C59.6572875,282.71875 70.0322875,293.09375 81.968725,293.09375 L291.854975,293.09375 C304.950819,293.09375 316.438537,280.962781 316.438537,267.1355 C316.438537,265.701156 315.273944,264.5625 313.834412,264.5625 L313.834412,264.5625 Z" id="Fill-19" fill="#663210"></path>
                <path d="M197.155606,83 L165.968356,83 C164.554762,83 163.405731,81.838 163.405731,80.40625 C163.405731,78.9745 164.554762,77.8125 165.968356,77.8125 L197.155606,77.8125 C198.571794,77.8125 199.718231,78.9745 199.718231,80.40625 C199.718231,81.838 198.571794,83 197.155606,83" id="Fill-21" fill="#ADADAD"></path>
                <path d="M220.566016,98.5625 L165.902734,98.5625 C164.522859,98.5625 163.407547,97.4005 163.407547,95.96875 C163.407547,94.537 164.522859,93.375 165.902734,93.375 L220.566016,93.375 C221.945891,93.375 223.063797,94.537 223.063797,95.96875 C223.063797,97.4005 221.945891,98.5625 220.566016,98.5625" id="Fill-23" fill="#ADADAD"></path>
                <path d="M228.201238,83 L210.14355,83 C208.683269,83 207.500519,81.838 207.500519,80.40625 C207.500519,78.9745 208.683269,77.8125 210.14355,77.8125 L228.201238,77.8125 C229.661519,77.8125 230.844269,78.9745 230.844269,80.40625 C230.844269,81.838 229.661519,83 228.201238,83" id="Fill-25" fill="#ADADAD"></path>
                <path d="M147.810809,150.4375 L85.6256531,150.4375 C84.1757469,150.4375 83.0007781,149.2755 83.0007781,147.84375 C83.0007781,146.412 84.1757469,145.25 85.6256531,145.25 L147.810809,145.25 C149.260716,145.25 150.438278,146.412 150.438278,147.84375 C150.438278,149.2755 149.260716,150.4375 147.810809,150.4375" id="Fill-27" fill="#ADADAD"></path>
                <path d="M228.217059,150.4375 L166.031903,150.4375 C164.581997,150.4375 163.407028,149.2755 163.407028,147.84375 C163.407028,146.412 164.581997,145.25 166.031903,145.25 L228.217059,145.25 C229.669559,145.25 230.844528,146.412 230.844528,147.84375 C230.844528,149.2755 229.669559,150.4375 228.217059,150.4375" id="Fill-29" fill="#ADADAD"></path>
                <path d="M152.984044,168.59375 L85.6399188,168.59375 C84.1822313,168.59375 82.9994813,167.43175 82.9994813,166 C82.9994813,164.56825 84.1822313,163.40625 85.6399188,163.40625 L152.984044,163.40625 C154.441731,163.40625 155.624481,164.56825 155.624481,166 C155.624481,167.43175 154.441731,168.59375 152.984044,168.59375" id="Fill-31" fill="#ADADAD"></path>
                <path d="M236.078456,168.59375 L171.141331,168.59375 C169.732925,168.59375 168.594269,167.43175 168.594269,166 C168.594269,164.56825 169.732925,163.40625 171.141331,163.40625 L236.078456,163.40625 C237.486863,163.40625 238.625519,164.56825 238.625519,166 C238.625519,167.43175 237.486863,168.59375 236.078456,168.59375" id="Fill-33" fill="#ADADAD"></path>
                <path d="M119.223016,186.75 L85.6832344,186.75 C84.2022031,186.75 83.0012969,185.590594 83.0012969,184.15625 C83.0012969,182.721906 84.2022031,181.5625 85.6832344,181.5625 L119.223016,181.5625 C120.704047,181.5625 121.907547,182.721906 121.907547,184.15625 C121.907547,185.590594 120.704047,186.75 119.223016,186.75" id="Fill-35" fill="#ADADAD"></path>
                <path d="M147.809513,204.90625 L85.62695,204.90625 C84.1770438,204.90625 82.9994813,203.746844 82.9994813,202.3125 C82.9994813,200.878156 84.1770438,199.71875 85.62695,199.71875 L147.809513,199.71875 C149.259419,199.71875 150.436981,200.878156 150.436981,202.3125 C150.436981,203.746844 149.259419,204.90625 147.809513,204.90625" id="Fill-37" fill="#ADADAD"></path>
                <path d="M228.217059,204.90625 L166.031903,204.90625 C164.581997,204.90625 163.407028,203.746844 163.407028,202.3125 C163.407028,200.878156 164.581997,199.71875 166.031903,199.71875 L228.217059,199.71875 C229.669559,199.71875 230.844528,200.878156 230.844528,202.3125 C230.844528,203.746844 229.669559,204.90625 228.217059,204.90625" id="Fill-39" fill="#ADADAD"></path>
                <path d="M166.089484,186.75 L134.785516,186.75 C133.403047,186.75 132.282547,185.590594 132.282547,184.15625 C132.282547,182.721906 133.403047,181.5625 134.785516,181.5625 L166.089484,181.5625 C167.471953,181.5625 168.595047,182.721906 168.595047,184.15625 C168.595047,185.590594 167.471953,186.75 166.089484,186.75" id="Fill-41" fill="#ADADAD"></path>
                <path d="M215.191766,186.75 L181.651984,186.75 C180.168359,186.75 178.970047,185.590594 178.970047,184.15625 C178.970047,182.721906 180.168359,181.5625 181.651984,181.5625 L215.191766,181.5625 C216.675391,181.5625 217.876297,182.721906 217.876297,184.15625 C217.876297,185.590594 216.675391,186.75 215.191766,186.75" id="Fill-43" fill="#ADADAD"></path>
                <path d="M119.223016,225.65625 L85.6832344,225.65625 C84.2022031,225.65625 83.0012969,224.496844 83.0012969,223.0625 C83.0012969,221.628156 84.2022031,220.46875 85.6832344,220.46875 L119.223016,220.46875 C120.704047,220.46875 121.907547,221.628156 121.907547,223.0625 C121.907547,224.496844 120.704047,225.65625 119.223016,225.65625" id="Fill-45" fill="#ADADAD"></path>
                <path d="M147.809513,243.8125 L85.62695,243.8125 C84.1770438,243.8125 82.9994813,242.653094 82.9994813,241.21875 C82.9994813,239.784406 84.1770438,238.625 85.62695,238.625 L147.809513,238.625 C149.259419,238.625 150.436981,239.784406 150.436981,241.21875 C150.436981,242.653094 149.259419,243.8125 147.809513,243.8125" id="Fill-47" fill="#ADADAD"></path>
                <path d="M228.217059,243.8125 L166.031903,243.8125 C164.581997,243.8125 163.407028,242.653094 163.407028,241.21875 C163.407028,239.784406 164.581997,238.625 166.031903,238.625 L228.217059,238.625 C229.669559,238.625 230.844528,239.784406 230.844528,241.21875 C230.844528,242.653094 229.669559,243.8125 228.217059,243.8125" id="Fill-49" fill="#ADADAD"></path>
                <path d="M166.075219,225.65625 L134.594875,225.65625 C133.204625,225.65625 132.076344,224.496844 132.076344,223.0625 C132.076344,221.628156 133.204625,220.46875 134.594875,220.46875 L166.075219,220.46875 C167.465469,220.46875 168.59375,221.628156 168.59375,223.0625 C168.59375,224.496844 167.465469,225.65625 166.075219,225.65625" id="Fill-51" fill="#ADADAD"></path>
                <path d="M215.191766,225.65625 L181.651984,225.65625 C180.168359,225.65625 178.970047,224.496844 178.970047,223.0625 C178.970047,221.628156 180.168359,220.46875 181.651984,220.46875 L215.191766,220.46875 C216.675391,220.46875 217.876297,221.628156 217.876297,223.0625 C217.876297,224.496844 216.675391,225.65625 215.191766,225.65625" id="Fill-53" fill="#ADADAD"></path>
                <path d="M293.099456,280.125 L119.307831,280.125 C117.878675,280.125 116.719269,278.965594 116.719269,277.53125 C116.719269,276.096906 117.878675,274.9375 119.307831,274.9375 L293.099456,274.9375 C294.528613,274.9375 295.688019,276.096906 295.688019,277.53125 C295.688019,278.965594 294.528613,280.125 293.099456,280.125" id="Fill-55" fill="#FFFFFF"></path>
                <path d="M256.78125,134.875 C255.346906,134.875 254.1875,133.713 254.1875,132.28125 L254.1875,111.53125 C254.1875,110.0995 255.346906,108.9375 256.78125,108.9375 C258.215594,108.9375 259.375,110.0995 259.375,111.53125 L259.375,132.28125 C259.375,133.713 258.215594,134.875 256.78125,134.875" id="Fill-57" fill="#FFFFFF"></path>
                <path d="M256.78125,254.1875 C255.346906,254.1875 254.1875,253.028094 254.1875,251.59375 L254.1875,150.4375 C254.1875,149.00575 255.346906,147.84375 256.78125,147.84375 C258.215594,147.84375 259.375,149.00575 259.375,150.4375 L259.375,251.59375 C259.375,253.028094 258.215594,254.1875 256.78125,254.1875" id="Fill-59" fill="#FFFFFF"></path>
                <polygon id="Fill-61" fill="#FF4848" points="122.303872 84.6768594 97.8759344 95.8714844 117.661059 139.952266 128.209841 130.521391 142.083809 130.433203"></polygon>
                <path d="M101.969909,97.8748969 L119.207972,135.857772 L127.095566,128.885772 C127.565034,128.470772 128.174566,128.237334 128.804847,128.234741 L138.733722,128.169897 L121.602003,88.9757406 L101.969909,97.8748969 Z M118.294972,142.655991 C118.116003,142.655991 117.937034,142.637834 117.758066,142.598928 C116.951409,142.430334 116.271847,141.890834 115.934659,141.146428 L96.1962219,97.6544281 C95.6152219,96.3705219 96.1858469,94.8661469 97.4801281,94.2799594 L121.851003,83.2331781 C122.481284,82.9452719 123.202347,82.9245219 123.855972,83.1709281 C124.504409,83.4173344 125.025753,83.9127406 125.303284,84.5456156 L145.036534,129.689834 C145.381503,130.478334 145.303691,131.386147 144.829034,132.104616 C144.354378,132.823084 143.545128,133.258834 142.678816,133.264022 L129.816409,133.344428 L120.019816,142.004959 C119.542566,142.430334 118.925253,142.655991 118.294972,142.655991 L118.294972,142.655991 Z" id="Fill-63" fill="#663210"></path>
                <polygon id="Fill-65" fill="#FF4848" points="104.2895 86.2294781 127.851125 97.1076656 108.768906 139.946041 98.6403125 130.424384 85.2072813 130.447728"></polygon>
                <path d="M98.6447219,127.671897 C99.2879719,127.671897 99.9104719,127.926084 100.379941,128.382584 L107.665784,135.479084 L123.824847,97.9138031 L105.453316,89.1287719 L89.3850344,127.687459 L98.6421281,127.671897 L98.6447219,127.671897 Z M108.529503,142.539272 C107.891441,142.539272 107.268941,142.290272 106.794284,141.828584 L97.6435344,132.916459 L85.5359094,132.939803 L85.5307219,132.939803 C84.6799719,132.939803 83.8862844,132.496272 83.4168156,131.759647 C82.9473469,131.023022 82.8695344,130.089272 83.2067219,129.277428 L101.832441,84.5819281 C102.102191,83.9334906 102.615753,83.4251156 103.253816,83.1709281 C103.891878,82.9193344 104.602566,82.9478656 105.219878,83.2409594 L128.216066,94.2384594 C129.474034,94.8376156 130.031691,96.3757094 129.468847,97.6829594 L110.840534,140.983022 C110.508534,141.761147 109.831566,142.321397 109.027503,142.487397 C108.861503,142.523709 108.695503,142.539272 108.529503,142.539272 L108.529503,142.539272 Z" id="Fill-67" fill="#663210"></path>
                <path d="M143.659253,89.4109719 C143.659253,91.6467844 140.448191,93.4805656 139.983909,95.5737219 C139.506659,97.7317219 141.607597,100.805316 140.694597,102.758409 C139.758253,104.734847 136.090691,104.960503 134.765284,106.664597 C133.437284,108.373878 134.028659,112.085534 132.360878,113.449847 C130.700878,114.808972 127.297878,113.395378 125.368128,114.349878 C123.469503,115.294003 122.434597,118.904503 120.328472,119.392128 C118.287191,119.871972 115.830909,117.083691 113.649566,117.083691 C111.468222,117.083691 109.011941,119.871972 106.970659,119.392128 C104.864534,118.901909 103.829628,115.291409 101.928409,114.349878 C99.9960656,113.395378 96.5956594,114.808972 94.9356594,113.449847 C93.2678781,112.085534 93.8644406,108.373878 92.5338469,106.664597 C91.2084406,104.963097 87.5382844,104.734847 86.6071281,102.758409 C85.6889406,100.805316 87.7924719,97.7317219 87.3126281,95.5737219 C86.8483469,93.4805656 83.6398781,91.6467844 83.6398781,89.4109719 C83.6398781,87.1803469 86.8535344,85.3413781 87.3126281,83.2534094 C87.7924719,81.0902219 85.6915344,78.0114406 86.6071281,76.0661281 C87.5382844,74.0896906 91.2084406,73.8614406 92.5338469,72.1625344 C93.8644406,70.4506594 93.2704719,66.7364094 94.9356594,65.3695031 C96.5956594,64.0155656 99.9960656,65.4291594 101.928409,64.4772531 C103.829628,63.5305344 104.864534,59.9174406 106.970659,59.4272219 C109.011941,58.9551594 111.468222,61.7434406 113.649566,61.7434406 C115.830909,61.7434406 118.287191,58.9551594 120.328472,59.4272219 C122.434597,59.9226281 123.469503,63.5331281 125.368128,64.4772531 C127.297878,65.4291594 130.703472,64.0155656 132.360878,65.3720969 C134.028659,66.7364094 133.437284,70.4506594 134.765284,72.1625344 C136.090691,73.8614406 139.758253,74.0896906 140.694597,76.0661281 C141.607597,78.0140344 139.506659,81.0902219 139.983909,83.2534094 C140.448191,85.3413781 143.659253,87.1803469 143.659253,89.4109719" id="Fill-69" fill="#FBD000"></path>
                <path d="M100.994659,111.753534 C101.777972,111.753534 102.945159,111.815784 104.031941,112.352691 C105.429972,113.042628 106.322222,114.321347 107.110722,115.449628 C107.471253,115.968378 108.078191,116.837284 108.371284,116.987722 C108.524316,116.938441 109.388034,116.453409 109.906784,116.162909 C111.125847,115.478159 112.510909,114.702628 114.124222,114.702628 C115.737534,114.702628 117.120003,115.478159 118.341659,116.162909 C118.824097,116.432659 119.612597,116.876191 119.967941,116.948816 C120.227316,116.759472 120.795347,115.945034 121.140316,115.449628 C121.926222,114.321347 122.815878,113.045222 124.211316,112.352691 C125.300691,111.815784 126.467878,111.753534 127.251191,111.753534 C127.686941,111.753534 128.135659,111.774284 128.584378,111.800222 C128.944909,111.818378 129.308034,111.839128 129.655597,111.839128 C130.278097,111.839128 130.462253,111.763909 130.480409,111.756128 C130.578972,111.574566 130.760534,110.513722 130.866878,109.878253 C131.100316,108.511347 131.364878,106.957691 132.329753,105.717878 C133.302409,104.467691 134.736753,103.855566 135.999909,103.316066 C136.570534,103.072253 137.530222,102.665034 137.727347,102.410847 C137.753284,102.187784 137.467972,101.155472 137.296784,100.538159 C136.925878,99.1971906 136.505691,97.6746594 136.848066,96.1235969 C137.185253,94.6010656 138.199409,93.4338781 139.091659,92.4041594 C139.522222,91.9113469 140.243284,91.0813469 140.297753,90.7519406 C140.240691,90.4770031 139.522222,89.6470031 139.091659,89.1515969 C138.196816,88.1244719 137.185253,86.9572844 136.848066,85.4399406 C136.505691,83.8810969 136.925878,82.3585656 137.299378,81.0175969 C137.467972,80.4002844 137.753284,79.3705656 137.680659,79.0489406 C137.530222,78.8933156 136.567941,78.4835031 135.994722,78.2396906 C134.734159,77.7027844 133.302409,77.0906594 132.332347,75.8430656 C131.362284,74.6006594 131.100316,73.0470031 130.866878,71.6775031 C130.763128,71.0653781 130.591941,70.0512219 130.394816,69.7477531 C130.381847,69.7659094 130.163972,69.7192219 129.658191,69.7192219 C129.308034,69.7192219 128.947503,69.7399719 128.584378,69.7607219 C128.135659,69.7814719 127.684347,69.8048156 127.246003,69.8048156 C126.465284,69.8048156 125.300691,69.7451594 124.216503,69.2108469 C122.815878,68.5157219 121.923628,67.2370031 121.137722,66.1061281 C120.774597,65.5847844 120.167659,64.7158781 119.871972,64.5628469 C119.731909,64.6173156 118.865597,65.1049406 118.346847,65.3954406 C117.125191,66.0801906 115.740128,66.8583156 114.124222,66.8583156 C112.508316,66.8583156 111.123253,66.0801906 109.901597,65.3954406 C109.382847,65.1023469 108.516534,64.6173156 108.207878,64.5965656 C108.078191,64.7158781 107.471253,65.5873781 107.108128,66.1087219 C106.322222,67.2344094 105.432566,68.5131281 104.037128,69.2056594 C102.945159,69.7451594 101.780566,69.8048156 100.999847,69.8048156 C100.564097,69.8048156 100.112784,69.7814719 99.6614719,69.7581281 C99.2983469,69.7399719 98.9352219,69.7192219 98.5850656,69.7192219 C97.9651594,69.7192219 97.7810031,69.7944406 97.7628469,69.8022219 C97.6694719,69.9811906 97.4905031,71.0394406 97.3841594,71.6723156 C97.1507219,73.0444094 96.8887531,74.5980656 95.9212844,75.8404719 C94.9460344,77.0906594 93.5142844,77.7027844 92.2537219,78.2396906 C91.6805031,78.4835031 90.7234094,78.8933156 90.5236906,79.1449094 C90.4977531,79.3705656 90.7804719,80.4002844 90.9516594,81.0150031 C91.3225656,82.3585656 91.7453469,83.8836906 91.4003781,85.4399406 C91.0657844,86.9572844 90.0516281,88.1244719 89.1567844,89.1541906 C88.7262219,89.6470031 88.0077531,90.4770031 87.9506906,90.8038156 C88.0077531,91.0813469 88.7262219,91.9113469 89.1567844,92.4067531 C90.0490344,93.4364719 91.0605969,94.6010656 91.4003781,96.1184094 C91.7453469,97.6746594 91.3225656,99.1971906 90.9516594,100.540753 C90.7804719,101.155472 90.4951594,102.185191 90.5677844,102.509409 C90.7208156,102.665034 91.6805031,103.074847 92.2537219,103.318659 C93.5142844,103.858159 94.9460344,104.470284 95.9212844,105.717878 C96.8887531,106.960284 97.1507219,108.513941 97.3815656,109.883441 C97.4853156,110.495566 97.6565031,111.504534 97.8510344,111.810597 C97.8743781,111.784659 98.0818781,111.839128 98.5902531,111.839128 L98.5902531,111.839128 C98.9404094,111.839128 99.3009406,111.818378 99.6614719,111.800222 C100.110191,111.774284 100.558909,111.753534 100.994659,111.753534 M120.030191,121.905472 C118.466159,121.905472 117.112222,121.148097 115.919097,120.478909 C115.369222,120.170253 114.451034,119.656691 114.124222,119.651503 C113.797409,119.656691 112.879222,120.170253 112.329347,120.478909 C110.863878,121.298534 108.996378,122.214128 107.180753,121.786159 C105.170597,121.319284 103.993034,119.633347 103.048909,118.279409 C102.698753,117.778816 102.112566,116.941034 101.832441,116.785409 C101.819472,116.780222 101.632722,116.702409 100.994659,116.702409 C100.644503,116.702409 100.281378,116.720566 99.9208469,116.741316 C99.4721281,116.764659 99.0234094,116.788003 98.5902531,116.788003 C97.5268156,116.788003 95.9627844,116.668691 94.6918469,115.628597 C93.1122531,114.334316 92.7724719,112.324159 92.4975344,110.708253 C92.3911906,110.077972 92.2148156,109.024909 92.0125031,108.757753 C91.8127844,108.511347 90.8686594,108.109316 90.3058156,107.868097 C88.8118156,107.232628 86.9520969,106.436347 86.0676281,104.566253 C85.2065031,102.732472 85.7460031,100.784566 86.1791594,99.2205344 C86.3633156,98.5539406 86.6434406,97.5423781 86.5656281,97.1948156 C86.4904094,96.8861594 85.8160344,96.1132219 85.4165969,95.6489406 C84.3401906,94.4091281 82.9992219,92.8632531 82.9992219,90.7778781 C82.9992219,88.6925031 84.3401906,87.1518156 85.4165969,85.9120031 C85.8160344,85.4503156 86.4878156,84.6773781 86.5656281,84.3687219 C86.6434406,84.0133781 86.3633156,83.0018156 86.1765656,82.3326281 C85.7460031,80.7685969 85.2090969,78.8206906 86.0676281,76.9972844 C86.9520969,75.1194094 88.8144094,74.3257219 90.3084094,73.6876594 C90.8712531,73.4464406 91.8127844,73.0470031 92.0125031,72.8005969 C92.2148156,72.5386281 92.3937844,71.4803781 92.5001281,70.8475031 C92.7750656,69.2315969 93.1148469,67.2214406 94.6892531,65.9323469 C95.9653781,64.8922531 97.5242219,64.7703469 98.5850656,64.7703469 C99.0208156,64.7703469 99.4721281,64.7936906 99.9234406,64.8170344 C100.283972,64.8351906 100.649691,64.8559406 100.999847,64.8559406 C101.635316,64.8559406 101.822066,64.7807219 101.840222,64.7703469 C102.109972,64.6225031 102.696159,63.7795344 103.046316,63.2789406 C103.990441,61.9224094 105.168003,60.2338781 107.191128,59.7644094 C108.998972,59.3416281 110.866472,60.2624094 112.326753,61.0794406 C112.876628,61.3880969 113.797409,61.9042531 114.124222,61.9094406 C114.451034,61.9042531 115.371816,61.3880969 115.921691,61.0794406 C117.381972,60.2598156 119.233909,59.3364406 121.059909,59.7644094 C123.085628,60.2390656 124.258003,61.9250031 125.202128,63.2789406 C125.552284,63.7795344 126.135878,64.6199094 126.416003,64.7755344 C126.426378,64.7807219 126.613128,64.8559406 127.246003,64.8559406 C127.598753,64.8559406 127.961878,64.8351906 128.325003,64.8170344 C128.773722,64.7936906 129.225034,64.7703469 129.658191,64.7703469 C130.724222,64.7703469 132.285659,64.8922531 133.556597,65.9323469 C135.133597,67.2188469 135.475972,69.2341906 135.750909,70.8500969 C135.857253,71.4803781 136.036222,72.5386281 136.238534,72.8031906 C136.435659,73.0470031 137.377191,73.4490344 137.942628,73.6876594 C139.436628,74.3257219 141.296347,75.1194094 142.180816,76.9920969 C143.041941,78.8258781 142.505034,80.7711906 142.071878,82.3352219 C141.885128,83.0070031 141.605003,84.0159719 141.682816,84.3713156 C141.760628,84.6747844 142.429816,85.4477219 142.831847,85.9094094 C143.908253,87.1492219 145.249222,88.6925031 145.249222,90.7778781 C145.249222,92.8632531 143.908253,94.4091281 142.831847,95.6489406 C142.429816,96.1106281 141.758034,96.8861594 141.682816,97.1948156 C141.605003,97.5423781 141.885128,98.5513469 142.069284,99.2205344 C142.502441,100.784566 143.041941,102.729878 142.183409,104.561066 C141.296347,106.436347 139.439222,107.230034 137.945222,107.868097 C137.382378,108.109316 136.438253,108.511347 136.238534,108.757753 C136.036222,109.024909 135.857253,110.077972 135.750909,110.708253 C135.475972,112.324159 135.133597,114.336909 133.554003,115.626003 C132.283066,116.666097 130.721628,116.788003 129.655597,116.788003 C129.222441,116.788003 128.773722,116.764659 128.325003,116.741316 C127.964472,116.720566 127.601347,116.702409 127.251191,116.702409 C126.615722,116.702409 126.428972,116.780222 126.408222,116.788003 C126.135878,116.941034 125.552284,117.778816 125.204722,118.279409 C124.258003,119.633347 123.080441,121.321878 121.057316,121.791347 C120.733097,121.866566 120.382941,121.905472 120.030191,121.905472" id="Fill-71" fill="#663210"></path>
                <path d="M114.125,77.8125 C106.974031,77.8125 101.15625,83.6302812 101.15625,90.78125 C101.15625,97.9322188 106.974031,103.75 114.125,103.75 C121.275969,103.75 127.09375,97.9322188 127.09375,90.78125 C127.09375,83.6302812 121.275969,77.8125 114.125,77.8125 M114.125,108.9375 C104.113125,108.9375 95.96875,100.793125 95.96875,90.78125 C95.96875,80.769375 104.113125,72.625 114.125,72.625 C124.136875,72.625 132.28125,80.769375 132.28125,90.78125 C132.28125,100.793125 124.136875,108.9375 114.125,108.9375" id="Fill-73" fill="#663210"></path>
                <path d="M122.058763,93.375 C120.710013,93.375 119.618044,92.2700625 119.618044,90.90575 C119.618044,87.8399375 117.153981,85.3473438 114.124481,85.3473438 C111.094981,85.3473438 108.633513,87.8399375 108.633513,90.90575 C108.633513,92.2700625 107.53895,93.375 106.1902,93.375 C104.844044,93.375 103.749481,92.2700625 103.749481,90.90575 C103.749481,85.1165 108.405263,80.40625 114.124481,80.40625 C119.846294,80.40625 124.499481,85.1165 124.499481,90.90575 C124.499481,92.2700625 123.407513,93.375 122.058763,93.375" id="Fill-75" fill="#FFFFFF"></path>
            </g>
        </g>
    </g>
</svg>