<?xml version="1.0" encoding="UTF-8"?>
<svg width="329px" height="329px" viewBox="0 0 329 329" version="1.1" xmlns="http://www.w3.org/2000/svg" xmlns:xlink="http://www.w3.org/1999/xlink">
    <!-- Generator: Sketch 3.8.1 (29687) - http://www.bohemiancoding.com/sketch -->
    <title>Page 1</title>
    <desc>Created with Sketch.</desc>
    <defs>
        <polygon id="path-1" points="0 0 0 10.28125 328.999486 10.28125 328.999486 1.82631688e-14 3.483423e-20 1.82631688e-14"></polygon>
        <polygon id="path-3" points="0 0 0 10.28125 328.999486 10.28125 328.999486 3.65263375e-14 3.483423e-20 3.65263375e-14"></polygon>
        <polygon id="path-5" points="3.483423e-20 0 3.483423e-20 5.140625 328.999743 5.140625 328.999743 0 0 0"></polygon>
    </defs>
    <g id="Page-1" stroke="none" stroke-width="1" fill="none" fill-rule="evenodd">
        <g id="Desktop-HD" transform="translate(275.000000, -62.000000) scale(1, -1) translate(-275.000000, 62.000000) translate(-445.000000, -574.000000)">
            <g id="Page-1" transform="translate(609.500000, 285.500000) scale(1, -1) translate(-609.500000, -285.500000) translate(445.000000, 121.000000)">
                <path d="M328.99743,164.5 C328.99743,255.350266 255.350266,329 164.49743,329 C73.6497344,329 0,255.350266 0,164.5 C0,73.6497344 73.6497344,0 164.49743,0 C255.350266,0 328.99743,73.6497344 328.99743,164.5" id="Fill-1" fill="#28A5C6"></path>
                <path d="M3.65215703,198.995907 C19.5084148,273.277938 85.4857664,328.999743 164.497173,328.999743 C243.51372,328.999743 309.488501,273.277938 325.344759,198.995907 L3.65215703,198.995907 Z" id="Fill-3" fill="#FF4848"></path>
                <g id="Group-7" transform="translate(0.000000, 195.343750)">
                    <mask id="mask-2" fill="white">
                        <use xlink:href="#path-1"></use>
                    </mask>
                    <g id="Clip-6"></g>
                    <path d="M324.75847,10.28125 L5.14011094,10.28125 C2.29734531,10.28125 -0.0005140625,7.97825 -0.0005140625,5.140625 C-0.0005140625,2.30042969 2.29734531,0 5.14011094,0 L324.75847,0 C327.601236,0 328.999486,2.30042969 328.999486,5.140625 C328.999486,7.97825 327.601236,10.28125 324.75847,10.28125" id="Fill-5" fill="#E01F1F" mask="url(#mask-2)"></path>
                </g>
                <path d="M216.230623,269.882813 C215.333584,269.882813 214.421123,269.677188 213.578061,269.242805 C210.94092,267.880539 209.987334,264.785883 211.454983,262.333805 C219.361264,249.114688 224.525022,235.273555 228.200569,217.461289 C228.766037,214.703344 231.644787,212.901555 234.598077,213.425898 C237.564217,213.952813 239.509944,216.618227 238.939334,219.371031 C235.04017,238.291102 229.511428,253.062688 221.016545,267.271375 C220.016694,268.939508 218.153217,269.882813 216.230623,269.882813" id="Fill-8" fill="#FFFFFF"></path>
                <path d="M237.89553,182.492187 C237.764445,182.492187 237.633359,182.487047 237.502273,182.476766 C234.672359,182.26343 232.554421,179.79593 232.770327,176.966016 C233.662226,165.158 234.034921,152.90532 233.870421,140.547258 C233.191859,88.7734531 201.006405,61.6823594 169.563773,61.6823594 C92.3053195,61.6823594 87.563093,128.441086 87.398593,141.824703 C87.2572258,153.118656 88.0000461,163.299664 89.8789445,175.865922 C90.2979055,178.670133 88.3650305,181.286711 85.5608195,181.708242 C82.7463273,182.142625 80.1400305,180.191758 79.7210695,177.384977 C77.7547805,164.248109 76.9811164,153.573602 77.1276242,141.696187 C77.9526945,75.053125 127.438921,51.40625 169.563773,51.40625 C206.044218,51.40625 243.375437,81.9801172 244.14139,140.411031 C244.30846,153.072391 243.928054,165.630937 243.010452,177.74225 C242.807398,180.438508 240.555804,182.492187 237.89553,182.492187" id="Fill-10" fill="#FFFFFF"></path>
                <path d="M113.954805,267.3125 C112.227555,267.3125 110.54143,266.454016 109.572422,264.896406 C109.132898,264.18957 98.7077109,247.307758 89.7218984,220.149836 C88.8402812,217.486992 90.3156406,214.626234 93.0144687,213.757469 C95.7158672,212.888703 98.61775,214.34093 99.4967969,217.006344 C108.0765,242.938227 118.231805,259.426781 118.334617,259.591281 C119.817687,261.976531 119.059445,265.099461 116.638211,266.561969 C115.800289,267.070891 114.872406,267.3125 113.954805,267.3125" id="Fill-12" fill="#FFFFFF"></path>
                <path d="M167.295729,246.75 C166.591463,246.75 165.874346,246.613773 165.185502,246.325898 C162.460971,245.18468 161.196377,242.105445 162.36587,239.442602 C162.412135,239.337219 167.051549,228.726969 171.863174,215.315078 C172.845034,212.580266 175.908846,211.148602 178.702776,212.099617 C181.499276,213.055773 182.974635,216.047617 181.995346,218.779859 C177.055205,232.549023 172.426073,243.12843 172.230729,243.573094 C171.359393,245.559945 169.380252,246.75 167.295729,246.75" id="Fill-14" fill="#FFFFFF"></path>
                <path d="M187.12132,181.131721 C186.995375,181.131721 186.872,181.12658 186.746055,181.116299 C184.042086,180.900393 182.01925,178.430323 182.224875,175.602979 C184.232289,147.928424 181.888164,126.67451 176.102391,120.133065 C174.94318,118.824776 173.765977,118.238745 172.290617,118.238745 C169.967055,118.238745 167.962211,119.233455 166.327492,121.192034 C163.649227,124.404924 159.580422,133.100291 162.436039,155.248674 L162.646805,156.867971 C163.389625,162.53294 164.312367,169.585877 164.045055,175.726354 C163.92168,178.563979 161.639242,180.723041 158.919852,180.62794 C156.213312,180.496854 154.118508,178.091041 154.241883,175.255987 C154.470641,170.051104 153.614727,163.514799 152.925883,158.266221 L152.712547,156.623791 C150.139664,136.662745 152.234469,122.466909 158.940414,114.426971 C162.472023,110.193666 167.088305,107.957495 172.290617,107.957495 C176.490508,107.957495 180.297141,109.751573 183.299266,113.144385 C193.457141,124.631112 193.642203,153.870987 192.007484,176.379213 C191.812141,179.078041 189.663359,181.131721 187.12132,181.131721" id="Fill-16" fill="#FFFFFF"></path>
                <path d="M146.302959,244.179688 C145.794037,244.179688 145.277404,244.100008 144.768482,243.930367 C142.180177,243.069313 140.766505,240.231688 141.612138,237.594547 C141.640412,237.509727 144.33667,229.06368 147.05092,217.22225 C147.667795,214.518281 150.322927,212.832156 152.97549,213.472164 C155.628052,214.101891 157.278193,216.803289 156.658748,219.504688 C153.841685,231.803633 151.106873,240.360203 150.991209,240.717477 C150.310076,242.835414 148.377201,244.179688 146.302959,244.179688" id="Fill-18" fill="#FFFFFF"></path>
                <path d="M182.487818,267.3125 C181.68074,267.3125 180.85567,267.119727 180.092287,266.711047 C177.581091,265.371914 176.622365,262.236133 177.948646,259.704375 C180.961052,253.952016 190.134498,236.440477 198.228412,214.166148 C199.20256,211.477602 202.16356,210.102484 204.821263,211.081773 C207.489248,212.066203 208.856654,215.042625 207.879935,217.731172 C199.549552,240.66607 190.131927,258.642836 187.037271,264.549414 C186.117099,266.310078 184.333302,267.3125 182.487818,267.3125" id="Fill-20" fill="#FFFFFF"></path>
                <path d="M132.790569,181.77687 C130.032623,181.77687 127.768178,179.543268 127.714202,176.739057 C127.660225,174.017096 127.266967,170.552315 126.848006,166.884479 C126.524147,164.026291 126.184866,161.031877 125.958678,158.045174 C123.938412,131.478424 130.037764,106.654346 141.876623,93.263018 C147.981116,86.3565883 155.617514,82.5525258 163.960748,82.2569398 C178.842858,81.7531586 193.406248,87.7805414 203.9471,98.8431664 C212.765842,108.098862 222.841467,125.286541 220.772366,154.590674 C220.178623,163.02901 218.939733,169.734955 217.502928,177.01151 C216.955452,179.797729 214.274616,181.604659 211.526952,181.04433 C208.776717,180.489143 206.99035,177.780034 207.540397,174.996385 C208.907803,168.069393 210.085006,161.700159 210.637623,153.858135 C212.064147,133.650338 207.221678,117.094955 196.62942,105.978354 C188.211647,97.1467602 176.151741,92.1243695 164.312881,92.5330492 C158.725022,92.728393 153.723194,95.2807133 149.448764,100.118041 C139.54792,111.319463 134.301912,133.74801 136.09085,157.256088 C136.306756,160.114276 136.633186,162.977604 136.944194,165.709846 C137.388858,169.627002 137.810389,173.328252 137.872077,176.533432 C137.928623,179.371057 135.700162,181.720323 132.895952,181.77687 L132.790569,181.77687 Z" id="Fill-22" fill="#FFFFFF"></path>
                <path d="M123.209729,236.46875 C122.772776,236.46875 122.330682,236.407062 121.888588,236.281117 C119.241166,235.520305 117.686127,232.651836 118.413526,229.873328 C118.426377,229.821922 119.76037,224.701859 121.230588,216.651641 C121.747221,213.824297 124.356088,211.971102 127.049776,212.513437 C129.746034,213.055773 131.511838,215.788016 130.995205,218.615359 C129.442737,227.107672 128.057338,232.415367 127.998221,232.638984 C127.391627,234.952266 125.391924,236.46875 123.209729,236.46875" id="Fill-24" fill="#FFFFFF"></path>
                <path d="M103.658133,182.492187 C101.33457,182.492187 99.2037812,180.973133 98.5689141,178.664992 C97.8286641,175.973875 80.9622734,112.096469 128.944867,60.61825 C130.911156,58.5105937 134.244852,58.3640859 136.396203,60.28925 C138.544984,62.2144141 138.696633,65.4838516 136.730344,67.5915078 C92.6109297,114.923812 108.585422,175.369852 108.752492,175.976445 C109.510734,178.73182 107.847742,181.569445 105.03582,182.309695 C104.575734,182.43307 104.113078,182.492187 103.658133,182.492187" id="Fill-26" fill="#FFFFFF"></path>
                <g id="Group-30" transform="translate(0.000000, 190.203125)">
                    <mask id="mask-4" fill="white">
                        <use xlink:href="#path-3"></use>
                    </mask>
                    <g id="Clip-29"></g>
                    <path d="M324.75847,10.28125 L5.14011094,10.28125 C2.29734531,10.28125 -0.0005140625,7.97825 -0.0005140625,5.140625 C-0.0005140625,2.30042969 2.29734531,0 5.14011094,0 L324.75847,0 C327.601236,0 328.999486,2.30042969 328.999486,5.140625 C328.999486,7.97825 327.601236,10.28125 324.75847,10.28125" id="Fill-28" fill="#FF4848" mask="url(#mask-4)"></path>
                </g>
                <g id="Group-33" transform="translate(0.000000, 192.773438)">
                    <mask id="mask-6" fill="white">
                        <use xlink:href="#path-5"></use>
                    </mask>
                    <g id="Clip-32"></g>
                    <path d="M326.416579,5.140625 L2.58290703,5.140625 C1.15638359,5.140625 -0.00025703125,3.99169531 -0.00025703125,2.5703125 C-0.00025703125,1.14892969 1.15638359,0 2.58290703,0 L326.416579,0 C327.845673,0 328.999743,1.14892969 328.999743,2.5703125 C328.999743,3.99169531 327.845673,5.140625 326.416579,5.140625" id="Fill-31" fill="#FFFFFF" mask="url(#mask-6)"></path>
                </g>
                <path d="M285.305716,182.492187 L43.6937703,182.492187 C42.2749578,182.492187 41.1260281,181.343258 41.1260281,179.921875 C41.1260281,178.500492 42.2749578,177.351562 43.6937703,177.351562 L285.305716,177.351562 C286.727098,177.351562 287.876028,178.500492 287.876028,179.921875 C287.876028,181.343258 286.727098,182.492187 285.305716,182.492187" id="Fill-34" fill="#FFFFFF"></path>
                <path d="M285.305716,215.90625 L43.6937703,215.90625 C42.2749578,215.90625 41.1260281,214.75732 41.1260281,213.335938 C41.1260281,211.914555 42.2749578,210.765625 43.6937703,210.765625 L285.305716,210.765625 C286.727098,210.765625 287.876028,211.914555 287.876028,213.335938 C287.876028,214.75732 286.727098,215.90625 285.305716,215.90625" id="Fill-36" fill="#FFFFFF"></path>
                <path d="M311.007812,215.90625 C309.58643,215.90625 308.4375,214.703344 308.4375,213.215133 L308.4375,180.040109 C308.4375,178.554469 309.58643,177.351562 311.007812,177.351562 C312.429195,177.351562 313.578125,178.554469 313.578125,180.040109 L313.578125,213.215133 C313.578125,214.703344 312.429195,215.90625 311.007812,215.90625" id="Fill-38" fill="#FFFFFF"></path>
                <path d="M17.9921875,215.90625 C16.573375,215.90625 15.421875,214.703344 15.421875,213.215133 L15.421875,180.040109 C15.421875,178.554469 16.573375,177.351562 17.9921875,177.351562 C19.411,177.351562 20.5625,178.554469 20.5625,180.040109 L20.5625,213.215133 C20.5625,214.703344 19.411,215.90625 17.9921875,215.90625" id="Fill-40" fill="#FFFFFF"></path>
                <path d="M267.310444,69.3984375 C264.475389,69.3984375 262.172389,71.7040078 262.172389,74.5416328 C262.172389,77.3766875 264.475389,79.6796875 267.310444,79.6796875 C270.148069,79.6796875 272.453639,77.3766875 272.453639,74.5416328 C272.453639,71.7040078 270.148069,69.3984375 267.310444,69.3984375 M267.310444,84.8203125 C261.642905,84.8203125 257.031764,80.2091719 257.031764,74.5416328 C257.031764,68.8715234 261.642905,64.2578125 267.310444,64.2578125 C272.980553,64.2578125 277.594264,68.8715234 277.594264,74.5416328 C277.594264,80.2091719 272.980553,84.8203125 267.310444,84.8203125" id="Fill-42" fill="#FFFFFF"></path>
                <path d="M74.5367492,257.03125 C71.7016945,257.03125 69.3986945,259.33682 69.3986945,262.174445 C69.3986945,265.0095 71.7016945,267.3125 74.5367492,267.3125 C77.3743742,267.3125 79.6799445,265.0095 79.6799445,262.174445 C79.6799445,259.33682 77.3743742,257.03125 74.5367492,257.03125 M74.5367492,272.453125 C68.8692102,272.453125 64.2580695,267.841984 64.2580695,262.174445 C64.2580695,256.504336 68.8692102,251.890625 74.5367492,251.890625 C80.2068586,251.890625 84.8205695,256.504336 84.8205695,262.174445 C84.8205695,267.841984 80.2068586,272.453125 74.5367492,272.453125" id="Fill-44" fill="#FFFFFF"></path>
                <path d="M138.794819,23.1328125 C135.959764,23.1328125 133.656764,25.4383828 133.656764,28.2760078 C133.656764,31.1110625 135.959764,33.4140625 138.794819,33.4140625 C141.632444,33.4140625 143.938014,31.1110625 143.938014,28.2760078 C143.938014,25.4383828 141.632444,23.1328125 138.794819,23.1328125 M138.794819,38.5546875 C133.12728,38.5546875 128.516139,33.9435469 128.516139,28.2760078 C128.516139,22.6058984 133.12728,17.9921875 138.794819,17.9921875 C144.464928,17.9921875 149.078639,22.6058984 149.078639,28.2760078 C149.078639,33.9435469 144.464928,38.5546875 138.794819,38.5546875" id="Fill-46" fill="#FFFFFF"></path>
                <path d="M51.6247266,119.858298 C51.6247266,118.853306 50.4809375,117.858595 49.0852578,117.64783 L44.2993359,116.920431 C42.9036562,116.709666 41.5876562,115.391095 41.3768906,113.992845 L40.6546328,109.217205 C40.4438672,107.818955 39.4491562,106.675166 38.4441641,106.675166 C37.4391719,106.675166 36.4444609,107.818955 36.2336953,109.217205 L35.5088672,113.992845 C35.2981016,115.391095 33.9821016,116.709666 32.5864219,116.920431 L27.7979297,117.64783 C26.40225,117.858595 25.2584609,118.853306 25.2584609,119.858298 C25.2584609,120.863291 26.40225,121.858002 27.8005,122.068767 L32.5864219,122.793595 C33.9821016,123.004361 35.2981016,124.320361 35.5088672,125.718611 L36.2336953,130.494252 C36.4444609,131.892502 37.4391719,133.036291 38.4441641,133.036291 C39.4491562,133.036291 40.4310156,131.892502 40.6289297,130.491681 L41.4025937,124.97322 C41.6005078,123.5724 42.9113672,122.34122 44.3224687,122.235837 L49.062125,121.878564 C50.4732266,121.773181 51.6247266,120.863291 51.6247266,119.858298" id="Fill-48" fill="#FFFFFF"></path>
                <path d="M293.161105,136.781236 C293.161105,135.776244 292.017316,134.781533 290.621636,134.570767 L285.835714,133.843369 C284.440034,133.630033 283.124034,132.314033 282.913269,130.915783 L282.191011,126.140142 C281.980245,124.741892 280.985534,123.598103 279.980542,123.598103 C278.97812,123.598103 277.980839,124.741892 277.770073,126.140142 L277.045245,130.915783 C276.83448,132.314033 275.51848,133.630033 274.1228,133.843369 L269.334308,134.570767 C267.938628,134.781533 266.794839,135.776244 266.794839,136.781236 C266.794839,137.786228 267.938628,138.780939 269.339448,138.991705 L274.1228,139.716533 C275.51848,139.927298 276.83448,141.243298 277.045245,142.641548 L277.770073,147.417189 C277.980839,148.815439 278.97812,149.959228 279.980542,149.959228 C280.985534,149.959228 281.967394,148.815439 282.165308,147.414619 L282.938972,141.896158 C283.136886,140.495338 284.447745,139.264158 285.858847,139.158775 L290.598503,138.801502 C292.009605,138.696119 293.161105,137.786228 293.161105,136.781236" id="Fill-50" fill="#FFFFFF"></path>
                <path d="M221.144804,40.5425672 C221.144804,39.537575 220.001015,38.5428641 218.605335,38.3320984 L213.819413,37.6047 C212.423734,37.3939344 211.107734,36.0753641 210.896968,34.6771141 L210.17471,29.9014734 C209.963945,28.5032234 208.969234,27.3594344 207.964241,27.3594344 C206.959249,27.3594344 205.964538,28.5032234 205.753773,29.9014734 L205.028945,34.6771141 C204.818179,36.0753641 203.502179,37.3939344 202.106499,37.6047 L197.318007,38.3320984 C195.922327,38.5428641 194.778538,39.537575 194.778538,40.5425672 C194.778538,41.5475594 195.922327,42.5422703 197.320577,42.7530359 L202.106499,43.4778641 C203.502179,43.6886297 204.818179,45.0046297 205.028945,46.4028797 L205.753773,51.1785203 C205.964538,52.5767703 206.959249,53.7205594 207.964241,53.7205594 C208.969234,53.7205594 209.951093,52.5767703 210.149007,51.17595 L210.922671,45.6574891 C211.120585,44.2566687 212.431445,43.0254891 213.842546,42.9201062 L218.582202,42.5628328 C219.993304,42.45745 221.144804,41.5475594 221.144804,40.5425672" id="Fill-52" fill="#FFFFFF"></path>
                <path d="M187.062974,294.890668 C187.062974,293.885676 185.919185,292.890965 184.523505,292.680199 L179.737584,291.95023 C178.341904,291.739465 177.025904,290.423465 176.815138,289.025215 L176.09288,284.249574 C175.882115,282.851324 174.887404,281.707535 173.882412,281.707535 C172.87999,281.707535 171.882709,282.851324 171.671943,284.249574 L170.947115,289.025215 C170.736349,290.423465 169.420349,291.739465 168.02467,291.95023 L163.236177,292.680199 C161.840498,292.890965 160.696709,293.885676 160.696709,294.890668 C160.696709,295.89566 161.840498,296.890371 163.241318,297.101137 L168.02467,297.825965 C169.420349,298.03673 170.736349,299.35273 170.947115,300.75098 L171.671943,305.526621 C171.882709,306.924871 172.87999,308.06866 173.882412,308.06866 C174.887404,308.06866 175.871834,306.924871 176.067177,305.524051 L176.840841,300.00559 C177.038755,298.60477 178.349615,297.37359 179.760716,297.268207 L184.500373,296.910934 C185.911474,296.805551 187.062974,295.89566 187.062974,294.890668" id="Fill-54" fill="#FFFFFF"></path>
            </g>
        </g>
    </g>
</svg>