<svg xmlns="http://www.w3.org/2000/svg" width="117" height="153" viewBox="0 0 117 153">
    <g fill="none" fill-rule="evenodd" stroke="#FFF" stroke-linecap="round" stroke-linejoin="round" stroke-width="2">
        <path d="M21 17l19-8M20 18L1 9M21 110V17M39 31.85V9.265L20.06 1 1 8.835v91.9L19.94 109l9.526-3.914M58 53l19-8M58 54l-19-9M58 129V52M77 69.316V45.3L58.06 37 39 44.862v76.845L57.94 130l9.526-3.927M96 90l19-8M97 91l-19-9M96 152V91M116 82.31L97.06 74 78 81.878v60.812L96.94 151l19.06-7.878z"/>
    </g>
</svg>
