<?xml version="1.0" encoding="UTF-8"?>
<svg width="768px" height="761px" viewBox="0 0 768 761" version="1.1" xmlns="http://www.w3.org/2000/svg" xmlns:xlink="http://www.w3.org/1999/xlink">
    <!-- Generator: Sketch 3.8.1 (29687) - http://www.bohemiancoding.com/sketch -->
    <title>Tablet Portrait</title>
    <desc>Created with Sketch.</desc>
    <defs></defs>
    <g id="Page-1" stroke="none" stroke-width="1" fill="none" fill-rule="evenodd">
        <g id="Tablet-Portrait">
            <g id="Header-008" transform="translate(-215.000000, -29.000000)">
                <rect id="Rectangle-18" fill="#FEFDFD" x="215" y="29" width="1440" height="749"></rect>
                <g id="Background">
                    <g id="Shapes" transform="translate(319.803301, 0.390832)" fill="#1C84F8">
                        <polygon id="_1" points="0 787.562815 981.943169 787.562815 981.943169 2.55795385e-13 787.128793 2.55795385e-13"></polygon>
                        <polyline id="_2" points="499.334828 787.562815 981.943169 286.475974 981.943169 2.84217094e-13 787.128793 2.84217094e-13 0 787.562815 499.334828 787.562815"></polyline>
                    </g>
                    <g id="blue-triangle" transform="translate(0.000000, 35.000000)">
                        <path d="M203.426696,643.354357 C159.020255,598.402131 114.35599,553.708169 69.4339021,509.27247 C24.511814,464.836772 32.6041922,434.615129 93.7110368,418.607541 C154.817881,402.60055 215.831134,386.241354 276.750796,369.529952 C337.670458,352.818551 359.779491,374.942161 343.077895,435.900782 C326.376896,496.85821 310.028503,557.911666 294.032718,619.061152 C278.036933,680.210637 247.834925,688.308373 203.426696,643.354357 L203.426696,643.354357 Z" id="2" fill="#EAF3FD"></path>
                        <path d="M350.280844,592.447472 C330.56167,611.951463 310.955761,631.569675 291.463114,651.302108 C271.970468,671.03454 258.712976,667.48028 251.69064,640.639329 C244.6689,613.798975 237.492465,586.999775 230.161337,560.241731 C222.830209,533.483686 232.535399,523.772548 259.276909,531.108315 C286.017823,538.444678 312.800167,545.625368 339.623942,552.650384 C366.447717,559.675399 370.000017,572.941095 350.280844,592.447472 L350.280844,592.447472 Z" id="3" fill="#91C6FC"></path>
                        <path d="M324.563141,507.963258 C243.4663,507.496555 162.369096,507.499103 81.2715269,507.970903 C0.173958257,508.442702 -19.8963183,473.659116 21.0606972,403.620144 C62.0184405,333.578259 102.569772,263.305207 142.714691,192.800987 C182.85961,122.296768 223.00271,122.296768 263.143991,192.800987 C303.284544,263.305935 343.830781,333.576075 384.782703,403.611407 C425.734625,473.646739 405.661438,508.430689 324.563141,507.963258 L324.563141,507.963258 Z" id="1" stroke="#3999FB"></path>
                        <g id="up" transform="translate(493.000000, 0.000000)" fill="#EAF3FD">
                            <path d="M83.4378615,142.04542 C60.8447761,119.176841 38.123226,96.4400787 15.2732113,73.8351319 C-7.57680336,51.2301851 -3.46027166,35.8557317 27.6228064,27.7117716 C58.7118458,19.5690044 89.7505127,11.2467051 120.738807,2.74487361 C151.727102,-5.75695787 162.974464,5.49779933 154.480895,36.5091452 C145.984345,67.5198947 137.66842,98.5789568 129.533121,129.686331 C121.397822,160.793706 106.032735,164.913402 83.4378615,142.04542 L83.4378615,142.04542 Z" id="_4"></path>
                        </g>
                        <g id="down" transform="translate(768.000000, 648.000000)">
                            <path d="M265.042396,87.5974989 C245.325607,107.10149 225.716121,126.719702 206.213936,146.452134 C186.711752,166.184567 173.450982,162.630009 166.431626,135.788461 C159.41227,108.948106 152.234942,82.1492051 144.899641,55.3917572 C137.564339,28.6343093 147.272213,18.9231707 174.02326,26.2583415 C200.768347,33.5947051 227.555162,40.7753947 254.383706,47.8004102 C281.21225,54.8254257 284.765146,68.091122 265.042396,87.5974989 L265.042396,87.5974989 Z" id="_5" fill="#FFFFFF" opacity="0.1"></path>
                            <path d="M84.3990538,143.275131 C61.606267,120.212109 38.6853136,97.2814989 15.6361936,74.4833016 C-7.41292642,51.6851042 -3.28477031,36.2044823 28.0206619,28.0414357 C59.3260941,19.8789856 90.5868171,11.5355122 121.802831,3.01101552 C153.018844,-5.51348115 164.363077,5.83700665 155.835529,37.0624789 C147.313941,68.2885477 138.974172,99.5626308 130.81622,130.884728 C122.658268,162.206826 107.185879,166.33696 84.3990538,143.275131 L84.3990538,143.275131 Z" id="_6" stroke="#FFFFFF" opacity="0.3"></path>
                        </g>
                    </g>
                </g>
            </g>
            <g id="white-triangle" transform="translate(645.000000, 145.000000)">
                <path d="M324.563141,368.963258 C243.4663,368.496555 162.369096,368.499103 81.2715269,368.970903 C0.173958257,369.442702 -19.8963183,334.659116 21.0606972,264.620144 C62.0184405,194.578259 102.569772,124.305207 142.714691,53.8009873 C182.85961,-16.7032322 223.00271,-16.7032322 263.143991,53.8009873 C303.284544,124.305935 343.830781,194.576075 384.782703,264.611407 C425.734625,334.646739 405.661438,369.430689 324.563141,368.963258 L324.563141,368.963258 Z" id="1" stroke="#FEFDFD" fill="#1C84F8"></path>
                <path d="M203.426696,504.354357 C159.020255,459.402131 114.35599,414.708169 69.4339021,370.27247 C24.511814,325.836772 32.6041922,295.615129 93.7110368,279.607541 C154.817881,263.60055 215.831134,247.241354 276.750796,230.529952 C337.670458,213.818551 359.779491,235.942161 343.077895,296.900782 C326.376896,357.85821 310.028503,418.911666 294.032718,480.061152 C278.036933,541.210637 247.834925,549.308373 203.426696,504.354357 L203.426696,504.354357 Z" id="2" stroke="#FEFDFD" fill="#EAF3FD"></path>
                <g id="down" transform="translate(8.000000, 509.000000)" stroke="#FFFFFF" opacity="0.3">
                    <path d="M84.3990538,143.275131 C61.606267,120.212109 38.6853136,97.2814989 15.6361936,74.4833016 C-7.41292642,51.6851042 -3.28477031,36.2044823 28.0206619,28.0414357 C59.3260941,19.8789856 90.5868171,11.5355122 121.802831,3.01101552 C153.018844,-5.51348115 164.363077,5.83700665 155.835529,37.0624789 C147.313941,68.2885477 138.974172,99.5626308 130.81622,130.884728 C122.658268,162.206826 107.185879,166.33696 84.3990538,143.275131 L84.3990538,143.275131 Z" id="_6"></path>
                </g>
            </g>
        </g>
    </g>
</svg>