<?xml version="1.0" encoding="UTF-8"?>
<svg width="783px" height="467px" viewBox="0 0 783 467" version="1.1" xmlns="http://www.w3.org/2000/svg" xmlns:xlink="http://www.w3.org/1999/xlink">
    <!-- Generator: Sketch 3.8.1 (29687) - http://www.bohemiancoding.com/sketch -->
    <title>Page 1</title>
    <desc>Created with Sketch.</desc>
    <defs>
        <polygon id="path-1" points="0 680.599218 1132.54925 680.599218 1132.54925 0 0 0"></polygon>
    </defs>
    <g id="Page-1" stroke="none" stroke-width="1" fill="none" fill-rule="evenodd">
        <g id="Gatepass-Landing-Page-4" transform="translate(-572.000000, -2507.000000)">
            <g id="features" transform="translate(0.000000, 2172.000000)">
                <g id="Page-1" transform="translate(397.000000, 276.000000)">
                    <polygon id="Fill-9" fill="#728A7D" points="876.128356 139.131065 795.463049 89.0584719 714.799275 139.131065 709.480767 139.124935 709.480767 142.518076 722.776269 142.518076 722.776269 264.933245 868.149828 264.933245 868.149828 142.518076 881.446863 142.518076 881.446863 139.112674"></polygon>
                    <path d="M634.383871,105.463867 L634.87908,71.3393456 C634.87908,71.3393456 640.747989,59.0970625 652.864496,59.0970625 C664.022783,59.0970625 670.849913,71.3393456 670.849913,71.3393456 L670.741059,105.522105 L696.432103,143.202222 L696.432103,83.0283658 L700.421367,83.0283658 L700.421367,67.7316422 L708.875172,67.7316422 L708.875172,83.0283658 L713.33818,83.0283658 L713.33818,167.997903 L716.984017,173.346622 L716.984017,451.308366 L588.743442,451.308366 L588.743442,173.346622 L634.383871,105.463867 Z" id="Fill-11" fill="#728A7D"></path>
                    <path d="M539.250353,183.89402 C536.317432,178.769058 529.11468,170.021067 514.008524,170.021067 C498.919233,170.021067 491.471176,178.995881 488.449332,184.088658 L434.316769,184.091724 L434.315236,214.953373 L434.315236,214.953373 L434.315236,525.257243 L596.200851,525.257243 L596.200851,218.257625 L596.200851,214.953373 L596.200851,183.523135 L539.250353,183.89402 Z" id="Fill-13" fill="#728A7D"></path>
                    <polygon id="Fill-15" fill="#728A7D" points="341.027174 194.059652 291.595258 137.864384 291.607523 133.769319 284.082809 133.755526 284.084342 137.928753 234.707619 194.059652 224.193257 194.051989 224.193257 198.147054 239.964801 198.147054 239.964801 495.822429 335.769993 495.822429 335.769993 198.147054 351.541537 198.147054 351.541537 194.036663"></polygon>
                    <mask id="mask-2" fill="white">
                        <use xlink:href="#path-1"></use>
                    </mask>
                    <g id="Clip-18"></g>
                    <polygon id="Fill-17" fill="#CD4E45" mask="url(#mask-2)" points="530.358986 145.477497 538.812792 145.477497 538.812792 128.186881 530.358986 128.186881"></polygon>
                    <polygon id="Fill-19" fill="#F27475" mask="url(#mask-2)" points="523.901346 249.933843 540.807424 249.933843 540.807424 143.482072 523.901346 143.482072"></polygon>
                    <path d="M558.218521,139.096122 C558.218521,136.915255 556.449263,135.146653 554.267586,135.146653 C552.08591,135.146653 550.316651,136.915255 550.316651,139.096122 C550.316651,141.071623 551.771613,142.693098 553.66659,142.984289 C553.510209,143.968208 553.327763,145.103853 553.120788,146.37743 C552.800359,146.293138 552.472264,146.2349 552.125772,146.2349 C549.944095,146.2349 548.174837,148.003502 548.174837,150.184369 C548.174837,152.259489 549.780048,153.940733 551.813008,154.103187 C551.54164,155.657228 551.251874,157.278702 550.946777,158.940023 C550.741335,158.906307 550.532826,158.875655 550.316651,158.875655 C548.134975,158.875655 546.365716,160.644257 546.365716,162.825124 C546.365716,164.716333 547.696493,166.29183 549.470351,166.679574 C549.215847,167.957749 548.955211,169.232859 548.689976,170.498774 C548.519796,170.477318 548.351149,170.446666 548.174837,170.446666 C545.99316,170.446666 544.223901,172.215268 544.223901,174.396136 C544.223901,176.158608 545.386031,177.632954 546.98051,178.141772 C546.457705,180.318041 545.925701,182.362509 545.392164,184.224599 C545.021141,184.109655 544.633253,184.02996 544.223901,184.02996 C542.042225,184.02996 540.272966,185.798563 540.272966,187.97943 C540.272966,189.625426 541.283314,191.035403 542.716812,191.626981 C541.907307,193.338877 541.018079,194.883722 540.076723,196.264581 C539.36074,195.532005 538.362658,195.073763 537.255722,195.073763 C535.074045,195.073763 533.304786,196.842365 533.304786,199.023232 C533.304786,200.328994 533.947178,201.478432 534.925329,202.197214 C533.720271,203.283817 532.585738,204.155857 531.592255,204.831727 C530.910002,203.648572 529.646684,202.842432 528.182523,202.842432 C526.000846,202.842432 524.231588,204.611035 524.231588,206.791902 C524.231588,208.972769 526.000846,210.741372 528.182523,210.741372 L528.182523,221.909313 L535.698038,221.909313 L560.01231,221.063327 L560.01231,139.096122 L558.218521,139.096122 Z" id="Fill-20" fill="#CD4E45" mask="url(#mask-2)"></path>
                    <path d="M613.807273,139.096122 C613.807273,136.915255 615.576531,135.146653 617.758208,135.146653 C619.939884,135.146653 621.709143,136.915255 621.709143,139.096122 C621.709143,141.071623 620.254181,142.693098 618.359204,142.984289 C618.515585,143.968208 618.698031,145.103853 618.906539,146.37743 C619.225435,146.293138 619.55353,146.2349 619.900022,146.2349 C622.081699,146.2349 623.850958,148.003502 623.850958,150.184369 C623.850958,152.259489 622.245746,153.940733 620.212786,154.103187 C620.484154,155.657228 620.77392,157.278702 621.079017,158.940023 C621.28446,158.906307 621.492968,158.875655 621.709143,158.875655 C623.890819,158.875655 625.660078,160.644257 625.660078,162.825124 C625.660078,164.716333 624.329301,166.29183 622.555443,166.679574 C622.809947,167.957749 623.070583,169.232859 623.335818,170.498774 C623.505998,170.477318 623.674645,170.446666 623.850958,170.446666 C626.032634,170.446666 627.801893,172.215268 627.801893,174.396136 C627.801893,176.158608 626.639763,177.632954 625.045284,178.141772 C625.568089,180.318041 626.100093,182.362509 626.63363,184.224599 C627.004653,184.109655 627.392541,184.02996 627.801893,184.02996 C629.983569,184.02996 631.752828,185.798563 631.752828,187.97943 C631.752828,189.625426 630.74248,191.035403 629.308982,191.626981 C630.118487,193.338877 631.007715,194.883722 631.949071,196.264581 C632.665054,195.532005 633.663136,195.073763 634.770073,195.073763 C636.951749,195.073763 638.721008,196.842365 638.721008,199.023232 C638.721008,200.328994 638.078617,201.478432 637.100465,202.197214 C638.305523,203.283817 639.440056,204.155857 640.433539,204.831727 C641.115792,203.648572 642.37911,202.842432 643.843271,202.842432 C646.024948,202.842432 647.794206,204.611035 647.794206,206.791902 C647.794206,208.972769 646.024948,210.741372 643.843271,210.741372 L643.843271,221.909313 L636.327756,221.909313 L612.013484,221.063327 L612.013484,139.096122 L613.807273,139.096122 Z" id="Fill-21" fill="#CD4E45" mask="url(#mask-2)"></path>
                    <path d="M650.490256,511.762072 L521.763671,511.762072 L521.763671,207.875133 L554.528682,207.856742 L554.419828,125.811375 C554.419828,125.811375 568.336257,115.656472 586.369202,115.562984 C607.220081,115.454171 618.320108,125.811375 618.320108,125.811375 L618.815317,207.798503 L650.490256,207.875133 L650.490256,511.762072 Z" id="Fill-22" fill="#F27475" mask="url(#mask-2)"></path>
                    <polygon id="Fill-23" fill="#F27475" mask="url(#mask-2)" points="650.490256 511.762072 522.249681 511.762072 650.490256 207.875133"></polygon>
                    <path d="M618.376528,129.159765 L618.319802,125.811069 C618.319802,125.811069 607.219775,115.453864 586.370428,115.562678 C568.335951,115.656165 554.419522,125.811069 554.419522,125.811069 L554.431787,129.162831 L546.451726,129.162831 L546.439461,125.811069 L548.434093,125.811069 C548.434093,125.811069 565.580875,112.442336 586.370428,112.321262 C607.159982,112.200188 624.305231,125.811069 624.305231,125.811069 L626.356589,125.783482 L626.356589,129.159765 L618.376528,129.159765 Z" id="Fill-24" fill="#CD4E45" mask="url(#mask-2)"></path>
                    <polygon id="Fill-25" fill="#BDDBE6" mask="url(#mask-2)" points="577.058824 173.203479 595.680499 173.203479 595.680499 149.477542 577.058824 149.477542"></polygon>
                    <polygon id="Stroke-26" stroke="#FFFFFF" mask="url(#mask-2)" points="577.058824 173.203479 595.680499 173.203479 595.680499 149.477542 577.058824 149.477542"></polygon>
                    <path d="M586.369968,173.203938 L586.369968,149.478001" id="Stroke-27" stroke="#FFFFFF" mask="url(#mask-2)"></path>
                    <path d="M577.059284,161.341123 L595.680959,161.341123" id="Stroke-28" stroke="#FFFFFF" mask="url(#mask-2)"></path>
                    <polygon id="Fill-29" fill="#BDDBE6" mask="url(#mask-2)" points="568.385778 222.499052 604.355078 222.499052 604.355078 191.919398 568.385778 191.919398"></polygon>
                    <polygon id="Stroke-30" stroke="#FFFFFF" mask="url(#mask-2)" points="568.385778 222.499052 604.355078 222.499052 604.355078 191.919398 568.385778 191.919398"></polygon>
                    <path d="M586.369968,222.499358 L586.369968,191.919704" id="Stroke-31" stroke="#FFFFFF" stroke-width="2" mask="url(#mask-2)"></path>
                    <path d="M576.394816,222.499358 L576.394816,191.919704" id="Stroke-32" stroke="#FFFFFF" mask="url(#mask-2)"></path>
                    <path d="M596.345121,222.499358 L596.345121,191.919704" id="Stroke-33" stroke="#FFFFFF" mask="url(#mask-2)"></path>
                    <path d="M568.385012,207.209838 L604.354312,207.209838" id="Stroke-34" stroke="#FFFFFF" mask="url(#mask-2)"></path>
                    <polygon id="Fill-35" fill="#BDDBE6" mask="url(#mask-2)" points="568.385778 272.395398 604.355078 272.395398 604.355078 236.459362 568.385778 236.459362"></polygon>
                    <polygon id="Stroke-36" stroke="#FFFFFF" mask="url(#mask-2)" points="568.385778 272.395398 604.355078 272.395398 604.355078 236.459362 568.385778 236.459362"></polygon>
                    <path d="M586.369968,236.459362 L586.397565,272.395398" id="Stroke-37" stroke="#FFFFFF" stroke-width="2" mask="url(#mask-2)"></path>
                    <polygon id="Fill-38" fill="#BDDBE6" mask="url(#mask-2)" points="538.670208 272.395398 556.655625 272.395398 556.655625 236.459362 538.670208 236.459362"></polygon>
                    <polygon id="Stroke-39" stroke="#FFFFFF" mask="url(#mask-2)" points="538.670208 272.395398 556.655625 272.395398 556.655625 236.459362 538.670208 236.459362"></polygon>
                    <polygon id="Fill-40" fill="#BDDBE6" mask="url(#mask-2)" points="616.083698 272.395398 634.069115 272.395398 634.069115 236.459362 616.083698 236.459362"></polygon>
                    <polygon id="Stroke-41" stroke="#FFFFFF" mask="url(#mask-2)" points="616.083698 272.395398 634.069115 272.395398 634.069115 236.459362 616.083698 236.459362"></polygon>
                    <polygon id="Fill-42" fill="#BDDBE6" mask="url(#mask-2)" points="568.385778 320.310112 604.355078 320.310112 604.355078 284.374076 568.385778 284.374076"></polygon>
                    <polygon id="Stroke-43" stroke="#FFFFFF" mask="url(#mask-2)" points="568.385778 320.310112 604.355078 320.310112 604.355078 284.374076 568.385778 284.374076"></polygon>
                    <path d="M586.384073,284.37377 L586.41167,320.309806" id="Stroke-44" stroke="#FFFFFF" stroke-width="2" mask="url(#mask-2)"></path>
                    <polygon id="Fill-45" fill="#BDDBE6" mask="url(#mask-2)" points="538.670208 320.310112 556.655625 320.310112 556.655625 284.374076 538.670208 284.374076"></polygon>
                    <polygon id="Stroke-46" stroke="#FFFFFF" mask="url(#mask-2)" points="538.670208 320.310112 556.655625 320.310112 556.655625 284.374076 538.670208 284.374076"></polygon>
                    <polygon id="Fill-47" fill="#BDDBE6" mask="url(#mask-2)" points="616.083698 320.310112 634.069115 320.310112 634.069115 284.374076 616.083698 284.374076"></polygon>
                    <polygon id="Stroke-48" stroke="#FFFFFF" mask="url(#mask-2)" points="616.083698 320.310112 634.069115 320.310112 634.069115 284.374076 616.083698 284.374076"></polygon>
                    <polygon id="Fill-49" fill="#BDDBE6" mask="url(#mask-2)" points="568.385778 379.473996 604.355078 379.473996 604.355078 332.186108 568.385778 332.186108"></polygon>
                    <polygon id="Stroke-50" stroke="#FFFFFF" mask="url(#mask-2)" points="568.385778 379.473996 604.355078 379.473996 604.355078 332.186108 568.385778 332.186108"></polygon>
                    <path d="M568.385012,348.229966 L604.354312,348.229966" id="Stroke-51" stroke="#FFFFFF" stroke-width="2" mask="url(#mask-2)"></path>
                    <polygon id="Fill-52" fill="#BDDBE6" mask="url(#mask-2)" points="538.670208 379.473996 556.655625 379.473996 556.655625 332.186108 538.670208 332.186108"></polygon>
                    <polygon id="Stroke-53" stroke="#FFFFFF" mask="url(#mask-2)" points="538.670208 379.473996 556.655625 379.473996 556.655625 332.186108 538.670208 332.186108"></polygon>
                    <path d="M539.233029,348.229966 L556.655778,348.229966" id="Stroke-54" stroke="#FFFFFF" stroke-width="2" mask="url(#mask-2)"></path>
                    <polygon id="Fill-55" fill="#BDDBE6" mask="url(#mask-2)" points="616.083698 379.473996 634.069115 379.473996 634.069115 332.186108 616.083698 332.186108"></polygon>
                    <polygon id="Stroke-56" stroke="#FFFFFF" mask="url(#mask-2)" points="616.083698 379.473996 634.069115 379.473996 634.069115 332.186108 616.083698 332.186108"></polygon>
                    <path d="M616.646672,348.229966 L634.069422,348.229966" id="Stroke-57" stroke="#FFFFFF" stroke-width="2" mask="url(#mask-2)"></path>
                    <polygon id="Fill-58" fill="#BDDBE6" mask="url(#mask-2)" points="568.385778 439.30302 604.355078 439.30302 604.355078 392.015133 568.385778 392.015133"></polygon>
                    <polygon id="Stroke-59" stroke="#FFFFFF" mask="url(#mask-2)" points="568.385778 439.30302 604.355078 439.30302 604.355078 392.015133 568.385778 392.015133"></polygon>
                    <path d="M568.385012,408.058838 L604.354312,408.058838" id="Stroke-60" stroke="#FFFFFF" stroke-width="2" mask="url(#mask-2)"></path>
                    <polygon id="Fill-61" fill="#BDDBE6" mask="url(#mask-2)" points="538.670208 439.30302 556.655625 439.30302 556.655625 392.015133 538.670208 392.015133"></polygon>
                    <polygon id="Stroke-62" stroke="#FFFFFF" mask="url(#mask-2)" points="538.670208 439.30302 556.655625 439.30302 556.655625 392.015133 538.670208 392.015133"></polygon>
                    <path d="M539.233029,408.058838 L556.655778,408.058838" id="Stroke-63" stroke="#FFFFFF" stroke-width="2" mask="url(#mask-2)"></path>
                    <polygon id="Fill-64" fill="#BDDBE6" mask="url(#mask-2)" points="616.083698 439.30302 634.069115 439.30302 634.069115 392.015133 616.083698 392.015133"></polygon>
                    <polygon id="Stroke-65" stroke="#FFFFFF" mask="url(#mask-2)" points="616.083698 439.30302 634.069115 439.30302 634.069115 392.015133 616.083698 392.015133"></polygon>
                    <path d="M616.646672,408.058838 L634.069422,408.058838" id="Stroke-66" stroke="#FFFFFF" stroke-width="2" mask="url(#mask-2)"></path>
                    <polygon id="Fill-67" fill="#CD4E45" mask="url(#mask-2)" points="568.385778 511.09693 604.355078 511.09693 604.355078 457.825834 568.385778 457.825834"></polygon>
                    <polygon id="Fill-68" fill="#BDDBE6" mask="url(#mask-2)" points="538.670208 487.867551 560.01323 487.867551 560.01323 457.827366 538.670208 457.827366"></polygon>
                    <polygon id="Stroke-69" stroke="#FFFFFF" mask="url(#mask-2)" points="538.670208 487.867551 560.01323 487.867551 560.01323 457.827366 538.670208 457.827366"></polygon>
                    <polygon id="Fill-70" fill="#BDDBE6" mask="url(#mask-2)" points="611.209805 487.867551 634.069115 487.867551 634.069115 457.827366 611.209805 457.827366"></polygon>
                    <polygon id="Stroke-71" stroke="#FFFFFF" mask="url(#mask-2)" points="611.209805 487.867551 634.069115 487.867551 634.069115 457.827366 611.209805 457.827366"></polygon>
                    <polygon id="Fill-72" fill="#B84F6E" mask="url(#mask-2)" points="183.311428 145.477497 191.765233 145.477497 191.765233 128.186881 183.311428 128.186881"></polygon>
                    <polygon id="Fill-73" fill="#B84F6E" mask="url(#mask-2)" points="178.848419 249.933843 195.754497 249.933843 195.754497 143.482072 178.848419 143.482072"></polygon>
                    <path d="M303.442544,511.762072 L175.201969,511.762072 L175.201969,233.800328 L221.44646,165.975811 L221.337606,131.794584 C221.337606,131.794584 228.163203,119.550769 239.32149,119.550769 C251.437997,119.550769 257.306906,131.794584 257.306906,131.794584 L257.802115,165.917573 L303.442544,233.800328 L303.442544,511.762072 Z" id="Fill-74" fill="#FD5D2B" mask="url(#mask-2)"></path>
                    <polygon id="Fill-75" fill="#FD5D2B" mask="url(#mask-2)" points="303.442544 511.762072 175.201969 511.762072 303.442544 233.800328"></polygon>
                    <path d="M217.713846,135.022513 C217.713846,135.022513 222.647532,117.518868 239.322103,117.518868 C256.231246,117.518868 260.674323,135.022513 260.674323,135.022513 L217.713846,135.022513 Z" id="Fill-76" fill="#B84F6E" mask="url(#mask-2)"></path>
                    <path d="M224.621619,131.184462 C224.621619,131.184462 228.009887,121.54604 239.323023,121.54604 C250.79254,121.54604 253.766856,131.184462 253.766856,131.184462 L224.621619,131.184462 Z" id="Fill-77" fill="#FD5D2B" mask="url(#mask-2)"></path>
                    <polygon id="Fill-78" fill="#BDDBE6" mask="url(#mask-2)" points="230.011265 199.130207 248.63294 199.130207 248.63294 175.40427 230.011265 175.40427"></polygon>
                    <polygon id="Stroke-79" stroke="#FFFFFF" mask="url(#mask-2)" points="230.011265 199.130207 248.63294 199.130207 248.63294 175.40427 230.011265 175.40427"></polygon>
                    <path d="M243.911289,164.869285 C243.911289,167.402647 241.856865,169.45631 239.322563,169.45631 C236.788261,169.45631 234.733836,167.402647 234.733836,164.869285 C234.733836,162.335924 236.788261,160.282261 239.322563,160.282261 C241.856865,160.282261 243.911289,162.335924 243.911289,164.869285" id="Fill-80" fill="#BDDBE6" mask="url(#mask-2)"></path>
                    <path d="M243.911289,164.869285 C243.911289,167.402647 241.856865,169.45631 239.322563,169.45631 C236.788261,169.45631 234.733836,167.402647 234.733836,164.869285 C234.733836,162.335924 236.788261,160.282261 239.322563,160.282261 C241.856865,160.282261 243.911289,162.335924 243.911289,164.869285 L243.911289,164.869285 Z" id="Stroke-81" stroke="#FFFFFF" mask="url(#mask-2)"></path>
                    <path d="M263.795976,187.266932 C263.795976,189.800293 261.741551,191.853956 259.207249,191.853956 C256.672948,191.853956 254.618523,189.800293 254.618523,187.266932 C254.618523,184.73357 256.672948,182.679907 259.207249,182.679907 C261.741551,182.679907 263.795976,184.73357 263.795976,187.266932" id="Fill-82" fill="#BDDBE6" mask="url(#mask-2)"></path>
                    <path d="M263.795976,187.266932 C263.795976,189.800293 261.741551,191.853956 259.207249,191.853956 C256.672948,191.853956 254.618523,189.800293 254.618523,187.266932 C254.618523,184.73357 256.672948,182.679907 259.207249,182.679907 C261.741551,182.679907 263.795976,184.73357 263.795976,187.266932 L263.795976,187.266932 Z" id="Stroke-83" stroke="#FFFFFF" mask="url(#mask-2)"></path>
                    <path d="M224.02645,187.266932 C224.02645,189.800293 221.972025,191.853956 219.437723,191.853956 C216.903421,191.853956 214.848996,189.800293 214.848996,187.266932 C214.848996,184.73357 216.903421,182.679907 219.437723,182.679907 C221.972025,182.679907 224.02645,184.73357 224.02645,187.266932" id="Fill-84" fill="#BDDBE6" mask="url(#mask-2)"></path>
                    <path d="M224.02645,187.266932 C224.02645,189.800293 221.972025,191.853956 219.437723,191.853956 C216.903421,191.853956 214.848996,189.800293 214.848996,187.266932 C214.848996,184.73357 216.903421,182.679907 219.437723,182.679907 C221.972025,182.679907 224.02645,184.73357 224.02645,187.266932 L224.02645,187.266932 Z" id="Stroke-85" stroke="#FFFFFF" mask="url(#mask-2)"></path>
                    <polygon id="Fill-86" fill="#BDDBE6" mask="url(#mask-2)" points="224.027369 256.402881 254.616836 256.402881 254.616836 225.823227 224.027369 225.823227"></polygon>
                    <polygon id="Stroke-87" stroke="#FFFFFF" mask="url(#mask-2)" points="224.027369 256.402881 254.616836 256.402881 254.616836 225.823227 224.027369 225.823227"></polygon>
                    <path d="M239.322103,256.402421 L239.322103,225.822767" id="Stroke-88" stroke="#FFFFFF" mask="url(#mask-2)"></path>
                    <path d="M224.621619,241.040716 L253.766856,241.040716" id="Stroke-89" stroke="#FFFFFF" mask="url(#mask-2)"></path>
                    <polygon id="Fill-90" fill="#BDDBE6" mask="url(#mask-2)" points="194.767146 256.735452 210.06188 256.735452 210.06188 225.492189 194.767146 225.492189"></polygon>
                    <polygon id="Stroke-91" stroke="#FFFFFF" mask="url(#mask-2)" points="194.767146 256.735452 210.06188 256.735452 210.06188 225.492189 194.767146 225.492189"></polygon>
                    <path d="M202.413593,256.734685 L202.413593,225.491422" id="Stroke-92" stroke="#FFFFFF" mask="url(#mask-2)"></path>
                    <path d="M194.76592,241.112747 L210.060653,241.112747" id="Stroke-93" stroke="#FFFFFF" mask="url(#mask-2)"></path>
                    <path d="M194.76592,233.135646 L210.060653,233.135646" id="Stroke-94" stroke="#FFFFFF" mask="url(#mask-2)"></path>
                    <path d="M194.76592,249.090002 L210.060653,249.090002" id="Stroke-95" stroke="#FFFFFF" mask="url(#mask-2)"></path>
                    <polygon id="Fill-96" fill="#BDDBE6" mask="url(#mask-2)" points="266.587694 256.66342 281.882428 256.66342 281.882428 225.420157 266.587694 225.420157"></polygon>
                    <polygon id="Stroke-97" stroke="#FFFFFF" mask="url(#mask-2)" points="266.587694 256.66342 281.882428 256.66342 281.882428 225.420157 266.587694 225.420157"></polygon>
                    <path d="M274.234908,256.662807 L274.234908,225.419544" id="Stroke-98" stroke="#FFFFFF" mask="url(#mask-2)"></path>
                    <path d="M266.587234,241.040716 L281.881968,241.040716" id="Stroke-99" stroke="#FFFFFF" mask="url(#mask-2)"></path>
                    <path d="M266.587234,233.063615 L281.881968,233.063615" id="Stroke-100" stroke="#FFFFFF" mask="url(#mask-2)"></path>
                    <path d="M266.587234,249.01797 L281.881968,249.01797" id="Stroke-101" stroke="#FFFFFF" mask="url(#mask-2)"></path>
                    <polygon id="Fill-102" fill="#BDDBE6" mask="url(#mask-2)" points="224.027369 313.887052 254.616836 313.887052 254.616836 273.811506 224.027369 273.811506"></polygon>
                    <polygon id="Stroke-103" stroke="#FFFFFF" mask="url(#mask-2)" points="224.027369 313.887052 254.616836 313.887052 254.616836 273.811506 224.027369 273.811506"></polygon>
                    <path d="M239.322103,313.887205 L239.322103,273.811659" id="Stroke-104" stroke="#FFFFFF" mask="url(#mask-2)"></path>
                    <path d="M224.621619,293.755178 L253.766856,293.755178" id="Stroke-105" stroke="#FFFFFF" mask="url(#mask-2)"></path>
                    <path d="M224.621619,283.416824 L253.766856,283.416824" id="Stroke-106" stroke="#FFFFFF" mask="url(#mask-2)"></path>
                    <path d="M224.621619,304.093532 L253.766856,304.093532" id="Stroke-107" stroke="#FFFFFF" mask="url(#mask-2)"></path>
                    <polygon id="Fill-108" fill="#BDDBE6" mask="url(#mask-2)" points="266.587694 314.228818 281.882428 314.228818 281.882428 273.282764 266.587694 273.282764"></polygon>
                    <polygon id="Stroke-109" stroke="#FFFFFF" mask="url(#mask-2)" points="266.587694 314.228818 281.882428 314.228818 281.882428 273.282764 266.587694 273.282764"></polygon>
                    <path d="M274.234908,314.228358 L274.234908,273.282304" id="Stroke-110" stroke="#FFFFFF" mask="url(#mask-2)"></path>
                    <path d="M266.587234,289.581185 L281.881968,289.581185" id="Stroke-111" stroke="#FFFFFF" mask="url(#mask-2)"></path>
                    <path d="M266.587234,281.233045 L281.881968,281.233045" id="Stroke-112" stroke="#FFFFFF" mask="url(#mask-2)"></path>
                    <path d="M266.587234,297.929171 L281.881968,297.929171" id="Stroke-113" stroke="#FFFFFF" mask="url(#mask-2)"></path>
                    <path d="M266.587234,306.277311 L281.881968,306.277311" id="Stroke-114" stroke="#FFFFFF" mask="url(#mask-2)"></path>
                    <polygon id="Fill-115" fill="#BDDBE6" mask="url(#mask-2)" points="194.767146 314.322306 210.06188 314.322306 210.06188 273.376252 194.767146 273.376252"></polygon>
                    <polygon id="Stroke-116" stroke="#FFFFFF" mask="url(#mask-2)" points="194.767146 314.322306 210.06188 314.322306 210.06188 273.376252 194.767146 273.376252"></polygon>
                    <path d="M202.413593,314.322765 L202.413593,273.376711" id="Stroke-117" stroke="#FFFFFF" mask="url(#mask-2)"></path>
                    <path d="M194.76592,289.675439 L210.060653,289.675439" id="Stroke-118" stroke="#FFFFFF" mask="url(#mask-2)"></path>
                    <path d="M194.76592,281.327452 L210.060653,281.327452" id="Stroke-119" stroke="#FFFFFF" mask="url(#mask-2)"></path>
                    <path d="M194.76592,298.023578 L210.060653,298.023578" id="Stroke-120" stroke="#FFFFFF" mask="url(#mask-2)"></path>
                    <path d="M194.76592,306.371565 L210.060653,306.371565" id="Stroke-121" stroke="#FFFFFF" mask="url(#mask-2)"></path>
                    <polygon id="Fill-122" fill="#BDDBE6" mask="url(#mask-2)" points="224.027369 369.714499 254.616836 369.714499 254.616836 329.638953 224.027369 329.638953"></polygon>
                    <polygon id="Stroke-123" stroke="#FFFFFF" mask="url(#mask-2)" points="224.027369 369.714499 254.616836 369.714499 254.616836 329.638953 224.027369 329.638953"></polygon>
                    <path d="M239.322103,369.714192 L239.322103,329.638646" id="Stroke-124" stroke="#FFFFFF" mask="url(#mask-2)"></path>
                    <path d="M224.621619,349.582165 L253.766856,349.582165" id="Stroke-125" stroke="#FFFFFF" mask="url(#mask-2)"></path>
                    <path d="M224.621619,339.243812 L253.766856,339.243812" id="Stroke-126" stroke="#FFFFFF" mask="url(#mask-2)"></path>
                    <path d="M224.621619,359.920519 L253.766856,359.920519" id="Stroke-127" stroke="#FFFFFF" mask="url(#mask-2)"></path>
                    <polygon id="Fill-128" fill="#BDDBE6" mask="url(#mask-2)" points="266.587694 370.054733 281.882428 370.054733 281.882428 329.108679 266.587694 329.108679"></polygon>
                    <polygon id="Stroke-129" stroke="#FFFFFF" mask="url(#mask-2)" points="266.587694 370.054733 281.882428 370.054733 281.882428 329.108679 266.587694 329.108679"></polygon>
                    <path d="M274.234908,370.055499 L274.234908,329.109445" id="Stroke-130" stroke="#FFFFFF" mask="url(#mask-2)"></path>
                    <path d="M266.587234,345.408172 L281.881968,345.408172" id="Stroke-131" stroke="#FFFFFF" mask="url(#mask-2)"></path>
                    <path d="M266.587234,337.060032 L281.881968,337.060032" id="Stroke-132" stroke="#FFFFFF" mask="url(#mask-2)"></path>
                    <path d="M266.587234,353.756159 L281.881968,353.756159" id="Stroke-133" stroke="#FFFFFF" mask="url(#mask-2)"></path>
                    <path d="M266.587234,362.104298 L281.881968,362.104298" id="Stroke-134" stroke="#FFFFFF" mask="url(#mask-2)"></path>
                    <polygon id="Fill-135" fill="#BDDBE6" mask="url(#mask-2)" points="194.767146 370.149753 210.06188 370.149753 210.06188 329.203699 194.767146 329.203699"></polygon>
                    <polygon id="Stroke-136" stroke="#FFFFFF" mask="url(#mask-2)" points="194.767146 370.149753 210.06188 370.149753 210.06188 329.203699 194.767146 329.203699"></polygon>
                    <path d="M202.413593,370.149753 L202.413593,329.203699" id="Stroke-137" stroke="#FFFFFF" mask="url(#mask-2)"></path>
                    <path d="M194.76592,345.502579 L210.060653,345.502579" id="Stroke-138" stroke="#FFFFFF" mask="url(#mask-2)"></path>
                    <path d="M194.76592,337.15444 L210.060653,337.15444" id="Stroke-139" stroke="#FFFFFF" mask="url(#mask-2)"></path>
                    <path d="M194.76592,353.850566 L210.060653,353.850566" id="Stroke-140" stroke="#FFFFFF" mask="url(#mask-2)"></path>
                    <path d="M194.76592,362.198706 L210.060653,362.198706" id="Stroke-141" stroke="#FFFFFF" mask="url(#mask-2)"></path>
                    <polygon id="Fill-142" fill="#BDDBE6" mask="url(#mask-2)" points="224.027369 429.603294 254.616836 429.603294 254.616836 389.527748 224.027369 389.527748"></polygon>
                    <polygon id="Stroke-143" stroke="#FFFFFF" mask="url(#mask-2)" points="224.027369 429.603294 254.616836 429.603294 254.616836 389.527748 224.027369 389.527748"></polygon>
                    <path d="M239.322103,429.603141 L239.322103,389.527595" id="Stroke-144" stroke="#FFFFFF" mask="url(#mask-2)"></path>
                    <path d="M224.621619,409.471114 L253.766856,409.471114" id="Stroke-145" stroke="#FFFFFF" mask="url(#mask-2)"></path>
                    <path d="M224.621619,399.13276 L253.766856,399.13276" id="Stroke-146" stroke="#FFFFFF" mask="url(#mask-2)"></path>
                    <path d="M224.621619,419.809468 L253.766856,419.809468" id="Stroke-147" stroke="#FFFFFF" mask="url(#mask-2)"></path>
                    <polygon id="Fill-148" fill="#BDDBE6" mask="url(#mask-2)" points="266.587694 429.945061 281.882428 429.945061 281.882428 388.999007 266.587694 388.999007"></polygon>
                    <polygon id="Stroke-149" stroke="#FFFFFF" mask="url(#mask-2)" points="266.587694 429.945061 281.882428 429.945061 281.882428 388.999007 266.587694 388.999007"></polygon>
                    <path d="M274.234908,429.944448 L274.234908,388.998394" id="Stroke-150" stroke="#FFFFFF" mask="url(#mask-2)"></path>
                    <path d="M266.587234,405.297121 L281.881968,405.297121" id="Stroke-151" stroke="#FFFFFF" mask="url(#mask-2)"></path>
                    <path d="M266.587234,396.948981 L281.881968,396.948981" id="Stroke-152" stroke="#FFFFFF" mask="url(#mask-2)"></path>
                    <path d="M266.587234,413.645107 L281.881968,413.645107" id="Stroke-153" stroke="#FFFFFF" mask="url(#mask-2)"></path>
                    <path d="M266.587234,421.993247 L281.881968,421.993247" id="Stroke-154" stroke="#FFFFFF" mask="url(#mask-2)"></path>
                    <polygon id="Fill-155" fill="#BDDBE6" mask="url(#mask-2)" points="194.767146 430.038548 210.06188 430.038548 210.06188 389.092494 194.767146 389.092494"></polygon>
                    <polygon id="Stroke-156" stroke="#FFFFFF" mask="url(#mask-2)" points="194.767146 430.038548 210.06188 430.038548 210.06188 389.092494 194.767146 389.092494"></polygon>
                    <path d="M202.413593,430.038702 L202.413593,389.092648" id="Stroke-157" stroke="#FFFFFF" mask="url(#mask-2)"></path>
                    <path d="M194.76592,405.391528 L210.060653,405.391528" id="Stroke-158" stroke="#FFFFFF" mask="url(#mask-2)"></path>
                    <path d="M194.76592,397.043388 L210.060653,397.043388" id="Stroke-159" stroke="#FFFFFF" mask="url(#mask-2)"></path>
                    <path d="M194.76592,413.739515 L210.060653,413.739515" id="Stroke-160" stroke="#FFFFFF" mask="url(#mask-2)"></path>
                    <path d="M194.76592,422.087654 L210.060653,422.087654" id="Stroke-161" stroke="#FFFFFF" mask="url(#mask-2)"></path>
                    <path d="M239.193778,457.036859 C231.19072,457.036859 224.70395,465.135035 224.70395,469.044657 L224.70395,511.762378 L253.683606,511.762378 L253.683606,469.044657 C253.683606,465.135035 247.196836,457.036859 239.193778,457.036859" id="Fill-162" fill="#B84F6E" mask="url(#mask-2)"></path>
                    <path d="M201.288259,454.093378 C195.341159,454.093378 190.520926,460.111836 190.520926,463.016084 L190.520926,480.803257 L212.055592,480.803257 L212.055592,463.016084 C212.055592,460.111836 207.235359,454.093378 201.288259,454.093378" id="Fill-163" fill="#B84F6E" mask="url(#mask-2)"></path>
                    <path d="M277.09945,454.093378 C271.15235,454.093378 266.332118,460.111836 266.332118,463.016084 L266.332118,480.803257 L287.866783,480.803257 L287.866783,463.016084 C287.866783,460.111836 283.046551,454.093378 277.09945,454.093378" id="Fill-164" fill="#B84F6E" mask="url(#mask-2)"></path>
                    <polygon id="Fill-165" fill="#FED349" mask="url(#mask-2)" points="412.504296 437.973197 303.44193 437.973197 303.44193 265.134473 357.973113 203.311556 412.504296 265.134473"></polygon>
                    <polygon id="Fill-166" fill="#F9A630" mask="url(#mask-2)" points="418.489418 265.134473 357.972806 196.339831 297.457728 265.134473 293.466931 265.12681 293.466931 269.787399 303.443157 269.787399 303.443157 265.134473 357.972806 203.311556 412.503989 265.134473 412.503989 269.787399 422.480215 269.787399 422.480215 265.108419"></polygon>
                    <polygon id="Fill-167" fill="#F9A630" mask="url(#mask-2)" points="303.441624 511.762072 412.503989 511.762072 412.503989 437.972737 303.441624 437.972737"></polygon>
                    <polygon id="Fill-168" fill="#F9A630" mask="url(#mask-2)" points="412.504296 437.973197 412.504296 265.134473 303.44193 511.762532 412.504296 511.762532"></polygon>
                    <polygon id="Fill-169" fill="#BDDBE6" mask="url(#mask-2)" points="342.678073 271.782364 373.269073 271.782364 373.269073 241.20271 342.678073 241.20271"></polygon>
                    <polygon id="Stroke-170" stroke="#FFFFFF" mask="url(#mask-2)" points="342.678073 271.782364 373.269073 271.782364 373.269073 241.20271 342.678073 241.20271"></polygon>
                    <path d="M357.97342,271.782058 L357.97342,241.202404" id="Stroke-171" stroke="#FFFFFF" mask="url(#mask-2)"></path>
                    <path d="M342.678226,256.492537 L373.269226,256.492537" id="Stroke-172" stroke="#FFFFFF" mask="url(#mask-2)"></path>
                    <polygon id="Fill-173" fill="#BDDBE6" mask="url(#mask-2)" points="342.678073 356.871443 373.269073 356.871443 373.269073 294.383384 342.678073 294.383384"></polygon>
                    <polygon id="Stroke-174" stroke="#FFFFFF" mask="url(#mask-2)" points="342.678073 356.871443 373.269073 356.871443 373.269073 294.383384 342.678073 294.383384"></polygon>
                    <path d="M357.97342,356.872056 L357.97342,294.383997" id="Stroke-175" stroke="#FFFFFF" mask="url(#mask-2)"></path>
                    <path d="M342.678226,316.321409 L373.269226,316.321409" id="Stroke-176" stroke="#FFFFFF" mask="url(#mask-2)"></path>
                    <polygon id="Fill-177" fill="#BDDBE6" mask="url(#mask-2)" points="317.408647 356.871443 332.70338 356.871443 332.70338 294.383384 317.408647 294.383384"></polygon>
                    <polygon id="Stroke-178" stroke="#FFFFFF" mask="url(#mask-2)" points="317.408647 356.871443 332.70338 356.871443 332.70338 294.383384 317.408647 294.383384"></polygon>
                    <path d="M325.0554,356.872056 L325.0554,294.383997" id="Stroke-179" stroke="#FFFFFF" mask="url(#mask-2)"></path>
                    <path d="M317.407727,316.321409 L332.70246,316.321409" id="Stroke-180" stroke="#FFFFFF" mask="url(#mask-2)"></path>
                    <polygon id="Fill-181" fill="#BDDBE6" mask="url(#mask-2)" points="383.243766 356.871443 398.538499 356.871443 398.538499 294.383384 383.243766 294.383384"></polygon>
                    <polygon id="Stroke-182" stroke="#FFFFFF" mask="url(#mask-2)" points="383.243766 356.871443 398.538499 356.871443 398.538499 294.383384 383.243766 294.383384"></polygon>
                    <path d="M390.891439,356.872056 L390.891439,294.383997" id="Stroke-183" stroke="#FFFFFF" mask="url(#mask-2)"></path>
                    <path d="M383.243919,316.321409 L398.538653,316.321409" id="Stroke-184" stroke="#FFFFFF" mask="url(#mask-2)"></path>
                    <polygon id="Fill-185" fill="#BDDBE6" mask="url(#mask-2)" points="342.678073 418.69436 373.269073 418.69436 373.269073 387.451097 342.678073 387.451097"></polygon>
                    <polygon id="Stroke-186" stroke="#FFFFFF" mask="url(#mask-2)" points="342.678073 418.69436 373.269073 418.69436 373.269073 387.451097 342.678073 387.451097"></polygon>
                    <path d="M357.97342,418.695126 L357.97342,387.451863" id="Stroke-187" stroke="#FFFFFF" mask="url(#mask-2)"></path>
                    <path d="M342.678226,403.073188 L373.269226,403.073188" id="Stroke-188" stroke="#FFFFFF" mask="url(#mask-2)"></path>
                    <polygon id="Fill-189" fill="#BDDBE6" mask="url(#mask-2)" points="317.408647 418.69436 332.70338 418.69436 332.70338 387.451097 317.408647 387.451097"></polygon>
                    <polygon id="Stroke-190" stroke="#FFFFFF" mask="url(#mask-2)" points="317.408647 418.69436 332.70338 418.69436 332.70338 387.451097 317.408647 387.451097"></polygon>
                    <path d="M325.0554,418.695126 L325.0554,387.451863" id="Stroke-191" stroke="#FFFFFF" mask="url(#mask-2)"></path>
                    <path d="M317.407727,403.073188 L332.70246,403.073188" id="Stroke-192" stroke="#FFFFFF" mask="url(#mask-2)"></path>
                    <polygon id="Fill-193" fill="#BDDBE6" mask="url(#mask-2)" points="383.243766 418.69436 398.538499 418.69436 398.538499 387.451097 383.243766 387.451097"></polygon>
                    <polygon id="Stroke-194" stroke="#FFFFFF" mask="url(#mask-2)" points="383.243766 418.69436 398.538499 418.69436 398.538499 387.451097 383.243766 387.451097"></polygon>
                    <path d="M390.891439,418.695126 L390.891439,387.451863" id="Stroke-195" stroke="#FFFFFF" mask="url(#mask-2)"></path>
                    <path d="M383.243919,403.073188 L398.538653,403.073188" id="Stroke-196" stroke="#FFFFFF" mask="url(#mask-2)"></path>
                    <polygon id="Fill-197" fill="#DF7A36" mask="url(#mask-2)" points="342.678073 511.762072 373.269073 511.762072 373.269073 453.26333 342.678073 453.26333"></polygon>
                    <polygon id="Fill-198" fill="#BDDBE6" mask="url(#mask-2)" points="317.408647 492.483694 332.70338 492.483694 332.70338 453.26333 317.408647 453.26333"></polygon>
                    <polygon id="Stroke-199" stroke="#FFFFFF" mask="url(#mask-2)" points="317.408647 492.483694 332.70338 492.483694 332.70338 453.26333 317.408647 453.26333"></polygon>
                    <polygon id="Fill-200" fill="#BDDBE6" mask="url(#mask-2)" points="383.243766 492.483694 398.538499 492.483694 398.538499 453.26333 383.243766 453.26333"></polygon>
                    <polygon id="Stroke-201" stroke="#FFFFFF" mask="url(#mask-2)" points="383.243766 492.483694 398.538499 492.483694 398.538499 453.26333 383.243766 453.26333"></polygon>
                    <polygon id="Fill-202" fill="#F89826" mask="url(#mask-2)" points="795.462589 511.762072 957.348204 511.762072 957.348204 175.40427 795.462589 175.40427"></polygon>
                    <polygon id="Fill-203" fill="#F89826" mask="url(#mask-2)" points="957.348051 511.762072 795.462435 511.762072 957.348051 175.40427"></polygon>
                    <path d="M900.398013,144.34461 C897.465091,139.219649 890.263872,130.471658 875.156183,130.471658 C860.066893,130.471658 852.618836,139.446471 849.596991,144.539249 L795.464428,144.542314 L795.462895,178.763388 L957.348511,178.708215 L957.348511,143.973725 L900.398013,144.34461 Z" id="Fill-204" fill="#918150" mask="url(#mask-2)"></path>
                    <path d="M896.927415,149.919079 C894.501967,145.679951 887.684036,136.242297 875.18884,136.242297 C862.708975,136.242297 856.732745,145.600257 854.233706,149.813331 L802.218427,149.813331 L802.218427,172.89405 L951.969137,172.89405 L951.969137,149.816396 L896.927415,149.919079 Z" id="Fill-205" fill="#F9BB71" mask="url(#mask-2)"></path>
                    <polygon id="Fill-206" fill="#BDDBE6" mask="url(#mask-2)" points="867.873401 166.700724 884.937392 166.700724 884.937392 149.477542 867.873401 149.477542"></polygon>
                    <polygon id="Stroke-207" stroke="#FFFFFF" mask="url(#mask-2)" points="867.873401 166.700724 884.937392 166.700724 884.937392 149.477542 867.873401 149.477542"></polygon>
                    <path d="M867.873707,158.089439 L884.937699,158.089439" id="Stroke-208" stroke="#FFFFFF" mask="url(#mask-2)"></path>
                    <path d="M876.405396,149.175316 L876.405396,166.700417" id="Stroke-209" stroke="#FFFFFF" mask="url(#mask-2)"></path>
                    <polygon id="Fill-210" fill="#BDDBE6" mask="url(#mask-2)" points="857.096869 232.471578 895.712391 232.471578 895.712391 201.891924 857.096869 201.891924"></polygon>
                    <polygon id="Stroke-211" stroke="#FFFFFF" mask="url(#mask-2)" points="857.096869 232.471578 895.712391 232.471578 895.712391 201.891924 857.096869 201.891924"></polygon>
                    <path d="M876.405396,232.470811 L876.405396,201.891157" id="Stroke-212" stroke="#FFFFFF" mask="url(#mask-2)"></path>
                    <path d="M866.669109,232.470811 L866.669109,201.891157" id="Stroke-213" stroke="#FFFFFF" mask="url(#mask-2)"></path>
                    <path d="M886.809372,232.470811 L886.809372,201.891157" id="Stroke-214" stroke="#FFFFFF" mask="url(#mask-2)"></path>
                    <path d="M857.84796,217.109259 L895.713771,217.109259" id="Stroke-215" stroke="#FFFFFF" mask="url(#mask-2)"></path>
                    <path d="M857.472798,209.20419 L895.338608,209.20419" id="Stroke-216" stroke="#FFFFFF" mask="url(#mask-2)"></path>
                    <path d="M857.310897,225.086514 L895.176707,225.086514" id="Stroke-217" stroke="#FFFFFF" mask="url(#mask-2)"></path>
                    <polygon id="Fill-218" fill="#BDDBE6" mask="url(#mask-2)" points="820.158616 232.802616 839.467143 232.802616 839.467143 201.559353 820.158616 201.559353"></polygon>
                    <polygon id="Stroke-219" stroke="#FFFFFF" mask="url(#mask-2)" points="820.158616 232.802616 839.467143 232.802616 839.467143 201.559353 820.158616 201.559353"></polygon>
                    <path d="M829.813646,232.803229 L829.813646,201.559966" id="Stroke-220" stroke="#FFFFFF" mask="url(#mask-2)"></path>
                    <path d="M820.159536,217.181291 L839.468063,217.181291" id="Stroke-221" stroke="#FFFFFF" mask="url(#mask-2)"></path>
                    <path d="M820.159536,209.20419 L839.468063,209.20419" id="Stroke-222" stroke="#FFFFFF" mask="url(#mask-2)"></path>
                    <path d="M820.159536,225.158392 L839.468063,225.158392" id="Stroke-223" stroke="#FFFFFF" mask="url(#mask-2)"></path>
                    <polygon id="Fill-224" fill="#BDDBE6" mask="url(#mask-2)" points="910.823146 232.730584 930.131674 232.730584 930.131674 201.487321 910.823146 201.487321"></polygon>
                    <polygon id="Stroke-225" stroke="#FFFFFF" mask="url(#mask-2)" points="910.823146 232.730584 930.131674 232.730584 930.131674 201.487321 910.823146 201.487321"></polygon>
                    <path d="M920.477717,232.731197 L920.477717,201.487934" id="Stroke-226" stroke="#FFFFFF" mask="url(#mask-2)"></path>
                    <path d="M910.823606,217.109259 L930.132134,217.109259" id="Stroke-227" stroke="#FFFFFF" mask="url(#mask-2)"></path>
                    <path d="M910.823606,209.132158 L930.132134,209.132158" id="Stroke-228" stroke="#FFFFFF" mask="url(#mask-2)"></path>
                    <path d="M910.823606,225.086514 L930.132134,225.086514" id="Stroke-229" stroke="#FFFFFF" mask="url(#mask-2)"></path>
                    <polygon id="Fill-230" fill="#BDDBE6" mask="url(#mask-2)" points="857.096869 308.912283 895.712391 308.912283 895.712391 261.938575 857.096869 261.938575"></polygon>
                    <polygon id="Stroke-231" stroke="#FFFFFF" mask="url(#mask-2)" points="857.096869 308.912283 895.712391 308.912283 895.712391 261.938575 857.096869 261.938575"></polygon>
                    <path d="M876.405396,308.911823 L876.405396,261.938116" id="Stroke-232" stroke="#FFFFFF" mask="url(#mask-2)"></path>
                    <path d="M866.669109,308.911823 L866.669109,261.938116" id="Stroke-233" stroke="#FFFFFF" mask="url(#mask-2)"></path>
                    <path d="M886.809372,308.911823 L886.809372,261.938116" id="Stroke-234" stroke="#FFFFFF" mask="url(#mask-2)"></path>
                    <path d="M857.84796,285.31401 L895.713771,285.31401" id="Stroke-235" stroke="#FFFFFF" mask="url(#mask-2)"></path>
                    <path d="M857.472798,273.170426 L895.338608,273.170426" id="Stroke-236" stroke="#FFFFFF" mask="url(#mask-2)"></path>
                    <path d="M857.310897,297.568094 L895.176707,297.568094" id="Stroke-237" stroke="#FFFFFF" mask="url(#mask-2)"></path>
                    <polygon id="Fill-238" fill="#BDDBE6" mask="url(#mask-2)" points="820.158616 309.422634 839.467143 309.422634 839.467143 261.426692 820.158616 261.426692"></polygon>
                    <polygon id="Stroke-239" stroke="#FFFFFF" mask="url(#mask-2)" points="820.158616 309.422634 839.467143 309.422634 839.467143 261.426692 820.158616 261.426692"></polygon>
                    <path d="M829.813646,309.422327 L829.813646,261.426386" id="Stroke-240" stroke="#FFFFFF" mask="url(#mask-2)"></path>
                    <path d="M820.159536,285.42451 L839.468063,285.42451" id="Stroke-241" stroke="#FFFFFF" mask="url(#mask-2)"></path>
                    <path d="M820.159536,273.170426 L839.468063,273.170426" id="Stroke-242" stroke="#FFFFFF" mask="url(#mask-2)"></path>
                    <path d="M820.159536,297.678747 L839.468063,297.678747" id="Stroke-243" stroke="#FFFFFF" mask="url(#mask-2)"></path>
                    <polygon id="Fill-244" fill="#BDDBE6" mask="url(#mask-2)" points="910.823146 309.312288 930.131674 309.312288 930.131674 261.316346 910.823146 261.316346"></polygon>
                    <polygon id="Stroke-245" stroke="#FFFFFF" mask="url(#mask-2)" points="910.823146 309.312288 930.131674 309.312288 930.131674 261.316346 910.823146 261.316346"></polygon>
                    <path d="M920.477717,309.311828 L920.477717,261.315886" id="Stroke-246" stroke="#FFFFFF" mask="url(#mask-2)"></path>
                    <path d="M910.823606,285.31401 L930.132134,285.31401" id="Stroke-247" stroke="#FFFFFF" mask="url(#mask-2)"></path>
                    <path d="M910.823606,273.059773 L930.132134,273.059773" id="Stroke-248" stroke="#FFFFFF" mask="url(#mask-2)"></path>
                    <path d="M910.823606,297.568094 L930.132134,297.568094" id="Stroke-249" stroke="#FFFFFF" mask="url(#mask-2)"></path>
                    <polygon id="Fill-250" fill="#BDDBE6" mask="url(#mask-2)" points="857.096869 370.7352 895.712391 370.7352 895.712391 323.761492 857.096869 323.761492"></polygon>
                    <polygon id="Stroke-251" stroke="#FFFFFF" mask="url(#mask-2)" points="857.096869 370.7352 895.712391 370.7352 895.712391 323.761492 857.096869 323.761492"></polygon>
                    <path d="M876.405396,370.734893 L876.405396,323.761186" id="Stroke-252" stroke="#FFFFFF" mask="url(#mask-2)"></path>
                    <path d="M866.669109,370.734893 L866.669109,323.761186" id="Stroke-253" stroke="#FFFFFF" mask="url(#mask-2)"></path>
                    <path d="M886.809372,370.734893 L886.809372,323.761186" id="Stroke-254" stroke="#FFFFFF" mask="url(#mask-2)"></path>
                    <path d="M857.84796,347.13708 L895.713771,347.13708" id="Stroke-255" stroke="#FFFFFF" mask="url(#mask-2)"></path>
                    <path d="M857.472798,334.993496 L895.338608,334.993496" id="Stroke-256" stroke="#FFFFFF" mask="url(#mask-2)"></path>
                    <path d="M857.310897,359.391318 L895.176707,359.391318" id="Stroke-257" stroke="#FFFFFF" mask="url(#mask-2)"></path>
                    <polygon id="Fill-258" fill="#BDDBE6" mask="url(#mask-2)" points="820.158616 371.245551 839.467143 371.245551 839.467143 323.249609 820.158616 323.249609"></polygon>
                    <polygon id="Stroke-259" stroke="#FFFFFF" mask="url(#mask-2)" points="820.158616 371.245551 839.467143 371.245551 839.467143 323.249609 820.158616 323.249609"></polygon>
                    <path d="M829.813646,371.245551 L829.813646,323.249609" id="Stroke-260" stroke="#FFFFFF" mask="url(#mask-2)"></path>
                    <path d="M820.159536,347.247733 L839.468063,347.247733" id="Stroke-261" stroke="#FFFFFF" mask="url(#mask-2)"></path>
                    <path d="M820.159536,334.993496 L839.468063,334.993496" id="Stroke-262" stroke="#FFFFFF" mask="url(#mask-2)"></path>
                    <path d="M820.159536,359.501817 L839.468063,359.501817" id="Stroke-263" stroke="#FFFFFF" mask="url(#mask-2)"></path>
                    <polygon id="Fill-264" fill="#BDDBE6" mask="url(#mask-2)" points="910.823146 371.135204 930.131674 371.135204 930.131674 323.139263 910.823146 323.139263"></polygon>
                    <polygon id="Stroke-265" stroke="#FFFFFF" mask="url(#mask-2)" points="910.823146 371.135204 930.131674 371.135204 930.131674 323.139263 910.823146 323.139263"></polygon>
                    <path d="M920.477717,371.134898 L920.477717,323.138956" id="Stroke-266" stroke="#FFFFFF" mask="url(#mask-2)"></path>
                    <path d="M910.823606,347.13708 L930.132134,347.13708" id="Stroke-267" stroke="#FFFFFF" mask="url(#mask-2)"></path>
                    <path d="M910.823606,334.882843 L930.132134,334.882843" id="Stroke-268" stroke="#FFFFFF" mask="url(#mask-2)"></path>
                    <path d="M910.823606,359.391318 L930.132134,359.391318" id="Stroke-269" stroke="#FFFFFF" mask="url(#mask-2)"></path>
                    <polygon id="Fill-270" fill="#BDDBE6" mask="url(#mask-2)" points="857.096869 432.558117 895.712391 432.558117 895.712391 385.584409 857.096869 385.584409"></polygon>
                    <polygon id="Stroke-271" stroke="#FFFFFF" mask="url(#mask-2)" points="857.096869 432.558117 895.712391 432.558117 895.712391 385.584409 857.096869 385.584409"></polygon>
                    <path d="M876.405396,432.557964 L876.405396,385.584256" id="Stroke-272" stroke="#FFFFFF" mask="url(#mask-2)"></path>
                    <path d="M866.669109,432.557964 L866.669109,385.584256" id="Stroke-273" stroke="#FFFFFF" mask="url(#mask-2)"></path>
                    <path d="M886.809372,432.557964 L886.809372,385.584256" id="Stroke-274" stroke="#FFFFFF" mask="url(#mask-2)"></path>
                    <path d="M857.84796,408.960151 L895.713771,408.960151" id="Stroke-275" stroke="#FFFFFF" mask="url(#mask-2)"></path>
                    <path d="M857.472798,396.816566 L895.338608,396.816566" id="Stroke-276" stroke="#FFFFFF" mask="url(#mask-2)"></path>
                    <path d="M857.310897,421.214388 L895.176707,421.214388" id="Stroke-277" stroke="#FFFFFF" mask="url(#mask-2)"></path>
                    <polygon id="Fill-278" fill="#BDDBE6" mask="url(#mask-2)" points="820.158616 433.068467 839.467143 433.068467 839.467143 385.072526 820.158616 385.072526"></polygon>
                    <polygon id="Stroke-279" stroke="#FFFFFF" mask="url(#mask-2)" points="820.158616 433.068467 839.467143 433.068467 839.467143 385.072526 820.158616 385.072526"></polygon>
                    <path d="M829.813646,433.068621 L829.813646,385.072679" id="Stroke-280" stroke="#FFFFFF" mask="url(#mask-2)"></path>
                    <path d="M820.159536,409.070803 L839.468063,409.070803" id="Stroke-281" stroke="#FFFFFF" mask="url(#mask-2)"></path>
                    <path d="M820.159536,396.816566 L839.468063,396.816566" id="Stroke-282" stroke="#FFFFFF" mask="url(#mask-2)"></path>
                    <path d="M820.159536,421.32504 L839.468063,421.32504" id="Stroke-283" stroke="#FFFFFF" mask="url(#mask-2)"></path>
                    <polygon id="Fill-284" fill="#BDDBE6" mask="url(#mask-2)" points="910.823146 432.958121 930.131674 432.958121 930.131674 384.96218 910.823146 384.96218"></polygon>
                    <polygon id="Stroke-285" stroke="#FFFFFF" mask="url(#mask-2)" points="910.823146 432.958121 930.131674 432.958121 930.131674 384.96218 910.823146 384.96218"></polygon>
                    <path d="M920.477717,432.957968 L920.477717,384.962027" id="Stroke-286" stroke="#FFFFFF" mask="url(#mask-2)"></path>
                    <path d="M910.823606,408.960151 L930.132134,408.960151" id="Stroke-287" stroke="#FFFFFF" mask="url(#mask-2)"></path>
                    <path d="M910.823606,396.705913 L930.132134,396.705913" id="Stroke-288" stroke="#FFFFFF" mask="url(#mask-2)"></path>
                    <path d="M910.823606,421.214388 L930.132134,421.214388" id="Stroke-289" stroke="#FFFFFF" mask="url(#mask-2)"></path>
                    <path d="M901.090691,457.036859 C886.904428,457.036859 875.402714,465.135035 875.402714,469.044657 L875.402714,511.762378 L926.778668,511.762378 L926.778668,469.044657 C926.778668,465.135035 915.276955,457.036859 901.090691,457.036859" id="Fill-290" fill="#918150" mask="url(#mask-2)"></path>
                    <path d="M833.889993,454.093378 C823.346501,454.093378 814.800706,460.111836 814.800706,463.016084 L814.800706,480.803257 L852.97928,480.803257 L852.97928,463.016084 C852.97928,460.111836 844.433486,454.093378 833.889993,454.093378" id="Fill-291" fill="#BDDBE6" mask="url(#mask-2)"></path>
                    <path d="M833.889993,454.093378 C823.346501,454.093378 814.800706,460.111836 814.800706,463.016084 L814.800706,480.803257 L852.97928,480.803257 L852.97928,463.016084 C852.97928,460.111836 844.433486,454.093378 833.889993,454.093378 L833.889993,454.093378 Z" id="Stroke-292" stroke="#FFFFFF" mask="url(#mask-2)"></path>
                    <polygon id="Fill-293" fill="#E9E369" mask="url(#mask-2)" points="778.412702 513.048676 668.804534 513.048676 668.804534 167.809548 723.608618 105.677049 778.412702 167.809548"></polygon>
                    <polygon id="Fill-294" fill="#E9E369" mask="url(#mask-2)" points="777.507375 511.762072 668.44501 511.762072 777.507375 168.240971"></polygon>
                    <polygon id="Fill-295" fill="#C0D54A" mask="url(#mask-2)" points="650.490716 511.762072 668.44547 511.762072 668.44547 172.893897 650.490716 172.893897"></polygon>
                    <polygon id="Fill-296" fill="#C0D54A" mask="url(#mask-2)" points="668.445623 511.762072 650.490869 511.762072 668.445623 172.893897"></polygon>
                    <polygon id="Fill-297" fill="#C0D54A" mask="url(#mask-2)" points="795.463662 511.762072 777.508908 511.763604 777.508908 172.895429 795.463662 172.893897"></polygon>
                    <polygon id="Fill-298" fill="#C0D54A" mask="url(#mask-2)" points="795.463662 511.762072 777.508908 511.763604 795.463662 172.893897"></polygon>
                    <polygon id="Fill-299" fill="#719237" mask="url(#mask-2)" points="783.492497 168.240971 727.219653 104.269371 727.233451 99.608782 718.669259 99.5919236 718.669259 104.342935 662.460807 168.240971 650.489949 168.233308 650.489949 172.893897 668.446236 172.893897 668.446236 168.240971 722.975886 106.418054 777.507068 168.240971 777.507068 172.893897 795.463355 172.893897 795.463355 168.214917"></polygon>
                    <path d="M663.835279,161.341123 C663.835279,165.025456 660.847164,168.01093 657.162997,168.01093 C653.477298,168.01093 650.490716,165.025456 650.490716,161.341123 C650.490716,157.656791 653.477298,154.671316 657.162997,154.671316 C660.847164,154.671316 663.835279,157.656791 663.835279,161.341123" id="Fill-300" fill="#719237" mask="url(#mask-2)"></path>
                    <path d="M655.159626,166.749613 C654.359321,166.749613 653.60041,166.607083 652.864496,166.403249 C654.02816,167.391766 655.515318,168.01093 657.163457,168.01093 C660.847624,168.01093 663.835739,165.025456 663.835739,161.341123 C663.835739,160.824642 663.763681,160.328085 663.653294,159.845321 C662.836123,163.787128 659.345134,166.749613 655.159626,166.749613" id="Fill-301" fill="#719237" mask="url(#mask-2)"></path>
                    <path d="M795.462742,161.34097 C795.462742,165.025302 792.47616,168.010777 788.79046,168.010777 C785.104761,168.010777 782.118179,165.025302 782.118179,161.34097 C782.118179,157.656637 785.104761,154.671163 788.79046,154.671163 C792.47616,154.671163 795.462742,157.656637 795.462742,161.34097" id="Fill-302" fill="#719237" mask="url(#mask-2)"></path>
                    <path d="M786.78709,166.749613 C785.986784,166.749613 785.227873,166.607083 784.49196,166.403249 C785.655623,167.391766 787.142781,168.01093 788.79092,168.01093 C792.475087,168.01093 795.463202,165.025456 795.463202,161.341123 C795.463202,160.824642 795.391144,160.328085 795.280757,159.845321 C794.463586,163.787128 790.972597,166.749613 786.78709,166.749613" id="Fill-303" fill="#719237" mask="url(#mask-2)"></path>
                    <path d="M722.976499,151.169668 C711.479385,151.169668 702.160882,159.267843 702.160882,163.177466 L702.160882,192.005376 L743.792116,192.005376 L743.792116,163.177466 C743.792116,159.267843 734.473613,151.169668 722.976499,151.169668" id="Fill-304" fill="#6199A6" mask="url(#mask-2)"></path>
                    <path d="M722.976499,151.169668 C711.479385,151.169668 702.160882,159.267843 702.160882,163.177466 L702.160882,192.005376 L743.792116,192.005376 L743.792116,163.177466 C743.792116,159.267843 734.473613,151.169668 722.976499,151.169668 L722.976499,151.169668 Z" id="Stroke-305" stroke="#FFFFFF" mask="url(#mask-2)"></path>
                    <path d="M722.976499,192.005989 L722.976499,151.170281" id="Stroke-306" stroke="#FFFFFF" stroke-width="2" mask="url(#mask-2)"></path>
                    <polygon id="Fill-307" fill="#C0D54A" mask="url(#mask-2)" points="701.449652 192.006755 744.564978 192.006755 744.564978 172.693128 701.449652 172.693128"></polygon>
                    <polygon id="Fill-308" fill="#000000" mask="url(#mask-2)" points="701.449652 192.006755 744.564978 192.006755 744.564978 172.693128 701.449652 172.693128"></polygon>
                    <polygon id="Fill-309" fill="#719237" mask="url(#mask-2)" points="697.05257 172.693128 702.161035 172.693128 702.161035 170.406512 697.05257 170.406512"></polygon>
                    <polygon id="Fill-310" fill="#719237" mask="url(#mask-2)" points="743.792269 172.693128 748.900735 172.693128 748.900735 170.406512 743.792269 170.406512"></polygon>
                    <polygon id="Fill-311" fill="#719237" mask="url(#mask-2)" points="697.822212 194.048157 748.362598 194.048157 748.362598 191.761542 697.822212 191.761542"></polygon>
                    <polygon id="Fill-312" fill="#C0D54A" mask="url(#mask-2)" points="699.025737 191.761542 702.00772 191.761542 702.00772 172.693128 699.025737 172.693128"></polygon>
                    <polygon id="Fill-313" fill="#C0D54A" mask="url(#mask-2)" points="744.060571 191.761542 747.042553 191.761542 747.042553 172.693128 744.060571 172.693128"></polygon>
                    <path d="M722.976499,205.381005 C711.479385,205.381005 702.160882,213.47918 702.160882,217.388803 L702.160882,246.216713 L743.792116,246.216713 L743.792116,217.388803 C743.792116,213.47918 734.473613,205.381005 722.976499,205.381005" id="Fill-314" fill="#6199A6" mask="url(#mask-2)"></path>
                    <path d="M722.976499,205.381005 C711.479385,205.381005 702.160882,213.47918 702.160882,217.388803 L702.160882,246.216713 L743.792116,246.216713 L743.792116,217.388803 C743.792116,213.47918 734.473613,205.381005 722.976499,205.381005 L722.976499,205.381005 Z" id="Stroke-315" stroke="#FFFFFF" mask="url(#mask-2)"></path>
                    <path d="M722.976499,246.217479 L722.976499,205.381771" id="Stroke-316" stroke="#FFFFFF" stroke-width="2" mask="url(#mask-2)"></path>
                    <polygon id="Fill-317" fill="#C0D54A" mask="url(#mask-2)" points="701.449652 246.217326 744.564978 246.217326 744.564978 226.903699 701.449652 226.903699"></polygon>
                    <polygon id="Fill-318" fill="#000000" mask="url(#mask-2)" points="701.449652 246.217326 744.564978 246.217326 744.564978 226.903699 701.449652 226.903699"></polygon>
                    <polygon id="Fill-319" fill="#719237" mask="url(#mask-2)" points="697.05257 226.903699 702.161035 226.903699 702.161035 224.617083 697.05257 224.617083"></polygon>
                    <polygon id="Fill-320" fill="#719237" mask="url(#mask-2)" points="743.792269 226.903699 748.900735 226.903699 748.900735 224.617083 743.792269 224.617083"></polygon>
                    <polygon id="Fill-321" fill="#719237" mask="url(#mask-2)" points="697.822212 248.260261 748.362598 248.260261 748.362598 245.973645 697.822212 245.973645"></polygon>
                    <polygon id="Fill-322" fill="#C0D54A" mask="url(#mask-2)" points="699.025737 245.973645 702.00772 245.973645 702.00772 226.905231 699.025737 226.905231"></polygon>
                    <polygon id="Fill-323" fill="#C0D54A" mask="url(#mask-2)" points="744.060571 245.973645 747.042553 245.973645 747.042553 226.905231 744.060571 226.905231"></polygon>
                    <polygon id="Fill-324" fill="#6199A6" mask="url(#mask-2)" points="676.676968 233.199555 690.331227 233.199555 690.331227 213.364849 676.676968 213.364849"></polygon>
                    <polygon id="Stroke-325" stroke="#FFFFFF" mask="url(#mask-2)" points="676.676968 233.199555 690.331227 233.199555 690.331227 213.364849 676.676968 213.364849"></polygon>
                    <polygon id="Fill-326" fill="#719237" mask="url(#mask-2)" points="673.756311 235.486171 692.588028 235.486171 692.588028 233.199555 673.756311 233.199555"></polygon>
                    <polygon id="Fill-327" fill="#6199A6" mask="url(#mask-2)" points="756.043694 232.056247 769.697954 232.056247 769.697954 212.221542 756.043694 212.221542"></polygon>
                    <polygon id="Stroke-328" stroke="#FFFFFF" mask="url(#mask-2)" points="756.043694 232.056247 769.697954 232.056247 769.697954 212.221542 756.043694 212.221542"></polygon>
                    <polygon id="Fill-329" fill="#719237" mask="url(#mask-2)" points="753.123038 234.342863 771.954755 234.342863 771.954755 232.056247 753.123038 232.056247"></polygon>
                    <path d="M722.976499,261.221173 C711.479385,261.221173 702.160882,269.319348 702.160882,273.22897 L702.160882,302.05688 L743.792116,302.05688 L743.792116,273.22897 C743.792116,269.319348 734.473613,261.221173 722.976499,261.221173" id="Fill-330" fill="#6199A6" mask="url(#mask-2)"></path>
                    <path d="M722.976499,261.221173 C711.479385,261.221173 702.160882,269.319348 702.160882,273.22897 L702.160882,302.05688 L743.792116,302.05688 L743.792116,273.22897 C743.792116,269.319348 734.473613,261.221173 722.976499,261.221173 L722.976499,261.221173 Z" id="Stroke-331" stroke="#FFFFFF" mask="url(#mask-2)"></path>
                    <path d="M722.976499,302.057647 L722.976499,261.221939" id="Stroke-332" stroke="#FFFFFF" stroke-width="2" mask="url(#mask-2)"></path>
                    <polygon id="Fill-333" fill="#C0D54A" mask="url(#mask-2)" points="701.449652 302.058566 744.564978 302.058566 744.564978 282.744939 701.449652 282.744939"></polygon>
                    <polygon id="Fill-334" fill="#000000" mask="url(#mask-2)" points="701.449652 302.058566 744.564978 302.058566 744.564978 282.744939 701.449652 282.744939"></polygon>
                    <polygon id="Fill-335" fill="#719237" mask="url(#mask-2)" points="697.05257 282.743407 702.161035 282.743407 702.161035 280.456791 697.05257 280.456791"></polygon>
                    <polygon id="Fill-336" fill="#719237" mask="url(#mask-2)" points="743.792269 282.743407 748.900735 282.743407 748.900735 280.456791 743.792269 280.456791"></polygon>
                    <polygon id="Fill-337" fill="#719237" mask="url(#mask-2)" points="697.822212 304.099969 748.362598 304.099969 748.362598 301.813353 697.822212 301.813353"></polygon>
                    <polygon id="Fill-338" fill="#C0D54A" mask="url(#mask-2)" points="699.025737 301.813353 702.00772 301.813353 702.00772 282.744939 699.025737 282.744939"></polygon>
                    <polygon id="Fill-339" fill="#C0D54A" mask="url(#mask-2)" points="744.060571 301.813353 747.042553 301.813353 747.042553 282.744939 744.060571 282.744939"></polygon>
                    <polygon id="Fill-340" fill="#6199A6" mask="url(#mask-2)" points="676.676968 289.040796 690.331227 289.040796 690.331227 269.20609 676.676968 269.20609"></polygon>
                    <polygon id="Stroke-341" stroke="#FFFFFF" mask="url(#mask-2)" points="676.676968 289.040796 690.331227 289.040796 690.331227 269.20609 676.676968 269.20609"></polygon>
                    <polygon id="Fill-342" fill="#719237" mask="url(#mask-2)" points="673.756311 291.327411 692.588028 291.327411 692.588028 289.040796 673.756311 289.040796"></polygon>
                    <polygon id="Fill-343" fill="#6199A6" mask="url(#mask-2)" points="756.043694 287.897488 769.697954 287.897488 769.697954 268.062782 756.043694 268.062782"></polygon>
                    <polygon id="Stroke-344" stroke="#FFFFFF" mask="url(#mask-2)" points="756.043694 287.897488 769.697954 287.897488 769.697954 268.062782 756.043694 268.062782"></polygon>
                    <polygon id="Fill-345" fill="#719237" mask="url(#mask-2)" points="753.123038 290.184103 771.954755 290.184103 771.954755 287.897488 753.123038 287.897488"></polygon>
                    <polygon id="Fill-346" fill="#6199A6" mask="url(#mask-2)" points="707.680386 366.843969 738.271386 366.843969 738.271386 321.137708 707.680386 321.137708"></polygon>
                    <polygon id="Stroke-347" stroke="#FFFFFF" mask="url(#mask-2)" points="707.680386 366.843969 738.271386 366.843969 738.271386 321.137708 707.680386 321.137708"></polygon>
                    <path d="M722.976499,366.843509 L722.976499,321.137248" id="Stroke-348" stroke="#FFFFFF" mask="url(#mask-2)"></path>
                    <path d="M738.271692,342.328291 L707.680692,342.328291" id="Stroke-349" stroke="#FFFFFF" mask="url(#mask-2)"></path>
                    <polygon id="Fill-350" fill="#6199A6" mask="url(#mask-2)" points="675.856731 366.843969 691.151464 366.843969 691.151464 321.137708 675.856731 321.137708"></polygon>
                    <polygon id="Stroke-351" stroke="#FFFFFF" mask="url(#mask-2)" points="675.856731 366.843969 691.151464 366.843969 691.151464 321.137708 675.856731 321.137708"></polygon>
                    <path d="M691.151617,343.990378 L676.677121,343.990378" id="Stroke-352" stroke="#FFFFFF" mask="url(#mask-2)"></path>
                    <polygon id="Fill-353" fill="#6199A6" mask="url(#mask-2)" points="754.892296 366.843969 770.18703 366.843969 770.18703 321.137708 754.892296 321.137708"></polygon>
                    <polygon id="Stroke-354" stroke="#FFFFFF" mask="url(#mask-2)" points="754.892296 366.843969 770.18703 366.843969 770.18703 321.137708 754.892296 321.137708"></polygon>
                    <path d="M769.698261,343.990378 L754.89107,343.990378" id="Stroke-355" stroke="#FFFFFF" mask="url(#mask-2)"></path>
                    <polygon id="Fill-356" fill="#6199A6" mask="url(#mask-2)" points="707.680386 428.666885 738.271386 428.666885 738.271386 382.960625 707.680386 382.960625"></polygon>
                    <polygon id="Stroke-357" stroke="#FFFFFF" mask="url(#mask-2)" points="707.680386 428.666885 738.271386 428.666885 738.271386 382.960625 707.680386 382.960625"></polygon>
                    <polygon id="Fill-358" fill="#6199A6" mask="url(#mask-2)" points="675.856731 428.666885 691.151464 428.666885 691.151464 382.960625 675.856731 382.960625"></polygon>
                    <polygon id="Stroke-359" stroke="#FFFFFF" mask="url(#mask-2)" points="675.856731 428.666885 691.151464 428.666885 691.151464 382.960625 675.856731 382.960625"></polygon>
                    <polygon id="Fill-360" fill="#6199A6" mask="url(#mask-2)" points="754.892296 428.666885 770.18703 428.666885 770.18703 382.960625 754.892296 382.960625"></polygon>
                    <polygon id="Stroke-361" stroke="#FFFFFF" mask="url(#mask-2)" points="754.892296 428.666885 770.18703 428.666885 770.18703 382.960625 754.892296 382.960625"></polygon>
                    <polygon id="Fill-362" fill="#6199A6" mask="url(#mask-2)" points="707.680386 510.433321 738.271386 510.433321 738.271386 453.26333 707.680386 453.26333"></polygon>
                    <polygon id="Stroke-363" stroke="#FFFFFF" mask="url(#mask-2)" points="707.680386 510.433321 738.271386 510.433321 738.271386 453.26333 707.680386 453.26333"></polygon>
                    <polygon id="Fill-364" fill="#6199A6" mask="url(#mask-2)" points="675.856731 510.433321 691.151464 510.433321 691.151464 453.26333 675.856731 453.26333"></polygon>
                    <polygon id="Stroke-365" stroke="#FFFFFF" mask="url(#mask-2)" points="675.856731 510.433321 691.151464 510.433321 691.151464 453.26333 675.856731 453.26333"></polygon>
                    <polygon id="Fill-366" fill="#6199A6" mask="url(#mask-2)" points="754.892296 510.433321 770.18703 510.433321 770.18703 453.26333 754.892296 453.26333"></polygon>
                    <polygon id="Stroke-367" stroke="#FFFFFF" mask="url(#mask-2)" points="754.892296 510.433321 770.18703 510.433321 770.18703 453.26333 754.892296 453.26333"></polygon>
                    <polygon id="Fill-368" fill="#64C9C1" mask="url(#mask-2)" points="521.764285 374.155928 412.701919 374.155928 412.701919 285.077533 467.233102 223.254616 521.764285 285.077533"></polygon>
                    <polygon id="Fill-369" fill="#419B9B" mask="url(#mask-2)" points="527.749407 285.077379 470.464682 219.954809 470.464682 214.022175 472.936124 214.022175 472.936124 210.138606 461.531 210.138606 461.531 214.022175 463.999376 214.022175 463.999376 219.959406 406.717717 285.077379 402.72692 285.069716 402.72692 289.730305 412.703146 289.730305 412.703146 285.077379 467.232795 223.254462 521.763978 285.077379 521.763978 289.730305 531.740204 289.730305 531.740204 285.051325"></polygon>
                    <polygon id="Fill-370" fill="#419B9B" mask="url(#mask-2)" points="412.701766 437.972737 521.764131 437.972737 521.764131 374.155928 412.701766 374.155928"></polygon>
                    <polygon id="Fill-371" fill="#60B6AD" mask="url(#mask-2)" points="412.701766 511.762072 521.764131 511.762072 521.764131 437.972737 412.701766 437.972737"></polygon>
                    <polygon id="Fill-372" fill="#60B6AD" mask="url(#mask-2)" points="521.764285 285.077379 412.701919 511.761919 521.764285 511.761919"></polygon>
                    <polygon id="Fill-373" fill="#6199A6" mask="url(#mask-2)" points="451.938215 291.724351 482.529215 291.724351 482.529215 261.144697 451.938215 261.144697"></polygon>
                    <polygon id="Stroke-374" stroke="#FFFFFF" mask="url(#mask-2)" points="451.938215 291.724351 482.529215 291.724351 482.529215 261.144697 451.938215 261.144697"></polygon>
                    <path d="M467.233255,291.725117 L467.233255,261.145463" id="Stroke-375" stroke="#FFFFFF" mask="url(#mask-2)"></path>
                    <path d="M451.938062,276.435443 L482.529062,276.435443" id="Stroke-376" stroke="#FFFFFF" mask="url(#mask-2)"></path>
                    <polygon id="Fill-377" fill="#6199A6" mask="url(#mask-2)" points="428.818269 356.871443 455.107242 356.871443 455.107242 314.326903 428.818269 314.326903"></polygon>
                    <polygon id="Stroke-378" stroke="#FFFFFF" mask="url(#mask-2)" points="428.818269 356.871443 455.107242 356.871443 455.107242 314.326903 428.818269 314.326903"></polygon>
                    <path d="M441.962909,356.872056 L441.962909,314.327516" id="Stroke-379" stroke="#FFFFFF" mask="url(#mask-2)"></path>
                    <path d="M428.818576,336.264315 L455.107549,336.264315" id="Stroke-380" stroke="#FFFFFF" mask="url(#mask-2)"></path>
                    <polygon id="Fill-381" fill="#6199A6" mask="url(#mask-2)" points="480.689432 356.871443 506.978405 356.871443 506.978405 314.326903 480.689432 314.326903"></polygon>
                    <polygon id="Stroke-382" stroke="#FFFFFF" mask="url(#mask-2)" points="480.689432 356.871443 506.978405 356.871443 506.978405 314.326903 480.689432 314.326903"></polygon>
                    <path d="M493.833765,356.872056 L493.833765,314.327516" id="Stroke-383" stroke="#FFFFFF" mask="url(#mask-2)"></path>
                    <path d="M480.689432,336.264315 L506.978405,336.264315" id="Stroke-384" stroke="#FFFFFF" mask="url(#mask-2)"></path>
                    <polygon id="Fill-385" fill="#6199A6" mask="url(#mask-2)" points="426.668789 418.69436 441.963522 418.69436 441.963522 387.451097 426.668789 387.451097"></polygon>
                    <polygon id="Stroke-386" stroke="#FFFFFF" mask="url(#mask-2)" points="426.668789 418.69436 441.963522 418.69436 441.963522 387.451097 426.668789 387.451097"></polygon>
                    <path d="M434.315236,418.695126 L434.315236,387.451863" id="Stroke-387" stroke="#FFFFFF" mask="url(#mask-2)"></path>
                    <path d="M426.667716,403.073188 L441.962449,403.073188" id="Stroke-388" stroke="#FFFFFF" mask="url(#mask-2)"></path>
                    <polygon id="Fill-389" fill="#6199A6" mask="url(#mask-2)" points="448.612806 418.69436 463.90754 418.69436 463.90754 387.451097 448.612806 387.451097"></polygon>
                    <polygon id="Stroke-390" stroke="#FFFFFF" mask="url(#mask-2)" points="448.612806 418.69436 463.90754 418.69436 463.90754 387.451097 448.612806 387.451097"></polygon>
                    <path d="M456.260633,418.695126 L456.260633,387.451863" id="Stroke-391" stroke="#FFFFFF" mask="url(#mask-2)"></path>
                    <path d="M448.61296,403.073188 L463.907693,403.073188" id="Stroke-392" stroke="#FFFFFF" mask="url(#mask-2)"></path>
                    <polygon id="Fill-393" fill="#6199A6" mask="url(#mask-2)" points="470.558357 418.69436 485.853091 418.69436 485.853091 387.451097 470.558357 387.451097"></polygon>
                    <polygon id="Stroke-394" stroke="#FFFFFF" mask="url(#mask-2)" points="470.558357 418.69436 485.853091 418.69436 485.853091 387.451097 470.558357 387.451097"></polygon>
                    <path d="M478.206031,418.695126 L478.206031,387.451863" id="Stroke-395" stroke="#FFFFFF" mask="url(#mask-2)"></path>
                    <path d="M470.558357,403.073188 L485.853091,403.073188" id="Stroke-396" stroke="#FFFFFF" mask="url(#mask-2)"></path>
                    <polygon id="Fill-397" fill="#6199A6" mask="url(#mask-2)" points="492.503908 418.69436 507.798641 418.69436 507.798641 387.451097 492.503908 387.451097"></polygon>
                    <polygon id="Stroke-398" stroke="#FFFFFF" mask="url(#mask-2)" points="492.503908 418.69436 507.798641 418.69436 507.798641 387.451097 492.503908 387.451097"></polygon>
                    <path d="M500.151428,418.695126 L500.151428,387.451863" id="Stroke-399" stroke="#FFFFFF" mask="url(#mask-2)"></path>
                    <path d="M492.503755,403.073188 L507.798488,403.073188" id="Stroke-400" stroke="#FFFFFF" mask="url(#mask-2)"></path>
                    <polygon id="Fill-401" fill="#BDDBE6" mask="url(#mask-2)" points="451.938215 511.762072 482.529215 511.762072 482.529215 453.26333 451.938215 453.26333"></polygon>
                    <polygon id="Stroke-402" stroke="#FFFFFF" mask="url(#mask-2)" points="451.938215 511.762072 482.529215 511.762072 482.529215 453.26333 451.938215 453.26333"></polygon>
                    <polygon id="Fill-403" fill="#BDDBE6" mask="url(#mask-2)" points="426.668789 511.762072 441.963522 511.762072 441.963522 453.26333 426.668789 453.26333"></polygon>
                    <polygon id="Stroke-404" stroke="#FFFFFF" mask="url(#mask-2)" points="426.668789 511.762072 441.963522 511.762072 441.963522 453.26333 426.668789 453.26333"></polygon>
                    <polygon id="Fill-405" fill="#BDDBE6" mask="url(#mask-2)" points="492.503908 511.762072 507.798641 511.762072 507.798641 453.26333 492.503908 453.26333"></polygon>
                    <polygon id="Stroke-406" stroke="#FFFFFF" mask="url(#mask-2)" points="492.503908 511.762072 507.798641 511.762072 507.798641 453.26333 492.503908 453.26333"></polygon>
                </g>
            </g>
        </g>
    </g>
</svg>