<?xml version="1.0" encoding="UTF-8"?>
<svg width="1201px" height="431px" viewBox="0 0 1201 431" version="1.1" xmlns="http://www.w3.org/2000/svg" xmlns:xlink="http://www.w3.org/1999/xlink">
    <!-- Generator: Sketch 3.8.1 (29687) - http://www.bohemiancoding.com/sketch -->
    <title>illustration</title>
    <desc>Created with Sketch.</desc>
    <defs>
        <polygon id="path-1" points="0 805 1202.884 805 1202.884 0.835 0 0.835"></polygon>
    </defs>
    <g id="Page-1" stroke="none" stroke-width="1" fill="none" fill-rule="evenodd">
        <g id="Gatepass-Landing-Page-4" transform="translate(-239.000000, -499.000000)">
            <g id="hero" transform="translate(0.000000, -25.000000)">
                <g id="Info" transform="translate(79.000000, 195.000000)">
                    <g id="illustration" transform="translate(158.000000, 30.000000)">
                        <g id="Group-2" transform="translate(1.000000, 5.000000)">
                            <polygon id="Fill-1" points="0.882 797.352 1200.032 797.352 1200.032 0.164 0.882 0.164"></polygon>
                            <path d="M573.882,499.165 L586.882,499.165 L586.882,481.165 L573.882,481.165 L573.882,499.165 Z M573.882,528.165 L586.882,528.165 L586.882,510.165 L573.882,510.165 L573.882,528.165 Z M573.882,556.165 L586.882,556.165 L586.882,540.165 L573.882,540.165 L573.882,556.165 Z M573.882,587.165 L586.882,587.165 L586.882,568.165 L573.882,568.165 L573.882,587.165 Z M573.882,615.165 L586.882,615.165 L586.882,597.165 L573.882,597.165 L573.882,615.165 Z M541.882,499.165 L553.882,499.165 L553.882,481.165 L541.882,481.165 L541.882,499.165 Z M541.882,528.165 L553.882,528.165 L553.882,510.165 L541.882,510.165 L541.882,528.165 Z M541.882,556.165 L553.882,556.165 L553.882,540.165 L541.882,540.165 L541.882,556.165 Z M541.882,587.165 L553.882,587.165 L553.882,568.165 L541.882,568.165 L541.882,587.165 Z M541.882,615.165 L553.882,615.165 L553.882,597.165 L541.882,597.165 L541.882,615.165 Z M592.882,455.165 L592.882,434.165 L570.882,434.165 L570.882,455.165 L519.882,455.165 L519.882,674.165 L608.882,674.165 L608.882,455.165 L592.882,455.165 Z" id="Fill-3" fill="#51AEE2"></path>
                            <polygon id="Fill-4" fill="#FFFFFF" points="541.882 499.165 553.882 499.165 553.882 481.165 541.882 481.165"></polygon>
                            <polygon id="Fill-5" fill="#FFFFFF" points="573.882 499.165 586.882 499.165 586.882 481.165 573.882 481.165"></polygon>
                            <polygon id="Fill-6" fill="#FFFFFF" points="541.882 528.165 553.882 528.165 553.882 510.165 541.882 510.165"></polygon>
                            <polygon id="Fill-7" fill="#FFFFFF" points="573.882 528.165 586.882 528.165 586.882 510.165 573.882 510.165"></polygon>
                            <polygon id="Fill-8" fill="#FFFFFF" points="541.882 556.165 553.882 556.165 553.882 540.165 541.882 540.165"></polygon>
                            <polygon id="Fill-9" fill="#FFFFFF" points="573.882 556.165 586.882 556.165 586.882 540.165 573.882 540.165"></polygon>
                            <polygon id="Fill-10" fill="#FFFFFF" points="541.882 587.165 553.882 587.165 553.882 568.165 541.882 568.165"></polygon>
                            <polygon id="Fill-11" fill="#FFFFFF" points="573.882 587.165 586.882 587.165 586.882 568.165 573.882 568.165"></polygon>
                            <polygon id="Fill-12" fill="#FFFFFF" points="541.882 615.165 553.882 615.165 553.882 597.165 541.882 597.165"></polygon>
                            <polygon id="Fill-13" fill="#FFFFFF" points="573.882 615.165 586.882 615.165 586.882 597.165 573.882 597.165"></polygon>
                            <path d="M760.882,373.165 L770.882,373.165 L770.882,354.165 L760.882,354.165 L760.882,373.165 Z M760.882,402.165 L770.882,402.165 L770.882,385.165 L760.882,385.165 L760.882,402.165 Z M760.882,432.165 L770.882,432.165 L770.882,413.165 L760.882,413.165 L760.882,432.165 Z M760.882,462.165 L770.882,462.165 L770.882,442.165 L760.882,442.165 L760.882,462.165 Z M760.882,491.165 L770.882,491.165 L770.882,472.165 L760.882,472.165 L760.882,491.165 Z M760.882,522.165 L770.882,522.165 L770.882,501.165 L760.882,501.165 L760.882,522.165 Z M760.882,550.165 L770.882,550.165 L770.882,532.165 L760.882,532.165 L760.882,550.165 Z M760.882,580.165 L770.882,580.165 L770.882,560.165 L760.882,560.165 L760.882,580.165 Z M740.882,373.165 L751.882,373.165 L751.882,354.165 L740.882,354.165 L740.882,373.165 Z M740.882,402.165 L751.882,402.165 L751.882,385.165 L740.882,385.165 L740.882,402.165 Z M740.882,432.165 L751.882,432.165 L751.882,413.165 L740.882,413.165 L740.882,432.165 Z M740.882,462.165 L751.882,462.165 L751.882,442.165 L740.882,442.165 L740.882,462.165 Z M740.882,491.165 L751.882,491.165 L751.882,472.165 L740.882,472.165 L740.882,491.165 Z M740.882,522.165 L751.882,522.165 L751.882,501.165 L740.882,501.165 L740.882,522.165 Z M740.882,550.165 L751.882,550.165 L751.882,532.165 L740.882,532.165 L740.882,550.165 Z M740.882,580.165 L751.882,580.165 L751.882,560.165 L740.882,560.165 L740.882,580.165 Z M721.882,373.165 L731.882,373.165 L731.882,354.165 L721.882,354.165 L721.882,373.165 Z M721.882,402.165 L731.882,402.165 L731.882,385.165 L721.882,385.165 L721.882,402.165 Z M721.882,432.165 L731.882,432.165 L731.882,413.165 L721.882,413.165 L721.882,432.165 Z M721.882,462.165 L731.882,462.165 L731.882,442.165 L721.882,442.165 L721.882,462.165 Z M721.882,491.165 L731.882,491.165 L731.882,472.165 L721.882,472.165 L721.882,491.165 Z M721.882,522.165 L731.882,522.165 L731.882,501.165 L721.882,501.165 L721.882,522.165 Z M721.882,550.165 L731.882,550.165 L731.882,532.165 L721.882,532.165 L721.882,550.165 Z M721.882,580.165 L731.882,580.165 L731.882,560.165 L721.882,560.165 L721.882,580.165 Z M705.882,594.165 L786.882,594.165 L786.882,333.165 L705.882,333.165 L705.882,594.165 Z" id="Fill-14" fill="#51AEE2"></path>
                            <polygon id="Fill-15" fill="#FFFFFF" points="760.882 373.165 770.882 373.165 770.882 354.165 760.882 354.165"></polygon>
                            <polygon id="Fill-16" fill="#FFFFFF" points="740.882 373.165 751.882 373.165 751.882 354.165 740.882 354.165"></polygon>
                            <polygon id="Fill-17" fill="#FFFFFF" points="721.882 373.165 731.882 373.165 731.882 354.165 721.882 354.165"></polygon>
                            <polygon id="Fill-18" fill="#FFFFFF" points="760.882 402.165 770.882 402.165 770.882 385.165 760.882 385.165"></polygon>
                            <polygon id="Fill-19" fill="#FFFFFF" points="740.882 402.165 751.882 402.165 751.882 385.165 740.882 385.165"></polygon>
                            <polygon id="Fill-20" fill="#FFFFFF" points="721.882 402.165 731.882 402.165 731.882 385.165 721.882 385.165"></polygon>
                            <polygon id="Fill-21" fill="#FFFFFF" points="760.882 432.165 770.882 432.165 770.882 413.165 760.882 413.165"></polygon>
                            <polygon id="Fill-22" fill="#FFFFFF" points="740.882 432.165 751.882 432.165 751.882 413.165 740.882 413.165"></polygon>
                            <polygon id="Fill-23" fill="#FFFFFF" points="721.882 432.165 731.882 432.165 731.882 413.165 721.882 413.165"></polygon>
                            <polygon id="Fill-24" fill="#FFFFFF" points="760.882 462.165 770.882 462.165 770.882 442.165 760.882 442.165"></polygon>
                            <polygon id="Fill-25" fill="#FFFFFF" points="740.882 462.165 751.882 462.165 751.882 442.165 740.882 442.165"></polygon>
                            <polygon id="Fill-26" fill="#FFFFFF" points="721.882 462.165 731.882 462.165 731.882 442.165 721.882 442.165"></polygon>
                            <polygon id="Fill-27" fill="#FFFFFF" points="760.882 491.165 770.882 491.165 770.882 472.165 760.882 472.165"></polygon>
                            <polygon id="Fill-28" fill="#FFFFFF" points="740.882 491.165 751.882 491.165 751.882 472.165 740.882 472.165"></polygon>
                            <polygon id="Fill-29" fill="#FFFFFF" points="721.882 491.165 731.882 491.165 731.882 472.165 721.882 472.165"></polygon>
                            <polygon id="Fill-30" fill="#FFFFFF" points="760.882 522.165 770.882 522.165 770.882 501.165 760.882 501.165"></polygon>
                            <polygon id="Fill-31" fill="#FFFFFF" points="740.882 522.165 751.882 522.165 751.882 501.165 740.882 501.165"></polygon>
                            <polygon id="Fill-32" fill="#FFFFFF" points="721.882 522.165 731.882 522.165 731.882 501.165 721.882 501.165"></polygon>
                            <polygon id="Fill-33" fill="#FFFFFF" points="760.882 550.165 770.882 550.165 770.882 532.165 760.882 532.165"></polygon>
                            <polygon id="Fill-34" fill="#FFFFFF" points="740.882 550.165 751.882 550.165 751.882 532.165 740.882 532.165"></polygon>
                            <polygon id="Fill-35" fill="#FFFFFF" points="721.882 550.165 731.882 550.165 731.882 532.165 721.882 532.165"></polygon>
                            <polygon id="Fill-36" fill="#FFFFFF" points="760.882 580.165 770.882 580.165 770.882 560.165 760.882 560.165"></polygon>
                            <polygon id="Fill-37" fill="#FFFFFF" points="740.882 580.165 751.882 580.165 751.882 560.165 740.882 560.165"></polygon>
                            <polygon id="Fill-38" fill="#FFFFFF" points="721.882 580.165 731.882 580.165 731.882 560.165 721.882 560.165"></polygon>
                            <polygon id="Fill-39" fill="#51AEE2" points="237.979 685.015 240.882 685.015 240.882 577.453 237.979 577.453"></polygon>
                            <polygon id="Fill-40" fill="#51AEE2" points="264.4043 587.6972 239.5903 587.6972 239.5903 577.4532 264.4043 577.4532 268.2813 582.5752"></polygon>
                            <polygon id="Fill-41" fill="#51AEE2" points="214.6152 603.8457 239.4302 603.8457 239.4302 593.5987 214.6152 593.5987 210.7392 598.7227"></polygon>
                            <polygon id="Fill-42" fill="#51AEE2" points="214.6152 621.9306 239.4302 621.9306 239.4302 611.6846 214.6152 611.6846 210.7392 616.8076"></polygon>
                        </g>
                        <g id="Group-116" transform="translate(0.000000, 0.165000)">
                            <path d="M687.8867,554.5498 C687.8507,554.4948 687.8187,554.4388 687.7907,554.3778 C687.2717,553.3238 686.6667,552.3438 685.9847,551.4338 C686.5717,549.8728 686.9467,548.2318 687.0737,546.5558 C687.4347,541.8478 685.8357,537.1018 682.7147,533.5588 C681.5657,532.5558 680.4167,531.5528 679.2687,530.5498 C678.6077,530.1138 677.9277,529.7288 677.2347,529.3878 C677.0737,527.7898 676.6397,526.2438 675.9187,524.7518 C674.8247,522.5278 673.2517,520.7268 671.1967,519.3478 C669.0167,517.6718 666.9367,517.4228 664.3357,516.9378 C663.1397,517.0028 661.9427,517.0678 660.7447,517.1328 C658.2457,517.6158 656.0377,518.6948 654.1177,520.3658 C652.7887,521.5348 651.7107,522.9538 650.9207,524.5208 C650.3477,524.4098 649.7627,524.3248 649.1647,524.2778 C647.8397,524.3498 646.5137,524.4218 645.1867,524.4938 C642.4167,525.0318 639.9697,526.2248 637.8417,528.0758 C634.8527,530.7108 632.9857,534.4818 632.6827,538.4508 C632.5847,539.7358 632.6727,541.0198 632.8977,542.2778 C632.6017,542.3978 632.3077,542.5248 632.0157,542.6658 L629.0117,544.6658 C627.2447,546.2388 625.9717,548.1428 625.1947,550.3758 C624.7357,551.5148 624.4687,552.7518 624.4687,553.9798 C624.5327,555.1418 624.5947,556.3048 624.6577,557.4688 C625.1277,559.8968 626.1757,562.0448 627.7997,563.9098 C630.0517,566.4648 633.2497,568.0738 636.6327,568.4008 C636.5737,572.3578 637.9937,576.2688 640.6177,579.2458 C641.6607,580.1568 642.7037,581.0698 643.7477,581.9808 C646.0847,583.5208 648.6477,584.4018 651.4367,584.6268 C652.8197,584.5508 653.9357,584.4768 655.3187,584.4018 C655.5987,584.3468 655.8817,584.2808 655.8817,584.2128 L655.8817,575.1288 L646.4067,561.6518 L657.2767,569.6638 L659.2727,548.4438 L661.0247,569.6948 L671.7617,561.4888 L661.8817,575.1288 L661.8817,581.6568 C661.8817,581.3488 662.7877,581.0218 663.1987,580.6658 C663.7337,580.1918 664.2467,579.6718 664.7137,579.1318 C667.9147,580.4568 671.4947,580.8758 674.9587,580.2258 C679.7117,579.3348 683.9987,576.5128 686.6787,572.4868 C688.4127,569.8568 689.4087,566.9678 689.6627,563.8238 C689.8967,560.5768 689.3057,557.4848 687.8867,554.5498 L687.8867,554.5498 Z" id="Fill-43" fill="#51AEE2"></path>
                            <polygon id="Fill-45" fill="#FFB726" points="671.7783 561.4893 661.0333 569.6953 659.3263 548.4433 657.4053 569.6643 646.4023 561.6523 655.8823 575.1293 655.8823 584.2133 655.8823 628.0003 661.8823 628.0003 661.8823 581.6573 661.8823 575.1293"></polygon>
                            <path d="M1148.3936,474.5703 C1148.3476,474.5013 1148.3076,474.4283 1148.2736,474.3533 C1147.6166,473.0203 1146.8516,471.7803 1145.9886,470.6293 C1146.7316,468.6573 1147.2066,466.5803 1147.3666,464.4613 C1147.8226,458.5063 1145.7996,452.5053 1141.8526,448.0223 C1140.4006,446.7563 1138.9466,445.4873 1137.4956,444.2193 C1136.6596,443.6673 1135.7996,443.1793 1134.9226,442.7493 C1134.7186,440.7273 1134.1696,438.7733 1133.2586,436.8863 C1131.8756,434.0733 1129.8856,431.7953 1127.2866,430.0503 C1124.5306,427.9323 1121.8996,427.6173 1118.6106,427.0043 C1117.0976,427.0873 1115.5826,427.1683 1114.0686,427.2513 C1110.9086,427.8623 1108.1166,429.2253 1105.6876,431.3403 C1104.0066,432.8183 1102.6436,434.6123 1101.6446,436.5933 C1100.9186,436.4543 1100.1786,436.3453 1099.4236,436.2863 C1097.7476,436.3793 1096.0696,436.4693 1094.3926,436.5603 C1090.8906,437.2393 1087.7936,438.7493 1085.1036,441.0903 C1081.3236,444.4233 1078.9606,449.1903 1078.5796,454.2123 C1078.4556,455.8373 1078.5666,457.4593 1078.8496,459.0503 C1078.4766,459.2013 1078.1046,459.3623 1077.7346,459.5413 L1073.9366,462.0703 C1071.7026,464.0593 1070.0916,466.4673 1069.1086,469.2933 C1068.5276,470.7323 1068.1916,472.2983 1068.1916,473.8493 C1068.2716,475.3183 1068.3496,476.7903 1068.4306,478.2623 C1069.0246,481.3323 1070.3496,484.0483 1072.4046,486.4093 C1075.2506,489.6383 1079.2966,491.6743 1083.5746,492.0883 C1083.5006,497.0903 1085.2956,502.0383 1088.6146,505.8043 C1089.9336,506.9573 1091.2526,508.1093 1092.5736,509.2613 C1095.5286,511.2093 1098.7686,512.3233 1102.2956,512.6093 C1104.0456,512.5123 1105.9386,512.4193 1107.6866,512.3233 C1108.0416,512.2543 1108.8816,512.1713 1108.8816,512.0863 L1108.8816,500.5963 L1096.4166,483.5533 L1109.9226,493.6853 L1112.3266,466.8483 L1114.4816,493.7243 L1128.2196,483.3463 L1115.8816,500.5963 L1115.8816,508.8523 C1115.8816,508.4623 1116.8386,508.0493 1117.3566,507.5993 C1118.0366,506.9993 1118.5906,506.3433 1119.1806,505.6603 C1123.2286,507.3353 1127.7106,507.8653 1132.0916,507.0423 C1138.1036,505.9163 1143.5006,502.3463 1146.8896,497.2563 C1149.0826,493.9283 1150.3306,490.2753 1150.6536,486.3013 C1150.9486,482.1933 1150.1896,478.2833 1148.3936,474.5703" id="Fill-47" fill="#51AEE2"></path>
                            <polygon id="Fill-49" fill="#FFB726" points="1128.21 483.3467 1114.526 493.7247 1112.321 466.8487 1109.868 493.6857 1096.423 483.5537 1108.882 500.5967 1108.882 512.0857 1108.882 566.9997 1115.882 566.9997 1115.882 508.8527 1115.882 500.5967"></polygon>
                            <path d="M182.3339,568.2285 C182.2879,568.1605 182.2469,568.0875 182.2139,568.0115 C181.5559,566.6785 180.7919,565.4385 179.9289,564.2875 C180.6709,562.3155 181.1469,560.2395 181.3069,558.1195 C181.7619,552.1645 179.7399,546.1645 175.7929,541.6815 C174.3409,540.4145 172.8869,539.1455 171.4359,537.8775 C170.5989,537.3265 169.7389,536.8375 168.8619,536.4085 C168.6579,534.3855 168.1099,532.4315 167.1979,530.5445 C165.8159,527.7325 163.8249,525.4535 161.2269,523.7095 C158.4699,521.5905 155.8389,521.2755 152.5509,520.6625 C151.0379,520.7455 149.5229,520.8265 148.0089,520.9105 C144.8489,521.5215 142.0559,522.8835 139.6279,524.9975 C137.9469,526.4765 136.5829,528.2715 135.5849,530.2525 C134.8589,530.1125 134.1189,530.0035 133.3639,529.9455 C131.6889,530.0375 130.0099,530.1275 128.3329,530.2185 C124.8309,530.8975 121.7339,532.4075 119.0439,534.7485 C115.2629,538.0825 112.9009,542.8485 112.5199,547.8705 C112.3959,549.4955 112.5059,551.1175 112.7899,552.7085 C112.4159,552.8605 112.0449,553.0215 111.6749,553.1995 L107.8769,555.7285 C105.6419,557.7185 104.0319,560.1265 103.0479,562.9515 C102.4679,564.3905 102.1309,565.9565 102.1309,567.5075 C102.2109,568.9765 102.2899,570.4485 102.3709,571.9215 C102.9649,574.9915 104.2889,577.7075 106.3449,580.0675 C109.1909,583.2975 113.2359,585.3325 117.5149,585.7465 C117.4409,590.7495 119.2359,595.6965 122.5549,599.4625 C123.8729,600.6155 125.1929,601.7675 126.5129,602.9195 C129.4689,604.8675 132.7089,605.9815 136.2359,606.2675 C137.9849,606.1705 139.9079,606.0775 141.6559,605.9815 C142.0109,605.9125 142.8819,605.8295 142.8819,605.7445 L142.8819,594.2545 L130.3869,577.2125 L143.8779,587.3435 L146.2729,560.5065 L148.4249,587.3835 L162.1909,577.0055 L149.8819,594.2545 L149.8819,602.5115 C149.8819,602.1205 150.8099,601.7075 151.3269,601.2575 C152.0069,600.6585 152.5459,600.0015 153.1369,599.3185 C157.1849,600.9935 161.6589,601.5235 166.0389,600.7005 C172.0509,599.5745 177.4439,596.0055 180.8329,590.9145 C183.0259,587.5865 184.2729,583.9335 184.5949,579.9605 C184.8909,575.8515 184.1289,571.9415 182.3339,568.2285" id="Fill-51" fill="#51AEE2"></path>
                            <polygon id="Fill-53" fill="#FFB726" points="162.1806 577.0059 148.4826 587.3839 146.2686 560.5069 143.8116 587.3439 130.3956 577.2129 142.8816 594.2549 142.8816 605.7439 142.8816 660.9999 149.8816 660.9999 149.8816 602.5119 149.8816 594.2549"></polygon>
                            <path d="M501.6816,625.2178 C501.6456,625.1628 501.6146,625.1068 501.5856,625.0458 C501.0676,623.9918 500.4616,623.0118 499.7806,622.1018 C500.3676,620.5408 500.7436,618.8998 500.8696,617.2238 C501.2296,612.5158 499.6306,607.7698 496.5096,604.2268 C495.3616,603.2238 494.2116,602.2208 493.0636,601.2188 C492.4026,600.7818 491.7236,600.3968 491.0306,600.0558 C490.8686,598.4578 490.4346,596.9118 489.7136,595.4198 C488.6216,593.1968 487.0466,591.3948 484.9916,590.0158 C482.8116,588.3398 480.7316,588.0908 478.1306,587.6058 C476.9346,587.6708 475.7376,587.7358 474.5396,587.8018 C472.0416,588.2838 469.8326,589.3628 467.9136,591.0338 C466.5836,592.2028 465.5066,593.6228 464.7166,595.1898 C464.1426,595.0778 463.5576,594.9928 462.9606,594.9448 C461.6346,595.0178 460.3086,595.0908 458.9816,595.1628 C456.2126,595.6988 453.7646,596.8928 451.6366,598.7448 C448.6476,601.3788 446.7806,605.1498 446.4776,609.1188 C446.3796,610.4038 446.4676,611.6878 446.6926,612.9448 C446.3966,613.0658 446.1026,613.1928 445.8106,613.3338 L442.8066,615.3338 C441.0396,616.9068 439.7666,618.8108 438.9896,621.0438 C438.5306,622.1828 438.2646,623.4198 438.2646,624.6478 C438.3286,625.8098 438.3896,626.9728 438.4546,628.1368 C438.9236,630.5648 439.9706,632.7128 441.5956,634.5778 C443.8466,637.1328 447.0446,638.7418 450.4276,639.0688 C450.3706,643.0258 451.7886,646.9368 454.4136,649.9138 C455.4556,650.8258 456.4996,651.7378 457.5436,652.6488 C459.8796,654.1888 462.4426,655.0698 465.2316,655.2948 C466.6156,655.2198 467.8326,655.1448 469.2156,655.0698 C469.4966,655.0148 469.8816,654.9488 469.8816,654.8808 L469.8816,645.7968 L460.3036,632.3198 L471.1226,640.3318 L473.0926,619.1128 L474.8316,640.3628 L485.6656,632.1568 L475.8816,645.7968 L475.8816,652.3248 C475.8816,652.0168 476.6846,651.6898 477.0946,651.3338 C477.6306,650.8598 478.0926,650.3398 478.5596,649.8008 C481.7606,651.1248 485.3166,651.5438 488.7806,650.8938 C493.5336,650.0028 497.8066,647.1818 500.4866,643.1548 C502.2206,640.5248 503.2096,637.6358 503.4636,634.4928 C503.6986,631.2448 503.1016,628.1518 501.6816,625.2178" id="Fill-55" fill="#51AEE2"></path>
                            <polygon id="Fill-57" fill="#F9B225" points="485.6757 632.1572 474.8787 640.3632 473.1477 619.1122 471.2127 640.3322 460.3057 632.3202 469.8817 645.7972 469.8817 654.8812 469.8817 698.0002 475.8817 698.0002 475.8817 652.3252 475.8817 645.7972"></polygon>
                            <mask id="mask-2" fill="white">
                                <use xlink:href="#path-1"></use>
                            </mask>
                            <g id="Clip-60"></g>
                            <polygon id="Fill-59" fill="#51AEE2" mask="url(#mask-2)" points="297.882 699 420.882 699 420.882 558 297.882 558"></polygon>
                            <polygon id="Fill-61" fill="#1D9598" mask="url(#mask-2)" points="359.5293 495.8418 281.9193 574.9998 437.1383 574.9998 359.5293 495.8418 281.9193 574.9998 437.1383 574.9998"></polygon>
                            <polygon id="Fill-62" fill="#FAFCFB" mask="url(#mask-2)" points="322.882 630 343.882 630 343.882 593 322.882 593"></polygon>
                            <polygon id="Fill-63" fill="#FAFCFB" mask="url(#mask-2)" points="348.882 630 369.882 630 369.882 593 348.882 593"></polygon>
                            <polygon id="Fill-64" fill="#FAFCFB" mask="url(#mask-2)" points="374.882 630 395.882 630 395.882 593 374.882 593"></polygon>
                            <polygon id="Fill-65" fill="#FAFCFB" mask="url(#mask-2)" points="322.882 674 343.882 674 343.882 637 322.882 637"></polygon>
                            <polygon id="Fill-66" fill="#FAFCFB" mask="url(#mask-2)" points="348.882 674 369.882 674 369.882 637 348.882 637"></polygon>
                            <polygon id="Fill-67" fill="#FAFCFB" mask="url(#mask-2)" points="374.882 674 395.882 674 395.882 637 374.882 637"></polygon>
                            <path d="M551.5742,330.2549 C551.5742,347.0889 537.9262,360.7359 521.0922,360.7359 C504.2592,360.7359 490.6112,347.0889 490.6112,330.2549 C490.6112,313.4209 504.2592,299.7729 521.0922,299.7729 C537.9262,299.7729 551.5742,313.4209 551.5742,330.2549" id="Fill-68" fill="#FFE3A8" mask="url(#mask-2)"></path>
                            <path d="M543.8271,330.2549 C543.8271,342.8109 533.6481,352.9889 521.0931,352.9889 C508.5371,352.9889 498.3581,342.8109 498.3581,330.2549 C498.3581,317.6999 508.5371,307.5209 521.0931,307.5209 C533.6481,307.5209 543.8271,317.6999 543.8271,330.2549" id="Fill-69" fill="#FFC651" mask="url(#mask-2)"></path>
                            <path d="M535.8125,330.2549 C535.8125,338.3849 529.2225,344.9749 521.0925,344.9749 C512.9615,344.9749 506.3725,338.3849 506.3725,330.2549 C506.3725,322.1249 512.9615,315.5349 521.0925,315.5349 C529.2225,315.5349 535.8125,322.1249 535.8125,330.2549" id="Fill-70" fill="#FFB726" mask="url(#mask-2)"></path>
                            <path d="M467.7412,451.8271 C470.5252,447.2251 472.1292,441.8261 472.1292,436.0511 C472.1292,419.1881 458.4582,405.5171 441.5952,405.5171 C424.7302,405.5171 411.0592,419.1881 411.0592,436.0511 C411.0592,441.8261 412.6632,447.2251 415.4472,451.8271 L467.7412,451.8271 Z" id="Fill-71" fill="#51AEE2" mask="url(#mask-2)"></path>
                            <path d="M495.8564,451.8271 C496.2154,450.3591 496.4104,448.8281 496.4104,447.2481 C496.4104,436.6491 487.8184,428.0571 477.2184,428.0571 C466.6194,428.0571 458.0264,436.6491 458.0264,447.2481 C458.0264,448.8281 458.2214,450.3591 458.5814,451.8271 L495.8564,451.8271 Z" id="Fill-72" fill="#51AEE2" mask="url(#mask-2)"></path>
                            <path d="M429.6972,451.8271 C430.0552,450.3591 430.2512,448.8281 430.2512,447.2481 C430.2512,436.6491 421.6582,428.0571 411.0592,428.0571 C400.4602,428.0571 391.8672,436.6491 391.8672,447.2481 C391.8672,448.8281 392.0612,450.3591 392.4222,451.8271 L429.6972,451.8271 Z" id="Fill-73" fill="#51AEE2" mask="url(#mask-2)"></path>
                            <g id="Group-78" mask="url(#mask-2)" fill="#51AEE2">
                                <g transform="translate(321.000000, 303.000000)">
                                    <path d="M30.0605,15.2422 C30.7725,14.1272 31.1865,12.8022 31.1865,11.3802 C31.1865,7.4042 27.9635,4.1812 23.9875,4.1812 C20.0105,4.1812 16.7885,7.4042 16.7885,11.3802 C16.7885,12.8022 17.2015,14.1272 17.9125,15.2422 L30.0605,15.2422 Z" id="Fill-74"></path>
                                    <path d="M70.8672,20.1797 C70.3702,14.1467 65.3202,9.4077 59.1592,9.4077 C53.0012,9.4077 47.9512,14.1467 47.4542,20.1797 L70.8672,20.1797 Z" id="Fill-75"></path>
                                    <path d="M25.1806,20.1797 C25.2036,19.8507 25.2206,19.5187 25.2206,19.1827 C25.2206,12.2617 19.6116,6.6507 12.6886,6.6507 C5.7676,6.6507 0.1566,12.2617 0.1566,19.1827 C0.1566,19.5187 0.1716,19.8507 0.1986,20.1797 L25.1806,20.1797 Z" id="Fill-76"></path>
                                    <path d="M58.9599,20.1797 C58.9949,19.6947 59.0189,19.2057 59.0189,18.7107 C59.0189,8.5127 50.7529,0.2457 40.5529,0.2457 C30.3559,0.2457 22.0879,8.5127 22.0879,18.7107 C22.0879,19.2057 22.1109,19.6947 22.1489,20.1797 L58.9599,20.1797 Z" id="Fill-77"></path>
                                </g>
                            </g>
                            <g id="Group-83" mask="url(#mask-2)" fill="#51AEE2">
                                <g transform="translate(613.000000, 359.000000)">
                                    <path d="M34.4502,21.1899 C35.7562,19.1429 36.5122,16.7129 36.5122,14.1049 C36.5122,6.8139 30.6022,0.9019 23.3092,0.9019 C16.0182,0.9019 10.1092,6.8139 10.1092,14.1049 C10.1092,16.7129 10.8652,19.1429 12.1712,21.1899 L34.4502,21.1899 Z" id="Fill-79"></path>
                                    <path d="M58.3779,21.1899 C58.0519,17.2219 54.7299,14.1049 50.6799,14.1049 C46.6289,14.1049 43.3079,17.2219 42.9819,21.1899 L58.3779,21.1899 Z" id="Fill-80"></path>
                                    <path d="M24.4658,21.1899 C24.4898,20.8699 24.5058,20.5479 24.5058,20.2239 C24.5058,13.5179 19.0678,8.0799 12.3638,8.0799 C5.6568,8.0799 0.2198,13.5179 0.2198,20.2239 C0.2198,20.5479 0.2338,20.8699 0.2598,21.1899 L24.4658,21.1899 Z" id="Fill-81"></path>
                                    <path d="M50.5459,21.1899 C50.5719,20.8699 50.5879,20.5479 50.5879,20.2239 C50.5879,13.5179 45.1509,8.0799 38.4439,8.0799 C31.7369,8.0799 26.3019,13.5179 26.3019,20.2239 C26.3019,20.5479 26.3159,20.8699 26.3389,21.1899 L50.5459,21.1899 Z" id="Fill-82"></path>
                                </g>
                            </g>
                            <g id="Group-88" mask="url(#mask-2)" fill="#51AEE2">
                                <g transform="translate(883.000000, 338.000000)">
                                    <path d="M27.8056,21.1611 C29.1116,19.1141 29.8676,16.6841 29.8676,14.0761 C29.8676,6.7851 23.9576,0.8731 16.6646,0.8731 C9.3736,0.8731 3.4646,6.7851 3.4646,14.0761 C3.4646,16.6841 4.2206,19.1141 5.5266,21.1611 L27.8056,21.1611 Z" id="Fill-84"></path>
                                    <path d="M15.7589,21.1611 C15.4329,17.1931 12.1109,14.0761 8.0609,14.0761 C4.0099,14.0761 0.6889,17.1931 0.3619,21.1611 L15.7589,21.1611 Z" id="Fill-85"></path>
                                    <path d="M58.7422,21.1611 C58.7662,20.8411 58.7822,20.5191 58.7822,20.1951 C58.7822,13.4891 53.3442,8.0511 46.6402,8.0511 C39.9332,8.0511 34.4962,13.4891 34.4962,20.1951 C34.4962,20.5191 34.5092,20.8411 34.5362,21.1611 L58.7422,21.1611 Z" id="Fill-86"></path>
                                    <path d="M43.9013,21.1611 C43.9273,20.8411 43.9433,20.5191 43.9433,20.1951 C43.9433,13.4891 38.5053,8.0511 31.7993,8.0511 C25.0923,8.0511 19.6583,13.4891 19.6583,20.1951 C19.6583,20.5191 19.6713,20.8411 19.6953,21.1611 L43.9013,21.1611 Z" id="Fill-87"></path>
                                </g>
                            </g>
                            <polygon id="Fill-89" fill="#51AEE2" mask="url(#mask-2)" points="831.882 527 836.882 527 836.882 505 831.882 505"></polygon>
                            <polygon id="Fill-90" fill="#51AEE2" mask="url(#mask-2)" points="831.882 563 836.882 563 836.882 531 831.882 531"></polygon>
                            <polygon id="Fill-91" fill="#51AEE2" mask="url(#mask-2)" points="897.882 527 902.882 527 902.882 505 897.882 505"></polygon>
                            <polygon id="Fill-92" fill="#51AEE2" mask="url(#mask-2)" points="897.882 563 902.882 563 902.882 531 897.882 531"></polygon>
                            <polygon id="Fill-93" fill="#51AEE2" mask="url(#mask-2)" points="824.882 507 910.882 507 910.882 499 824.882 499"></polygon>
                            <polygon id="Fill-94" fill="#51AEE2" mask="url(#mask-2)" points="824.882 517 910.882 517 910.882 509 824.882 509"></polygon>
                            <polygon id="Fill-95" fill="#51AEE2" mask="url(#mask-2)" points="824.882 535 910.882 535 910.882 525 824.882 525"></polygon>
                            <path d="M829.3506,513.7725 C829.3506,514.2475 828.9656,514.6325 828.4896,514.6325 C828.0116,514.6325 827.6266,514.2475 827.6266,513.7725 C827.6266,513.2945 828.0116,512.9095 828.4896,512.9095 C828.9656,512.9095 829.3506,513.2945 829.3506,513.7725" id="Fill-96" fill="#51AEE2" mask="url(#mask-2)"></path>
                            <path d="M829.3506,502.2539 C829.3506,502.7299 828.9656,503.1159 828.4896,503.1159 C828.0116,503.1159 827.6266,502.7299 827.6266,502.2539 C827.6266,501.7759 828.0116,501.3909 828.4896,501.3909 C828.9656,501.3909 829.3506,501.7759 829.3506,502.2539" id="Fill-97" fill="#51AEE2" mask="url(#mask-2)"></path>
                            <path d="M908.9316,513.7725 C908.9316,514.2475 908.5456,514.6325 908.0706,514.6325 C907.5946,514.6325 907.2076,514.2475 907.2076,513.7725 C907.2076,513.2945 907.5946,512.9095 908.0706,512.9095 C908.5456,512.9095 908.9316,513.2945 908.9316,513.7725" id="Fill-98" fill="#51AEE2" mask="url(#mask-2)"></path>
                            <path d="M908.9316,502.2539 C908.9316,502.7299 908.5456,503.1159 908.0706,503.1159 C907.5946,503.1159 907.2076,502.7299 907.2076,502.2539 C907.2076,501.7759 907.5946,501.3909 908.0706,501.3909 C908.5456,501.3909 908.9316,501.7759 908.9316,502.2539" id="Fill-99" fill="#51AEE2" mask="url(#mask-2)"></path>
                            <polygon id="Fill-100" fill="#51AEE2" mask="url(#mask-2)" points="951.882 519 956.882 519 956.882 497 951.882 497"></polygon>
                            <polygon id="Fill-101" fill="#51AEE2" mask="url(#mask-2)" points="951.882 555 956.882 555 956.882 523 951.882 523"></polygon>
                            <polygon id="Fill-102" fill="#51AEE2" mask="url(#mask-2)" points="1017.882 519 1022.882 519 1022.882 497 1017.882 497"></polygon>
                            <polygon id="Fill-103" fill="#51AEE2" mask="url(#mask-2)" points="1017.882 555 1022.882 555 1022.882 523 1017.882 523"></polygon>
                            <polygon id="Fill-104" fill="#51AEE2" mask="url(#mask-2)" points="944.882 499 1030.882 499 1030.882 491 944.882 491"></polygon>
                            <polygon id="Fill-105" fill="#51AEE2" mask="url(#mask-2)" points="944.882 509 1030.882 509 1030.882 501 944.882 501"></polygon>
                            <polygon id="Fill-106" fill="#51AEE2" mask="url(#mask-2)" points="944.882 527 1030.882 527 1030.882 517 944.882 517"></polygon>
                            <path d="M949.374,505.7725 C949.374,506.2475 948.989,506.6325 948.513,506.6325 C948.035,506.6325 947.65,506.2475 947.65,505.7725 C947.65,505.2945 948.035,504.9095 948.513,504.9095 C948.989,504.9095 949.374,505.2945 949.374,505.7725" id="Fill-107" fill="#51AEE2" mask="url(#mask-2)"></path>
                            <path d="M949.374,494.2539 C949.374,494.7299 948.989,495.1159 948.513,495.1159 C948.035,495.1159 947.65,494.7299 947.65,494.2539 C947.65,493.7759 948.035,493.3909 948.513,493.3909 C948.989,493.3909 949.374,493.7759 949.374,494.2539" id="Fill-108" fill="#51AEE2" mask="url(#mask-2)"></path>
                            <path d="M1028.9551,505.7725 C1028.9551,506.2475 1028.5701,506.6325 1028.0941,506.6325 C1027.6181,506.6325 1027.2311,506.2475 1027.2311,505.7725 C1027.2311,505.2945 1027.6181,504.9095 1028.0941,504.9095 C1028.5701,504.9095 1028.9551,505.2945 1028.9551,505.7725" id="Fill-109" fill="#51AEE2" mask="url(#mask-2)"></path>
                            <path d="M1028.9551,494.2539 C1028.9551,494.7299 1028.5701,495.1159 1028.0941,495.1159 C1027.6181,495.1159 1027.2311,494.7299 1027.2311,494.2539 C1027.2311,493.7759 1027.6181,493.3909 1028.0941,493.3909 C1028.5701,493.3909 1028.9551,493.7759 1028.9551,494.2539" id="Fill-110" fill="#51AEE2" mask="url(#mask-2)"></path>
                            <polygon id="Fill-111" fill="#51AEE2" mask="url(#mask-2)" points="924.884 550.504 929.772 550.504 929.772 417.541 924.884 417.541"></polygon>
                            <path d="M929.3984,439.1592 L925.0794,437.5042 C927.9264,430.0812 933.7574,425.2332 940.6804,424.5372 C947.7554,423.8392 954.6364,427.6402 959.1514,434.7372 L955.2504,437.2202 C951.6364,431.5452 946.4814,428.6112 941.1444,429.1372 C935.9964,429.6562 931.6064,433.4022 929.3984,439.1592" id="Fill-112" fill="#51AEE2" mask="url(#mask-2)"></path>
                            <path d="M925.2578,439.1592 C923.0528,433.4022 918.6598,429.6562 913.5128,429.1372 C908.1548,428.5962 903.0188,431.5452 899.4068,437.2202 L895.5048,434.7372 C900.0218,427.6402 906.9328,423.8362 913.9768,424.5372 C920.8998,425.2332 926.7318,430.0812 929.5768,437.5042 L925.2578,439.1592 Z" id="Fill-113" fill="#51AEE2" mask="url(#mask-2)"></path>
                            <path d="M947.2734,453.2314 C947.2734,441.8074 951.7184,432.5474 957.2024,432.5474 C962.6834,432.5474 967.1284,441.8074 967.1284,453.2314" id="Fill-114" fill="#51AEE2" mask="url(#mask-2)"></path>
                            <path d="M887.5283,453.2314 C887.5283,441.8074 891.9743,432.5474 897.4553,432.5474 C902.9383,432.5474 907.3823,441.8074 907.3823,453.2314" id="Fill-115" fill="#51AEE2" mask="url(#mask-2)"></path>
                        </g>
                        <g id="Group-838" transform="translate(2.000000, 540.165000)" fill="#51AEE2">
                            <path d="M1200.8838,52.4131 C1191.6898,48.0521 1181.7408,43.6261 1171.0348,39.2791 C1167.9498,38.0401 1164.8168,36.7801 1161.6348,35.5011 C1158.4388,34.2531 1155.1438,33.1261 1151.8238,31.9041 C1148.4918,30.7221 1145.1358,29.4361 1141.6828,28.2881 C1138.2198,27.1571 1134.7108,26.0121 1131.1548,24.8511 C1129.3748,24.2721 1127.5828,23.6901 1125.7798,23.1051 C1123.9578,22.5801 1122.1248,22.0531 1120.2798,21.5211 C1116.5848,20.4641 1112.8458,19.3931 1109.0618,18.3101 C1105.2428,17.3461 1101.3798,16.3711 1097.4738,15.3851 C1095.5168,14.9001 1093.5568,14.3761 1091.5708,13.9181 C1089.5788,13.4811 1087.5768,13.0431 1085.5648,12.6011 C1069.4798,8.9441 1052.4708,6.1831 1034.7578,4.0661 C1030.3268,3.5551 1025.8598,2.9691 1021.3328,2.6681 C1019.0718,2.4841 1016.8008,2.3011 1014.5218,2.1151 C1012.2398,1.9421 1009.9508,1.7111 1007.6498,1.6231 C1003.0418,1.3891 998.4008,1.1511 993.7248,0.9131 C989.0428,0.8101 984.3268,0.7081 979.5788,0.6041 C960.5778,0.4131 941.0518,1.3681 921.1988,3.2391 C918.7188,3.4851 916.2198,3.6651 913.7348,3.9681 C911.2468,4.2601 908.7528,4.5531 906.2518,4.8461 C903.7548,5.1651 901.2398,5.4341 898.7378,5.7991 C896.2368,6.1661 893.7288,6.5341 891.2148,6.9021 C888.7018,7.2831 886.1728,7.6191 883.6568,8.0401 C881.1428,8.4671 878.6218,8.8941 876.0958,9.3241 C873.5718,9.7651 871.0288,10.1591 868.5038,10.6421 C865.9778,11.1281 863.4468,11.6131 860.9108,12.0991 C840.6148,15.9841 820.2398,20.9891 799.8618,26.6681 C794.7508,28.0521 789.6898,29.5971 784.5768,31.0611 C779.4788,32.5561 774.4068,34.1521 769.2988,35.7011 C764.2308,37.3391 759.1488,38.9811 754.0558,40.6271 C748.9928,42.3351 743.9198,44.0471 738.8358,45.7621 C698.2858,59.7261 658.0858,75.7431 618.1908,91.2971 C578.3018,106.8431 538.6268,121.9521 499.0608,133.4241 L495.3578,134.5151 L491.6488,135.5331 C489.1768,136.2131 486.7068,136.8901 484.2408,137.5681 C479.3008,138.8491 474.3638,140.0991 469.4418,141.3041 C464.5088,142.4251 459.5988,143.6751 454.6768,144.6351 C452.2178,145.1461 449.7618,145.6571 447.3098,146.1671 C444.8528,146.6121 442.3988,147.0581 439.9478,147.5031 C435.0508,148.4531 430.1518,149.1161 425.2708,149.8741 C422.8308,150.2801 420.3908,150.5201 417.9548,150.8291 C415.5198,151.1211 413.0868,151.4131 410.6588,151.7041 C408.2308,151.9241 405.8058,152.1431 403.3858,152.3621 C400.9658,152.6011 398.5488,152.8381 396.1378,152.9521 C393.7258,153.1011 391.3178,153.2501 388.9148,153.3971 L387.1138,153.5081 L385.3658,153.5531 L381.8728,153.6471 L378.3848,153.7471 L376.6428,153.7981 C376.0638,153.8161 375.4928,153.8391 374.8468,153.8221 C372.3368,153.7951 369.8328,153.7671 367.3338,153.7401 L363.5908,153.6991 L363.1228,153.6941 L363.0698,153.6941 C363.0448,153.6931 363.0228,153.6921 362.9858,153.6911 L362.0708,153.6511 L360.2438,153.5711 C357.8088,153.4651 355.3788,153.3591 352.9558,153.2531 C348.1068,153.0421 343.2798,152.8311 338.4778,152.6221 C333.6848,152.3011 328.9148,151.9801 324.1718,151.6621 C321.7988,151.5041 319.4318,151.3461 317.0718,151.1871 C314.7078,151.0461 312.3708,150.7581 310.0298,150.5521 C305.3488,150.1011 300.6948,149.6541 296.0688,149.2101 C294.9128,149.0931 293.7538,149.0021 292.6048,148.8631 C291.4558,148.7191 290.3098,148.5741 289.1648,148.4311 C286.8748,148.1421 284.5918,147.8551 282.3158,147.5691 C280.0368,147.2931 277.7668,147.0171 275.5028,146.7421 C273.2378,146.4741 270.9778,146.2151 268.7438,145.8511 C259.8008,144.4691 250.9218,143.3161 242.2848,141.6401 C237.9578,140.8481 233.6448,140.1231 229.3918,139.2911 C225.1468,138.4161 220.9368,137.5491 216.7608,136.6891 C214.6738,136.2521 212.5818,135.8601 210.5218,135.3921 C208.4638,134.9081 206.4158,134.4271 204.3758,133.9481 C200.2948,132.9831 196.2498,132.0271 192.2428,131.0801 C188.2638,130.0241 184.3218,128.9781 180.4178,127.9421 C178.4678,127.4161 176.5148,126.9271 174.5898,126.3851 C172.6698,125.8271 170.7588,125.2711 168.8588,124.7201 C153.5778,120.4831 139.2398,115.4571 125.6108,110.5961 C112.0258,105.6131 99.3548,100.3001 87.5308,95.0601 C63.9788,84.3981 44.0958,73.5211 28.2588,63.6471 C17.2068,56.8061 8.1128,50.4761 0.9448,45.1501 L0.9448,50.3921 C2.0498,51.4451 3.1968,52.5211 4.4048,53.6281 C7.0828,56.1671 10.0768,58.7581 13.2438,61.5731 C16.4938,64.2741 19.8938,67.2381 23.6368,70.1681 C38.4448,82.1191 57.4678,95.4231 80.5228,108.7461 C83.4258,110.3751 86.3738,112.0301 89.3678,113.7111 C92.3548,115.4181 95.4758,116.9621 98.6068,118.6131 C104.8528,121.9571 111.4248,125.0791 118.1548,128.3541 C119.8298,129.1931 121.5518,129.9461 123.2768,130.7301 C125.0038,131.5061 126.7418,132.2871 128.4908,133.0721 C131.9948,134.6351 135.5328,136.2481 139.1788,137.7051 C142.8118,139.2051 146.4878,140.7231 150.2038,142.2571 C153.9398,143.7421 157.7518,145.1441 161.5888,146.6171 C192.3348,158.2791 226.7538,167.9451 263.7198,175.4241 C266.0238,175.9381 268.3508,176.3491 270.6848,176.7681 C273.0198,177.1881 275.3628,177.6091 277.7128,178.0321 C280.0658,178.4461 282.4268,178.8601 284.7938,179.2761 C285.9788,179.4841 287.1648,179.6921 288.3528,179.9011 C289.5418,180.1031 290.7378,180.2581 291.9338,180.4381 C296.7188,181.1381 301.5338,181.8401 306.3768,182.5471 C308.8008,182.8811 311.2258,183.2971 313.6698,183.5661 C316.1128,183.8511 318.5638,184.1371 321.0208,184.4231 C325.9378,184.9951 330.8818,185.5701 335.8508,186.1481 C340.8268,186.6171 345.8368,186.9851 350.8688,187.4111 C353.3858,187.6171 355.9088,187.8231 358.4378,188.0301 L360.3358,188.1851 L361.2848,188.2641 C361.1548,188.2641 361.9948,188.3081 362.0798,188.3101 L362.5468,188.3331 L366.2858,188.5171 C368.7808,188.6401 371.2818,188.7631 373.7888,188.8871 C374.3968,188.9261 375.0808,188.9311 375.7578,188.9391 L377.7848,188.9671 L381.8488,189.0171 L385.9228,189.0621 L387.9638,189.0841 L389.9538,189.0421 C392.6068,188.9801 395.2648,188.9191 397.9288,188.8571 C400.5978,188.8281 403.2558,188.6751 405.9198,188.5151 C408.5848,188.3531 411.2558,188.1911 413.9308,188.0291 C416.5928,187.7851 419.2608,187.5411 421.9328,187.2961 C424.6018,187.0321 427.2898,186.8351 429.9478,186.4711 C435.2758,185.7991 440.6458,185.2101 445.9608,184.3361 C448.6268,183.9271 451.2968,183.5171 453.9698,183.1051 C456.6258,182.6301 459.2858,182.1541 461.9488,181.6781 C467.2958,180.7791 472.5668,179.5991 477.8928,178.5371 C480.5598,178.0151 483.1798,177.3521 485.8278,176.7541 C488.4668,176.1311 491.1248,175.5471 493.7568,174.8891 C496.3858,174.2221 499.0178,173.5541 501.6518,172.8851 L505.6058,171.8801 L509.5328,170.8061 C551.5288,159.4171 592.4778,144.2031 632.7118,128.5601 C672.9388,112.8541 712.5348,96.7091 751.8108,82.4251 C756.7218,80.6601 761.6228,78.8991 766.5138,77.1421 C771.4168,75.4511 776.3088,73.7641 781.1888,72.0811 C786.0758,70.4521 790.9428,68.7701 795.8148,67.1931 C800.6928,65.6511 805.5418,64.0201 810.4068,62.5591 C829.8388,56.5501 849.1848,51.3221 868.3188,46.7941 C906.6108,37.8551 944.2248,32.4091 980.1368,30.7171 C998.0908,29.7451 1015.6018,29.9841 1032.5298,30.7801 C1034.6478,30.8771 1036.7558,30.9741 1038.8558,31.0701 C1040.9558,31.1721 1043.0378,31.3771 1045.1168,31.5231 C1049.2698,31.8701 1053.4028,32.1021 1057.4758,32.5331 C1061.5508,32.9761 1065.5868,33.4151 1069.5848,33.8491 C1071.5888,34.0361 1073.5658,34.3511 1075.5398,34.6171 C1077.5148,34.8851 1079.4808,35.1501 1081.4348,35.4151 C1083.3918,35.6801 1085.3388,35.9421 1087.2758,36.2041 C1089.2078,36.4871 1091.1198,36.8381 1093.0288,37.1491 C1096.8458,37.7891 1100.6208,38.4211 1104.3538,39.0471 C1108.0678,39.7911 1111.7378,40.5271 1115.3638,41.2551 C1117.1808,41.6161 1118.9868,41.9741 1120.7798,42.3321 C1122.5648,42.7361 1124.3368,43.1381 1126.0988,43.5371 C1129.6258,44.3411 1133.1078,45.1351 1136.5418,45.9181 C1139.9758,46.7191 1143.3218,47.6641 1146.6488,48.5121 C1149.9628,49.3971 1153.2568,50.1941 1156.4598,51.1191 C1159.6648,52.0501 1162.8208,52.9671 1165.9288,53.8701 C1178.5098,57.5701 1190.1718,61.4351 1200.8838,65.2461 L1200.8838,52.4131 Z" id="Fill-836"></path>
                        </g>
                    </g>
                </g>
            </g>
        </g>
    </g>
</svg>