<svg xmlns="http://www.w3.org/2000/svg" width="67" height="66" viewBox="0 0 67 66">
    <g fill="none" fill-rule="evenodd">
        <path fill="#DBDBDB" d="M33.5 0c18.225 0 33 14.775 33 33 0 18.226-14.775 33-33 33S.5 51.226.5 33c0-18.225 14.775-33 33-33z"/>
        <path fill="#FFF" d="M40.049 18c4.108 0 7.451 3.342 7.451 7.45V37.55c0 4.108-3.343 7.45-7.451 7.45H27.95c-4.109 0-7.451-3.342-7.451-7.45V25.45c0-4.109 3.342-7.451 7.45-7.451H40.05zm5.056 19.549V25.45a5.062 5.062 0 0 0-5.056-5.056H27.95a5.061 5.061 0 0 0-5.055 5.056v12.098a5.061 5.061 0 0 0 5.055 5.055h12.098a5.062 5.062 0 0 0 5.056-5.055zM34 24.543a6.965 6.965 0 0 1 6.957 6.957A6.965 6.965 0 0 1 34 38.457a6.965 6.965 0 0 1-6.957-6.957A6.965 6.965 0 0 1 34 24.543zm0 11.518a4.566 4.566 0 0 0 4.562-4.56A4.567 4.567 0 0 0 34 26.938a4.567 4.567 0 0 0-4.562 4.561A4.566 4.566 0 0 0 34 36.06zm7.249-13.55c.463 0 .917.187 1.242.515.328.326.515.779.515 1.242 0 .462-.187.915-.515 1.243-.327.326-.779.514-1.242.514a1.77 1.77 0 0 1-1.241-.514 1.771 1.771 0 0 1-.516-1.243 1.763 1.763 0 0 1 1.757-1.757z"/>
    </g>
</svg>
