<?xml version="1.0" encoding="UTF-8"?>
<svg width="459px" height="459px" viewBox="0 0 459 459" version="1.1" xmlns="http://www.w3.org/2000/svg" xmlns:xlink="http://www.w3.org/1999/xlink">
    <!-- Generator: Sketch 3.8.1 (29687) - http://www.bohemiancoding.com/sketch -->
    <title>Group 10</title>
    <desc>Created with Sketch.</desc>
    <defs></defs>
    <g id="Page-1" stroke="none" stroke-width="1" fill="none" fill-rule="evenodd">
        <g id="Desktop-HD" transform="translate(-197.000000, 89.000000) scale(1, -1) translate(197.000000, -89.000000) translate(-917.000000, -423.000000)">
            <g id="Group-10" transform="translate(917.000000, 142.000000)">
                <g id="Page-1" transform="translate(229.500000, 229.500000) scale(1, -1) translate(-229.500000, -229.500000) ">
                    <path d="M0,229.5 C0,356.248547 102.747867,459 229.5,459 C356.244961,459 458.996414,356.248547 458.996414,229.5 C458.996414,102.751453 356.244961,0 229.5,0 C102.747867,0 0,102.751453 0,229.5" id="Fill-1" fill="#FBD000"></path>
                    <path d="M58.0807125,236.214668 C53.9066813,236.214668 50.5107984,239.635652 50.5107984,243.845543 C50.5107984,248.051848 53.9066813,251.472832 58.0807125,251.472832 C62.2511578,251.472832 65.6470406,248.051848 65.6470406,243.845543 C65.6470406,239.635652 62.2511578,236.214668 58.0807125,236.214668 M58.0807125,258.185707 C50.2310953,258.185707 43.8481266,251.756121 43.8481266,243.845543 C43.8481266,235.934965 50.2310953,229.498207 58.0807125,229.498207 C65.9267438,229.498207 72.3097125,235.934965 72.3097125,243.845543 C72.3097125,251.756121 65.9267438,258.185707 58.0807125,258.185707" id="Fill-3" fill="#FFFFFF"></path>
                    <path d="M405.826062,198.557423 C401.684305,198.557423 398.313523,201.928204 398.313523,206.073548 C398.313523,210.215305 401.684305,213.582501 405.826062,213.582501 C409.96782,213.582501 413.335016,210.215305 413.335016,206.073548 C413.335016,201.928204 409.96782,198.557423 405.826062,198.557423 M405.826062,220.19497 C398.037406,220.19497 391.701055,213.862204 391.701055,206.073548 C391.701055,198.281305 398.037406,191.944954 405.826062,191.944954 C413.611133,191.944954 419.947484,198.281305 419.947484,206.073548 C419.947484,213.862204 413.611133,220.19497 405.826062,220.19497" id="Fill-5" fill="#FFFFFF"></path>
                    <path d="M194.013563,404.651173 C189.871805,404.651173 186.501023,408.021954 186.501023,412.167298 C186.501023,416.309055 189.871805,419.676251 194.013563,419.676251 C198.15532,419.676251 201.522516,416.309055 201.522516,412.167298 C201.522516,408.021954 198.15532,404.651173 194.013563,404.651173 M194.013563,426.28872 C186.224906,426.28872 179.888555,419.955954 179.888555,412.167298 C179.888555,404.375055 186.224906,398.038704 194.013563,398.038704 C201.798633,398.038704 208.134984,404.375055 208.134984,412.167298 C208.134984,419.955954 201.798633,426.28872 194.013563,426.28872" id="Fill-7" fill="#FFFFFF"></path>
                    <path d="M171.526148,38.0234883 C167.032969,38.0234883 163.375313,41.6811445 163.375313,46.1743242 C163.375313,50.6675039 167.032969,54.3215742 171.526148,54.3215742 C176.015742,54.3215742 179.669813,50.6675039 179.669813,46.1743242 C179.669813,41.6811445 176.015742,38.0234883 171.526148,38.0234883 M171.526148,61.4934492 C163.07768,61.4934492 156.203438,54.622793 156.203438,46.1743242 C156.203438,37.7258555 163.07768,30.8516133 171.526148,30.8516133 C179.971031,30.8516133 186.841687,37.7258555 186.841687,46.1743242 C186.841687,54.622793 179.971031,61.4934492 171.526148,61.4934492" id="Fill-9" fill="#FFFFFF"></path>
                    <path d="M345.426546,122.450801 C345.426546,121.048699 347.022288,119.660941 348.969452,119.363309 L355.646468,118.352074 C357.593632,118.054441 359.429632,116.218441 359.723679,114.267691 L360.734913,107.608605 C361.02896,105.657855 362.416718,104.062113 363.81882,104.062113 C365.220921,104.062113 366.608679,105.657855 366.902726,107.608605 L367.91396,114.267691 C368.208007,116.218441 370.044007,118.054441 371.991171,118.352074 L378.668187,119.363309 C380.615351,119.660941 382.211093,121.048699 382.211093,122.450801 C382.211093,123.852902 380.615351,125.24066 378.664601,125.534707 L371.994757,126.545941 C370.044007,126.839988 368.208007,128.675988 367.91396,130.626738 L366.902726,137.28941 C366.608679,139.24016 365.220921,140.835902 363.81882,140.835902 C362.416718,140.835902 361.043304,139.236574 360.767187,137.285824 L359.691405,129.590402 C359.411702,127.639652 357.582874,125.918402 355.614195,125.771379 L349.001726,125.269348 C347.033046,125.122324 345.426546,123.852902 345.426546,122.450801" id="Fill-11" fill="#FFFFFF"></path>
                    <path d="M68.1116555,345.97627 C68.1116555,344.574169 69.7073977,343.186411 71.6581477,342.888778 L78.3279914,341.877544 C80.2787414,341.583497 82.1147414,339.743911 82.4087883,337.796747 L83.4200227,331.130489 C83.7140695,329.183325 85.1018273,327.587583 86.5039289,327.587583 C87.9060305,327.587583 89.2937883,329.183325 89.5878352,331.130489 L90.5990695,337.796747 C90.8931164,339.743911 92.7291164,341.583497 94.6798664,341.877544 L101.34971,342.888778 C103.30046,343.186411 104.896202,344.574169 104.896202,345.97627 C104.896202,347.378372 103.30046,348.76613 101.34971,349.060177 L94.6798664,350.071411 C92.7291164,350.365458 90.8931164,352.201458 90.5990695,354.148622 L89.5878352,360.818466 C89.2937883,362.76563 87.9060305,364.361372 86.5039289,364.361372 C85.1018273,364.361372 83.7284133,362.76563 83.455882,360.811294 L82.3729289,353.115872 C82.0968117,351.161536 80.2643977,349.443872 78.2993039,349.296848 L71.6868352,348.794817 C69.7217414,348.647794 68.1116555,347.378372 68.1116555,345.97627" id="Fill-13" fill="#FFFFFF"></path>
                    <path d="M306.28568,373.32263 C306.28568,371.920528 307.881422,370.53277 309.828586,370.235137 L316.505602,369.223903 C318.452766,368.92627 320.288766,367.09027 320.582812,365.143106 L321.594047,358.476848 C321.888094,356.529684 323.275852,354.933942 324.677953,354.933942 C326.080055,354.933942 327.467812,356.529684 327.761859,358.476848 L328.773094,365.143106 C329.067141,367.09027 330.903141,368.92627 332.850305,369.223903 L339.52732,370.235137 C341.470898,370.53277 343.070227,371.920528 343.070227,373.32263 C343.070227,374.724731 341.470898,376.112489 339.52732,376.406536 L332.850305,377.41777 C330.903141,377.711817 329.067141,379.547817 328.773094,381.494981 L327.761859,388.164825 C327.467812,390.111989 326.080055,391.707731 324.677953,391.707731 C323.275852,391.707731 321.902437,390.111989 321.62632,388.157653 L320.550539,380.462231 C320.270836,378.507895 318.442008,376.790231 316.473328,376.643208 L309.860859,376.141177 C307.89218,375.994153 306.28568,374.724731 306.28568,373.32263" id="Fill-15" fill="#FFFFFF"></path>
                    <path d="M155.848071,284.780813 L155.848071,337.329141 C155.848071,342.815625 160.24443,347.258602 165.641266,347.258602 L268.428579,383.031914 C273.829001,383.031914 278.214602,378.588938 278.214602,373.109625 L278.214602,317.050664 C278.214602,317.050664 293.447665,318.485039 307.791415,317.050664 C322.135165,315.619875 332.892977,300.555352 332.892977,289.797539 C332.892977,279.039727 334.987165,255.562594 334.987165,255.562594 L360.486766,240.831563 C365.403087,237.998672 367.084891,231.708938 364.244829,226.792617 C364.244829,226.792617 348.438016,199.413984 339.462415,183.861773 C337.805712,181.007367 336.364165,175.703766 335.281212,170.851992 C334.789938,167.43818 334.140884,164.070984 333.359149,160.757578 L333.276673,160.205344 L333.215712,160.126453 C320.883673,109.026844 274.865337,71.0553516 219.939532,71.0553516 C155.571954,71.0553516 103.392977,123.198469 103.392977,187.515844 C103.392977,228.173203 124.255962,263.946516 155.848071,284.780813" id="Fill-17" fill="#3AD0F9"></path>
                    <path d="M217.246852,286.209809 C296.438695,305.932465 330.203883,297.864105 330.203883,297.864105 C330.203883,297.864105 327.797719,320.129191 277.311305,316.718965 L277.311305,344.18366 C277.311305,344.18366 246.231984,337.607051 210.971461,319.677363 C175.710937,301.747676 155.38943,286.209809 155.38943,286.209809 L158.276109,284.606895 C143.164969,275.817762 131.385164,265.092223 124.908961,252.143402 C106.082789,214.491059 105.186305,209.112152 105.186305,209.112152 C105.186305,209.112152 139.865906,266.93898 217.246852,286.209809" id="Fill-19" fill="#00B3F9"></path>
                    <path d="M220.923513,75.3003844 C158.743357,75.3003844 108.156537,125.905134 108.156537,188.106806 C108.156537,226.114158 127.133318,261.335236 158.915482,282.316556 C159.915959,282.983541 160.521982,284.105939 160.521982,285.310814 L160.521982,337.826869 C160.521982,340.480462 162.619755,342.323634 168.00942,344.407064 C173.015388,346.336298 264.471138,378.717314 270.126162,380.008252 C270.434552,380.07997 270.739357,380.112244 271.026232,380.112244 C272.170146,380.112244 273.177795,379.527736 274.027662,378.369478 C274.960005,377.092884 275.519412,375.303502 275.519412,373.582252 L275.519412,317.55915 C275.519412,316.551502 275.946138,315.59047 276.692013,314.909142 C277.434302,314.227814 278.424021,313.890736 279.435255,313.991142 C279.499802,313.998314 286.14813,314.615095 294.607357,314.615095 C299.566709,314.615095 304.16388,314.403525 308.269779,313.994728 C321.021373,312.72172 328.354615,298.718634 330.172685,289.617525 C332.184396,279.541041 332.195154,256.343611 332.195154,256.114111 C332.195154,254.830345 332.876482,253.6434 333.984537,253.005103 L359.441107,238.28483 C360.986646,237.391931 362.091115,235.95397 362.553701,234.229134 C362.998357,232.554502 362.790373,230.80815 361.962021,229.291298 C360.326834,227.017814 344.781795,205.31572 336.125341,190.304986 C333.934334,186.521822 330.086623,169.112095 330.57431,161.144142 C330.710576,158.813283 325.708193,131.710767 303.453865,108.097369 C282.938716,86.3343141 255.169216,75.3003844 220.923513,75.3003844 M271.026232,387.280533 L271.026232,387.280533 C270.205052,387.280533 269.365943,387.187298 268.53042,386.993658 C262.416396,385.598728 170.72756,353.138822 165.43113,351.091252 C161.820091,349.696322 153.364451,346.433119 153.364451,337.826869 L153.364451,287.222119 C120.535193,264.788494 100.999005,227.882025 100.999005,188.106806 C100.999005,121.953431 154.79524,68.1320953 220.923513,68.1320953 C257.299263,68.1320953 286.861732,79.9728609 308.796912,103.324486 C331.341701,127.328752 338.043818,156.3354 337.721084,161.585213 C337.290771,168.570619 341.009388,184.384603 342.325427,186.715463 C351.09663,201.934181 367.721037,225.031205 367.882404,225.260705 C367.957709,225.361111 368.01867,225.461517 368.083216,225.565509 C369.93356,228.771338 370.421248,232.504298 369.467388,236.079478 C368.509943,239.658244 366.218529,242.64533 363.019873,244.492088 L339.341927,258.183197 C339.29531,264.268533 338.994091,282.00458 337.193951,291.026798 C334.515255,304.431033 324.546349,319.567275 308.98338,321.127158 C304.64081,321.561056 299.80338,321.779798 294.607357,321.779798 C289.762755,321.779798 285.545693,321.589744 282.676943,321.417619 L282.676943,373.582252 C282.676943,376.823939 281.629849,380.112244 279.797435,382.608056 C277.592084,385.62383 274.475904,387.280533 271.026232,387.280533" id="Fill-21" fill="#0C508E"></path>
                    <path d="M133.740766,156.152876 C133.740766,139.95161 146.876055,126.816321 163.077321,126.816321 C164.432805,126.816321 165.75243,126.945415 167.057712,127.11754 C170.069899,114.11493 181.695509,104.41497 195.612532,104.41497 C197.107868,104.41497 198.567345,104.544063 199.998134,104.762805 C203.641446,101.564149 208.396399,99.6133992 213.62111,99.6133992 C217.583571,99.6133992 221.266329,100.746555 224.40761,102.672204 C229.277313,100.391548 234.684907,99.0790945 240.418821,99.0790945 C252.822579,99.0790945 263.791962,105.064024 270.691305,114.28347 C271.562688,114.122102 272.444829,114.014524 273.362829,114.014524 C281.008048,114.014524 287.226063,119.830915 288.007798,127.271735 C296.553087,132.392454 302.287001,141.730235 302.287001,152.419915 C302.287001,161.434962 298.199032,169.474634 291.794548,174.849954 C291.859095,175.495423 291.89854,176.151649 291.89854,176.818634 C291.89854,187.314673 284.074024,195.960368 273.940165,197.290751 C269.27486,207.320618 259.137415,214.29168 247.350438,214.29168 C243.524243,214.29168 239.89886,213.520704 236.55318,212.183149 C233.842212,215.632821 229.682524,217.88479 224.956259,217.88479 C220.495352,217.88479 216.540063,215.869493 213.825509,212.742555 C210.494173,214.06218 206.879548,214.825985 203.078454,214.825985 C200.464305,214.825985 197.950563,214.449462 195.537227,213.811165 C193.970173,217.135329 192.421048,221.854423 192.421048,227.62061 C192.421048,239.353798 189.254665,242.064766 184.478196,234.512782 C180.931704,228.890032 177.076821,222.022962 174.441157,215.14872 C173.336688,215.274227 172.217876,215.356704 171.077548,215.356704 C154.872696,215.356704 141.740993,202.221415 141.740993,186.020149 C141.740993,183.058165 142.189235,180.203759 143.006829,177.507134 C137.315946,172.156915 133.740766,164.583415 133.740766,156.152876" id="Fill-23" fill="#FFFFFF"></path>
                    <path d="M205.675748,153.117738 C208.228936,143.571973 218.029303,137.906191 227.567897,140.466551 C237.110077,143.023324 242.768686,152.838035 240.211913,162.380215 C237.658725,171.929566 227.854772,177.591762 218.319764,175.034988 C208.777584,172.481801 203.122561,162.656332 205.675748,153.117738 L205.675748,153.117738 Z M193.056834,162.55234 L194.824702,169.010613 L190.582538,173.313738 C191.464678,175.128223 192.465155,176.849473 193.601897,178.455973 L199.425459,176.849473 L204.187584,181.547051 L202.663561,187.384957 C204.30592,188.510941 206.048686,189.489902 207.852413,190.325426 L212.090991,186.033059 L218.57078,187.711277 L220.173694,193.538426 C221.988178,193.674691 223.838522,193.674691 225.692452,193.531254 L226.137108,193.484637 L227.661131,187.639559 L234.119405,185.857348 L238.418944,190.099512 C240.229842,189.228129 241.954678,188.216895 243.561178,187.076566 L241.965436,181.253004 L246.663014,176.480121 L252.50092,177.996973 C253.626905,176.354613 254.613038,174.615434 255.455733,172.800949 L251.15978,168.569543 L252.848756,162.096926 L258.675905,160.48684 C258.822928,158.521746 258.819342,156.531551 258.636459,154.523426 L252.787795,153.002988 L251.012756,146.559059 L255.262092,142.248762 C254.394295,140.434277 253.372303,138.716613 252.246319,137.106527 L246.422756,138.716613 L241.657045,134.019035 L243.177483,128.181129 C241.531538,127.05873 239.79953,126.072598 237.988631,125.237074 L233.750053,129.529441 L227.277436,127.854809 L225.670936,122.020488 C223.860038,121.887809 222.006108,121.887809 220.155764,122.031246 L219.711108,122.070691 L218.183498,127.919355 L211.728811,129.701566 L207.425686,125.466574 C205.618373,126.337957 203.897123,127.352777 202.27628,128.485934 L203.88278,134.313082 L199.181616,139.082379 L193.343709,137.569113 C192.221311,139.211473 191.231592,140.954238 190.385311,142.757965 L194.688436,146.992957 L192.992288,153.46916 L187.165139,155.079246 C187.01453,157.04434 187.025288,159.038121 187.20817,161.04266 L193.056834,162.55234 Z" id="Fill-25" fill="#0C508E"></path>
                    <path d="M174.444743,211.563141 C175.914977,211.563141 177.256118,212.466797 177.790423,213.865312 C179.945571,219.488062 183.215946,225.788555 187.511899,232.59825 C187.827462,233.100281 188.114337,233.509078 188.365352,233.846156 C188.609196,232.623352 188.83511,230.661844 188.83511,227.620969 C188.83511,222.306609 190.00054,217.142859 192.29554,212.280328 C193.034243,210.716859 194.780595,209.902852 196.455227,210.343922 C202.092321,211.832086 207.349305,211.455562 212.502298,209.411578 C213.918743,208.848586 215.536001,209.243039 216.532891,210.394125 C218.68804,212.875594 221.757602,214.299211 224.959845,214.299211 C228.373657,214.299211 231.572313,212.717812 233.734634,209.967398 C234.713595,208.71232 236.420501,208.274836 237.883563,208.852172 C240.953126,210.082148 244.141024,210.706102 247.350438,210.706102 C257.308587,210.706102 266.470657,204.84668 270.68772,195.777844 C271.204095,194.666203 272.254774,193.895227 273.473993,193.733859 C281.929634,192.622219 288.312602,185.353523 288.312602,176.818992 C288.312602,176.270344 288.280329,175.728867 288.22654,175.198148 C288.11179,174.021961 288.585134,172.863703 289.492376,172.103484 C295.34104,167.19075 298.701063,160.015289 298.701063,152.420273 C298.701063,143.301234 294.014243,135.049992 286.164626,130.348828 C285.196423,129.771492 284.558126,128.76743 284.43979,127.648617 C283.837352,121.921875 279.075227,117.60082 273.362829,117.60082 C272.760391,117.60082 272.118509,117.668953 271.347532,117.812391 C269.995634,118.066992 268.640149,117.525516 267.822555,116.431805 C261.271048,107.682117 251.284212,102.665391 240.418821,102.665391 C235.416438,102.665391 230.539563,103.759102 225.928048,105.921422 C224.837923,106.427039 223.561329,106.358906 222.532165,105.727781 C216.274704,101.890828 207.862095,102.629531 202.364852,107.456203 C201.568774,108.155461 200.507337,108.460266 199.463829,108.309656 C198.104759,108.101672 196.846095,108.001266 195.612532,108.001266 C183.57454,108.001266 173.268555,116.195133 170.550415,127.92832 C170.134446,129.732047 168.40961,130.901062 166.580782,130.671562 C165.210954,130.48868 164.095727,130.402617 163.077321,130.402617 C148.877009,130.402617 137.326704,141.952922 137.326704,156.153234 C137.326704,163.30718 140.21697,169.96268 145.463196,174.89693 C146.456501,175.829273 146.833024,177.242133 146.438571,178.547414 C145.699868,180.982266 145.32693,183.496008 145.32693,186.020508 C145.32693,200.22082 156.880821,211.771125 171.077548,211.771125 C172.08161,211.771125 173.064157,211.69582 174.035946,211.584656 C174.172212,211.570312 174.308477,211.563141 174.444743,211.563141 M189.107641,242.330484 C185.586251,242.330484 183.050993,238.963289 181.448079,236.428031 C177.514305,230.192086 174.37661,224.31832 172.09954,218.92507 C171.758876,218.935828 171.418212,218.943 171.077548,218.943 C152.925532,218.943 138.155055,204.172523 138.155055,186.020508 C138.155055,183.517523 138.44193,181.021711 139.012095,178.576102 C133.281766,172.462078 130.154829,164.580187 130.154829,156.153234 C130.154829,138.001219 144.925305,123.230742 163.077321,123.230742 C163.514805,123.230742 163.959462,123.2415 164.422048,123.266602 C168.872196,109.908984 181.27954,100.829391 195.612532,100.829391 C196.699071,100.829391 197.796368,100.890352 198.925938,101.008687 C206.173118,95.4755859 216.443243,94.5217266 224.594079,98.6706562 C229.657423,96.562125 234.971782,95.4935156 240.418821,95.4935156 C252.858438,95.4935156 264.344196,100.926211 272.251188,110.468391 C272.627712,110.443289 272.997063,110.428945 273.362829,110.428945 C282.155548,110.428945 289.571266,116.625445 291.299688,125.116945 C300.454587,131.245312 305.872938,141.328969 305.872938,152.420273 C305.872938,161.528555 302.104118,170.15632 295.480891,176.374336 C295.484477,176.521359 295.484477,176.668383 295.484477,176.818992 C295.484477,188.279648 287.380259,198.140977 276.335571,200.514867 C270.626759,211.12207 259.449391,217.877977 247.350438,217.877977 C244.051376,217.877977 240.781001,217.368773 237.596688,216.361125 C234.190048,219.635086 229.707626,221.471086 224.959845,221.471086 C220.513282,221.471086 216.231673,219.821555 212.893165,216.881086 C207.98043,218.440969 202.924259,218.842594 197.699548,217.946109 C196.573563,221.065875 196.006985,224.307562 196.006985,227.620969 C196.006985,231.257109 196.006985,242.330484 189.107641,242.330484" id="Fill-27" fill="#0C508E"></path>
                    <path d="M136.645376,229.5 C135.569595,229.5 134.500985,229.055344 133.747938,228.194719 C116.761352,208.733836 119.432876,176.854852 119.554798,175.506539 C119.741266,173.469727 121.588024,171.931359 123.671454,172.146516 C125.762055,172.322227 127.307595,174.118781 127.128298,176.155594 C127.103196,176.453227 124.632485,206.3205 139.539227,223.403906 C140.898298,224.956617 140.704657,227.294648 139.105329,228.617859 C138.388141,229.209539 137.516759,229.5 136.645376,229.5" id="Fill-29" fill="#FFFFFF"></path>
                </g>
                <g id="Group-7" transform="translate(370.816782, 166.745820) scale(1, -1) rotate(50.000000) translate(-370.816782, -166.745820) translate(340.316782, 136.245820)" fill="#FFFFFF">
                    <g id="Group-8" transform="translate(-0.000000, 0.000000)">
                        <path d="M18.5902997,41.2452035 C17.0722997,39.7246479 17.0722997,37.2629812 18.5902997,35.7463146 L43.2975938,11.0013146 C44.8155938,9.48075901 47.2731233,9.48075901 48.7872409,11.0013146 C50.3052409,12.5179812 50.3052409,14.9835368 48.7872409,16.5002035 L24.0799468,41.2452035 C23.322888,42.0035368 22.3290056,42.3846479 21.3351233,42.3846479 C20.3412409,42.3846479 19.3473585,42.0035368 18.5902997,41.2452035 Z" id="Fill-111-Copy"></path>
                        <path d="M4.2236423,32.6992079 C3.97128936,32.6992079 3.71505407,32.6758746 3.45881877,32.6214302 C1.35846583,32.2014302 -0.00812240552,30.1519857 0.415054065,28.0480968 L5.36505407,3.24865238 C5.78046583,1.1408746 7.83811289,-0.2241254 9.93458348,0.199763489 C12.0349364,0.619763489 13.3976423,2.66920793 12.9783482,4.77309682 L8.02446583,29.5725413 C7.65952465,31.4197635 6.03670112,32.6992079 4.2236423,32.6992079" id="Fill-112-Copy"></path>
                        <path d="M31.4444789,60.2023495 C29.6314201,60.2023495 28.0085966,58.9229051 27.6436554,57.0756829 C27.2204789,54.971794 28.5870671,52.9223495 30.6874201,52.5023495 L55.4451848,47.5401273 C57.5727142,47.1201273 59.5954201,48.4851273 60.0108318,50.5890162 C60.4340083,52.696794 59.0674201,54.7462384 56.9670671,55.1662384 L32.2093024,60.1245718 C31.9530671,60.1790162 31.6929495,60.2023495 31.4444789,60.2023495" id="Fill-113-Copy"></path>
                    </g>
                </g>
            </g>
        </g>
    </g>
</svg>