<?xml version="1.0" encoding="UTF-8"?>
<svg width="366px" height="366px" viewBox="0 0 366 366" version="1.1" xmlns="http://www.w3.org/2000/svg" xmlns:xlink="http://www.w3.org/1999/xlink">
    <!-- Generator: Sketch 3.8.1 (29687) - http://www.bohemiancoding.com/sketch -->
    <title>Group 9</title>
    <desc>Created with Sketch.</desc>
    <defs>
        <polygon id="path-1" points="0 274.5 274.497855 274.5 274.497855 -1.13686838e-13 0 -1.13686838e-13"></polygon>
    </defs>
    <g id="Page-1" stroke="none" stroke-width="1" fill="none" fill-rule="evenodd">
        <g id="Desktop-HD" transform="translate(582.000000, 483.000000) scale(1, -1) translate(-582.000000, -483.000000) translate(-138.000000, -29.000000)">
            <g id="Group-9" transform="translate(138.000000, 629.000000)">
                <path d="M183,366 C284.068109,366 366,284.068109 366,183 C366,81.9318908 284.068109,0 183,0 C81.9318908,0 0,81.9318908 0,183 C0,284.068109 81.9318908,366 183,366 Z" id="Oval-138" fill="#3AD0F9"></path>
                <g id="Page-1" transform="translate(182.500000, 183.500000) rotate(-180.000000) translate(-182.500000, -183.500000) translate(45.000000, 46.000000)">
                    <path d="M252.972981,63.8103129 C252.900067,63.6923637 252.825008,63.5787035 252.74995,63.4607543 L21.4643988,63.4607543 C20.6816449,64.6831371 19.9031801,65.909809 19.1590277,67.1579262 L19.1590277,207.517496 C27.5613012,221.604922 38.4126293,234.2405 51.1318441,244.476348 L223.028891,244.476348 C235.387825,234.583625 245.763067,222.662176 254.090282,209.125895 L252.972981,63.8103129 Z" id="Fill-3" fill="#F4B10B"></path>
                    <path d="M254.296586,214.817481 C254.333043,219.53545 250.500765,223.391317 245.782796,223.382739 L27.7375816,223.088938 C23.0174684,223.08036 19.1594566,219.218059 19.1594566,214.50009 L19.1594566,50.8702113 C19.1594566,46.1522426 23.0174684,42.2920863 27.7375816,42.2920863 L244.39314,42.2920863 C249.111109,42.2920863 253.001289,46.1522426 253.035601,50.8702113 L254.296586,214.817481 Z" id="Fill-5" fill="#FFFFFF"></path>
                    <path d="M254.332185,75.4229496 L19.1285754,75.4229496 L19.1285754,50.8702113 C19.1285754,46.1522426 22.9887316,42.2920863 27.7067004,42.2920863 L245.75406,42.2920863 C246.759845,42.2920863 254.332185,46.1565316 254.332185,50.8702113 L254.332185,75.4229496 Z" id="Fill-7" fill="#EBEBEB"></path>
                    <path d="M27.8767617,45.0351562 C24.329707,45.0351562 21.443168,47.9409961 21.443168,51.5137852 L21.443168,214.49816 C21.443168,218.079527 24.1946016,220.886719 27.7073438,220.886719 L244.335023,220.886719 C247.89709,220.886719 250.905867,217.961578 250.908012,214.49816 L250.908012,51.5137852 C250.908012,49.8131719 250.221762,48.1961953 248.969355,46.9566562 C247.716949,45.7171172 246.080672,45.0351562 244.362902,45.0351562 L27.8767617,45.0351562 Z M244.335023,225.175781 L27.7073438,225.175781 C21.790582,225.175781 17.1541055,220.485691 17.1541055,214.49816 L17.1541055,51.5137852 C17.1541055,45.5755781 21.9642891,40.7460937 27.8767617,40.7460937 L244.362902,40.7460937 C247.217273,40.7460937 249.925816,41.8698281 251.986711,43.9092773 C254.058328,45.9594492 255.199219,48.6594141 255.197074,51.5159297 L255.197074,214.49816 C255.19493,220.387043 250.322555,225.175781 244.335023,225.175781 L244.335023,225.175781 Z" id="Fill-9" fill="#663210"></path>
                    <polygon id="Fill-11" fill="#D4D6D6" points="240.185355 64.3359375 96.5017617 64.3359375 96.5017617 53.6132812 240.185355 53.6583164"></polygon>
                    <path d="M252.009657,77.203125 L19.1585988,77.203125 C17.9748176,77.203125 17.0140676,76.242375 17.0140676,75.0585937 C17.0140676,73.8748125 17.9748176,72.9140625 19.1585988,72.9140625 L252.009657,72.9140625 C253.195583,72.9140625 254.154189,73.8748125 254.154189,75.0585937 C254.154189,76.242375 253.195583,77.203125 252.009657,77.203125" id="Fill-13" fill="#663210"></path>
                    <mask id="mask-2" fill="white">
                        <use xlink:href="#path-1"></use>
                    </mask>
                    <g id="Clip-16"></g>
                    <polygon id="Fill-15" fill="#75B600" mask="url(#mask-2)" points="36.4548867 197.296875 92.2126992 197.296875 92.2126992 96.5039062 36.4548867 96.5039062"></polygon>
                    <polygon id="Fill-17" fill="#28A5C6" mask="url(#mask-2)" points="107.224418 197.296875 162.270246 197.296875 162.270246 96.5039062 107.224418 96.5039062"></polygon>
                    <polygon id="Fill-18" fill="#FF4848" mask="url(#mask-2)" points="179.435074 198.013148 234.478758 198.013148 234.478758 97.9793438 179.435074 97.9793438"></polygon>
                    <path d="M263.775199,197.296875 C263.775199,202.014844 259.915043,205.875 255.197074,205.875 L147.970512,205.875 C143.252543,205.875 139.392387,202.014844 139.392387,197.296875 L139.392387,32.1679687 C139.392387,27.45 143.252543,23.5898437 147.970512,23.5898437 L255.197074,23.5898437 C259.915043,23.5898437 263.775199,27.45 263.775199,32.1679687 L263.775199,197.296875 Z" id="Fill-19" fill="#FFFFFF" mask="url(#mask-2)"></path>
                    <path d="M263.875778,56.7211359 L139.758887,56.7211359 L139.758887,32.1683977 C139.758887,27.4504289 143.619043,23.5902727 148.337012,23.5902727 L255.297653,23.5902727 C256.303438,23.5902727 263.875778,27.454718 263.875778,32.1683977 L263.875778,56.7211359 Z" id="Fill-20" fill="#EBEBEB" mask="url(#mask-2)"></path>
                    <polygon id="Fill-21" fill="#D4D6D6" mask="url(#mask-2)" points="250.908012 45.0351562 216.595512 45.0351562 216.99225 34.3125 250.908012 34.3125"></polygon>
                    <path d="M261.55325,57.9023437 L139.788911,57.9023437 C138.602985,57.9023437 137.644379,56.9415937 137.644379,55.7578125 C137.644379,54.5740312 138.602985,53.6132812 139.788911,53.6132812 L261.55325,53.6132812 C262.739176,53.6132812 263.697782,54.5740312 263.697782,55.7578125 C263.697782,56.9415937 262.739176,57.9023437 261.55325,57.9023437" id="Fill-22" fill="#663210" mask="url(#mask-2)"></path>
                    <path d="M182.283012,39.6727559 C182.283012,42.636498 179.883281,45.0362285 176.919539,45.0362285 C173.957941,45.0362285 171.560355,42.636498 171.560355,39.6727559 C171.560355,36.7111582 173.957941,34.3135723 176.919539,34.3135723 C179.883281,34.3135723 182.283012,36.7111582 182.283012,39.6727559" id="Fill-23" fill="#92C438" mask="url(#mask-2)"></path>
                    <path d="M162.98223,39.6727559 C162.98223,42.636498 160.5825,45.0362285 157.620902,45.0362285 C154.659305,45.0362285 152.259574,42.636498 152.259574,39.6727559 C152.259574,36.7111582 154.659305,34.3135723 157.620902,34.3135723 C160.5825,34.3135723 162.98223,36.7111582 162.98223,39.6727559" id="Fill-24" fill="#F84541" mask="url(#mask-2)"></path>
                    <path d="M201.583793,39.6727559 C201.583793,42.636498 199.181918,45.0362285 196.222465,45.0362285 C193.263012,45.0362285 190.861137,42.636498 190.861137,39.6727559 C190.861137,36.7111582 193.263012,34.3135723 196.222465,34.3135723 C199.181918,34.3135723 201.583793,36.7111582 201.583793,39.6727559" id="Fill-25" fill="#FBD000" mask="url(#mask-2)"></path>
                    <path d="M147.970512,25.734375 C144.423457,25.734375 141.536918,28.6209141 141.536918,32.1679687 L141.536918,197.296875 C141.536918,200.84393 144.423457,203.730469 147.970512,203.730469 L255.197074,203.730469 C258.744129,203.730469 261.630668,200.84393 261.630668,197.296875 L261.630668,32.1679687 C261.630668,28.6209141 258.744129,25.734375 255.197074,25.734375 L147.970512,25.734375 Z M255.197074,208.019531 L147.970512,208.019531 C142.058039,208.019531 137.247855,203.209348 137.247855,197.296875 L137.247855,32.1679687 C137.247855,26.2554961 142.058039,21.4453125 147.970512,21.4453125 L255.197074,21.4453125 C261.109547,21.4453125 265.91973,26.2554961 265.91973,32.1679687 L265.91973,197.296875 C265.91973,203.209348 261.109547,208.019531 255.197074,208.019531 L255.197074,208.019531 Z" id="Fill-26" fill="#663210" mask="url(#mask-2)"></path>
                    <polygon id="Fill-27" fill="#75B600" mask="url(#mask-2)" points="152.259574 124.382812 250.908012 124.382812 250.908012 68.625 152.259574 68.625"></polygon>
                    <polygon id="Fill-28" fill="#28A5C6" mask="url(#mask-2)" points="152.259574 195.152344 250.908012 195.152344 250.908012 139.394531 152.259574 139.394531"></polygon>
                    <path d="M141.535202,252.956254 C139.169784,252.956254 137.248284,254.903488 137.248284,257.296785 C137.248284,259.687937 139.169784,261.633027 141.535202,261.633027 C143.902765,261.633027 145.826409,259.687937 145.826409,257.296785 C145.826409,254.903488 143.902765,252.956254 141.535202,252.956254 M141.535202,265.922089 C136.806511,265.922089 132.959222,262.0748 132.959222,257.346109 C132.959222,252.615273 136.806511,248.765839 141.535202,248.765839 C146.266038,248.765839 150.115472,252.615273 150.115472,257.346109 C150.115472,262.0748 146.266038,265.922089 141.535202,265.922089" id="Fill-29" fill="#FFFFFF" mask="url(#mask-2)"></path>
                    <path d="M123.635014,23.5919883 C123.635014,22.7534766 122.680698,21.923543 121.516218,21.7455469 L117.5231,21.1407891 C116.35862,20.962793 115.26062,19.864793 115.084768,18.7003125 L114.482155,14.7114844 C114.306304,13.5470039 113.47637,12.5926875 112.637858,12.5926875 C111.799346,12.5926875 110.969413,13.5470039 110.793561,14.7114844 L110.188804,18.7003125 C110.012952,19.864793 108.914952,20.962793 107.750471,21.1407891 L103.75521,21.7455469 C102.590729,21.923543 101.636413,22.7534766 101.636413,23.5919883 C101.636413,24.4305 102.590729,25.2604336 103.75521,25.4362852 L107.748327,26.041043 C108.914952,26.2168945 110.012952,27.3148945 110.188804,28.479375 L110.793561,32.4682031 C110.969413,33.6326836 111.799346,34.587 112.637858,34.587 C113.47637,34.587 114.297725,33.6326836 114.46071,32.4639141 L115.106214,27.8596055 C115.271343,26.6908359 116.367198,25.6636055 117.542401,25.5756797 L121.496917,25.2775898 C122.67212,25.1896641 123.635014,24.4305 123.635014,23.5919883" id="Fill-30" fill="#FFFFFF" mask="url(#mask-2)"></path>
                    <path d="M62.1892617,58.9735371 C62.1892617,61.9372793 59.7895313,64.3370098 56.8257891,64.3370098 C53.8641914,64.3370098 51.4666055,61.9372793 51.4666055,58.9735371 C51.4666055,56.0119395 53.8641914,53.6143535 56.8257891,53.6143535 C59.7895313,53.6143535 62.1892617,56.0119395 62.1892617,58.9735371" id="Fill-31" fill="#92C438" mask="url(#mask-2)"></path>
                    <path d="M42.8884805,58.9735371 C42.8884805,61.9372793 40.48875,64.3370098 37.5271523,64.3370098 C34.5655547,64.3370098 32.1658242,61.9372793 32.1658242,58.9735371 C32.1658242,56.0119395 34.5655547,53.6143535 37.5271523,53.6143535 C40.48875,53.6143535 42.8884805,56.0119395 42.8884805,58.9735371" id="Fill-32" fill="#F84541" mask="url(#mask-2)"></path>
                    <path d="M81.490043,58.9735371 C81.490043,61.9372793 79.088168,64.3370098 76.1287148,64.3370098 C73.1692617,64.3370098 70.7673867,61.9372793 70.7673867,58.9735371 C70.7673867,56.0119395 73.1692617,53.6143535 76.1287148,53.6143535 C79.088168,53.6143535 81.490043,56.0119395 81.490043,58.9735371" id="Fill-33" fill="#FBD000" mask="url(#mask-2)"></path>
                </g>
            </g>
        </g>
    </g>
</svg>