<?xml version="1.0" encoding="UTF-8"?>
<svg width="173px" height="20px" viewBox="0 0 173 20" version="1.1" xmlns="http://www.w3.org/2000/svg" xmlns:xlink="http://www.w3.org/1999/xlink">
    <!-- Generator: Sketch 48.1 (47250) - http://www.bohemiancoding.com/sketch -->
    <title>Logo</title>
    <desc>Created with Sketch.</desc>
    <defs>
        <polygon id="path-1" points="0 0.0130853396 16.1979102 0.0130853396 16.1979102 19.3684766 0 19.3684766"></polygon>
        <polygon id="path-3" points="0.0425641587 0.0130853396 16.2408569 0.0130853396 16.2408569 19.3684766 0.0425641587 19.3684766"></polygon>
        <polygon id="path-5" points="0.0914770026 0.0130853396 16.1950429 0.0130853396 16.1950429 19.3684766 0.0914770026 19.3684766"></polygon>
    </defs>
    <g id="Artboard-Copy-41" stroke="none" stroke-width="1" fill="none" fill-rule="evenodd" transform="translate(-276.000000, -130.000000)">
        <g id="Logo" transform="translate(276.000000, 130.000000)">
            <g id="Page-1" transform="translate(0.000000, 0.215213)">
                <g id="Group-3">
                    <mask id="mask-2" fill="white">
                        <use xlink:href="#path-1"></use>
                    </mask>
                    <g id="Clip-2"></g>
                    <path d="M16.1979102,18.4756684 L16.1979102,19.3684766 L9.16860673,19.3684766 L9.16860673,18.4756684 L9.77980892,18.3265564 C10.0552803,18.2669116 10.0849318,18.1774444 10.0849318,17.8792204 C10.1461476,16.1821393 10.1461476,13.3238485 10.1461476,10.7330273 C10.1461476,9.09559105 9.47372958,8.2027829 7.64012301,8.2027829 C6.96770495,8.2027829 6.63197417,8.26149575 6.11259579,8.35096296 L6.11259579,17.8792204 C6.11259579,18.1774444 6.11259579,18.2370892 6.5707583,18.3265564 L7.33500016,18.4756684 L7.33500016,19.3684766 L-0.000382599179,19.3684766 L-0.000382599179,18.4756684 L0.763859261,18.3265564 C1.22202178,18.2370892 1.22202178,18.1774444 1.22202178,17.8792204 L1.22202178,2.54398212 C1.22202178,2.24669005 1.22202178,2.09757804 0.763859261,2.09757804 L-0.000382599179,2.09757804 L-0.000382599179,1.20476988 L5.95955611,0.0128057546 L6.11259579,0.0128057546 L6.11259579,7.90455888 C7.88498648,6.6837043 9.2298226,6.26619067 11.0022133,6.26619067 C13.6000617,6.26619067 15.0367216,8.05273894 15.0367216,10.7330273 C15.0367216,13.3238485 15.0367216,16.1821393 14.9755058,17.8792204 C14.9755058,18.1774444 14.9755058,18.2370892 15.4336683,18.3265564 L16.1979102,18.4756684 Z" id="Fill-1" fill="#000000" mask="url(#mask-2)"></path>
                </g>
                <path d="M18.1768946,2.6653262 C18.1768946,1.18438348 19.3892977,0 20.9043273,0 C22.4203055,0 23.6327086,1.18438348 23.6327086,2.6653262 C23.6327086,4.14626893 22.4203055,5.32972566 20.9043273,5.32972566 C19.3892977,5.32972566 18.1768946,4.14626893 18.1768946,2.6653262 Z M17.1162791,18.3597974 L17.8742682,18.2105911 C18.3286822,18.12255 18.3286822,18.0623115 18.3286822,17.766679 L18.3286822,9.32678822 C18.3286822,9.03115573 18.3286822,8.88380285 17.8742682,8.88380285 L17.1162791,8.88380285 L17.1162791,7.99505187 L23.026507,6.21847665 L23.1782946,6.21847665 L23.1782946,17.766679 C23.1782946,18.0623115 23.1782946,18.12255 23.6327086,18.2105911 L24.3906977,18.3597974 L24.3906977,19.2476217 L17.1162791,19.2476217 L17.1162791,18.3597974 Z" id="Fill-4" fill="#000000"></path>
                <path d="M49.6372093,18.3637443 L49.6372093,19.2476217 L42.6249553,19.2476217 L42.6249553,18.3637443 L43.234675,18.2161239 C43.5094783,18.1570757 43.5390578,18.0685034 43.5390578,17.7732626 C43.6001252,16.0931575 43.6001252,13.2634582 43.6001252,10.6985531 C43.6001252,9.07749617 42.9293381,8.1936188 41.4055158,8.1936188 C40.7957961,8.1936188 40.0944753,8.25174435 39.5152892,8.48793705 C39.7891383,9.10702026 39.9418068,9.87372391 39.9418068,10.6985531 C39.9418068,13.2634582 39.9418068,16.0931575 39.8807394,17.7732626 C39.8807394,18.0685034 39.8807394,18.1275516 40.3377907,18.2161239 L41.1001789,18.3637443 L41.1001789,19.2476217 L34.088879,19.2476217 L34.088879,18.3637443 L34.6976446,18.2161239 C34.9724478,18.1570757 35.0029815,18.0685034 35.0029815,17.7732626 C35.0640489,16.0931575 35.0640489,13.2634582 35.0640489,10.6985531 C35.0640489,9.07749617 34.3932618,8.1936188 32.8684854,8.1936188 C32.1976983,8.1936188 31.7101133,8.25174435 31.3446631,8.34031661 L31.3446631,17.7732626 C31.3446631,18.0685034 31.3446631,18.1275516 31.8017144,18.2161239 L32.5641026,18.3637443 L32.5641026,19.2476217 L25.2465116,19.2476217 L25.2465116,18.3637443 L26.0088998,18.2161239 C26.4659511,18.1275516 26.4659511,18.0685034 26.4659511,17.7732626 L26.4659511,9.37181442 C26.4659511,9.07749617 26.4659511,8.92987574 26.0088998,8.92987574 L25.2465116,8.92987574 L25.2465116,8.04507574 L31.1919947,6.27639837 L31.3446631,6.27639837 L31.3446631,7.89837793 C33.0822212,6.6897356 34.1489922,6.27639837 35.9180382,6.27639837 C37.5334616,6.27639837 38.6918336,6.95545239 39.3320871,8.133648 C41.3749821,6.6897356 42.655489,6.27639837 44.4541145,6.27639837 C47.0456619,6.27639837 48.4788372,8.04507574 48.4788372,10.6985531 C48.4788372,13.2634582 48.4788372,16.0931575 48.4177698,17.7732626 C48.4177698,18.0685034 48.4177698,18.1275516 48.8748211,18.2161239 L49.6372093,18.3637443 Z" id="Fill-6" fill="#000000"></path>
                <g id="Group-10" transform="translate(50.493023, 0.000000)">
                    <mask id="mask-4" fill="white">
                        <use xlink:href="#path-3"></use>
                    </mask>
                    <g id="Clip-9"></g>
                    <path d="M16.2408569,18.4756684 L16.2408569,19.3684766 L9.21155349,19.3684766 L9.21155349,18.4756684 L9.82275568,18.3265564 C10.0982271,18.2669116 10.1278785,18.1774444 10.1278785,17.8792204 C10.1890944,16.1821393 10.1890944,13.3238485 10.1890944,10.7330273 C10.1890944,9.09559105 9.51667633,8.2027829 7.68306977,8.2027829 C7.01065171,8.2027829 6.67492093,8.26149575 6.15554254,8.35096296 L6.15554254,17.8792204 C6.15554254,18.1774444 6.15554254,18.2370892 6.61370506,18.3265564 L7.37794692,18.4756684 L7.37794692,19.3684766 L0.0425641587,19.3684766 L0.0425641587,18.4756684 L0.806806019,18.3265564 C1.26496854,18.2370892 1.26496854,18.1774444 1.26496854,17.8792204 L1.26496854,2.54398212 C1.26496854,2.24669005 1.26496854,2.09757804 0.806806019,2.09757804 L0.0425641587,2.09757804 L0.0425641587,1.20476988 L6.00250287,0.0128057546 L6.15554254,0.0128057546 L6.15554254,7.90455888 C7.92793324,6.6837043 9.27276936,6.26619067 11.0451601,6.26619067 C13.6430085,6.26619067 15.0796684,8.05273894 15.0796684,10.7330273 C15.0796684,13.3238485 15.0796684,16.1821393 15.0184525,17.8792204 C15.0184525,18.1774444 15.0184525,18.2370892 15.476615,18.3265564 L16.2408569,18.4756684 Z" id="Fill-8" fill="#000000" mask="url(#mask-4)"></path>
                </g>
                <path d="M68.6699179,2.6653262 C68.6699179,1.18438348 69.882321,0 71.3973505,0 C72.9133287,0 74.1257318,1.18438348 74.1257318,2.6653262 C74.1257318,4.14626893 72.9133287,5.32972566 71.3973505,5.32972566 C69.882321,5.32972566 68.6699179,4.14626893 68.6699179,2.6653262 Z M67.6093023,18.3597974 L68.3672914,18.2105911 C68.8217054,18.12255 68.8217054,18.0623115 68.8217054,17.766679 L68.8217054,9.32678822 C68.8217054,9.03115573 68.8217054,8.88380285 68.3672914,8.88380285 L67.6093023,8.88380285 L67.6093023,7.99505187 L73.5195303,6.21847665 L73.6703692,6.21847665 L73.6703692,17.766679 C73.6703692,18.0623115 73.6703692,18.12255 74.1257318,18.2105911 L74.8837209,18.3597974 L74.8837209,19.2476217 L67.6093023,19.2476217 L67.6093023,18.3597974 Z" id="Fill-11" fill="#000000"></path>
                <path d="M100.130233,18.3637443 L100.130233,19.2476217 L93.1179785,19.2476217 L93.1179785,18.3637443 L93.7276983,18.2161239 C94.0025015,18.1570757 94.0320811,18.0685034 94.0320811,17.7732626 C94.0941026,16.0931575 94.0941026,13.2634582 94.0941026,10.6985531 C94.0941026,9.07749617 93.4233155,8.1936188 91.8985391,8.1936188 C91.2888193,8.1936188 90.5874985,8.25174435 90.0083125,8.48793705 C90.2831157,9.10702026 90.4357842,9.87372391 90.4357842,10.6985531 C90.4357842,13.2634582 90.4357842,16.0931575 90.3737627,17.7732626 C90.3737627,18.0685034 90.3737627,18.1275516 90.8317681,18.2161239 L91.5941563,18.3637443 L91.5941563,19.2476217 L84.5819023,19.2476217 L84.5819023,18.3637443 L85.191622,18.2161239 C85.4654711,18.1570757 85.4960048,18.0685034 85.4960048,17.7732626 C85.5580264,16.0931575 85.5580264,13.2634582 85.5580264,10.6985531 C85.5580264,9.07749617 84.8862851,8.1936188 83.3624628,8.1936188 C82.6916757,8.1936188 82.2031366,8.25174435 81.8376864,8.34031661 L81.8376864,17.7732626 C81.8376864,18.0685034 81.8376864,18.1275516 82.2956918,18.2161239 L83.0571259,18.3637443 L83.0571259,19.2476217 L75.7395349,19.2476217 L75.7395349,18.3637443 L76.5019231,18.2161239 C76.9599285,18.1275516 76.9599285,18.0685034 76.9599285,17.7732626 L76.9599285,9.37181442 C76.9599285,9.07749617 76.9599285,8.92987574 76.5019231,8.92987574 L75.7395349,8.92987574 L75.7395349,8.04507574 L81.6850179,6.27639837 L81.8376864,6.27639837 L81.8376864,7.89837793 C83.5752445,6.6897356 84.6429697,6.27639837 86.4110615,6.27639837 C88.0264848,6.27639837 89.1848569,6.95545239 89.8251103,8.133648 C91.8680054,6.6897356 93.1494664,6.27639837 94.9471377,6.27639837 C97.5386851,6.27639837 98.9718605,8.04507574 98.9718605,10.6985531 C98.9718605,13.2634582 98.9718605,16.0931575 98.9107931,17.7732626 C98.9107931,18.0685034 98.9107931,18.1275516 99.3678443,18.2161239 L100.130233,18.3637443 Z" id="Fill-13" fill="#000000"></path>
                <path d="M111.649109,3.81421364 C111.649109,2.05631811 111.164835,1.19182519 110.134685,1.19182519 C109.378421,1.19182519 108.500851,1.72898584 108.500851,3.51672363 C108.500851,5.2447769 109.923348,6.73409211 110.589581,7.50905825 C111.316467,6.61565564 111.649109,5.18509238 111.649109,3.81421364 M113.011901,16.8953811 L106.895448,10.400027 C106.653785,11.0556241 106.411174,12.5449393 106.411174,13.8262913 C106.411174,16.1204149 107.894323,17.5808204 110.196286,17.5808204 C111.28614,17.5808204 112.224363,17.3420824 113.011901,16.8953811 M101.413953,14.8689052 C101.413953,12.4852548 103.26102,10.875638 106.622511,10.1016044 C104.80577,8.10590342 103.806895,6.64456533 103.806895,4.94635432 C103.806895,1.78773779 106.411174,0 109.984001,0 C113.042228,0 115.374516,1.16198293 115.374516,3.42719685 C115.374516,5.00603883 114.586978,6.91314566 110.771539,7.71795406 L116.162055,13.67708 C118.402417,10.6079903 117.736184,10.1911312 117.221583,10.1305141 L115.646506,9.98223541 L115.646506,8.93962151 L121.097674,8.93962151 L121.097674,9.98223541 L120.340462,10.1305141 C119.916841,10.1911312 119.733935,10.4298693 117.009298,14.6003249 L119.67423,17.5211359 C119.885567,17.7300317 120.219157,18.0275217 120.642779,18.1758005 L121.097674,18.3259443 L121.097674,19.3685582 L115.343242,19.3685582 L114.010777,17.9678372 C112.345669,19.1298202 110.438897,19.6660482 108.470525,19.6660482 C104.442801,19.6660482 101.413953,18.057364 101.413953,14.8689052" id="Fill-15" fill="#000000"></path>
                <g id="Group-19" transform="translate(122.809302, 0.000000)">
                    <mask id="mask-6" fill="white">
                        <use xlink:href="#path-5"></use>
                    </mask>
                    <g id="Clip-18"></g>
                    <path d="M16.1950429,18.4756684 L16.1950429,19.3684766 L9.20589561,19.3684766 L9.20589561,18.4756684 L9.81447442,18.3265564 C10.087384,18.2669116 10.1178129,18.1774444 10.1178129,17.8792204 C10.1786708,16.1821393 10.1786708,13.3238485 10.1786708,10.7330273 C10.1786708,9.09559105 9.51018501,8.2027829 7.68730129,8.2027829 C7.0188155,8.2027829 6.68504806,8.26149575 6.16775607,8.35096296 L6.16775607,17.8792204 C6.16775607,18.1774444 6.16775607,18.2370892 6.62419018,18.3265564 L7.38301189,18.4756684 L7.38301189,19.3684766 L0.0914770026,19.3684766 L0.0914770026,18.4756684 L0.851249612,18.3265564 C1.30673282,18.2370892 1.30673282,18.1774444 1.30673282,17.8792204 L1.30673282,2.54398212 C1.30673282,2.24669005 1.30673282,2.09757804 0.851249612,2.09757804 L0.0914770026,2.09757804 L0.0914770026,1.20476988 L6.01656227,0.0128057546 L6.16775607,0.0128057546 L6.16775607,7.90455888 C7.93073282,6.6837043 9.26770439,6.26619067 11.0287793,6.26619067 C13.6114357,6.26619067 15.0396941,8.05273894 15.0396941,10.7330273 C15.0396941,13.3238485 15.0396941,16.1821393 14.9797871,17.8792204 C14.9797871,18.1774444 14.9797871,18.2370892 15.4352703,18.3265564 L16.1950429,18.4756684 Z" id="Fill-17" fill="#000000" mask="url(#mask-6)"></path>
                </g>
                <path d="M145.000339,10.2932002 L147.477215,10.2932002 C147.899796,10.2932002 148.081307,10.1441883 148.081307,9.69808395 C148.081307,8.32996852 147.688978,7.31761897 146.721862,7.31761897 C146.087517,7.31761897 145.271661,7.82332808 145.000339,10.2932002 Z M144.909584,11.4834327 L144.909584,12.0785489 C144.909584,15.1733397 146.419343,16.9884908 149.591067,16.9884908 C150.588435,16.9884908 151.887376,16.7202694 152.612477,16.1847579 L152.612477,17.0778979 C151.916683,17.7326189 149.893586,19.6660482 146.872176,19.6660482 C142.825038,19.6660482 139.925581,17.2567122 139.925581,13.2687814 C139.925581,9.28178198 142.523464,6.27639837 147.477215,6.27639837 C150.950512,6.27639837 152.762791,8.15022292 152.762791,11.1863402 L152.762791,11.4834327 L144.909584,11.4834327 Z" id="Fill-20" fill="#000000"></path>
                <path d="M160.655727,9.84353092 L160.655727,17.7740804 C160.655727,18.0684196 160.655727,18.1579208 161.119011,18.2160505 L162.509829,18.3636814 L162.509829,19.2476217 L154.474419,19.2476217 L154.474419,18.3636814 L155.247203,18.2160505 C155.711454,18.1283946 155.711454,18.0684196 155.711454,17.7740804 L155.711454,9.37111192 C155.711454,9.07677273 155.711454,8.93006449 155.247203,8.93006449 L154.474419,8.93006449 L154.474419,8.04520155 L160.501944,6.27639837 L160.655727,6.27639837 L160.655727,9.22440367 C161.860845,7.10128624 163.468314,6.27639837 164.518682,6.27639837 C165.167666,6.27639837 165.6,6.65931612 165.6,7.60230874 C165.6,8.9005383 164.859133,10.0502142 164.210149,10.6988677 C163.591147,10.2559749 162.818363,9.51874285 161.737045,9.51874285 C161.335661,9.51874285 160.96426,9.6368476 160.655727,9.84353092" id="Fill-22" fill="#000000"></path>
            </g>
            <path d="M167.2,17.1284936 C167.2,15.5984333 168.444444,14.3747681 169.999513,14.3747681 C171.555556,14.3747681 172.8,15.5984333 172.8,17.1284936 C172.8,18.6585539 171.555556,19.8812616 169.999513,19.8812616 C168.444444,19.8812616 167.2,18.6585539 167.2,17.1284936 Z" id="Path" fill="#000000"></path>
        </g>
    </g>
</svg>