<svg xmlns="http://www.w3.org/2000/svg" width="67" height="66" viewBox="0 0 67 66">
    <g fill="none" fill-rule="evenodd">
        <path fill="#DBDBDB" d="M33.5 0c18.225 0 33 14.775 33 33 0 18.226-14.775 33-33 33S.5 51.226.5 33c0-18.225 14.775-33 33-33z"/>
        <g fill="#FFF" fill-rule="nonzero" stroke="#FFF">
            <path d="M20.5 23v15c0 2.761 2.183 5 4.875 5h16.25c2.692 0 4.875-2.239 4.875-5V23h-26zm24.917 15c0 2.148-1.698 3.889-3.792 3.889h-16.25c-2.094 0-3.792-1.741-3.792-3.889V24.111h23.834V38z"/>
            <path d="M42.773 27l-9.3 8.513-9.246-8.502-.727.815L33.473 37 43.5 27.815z"/>
        </g>
    </g>
</svg>
