<?xml version="1.0" encoding="UTF-8"?>
<svg width="653px" height="555px" viewBox="0 0 653 555" version="1.1" xmlns="http://www.w3.org/2000/svg" xmlns:xlink="http://www.w3.org/1999/xlink">
    <!-- Generator: Sketch 3.8.1 (29687) - http://www.bohemiancoding.com/sketch -->
    <title>Page 1</title>
    <desc>Created with Sketch.</desc>
    <defs>
        <polygon id="path-1" points="0 554.113708 653.421462 554.113708 653.421462 0.00314606741 0 0.00314606741"></polygon>
    </defs>
    <g id="Page-1" stroke="none" stroke-width="1" fill="none" fill-rule="evenodd">
        <g id="Gatepass-Landing-Page-4" transform="translate(-787.000000, -2684.000000)">
            <g id="features" transform="translate(102.000000, 2276.000000)">
                <g id="Page-1" transform="translate(685.000000, 408.000000)">
                    <path d="M617.172254,179.24027 C605.884465,192.416 591.936658,224.065438 591.936658,224.065438 L560.632696,260.629034 L507.595812,288.207461 L464.255735,295.242067 L418.035542,409.016449 C451.144292,388.636225 591.609658,315.616 591.609658,315.616 L635.534562,240.676674 C635.534562,240.676674 655.632485,195.713079 653.217715,179.202517 C651.966312,170.852854 635.490542,157.853303 617.172254,179.24027 L617.172254,179.24027 Z" id="Fill-1" fill="#FBBF8D"></path>
                    <path d="M602.728287,158.157843 C601.483171,149.80818 584.982248,136.808629 566.695402,158.20818 C555.407613,171.377618 541.472383,203.045933 541.472383,203.045933 L510.168421,239.628404 L507.539844,241.00009 L517.758594,223.552 C517.758594,223.552 535.158767,184.591101 533.058421,170.295371 C531.964229,163.065708 517.676844,151.815371 501.823633,170.339416 C492.051363,181.753348 479.983806,209.180764 479.983806,209.180764 L452.861671,240.886831 L406.937037,264.78436 C406.937037,264.78436 403.157671,265.545708 396.78746,266.785258 C364.967844,286.353798 309.59794,288.241438 281.821806,291.418966 C264.88069,293.356944 245.952421,295.395596 228.457921,299.856719 L228.457921,428.549753 L418.036171,409.018966 L441.284613,355.91964 C471.896844,336.716045 541.176825,294.596494 541.176825,294.596494 L585.070287,219.619416 C585.070287,219.619416 605.161921,174.668404 602.728287,158.157843" id="Fill-3" fill="#FBBF8D"></path>
                    <path d="M409.026692,264.718292 C418.874423,266.624809 429.042865,267.587506 438.834,269.619865 L446.411596,260.02436 C446.411596,260.02436 466.207673,228.318292 466.094481,215.633348 C466.025308,209.227955 454.982769,197.725933 438.991212,211.908404 C429.124615,220.641888 393.758308,262.125933 393.758308,262.125933 C399.876981,263.019416 405.159288,263.988404 409.026692,264.718292" id="Fill-5" fill="#FBBF8D"></path>
                    <path d="M486.969029,241.811146 C471.788683,236.141933 459.834317,241.962157 444.968394,246.932944 C423.593913,254.099685 402.904875,261.178337 380.429913,263.877663 C339.89449,268.779236 288.750433,249.021933 247.88801,255.634966 C173.973433,267.602607 131.343952,326.547326 87.3876058,385.133393 C77.6404904,398.132944 94.7325288,412.353169 107.039048,403.795865 C137.556952,382.585079 159.723779,350.93564 188.877087,327.780584 C216.527452,305.808449 253.654529,299.41564 287.895202,296.357663 C325.946683,292.953618 363.784356,301.460584 401.754087,294.929348 C418.676337,292.022382 435.227567,285.874966 451.388913,280.268674 C466.81451,274.92036 481.491779,272.894292 492.295356,260.18418 C497.332413,254.256989 493.880048,244.390921 486.969029,241.811146" id="Fill-7" fill="#FBBF8D"></path>
                    <polygon id="Fill-9" fill="#FAC33C" points="327.215065 90.0442247 292.483892 113.941753 292.483892 33.6226517 327.215065 33.6226517"></polygon>
                    <mask id="mask-2" fill="white">
                        <use xlink:href="#path-1"></use>
                    </mask>
                    <g id="Clip-12"></g>
                    <polygon id="Fill-11" fill="#CD3700" mask="url(#mask-2)" points="286.382827 34.0310112 333.319904 34.0310112 333.319904 17.4386517 286.382827 17.4386517"></polygon>
                    <polygon id="Fill-13" fill="#729D00" mask="url(#mask-2)" points="511.287767 287.005034 292.612806 287.005034 292.612806 113.939865 401.629575 21.5902022 511.287767 113.939865"></polygon>
                    <polygon id="Fill-14" fill="#4A2400" mask="url(#mask-2)" points="401.952173 31.1907416 524.199865 146.462652 551.070462 146.462652 401.952173 0.000629213486 252.859038 146.462652 279.710769 146.462652"></polygon>
                    <polygon id="Fill-15" fill="#FAC33C" mask="url(#mask-2)" points="307.8705 255.715506 359.681135 255.715506 359.681135 175.490787 307.8705 175.490787"></polygon>
                    <polygon id="Fill-16" fill="#93CBD8" mask="url(#mask-2)" points="309.907962 253.431461 357.643673 253.431461 357.643673 177.762247 309.907962 177.762247"></polygon>
                    <polygon id="Fill-17" fill="#FAC33C" mask="url(#mask-2)" points="332.609308 253.437753 334.948615 253.437753 334.948615 177.768539 332.609308 177.768539"></polygon>
                    <polygon id="Fill-18" fill="#FAC33C" mask="url(#mask-2)" points="308.643981 205.925843 358.700135 205.925843 358.700135 203.440449 308.643981 203.440449"></polygon>
                    <polygon id="Fill-19" fill="#FAC33C" mask="url(#mask-2)" points="308.643981 232.32764 358.700135 232.32764 358.700135 229.848539 308.643981 229.848539"></polygon>
                    <polygon id="Fill-20" fill="#FAC33C" mask="url(#mask-2)" points="306.776308 258.949663 360.781615 258.949663 360.781615 252.160449 306.776308 252.160449"></polygon>
                    <polygon id="Fill-21" fill="#FAC33C" mask="url(#mask-2)" points="446.983846 255.715506 498.794481 255.715506 498.794481 175.490787 446.983846 175.490787"></polygon>
                    <polygon id="Fill-22" fill="#93CBD8" mask="url(#mask-2)" points="449.015019 253.431461 496.750731 253.431461 496.750731 177.762247 449.015019 177.762247"></polygon>
                    <polygon id="Fill-23" fill="#FAC33C" mask="url(#mask-2)" points="471.722654 253.437753 474.049385 253.437753 474.049385 177.768539 471.722654 177.768539"></polygon>
                    <polygon id="Fill-24" fill="#FAC33C" mask="url(#mask-2)" points="447.757327 205.925843 497.813481 205.925843 497.813481 203.440449 447.757327 203.440449"></polygon>
                    <polygon id="Fill-25" fill="#FAC33C" mask="url(#mask-2)" points="447.757327 232.32764 497.813481 232.32764 497.813481 229.848539 447.757327 229.848539"></polygon>
                    <polygon id="Fill-26" fill="#FAC33C" mask="url(#mask-2)" points="445.883365 258.949663 499.888673 258.949663 499.888673 252.160449 445.883365 252.160449"></polygon>
                    <polygon id="Fill-27" fill="#4A2400" mask="url(#mask-2)" points="285.395538 300.553258 518.502519 300.553258 518.502519 287.006292 285.395538 287.006292"></polygon>
                    <polygon id="Fill-28" fill="#FAC33C" mask="url(#mask-2)" points="374.144596 287.006292 429.740885 287.006292 429.740885 189.723596 374.144596 189.723596"></polygon>
                    <polygon id="Fill-29" fill="#35404D" mask="url(#mask-2)" points="378.521365 239.563596 425.382981 239.563596 425.382981 195.889888 378.521365 195.889888"></polygon>
                    <polygon id="Fill-30" fill="#93CBD8" mask="url(#mask-2)" points="380.810365 237.411685 423.081404 237.411685 423.081404 198.035506 380.810365 198.035506"></polygon>
                    <polygon id="Fill-31" fill="#35404D" mask="url(#mask-2)" points="420.465404 257.062022 425.382981 257.062022 425.382981 248.466966 420.465404 248.466966"></polygon>
                    <path d="M436.93174,103.267146 C436.93174,83.9377079 421.273471,68.264 401.94274,68.264 C382.624587,68.264 366.95374,83.9377079 366.95374,103.267146 C366.95374,122.602876 382.624587,138.276584 401.94274,138.276584 C421.273471,138.276584 436.93174,122.602876 436.93174,103.267146" id="Fill-32" fill="#FAC33C" mask="url(#mask-2)"></path>
                    <path d="M434.407552,103.267146 C434.407552,85.3345618 419.86234,70.7871461 401.940225,70.7871461 C384.01811,70.7871461 369.485475,85.3345618 369.485475,103.267146 C369.485475,121.212315 384.01811,135.734562 401.940225,135.734562 C419.86234,135.734562 434.407552,121.212315 434.407552,103.267146" id="Fill-33" fill="#93CBD8" mask="url(#mask-2)"></path>
                    <polygon id="Fill-34" fill="#FAC33C" mask="url(#mask-2)" points="401.008904 137.21573 402.876577 137.21573 402.876577 69.5941573 401.008904 69.5941573"></polygon>
                    <polygon id="Fill-35" fill="#FAC33C" mask="url(#mask-2)" points="368.157981 104.345618 435.746365 104.345618 435.746365 102.483146 368.157981 102.483146"></polygon>
                    <path d="M536.822065,289.204764 C545.147988,301.015101 542.104373,321.40791 521.654296,336.471281 C506.763219,347.444764 480.615796,365.490607 480.615796,365.490607 L480.615796,365.47173 L418.932277,408.874876 C404.066354,409.107685 178.536969,433.697348 178.536969,433.697348 L121.010123,460.306787 L73.4504885,354.422742 C76.5821423,354.32836 172.204488,279.602966 224.794892,278.866787 C280.529527,278.092854 406.4937,331.362067 406.4937,331.362067 C406.4937,331.362067 450.531796,307.275775 463.442008,298.517124 C506.756931,269.051056 527.427104,275.87173 536.822065,289.204764" id="Fill-36" fill="#FFC89F" mask="url(#mask-2)"></path>
                    <path d="M513.639652,333.182382 C513.639652,333.182382 547.609921,311.034067 531.700113,290.968449 C519.934402,276.131596 487.44821,291.182382 487.48594,292.528899 C487.536248,293.875416 513.639652,333.182382 513.639652,333.182382" id="Fill-37" fill="#EDF0F2" mask="url(#mask-2)"></path>
                    <polygon id="Fill-38" fill="#EDF0F2" mask="url(#mask-2)" points="219.279283 483.27182 140.950206 261.190921 67.4066481 287.366202 145.697994 509.447101"></polygon>
                    <polygon id="Fill-39" fill="#134663" mask="url(#mask-2)" points="82.0876904 554.113708 193.14821 505.035056 107.411325 250.404944 -0.00188653846 295.324494"></polygon>
                </g>
            </g>
        </g>
    </g>
</svg>