<?xml version="1.0" encoding="UTF-8"?>
<svg width="458px" height="458px" viewBox="0 0 458 458" version="1.1" xmlns="http://www.w3.org/2000/svg" xmlns:xlink="http://www.w3.org/1999/xlink">
    <!-- Generator: Sketch 3.8.1 (29687) - http://www.bohemiancoding.com/sketch -->
    <title>Page 1</title>
    <desc>Created with Sketch.</desc>
    <defs></defs>
    <g id="Page-1" stroke="none" stroke-width="1" fill="none" fill-rule="evenodd">
        <g id="Desktop-HD" transform="translate(-198.000000, 87.000000) scale(1, -1) translate(198.000000, -87.000000) translate(-918.000000, -425.000000)">
            <g id="Page-1" transform="translate(1147.000000, 370.000000) scale(1, -1) translate(-1147.000000, -370.000000) translate(918.000000, 141.000000)">
                <path d="M458,229 C458,355.472406 355.472406,458 229,458 C102.527594,458 0,355.472406 0,229 C0,102.527594 102.527594,0 229,0 C355.472406,0 458,102.527594 458,229" id="Fill-1" fill="#3DB39E"></path>
                <path d="M290.453581,117.14173 C289.612722,117.14173 288.764706,116.844745 288.084862,116.24362 L230.784769,65.6453547 L173.488253,116.24362 C172.003331,117.556792 169.741956,117.410089 168.435941,115.932323 C167.126347,114.45098 167.269472,112.189605 168.747237,110.883589 L228.41605,58.1921203 C229.772159,56.9970266 231.797378,56.9970266 233.153487,58.1921203 L292.8223,110.883589 C294.303644,112.189605 294.443191,114.45098 293.137175,115.932323 C292.428706,116.733823 291.441144,117.14173 290.453581,117.14173" id="Fill-3" fill="#663210"></path>
                <path d="M407.140889,327.995984 C407.140889,343.739734 394.259639,356.620984 378.515889,356.620984 L83.0557953,356.620984 C67.3084672,356.620984 54.4307953,343.739734 54.4307953,327.995984 L54.4307953,131.742984 C54.4307953,115.999234 67.3084672,103.117984 83.0557953,103.117984 L378.515889,103.117984 C394.259639,103.117984 407.140889,115.999234 407.140889,131.742984 L407.140889,327.995984 Z" id="Fill-5" fill="#AD5113"></path>
                <path d="M383.055098,340.564864 L78.5173016,340.564864 C65.2675047,340.564864 54.4293641,329.726723 54.4293641,316.476927 L54.4293641,332.535552 C54.4293641,345.785348 65.2675047,356.619911 78.5173016,356.619911 L383.055098,356.619911 C396.304895,356.619911 407.139458,345.785348 407.139458,332.535552 L407.139458,316.476927 C407.139458,329.726723 396.304895,340.564864 383.055098,340.564864" id="Fill-7" fill="#993F0D"></path>
                <path d="M377.575916,304.843011 C377.575916,316.650823 367.914978,326.311761 356.107166,326.311761 L105.463087,326.311761 C93.655275,326.311761 83.9943375,316.650823 83.9943375,304.843011 L83.9943375,153.087573 C83.9943375,141.279761 93.655275,131.618823 105.463087,131.618823 L356.107166,131.618823 C367.914978,131.618823 377.575916,141.279761 377.575916,153.087573 L377.575916,304.843011 Z" id="Fill-9" fill="#415E6D"></path>
                <path d="M359.514256,130.077367 L102.057428,130.077367 C92.120975,130.077367 83.9950531,138.203289 83.9950531,148.14332 L83.9950531,161.013836 C83.9950531,151.077383 92.120975,142.951461 102.057428,142.951461 L359.514256,142.951461 C369.447131,142.951461 377.576631,151.077383 377.576631,161.013836 L377.576631,148.14332 C377.576631,138.203289 369.447131,130.077367 359.514256,130.077367" id="Fill-11" fill="#324D5B"></path>
                <path d="M82.296875,103.765625 C68.4853125,103.765625 57.25,115.000937 57.25,128.8125 L57.25,329.1875 C57.25,342.995484 68.4853125,354.234375 82.296875,354.234375 L379.28125,354.234375 C393.089234,354.234375 404.328125,342.995484 404.328125,329.1875 L404.328125,128.8125 C404.328125,115.000937 393.089234,103.765625 379.28125,103.765625 L82.296875,103.765625 Z M379.28125,361.390625 L82.296875,361.390625 C64.5422187,361.390625 50.09375,346.945734 50.09375,329.1875 L50.09375,128.8125 C50.09375,111.057844 64.5422187,96.609375 82.296875,96.609375 L379.28125,96.609375 C397.039484,96.609375 411.484375,111.057844 411.484375,128.8125 L411.484375,329.1875 C411.484375,346.945734 397.039484,361.390625 379.28125,361.390625 L379.28125,361.390625 Z" id="Fill-13" fill="#663210"></path>
                <path d="M103.765625,135.96875 C93.9007344,135.96875 85.875,143.994484 85.875,153.859375 L85.875,304.140625 C85.875,314.005516 93.9007344,322.03125 103.765625,322.03125 L354.234375,322.03125 C364.099266,322.03125 372.125,314.005516 372.125,304.140625 L372.125,153.859375 C372.125,143.994484 364.099266,135.96875 354.234375,135.96875 L103.765625,135.96875 Z M354.234375,329.1875 L103.765625,329.1875 C89.9540625,329.1875 78.71875,317.948609 78.71875,304.140625 L78.71875,153.859375 C78.71875,140.047812 89.9540625,128.8125 103.765625,128.8125 L354.234375,128.8125 C368.042359,128.8125 379.28125,140.047812 379.28125,153.859375 L379.28125,304.140625 C379.28125,317.948609 368.042359,329.1875 354.234375,329.1875 L354.234375,329.1875 Z" id="Fill-15" fill="#663210"></path>
                <path d="M239.734375,62.6139672 C239.734375,67.5553578 235.730453,71.5628578 230.789062,71.5628578 C225.847672,71.5628578 221.84375,67.5553578 221.84375,62.6139672 C221.84375,57.6761547 225.847672,53.6722328 230.789062,53.6722328 C235.730453,53.6722328 239.734375,57.6761547 239.734375,62.6139672" id="Fill-17" fill="#EBEBEB"></path>
                <path d="M230.787273,54.39895 C226.257367,54.39895 222.571898,58.0844188 222.571898,62.614325 C222.571898,67.1478094 226.257367,70.8368563 230.787273,70.8368563 C235.31718,70.8368563 239.006227,67.1478094 239.006227,62.614325 C239.006227,58.0844188 235.31718,54.39895 230.787273,54.39895 M230.787273,78.7194656 C221.909945,78.7194656 214.689289,71.4952312 214.689289,62.614325 C214.689289,53.7369969 221.909945,46.5163406 230.787273,46.5163406 C239.66818,46.5163406 246.892414,53.7369969 246.892414,62.614325 C246.892414,71.4952312 239.66818,78.7194656 230.787273,78.7194656" id="Fill-19" fill="#663210"></path>
                <path d="M319.602777,316.828298 C319.602777,322.209798 314.181917,326.610892 307.558808,326.610892 L263.909261,326.610892 C257.282573,326.610892 251.861714,322.209798 251.861714,316.828298 C251.861714,311.446798 257.282573,307.045705 263.909261,307.045705 L307.558808,307.045705 C314.181917,307.045705 319.602777,311.446798 319.602777,316.828298" id="Fill-21" fill="#FFFFFF"></path>
                <path d="M307.558092,319.588822 L263.908545,319.588822 C258.809717,319.588822 254.455139,316.969634 252.705436,313.316369 C252.175873,314.411275 251.864577,315.588478 251.864577,316.830087 C251.864577,322.208009 257.281858,326.612681 263.908545,326.612681 L307.558092,326.612681 C314.18478,326.612681 319.602061,322.208009 319.602061,316.830087 C319.602061,315.588478 319.287186,314.411275 318.761202,313.316369 C317.011498,316.969634 312.65692,319.588822 307.558092,319.588822" id="Fill-23" fill="#EBEBEB"></path>
                <path d="M264.78125,311.296875 C258.637609,311.296875 254.046875,314.395531 254.046875,317.168578 C254.046875,319.938047 258.637609,322.03125 264.78125,322.03125 L307.71875,322.03125 C313.862391,322.03125 318.453125,319.938047 318.453125,317.168578 C318.453125,314.395531 313.862391,311.296875 307.71875,311.296875 L264.78125,311.296875 Z M307.71875,329.1875 L264.78125,329.1875 C254.748187,329.1875 246.890625,324.471531 246.890625,317.168578 C246.890625,309.865625 254.748187,304.140625 264.78125,304.140625 L307.71875,304.140625 C317.751812,304.140625 325.609375,309.865625 325.609375,317.168578 C325.609375,324.471531 317.751812,329.1875 307.71875,329.1875 L307.71875,329.1875 Z" id="Fill-25" fill="#663210"></path>
                <path d="M161.107941,218.265625 C161.065003,218.265625 161.022066,218.265625 160.979128,218.262047 L140.344081,217.542844 C139.005863,217.49275 137.814347,216.705562 137.277628,215.510469 C136.737331,214.315375 136.952019,212.927062 137.825081,211.935922 L144.058175,204.869125 C148.756253,199.541297 152.227034,191.064719 151.339659,187.082266 C151.092769,185.973047 150.602566,185.754781 150.341363,185.633125 C149.729503,185.357609 149.192784,185.332562 148.563034,185.561562 C146.176425,186.413156 143.653847,190.170187 142.623347,192.342109 C141.818269,194.041719 139.750113,194.789547 138.003988,194.005937 C136.254284,193.222328 135.484988,191.215 136.286488,189.515391 C136.676503,188.678109 140.283253,181.300016 146.140644,179.196078 C148.516519,178.340906 150.978269,178.437516 153.275425,179.475172 C155.819472,180.62375 157.511925,182.756312 158.152409,185.643859 C159.834128,193.165078 154.016097,204.003219 149.350222,209.291687 L147.833097,211.009187 L161.233175,211.477922 C163.154628,211.545906 164.661019,213.120281 164.593034,214.995219 C164.521472,216.827219 162.975722,218.265625 161.107941,218.265625" id="Fill-27" fill="#FFFFFF"></path>
                <path d="M196.596142,200.375 L179.106267,200.375 C177.02022,200.375 175.327767,198.772 175.327767,196.796875 C175.327767,194.82175 177.02022,193.21875 179.106267,193.21875 L196.596142,193.21875 C198.682189,193.21875 200.374642,194.82175 200.374642,196.796875 C200.374642,198.772 198.682189,200.375 196.596142,200.375" id="Fill-29" fill="#FFFFFF"></path>
                <path d="M187.131644,211.109375 C185.263863,211.109375 183.693066,209.713906 183.564253,207.892641 L182.061441,186.162688 C181.925472,184.266281 183.41755,182.623922 185.392675,182.498688 C187.342753,182.326938 189.067409,183.804703 189.1998,185.704688 L190.706191,207.438219 C190.838581,209.334625 189.346503,210.973406 187.371378,211.102219 C187.292659,211.105797 187.210363,211.109375 187.131644,211.109375" id="Fill-31" fill="#FFFFFF"></path>
                <path d="M227.536189,218.265625 L211.041033,218.265625 C209.641986,218.265625 208.378908,217.442656 207.82072,216.176 C207.266111,214.905766 207.523736,213.431578 208.475517,212.418969 C208.550658,212.34025 216.036095,204.400391 220.329845,198.936594 C224.219267,193.977312 226.00833,188.975094 225.518127,187.758531 C225.496658,187.744219 225.353533,187.708437 225.063705,187.661922 C220.158095,186.853266 215.656814,191.969984 215.613877,192.023656 C214.350798,193.469219 212.135939,193.640969 210.668908,192.399359 C209.198298,191.154172 209.015814,188.975094 210.268158,187.518797 C210.554408,187.182453 217.356423,179.374984 226.208705,180.802656 C229.031845,181.264234 231.10358,182.820719 232.041048,185.189437 C234.585095,191.608594 227.350127,201.319625 225.872361,203.201719 C223.861455,205.760078 221.260158,208.754969 218.96658,211.316906 L227.536189,211.316906 C229.475533,211.316906 231.04633,212.873391 231.04633,214.791266 C231.04633,216.709141 229.475533,218.265625 227.536189,218.265625" id="Fill-33" fill="#FFFFFF"></path>
                <path d="M243.346492,200.682361 C241.485867,200.682361 239.900758,199.269002 239.746898,197.40122 C239.582305,195.433252 241.056492,193.701439 243.049508,193.540423 L261.30868,192.034033 C263.337477,191.84797 265.04782,193.332892 265.212414,195.300861 C265.377008,197.26883 263.899242,199.000642 261.909805,199.165236 L243.650633,200.671627 C243.546867,200.678783 243.44668,200.682361 243.346492,200.682361" id="Fill-35" fill="#FFFFFF"></path>
                <path d="M261.608169,214.6875 L243.352575,214.6875 C241.352403,214.6875 239.735091,213.0845 239.735091,211.109375 C239.735091,209.13425 241.352403,207.53125 243.352575,207.53125 L261.608169,207.53125 C263.608341,207.53125 265.225653,209.13425 265.225653,211.109375 C265.225653,213.0845 263.608341,214.6875 261.608169,214.6875" id="Fill-37" fill="#FFFFFF"></path>
                <path d="M393.59375,185.209833 C391.615047,185.209833 390.015625,183.606833 390.015625,181.631708 L390.015625,133.316286 C390.015625,120.721286 382.136594,118.077052 375.527797,118.077052 L137.693406,118.077052 C135.718281,118.077052 134.115281,116.474052 134.115281,114.498927 C134.115281,112.523802 135.718281,110.920802 137.693406,110.920802 L375.527797,110.920802 C388.881359,110.920802 397.171875,119.504723 397.171875,133.316286 L397.171875,181.631708 C397.171875,183.606833 395.572453,185.209833 393.59375,185.209833" id="Fill-39" fill="#FFFFFF"></path>
                <path d="M107.63,118.078125 L82.010625,118.078125 C80.1929375,118.078125 78.71875,116.475125 78.71875,114.5 C78.71875,112.524875 80.1929375,110.921875 82.010625,110.921875 L107.63,110.921875 C109.447688,110.921875 110.921875,112.524875 110.921875,114.5 C110.921875,116.475125 109.447688,118.078125 107.63,118.078125" id="Fill-41" fill="#FFFFFF"></path>
                <path d="M354.336352,339.921875 L311.194898,339.921875 C309.273445,339.921875 307.720539,338.322453 307.720539,336.34375 C307.720539,334.365047 309.273445,332.765625 311.194898,332.765625 L354.336352,332.765625 C356.257805,332.765625 357.814289,334.365047 357.814289,336.34375 C357.814289,338.322453 356.257805,339.921875 354.336352,339.921875" id="Fill-43" fill="#FFFFFF"></path>
                <path d="M289.835997,339.921875 L107.337309,339.921875 C105.365762,339.921875 103.766341,338.322453 103.766341,336.34375 C103.766341,334.365047 105.365762,332.765625 107.337309,332.765625 L289.835997,332.765625 C291.811122,332.765625 293.406966,334.365047 293.406966,336.34375 C293.406966,338.322453 291.811122,339.921875 289.835997,339.921875" id="Fill-45" fill="#FFFFFF"></path>
                <path d="M314.872137,57.25 C310.925466,57.25 307.719466,60.4595781 307.719466,64.4098281 C307.719466,68.3565 310.925466,71.5625 314.872137,71.5625 C318.822387,71.5625 322.031966,68.3565 322.031966,64.4098281 C322.031966,60.4595781 318.822387,57.25 314.872137,57.25 M314.872137,78.71875 C306.982372,78.71875 300.563216,72.2995937 300.563216,64.4098281 C300.563216,56.5164844 306.982372,50.09375 314.872137,50.09375 C322.765481,50.09375 329.188216,56.5164844 329.188216,64.4098281 C329.188216,72.2995937 322.765481,78.71875 314.872137,78.71875" id="Fill-47" fill="#FFFFFF"></path>
                <path d="M318.449905,385.980931 C314.252764,385.980931 310.839233,389.398041 310.839233,393.595181 C310.839233,397.792322 314.252764,401.205853 318.449905,401.205853 C322.650623,401.205853 326.064155,397.792322 326.064155,393.595181 C326.064155,389.398041 322.650623,385.980931 318.449905,385.980931 M318.449905,407.907681 C310.560139,407.907681 304.140983,401.488525 304.140983,393.595181 C304.140983,385.701837 310.560139,379.282681 318.449905,379.282681 C326.343248,379.282681 332.765983,385.701837 332.765983,393.595181 C332.765983,401.488525 326.343248,407.907681 318.449905,407.907681" id="Fill-49" fill="#FFFFFF"></path>
                <path d="M150.278387,386.4375 C146.331716,386.4375 143.125716,389.647078 143.125716,393.597328 C143.125716,397.544 146.331716,400.75 150.278387,400.75 C154.228637,400.75 157.438216,397.544 157.438216,393.597328 C157.438216,389.647078 154.228637,386.4375 150.278387,386.4375 M150.278387,407.90625 C142.388622,407.90625 135.969466,401.487094 135.969466,393.597328 C135.969466,385.703984 142.388622,379.28125 150.278387,379.28125 C158.171731,379.28125 164.594466,385.703984 164.594466,393.597328 C164.594466,401.487094 158.171731,407.90625 150.278387,407.90625" id="Fill-51" fill="#FFFFFF"></path>
                <path d="M172.770481,54.0701203 C172.770481,52.6710734 171.178216,51.2863391 169.235294,50.9893547 L162.572825,49.9803234 C160.629903,49.6833391 158.797903,47.8513391 158.504497,45.9084172 L157.499044,39.2531047 C157.205637,37.3101828 155.820903,35.7179172 154.421856,35.7179172 C153.022809,35.7179172 151.638075,37.3101828 151.344669,39.2531047 L150.335637,45.9084172 C150.042231,47.8513391 148.210231,49.6833391 146.267309,49.9803234 L139.601262,50.9893547 C137.658341,51.2863391 136.066075,52.6710734 136.066075,54.0701203 C136.066075,55.4691672 137.658341,56.8539016 139.604841,57.1473078 L146.267309,58.1563391 C148.210231,58.4497453 150.042231,60.2817453 150.335637,62.2246672 L151.344669,68.8799797 C151.638075,70.8229016 153.022809,72.4151672 154.421856,72.4151672 C155.820903,72.4151672 157.187747,70.8229016 157.463262,68.8728234 L158.540278,61.1905891 C158.815794,59.2405109 160.640637,57.5265891 162.605028,57.3798859 L169.203091,56.8825266 C171.167481,56.7358234 172.770481,55.4691672 172.770481,54.0701203" id="Fill-53" fill="#FFFFFF"></path>
                <path d="M258.358873,404.848742 C258.358873,403.449695 256.766608,402.064961 254.823686,401.767977 L248.161217,400.758945 C246.218295,400.461961 244.386295,398.629961 244.092889,396.687039 L243.087436,390.031727 C242.79403,388.088805 241.409295,386.496539 240.010248,386.496539 C238.611202,386.496539 237.226467,388.088805 236.933061,390.031727 L235.92403,396.687039 C235.630623,398.629961 233.798623,400.461961 231.855702,400.758945 L225.189655,401.767977 C223.246733,402.064961 221.654467,403.449695 221.654467,404.848742 C221.654467,406.247789 223.246733,407.632523 225.193233,407.92593 L231.855702,408.934961 C233.798623,409.228367 235.630623,411.060367 235.92403,413.003289 L236.933061,419.658602 C237.226467,421.601523 238.611202,423.193789 240.010248,423.193789 C241.409295,423.193789 242.779717,421.601523 243.051655,419.651445 L244.12867,411.969211 C244.404186,410.019133 246.22903,408.305211 248.19342,408.158508 L254.791483,407.661148 C256.755873,407.514445 258.358873,406.247789 258.358873,404.848742" id="Fill-55" fill="#FFFFFF"></path>
                <path d="M186.278619,300.5625 C185.090681,300.5625 183.931369,299.986422 183.258681,298.941609 C182.228181,297.335031 182.743431,295.223938 184.410837,294.229219 L185.756212,293.438453 C187.216087,292.594016 191.205697,290.275391 192.758603,288.704594 C191.259369,288.096313 187.284072,287.094438 177.179447,286.87975 C160.945494,286.532672 154.122009,284.507453 152.848197,279.655516 C151.420525,274.223922 158.512369,269.797781 166.548837,265.368063 C168.878197,264.079938 171.651244,262.881266 174.481541,261.779203 C164.491416,262.784656 152.826728,264.398391 147.216228,265.23925 C145.284041,265.521922 143.469931,264.255266 143.169369,262.383906 C142.865228,260.519703 144.192713,258.766422 146.128478,258.476594 C147.516791,258.269063 180.206541,253.367031 190.210978,254.125594 C191.788931,254.243672 195.495869,254.522766 195.953869,257.775281 C196.44765,261.292578 193.35615,262.369594 185.104994,265.23925 C180.235166,266.938859 174.170244,269.049953 170.066134,271.311328 C163.629088,274.860828 161.056416,276.828797 160.133259,277.920125 C161.514416,278.567766 165.636416,279.784328 177.333306,280.034797 C192.504556,280.360406 198.9094,282.285438 200.179634,286.897641 C201.639509,292.204 194.572712,296.308109 189.413056,299.306578 L188.139244,300.050828 C187.559587,300.397906 186.915525,300.5625 186.278619,300.5625" id="Fill-57" fill="#FFFFFF"></path>
            </g>
        </g>
    </g>
</svg>