<?xml version="1.0" encoding="UTF-8"?>
<svg width="460px" height="460px" viewBox="0 0 460 460" version="1.1" xmlns="http://www.w3.org/2000/svg" xmlns:xlink="http://www.w3.org/1999/xlink">
    <!-- Generator: Sketch 3.8.1 (29687) - http://www.bohemiancoding.com/sketch -->
    <title>Group 5</title>
    <desc>Created with Sketch.</desc>
    <defs>
        <polygon id="path-1" points="0 412 412 412 412 0 0 0"></polygon>
    </defs>
    <g id="Page-1" stroke="none" stroke-width="1" fill="none" fill-rule="evenodd">
        <g id="Desktop-HD" transform="translate(-198.000000, 88.000000) scale(1, -1) translate(198.000000, -88.000000) translate(-918.000000, -424.000000)">
            <g id="Group-5" transform="translate(918.000000, 140.000000)">
                <circle id="Oval-137" fill="#28A5C6" cx="230" cy="230" r="230"></circle>
                <g id="Page-1" transform="translate(229.000000, 240.000000) scale(1, -1) translate(-229.000000, -240.000000) translate(23.000000, 34.000000)">
                    <path d="M228.528353,41.4333594 C224.752759,41.4333594 221.682072,44.5072656 221.682072,48.2828594 C221.682072,52.0584531 224.752759,55.1291406 228.528353,55.1291406 C232.307166,55.1291406 235.377853,52.0584531 235.377853,48.2828594 C235.377853,44.5072656 232.307166,41.4333594 228.528353,41.4333594 M228.528353,61.1578594 C221.431009,61.1578594 215.656572,55.3834219 215.656572,48.2828594 C215.656572,41.1822969 221.431009,35.4078594 228.528353,35.4078594 C235.628916,35.4078594 241.406572,41.1822969 241.406572,48.2828594 C241.406572,55.3834219 235.628916,61.1578594 228.528353,61.1578594" id="Fill-3" fill="#FFFFFF"></path>
                    <path d="M45.0596031,166.964609 C41.2840094,166.964609 38.2133219,170.038516 38.2133219,173.814109 C38.2133219,177.589703 41.2840094,180.660391 45.0596031,180.660391 C48.8384156,180.660391 51.9091031,177.589703 51.9091031,173.814109 C51.9091031,170.038516 48.8384156,166.964609 45.0596031,166.964609 M45.0596031,186.689109 C37.9622594,186.689109 32.1878219,180.914672 32.1878219,173.814109 C32.1878219,166.713547 37.9622594,160.939109 45.0596031,160.939109 C52.1601656,160.939109 57.9378219,166.713547 57.9378219,173.814109 C57.9378219,180.914672 52.1601656,186.689109 45.0596031,186.689109" id="Fill-5" fill="#FFFFFF"></path>
                    <path d="M396.736044,186.278719 C396.736044,185.020187 395.3037,183.774531 393.555919,183.507375 L387.562606,182.599687 C385.814825,182.332531 384.166825,180.684531 383.902888,178.933531 L382.998419,172.953094 C382.734481,171.202094 381.488825,169.76975 380.230294,169.76975 C378.974981,169.76975 377.726106,171.202094 377.462169,172.949875 L376.554481,178.93675 C376.290544,180.684531 374.642544,182.332531 372.894763,182.599687 L366.898231,183.507375 C365.15045,183.774531 363.718106,185.020187 363.718106,186.278719 C363.718106,187.53725 365.15045,188.782906 366.898231,189.046844 L372.891544,189.954531 C374.642544,190.218469 376.290544,191.866469 376.554481,193.61425 L377.462169,199.601125 C377.726106,201.348906 378.974981,202.78125 380.230294,202.78125 C381.488825,202.78125 382.721606,201.348906 382.966231,199.594687 L383.935075,192.684031 C384.182919,190.929812 385.8277,189.388031 387.591575,189.256062 L393.52695,188.808656 C395.290825,188.676687 396.736044,187.53725 396.736044,186.278719" id="Fill-7" fill="#FFFFFF"></path>
                    <path d="M164.15625,44.6537187 C164.15625,43.3951875 162.723906,42.1495312 160.972906,41.882375 L154.986031,40.9746875 C153.235031,40.7075312 151.587031,39.0595312 151.323094,37.3085312 L150.418625,31.3280937 C150.154687,29.5770937 148.909031,28.14475 147.6505,28.14475 C146.391969,28.14475 145.146312,29.5770937 144.882375,31.324875 L143.974687,37.31175 C143.71075,39.0595312 142.06275,40.7075312 140.31175,40.9746875 L134.321656,41.882375 C132.570656,42.1495312 131.138312,43.3951875 131.138312,44.6537187 C131.138312,45.91225 132.570656,47.1579062 134.321656,47.4218437 L140.31175,48.3295312 C142.06275,48.5934687 143.71075,50.2414687 143.974687,51.98925 L144.882375,57.976125 C145.146312,59.7239062 146.391969,61.15625 147.6505,61.15625 C148.909031,61.15625 150.138594,59.7239062 150.386437,57.9696875 L151.355281,51.0590312 C151.603125,49.3048125 153.247906,47.7630312 155.011781,47.6310625 L160.947156,47.1836562 C162.711031,47.0516875 164.15625,45.91225 164.15625,44.6537187" id="Fill-9" fill="#FFFFFF"></path>
                    <path d="M61.9860438,253.872469 C61.9860438,252.613937 60.5537,251.368281 58.8027,251.101125 L52.815825,250.193437 C51.064825,249.926281 49.416825,248.278281 49.1528875,246.527281 L48.2484188,240.546844 C47.9844813,238.795844 46.738825,237.3635 45.4802938,237.3635 C44.2217625,237.3635 42.9761063,238.795844 42.7121688,240.543625 L41.8044813,246.5305 C41.5405438,248.278281 39.8925438,249.926281 38.1415438,250.193437 L32.15145,251.101125 C30.40045,251.368281 28.9681063,252.613937 28.9681063,253.872469 C28.9681063,255.131 30.40045,256.376656 32.15145,256.640594 L38.1415438,257.548281 C39.8925438,257.812219 41.5405438,259.460219 41.8044813,261.208 L42.7121688,267.194875 C42.9761063,268.942656 44.2217625,270.375 45.4802938,270.375 C46.738825,270.375 47.9716063,268.942656 48.2162313,267.188437 L49.185075,260.277781 C49.4329188,258.523562 51.0777,256.981781 52.841575,256.849812 L58.77695,256.402406 C60.540825,256.270437 61.9860438,255.131 61.9860438,253.872469" id="Fill-11" fill="#FFFFFF"></path>
                    <path d="M77.25,103 C77.25,92.378125 85.940625,83.6875 96.5625,83.6875 L321.875,83.6875 C332.496875,83.6875 341.1875,92.378125 341.1875,103 L341.1875,215.65625 C341.1875,226.278125 332.496875,234.96875 321.875,234.96875 L96.5625,234.96875 C85.940625,234.96875 77.25,226.278125 77.25,215.65625 L77.25,103 Z" id="Fill-13" fill="#AD5113"></path>
                    <path d="M96.5625,86.90625 C87.6884062,86.90625 80.46875,94.1259062 80.46875,103 L80.46875,215.65625 C80.46875,224.530344 87.6884062,231.75 96.5625,231.75 L321.875,231.75 C330.749094,231.75 337.96875,224.530344 337.96875,215.65625 L337.96875,103 C337.96875,94.1259062 330.749094,86.90625 321.875,86.90625 L96.5625,86.90625 Z M321.875,238.1875 L96.5625,238.1875 C84.138125,238.1875 74.03125,228.077406 74.03125,215.65625 L74.03125,103 C74.03125,90.575625 84.138125,80.46875 96.5625,80.46875 L321.875,80.46875 C334.296156,80.46875 344.40625,90.575625 344.40625,103 L344.40625,215.65625 C344.40625,228.077406 334.296156,238.1875 321.875,238.1875 L321.875,238.1875 Z" id="Fill-15" fill="#663210"></path>
                    <path d="M94.0290219,119.09375 C94.0290219,108.471875 102.719647,99.78125 113.341522,99.78125 L305.095334,99.78125 C315.717209,99.78125 324.407834,108.471875 324.407834,119.09375 L324.407834,193.125 C324.407834,203.746875 315.717209,212.4375 305.095334,212.4375 L113.341522,212.4375 C102.719647,212.4375 94.0290219,203.746875 94.0290219,193.125 L94.0290219,119.09375 Z" id="Fill-17" fill="#993F0D"></path>
                    <mask id="mask-2" fill="white">
                        <use xlink:href="#path-1"></use>
                    </mask>
                    <g id="Clip-20"></g>
                    <polygon id="Fill-19" fill="#AD5113" mask="url(#mask-2)" points="77.25 337.96875 341.1875 337.96875 341.1875 193.125 77.25 193.125"></polygon>
                    <polygon id="Fill-21" fill="#993F0D" mask="url(#mask-2)" points="77.25 231.75 341.1875 231.75 341.1875 206 77.25 206"></polygon>
                    <polygon id="Fill-22" fill="#993F0D" mask="url(#mask-2)" points="77.25 315.4375 341.1875 315.4375 341.1875 309 77.25 309"></polygon>
                    <polygon id="Fill-23" fill="#993F0D" mask="url(#mask-2)" points="77.25 286.46875 341.1875 286.46875 341.1875 280.03125 77.25 280.03125"></polygon>
                    <polygon id="Fill-24" fill="#993F0D" mask="url(#mask-2)" points="77.25 257.5 341.1875 257.5 341.1875 251.0625 77.25 251.0625"></polygon>
                    <polygon id="Fill-25" fill="#EBEBEB" mask="url(#mask-2)" points="77.25 337.96875 103 337.96875 103 196.34375 77.25 196.34375"></polygon>
                    <polygon id="Fill-26" fill="#EBEBEB" mask="url(#mask-2)" points="315.4375 337.96875 341.1875 337.96875 341.1875 196.34375 315.4375 196.34375"></polygon>
                    <path d="M125.53125,188.296875 C125.53125,199.852187 116.164688,209.21875 104.609375,209.21875 C93.0540625,209.21875 83.6875,199.852187 83.6875,188.296875 C83.6875,176.741562 93.0540625,167.375 104.609375,167.375 C116.164688,167.375 125.53125,176.741562 125.53125,188.296875" id="Fill-27" fill="#FBD000" mask="url(#mask-2)"></path>
                    <path d="M104.609375,199.5625 C94.7181563,199.5625 86.4524063,192.690469 84.2700938,183.46875 C83.9031562,185.020187 83.6875,186.629562 83.6875,188.296875 C83.6875,199.852188 93.0540625,209.21875 104.609375,209.21875 C116.164688,209.21875 125.53125,199.852188 125.53125,188.296875 C125.53125,186.629562 125.315594,185.020187 124.948656,183.46875 C122.766344,192.690469 114.500594,199.5625 104.609375,199.5625" id="Fill-28" fill="#F4B10B" mask="url(#mask-2)"></path>
                    <path d="M104.609375,170.59375 C94.8469062,170.59375 86.90625,178.534406 86.90625,188.296875 C86.90625,198.059344 94.8469062,206 104.609375,206 C114.371844,206 122.3125,198.059344 122.3125,188.296875 C122.3125,178.534406 114.371844,170.59375 104.609375,170.59375 M104.609375,212.4375 C91.296625,212.4375 80.46875,201.609625 80.46875,188.296875 C80.46875,174.984125 91.296625,164.15625 104.609375,164.15625 C117.922125,164.15625 128.75,174.984125 128.75,188.296875 C128.75,201.609625 117.922125,212.4375 104.609375,212.4375" id="Fill-29" fill="#663210" mask="url(#mask-2)"></path>
                    <path d="M157.71875,178.640625 C157.71875,190.195937 148.352188,199.5625 136.796875,199.5625 C125.241563,199.5625 115.875,190.195937 115.875,178.640625 C115.875,167.085312 125.241563,157.71875 136.796875,157.71875 C148.352188,157.71875 157.71875,167.085312 157.71875,178.640625" id="Fill-30" fill="#FBD000" mask="url(#mask-2)"></path>
                    <path d="M136.796875,189.90625 C126.905656,189.90625 118.639906,183.034219 116.457594,173.8125 C116.090656,175.363937 115.875,176.973312 115.875,178.640625 C115.875,190.195938 125.241563,199.5625 136.796875,199.5625 C148.352188,199.5625 157.71875,190.195938 157.71875,178.640625 C157.71875,176.973312 157.503094,175.363937 157.136156,173.8125 C154.953844,183.034219 146.688094,189.90625 136.796875,189.90625" id="Fill-31" fill="#F4B10B" mask="url(#mask-2)"></path>
                    <path d="M136.796875,160.9375 C127.034406,160.9375 119.09375,168.878156 119.09375,178.640625 C119.09375,188.403094 127.034406,196.34375 136.796875,196.34375 C146.559344,196.34375 154.5,188.403094 154.5,178.640625 C154.5,168.878156 146.559344,160.9375 136.796875,160.9375 M136.796875,202.78125 C123.484125,202.78125 112.65625,191.953375 112.65625,178.640625 C112.65625,165.327875 123.484125,154.5 136.796875,154.5 C150.109625,154.5 160.9375,165.327875 160.9375,178.640625 C160.9375,191.953375 150.109625,202.78125 136.796875,202.78125" id="Fill-32" fill="#663210" mask="url(#mask-2)"></path>
                    <path d="M189.90625,191.515625 C189.90625,203.070937 180.539687,212.4375 168.984375,212.4375 C157.429062,212.4375 148.0625,203.070937 148.0625,191.515625 C148.0625,179.960312 157.429062,170.59375 168.984375,170.59375 C180.539687,170.59375 189.90625,179.960312 189.90625,191.515625" id="Fill-33" fill="#FBD000" mask="url(#mask-2)"></path>
                    <path d="M168.984375,202.78125 C159.093156,202.78125 150.827406,195.909219 148.645094,186.6875 C148.278156,188.238937 148.0625,189.848312 148.0625,191.515625 C148.0625,203.070938 157.429062,212.4375 168.984375,212.4375 C180.539687,212.4375 189.90625,203.070938 189.90625,191.515625 C189.90625,189.848312 189.693812,188.238937 189.323656,186.6875 C187.141344,195.909219 178.872375,202.78125 168.984375,202.78125" id="Fill-34" fill="#F4B10B" mask="url(#mask-2)"></path>
                    <path d="M168.984375,173.8125 C159.221906,173.8125 151.28125,181.753156 151.28125,191.515625 C151.28125,201.278094 159.221906,209.21875 168.984375,209.21875 C178.746844,209.21875 186.6875,201.278094 186.6875,191.515625 C186.6875,181.753156 178.746844,173.8125 168.984375,173.8125 M168.984375,215.65625 C155.671625,215.65625 144.84375,204.828375 144.84375,191.515625 C144.84375,178.202875 155.671625,167.375 168.984375,167.375 C182.297125,167.375 193.125,178.202875 193.125,191.515625 C193.125,204.828375 182.297125,215.65625 168.984375,215.65625" id="Fill-35" fill="#663210" mask="url(#mask-2)"></path>
                    <path d="M257.5,165.765625 C257.5,177.320938 248.133438,186.6875 236.578125,186.6875 C225.022812,186.6875 215.65625,177.320938 215.65625,165.765625 C215.65625,154.210312 225.022812,144.84375 236.578125,144.84375 C248.133438,144.84375 257.5,154.210312 257.5,165.765625" id="Fill-36" fill="#FBD000" mask="url(#mask-2)"></path>
                    <path d="M236.578125,177.03125 C226.690125,177.03125 218.421156,170.159219 216.238844,160.9375 C215.868688,162.488937 215.65625,164.098312 215.65625,165.765625 C215.65625,177.320938 225.022812,186.6875 236.578125,186.6875 C248.133438,186.6875 257.5,177.320938 257.5,165.765625 C257.5,164.098312 257.287562,162.488937 256.917406,160.9375 C254.735094,170.159219 246.466125,177.03125 236.578125,177.03125" id="Fill-37" fill="#F4B10B" mask="url(#mask-2)"></path>
                    <path d="M236.578125,148.0625 C226.818875,148.0625 218.875,156.003156 218.875,165.765625 C218.875,175.528094 226.818875,183.46875 236.578125,183.46875 C246.337375,183.46875 254.28125,175.528094 254.28125,165.765625 C254.28125,156.003156 246.337375,148.0625 236.578125,148.0625 M236.578125,189.90625 C223.265375,189.90625 212.4375,179.078375 212.4375,165.765625 C212.4375,152.452875 223.265375,141.625 236.578125,141.625 C249.890875,141.625 260.71875,152.452875 260.71875,165.765625 C260.71875,179.078375 249.890875,189.90625 236.578125,189.90625" id="Fill-38" fill="#663210" mask="url(#mask-2)"></path>
                    <path d="M270.375,143.234375 C270.375,154.789688 261.008438,164.15625 249.453125,164.15625 C237.897813,164.15625 228.53125,154.789688 228.53125,143.234375 C228.53125,131.679063 237.897813,122.3125 249.453125,122.3125 C261.008438,122.3125 270.375,131.679063 270.375,143.234375" id="Fill-39" fill="#FBD000" mask="url(#mask-2)"></path>
                    <path d="M249.453125,154.5 C239.565125,154.5 231.296156,147.627969 229.113844,138.40625 C228.743688,139.957687 228.53125,141.567062 228.53125,143.234375 C228.53125,154.789687 237.897813,164.15625 249.453125,164.15625 C261.008438,164.15625 270.375,154.789687 270.375,143.234375 C270.375,141.567062 270.162563,139.957687 269.792406,138.40625 C267.610094,147.627969 259.341125,154.5 249.453125,154.5" id="Fill-40" fill="#F4B10B" mask="url(#mask-2)"></path>
                    <path d="M249.453125,125.53125 C239.693875,125.53125 231.75,133.471906 231.75,143.234375 C231.75,152.996844 239.693875,160.9375 249.453125,160.9375 C259.212375,160.9375 267.15625,152.996844 267.15625,143.234375 C267.15625,133.471906 259.212375,125.53125 249.453125,125.53125 M249.453125,167.375 C236.140375,167.375 225.3125,156.547125 225.3125,143.234375 C225.3125,129.921625 236.140375,119.09375 249.453125,119.09375 C262.765875,119.09375 273.59375,129.921625 273.59375,143.234375 C273.59375,156.547125 262.765875,167.375 249.453125,167.375" id="Fill-41" fill="#663210" mask="url(#mask-2)"></path>
                    <path d="M312.21875,191.515625 C312.21875,203.070937 302.852188,212.4375 291.296875,212.4375 C279.741562,212.4375 270.375,203.070937 270.375,191.515625 C270.375,179.960312 279.741562,170.59375 291.296875,170.59375 C302.852188,170.59375 312.21875,179.960312 312.21875,191.515625" id="Fill-42" fill="#FBD000" mask="url(#mask-2)"></path>
                    <path d="M291.296875,202.78125 C281.408875,202.78125 273.139906,195.909219 270.957594,186.6875 C270.587438,188.238937 270.375,189.848312 270.375,191.515625 C270.375,203.070938 279.741562,212.4375 291.296875,212.4375 C302.852188,212.4375 312.21875,203.070938 312.21875,191.515625 C312.21875,189.848312 312.006313,188.238937 311.636156,186.6875 C309.453844,195.909219 301.184875,202.78125 291.296875,202.78125" id="Fill-43" fill="#F4B10B" mask="url(#mask-2)"></path>
                    <path d="M291.296875,173.8125 C281.537625,173.8125 273.59375,181.753156 273.59375,191.515625 C273.59375,201.278094 281.537625,209.21875 291.296875,209.21875 C301.056125,209.21875 309,201.278094 309,191.515625 C309,181.753156 301.056125,173.8125 291.296875,173.8125 M291.296875,215.65625 C277.984125,215.65625 267.15625,204.828375 267.15625,191.515625 C267.15625,178.202875 277.984125,167.375 291.296875,167.375 C304.609625,167.375 315.4375,178.202875 315.4375,191.515625 C315.4375,204.828375 304.609625,215.65625 291.296875,215.65625" id="Fill-44" fill="#663210" mask="url(#mask-2)"></path>
                    <path d="M337.96875,188.296875 C337.96875,199.852187 328.602187,209.21875 317.046875,209.21875 C305.491562,209.21875 296.125,199.852187 296.125,188.296875 C296.125,176.741562 305.491562,167.375 317.046875,167.375 C328.602187,167.375 337.96875,176.741562 337.96875,188.296875" id="Fill-45" fill="#FBD000" mask="url(#mask-2)"></path>
                    <path d="M317.046875,199.5625 C307.158875,199.5625 298.889906,192.690469 296.707594,183.46875 C296.337438,185.020187 296.125,186.629562 296.125,188.296875 C296.125,199.852188 305.491562,209.21875 317.046875,209.21875 C328.602187,209.21875 337.96875,199.852188 337.96875,188.296875 C337.96875,186.629562 337.756312,185.020187 337.386156,183.46875 C335.203844,192.690469 326.934875,199.5625 317.046875,199.5625" id="Fill-46" fill="#F4B10B" mask="url(#mask-2)"></path>
                    <path d="M317.046875,170.59375 C307.287625,170.59375 299.34375,178.534406 299.34375,188.296875 C299.34375,198.059344 307.287625,206 317.046875,206 C326.806125,206 334.75,198.059344 334.75,188.296875 C334.75,178.534406 326.806125,170.59375 317.046875,170.59375 M317.046875,212.4375 C303.734125,212.4375 292.90625,201.609625 292.90625,188.296875 C292.90625,174.984125 303.734125,164.15625 317.046875,164.15625 C330.359625,164.15625 341.1875,174.984125 341.1875,188.296875 C341.1875,201.609625 330.359625,212.4375 317.046875,212.4375" id="Fill-47" fill="#663210" mask="url(#mask-2)"></path>
                    <path d="M302.5625,159.328125 C302.5625,170.883438 293.195938,180.25 281.640625,180.25 C270.085313,180.25 260.71875,170.883438 260.71875,159.328125 C260.71875,147.772812 270.085313,138.40625 281.640625,138.40625 C293.195938,138.40625 302.5625,147.772812 302.5625,159.328125" id="Fill-48" fill="#FBD000" mask="url(#mask-2)"></path>
                    <path d="M281.640625,170.59375 C271.752625,170.59375 263.483656,163.721719 261.301344,154.5 C260.931188,156.051437 260.71875,157.660812 260.71875,159.328125 C260.71875,170.883437 270.085313,180.25 281.640625,180.25 C293.195938,180.25 302.5625,170.883437 302.5625,159.328125 C302.5625,157.660812 302.350063,156.051437 301.979906,154.5 C299.797594,163.721719 291.528625,170.59375 281.640625,170.59375" id="Fill-49" fill="#F4B10B" mask="url(#mask-2)"></path>
                    <path d="M281.640625,141.625 C271.881375,141.625 263.9375,149.565656 263.9375,159.328125 C263.9375,169.090594 271.881375,177.03125 281.640625,177.03125 C291.399875,177.03125 299.34375,169.090594 299.34375,159.328125 C299.34375,149.565656 291.399875,141.625 281.640625,141.625 M281.640625,183.46875 C268.327875,183.46875 257.5,172.640875 257.5,159.328125 C257.5,146.015375 268.327875,135.1875 281.640625,135.1875 C294.953375,135.1875 305.78125,146.015375 305.78125,159.328125 C305.78125,172.640875 294.953375,183.46875 281.640625,183.46875" id="Fill-50" fill="#663210" mask="url(#mask-2)"></path>
                    <path d="M273.59375,185.078125 C273.59375,196.633437 264.227188,206 252.671875,206 C241.116563,206 231.75,196.633437 231.75,185.078125 C231.75,173.522812 241.116563,164.15625 252.671875,164.15625 C264.227188,164.15625 273.59375,173.522812 273.59375,185.078125" id="Fill-51" fill="#FBD000" mask="url(#mask-2)"></path>
                    <path d="M252.671875,196.34375 C242.783875,196.34375 234.514906,189.471719 232.332594,180.25 C231.962438,181.801437 231.75,183.410812 231.75,185.078125 C231.75,196.633438 241.116563,206 252.671875,206 C264.227188,206 273.59375,196.633438 273.59375,185.078125 C273.59375,183.410812 273.381313,181.801437 273.011156,180.25 C270.828844,189.471719 262.559875,196.34375 252.671875,196.34375" id="Fill-52" fill="#F4B10B" mask="url(#mask-2)"></path>
                    <path d="M252.671875,167.375 C242.912625,167.375 234.96875,175.315656 234.96875,185.078125 C234.96875,194.840594 242.912625,202.78125 252.671875,202.78125 C262.431125,202.78125 270.375,194.840594 270.375,185.078125 C270.375,175.315656 262.431125,167.375 252.671875,167.375 M252.671875,209.21875 C239.359125,209.21875 228.53125,198.390875 228.53125,185.078125 C228.53125,171.765375 239.359125,160.9375 252.671875,160.9375 C265.984625,160.9375 276.8125,171.765375 276.8125,185.078125 C276.8125,198.390875 265.984625,209.21875 252.671875,209.21875" id="Fill-53" fill="#663210" mask="url(#mask-2)"></path>
                    <path d="M196.34375,152.890625 C196.34375,164.445938 186.977188,173.8125 175.421875,173.8125 C163.866562,173.8125 154.5,164.445938 154.5,152.890625 C154.5,141.335313 163.866562,131.96875 175.421875,131.96875 C186.977188,131.96875 196.34375,141.335313 196.34375,152.890625" id="Fill-54" fill="#FBD000" mask="url(#mask-2)"></path>
                    <path d="M175.421875,164.15625 C165.533875,164.15625 157.264906,157.284219 155.082594,148.0625 C154.712438,149.613937 154.5,151.223312 154.5,152.890625 C154.5,164.445937 163.866562,173.8125 175.421875,173.8125 C186.977188,173.8125 196.34375,164.445937 196.34375,152.890625 C196.34375,151.223312 196.131312,149.613937 195.761156,148.0625 C193.578844,157.284219 185.309875,164.15625 175.421875,164.15625" id="Fill-55" fill="#F4B10B" mask="url(#mask-2)"></path>
                    <path d="M175.421875,135.1875 C165.659406,135.1875 157.71875,143.128156 157.71875,152.890625 C157.71875,162.653094 165.659406,170.59375 175.421875,170.59375 C185.184344,170.59375 193.125,162.653094 193.125,152.890625 C193.125,143.128156 185.184344,135.1875 175.421875,135.1875 M175.421875,177.03125 C162.109125,177.03125 151.28125,166.203375 151.28125,152.890625 C151.28125,139.577875 162.109125,128.75 175.421875,128.75 C188.734625,128.75 199.5625,139.577875 199.5625,152.890625 C199.5625,166.203375 188.734625,177.03125 175.421875,177.03125" id="Fill-56" fill="#663210" mask="url(#mask-2)"></path>
                    <path d="M215.65625,178.640625 C215.65625,190.195937 206.289688,199.5625 194.734375,199.5625 C183.179062,199.5625 173.8125,190.195937 173.8125,178.640625 C173.8125,167.085312 183.179062,157.71875 194.734375,157.71875 C206.289688,157.71875 215.65625,167.085312 215.65625,178.640625" id="Fill-57" fill="#FBD000" mask="url(#mask-2)"></path>
                    <path d="M194.734375,189.90625 C184.846375,189.90625 176.577406,183.034219 174.395094,173.8125 C174.024938,175.363937 173.8125,176.973312 173.8125,178.640625 C173.8125,190.195938 183.179062,199.5625 194.734375,199.5625 C206.289688,199.5625 215.65625,190.195938 215.65625,178.640625 C215.65625,176.973312 215.443812,175.363937 215.073656,173.8125 C212.891344,183.034219 204.622375,189.90625 194.734375,189.90625" id="Fill-58" fill="#F4B10B" mask="url(#mask-2)"></path>
                    <path d="M194.734375,160.9375 C184.971906,160.9375 177.03125,168.878156 177.03125,178.640625 C177.03125,188.403094 184.971906,196.34375 194.734375,196.34375 C204.496844,196.34375 212.4375,188.403094 212.4375,178.640625 C212.4375,168.878156 204.496844,160.9375 194.734375,160.9375 M194.734375,202.78125 C181.421625,202.78125 170.59375,191.953375 170.59375,178.640625 C170.59375,165.327875 181.421625,154.5 194.734375,154.5 C208.047125,154.5 218.875,165.327875 218.875,178.640625 C218.875,191.953375 208.047125,202.78125 194.734375,202.78125" id="Fill-59" fill="#663210" mask="url(#mask-2)"></path>
                    <path d="M164.15625,156.109375 C164.15625,167.664688 154.789688,177.03125 143.234375,177.03125 C131.679063,177.03125 122.3125,167.664688 122.3125,156.109375 C122.3125,144.554062 131.679063,135.1875 143.234375,135.1875 C154.789688,135.1875 164.15625,144.554062 164.15625,156.109375" id="Fill-60" fill="#FBD000" mask="url(#mask-2)"></path>
                    <path d="M143.234375,167.375 C133.346375,167.375 125.077406,160.502969 122.895094,151.28125 C122.524938,152.832687 122.3125,154.442062 122.3125,156.109375 C122.3125,167.664687 131.679063,177.03125 143.234375,177.03125 C154.789688,177.03125 164.15625,167.664687 164.15625,156.109375 C164.15625,154.442062 163.943813,152.832687 163.573656,151.28125 C161.391344,160.502969 153.122375,167.375 143.234375,167.375" id="Fill-61" fill="#F4B10B" mask="url(#mask-2)"></path>
                    <path d="M143.234375,138.40625 C133.471906,138.40625 125.53125,146.346906 125.53125,156.109375 C125.53125,165.871844 133.471906,173.8125 143.234375,173.8125 C152.996844,173.8125 160.9375,165.871844 160.9375,156.109375 C160.9375,146.346906 152.996844,138.40625 143.234375,138.40625 M143.234375,180.25 C129.921625,180.25 119.09375,169.422125 119.09375,156.109375 C119.09375,142.796625 129.921625,131.96875 143.234375,131.96875 C156.547125,131.96875 167.375,142.796625 167.375,156.109375 C167.375,169.422125 156.547125,180.25 143.234375,180.25" id="Fill-62" fill="#663210" mask="url(#mask-2)"></path>
                    <path d="M228.53125,140.015625 C228.53125,151.570938 219.164688,160.9375 207.609375,160.9375 C196.054062,160.9375 186.6875,151.570938 186.6875,140.015625 C186.6875,128.460313 196.054062,119.09375 207.609375,119.09375 C219.164688,119.09375 228.53125,128.460313 228.53125,140.015625" id="Fill-63" fill="#FBD000" mask="url(#mask-2)"></path>
                    <path d="M207.609375,151.28125 C197.721375,151.28125 189.452406,144.409219 187.270094,135.1875 C186.899938,136.738937 186.6875,138.348312 186.6875,140.015625 C186.6875,151.570937 196.054062,160.9375 207.609375,160.9375 C219.164688,160.9375 228.53125,151.570937 228.53125,140.015625 C228.53125,138.348312 228.318813,136.738937 227.948656,135.1875 C225.766344,144.409219 217.497375,151.28125 207.609375,151.28125" id="Fill-64" fill="#F4B10B" mask="url(#mask-2)"></path>
                    <path d="M207.609375,122.3125 C197.846906,122.3125 189.90625,130.253156 189.90625,140.015625 C189.90625,149.778094 197.846906,157.71875 207.609375,157.71875 C217.368625,157.71875 225.3125,149.778094 225.3125,140.015625 C225.3125,130.253156 217.368625,122.3125 207.609375,122.3125 M207.609375,164.15625 C194.296625,164.15625 183.46875,153.328375 183.46875,140.015625 C183.46875,126.702875 194.296625,115.875 207.609375,115.875 C220.922125,115.875 231.75,126.702875 231.75,140.015625 C231.75,153.328375 220.922125,164.15625 207.609375,164.15625" id="Fill-65" fill="#663210" mask="url(#mask-2)"></path>
                    <path d="M141.625,168.984375 C141.625,180.539687 132.258438,189.90625 120.703125,189.90625 C109.147813,189.90625 99.78125,180.539687 99.78125,168.984375 C99.78125,157.429062 109.147813,148.0625 120.703125,148.0625 C132.258438,148.0625 141.625,157.429062 141.625,168.984375" id="Fill-66" fill="#FBD000" mask="url(#mask-2)"></path>
                    <path d="M120.703125,180.25 C110.815125,180.25 102.546156,173.377969 100.363844,164.15625 C99.9936875,165.707687 99.78125,167.317062 99.78125,168.984375 C99.78125,180.539688 109.147813,189.90625 120.703125,189.90625 C132.258438,189.90625 141.625,180.539688 141.625,168.984375 C141.625,167.317062 141.412563,165.707687 141.042406,164.15625 C138.860094,173.377969 130.591125,180.25 120.703125,180.25" id="Fill-67" fill="#F4B10B" mask="url(#mask-2)"></path>
                    <path d="M120.703125,151.28125 C110.940656,151.28125 103,159.221906 103,168.984375 C103,178.746844 110.940656,186.6875 120.703125,186.6875 C130.465594,186.6875 138.40625,178.746844 138.40625,168.984375 C138.40625,159.221906 130.465594,151.28125 120.703125,151.28125 M120.703125,193.125 C107.390375,193.125 96.5625,182.297125 96.5625,168.984375 C96.5625,155.671625 107.390375,144.84375 120.703125,144.84375 C134.015875,144.84375 144.84375,155.671625 144.84375,168.984375 C144.84375,182.297125 134.015875,193.125 120.703125,193.125" id="Fill-68" fill="#663210" mask="url(#mask-2)"></path>
                    <path d="M247.84375,185.078125 C247.84375,196.633437 238.477188,206 226.921875,206 C215.366562,206 206,196.633437 206,185.078125 C206,173.522812 215.366562,164.15625 226.921875,164.15625 C238.477188,164.15625 247.84375,173.522812 247.84375,185.078125" id="Fill-69" fill="#FBD000" mask="url(#mask-2)"></path>
                    <path d="M226.921875,196.34375 C217.033875,196.34375 208.764906,189.471719 206.582594,180.25 C206.212438,181.801437 206,183.410812 206,185.078125 C206,196.633438 215.366562,206 226.921875,206 C238.477188,206 247.84375,196.633438 247.84375,185.078125 C247.84375,183.410812 247.631312,181.801437 247.261156,180.25 C245.078844,189.471719 236.809875,196.34375 226.921875,196.34375" id="Fill-70" fill="#F4B10B" mask="url(#mask-2)"></path>
                    <path d="M226.921875,167.375 C217.162625,167.375 209.21875,175.315656 209.21875,185.078125 C209.21875,194.840594 217.162625,202.78125 226.921875,202.78125 C236.681125,202.78125 244.625,194.840594 244.625,185.078125 C244.625,175.315656 236.681125,167.375 226.921875,167.375 M226.921875,209.21875 C213.609125,209.21875 202.78125,198.390875 202.78125,185.078125 C202.78125,171.765375 213.609125,160.9375 226.921875,160.9375 C240.234625,160.9375 251.0625,171.765375 251.0625,185.078125 C251.0625,198.390875 240.234625,209.21875 226.921875,209.21875" id="Fill-71" fill="#663210" mask="url(#mask-2)"></path>
                    <path d="M80.46875,334.75 L99.78125,334.75 L99.78125,199.5625 L80.46875,199.5625 L80.46875,334.75 Z M103,341.1875 L77.25,341.1875 C75.47325,341.1875 74.03125,339.748719 74.03125,337.96875 L74.03125,196.34375 C74.03125,194.567 75.47325,193.125 77.25,193.125 L103,193.125 C104.77675,193.125 106.21875,194.567 106.21875,196.34375 L106.21875,337.96875 C106.21875,339.748719 104.77675,341.1875 103,341.1875 L103,341.1875 Z" id="Fill-72" fill="#663210" mask="url(#mask-2)"></path>
                    <path d="M318.65625,334.75 L337.96875,334.75 L337.96875,199.5625 L318.65625,199.5625 L318.65625,334.75 Z M341.1875,341.1875 L315.4375,341.1875 C313.657531,341.1875 312.21875,339.748719 312.21875,337.96875 L312.21875,196.34375 C312.21875,194.567 313.657531,193.125 315.4375,193.125 L341.1875,193.125 C342.967469,193.125 344.40625,194.567 344.40625,196.34375 L344.40625,337.96875 C344.40625,339.748719 342.967469,341.1875 341.1875,341.1875 L341.1875,341.1875 Z" id="Fill-73" fill="#663210" mask="url(#mask-2)"></path>
                    <polygon id="Fill-74" fill="#EBEBEB" mask="url(#mask-2)" points="77.25 218.875 341.1875 218.875 341.1875 193.125 77.25 193.125"></polygon>
                    <path d="M238.1875,257.5 C238.1875,268.121875 229.496875,276.8125 218.875,276.8125 L202.78125,276.8125 C192.159375,276.8125 183.46875,268.121875 183.46875,257.5 L183.46875,244.625 C183.46875,234.003125 192.159375,225.3125 202.78125,225.3125 L218.875,225.3125 C229.496875,225.3125 238.1875,234.003125 238.1875,244.625 L238.1875,257.5 Z" id="Fill-75" fill="#993F0D" mask="url(#mask-2)"></path>
                    <path d="M80.46875,215.65625 L337.96875,215.65625 L337.96875,196.34375 L80.46875,196.34375 L80.46875,215.65625 Z M341.1875,222.09375 L77.25,222.09375 C75.47325,222.09375 74.03125,220.654969 74.03125,218.875 L74.03125,193.125 C74.03125,191.34825 75.47325,189.90625 77.25,189.90625 L341.1875,189.90625 C342.967469,189.90625 344.40625,191.34825 344.40625,193.125 L344.40625,218.875 C344.40625,220.654969 342.967469,222.09375 341.1875,222.09375 L341.1875,222.09375 Z" id="Fill-76" fill="#663210" mask="url(#mask-2)"></path>
                    <path d="M238.1875,244.625 C238.1875,255.246875 229.496875,263.9375 218.875,263.9375 L202.78125,263.9375 C192.159375,263.9375 183.46875,255.246875 183.46875,244.625 L183.46875,231.75 C183.46875,221.128125 192.159375,212.4375 202.78125,212.4375 L218.875,212.4375 C229.496875,212.4375 238.1875,221.128125 238.1875,231.75 L238.1875,244.625 Z" id="Fill-77" fill="#EBEBEB" mask="url(#mask-2)"></path>
                    <path d="M380.607853,341.1875 L34.4924469,341.1875 C32.7156969,341.1875 31.2736969,339.748719 31.2736969,337.96875 C31.2736969,336.188781 32.7156969,334.75 34.4924469,334.75 L380.607853,334.75 C382.387822,334.75 383.826603,336.188781 383.826603,337.96875 C383.826603,339.748719 382.387822,341.1875 380.607853,341.1875" id="Fill-78" fill="#663210" mask="url(#mask-2)"></path>
                    <path d="M202.78125,215.65625 C193.907156,215.65625 186.6875,222.875906 186.6875,231.75 L186.6875,244.625 C186.6875,253.499094 193.907156,260.71875 202.78125,260.71875 L218.875,260.71875 C227.749094,260.71875 234.96875,253.499094 234.96875,244.625 L234.96875,231.75 C234.96875,222.875906 227.749094,215.65625 218.875,215.65625 L202.78125,215.65625 Z M218.875,267.15625 L202.78125,267.15625 C190.356875,267.15625 180.25,257.046156 180.25,244.625 L180.25,231.75 C180.25,219.328844 190.356875,209.21875 202.78125,209.21875 L218.875,209.21875 C231.296156,209.21875 241.40625,219.328844 241.40625,231.75 L241.40625,244.625 C241.40625,257.046156 231.296156,267.15625 218.875,267.15625 L218.875,267.15625 Z" id="Fill-79" fill="#663210" mask="url(#mask-2)"></path>
                    <path d="M128.75,193.125 C128.75,198.458469 124.427219,202.78125 119.09375,202.78125 C113.760281,202.78125 109.4375,198.458469 109.4375,193.125 C109.4375,187.791531 113.760281,183.46875 119.09375,183.46875 C124.427219,183.46875 128.75,187.791531 128.75,193.125" id="Fill-80" fill="#3AD0F9" mask="url(#mask-2)"></path>
                    <path d="M119.09375,186.6875 C115.543469,186.6875 112.65625,189.574719 112.65625,193.125 C112.65625,196.675281 115.543469,199.5625 119.09375,199.5625 C122.644031,199.5625 125.53125,196.675281 125.53125,193.125 C125.53125,189.574719 122.644031,186.6875 119.09375,186.6875 M119.09375,206 C111.993188,206 106.21875,200.225563 106.21875,193.125 C106.21875,186.024438 111.993188,180.25 119.09375,180.25 C126.194313,180.25 131.96875,186.024438 131.96875,193.125 C131.96875,200.225563 126.194313,206 119.09375,206" id="Fill-81" fill="#663210" mask="url(#mask-2)"></path>
                    <path d="M122.3125,215.65625 C122.3125,220.989719 117.989719,225.3125 112.65625,225.3125 C107.322781,225.3125 103,220.989719 103,215.65625 C103,210.322781 107.322781,206 112.65625,206 C117.989719,206 122.3125,210.322781 122.3125,215.65625" id="Fill-82" fill="#3AD0F9" mask="url(#mask-2)"></path>
                    <path d="M112.65625,209.21875 C109.105969,209.21875 106.21875,212.105969 106.21875,215.65625 C106.21875,219.203312 109.105969,222.09375 112.65625,222.09375 C116.206531,222.09375 119.09375,219.203312 119.09375,215.65625 C119.09375,212.105969 116.206531,209.21875 112.65625,209.21875 M112.65625,228.53125 C105.555687,228.53125 99.78125,222.756813 99.78125,215.65625 C99.78125,208.555688 105.555687,202.78125 112.65625,202.78125 C119.756813,202.78125 125.53125,208.555688 125.53125,215.65625 C125.53125,222.756813 119.756813,228.53125 112.65625,228.53125" id="Fill-83" fill="#663210" mask="url(#mask-2)"></path>
                    <path d="M131.96875,234.96875 C131.96875,240.302219 127.645969,244.625 122.3125,244.625 C116.979031,244.625 112.65625,240.302219 112.65625,234.96875 C112.65625,229.635281 116.979031,225.3125 122.3125,225.3125 C127.645969,225.3125 131.96875,229.635281 131.96875,234.96875" id="Fill-84" fill="#3AD0F9" mask="url(#mask-2)"></path>
                    <path d="M122.3125,228.53125 C118.762219,228.53125 115.875,231.418469 115.875,234.96875 C115.875,238.515812 118.762219,241.40625 122.3125,241.40625 C125.862781,241.40625 128.75,238.515812 128.75,234.96875 C128.75,231.418469 125.862781,228.53125 122.3125,228.53125 M122.3125,247.84375 C115.211938,247.84375 109.4375,242.069313 109.4375,234.96875 C109.4375,227.868188 115.211938,222.09375 122.3125,222.09375 C129.413063,222.09375 135.1875,227.868188 135.1875,234.96875 C135.1875,242.069313 129.413063,247.84375 122.3125,247.84375" id="Fill-85" fill="#663210" mask="url(#mask-2)"></path>
                    <path d="M135.1875,257.5 C135.1875,262.833469 130.864719,267.15625 125.53125,267.15625 C120.197781,267.15625 115.875,262.833469 115.875,257.5 C115.875,252.166531 120.197781,247.84375 125.53125,247.84375 C130.864719,247.84375 135.1875,252.166531 135.1875,257.5" id="Fill-86" fill="#3AD0F9" mask="url(#mask-2)"></path>
                    <path d="M125.53125,251.0625 C121.980969,251.0625 119.09375,253.949719 119.09375,257.5 C119.09375,261.047063 121.980969,263.9375 125.53125,263.9375 C129.081531,263.9375 131.96875,261.047063 131.96875,257.5 C131.96875,253.949719 129.081531,251.0625 125.53125,251.0625 M125.53125,270.375 C118.430688,270.375 112.65625,264.600563 112.65625,257.5 C112.65625,250.399438 118.430688,244.625 125.53125,244.625 C132.631813,244.625 138.40625,250.399438 138.40625,257.5 C138.40625,264.600563 132.631813,270.375 125.53125,270.375" id="Fill-87" fill="#663210" mask="url(#mask-2)"></path>
                    <path d="M144.84375,276.8125 C144.84375,282.145969 140.520969,286.46875 135.1875,286.46875 C129.854031,286.46875 125.53125,282.145969 125.53125,276.8125 C125.53125,271.479031 129.854031,267.15625 135.1875,267.15625 C140.520969,267.15625 144.84375,271.479031 144.84375,276.8125" id="Fill-88" fill="#3AD0F9" mask="url(#mask-2)"></path>
                    <path d="M135.1875,270.375 C131.637219,270.375 128.75,273.262219 128.75,276.8125 C128.75,280.359562 131.637219,283.25 135.1875,283.25 C138.737781,283.25 141.625,280.359562 141.625,276.8125 C141.625,273.262219 138.737781,270.375 135.1875,270.375 M135.1875,289.6875 C128.086937,289.6875 122.3125,283.913062 122.3125,276.8125 C122.3125,269.711937 128.086937,263.9375 135.1875,263.9375 C142.288062,263.9375 148.0625,269.711937 148.0625,276.8125 C148.0625,283.913062 142.288062,289.6875 135.1875,289.6875" id="Fill-89" fill="#663210" mask="url(#mask-2)"></path>
                    <path d="M164.15625,286.46875 C164.15625,291.802219 159.833469,296.125 154.5,296.125 C149.166531,296.125 144.84375,291.802219 144.84375,286.46875 C144.84375,281.135281 149.166531,276.8125 154.5,276.8125 C159.833469,276.8125 164.15625,281.135281 164.15625,286.46875" id="Fill-90" fill="#3AD0F9" mask="url(#mask-2)"></path>
                    <path d="M154.5,280.03125 C150.949719,280.03125 148.0625,282.918469 148.0625,286.46875 C148.0625,290.015812 150.949719,292.90625 154.5,292.90625 C158.050281,292.90625 160.9375,290.015812 160.9375,286.46875 C160.9375,282.918469 158.050281,280.03125 154.5,280.03125 M154.5,299.34375 C147.399437,299.34375 141.625,293.569312 141.625,286.46875 C141.625,279.368187 147.399437,273.59375 154.5,273.59375 C161.600562,273.59375 167.375,279.368187 167.375,286.46875 C167.375,293.569312 161.600562,299.34375 154.5,299.34375" id="Fill-91" fill="#663210" mask="url(#mask-2)"></path>
                    <path d="M173.8125,267.15625 C173.8125,272.489719 169.489719,276.8125 164.15625,276.8125 C158.822781,276.8125 154.5,272.489719 154.5,267.15625 C154.5,261.822781 158.822781,257.5 164.15625,257.5 C169.489719,257.5 173.8125,261.822781 173.8125,267.15625" id="Fill-92" fill="#3AD0F9" mask="url(#mask-2)"></path>
                    <path d="M164.15625,260.71875 C160.605969,260.71875 157.71875,263.605969 157.71875,267.15625 C157.71875,270.703312 160.605969,273.59375 164.15625,273.59375 C167.706531,273.59375 170.59375,270.703312 170.59375,267.15625 C170.59375,263.605969 167.706531,260.71875 164.15625,260.71875 M164.15625,280.03125 C157.055687,280.03125 151.28125,274.256813 151.28125,267.15625 C151.28125,260.055687 157.055687,254.28125 164.15625,254.28125 C171.256812,254.28125 177.03125,260.055687 177.03125,267.15625 C177.03125,274.256813 171.256812,280.03125 164.15625,280.03125" id="Fill-93" fill="#663210" mask="url(#mask-2)"></path>
                    <path d="M173.8125,244.625 C173.8125,249.958469 169.489719,254.28125 164.15625,254.28125 C158.822781,254.28125 154.5,249.958469 154.5,244.625 C154.5,239.291531 158.822781,234.96875 164.15625,234.96875 C169.489719,234.96875 173.8125,239.291531 173.8125,244.625" id="Fill-94" fill="#3AD0F9" mask="url(#mask-2)"></path>
                    <path d="M164.15625,238.1875 C160.605969,238.1875 157.71875,241.074719 157.71875,244.625 C157.71875,248.172063 160.605969,251.0625 164.15625,251.0625 C167.706531,251.0625 170.59375,248.172063 170.59375,244.625 C170.59375,241.074719 167.706531,238.1875 164.15625,238.1875 M164.15625,257.5 C157.055687,257.5 151.28125,251.725563 151.28125,244.625 C151.28125,237.524438 157.055687,231.75 164.15625,231.75 C171.256812,231.75 177.03125,237.524438 177.03125,244.625 C177.03125,251.725563 171.256812,257.5 164.15625,257.5" id="Fill-95" fill="#663210" mask="url(#mask-2)"></path>
                    <path d="M177.03125,222.09375 C177.03125,227.427219 172.708469,231.75 167.375,231.75 C162.041531,231.75 157.71875,227.427219 157.71875,222.09375 C157.71875,216.760281 162.041531,212.4375 167.375,212.4375 C172.708469,212.4375 177.03125,216.760281 177.03125,222.09375" id="Fill-96" fill="#3AD0F9" mask="url(#mask-2)"></path>
                    <path d="M167.375,215.65625 C163.824719,215.65625 160.9375,218.543469 160.9375,222.09375 C160.9375,225.640812 163.824719,228.53125 167.375,228.53125 C170.925281,228.53125 173.8125,225.640812 173.8125,222.09375 C173.8125,218.543469 170.925281,215.65625 167.375,215.65625 M167.375,234.96875 C160.274437,234.96875 154.5,229.194313 154.5,222.09375 C154.5,214.993188 160.274437,209.21875 167.375,209.21875 C174.475562,209.21875 180.25,214.993188 180.25,222.09375 C180.25,229.194313 174.475562,234.96875 167.375,234.96875" id="Fill-97" fill="#663210" mask="url(#mask-2)"></path>
                    <path d="M183.46875,199.5625 C183.46875,204.895969 179.14275,209.21875 173.8125,209.21875 C168.479031,209.21875 164.15625,204.895969 164.15625,199.5625 C164.15625,194.229031 168.479031,189.90625 173.8125,189.90625 C179.14275,189.90625 183.46875,194.229031 183.46875,199.5625" id="Fill-98" fill="#3AD0F9" mask="url(#mask-2)"></path>
                    <path d="M173.8125,193.125 C170.262219,193.125 167.375,196.012219 167.375,199.5625 C167.375,203.112781 170.262219,206 173.8125,206 C177.362781,206 180.25,203.112781 180.25,199.5625 C180.25,196.012219 177.362781,193.125 173.8125,193.125 M173.8125,212.4375 C166.711937,212.4375 160.9375,206.663063 160.9375,199.5625 C160.9375,192.461938 166.711937,186.6875 173.8125,186.6875 C180.913062,186.6875 186.6875,192.461938 186.6875,199.5625 C186.6875,206.663063 180.913062,212.4375 173.8125,212.4375" id="Fill-99" fill="#663210" mask="url(#mask-2)"></path>
                    <path d="M199.5625,183.46875 C199.5625,188.802219 195.2365,193.125 189.90625,193.125 C184.576,193.125 180.25,188.802219 180.25,183.46875 C180.25,178.135281 184.576,173.8125 189.90625,173.8125 C195.2365,173.8125 199.5625,178.135281 199.5625,183.46875" id="Fill-100" fill="#3AD0F9" mask="url(#mask-2)"></path>
                    <path d="M189.90625,177.03125 C186.355969,177.03125 183.46875,179.918469 183.46875,183.46875 C183.46875,187.019031 186.355969,189.90625 189.90625,189.90625 C193.456531,189.90625 196.34375,187.019031 196.34375,183.46875 C196.34375,179.918469 193.456531,177.03125 189.90625,177.03125 M189.90625,196.34375 C182.805688,196.34375 177.03125,190.569313 177.03125,183.46875 C177.03125,176.368188 182.805688,170.59375 189.90625,170.59375 C197.006813,170.59375 202.78125,176.368188 202.78125,183.46875 C202.78125,190.569313 197.006813,196.34375 189.90625,196.34375" id="Fill-101" fill="#663210" mask="url(#mask-2)"></path>
                    <path d="M218.875,233.359375 C218.875,237.804469 215.273219,241.40625 210.828125,241.40625 C206.383031,241.40625 202.78125,237.804469 202.78125,233.359375 C202.78125,228.914281 206.383031,225.3125 210.828125,225.3125 C215.273219,225.3125 218.875,228.914281 218.875,233.359375" id="Fill-102" fill="#663210" mask="url(#mask-2)"></path>
                    <polygon id="Fill-103" fill="#663210" mask="url(#mask-2)" points="215.65625 254.28125 206 254.28125 209.21875 238.1875 212.4375 238.1875"></polygon>
                    <path d="M299.34375,299.34375 L183.46875,299.34375 C181.692,299.34375 180.25,297.904969 180.25,296.125 C180.25,294.345031 181.692,292.90625 183.46875,292.90625 L299.34375,292.90625 C301.123719,292.90625 302.5625,294.345031 302.5625,296.125 C302.5625,297.904969 301.123719,299.34375 299.34375,299.34375" id="Fill-104" fill="#FFFFFF" mask="url(#mask-2)"></path>
                    <path d="M299.34375,328.3125 L270.375,328.3125 C268.595031,328.3125 267.15625,326.873719 267.15625,325.09375 C267.15625,323.313781 268.595031,321.875 270.375,321.875 L299.34375,321.875 C301.123719,321.875 302.5625,323.313781 302.5625,325.09375 C302.5625,326.873719 301.123719,328.3125 299.34375,328.3125" id="Fill-105" fill="#FFFFFF" mask="url(#mask-2)"></path>
                    <path d="M241.40625,328.3125 L115.875,328.3125 C114.09825,328.3125 112.65625,326.873719 112.65625,325.09375 C112.65625,323.313781 114.09825,321.875 115.875,321.875 L241.40625,321.875 C243.186219,321.875 244.625,323.313781 244.625,325.09375 C244.625,326.873719 243.186219,328.3125 241.40625,328.3125" id="Fill-106" fill="#FFFFFF" mask="url(#mask-2)"></path>
                    <path d="M299.34375,270.375 L254.28125,270.375 C252.501281,270.375 251.0625,268.936219 251.0625,267.15625 C251.0625,265.376281 252.501281,263.9375 254.28125,263.9375 L299.34375,263.9375 C301.123719,263.9375 302.5625,265.376281 302.5625,267.15625 C302.5625,268.936219 301.123719,270.375 299.34375,270.375" id="Fill-107" fill="#FFFFFF" mask="url(#mask-2)"></path>
                    <path d="M299.34375,244.625 L254.28125,244.625 C252.501281,244.625 251.0625,243.186219 251.0625,241.40625 C251.0625,239.626281 252.501281,238.1875 254.28125,238.1875 L299.34375,238.1875 C301.123719,238.1875 302.5625,239.626281 302.5625,241.40625 C302.5625,243.186219 301.123719,244.625 299.34375,244.625" id="Fill-108" fill="#FFFFFF" mask="url(#mask-2)"></path>
                    <path d="M309,96.5625 L273.59375,96.5625 C271.813781,96.5625 270.375,95.1205 270.375,93.34375 C270.375,91.567 271.813781,90.125 273.59375,90.125 L309,90.125 C310.779969,90.125 312.21875,91.567 312.21875,93.34375 C312.21875,95.1205 310.779969,96.5625 309,96.5625" id="Fill-109" fill="#FFFFFF" mask="url(#mask-2)"></path>
                    <path d="M247.84375,96.5625 L128.75,96.5625 C126.97325,96.5625 125.53125,95.1205 125.53125,93.34375 C125.53125,91.567 126.97325,90.125 128.75,90.125 L247.84375,90.125 C249.623719,90.125 251.0625,91.567 251.0625,93.34375 C251.0625,95.1205 249.623719,96.5625 247.84375,96.5625" id="Fill-110" fill="#FFFFFF" mask="url(#mask-2)"></path>
                    <path d="M359.186106,41.0516156 C358.362106,41.0516156 357.538106,40.7361781 356.91045,40.1085219 C355.651919,38.8499906 355.651919,36.8125219 356.91045,35.5572094 L377.394575,15.0763031 C378.653106,13.8177719 380.690575,13.8177719 381.945888,15.0763031 C383.204419,16.3316156 383.204419,18.3723031 381.945888,19.6276156 L361.461763,40.1085219 C360.834106,40.7361781 360.010106,41.0516156 359.186106,41.0516156" id="Fill-111" fill="#A03513" mask="url(#mask-2)"></path>
                    <path d="M342.309556,31.3010562 C342.100337,31.3010562 341.8879,31.2817437 341.675462,31.2366812 C339.934119,30.8890562 338.801119,29.192775 339.151962,27.4514312 L343.255869,6.9254625 C343.600275,5.1809 345.306212,4.05111875 347.044337,4.4019625 C348.785681,4.7495875 349.915462,6.44586875 349.567837,8.1872125 L345.460712,28.7131812 C345.15815,30.2420875 343.812712,31.3010562 342.309556,31.3010562" id="Fill-112" fill="#A03513" mask="url(#mask-2)"></path>
                    <path d="M368.939884,57.9375 C367.436728,57.9375 366.091291,56.8785312 365.788728,55.349625 C365.437884,53.6082812 366.570884,51.912 368.312228,51.564375 L388.838197,47.45725 C390.602072,47.109625 392.279041,48.2394062 392.623447,49.98075 C392.974291,51.7253125 391.841291,53.4215937 390.099947,53.7692187 L369.573978,57.873125 C369.361541,57.9181875 369.145884,57.9375 368.939884,57.9375" id="Fill-113" fill="#A03513" mask="url(#mask-2)"></path>
                    <path d="M217.667969,140.419578 C216.345062,140.419578 215.105844,139.598797 214.639125,138.282328 C213.473937,135.024953 211.594187,133.084047 209.051375,132.511109 C205.890562,131.806203 202.790906,133.290047 201.838156,134.242797 C200.579625,135.501328 198.545375,135.501328 197.286844,134.242797 C196.028312,132.987484 196.028312,130.950016 197.286844,129.691484 C199.890812,127.084297 205.266125,125.059703 210.464406,126.231328 C213.789375,126.981297 218.263437,129.302016 220.696812,136.116109 C221.298719,137.789859 220.423219,139.630984 218.749469,140.229672 C218.395406,140.358422 218.02525,140.419578 217.667969,140.419578" id="Fill-114" fill="#FFFFFF" mask="url(#mask-2)"></path>
                    <path d="M292.500687,160.9375 C290.843031,160.9375 289.436437,159.666094 289.298031,157.985906 C288.99225,154.390563 287.238031,150.119281 280.990437,150.473344 C279.197594,150.489438 277.700875,149.189063 277.620406,147.409094 C277.536719,145.635563 278.904687,144.125969 280.681437,144.042281 C290.907406,143.594875 295.169031,150.959375 295.709781,157.451594 C295.857844,159.221906 294.544594,160.779781 292.771062,160.927844 C292.680937,160.934281 292.587594,160.9375 292.500687,160.9375" id="Fill-115" fill="#FFFFFF" mask="url(#mask-2)"></path>
                    <path d="M258.707031,140.419578 C257.416312,140.419578 256.196406,139.634203 255.700719,138.353141 C254.709344,135.774922 252.063531,134.464891 247.84375,134.464891 C246.063781,134.464891 244.625,133.022891 244.625,131.246141 C244.625,129.469391 246.063781,128.027391 247.84375,128.027391 C254.79625,128.027391 259.720937,130.875984 261.713344,136.045297 C262.350656,137.702953 261.520219,139.563391 259.862562,140.203922 C259.48275,140.348766 259.090062,140.419578 258.707031,140.419578" id="Fill-116" fill="#FFFFFF" mask="url(#mask-2)"></path>
                    <path d="M153.209603,156.110984 C151.783697,156.110984 150.483322,155.158234 150.100291,153.716234 C148.423322,147.397828 141.943978,147.948234 141.206884,148.038359 C139.433353,148.234703 137.849728,146.982609 137.637291,145.231609 C137.421634,143.474172 138.657634,141.877672 140.408634,141.652359 C144.815103,141.082641 153.792197,142.537516 156.322134,152.065016 C156.779197,153.783828 155.752416,155.547703 154.036822,156.001547 C153.760009,156.075578 153.479978,156.107766 153.209603,156.110984" id="Fill-117" fill="#FFFFFF" mask="url(#mask-2)"></path>
                    <path d="M131.96875,169.790672 C130.632969,169.790672 129.384094,168.953797 128.927031,167.621234 C127.272594,162.828516 124.143969,161.428359 121.810375,161.096828 C118.427469,160.617234 114.751656,162.139703 112.871906,164.804828 C111.845125,166.256484 109.836625,166.604109 108.384969,165.577328 C106.933313,164.553766 106.588906,162.545266 107.612469,161.093609 C110.882719,156.461828 116.940406,153.893266 122.718063,154.723703 C128.444219,155.538047 132.924719,159.474578 135.010469,165.519391 C135.589844,167.202797 134.69825,169.034266 133.018063,169.613641 C132.670438,169.732734 132.316375,169.790672 131.96875,169.790672" id="Fill-118" fill="#FFFFFF" mask="url(#mask-2)"></path>
                    <path d="M327.10225,187.492188 C325.599094,187.492188 324.253656,186.433219 323.947875,184.904313 C323.088469,180.594406 318.073656,179.174938 315.759375,179.429219 C313.96975,179.625563 312.411875,178.315531 312.234844,176.548438 C312.057813,174.778125 313.348531,173.200938 315.115625,173.023906 C320.223781,172.521781 328.640813,175.524875 330.259844,183.642563 C330.610688,185.383906 329.477688,187.080188 327.736344,187.427813 C327.523906,187.472875 327.30825,187.492188 327.10225,187.492188" id="Fill-119" fill="#FFFFFF" mask="url(#mask-2)"></path>
                    <path d="M236.578125,185.480469 C234.798156,185.480469 233.359375,184.038469 233.359375,182.261719 C233.359375,180.697406 232.091187,179.454969 231.338,178.853063 C229.361687,177.282313 226.455156,176.471188 224.427344,176.950781 C222.705312,177.346688 220.967187,176.268406 220.564844,174.536719 C220.165719,172.801813 221.247219,171.076563 222.978906,170.674219 C226.928312,169.772969 231.8015,170.992875 235.345344,173.815719 C238.216469,176.097813 239.796875,179.100906 239.796875,182.261719 C239.796875,184.038469 238.358094,185.480469 236.578125,185.480469" id="Fill-120" fill="#FFFFFF" mask="url(#mask-2)"></path>
                    <path d="M314.029297,90.125 C314.029297,101.680313 304.662734,111.046875 293.107422,111.046875 C281.552109,111.046875 272.185547,101.680313 272.185547,90.125 C272.185547,78.5696875 281.552109,69.203125 293.107422,69.203125 C304.662734,69.203125 314.029297,78.5696875 314.029297,90.125" id="Fill-121" fill="#FBD000" mask="url(#mask-2)"></path>
                    <path d="M293.107422,101.390625 C283.219422,101.390625 274.950453,94.5185937 272.768141,85.296875 C272.397984,86.8483125 272.185547,88.4576875 272.185547,90.125 C272.185547,101.680313 281.552109,111.046875 293.107422,111.046875 C304.662734,111.046875 314.029297,101.680313 314.029297,90.125 C314.029297,88.4576875 313.816859,86.8483125 313.446703,85.296875 C311.264391,94.5185937 302.995422,101.390625 293.107422,101.390625" id="Fill-122" fill="#F4B10B" mask="url(#mask-2)"></path>
                    <path d="M292.90625,71.0136719 C282.258625,71.0136719 273.59375,79.6334844 273.59375,90.2263906 C273.59375,100.819297 282.258625,109.439109 292.90625,109.439109 C303.553875,109.439109 312.21875,100.819297 312.21875,90.2263906 C312.21875,79.6334844 303.553875,71.0136719 292.90625,71.0136719 M293.105812,115.673828 C279.017344,115.673828 267.558594,104.211859 267.558594,90.1233906 C267.558594,76.0381406 279.017344,64.5761719 293.105812,64.5761719 C307.194281,64.5761719 318.65625,76.0381406 318.65625,90.1233906 C318.65625,104.211859 307.194281,115.673828 293.105812,115.673828" id="Fill-123" fill="#663210" mask="url(#mask-2)"></path>
                    <path d="M196.758647,137.202438 C196.758647,135.943906 195.326303,134.69825 193.578522,134.431094 L187.585209,133.523406 C185.837428,133.25625 184.189428,131.60825 183.925491,129.85725 L183.021022,123.876813 C182.757084,122.125813 181.511428,120.693469 180.252897,120.693469 C178.994366,120.693469 177.748709,122.125813 177.484772,123.873594 L176.577084,129.860469 C176.313147,131.60825 174.665147,133.25625 172.914147,133.520188 L166.924053,134.434313 C165.173053,134.69825 163.740709,135.943906 163.740709,137.202438 C163.740709,138.460969 165.173053,139.706625 166.924053,139.970563 L172.914147,140.87825 C174.665147,141.142188 176.313147,142.790188 176.577084,144.537969 L177.484772,150.524844 C177.748709,152.272625 178.994366,153.704969 180.252897,153.704969 C181.511428,153.704969 182.740991,152.272625 182.988834,150.518406 L183.957678,143.60775 C184.205522,141.853531 185.850303,140.31175 187.614178,140.179781 L193.549553,139.732375 C195.313428,139.600406 196.758647,138.460969 196.758647,137.202438" id="Fill-125" fill="#FFFFFF" mask="url(#mask-2)"></path>
                </g>
            </g>
        </g>
    </g>
</svg>