<?xml version="1.0" encoding="utf-8"?>
<!-- Generator: Adobe Illustrator 19.0.0, SVG Export Plug-In . SVG Version: 6.00 Build 0)  -->
<svg version="1.1" id="Layer_1" xmlns="http://www.w3.org/2000/svg" xmlns:xlink="http://www.w3.org/1999/xlink" x="0px" y="0px"
	 viewBox="-438 461 122 80" style="enable-background:new -438 461 122 80;" xml:space="preserve">
<style type="text/css">
	.st0{enable-background:new    ;}
	.st1{fill:#1C84F8;}
	.st2{fill:#FFFFFF;}
</style>
<title>Group</title>
<desc>Created with Sketch.</desc>
<g id="Page-1">
	<g id="Tablet-Portrait" transform="translate(-141.000000, -161.000000)">
		<g id="Group" transform="translate(141.000000, 161.000000)">
			<g class="st0">
				<path class="st1" d="M-349.4,524.9c0.7,0.4,1.3,0.9,1.6,1.5c0.4,0.6,0.6,1.4,0.6,2.2s-0.2,1.5-0.6,2.1c-0.4,0.6-1,1-1.7,1.3
					c0.9,0.2,1.6,0.7,2.1,1.4s0.7,1.5,0.7,2.4c0,0.8-0.2,1.6-0.6,2.2c-0.4,0.6-1,1.1-1.7,1.5c-0.7,0.4-1.6,0.5-2.5,0.5h-5.5v-15.6
					h5.1C-351,524.4-350.1,524.6-349.4,524.9z M-350.1,530.5c0.5-0.5,0.7-1.1,0.7-1.8s-0.3-1.3-0.8-1.8c-0.5-0.4-1.2-0.7-2.1-0.7
					h-2.6v4.9h2.7C-351.3,531.2-350.6,531-350.1,530.5z M-349.7,537.4c0.5-0.4,0.8-1.1,0.8-1.8c0-0.8-0.2-1.4-0.7-1.9
					s-1.2-0.7-2.1-0.7h-3.1v5h3C-351,538.1-350.3,537.9-349.7,537.4z"/>
				<path class="st1" d="M-336.4,539.4c-0.9,0.6-1.9,0.9-3,0.9c-1,0-1.9-0.2-2.7-0.7s-1.5-1.1-1.9-2c-0.5-0.9-0.7-1.9-0.7-3
					c0-1.1,0.2-2,0.7-2.9c0.5-0.9,1.1-1.5,1.9-2s1.6-0.7,2.5-0.7c1.6,0,2.8,0.5,3.7,1.5c0.9,1,1.3,2.4,1.3,4c0,0.2,0,0.5,0,0.7h-8
					c0,0.9,0.3,1.7,0.9,2.3c0.6,0.6,1.3,0.9,2.3,0.9c0.8,0,1.5-0.2,1.9-0.6c0.5-0.4,0.8-0.9,1-1.6l1.8,0.6
					C-335,538-335.5,538.8-336.4,539.4z M-337.6,531.7c-0.5-0.5-1.2-0.8-2.1-0.8c-0.5,0-1,0.1-1.5,0.4c-0.4,0.3-0.8,0.6-1,1
					c-0.2,0.4-0.4,0.9-0.4,1.3h5.8C-336.8,532.8-337.1,532.2-337.6,531.7z"/>
				<path class="st1" d="M-326.9,529.4v1.9h-2.3v5.5c0,0.5,0.1,0.9,0.3,1.1c0.2,0.2,0.6,0.4,1.1,0.4c0.4,0,0.7,0,0.8-0.1v1.8
					c-0.4,0.1-0.8,0.2-1.4,0.2c-0.9,0-1.6-0.3-2.2-0.8c-0.5-0.5-0.8-1.3-0.8-2.2v-5.8h-2v-1.9h0.6c0.5,0,0.9-0.1,1.2-0.4
					c0.3-0.3,0.4-0.7,0.4-1.2v-1.7h1.9v3.3H-326.9z"/>
				<path class="st1" d="M-323.9,535c0.6-0.5,1.4-0.9,2.3-1l2.9-0.4c0.5-0.1,0.8-0.3,0.8-0.8c0-0.6-0.2-1-0.6-1.4
					c-0.4-0.4-1-0.5-1.7-0.5c-0.7,0-1.3,0.2-1.7,0.6c-0.4,0.4-0.6,0.9-0.7,1.6l-2-0.5c0.1-1,0.6-1.8,1.4-2.5s1.8-1,2.9-1
					c1.5,0,2.6,0.4,3.3,1.1c0.7,0.7,1.1,1.7,1.1,2.8v5.3c0,0.8,0,1.4,0.1,1.7h-2c-0.1-0.3-0.1-0.8-0.1-1.4c-0.3,0.5-0.7,0.9-1.3,1.2
					c-0.6,0.4-1.3,0.5-2.1,0.5c-0.7,0-1.3-0.1-1.8-0.4c-0.5-0.3-1-0.7-1.3-1.2c-0.3-0.5-0.4-1-0.4-1.6
					C-324.8,536.3-324.5,535.5-323.9,535z M-318.8,537.8c0.6-0.5,0.8-1.3,0.8-2.4V535l-3.2,0.5c-0.5,0.1-0.8,0.3-1.1,0.5
					c-0.3,0.3-0.4,0.6-0.4,1.1c0,0.4,0.2,0.8,0.5,1.1c0.3,0.3,0.7,0.5,1.2,0.5C-320.1,538.6-319.3,538.3-318.8,537.8z"/>
			</g>
			<g id="Group-2">
				<circle id="Oval-6" class="st1" cx="-398" cy="501" r="40"/>
				<g class="st0">
					<path class="st2" d="M-402.5,516h-3.9v-28.4h10.3c1.7,0,3.2,0.4,4.6,1.1c1.3,0.7,2.4,1.7,3.1,3c0.7,1.3,1.1,2.7,1.1,4.3
						c0,1.6-0.4,3-1.1,4.3c-0.7,1.3-1.8,2.3-3.1,3c-1.3,0.7-2.9,1.1-4.6,1.1h-6.4V516z M-392.8,499.6c1-0.9,1.5-2,1.5-3.5
						c0-1.5-0.5-2.7-1.5-3.6c-1-0.9-2.3-1.3-4-1.3h-5.7v9.7h5.7C-395.1,500.9-393.8,500.4-392.8,499.6z"/>
				</g>
			</g>
		</g>
	</g>
</g>
</svg>
