<?xml version="1.0" encoding="UTF-8"?>
<svg width="335px" height="335px" viewBox="0 0 335 335" version="1.1" xmlns="http://www.w3.org/2000/svg" xmlns:xlink="http://www.w3.org/1999/xlink">
    <!-- Generator: Sketch 3.8.1 (29687) - http://www.bohemiancoding.com/sketch -->
    <title>Group 12</title>
    <desc>Created with Sketch.</desc>
    <defs>
        <polygon id="path-1" points="0 263 263 263 263 0 0 0"></polygon>
    </defs>
    <g id="Page-1" stroke="none" stroke-width="1" fill="none" fill-rule="evenodd">
        <g id="Desktop-HD" transform="translate(277.000000, -52.000000) scale(1, -1) translate(-277.000000, 52.000000) translate(-443.000000, -564.000000)">
            <g id="Group-12" transform="translate(443.000000, 125.000000)">
                <circle id="Oval-139" fill="#6AE5E1" cx="167.5" cy="167.5" r="167.5"></circle>
                <g id="Page-1" transform="translate(167.500000, 167.500000) scale(1, -1) translate(-167.500000, -167.500000) translate(36.000000, 36.000000)">
                    <path d="M184.921875,248.617188 C184.921875,255.426422 179.40093,260.945313 172.59375,260.945313 L76.0234375,260.945313 C69.2142031,260.945313 63.6953125,255.426422 63.6953125,248.617188 L63.6953125,47.2578125 C63.6953125,40.4506328 69.2142031,34.9296875 76.0234375,34.9296875 L172.59375,34.9296875 C179.40093,34.9296875 184.921875,40.4506328 184.921875,47.2578125 L184.921875,248.617188 Z" id="Fill-3" fill="#324D5B"></path>
                    <path d="M76.0234375,36.984375 C70.3586641,36.984375 65.75,41.5930391 65.75,47.2578125 L65.75,248.617188 C65.75,254.281961 70.3586641,258.890625 76.0234375,258.890625 L172.59375,258.890625 C178.258523,258.890625 182.867188,254.281961 182.867188,248.617188 L182.867188,47.2578125 C182.867188,41.5930391 178.258523,36.984375 172.59375,36.984375 L76.0234375,36.984375 Z M172.59375,263 L76.0234375,263 C68.0923438,263 61.640625,256.546227 61.640625,248.617188 L61.640625,47.2578125 C61.640625,39.3267188 68.0923438,32.875 76.0234375,32.875 L172.59375,32.875 C180.522789,32.875 186.976563,39.3267188 186.976563,47.2578125 L186.976563,248.617188 C186.976563,256.546227 180.522789,263 172.59375,263 L172.59375,263 Z" id="Fill-5" fill="#233E49"></path>
                    <path d="M197.25,248.617188 C197.25,255.426422 191.729055,260.945313 184.921875,260.945313 L88.3515625,260.945313 C81.5423281,260.945313 76.0234375,255.426422 76.0234375,248.617188 L76.0234375,47.2578125 C76.0234375,40.4506328 81.5423281,34.9296875 88.3515625,34.9296875 L184.921875,34.9296875 C191.729055,34.9296875 197.25,40.4506328 197.25,47.2578125 L197.25,248.617188 Z" id="Fill-7" fill="#415E6D"></path>
                    <path d="M182.867188,219.851562 C182.867188,224.390367 179.187242,228.070312 174.648438,228.070312 L100.679688,228.070312 C96.1408828,228.070312 92.4609375,224.390367 92.4609375,219.851562 L92.4609375,67.8046875 C92.4609375,63.2658828 96.1408828,59.5859375 100.679688,59.5859375 L174.648438,59.5859375 C179.187242,59.5859375 182.867188,63.2658828 182.867188,67.8046875 L182.867188,219.851562 Z" id="Fill-9" fill="#EBEBEB"></path>
                    <path d="M149.992188,51.3671875 L127.390625,51.3671875 C126.256438,51.3671875 125.335938,50.4466875 125.335938,49.3125 C125.335938,48.1783125 126.256438,47.2578125 127.390625,47.2578125 L149.992188,47.2578125 C151.12843,47.2578125 152.046875,48.1783125 152.046875,49.3125 C152.046875,50.4466875 151.12843,51.3671875 149.992188,51.3671875" id="Fill-11" fill="#233E49"></path>
                    <path d="M108.898438,51.3671875 L92.4609375,51.3671875 C91.32675,51.3671875 90.40625,50.4466875 90.40625,49.3125 C90.40625,48.1783125 91.32675,47.2578125 92.4609375,47.2578125 L108.898438,47.2578125 C110.032625,47.2578125 110.953125,48.1783125 110.953125,49.3125 C110.953125,50.4466875 110.032625,51.3671875 108.898438,51.3671875" id="Fill-13" fill="#233E49"></path>
                    <path d="M88.3515625,36.984375 C82.6867891,36.984375 78.078125,41.5930391 78.078125,47.2578125 L78.078125,248.617188 C78.078125,254.281961 82.6867891,258.890625 88.3515625,258.890625 L184.921875,258.890625 C190.586648,258.890625 195.195313,254.281961 195.195313,248.617188 L195.195313,47.2578125 C195.195313,41.5930391 190.586648,36.984375 184.921875,36.984375 L88.3515625,36.984375 Z M184.921875,263 L88.3515625,263 C80.4204687,263 73.96875,256.546227 73.96875,248.617188 L73.96875,47.2578125 C73.96875,39.3267188 80.4204687,32.875 88.3515625,32.875 L184.921875,32.875 C192.850914,32.875 199.304688,39.3267188 199.304688,47.2578125 L199.304688,248.617188 C199.304688,256.546227 192.850914,263 184.921875,263 L184.921875,263 Z" id="Fill-15" fill="#233E49"></path>
                    <mask id="mask-2" fill="white">
                        <use xlink:href="#path-1"></use>
                    </mask>
                    <g id="Clip-18"></g>
                    <path d="M131.489727,248.617187 L141.783711,248.617187 L141.783711,238.34375 L131.489727,238.34375 L131.489727,248.617187 Z M143.834289,252.726562 L129.439148,252.726562 C128.30907,252.726562 127.390625,251.808117 127.390625,250.671875 L127.390625,236.289062 C127.390625,235.15282 128.30907,234.234375 129.439148,234.234375 L143.834289,234.234375 C144.966422,234.234375 145.882812,235.15282 145.882812,236.289062 L145.882812,250.671875 C145.882812,251.808117 144.966422,252.726562 143.834289,252.726562 L143.834289,252.726562 Z" id="Fill-17" fill="#233E49" mask="url(#mask-2)"></path>
                    <path d="M103.810826,107.564123 C103.284826,107.564123 102.758826,107.362764 102.358162,106.9621 C101.554779,106.158717 101.554779,104.860155 102.358162,104.056772 L128.039701,78.3731781 C128.843084,77.5697953 130.143701,77.5697953 130.947084,78.3731781 C131.748412,79.1765609 131.748412,80.4751234 130.947084,81.2785062 L105.26349,106.9621 C104.862826,107.362764 104.336826,107.564123 103.810826,107.564123" id="Fill-20" fill="#FFFFFF" mask="url(#mask-2)"></path>
                    <path d="M124.870345,112.18717 C124.344345,112.18717 123.818345,111.985811 123.417681,111.585147 C122.614298,110.781764 122.614298,109.483202 123.417681,108.679819 L154.751666,77.3458344 C155.555048,76.5424516 156.853611,76.5424516 157.656994,77.3458344 C158.460377,78.1492172 158.460377,79.4477797 157.656994,80.2511625 L126.323009,111.585147 C125.922345,111.985811 125.396345,112.18717 124.870345,112.18717" id="Fill-21" fill="#FFFFFF" mask="url(#mask-2)"></path>
                    <path d="M123.586166,200.795569 C123.060166,200.795569 122.534166,200.594209 122.133502,200.193545 C121.330119,199.390162 121.330119,198.0916 122.133502,197.288217 L139.341509,180.080209 C140.144892,179.276827 141.443455,179.276827 142.246838,180.080209 C143.05022,180.883592 143.05022,182.182155 142.246838,182.985537 L125.03883,200.193545 C124.638166,200.594209 124.112166,200.795569 123.586166,200.795569" id="Fill-22" fill="#FFFFFF" mask="url(#mask-2)"></path>
                    <path d="M142.592025,199.254553 C142.066025,199.254553 141.540025,199.053194 141.139361,198.65253 C140.335978,197.849147 140.335978,196.550584 141.139361,195.747202 L155.265338,181.621225 C156.06872,180.817842 157.367283,180.817842 158.170666,181.621225 C158.974048,182.424608 158.974048,183.72317 158.170666,184.526553 L144.044689,198.65253 C143.644025,199.053194 143.118025,199.254553 142.592025,199.254553" id="Fill-23" fill="#FFFFFF" mask="url(#mask-2)"></path>
                    <path d="M191.085938,197.25 C189.949695,197.25 189.03125,196.352102 189.03125,195.24257 L189.03125,158.089711 C189.03125,156.98018 189.949695,156.082281 191.085938,156.082281 C192.22218,156.082281 193.140625,156.98018 193.140625,158.089711 L193.140625,195.24257 C193.140625,196.352102 192.22218,197.25 191.085938,197.25" id="Fill-24" fill="#FFFFFF" mask="url(#mask-2)"></path>
                    <path d="M232.177838,151.784902 C229.76769,151.784902 227.807518,153.745074 227.807518,156.157277 C227.807518,158.567426 229.76769,160.527598 232.177838,160.527598 C234.590041,160.527598 236.550213,158.567426 236.550213,156.157277 C236.550213,153.745074 234.590041,151.784902 232.177838,151.784902 M232.177838,164.373973 C227.647252,164.373973 223.961143,160.689918 223.961143,156.157277 C223.961143,151.624637 227.647252,147.936473 232.177838,147.936473 C236.710479,147.936473 240.398643,151.624637 240.398643,156.157277 C240.398643,160.689918 236.710479,164.373973 232.177838,164.373973" id="Fill-25" fill="#FFFFFF" mask="url(#mask-2)"></path>
                    <path d="M191.085937,145.882813 C189.949695,145.882813 189.03125,144.964367 189.03125,143.828125 L189.03125,58.5585938 C189.03125,48.8912891 186.183453,47.2578125 177.62568,47.2578125 C176.489438,47.2578125 175.570992,46.3373125 175.570992,45.203125 C175.570992,44.0689375 176.489438,43.1484375 177.62568,43.1484375 C187.451195,43.1484375 193.140625,45.6695391 193.140625,58.5585938 L193.140625,143.828125 C193.140625,144.964367 192.22218,145.882813 191.085937,145.882813" id="Fill-26" fill="#FFFFFF" mask="url(#mask-2)"></path>
                    <path d="M41.0929281,94.2536523 C38.6827797,94.2536523 36.7226078,96.2158789 36.7226078,98.6260273 C36.7226078,101.036176 38.6827797,102.996348 41.0929281,102.996348 C43.5030766,102.996348 45.4653031,101.036176 45.4653031,98.6260273 C45.4653031,96.2158789 43.5030766,94.2536523 41.0929281,94.2536523 M41.0929281,106.844777 C36.5602875,106.844777 32.8741781,103.158668 32.8741781,98.6260273 C32.8741781,94.0933867 36.5602875,90.4072773 41.0929281,90.4072773 C45.6255688,90.4072773 49.3116781,94.0933867 49.3116781,98.6260273 C49.3116781,103.158668 45.6255688,106.844777 41.0929281,106.844777" id="Fill-27" fill="#FFFFFF" mask="url(#mask-2)"></path>
                    <path d="M44.3233078,145.148467 C44.3233078,144.345084 43.4089719,143.54992 42.2912219,143.379381 L38.4695031,142.799959 C37.3517531,142.62942 36.2997531,141.57742 36.1312688,140.461725 L35.5518469,136.642061 C35.3833625,135.526366 34.5881984,134.61203 33.7848156,134.61203 C32.9814328,134.61203 32.1862688,135.526366 32.0177844,136.642061 L31.4404172,140.461725 C31.2698781,141.57742 30.2178781,142.62942 29.1001281,142.799959 L25.2784094,143.379381 C24.1606594,143.54992 23.2463234,144.345084 23.2463234,145.148467 C23.2463234,145.95185 24.1606594,146.747014 25.2784094,146.915498 L29.1001281,147.49492 C30.2178781,147.663405 31.2698781,148.715405 31.4404172,149.8311 L32.0177844,153.652819 C32.1862688,154.768514 32.9814328,155.68285 33.7848156,155.68285 C34.5881984,155.68285 35.3751438,154.768514 35.5313,153.648709 L36.1518156,149.23935 C36.3100266,148.119545 37.3599719,147.13535 38.4859406,147.051108 L42.2747844,146.763452 C43.4007531,146.679209 44.3233078,145.95185 44.3233078,145.148467" id="Fill-28" fill="#FFFFFF" mask="url(#mask-2)"></path>
                    <path d="M236.437616,100.972686 C236.437616,100.169303 235.52328,99.3741391 234.407585,99.2036 L230.581757,98.6241781 C229.466062,98.4536391 228.414062,97.4016391 228.245577,96.2838891 L227.666155,92.4683344 C227.497671,91.3505844 226.702507,90.4362484 225.899124,90.4362484 C225.095741,90.4362484 224.300577,91.3505844 224.132093,92.4683344 L223.554726,96.2838891 C223.384187,97.4016391 222.332187,98.4536391 221.216491,98.6241781 L217.390663,99.2036 C216.274968,99.3741391 215.360632,100.169303 215.360632,100.972686 C215.360632,101.776069 216.274968,102.571233 217.390663,102.739717 L221.216491,103.319139 C222.332187,103.487623 223.384187,104.539623 223.554726,105.657373 L224.132093,109.474983 C224.300577,110.592733 225.095741,111.507069 225.899124,111.507069 C226.702507,111.507069 227.489452,110.590678 227.647663,109.472928 L228.26407,105.063569 C228.424335,103.945819 229.472226,102.959569 230.600249,102.875327 L234.389093,102.58767 C235.517116,102.503428 236.437616,101.776069 236.437616,100.972686" id="Fill-29" fill="#FFFFFF" mask="url(#mask-2)"></path>
                    <path d="M174.648438,207.523438 L100.679688,207.523438 C96.159375,207.523438 92.4609375,203.825 92.4609375,199.304688 L92.4609375,219.851562 C92.4609375,224.371875 96.159375,228.070312 100.679688,228.070312 L174.648438,228.070312 C179.170805,228.070312 182.867188,224.371875 182.867188,219.851562 L182.867188,199.304688 C182.867188,203.825 179.170805,207.523438 174.648438,207.523438" id="Fill-30" fill="#D4D6D6" mask="url(#mask-2)"></path>
                </g>
            </g>
        </g>
    </g>
</svg>