<?xml version="1.0" encoding="UTF-8"?>
<svg width="346px" height="411px" viewBox="0 0 346 411" version="1.1" xmlns="http://www.w3.org/2000/svg" xmlns:xlink="http://www.w3.org/1999/xlink">
    <!-- Generator: Sketch 3.8.1 (29687) - http://www.bohemiancoding.com/sketch -->
    <title>ON40SB1</title>
    <desc>Created with Sketch.</desc>
    <defs>
        <path d="M21.0604737,27.6343421 C13.8712993,26.2937535 8.99429276,23.4480623 5.67428618,19.5543781 C5.70615461,19.4382507 5.72265789,19.3204155 5.72265789,19.2008726 L5.72265789,16.8191219 C5.72265789,16.3318421 5.45006908,15.8656247 4.95497039,15.4375471 L4.95497039,13.7110055 C4.95497039,12.9242992 4.24646711,12.1939488 3.03489803,11.589403 L3.03489803,11.5518324 C3.77242434,11.0469058 4.18671382,10.4776537 4.18671382,9.87595429 L4.18671382,7.49477285 C4.18671382,6.37846953 2.76060197,5.37487812 0.493960526,4.68380609 L0.497375,4.02461219 C0.508756579,1.9599349 5.3954375,0.309103878 11.4498684,0.309103878 L11.6319737,0.309103878 C14.8814145,0.327319945 17.8030658,0.816876731 19.8312632,1.58365928 L20.4959474,10.4839155 L22.3067566,10.3723421 L22.2936678,12.7421385 C22.2896842,13.438903 21.7206053,14.0867119 20.7474803,14.6423019 L20.7412204,15.8422853 C20.7378059,16.4405693 20.313273,17.0024211 19.5802993,17.5016551 L19.5802993,17.5500416 C20.7873158,18.160849 21.4924046,18.894615 21.487852,19.6813213 L21.4787467,21.4175402 C21.9658783,21.8456177 22.2413125,22.3089889 22.2390362,22.7934224 L22.2259474,25.1751731 C22.2225329,25.7740263 21.798,26.3358781 21.0650263,26.8345429 L21.0604737,27.6343421 L21.0604737,27.6343421 Z" id="path-1"></path>
    </defs>
    <g id="Page-1" stroke="none" stroke-width="1" fill="none" fill-rule="evenodd">
        <g id="Gatepass-Landing-Page-4" transform="translate(-178.000000, -3406.000000)">
            <g id="RESELLER-PROGRAM" transform="translate(0.000000, 3275.000000)">
                <g id="ON40SB1" transform="translate(0.000000, 82.000000)">
                    <path d="M261.726309,458.656565 C237.175105,458.656565 217.272138,455.552434 217.272138,451.724213 C217.272138,448.943986 227.769368,446.545727 242.919388,445.440809 C245.566743,447.571519 249.670941,450.411518 252.734293,450.411518 C253.721076,450.412087 254.599734,450.117215 255.287181,449.408496 C256.825401,447.823698 256.498181,446.255409 255.359454,444.862449 C257.439437,444.81577 259.563809,444.791861 261.726309,444.791861 C263.484194,444.791861 265.219885,444.807801 266.924276,444.83854 C269.491961,446.988036 274.110036,450.411518 277.473293,450.411518 C278.460076,450.412087 279.338734,450.117215 280.026181,449.408496 C281.355549,448.038875 281.291243,446.682348 280.51502,445.43967 C295.675283,446.544019 306.179911,448.942848 306.179911,451.724213 C306.179911,455.552434 286.277513,458.656565 261.726309,458.656565 L0.34375,597.722656" id="Fill-3" fill="#51AEE2"></path>
                    <path d="M317.572872,281.645355 C317.572872,281.645355 320.909951,272.891396 314.033201,271.79274 C307.155882,270.694083 309.21424,279.899458 309.21424,279.899458 L317.572872,281.645355" id="Fill-4" fill="#F9D7B5"></path>
                    <polyline id="Fill-5" fill="#F8F8F6" points="308.475007 281.805314 308.737921 279.644434 318.401451 280.452771 318.168697 282.705871 308.475007 281.805314"></polyline>
                    <path d="M271.603813,319.176144 C271.603813,319.176144 316.129118,334.347281 318.577865,281.768882 L307.78699,280.675349 C307.78699,280.675349 309.672918,317.575976 279.128743,312.034307 L271.603813,319.176144" id="Fill-6" fill="#2D2E2C"></path>
                    <path d="M316.477964,290.55415 C316.439266,290.007098 315.965224,289.595529 315.420046,289.634238 C314.870885,289.672378 314.458872,290.147134 314.498138,290.693047 C314.53399,291.241237 315.00974,291.652806 315.556056,291.614666 C316.102941,291.575957 316.516661,291.102339 316.477964,290.55415" id="Fill-7" fill="#797A76"></path>
                    <path d="M316.833638,287.096512 C316.79551,286.548892 316.320898,286.136184 315.775151,286.173755 C315.227128,286.214172 314.815684,286.688359 314.853812,287.234271 C314.890803,287.780753 315.365984,288.193461 315.91173,288.157029 C316.459184,288.11832 316.871766,287.643564 316.833638,287.096512" id="Fill-8" fill="#797A76"></path>
                    <path d="M317.196141,283.736787 C317.157444,283.188597 316.683401,282.777597 316.135947,282.814598 C315.590201,282.852738 315.177618,283.327494 315.216316,283.873976 C315.255013,284.421597 315.728487,284.834305 316.275372,284.796165 C316.821688,284.758025 317.234839,284.283838 317.196141,283.736787" id="Fill-9" fill="#797A76"></path>
                    <path d="M291.388411,266.338166 C291.134033,287.498404 276.318632,304.476348 257.277819,304.247508 C238.237007,304.018669 222.181013,286.670143 222.434822,265.509904 C222.688632,244.349666 238.330336,227.38197 257.371148,227.61024 C290.402766,228.007008 291.64222,245.177928 291.388411,266.338166" id="Fill-10" fill="#F9D7B5"></path>
                    <path d="M238.378138,246.319848 C238.378138,246.319848 266.018872,253.474208 291.891477,248.730061 C289.483704,225.999825 269.580737,209.864375 239.283543,219.916229 C203.289868,231.858568 221.191385,279.407625 229.585299,290.728341 C235.073497,280.458464 236.990724,268.562803 236.990724,268.562803 C236.990724,268.562803 230.078691,271.796724 230.730286,263.919983 C231.17872,258.500134 237.720852,262.089269 237.720852,262.089269 L238.378138,246.319848" id="Fill-11" fill="#4F433B"></path>
                    <path d="M240.789326,238.12091 C240.789326,238.12091 222.768303,214.089934 204.226003,226.860535 C179.673092,243.771306 216.083901,275.37732 183.588355,284.404519 C202.198944,298.643222 224.047592,282.732626 215.564332,261.851321 C203.247757,231.533525 231.04328,232.239967 240.789326,238.12091" id="Fill-12" fill="#4F433B"></path>
                    <path d="M253.873589,265.822424 C253.83603,268.961849 252.738845,270.667898 251.411753,270.651958 C250.084092,270.636019 249.028451,268.904355 249.06601,265.76436 C249.104138,262.624935 250.200753,260.918886 251.528414,260.934825 C252.856076,260.950765 253.911148,262.682999 253.873589,265.822424" id="Fill-13" fill="#4F433B"></path>
                    <path d="M284.813273,266.194145 C284.775714,269.333571 283.679099,271.039619 282.351437,271.023111 C281.023776,271.007741 279.968135,269.275507 280.006263,266.136082 C280.043253,262.996657 281.140437,261.290608 282.468099,261.306547 C283.79576,261.321917 284.850832,263.054151 284.813273,266.194145" id="Fill-14" fill="#4F433B"></path>
                    <path d="M256.816865,283.280816 C256.759388,288.029517 260.562543,291.926047 265.310368,291.983542 C270.058194,292.039898 273.95297,288.236724 274.010447,283.486885 L256.816865,283.280816" id="Fill-15" fill="#DE757C"></path>
                    <polyline id="Fill-16" fill="#F9D7B5" points="249.125763 293.68959 248.966421 306.990165 255.911461 323.181402 263.242905 307.162079 263.402816 293.860935 249.125763 293.68959"></polyline>
                    <polyline id="Fill-17" fill="#2D2E2C" points="248.966421 306.990165 231.768855 312.259162 234.380928 349.918602 228.113661 368.632765 280.915651 369.266911 275.767194 350.41556 279.128743 312.034307 263.242905 307.162079 255.911461 323.181402 248.966421 306.990165"></polyline>
                    <polyline id="Fill-18" fill="#F8F8F6" points="263.242905 307.162079 266.345523 308.113868 255.830651 329.9259 245.789253 307.963586 248.966421 306.990165 255.911461 323.181402 263.242905 307.162079"></polyline>
                    <polyline id="Fill-19" fill="#F8F8F6" points="248.966421 306.990165 245.789253 307.963586 244.411513 319.667978 248.838947 317.581669 253.892937 318.475964 248.966421 306.990165"></polyline>
                    <polyline id="Fill-20" fill="#F8F8F6" points="263.242905 307.162079 266.345523 308.113868 267.492217 319.945773 263.115431 317.753583 258.042092 318.526058 263.242905 307.162079"></polyline>
                    <path d="M257.833809,335.90077 C257.820151,337.047244 256.880033,337.964878 255.733908,337.951785 C254.588352,337.937554 253.670428,336.99715 253.684086,335.851245 C253.698313,334.705341 254.637862,333.786568 255.783987,333.800799 C256.929543,333.814461 257.847467,334.754296 257.833809,335.90077" id="Fill-21" fill="#797A76"></path>
                    <path d="M257.684141,348.357144 C257.670484,349.503618 256.730365,350.421252 255.58424,350.407021 C254.438684,350.393928 253.521329,349.453524 253.534418,348.30705 C253.548645,347.161145 254.488763,346.242942 255.634319,346.256604 C256.780444,346.270835 257.697799,347.21067 257.684141,348.357144" id="Fill-22" fill="#797A76"></path>
                    <path d="M257.534474,360.813518 C257.520816,361.959422 256.580697,362.877626 255.435141,362.863395 C254.289586,362.849733 253.371661,361.909898 253.385319,360.763424 C253.398977,359.61695 254.339095,358.699316 255.484651,358.712978 C256.630776,358.727209 257.548701,359.667044 257.534474,360.813518" id="Fill-23" fill="#797A76"></path>
                    <path d="M184.354905,328.118525 C184.354905,328.118525 175.677589,324.594285 179.562691,318.812961 C183.447793,313.031068 188.776648,320.811605 188.776648,320.811605 L184.354905,328.118525" id="Fill-24" fill="#F9D7B5"></path>
                    <polyline id="Fill-25" fill="#F8F8F6" points="190.34503 321.466245 188.599095 320.082393 183.942891 328.397458 186.004664 329.249629 190.34503 321.466245"></polyline>
                    <path d="M241.773832,310.807569 C241.773832,310.807569 230.273885,356.431985 184.840329,329.880929 L189.793592,320.22926 C189.793592,320.22926 217.750734,342.969173 231.768855,312.259162 L241.773832,310.807569" id="Fill-26" fill="#2D2E2C"></path>
                    <path d="M193.352043,332.897965 C192.913852,332.567799 192.826783,331.946176 193.155141,331.50956 C193.486345,331.069528 194.108349,330.981863 194.545401,331.312029 C194.985299,331.640488 195.071799,332.263249 194.742872,332.701004 C194.412237,333.139328 193.790234,333.22927 193.352043,332.897965" id="Fill-27" fill="#797A76"></path>
                    <path d="M190.257391,331.314875 C189.819201,330.984709 189.731562,330.363086 190.059921,329.924193 C190.391694,329.487007 191.013697,329.398773 191.45075,329.72837 C191.888372,330.056259 191.976579,330.680729 191.648789,331.119053 C191.318155,331.556807 190.695582,331.645042 190.257391,331.314875" id="Fill-28" fill="#797A76"></path>
                    <path d="M187.242411,329.791557 C186.803651,329.461391 186.716582,328.839767 187.046079,328.400305 C187.374437,327.96255 187.99701,327.874316 188.434632,328.204482 C188.872822,328.535217 188.961599,329.156271 188.632102,329.595165 C188.303174,330.03292 187.680033,330.121723 187.242411,329.791557" id="Fill-29" fill="#797A76"></path>
                    <path d="M258.936115,372.073324 L263.728898,412.017742 L265.005342,443.139892 C265.005342,443.139892 275.924829,453.634623 280.026181,449.408496 C284.735878,444.555622 271.955503,439.861 271.955503,439.861 L273.402102,411.692699 L274.431566,377.616132 L258.936115,372.073324" id="Fill-30" fill="#F9D7B5"></path>
                    <path d="M265.005342,443.139892 L265.325164,452.872395 L267.039799,452.816039 L267.827974,448.136787 C267.827974,448.136787 271.560562,453.030647 279.620997,452.765375 C292.261947,452.349252 279.249388,441.914292 271.955503,439.861 C271.955503,439.861 281.170599,443.203648 278.161878,446.234916 C273.455026,450.976216 265.005342,443.139892 265.005342,443.139892" id="Fill-31" fill="#2D2E2C"></path>
                    <path d="M234.197115,372.073324 L238.989898,412.017742 L240.266342,443.139892 C240.266342,443.139892 251.185829,453.634623 255.287181,449.408496 C259.996878,444.555622 247.216503,439.861 247.216503,439.861 L248.663102,411.692699 L249.692566,377.616132 L234.197115,372.073324" id="Fill-32" fill="#F9D7B5"></path>
                    <path d="M240.266342,443.139892 L240.586734,452.872395 L242.301368,452.816039 L243.088974,448.136787 C243.088974,448.136787 246.821563,453.030647 254.881997,452.765375 C267.523516,452.349252 254.510957,441.914292 247.216503,439.861 C247.216503,439.861 256.432168,443.203648 253.423447,446.234916 C248.716595,450.976216 240.266342,443.139892 240.266342,443.139892" id="Fill-33" fill="#2D2E2C"></path>
                    <polyline id="Fill-34" fill="#2D2E2C" points="282.271766 386.132712 228.708918 388.410859 232.56272 368.686843 277.397605 369.224787 282.271766 386.132712"></polyline>
                    <path d="M231.371638,374.300807 L232.56272,368.686843 L231.467243,374.293976 L231.371638,374.300807 M277.891566,370.939374 L277.397605,369.224787 L277.945628,370.935389 L277.891566,370.939374" id="Fill-35" fill="#8FAB9A"></path>
                    <polyline id="Fill-36" fill="#282927" points="231.467243 374.293976 232.56272 368.686843 277.397605 369.224787 277.891566 370.939374 231.467243 374.293976"></polyline>
                    <path d="M262.823493,173.873982 C262.823493,173.873982 264.852829,188.286306 259.970701,198.913673 C259.970701,198.913673 275.264697,191.976198 281.420993,174.795601 L262.823493,173.873982" id="Fill-37" fill="#F8F8F6"></path>
                    <path d="M454.728865,459.746114 C423.683901,459.746114 398.517523,455.77615 398.517523,450.879443 C398.517523,445.983306 423.683901,442.012773 454.728865,442.012773 C485.773829,442.012773 510.939638,445.983306 510.939638,450.879443 C510.939638,455.77615 485.773829,459.746114 454.728865,459.746114" id="Fill-38" fill="#51AEE2"></path>
                    <path d="M506.757477,335.634929 C506.757477,335.634929 521.869368,263.545416 476.436951,253.566427 C418.521217,240.84535 421.650582,327.719479 421.650582,327.719479 L506.757477,335.634929" id="Fill-39" fill="#F9D7B5"></path>
                    <path d="M418.521217,392.634709 L420.74347,421.247026 L425.140743,442.625857 C425.140743,442.625857 415.492579,438.400299 411.851043,445.916704 C406.723072,456.504792 431.911076,448.051968 431.911076,448.051968 L427.598595,420.138693 L428.966661,402.361519 C428.966661,402.361519 450.452237,408.414377 483.615882,407.459741 L484.178132,422.150429 L489.535441,447.686508 C489.535441,447.686508 483.364349,438.87904 476.562148,446.545727 C467.434691,456.83382 495.585888,450.435427 495.585888,450.435427 L491.948905,421.643795 L494.076691,402.956957 C494.076691,402.956957 466.364253,392.23851 418.521217,392.634709" id="Fill-40" fill="#171816"></path>
                    <path d="M480.897391,331.072374 L450.498901,362.914058 L428.280352,325.504519 L420.652418,324.774169 L418.521217,392.634709 C418.521217,392.634709 425.347319,395.74681 440.442138,398.57087 C446.743549,399.863072 456.465694,401.015238 456.465694,401.015238 C466.397829,402.004598 479.903211,402.849938 494.076691,402.956957 L509.088424,334.49244 L480.897391,331.072374" id="Fill-41" fill="#1E1E1C"></path>
                    <polyline id="Fill-42" fill="#F8F8F6" points="428.280352 325.504519 450.498901 362.914058 480.897391 331.072374 428.280352 325.504519"></polyline>
                    <polyline id="Fill-43" fill="#41413F" points="428.280352 325.504519 426.402961 340.339798 434.62103 342.912248 432.283253 354.111144 450.498901 362.914058 428.280352 325.504519"></polyline>
                    <polyline id="Fill-44" fill="#41413F" points="450.498901 362.914058 469.725234 355.887211 469.920428 347.590361 479.08203 345.295137 480.897391 331.072374 450.498901 362.914058"></polyline>
                    <polyline id="Fill-45" fill="#171816" points="445.825056 334.682571 449.022711 330.821903 456.195382 331.305198 458.310648 336.569072 455.09023 339.64531 457.363701 355.754006 450.498901 362.914058 444.591862 352.977763 448.735895 339.154046 445.825056 334.682571"></polyline>
                    <path d="M452.086062,369.114921 C451.675757,370.388907 450.309967,371.08681 449.036368,370.67581 C447.76277,370.26538 447.065079,368.899744 447.475385,367.625188 C447.885691,366.351202 449.252049,365.653868 450.523941,366.063161 C451.798109,366.475868 452.497507,367.840935 452.086062,369.114921" id="Fill-46" fill="#41413F"></path>
                    <path d="M451.346829,380.173781 C450.934816,381.447198 449.569026,382.14567 448.297135,381.735809 C447.023536,381.32424 446.324138,379.958604 446.737289,378.685756 C447.145888,377.411201 448.512247,376.71159 449.784707,377.123159 C451.058306,377.533021 451.758273,378.899795 451.346829,380.173781" id="Fill-47" fill="#41413F"></path>
                    <path d="M421.601072,228.078734 C421.601072,228.078734 406.678115,282.702456 490.849444,278.359632 L492.407013,294.615763 C492.407013,294.615763 500.536306,286.805055 501.705194,295.373438 C503.050497,305.238576 493.966859,301.661396 493.966859,301.661396 C493.966859,301.661396 500.503299,322.336062 508.412928,331.445803 C508.853964,331.954145 545.104293,241.434526 505.397947,253.07687 C505.397947,253.07687 503.428934,236.367044 479.130401,231.025183 C445.181428,223.561719 441.163161,254.472676 421.601072,228.078734" id="Fill-48" fill="#2D2E2C"></path>
                    <path d="M441.171697,291.257745 C440.753424,295.043841 439.227155,296.973605 437.625766,296.796568 C436.024947,296.61953 434.956217,294.403432 435.373921,290.616767 C435.792763,286.830672 437.319033,284.900907 438.920421,285.077945 C440.520671,285.254413 441.58997,287.47165 441.171697,291.257745" id="Fill-49" fill="#2D2E2C"></path>
                    <path d="M478.484497,295.970014 C478.066224,299.756109 476.539385,301.685874 474.938566,301.508837 C473.337178,301.332368 472.268447,299.115701 472.68672,295.329605 C473.104993,291.54294 474.631832,289.613176 476.232651,289.790213 C477.83347,289.967251 478.902201,292.183349 478.484497,295.970014" id="Fill-50" fill="#2D2E2C"></path>
                    <path d="M442.328635,307.483137 C441.49778,315.006373 446.921102,321.778765 454.44148,322.609303 C461.962428,323.440411 468.732191,318.015439 469.563046,310.492204 L442.328635,307.483137" id="Fill-51" fill="#DE757C"></path>
                    <path d="M374.740836,366.851006 C374.740836,366.851006 364.785937,366.852144 366.299687,359.604427 C367.814007,352.355571 376.173776,357.885855 376.173776,357.885855 L374.740836,366.851006" id="Fill-52" fill="#F9D7B5"></path>
                    <polyline id="Fill-53" fill="#F8F8F6" points="377.879875 357.926841 375.630306 357.18909 374.042576 367.194265 376.432138 367.846058 377.879875 357.926841"></polyline>
                    <path d="M426.89123,335.005906 C426.89123,335.005906 424.515895,381.020259 375.482345,368.343584 L376.875451,356.895925 C376.875451,356.895925 415.962638,368.185902 420.652418,324.774169 L426.89123,335.005906" id="Fill-54" fill="#1E1E1C"></path>
                    <path d="M385.079862,368.222334 C384.521595,368.053835 384.206326,367.465798 384.373635,366.910208 C384.542082,366.349494 385.13051,366.03356 385.687638,366.202058 C386.247043,366.36828 386.562312,366.957456 386.395003,367.514753 C386.226556,368.07319 385.639266,368.391402 385.079862,368.222334" id="Fill-55" fill="#41413F"></path>
                    <path d="M381.412148,367.782302 C380.853882,367.613803 380.537474,367.025197 380.704214,366.46733 C380.874368,365.909463 381.462227,365.592958 382.018786,365.760319 C382.576484,365.927109 382.892891,366.516855 382.727289,367.074722 C382.559411,367.632589 381.969845,367.949662 381.412148,367.782302" id="Fill-56" fill="#41413F"></path>
                    <path d="M377.845161,367.371302 C377.286326,367.202803 376.970487,366.614766 377.137796,366.05633 C377.304536,365.498463 377.893533,365.181958 378.45123,365.349888 C379.009497,365.517817 379.326474,366.106424 379.158595,366.664291 C378.991855,367.222158 378.403428,367.539231 377.845161,367.371302" id="Fill-57" fill="#41413F"></path>
                    <path d="M496.948832,397.711299 C496.948832,397.711299 489.382928,404.183695 485.825046,397.690237 C482.267734,391.197348 492.213526,389.966625 492.213526,389.966625 L496.948832,397.711299" id="Fill-58" fill="#F9D7B5"></path>
                    <polyline id="Fill-59" fill="#F8F8F6" points="493.597526 388.80535 491.438441 389.777633 497.010862 398.236719 498.821671 396.706 493.597526 388.80535"></polyline>
                    <path d="M508.663891,335.034368 C508.663891,335.034368 546.101888,368.182486 498.848987,398.11433 L492.160033,388.721101 C492.160033,388.721101 527.334803,372.437645 506.030194,345.743708 L508.663891,335.034368" id="Fill-60" fill="#1E1E1C"></path>
                    <path d="M505.854349,391.550853 C505.32852,391.803032 504.699118,391.581593 504.448155,391.057881 C504.194914,390.530184 504.415717,389.899453 504.940408,389.648413 C505.465668,389.393957 506.096207,389.615965 506.348309,390.140816 C506.600411,390.666805 506.381316,391.298675 505.854349,391.550853" id="Fill-61" fill="#41413F"></path>
                    <path d="M502.849043,393.699211 C502.323783,393.951958 501.693243,393.730519 501.440003,393.206807 C501.189609,392.679111 501.410411,392.049518 501.934533,391.797339 C502.458655,391.544022 503.089763,391.76603 503.343572,392.289742 C503.595674,392.815731 503.374303,393.446463 502.849043,393.699211" id="Fill-62" fill="#41413F"></path>
                    <path d="M499.938204,395.802028 C499.411806,396.054776 498.782974,395.833337 498.529164,395.307917 C498.276493,394.783636 498.497865,394.152335 499.023125,393.900726 C499.548954,393.648547 500.178924,393.868848 500.431595,394.394267 C500.684266,394.918548 500.463464,395.54928 499.938204,395.802028" id="Fill-63" fill="#41413F"></path>
                    <path d="M452.787168,176.811323 C452.787168,176.811323 450.828967,191.733697 455.981408,202.674722 C455.981408,202.674722 440.099553,195.65072 433.565957,177.946411 L452.787168,176.811323" id="Fill-64" fill="#F8F8F6"></path>
                    <path d="M344.335516,115.810839 C344.335516,152.593632 317.000378,182.412763 267.725539,182.412763 C218.45127,182.412763 191.115562,152.593632 191.115562,115.810839 C191.115562,79.0280471 218.45127,49.2089155 267.725539,49.2089155 C317.000378,49.2089155 344.335516,79.0280471 344.335516,115.810839" id="Fill-65" fill="#F8F8F6"></path>
                    <path d="M517.014556,115.810839 C517.014556,152.593632 489.679987,182.412763 440.405148,182.412763 C391.12974,182.412763 363.795171,152.593632 363.795171,115.810839 C363.795171,79.0280471 391.12974,49.2089155 440.405148,49.2089155 C489.679987,49.2089155 517.014556,79.0280471 517.014556,115.810839" id="Fill-66" fill="#F8F8F6"></path>
                    <path d="M492.52026,154.554705 C492.52026,154.554705 458.789243,152.166123 440.942928,152.166123 C423.097181,152.166123 389.366164,154.554705 389.366164,154.554705 L389.366164,81.1894972 L492.52026,81.1894972 L492.52026,154.554705" id="Fill-67" fill="#E8E9E5"></path>
                    <polygon id="Fill-68" fill="#F8F1DE" points="390.786016 151.485298 491.100977 151.485298 491.100977 79.3360125 390.786016 79.3360125"></polygon>
                    <polygon id="Fill-88" fill="#515251" points="410.352089 103.146708 471.533766 103.146708 471.533766 102.405542 410.352089 102.405542"></polygon>
                    <polygon id="Fill-85" fill="#515251" points="422.611187 109.882079 459.274668 109.882079 459.274668 109.140913 422.611187 109.140913"></polygon>
                    <polygon id="Fill-86" fill="#515251" points="410.352089 116.303812 471.533766 116.303812 471.533766 115.562645 410.352089 115.562645"></polygon>
                    <polygon id="Fill-87" fill="#515251" points="410.352089 122.725544 471.533766 122.725544 471.533766 121.983809 410.352089 121.983809"></polygon>
                    <polygon id="Fill-88" fill="#515251" points="410.352089 129.146708 471.533766 129.146708 471.533766 128.405542 410.352089 128.405542"></polygon>
                    <path d="M447.038901,144.442511 C447.562454,143.468521 447.86122,142.355633 447.86122,141.171589 C447.86122,137.350199 444.763724,134.25233 440.942928,134.25233 C437.122132,134.25233 434.025204,137.350199 434.025204,141.171589 C434.025204,142.355633 434.323401,143.468521 434.846385,144.442511 L402.452704,144.442511 C402.452704,141.886569 400.381257,139.814492 397.826092,139.814492 L397.826092,91.0062493 C400.381257,91.0062493 402.452704,88.934741 402.452704,86.3787992 L479.43372,86.3787992 C479.43372,88.934741 481.505168,91.0062493 484.060332,91.0062493 L484.060332,139.814492 C481.505168,139.814492 479.43372,141.886569 479.43372,144.442511 L447.038901,144.442511 L447.038901,144.442511 Z M392.638368,149.631813 L489.248056,149.631813 L489.248056,81.1894972 L392.638368,81.1894972 L392.638368,149.631813 Z" id="Fill-89" fill="#51AEE2"></path>
                    <polyline id="Fill-90" fill="#F8F1DE" points="446.81753 141.172158 445.290691 141.798335 446.580224 142.828681 444.939 142.997749 445.88424 144.350292 444.261796 144.049158 444.789332 145.612893 443.316556 144.868881 443.383707 146.518004 442.181243 145.388039 441.778336 146.988776 440.942928 145.565076 440.108089 146.988776 439.704612 145.388039 438.50101 146.517435 438.568161 144.868312 437.095954 145.611755 437.62349 144.048019 436.001615 144.349154 436.946855 142.99718 435.306201 142.827543 436.595734 141.798335 435.069464 141.171589 436.595734 140.545411 435.306201 139.515634 436.947424 139.345997 436.002184 137.993454 437.624059 138.295158 437.097092 136.731422 438.569299 137.475435 438.502148 135.826312 439.705181 136.955708 440.108089 135.35554 440.942928 136.77924 441.778336 135.35554 442.181812 136.956277 443.384845 135.826881 443.317694 137.476004 444.79047 136.731992 444.262365 138.295727 445.884809 137.994593 444.939569 139.347136 446.580793 139.516773 445.290691 140.545411 446.81753 141.172158"></polyline>
                    <path d="M266.628355,162.72518 C240.079115,162.72518 218.557118,156.949548 218.557118,149.824789 C218.557118,148.501278 219.299766,147.223877 220.679214,146.022186 L220.679214,146.188407 C220.679214,148.274147 225.65524,149.964256 231.792757,149.964256 C237.578013,149.964256 242.330391,148.462569 242.857928,146.54419 C247.567056,152.067073 255.407826,155.481447 268.539891,155.481447 C270.22152,155.481447 271.990217,155.425661 273.849967,155.310672 C291.122651,154.245032 299.838664,149.124609 303.922944,141.683916 C310.660839,143.904568 314.699592,146.737735 314.699592,149.824789 C314.699592,156.949548 293.177595,162.72518 266.628355,162.72518" id="Fill-91" fill="#E8E9E5"></path>
                    <path d="M261.102599,80.0339155 C252.865181,85.7964543 234.530595,105.712877 235.993128,125.284332 C237.322497,143.075168 243.132793,157.206281 273.849967,155.310672 C304.567141,153.415632 308.221766,138.700465 306.892398,120.90963 C305.429865,101.338175 283.063355,84.3818629 275.28177,79.1584058 L283.283589,64.003777 L251.000878,65.9961593 L261.102599,80.0339155 L1222.28125,0.97265625" id="Fill-92" fill="#A88660"></path>
                    <path d="M277.745312,79.3012881 C277.718566,78.9409515 277.492641,78.6352632 277.17225,78.4673338 C277.464757,78.2612645 277.642878,77.9310983 277.615562,77.5701925 C277.572882,76.9952479 277.024289,76.5597701 276.390905,76.5990485 L259.485276,77.6419183 C258.851322,77.6811967 258.372727,78.1798615 258.415977,78.7553753 C258.442724,79.1157119 258.668079,79.4214003 258.98847,79.5893296 C258.695964,79.7953989 258.517842,80.1255651 258.545158,80.4864709 C258.587839,81.0619848 259.136431,81.4968934 259.769816,81.4581842 L276.676013,80.4147452 C277.309398,80.3754668 277.787993,79.8773712 277.745312,79.3012881" id="Fill-94" fill="#47382A"></path>
                    <path d="M284.480931,153.945605 C284.28972,153.66838 284.17875,153.380907 284.17875,153.083758 L284.17875,150.702007 C284.17875,150.103154 284.599868,149.539025 285.329997,149.036375 L285.329997,148.238853 C284.841158,147.813622 284.562309,147.351389 284.562309,146.866956 L284.562309,145.879873 C283.351878,145.275327 282.642806,144.544976 282.642806,143.758839 L282.642806,141.377089 C282.642806,140.778235 283.064493,140.214107 283.794622,139.711457 L283.794622,138.268972 C283.794622,137.571639 284.360286,136.920983 285.329997,136.36027 L285.329997,135.160287 C285.329997,133.075116 290.306023,131.385007 296.444109,131.385007 C300.971701,131.385007 304.859648,132.306057 306.591924,133.625583 C304.992243,143.280668 299.357793,150.819842 284.480931,153.945605" id="Fill-95" fill="#9F7E5C"></path>
                    <path d="M219.527398,146.915342 L219.527398,149.296524 C219.527398,151.382263 224.503424,153.072373 230.640941,153.072373 C236.779595,153.072373 241.755053,151.382263 241.755053,149.296524 L241.755053,146.915342 L219.527398,146.915342" id="Fill-96" fill="#E3AD3B"></path>
                    <path d="M241.755053,146.915342 C241.755053,149.000512 236.779595,150.691191 230.640941,150.691191 C224.503424,150.691191 219.527398,149.000512 219.527398,146.915342 C219.527398,144.829602 224.503424,143.139493 230.640941,143.139493 C236.779595,143.139493 241.755053,144.829602 241.755053,146.915342" id="Fill-97" fill="#F9C557"></path>
                    <path d="M239.687589,146.915342 C239.687589,148.612852 235.637454,149.988734 230.640941,149.988734 C225.644997,149.988734 221.594862,148.612852 221.594862,146.915342 C221.594862,145.217832 225.644997,143.84195 230.640941,143.84195 C235.637454,143.84195 239.687589,145.217832 239.687589,146.915342" id="Fill-98" fill="#E3AD3B"></path>
                    <path d="M227.903102,148.277562 C227.451253,148.141511 227.225898,147.924626 227.225898,147.626907 L227.225898,147.499964 L229.715049,147.499964 L229.715049,147.589337 C229.715049,147.729942 229.793013,147.827284 229.950079,147.880794 C230.106576,147.933734 230.314289,147.960489 230.572082,147.960489 C230.840118,147.960489 231.044418,147.930888 231.187826,147.871116 C231.330664,147.811914 231.401799,147.739619 231.401799,147.65537 C231.401799,147.54892 231.30278,147.464101 231.10474,147.401483 C230.906132,147.338866 230.657444,147.284787 230.358109,147.239247 C230.058204,147.194276 229.73326,147.148735 229.383276,147.103195 C229.032724,147.057655 228.70778,146.998453 228.408444,146.92445 C228.108539,146.851017 227.859852,146.754813 227.661812,146.635839 C227.462635,146.516866 227.364184,146.36146 227.364184,146.17076 C227.364184,145.585 228.207559,145.245157 229.894878,145.15123 L229.894878,144.878558 L231.16677,144.878558 L231.16677,145.15123 C232.088678,145.182539 232.757345,145.277035 233.172204,145.435287 C233.587062,145.593539 233.794207,145.833763 233.794207,146.156529 L231.388141,146.156529 L231.388141,146.085942 C231.388141,145.992015 231.327819,145.910043 231.208882,145.839456 C231.088806,145.768868 230.903855,145.733575 230.655168,145.733575 C230.378595,145.733575 230.176003,145.764314 230.046822,145.825224 C229.917641,145.886134 229.853336,145.952737 229.853336,146.025032 C229.853336,146.134898 229.956908,146.220855 230.164622,146.283472 C230.371766,146.34609 230.631836,146.400169 230.945967,146.445709 C231.258961,146.49068 231.595855,146.534512 231.954944,146.577206 C232.314602,146.619331 232.651497,146.677964 232.96449,146.753105 C233.278053,146.828247 233.538691,146.926727 233.746405,147.049116 C233.95298,147.171506 234.057122,147.334312 234.057122,147.537535 C234.057122,147.857454 233.812418,148.093694 233.324148,148.247392 C232.835309,148.400521 232.116562,148.494447 231.16677,148.529172 L231.16677,148.951557 L229.894878,148.951557 L229.894878,148.529172 C229.018497,148.497863 228.354951,148.414183 227.903102,148.277562" id="Fill-99" fill="#F9C557"></path>
                    <path d="M220.679214,143.806657 L220.679214,146.188407 C220.679214,148.274147 225.65524,149.964256 231.792757,149.964256 C237.930842,149.964256 242.906868,148.274147 242.906868,146.188407 L242.906868,143.806657 L220.679214,143.806657" id="Fill-100" fill="#E3AD3B"></path>
                    <path d="M242.906868,143.806657 C242.906868,145.891827 237.930842,147.582506 231.792757,147.582506 C225.65524,147.582506 220.679214,145.891827 220.679214,143.806657 C220.679214,141.721486 225.65524,140.031377 231.792757,140.031377 C237.930842,140.031377 242.906868,141.721486 242.906868,143.806657" id="Fill-101" fill="#F9C557"></path>
                    <path d="M240.839405,143.806657 C240.839405,145.504166 236.78927,146.880048 231.792757,146.880048 C226.796812,146.880048 222.746678,145.504166 222.746678,143.806657 C222.746678,142.109147 226.796812,140.733265 231.792757,140.733265 C236.78927,140.733265 240.839405,142.109147 240.839405,143.806657" id="Fill-102" fill="#E3AD3B"></path>
                    <path d="M229.054918,145.169446 C228.603069,145.033395 228.377714,144.81594 228.377714,144.518791 L228.377714,144.391848 L230.866865,144.391848 L230.866865,144.480651 C230.866865,144.622395 230.944829,144.719168 231.101895,144.772108 C231.258391,144.825618 231.466105,144.852373 231.723898,144.852373 C231.991365,144.852373 232.196234,144.822771 232.339641,144.763 C232.481911,144.703798 232.553615,144.631503 232.553615,144.546684 C232.553615,144.440234 232.454026,144.355985 232.256556,144.292798 C232.057947,144.230749 231.80926,144.17667 231.509924,144.13113 C231.21002,144.08559 230.885076,144.040619 230.534523,143.99451 C230.184539,143.949539 229.859026,143.889767 229.559691,143.816334 C229.260355,143.7429 229.011099,143.646697 228.813059,143.527154 C228.614451,143.40818 228.516,143.253343 228.516,143.062075 C228.516,142.476314 229.359375,142.13704 231.046125,142.042544 L231.046125,141.770442 L232.318586,141.770442 L232.318586,142.042544 C233.240493,142.073853 233.908592,142.168918 234.32402,142.32717 C234.738878,142.485422 234.946023,142.725647 234.946023,143.047843 L232.539957,143.047843 L232.539957,142.977825 C232.539957,142.883899 232.479635,142.801357 232.360128,142.731339 C232.240053,142.660752 232.055671,142.625458 231.806984,142.625458 C231.530411,142.625458 231.327819,142.655629 231.198638,142.717108 C231.069457,142.778018 231.005151,142.84462 231.005151,142.916346 C231.005151,143.026212 231.108724,143.112169 231.315868,143.175356 C231.523582,143.237404 231.783651,143.292053 232.097214,143.337024 C232.410776,143.382564 232.747671,143.426396 233.10676,143.468521 C233.466418,143.510645 233.803312,143.569278 234.116306,143.644989 C234.429868,143.72013 234.690507,143.818611 234.897651,143.941 C235.104796,144.06282 235.208937,144.225626 235.208937,144.429418 C235.208937,144.748769 234.964234,144.985578 234.475964,145.138706 C233.987125,145.292404 233.268378,145.386331 232.318586,145.420486 L232.318586,145.84344 L231.046125,145.84344 L231.046125,145.420486 C230.170312,145.389177 229.506766,145.305497 229.054918,145.169446" id="Fill-103" fill="#F9C557"></path>
                    <path d="M219.910957,140.69854 L219.910957,143.080291 C219.910957,145.165461 224.886984,146.85614 231.025069,146.85614 C237.163155,146.85614 242.139181,145.165461 242.139181,143.080291 L242.139181,140.69854 L219.910957,140.69854" id="Fill-104" fill="#E3AD3B"></path>
                    <path d="M242.139181,140.69854 C242.139181,142.78428 237.163155,144.474389 231.025069,144.474389 C224.886984,144.474389 219.910957,142.78428 219.910957,140.69854 C219.910957,138.61337 224.886984,136.922691 231.025069,136.922691 C237.163155,136.922691 242.139181,138.61337 242.139181,140.69854" id="Fill-105" fill="#F9C557"></path>
                    <path d="M240.071717,140.69854 C240.071717,142.39605 236.021582,143.771932 231.025069,143.771932 C226.028556,143.771932 221.978421,142.39605 221.978421,140.69854 C221.978421,139.0016 226.028556,137.625148 231.025069,137.625148 C236.021582,137.625148 240.071717,139.0016 240.071717,140.69854" id="Fill-106" fill="#E3AD3B"></path>
                    <path d="M228.28723,142.06076 C227.835382,141.924709 227.609457,141.707824 227.609457,141.410105 L227.609457,141.283162 L230.098609,141.283162 L230.098609,141.373104 C230.098609,141.513709 230.177141,141.610482 230.333638,141.663992 C230.490704,141.717501 230.698418,141.743687 230.956211,141.743687 C231.223678,141.743687 231.428546,141.714086 231.571385,141.654884 C231.714224,141.595112 231.785928,141.523386 231.785928,141.438568 C231.785928,141.332118 231.686339,141.247299 231.488299,141.184681 C231.29026,141.122064 231.041572,141.067985 230.742237,141.023014 C230.441763,140.977474 230.117388,140.931934 229.766836,140.886393 C229.416852,140.840853 229.091339,140.781651 228.792003,140.708217 C228.492668,140.634784 228.243411,140.538011 228.045372,140.419037 C227.846763,140.300064 227.747743,140.145227 227.747743,139.953958 C227.747743,139.368198 228.591687,139.028355 230.278437,138.934428 L230.278437,138.661756 L231.550898,138.661756 L231.550898,138.934428 C232.472806,138.965737 233.140905,139.060233 233.556332,139.218485 C233.971191,139.376737 234.178336,139.61753 234.178336,139.939727 L231.771701,139.939727 L231.771701,139.86914 C231.771701,139.775213 231.711947,139.693241 231.592441,139.622654 C231.472365,139.552066 231.287984,139.516773 231.039296,139.516773 C230.762724,139.516773 230.559562,139.547512 230.430951,139.608422 C230.30177,139.669902 230.236895,139.736504 230.236895,139.80823 C230.236895,139.918096 230.341036,140.004053 230.548181,140.06667 C230.755895,140.129288 231.015964,140.183367 231.329526,140.228907 C231.643089,140.274447 231.979984,140.317711 232.339072,140.360404 C232.69873,140.402529 233.035056,140.461162 233.348618,140.536303 C233.661612,140.612014 233.922819,140.710494 234.129964,140.832314 C234.337109,140.954704 234.44125,141.11751 234.44125,141.321302 C234.44125,141.640652 234.196546,141.876892 233.708276,142.03059 C233.219437,142.183719 232.500691,142.277645 231.550898,142.31237 L231.550898,142.735324 L230.278437,142.735324 L230.278437,142.31237 C229.402625,142.281061 228.739079,142.197381 228.28723,142.06076" id="Fill-107" fill="#F9C557"></path>
                    <path d="M217.991454,137.590424 L217.991454,139.972175 C217.991454,142.057345 222.96748,143.747454 229.105566,143.747454 C235.243651,143.747454 240.219109,142.057345 240.219109,139.972175 L240.219109,137.590424 L217.991454,137.590424" id="Fill-108" fill="#E3AD3B"></path>
                    <path d="M240.219109,137.590424 C240.219109,139.675594 235.243651,141.366273 229.105566,141.366273 C222.96748,141.366273 217.991454,139.675594 217.991454,137.590424 C217.991454,135.504684 222.96748,133.814575 229.105566,133.814575 C235.243651,133.814575 240.219109,135.504684 240.219109,137.590424" id="Fill-109" fill="#F9C557"></path>
                    <path d="M238.152214,137.590424 C238.152214,139.287364 234.10151,140.663816 229.105566,140.663816 C224.109622,140.663816 220.058918,139.287364 220.058918,137.590424 C220.058918,135.892914 224.109622,134.517032 229.105566,134.517032 C234.10151,134.517032 238.152214,135.892914 238.152214,137.590424" id="Fill-110" fill="#E3AD3B"></path>
                    <path d="M226.367727,138.952644 C225.915878,138.816593 225.689954,138.599708 225.689954,138.301989 L225.689954,138.175046 L228.179105,138.175046 L228.179105,138.264418 C228.179105,138.405593 228.257638,138.502935 228.414135,138.555875 C228.570632,138.609385 228.778914,138.635571 229.036707,138.635571 C229.304174,138.635571 229.509043,138.60597 229.651882,138.546198 C229.79472,138.486996 229.866424,138.414701 229.866424,138.330452 C229.866424,138.224001 229.766836,138.139183 229.568796,138.076565 C229.370757,138.013947 229.122069,137.959868 228.822734,137.914328 C228.522829,137.869357 228.197885,137.823817 227.847332,137.778277 C227.49678,137.732737 227.171836,137.672965 226.8725,137.599532 C226.573164,137.526098 226.323908,137.429895 226.125868,137.310921 C225.92726,137.191947 225.82824,137.036542 225.82824,136.845842 C225.82824,136.260082 226.672184,135.920238 228.358934,135.826312 L228.358934,135.55364 L229.631395,135.55364 L229.631395,135.826312 C230.553303,135.85762 231.221401,135.952686 231.63626,136.110368 C232.051118,136.26862 232.258832,136.508845 232.258832,136.831611 L229.852766,136.831611 L229.852766,136.761024 C229.852766,136.667097 229.792444,136.585125 229.672937,136.514537 C229.552862,136.44395 229.36848,136.408657 229.119793,136.408657 C228.84322,136.408657 228.640059,136.439396 228.511447,136.500306 C228.382266,136.561216 228.317391,136.627819 228.317391,136.700114 C228.317391,136.80941 228.421533,136.895936 228.628678,136.958554 C228.836391,137.021172 229.096461,137.075251 229.410023,137.120222 C229.723586,137.165762 230.059911,137.209594 230.419569,137.252288 C230.779227,137.294413 231.115553,137.353046 231.429115,137.428187 C231.742678,137.503328 232.003316,137.601809 232.210461,137.724198 C232.417605,137.846587 232.521747,138.009393 232.521747,138.212616 C232.521747,138.531967 232.277043,138.768776 231.788773,138.921904 C231.299934,139.075602 230.580618,139.169529 229.631395,139.204253 L229.631395,139.627208 L228.358934,139.627208 L228.358934,139.204253 C227.483122,139.172945 226.819576,139.088695 226.367727,138.952644" id="Fill-111" fill="#F9C557"></path>
                    <path d="M219.14327,134.482307 L219.14327,136.863489 C219.14327,138.949229 224.119296,140.639338 230.257382,140.639338 C236.395467,140.639338 241.370924,138.949229 241.370924,136.863489 L241.370924,134.482307 L219.14327,134.482307" id="Fill-112" fill="#E3AD3B"></path>
                    <path d="M241.370924,134.482307 C241.370924,136.567478 236.395467,138.257587 230.257382,138.257587 C224.119296,138.257587 219.14327,136.567478 219.14327,134.482307 C219.14327,132.396568 224.119296,130.706458 230.257382,130.706458 C236.395467,130.706458 241.370924,132.396568 241.370924,134.482307" id="Fill-113" fill="#F9C557"></path>
                    <path d="M239.30403,134.482307 C239.30403,136.179248 235.253326,137.55513 230.257382,137.55513 C225.260868,137.55513 221.210734,136.179248 221.210734,134.482307 C221.210734,132.784798 225.260868,131.408346 230.257382,131.408346 C235.253326,131.408346 239.30403,132.784798 239.30403,134.482307" id="Fill-114" fill="#E3AD3B"></path>
                    <path d="M227.519543,135.844528 C227.067694,135.707907 226.84177,135.491022 226.84177,135.193873 L226.84177,135.066929 L229.330921,135.066929 L229.330921,135.156302 C229.330921,135.296907 229.409454,135.394249 229.565951,135.44719 C229.722447,135.500699 229.930161,135.527454 230.188523,135.527454 C230.45599,135.527454 230.660859,135.497853 230.803697,135.438082 C230.946536,135.37888 231.01824,135.306584 231.01824,135.221766 C231.01824,135.115316 230.918651,135.031066 230.720612,134.968449 C230.522572,134.905831 230.273316,134.851752 229.974549,134.806212 C229.674645,134.760672 229.349132,134.715701 228.999148,134.670161 C228.648595,134.62462 228.323651,134.565418 228.024316,134.491416 C227.724411,134.417982 227.475724,134.321778 227.277684,134.202235 C227.079076,134.083262 226.980056,133.928425 226.980056,133.737157 C226.980056,133.151965 227.824,132.811553 229.51075,132.717626 L229.51075,132.445524 L230.782641,132.445524 L230.782641,132.717626 C231.705118,132.749504 232.373217,132.844 232.788076,133.002252 C233.202934,133.160504 233.410648,133.400729 233.410648,133.723494 L231.004013,133.723494 L231.004013,133.652907 C231.004013,133.558411 230.94426,133.476439 230.824753,133.405852 C230.704678,133.335834 230.520296,133.30054 230.271609,133.30054 C229.995036,133.30054 229.791875,133.33128 229.662694,133.39162 C229.533513,133.4531 229.469207,133.519702 229.469207,133.591997 C229.469207,133.701294 229.573349,133.787251 229.780493,133.850438 C229.988207,133.913055 230.248276,133.966565 230.561839,134.012105 C230.875401,134.057645 231.211727,134.101478 231.570816,134.143602 C231.931043,134.186296 232.267368,134.244929 232.580931,134.320071 C232.893924,134.395212 233.154563,134.493693 233.362276,134.615512 C233.569421,134.737902 233.673563,134.900708 233.673563,135.1045 C233.673563,135.42385 233.428859,135.660659 232.94002,135.813788 C232.45175,135.967486 231.732434,136.061413 230.782641,136.095568 L230.782641,136.518522 L229.51075,136.518522 L229.51075,136.095568 C228.634938,136.064259 227.971391,135.980579 227.519543,135.844528" id="Fill-115" fill="#F9C557"></path>
                    <g id="Group-118" transform="translate(237.184211, 126.987535)">
                        <mask id="mask-2" fill="white">
                            <use xlink:href="#path-1"></use>
                        </mask>
                        <g id="Clip-117"></g>
                        <polygon id="Fill-116" fill="#9F7E5C" mask="url(#mask-2)" points="0.493960526 27.6343421 22.3067566 27.6343421 22.3067566 0.309103878 0.493960526 0.309103878"></polygon>
                    </g>
                    <path d="M242.858497,146.541913 C242.531845,146.158237 242.220559,145.765453 241.922931,145.362422 C242.554609,144.887666 242.906868,144.361108 242.906868,143.806657 L242.906868,146.188407 C242.906868,146.30795 242.890365,146.425785 242.858497,146.541913" id="Fill-120" fill="#D6A438"></path>
                    <path d="M241.922931,145.362422 C241.715786,145.080643 241.514901,144.794878 241.321414,144.50456 C241.848382,144.065097 242.139181,143.584079 242.139181,143.080291 L242.139181,142.425082 C242.63428,142.853159 242.906868,143.319377 242.906868,143.806657 C242.906868,144.361108 242.554609,144.887666 241.922931,145.362422" id="Fill-121" fill="#EABA50"></path>
                    <path d="M241.321414,144.50456 C240.950944,143.94897 240.605513,143.376871 240.282845,142.788834 C241.455148,142.189981 242.139181,141.471584 242.139181,140.69854 L242.139181,143.080291 C242.139181,143.584079 241.848382,144.065097 241.321414,144.50456" id="Fill-122" fill="#D6A438"></path>
                    <path d="M240.282845,142.788834 C240.069441,142.400604 239.86628,142.004974 239.672793,141.603651 C239.932293,141.317886 240.071717,141.013906 240.071717,140.69854 C240.071717,140.665524 240.07001,140.631938 240.066595,140.598921 C240.167322,140.395129 240.219109,140.185644 240.219109,139.972175 L240.219109,138.576938 C241.430678,139.181483 242.139181,139.911834 242.139181,140.69854 C242.139181,141.471584 241.455148,142.189981 240.282845,142.788834" id="Fill-123" fill="#EABA50"></path>
                    <path d="M239.672793,141.603651 C239.622714,141.499478 239.573204,141.394735 239.523694,141.289424 C239.766122,141.068554 239.949365,140.837438 240.066595,140.598921 C240.07001,140.631938 240.071717,140.665524 240.071717,140.69854 C240.071717,141.013906 239.932293,141.317886 239.672793,141.603651" id="Fill-124" fill="#D6A438"></path>
                    <path d="M239.523694,141.289424 C239.247122,140.695694 238.990467,140.087163 238.752592,139.466679 C239.002418,139.318104 239.223789,139.163837 239.413862,139.003877 C239.713766,138.85644 239.982941,138.701035 240.219109,138.539367 L240.219109,139.972175 C240.219109,140.185644 240.167322,140.395129 240.066595,140.598921 C239.949365,140.837438 239.766122,141.068554 239.523694,141.289424" id="Fill-125" fill="#D6A438"></path>
                    <path id="Fill-126" fill="#EABA50"></path>
                    <path d="M238.697391,139.320381 C238.436184,138.62817 238.19774,137.920021 237.980352,137.197071 C240.071148,136.510553 241.370924,135.547947 241.370924,134.482307 L241.370924,136.863489 C241.370924,137.465188 240.956635,138.03444 240.219109,138.539367 C239.982941,138.701035 239.713766,138.85644 239.413862,139.003877 C239.191352,139.113742 238.95177,139.219623 238.697391,139.320381" id="Fill-127" fill="#D6A438"></path>
                    <path d="M237.980352,137.197071 C237.883609,136.877151 237.791418,136.553816 237.703211,136.228204 C238.712187,135.732385 239.30403,135.130686 239.30403,134.482307 C239.30403,133.780989 238.612599,133.134319 237.448832,132.616868 C237.519967,132.56222 237.595086,132.507572 237.673618,132.454632 L237.678171,131.671341 C239.944812,132.362413 241.370924,133.366004 241.370924,134.482307 C241.370924,135.547947 240.071148,136.510553 237.980352,137.197071" id="Fill-128" fill="#EABA50"></path>
                    <path d="M237.703211,136.228204 C237.423224,135.196719 237.181934,134.137341 236.97422,133.054623 C237.106816,132.904341 237.265589,132.758612 237.448832,132.616868 C238.612599,133.134319 239.30403,133.780989 239.30403,134.482307 C239.30403,135.130686 238.712188,135.732385 237.703211,136.228204" id="Fill-129" fill="#D6A438"></path>
                    <path d="M234.251178,153.353583 L234.238089,155.735334 C234.226707,157.820504 239.193059,159.538507 245.330576,159.571524 C251.46923,159.605109 256.453793,157.941755 256.465174,155.856584 L256.478263,153.475403 L234.251178,153.353583" id="Fill-130" fill="#E3AD3B"></path>
                    <path d="M256.478263,153.475403 C256.466882,155.560573 251.48175,157.223928 245.343664,157.190342 C239.206148,157.156756 234.239796,155.438753 234.251178,153.353583 C234.262559,151.268413 239.247691,149.605058 245.385207,149.638644 C251.523293,149.67223 256.489645,151.390233 256.478263,153.475403" id="Fill-131" fill="#F9C557"></path>
                    <path d="M254.410799,153.464018 C254.401694,155.161528 250.344161,156.515209 245.347648,156.487885 C240.351704,156.460561 236.308967,155.062478 236.318641,153.364968 C236.327747,151.667458 240.38528,150.313777 245.381224,150.341101 C250.377737,150.368425 254.420474,151.766508 254.410799,153.464018" id="Fill-132" fill="#E3AD3B"></path>
                    <path d="M242.619484,154.761913 C242.168204,154.623015 241.943418,154.404992 241.945125,154.107842 L241.946263,153.98033 L244.435414,153.993992 L244.434845,154.083934 C244.433707,154.224539 244.511671,154.321881 244.668168,154.37596 C244.824095,154.430039 245.031809,154.457932 245.290171,154.45964 C245.557069,154.460778 245.762507,154.432316 245.905914,154.373114 C246.048753,154.314481 246.121026,154.242755 246.121595,154.158506 C246.122164,154.052055 246.023145,153.967237 245.825105,153.903481 C245.627635,153.839724 245.378378,153.783938 245.080181,153.737259 C244.780276,153.690011 244.455332,153.642763 244.105349,153.595515 C243.755365,153.548267 243.430421,153.486788 243.131655,153.411647 C242.832319,153.336506 242.583632,153.238594 242.38673,153.118482 C242.188691,152.99837 242.090809,152.842964 242.091947,152.651695 C242.094793,152.066504 242.939875,151.731215 244.627763,151.646396 L244.62947,151.373724 L245.901362,151.380555 L245.899655,151.653227 C246.821562,151.689659 247.489092,151.78814 247.903382,151.948669 C248.317671,152.108629 248.523678,152.350561 248.52197,152.673327 L246.115336,152.659665 L246.115905,152.589647 C246.116474,152.49572 246.05672,152.413179 245.937783,152.342022 C245.818276,152.270866 245.633895,152.234434 245.385207,152.233295 C245.108635,152.231587 244.905474,152.260619 244.776293,152.32096 C244.646543,152.38187 244.582237,152.447903 244.581668,152.520198 C244.581099,152.629494 244.684102,152.716021 244.891247,152.779777 C245.098391,152.843533 245.358461,152.89932 245.671454,152.946568 C245.984447,152.993816 246.321342,153.039356 246.680431,153.083188 C247.03952,153.12759 247.375845,153.187931 247.688839,153.265349 C248.001832,153.341629 248.261901,153.441817 248.468477,153.565345 C248.675053,153.688303 248.778625,153.852248 248.777487,154.055471 C248.775211,154.374821 248.529937,154.609922 248.039961,154.761343 C247.550553,154.911626 246.831237,155.001568 245.881444,155.031169 L245.879168,155.454123 L244.606707,155.447292 L244.609553,155.023769 C243.733171,154.987906 243.070194,154.90081 242.619484,154.761913" id="Fill-133" fill="#F9C557"></path>
                    <path d="M235.419497,150.251729 L235.406408,152.633479 C235.395026,154.71865 240.361947,156.436083 246.499464,156.470238 C252.637549,156.503255 257.622681,154.8399 257.634063,152.75473 L257.647151,150.373548 L235.419497,150.251729" id="Fill-134" fill="#E3AD3B"></path>
                    <path d="M257.647151,150.373548 C257.63577,152.458719 252.650638,154.122073 246.512553,154.087918 C240.374467,154.054902 235.408115,152.336899 235.419497,150.251729 C235.430878,148.166558 240.41601,146.503204 246.553526,146.536789 C252.691612,146.570375 257.658533,148.287809 257.647151,150.373548" id="Fill-135" fill="#F9C557"></path>
                    <path d="M255.579688,150.362163 C255.570582,152.059104 251.51248,153.413355 246.516536,153.38603 C241.520592,153.358706 237.477855,151.960623 237.486961,150.263114 C237.496066,148.565604 241.554168,147.211922 246.550112,147.239247 C251.546056,147.266571 255.588793,148.664654 255.579688,150.362163" id="Fill-136" fill="#E3AD3B"></path>
                    <path d="M243.788372,151.660058 C243.337092,151.521161 243.112306,151.303137 243.114013,151.005418 L243.114582,150.879044 L245.603734,150.892137 L245.603164,150.98151 C245.602595,151.122115 245.680559,151.220026 245.837056,151.274105 C245.992984,151.328184 246.200697,151.356078 246.45849,151.357785 C246.725957,151.358924 246.930826,151.330461 247.074234,151.271828 C247.217641,151.213195 247.289345,151.14147 247.289914,151.056651 C247.290484,150.950201 247.191464,150.864813 246.993993,150.801057 C246.795954,150.73787 246.547266,150.682083 246.2485,150.635404 C245.948595,150.588157 245.62422,150.540909 245.274237,150.493661 C244.924253,150.446413 244.599309,150.384934 244.299974,150.309792 C244.001207,150.234651 243.75252,150.13674 243.555049,150.016627 C243.357579,149.896515 243.259128,149.741109 243.260266,149.549841 C243.263681,148.96408 244.108763,148.62936 245.796651,148.544542 L245.797789,148.27187 L247.07025,148.278701 L247.068543,148.551373 C247.989882,148.587805 248.65798,148.686285 249.07227,148.846245 C249.48599,149.006774 249.692566,149.248137 249.690289,149.570903 L247.284224,149.55781 L247.284793,149.487223 C247.285362,149.393296 247.225609,149.310755 247.106671,149.239598 C246.986595,149.168442 246.802783,149.132579 246.553526,149.130871 C246.277523,149.129163 246.074362,149.158765 245.945181,149.219105 C245.815431,149.279446 245.750556,149.346048 245.749987,149.417774 C245.749418,149.52764 245.852421,149.614166 246.060135,149.677922 C246.266711,149.741679 246.52678,149.797465 246.840342,149.844144 C247.153336,149.891392 247.489661,149.936932 247.84875,149.981334 C248.208408,150.025735 248.544734,150.086076 248.857727,150.162925 C249.17072,150.239774 249.430789,150.339963 249.637365,150.46349 C249.843941,150.587018 249.946944,150.750393 249.945806,150.953616 C249.944099,151.272967 249.698257,151.508068 249.208849,151.65892 C248.719441,151.809771 247.999556,151.899713 247.049763,151.929314 L247.048056,152.352269 L245.775595,152.344868 L245.777872,151.922483 C244.902628,151.886051 244.238513,151.798386 243.788372,151.660058" id="Fill-137" fill="#F9C557"></path>
                    <path d="M234.668882,147.139058 L234.655793,149.520809 C234.644411,151.606548 239.610763,153.323982 245.748849,153.357568 C251.886365,153.390584 256.871497,151.727799 256.882878,149.642629 L256.895967,147.260878 L234.668882,147.139058" id="Fill-138" fill="#E3AD3B"></path>
                    <path d="M256.895967,147.260878 C256.884586,149.346048 251.899454,151.009403 245.761937,150.975817 C239.623852,150.942231 234.6575,149.224229 234.668882,147.139058 C234.680263,145.053888 239.664826,143.390533 245.80348,143.424688 C251.940997,143.457705 256.907349,145.175708 256.895967,147.260878" id="Fill-139" fill="#F9C557"></path>
                    <path d="M254.828503,147.249493 C254.819398,148.947003 250.761865,150.300684 245.765921,150.27336 C240.769408,150.246036 236.726671,148.847953 236.735776,147.150443 C236.745451,145.452934 240.802984,144.099252 245.799497,144.126576 C250.795441,144.1539 254.837609,145.551983 254.828503,147.249493" id="Fill-140" fill="#E3AD3B"></path>
                    <path d="M243.037188,148.547388 C242.586477,148.40849 242.361691,148.191036 242.363398,147.893317 L242.363967,147.766374 L244.853118,147.780036 L244.852549,147.869409 C244.85198,148.010014 244.929375,148.107925 245.085872,148.161435 C245.242368,148.216083 245.449513,148.243407 245.707875,148.245115 C245.975342,148.246253 246.180211,148.217791 246.323618,148.159158 C246.467026,148.100525 246.53873,148.028799 246.53873,147.943981 C246.539299,147.83753 246.440849,147.752712 246.242809,147.688956 C246.045339,147.625199 245.796651,147.569982 245.497316,147.522734 C245.19798,147.475486 244.873605,147.428238 244.523053,147.38099 C244.173069,147.333742 243.848125,147.272263 243.549359,147.197122 C243.250023,147.121981 243.001905,147.024639 242.804434,146.903957 C242.606395,146.783845 242.508513,146.628439 242.509651,146.43717 C242.512497,145.851979 243.358148,145.51669 245.045467,145.431871 L245.047174,145.159199 L246.319066,145.1666 L246.317928,145.438702 C247.239266,145.475134 247.907365,145.573615 248.321086,145.734144 C248.735375,145.894673 248.941382,146.136036 248.939674,146.458802 L246.533609,146.445709 L246.533609,146.375122 C246.534178,146.281195 246.474993,146.198654 246.355487,146.127497 C246.23598,146.056341 246.052168,146.019909 245.802911,146.01877 C245.526339,146.017062 245.323178,146.046094 245.193997,146.107004 C245.064816,146.167345 244.999941,146.233378 244.999372,146.305673 C244.998803,146.41497 245.101806,146.501496 245.308951,146.565821 C245.516095,146.629008 245.776164,146.684795 246.089158,146.732043 C246.40272,146.779291 246.739046,146.824831 247.098135,146.869233 C247.457224,146.913065 247.794118,146.973406 248.106543,147.050824 C248.419536,147.127673 248.679605,147.227861 248.886181,147.35082 C249.092757,147.474348 249.196329,147.637723 249.195191,147.840946 C249.193484,148.160866 248.947072,148.395967 248.458234,148.546819 C247.968826,148.69767 247.24951,148.787043 246.299148,148.816644 L246.296872,149.239598 L245.02498,149.232767 L245.027257,148.809813 C244.151444,148.773381 243.487898,148.686285 243.037188,148.547388" id="Fill-141" fill="#F9C557"></path>
                    <path d="M232.766451,144.020126 L232.753362,146.401877 C232.74198,148.487616 237.708332,150.20505 243.846418,150.238636 C249.984503,150.272222 254.969066,148.608867 254.980447,146.523697 L254.993536,144.141946 L232.766451,144.020126" id="Fill-142" fill="#E3AD3B"></path>
                    <path d="M254.993536,144.141946 C254.982155,146.227116 249.997592,147.890471 243.859507,147.856885 C237.721421,147.823299 232.755069,146.105866 232.766451,144.020126 C232.777832,141.934956 237.762964,140.27217 243.90048,140.305756 C250.038566,140.339342 255.004918,142.056776 254.993536,144.141946" id="Fill-143" fill="#F9C557"></path>
                    <path d="M252.926072,144.130561 C252.916967,145.828071 248.859434,147.182321 243.862921,147.154997 C238.866977,147.127104 234.82424,145.729021 234.833914,144.031511 C234.84302,142.334001 238.900553,140.980889 243.896497,141.007644 C248.89301,141.035537 252.935747,142.43362 252.926072,144.130561" id="Fill-144" fill="#E3AD3B"></path>
                    <path d="M241.134757,145.429025 C240.683477,145.290127 240.458691,145.072104 240.460398,144.774385 L240.461536,144.647442 L242.950688,144.661104 L242.950118,144.750476 C242.94898,144.891651 243.026944,144.988993 243.183441,145.043072 C243.339368,145.097151 243.547082,145.125044 243.805444,145.126183 C244.072911,145.127891 244.27778,145.098859 244.421188,145.040226 C244.564595,144.981593 244.636299,144.909867 244.636868,144.825048 C244.637438,144.718598 244.538418,144.63378 244.340378,144.570024 C244.142908,144.506267 243.89422,144.45105 243.595454,144.403802 C243.295549,144.357123 242.970605,144.309875 242.620622,144.262058 C242.270638,144.21481 241.945694,144.1539 241.646928,144.07819 C241.347592,144.003618 241.098905,143.905706 240.902003,143.785594 C240.703964,143.665482 240.606082,143.509507 240.60722,143.318807 C240.610066,142.733047 241.455148,142.397758 243.143036,142.312939 L243.144743,142.040267 L244.416635,142.047668 L244.415497,142.320339 C245.336836,142.356771 246.004934,142.454683 246.418655,142.615212 C246.832944,142.775741 247.038951,143.017104 247.037243,143.33987 L244.630609,143.326777 L244.631178,143.25619 C244.631747,143.162263 244.571993,143.079722 244.453056,143.008565 C244.333549,142.937409 244.149168,142.901546 243.90048,142.899838 C243.623908,142.89813 243.420747,142.927731 243.291566,142.988072 C243.161816,143.048413 243.09751,143.115015 243.096941,143.186741 C243.096372,143.296037 243.199375,143.383133 243.40652,143.446889 C243.613664,143.510645 243.873734,143.566432 244.186727,143.613111 C244.500289,143.660359 244.836615,143.705899 245.195704,143.750301 C245.554793,143.794133 245.891118,143.855043 246.204112,143.931892 C246.517105,144.008741 246.777174,144.108929 246.98375,144.231888 C247.190895,144.355416 247.293898,144.518791 247.29276,144.722583 C247.290484,145.041934 247.044641,145.277035 246.555234,145.427886 C246.065826,145.578738 245.34651,145.66868 244.396717,145.697712 L244.394441,146.120666 L243.122549,146.113835 L243.124826,145.690881 C242.249013,145.654449 241.585467,145.567353 241.134757,145.429025" id="Fill-145" fill="#F9C557"></path>
                    <path d="M233.935339,140.918841 L233.92225,143.300022 C233.910868,145.385193 238.87722,147.103195 245.014737,147.136781 C251.152822,147.170367 256.137954,145.507012 256.149336,143.421842 L256.162424,141.040091 L233.935339,140.918841" id="Fill-146" fill="#E3AD3B"></path>
                    <path d="M256.162424,141.040091 C256.151043,143.125262 251.165911,144.788616 245.027826,144.75503 C238.890309,144.721445 233.923957,143.004011 233.935339,140.918841 C233.946151,138.833101 238.931283,137.170316 245.069368,137.203332 C251.207454,137.236918 256.173806,138.954921 256.162424,141.040091" id="Fill-147" fill="#F9C557"></path>
                    <path d="M254.094961,141.028706 C254.085855,142.726216 250.027753,144.079898 245.031809,144.052573 C240.035865,144.025249 235.993128,142.627166 236.002234,140.929657 C236.011339,139.232716 240.069441,137.878465 245.065385,137.905789 C250.061329,137.933114 254.104066,139.331197 254.094961,141.028706" id="Fill-148" fill="#E3AD3B"></path>
                    <path d="M242.303645,142.326601 C241.852365,142.188273 241.627579,141.970249 241.629286,141.67253 L241.630424,141.545587 L244.119007,141.559249 L244.119007,141.648622 C244.117868,141.789227 244.195832,141.887139 244.352329,141.941217 C244.508257,141.995296 244.71597,142.02319 244.973763,142.024328 C245.24123,142.025467 245.446668,141.997004 245.590076,141.938371 C245.732914,141.879738 245.804618,141.808012 245.805187,141.723194 C245.805757,141.616744 245.707306,141.531925 245.509266,141.468169 C245.311227,141.404413 245.062539,141.349195 244.763773,141.301947 C244.463868,141.254699 244.139493,141.207452 243.78951,141.160204 C243.439526,141.112956 243.114582,141.052046 242.815816,140.976335 C242.51648,140.901194 242.267793,140.803852 242.070322,140.68374 C241.872852,140.563627 241.774401,140.407652 241.775539,140.216953 C241.778954,139.631193 242.624036,139.295903 244.311924,139.211084 L244.313062,138.938982 L245.585523,138.945813 L245.583816,139.217916 C246.505155,139.254348 247.173253,139.352828 247.587543,139.513357 C248.001263,139.673886 248.207839,139.915249 248.205562,140.238015 L245.799497,140.224353 L245.800066,140.154335 C245.800635,140.060409 245.740882,139.977867 245.621944,139.906711 C245.501868,139.835554 245.318056,139.799122 245.068799,139.797983 C244.792796,139.796276 244.589635,139.825877 244.460454,139.886217 C244.330704,139.946558 244.265829,140.012591 244.26526,140.084886 C244.264691,140.194183 244.368263,140.281278 244.575408,140.345035 C244.782553,140.408791 245.042622,140.464008 245.355615,140.511256 C245.668609,140.558504 246.005503,140.604044 246.364023,140.648446 C246.723681,140.692278 247.060007,140.753188 247.373,140.830037 C247.685993,140.906886 247.946062,141.007075 248.152638,141.130033 C248.359214,141.253561 248.462217,141.416936 248.461079,141.620729 C248.459372,141.940079 248.21353,142.17518 247.724122,142.326032 C247.234714,142.476314 246.515398,142.566825 245.565605,142.595857 L245.563329,143.018812 L244.290868,143.011981 L244.293145,142.589026 C243.417901,142.552594 242.754355,142.465499 242.303645,142.326601" id="Fill-149" fill="#F9C557"></path>
                    <path d="M235.487786,137.818694 L235.474697,140.200445 C235.463316,142.285615 240.429668,144.003048 246.567753,144.036634 C252.70527,144.07022 257.690401,142.406866 257.701783,140.321695 L257.714872,137.940514 L235.487786,137.818694" id="Fill-150" fill="#E3AD3B"></path>
                    <path d="M257.714872,137.940514 C257.70349,140.025684 252.718359,141.689039 246.580842,141.655453 C240.442757,141.621867 235.476405,139.903864 235.487786,137.818694 C235.499168,135.733524 240.48373,134.070169 246.621816,134.103755 C252.759901,134.137341 257.726253,135.854774 257.714872,137.940514" id="Fill-151" fill="#F9C557"></path>
                    <path d="M255.647408,137.929129 C255.638303,139.626639 251.580201,140.98032 246.584257,140.952996 C241.588312,140.925672 237.545576,139.527589 237.554681,137.830079 C237.563786,136.132569 241.621888,134.778888 246.617832,134.806212 C251.613776,134.833536 255.656513,136.231619 255.647408,137.929129" id="Fill-152" fill="#E3AD3B"></path>
                    <path d="M243.856092,139.226454 C243.404813,139.088126 243.180595,138.870102 243.181734,138.572384 L243.182872,138.44544 L245.672023,138.459102 L245.671454,138.548475 C245.670316,138.68965 245.74828,138.786992 245.904776,138.841071 C246.060704,138.89515 246.268418,138.923043 246.52678,138.924181 C246.794247,138.925889 246.999115,138.897427 247.142523,138.838224 C247.285931,138.779591 247.357066,138.707866 247.357635,138.623616 C247.358204,138.517166 247.259753,138.431778 247.061714,138.368022 C246.864243,138.304266 246.615556,138.249048 246.31622,138.20237 C246.016885,138.155122 245.691941,138.107874 245.341957,138.060626 C244.991974,138.013378 244.66703,137.951899 244.368263,137.876758 C244.068928,137.801616 243.820809,137.703705 243.62277,137.583593 C243.425299,137.463481 243.326849,137.308075 243.327987,137.116806 C243.331401,136.531615 244.177053,136.195756 245.864372,136.111507 L245.866079,135.838835 L247.13797,135.845666 L247.136263,136.118338 C248.058171,136.15477 248.725701,136.253251 249.13999,136.41378 C249.55428,136.57374 249.760286,136.815672 249.758579,137.137868 L247.351944,137.124776 L247.352513,137.054188 C247.353082,136.960262 247.293329,136.87772 247.174391,136.807133 C247.054885,136.735976 246.870503,136.699544 246.621816,136.697837 C246.345243,136.696698 246.142082,136.72573 246.012901,136.786071 C245.883151,136.846411 245.818276,136.913014 245.818276,136.98474 C245.817707,137.094605 245.920711,137.181132 246.127855,137.244888 C246.335,137.308644 246.595069,137.364431 246.908063,137.411679 C247.221625,137.458357 247.557951,137.504467 247.91647,137.548299 C248.276128,137.592701 248.612454,137.653042 248.925447,137.73046 C249.238441,137.80674 249.49851,137.906928 249.705086,138.030456 C249.911661,138.153414 250.014664,138.316789 250.013526,138.520582 C250.012388,138.839932 249.765977,139.075033 249.276569,139.226454 C248.787161,139.376737 248.067845,139.466679 247.118053,139.49628 L247.115776,139.918665 L245.843885,139.911834 L245.846161,139.48888 C244.970349,139.453017 244.306803,139.365921 243.856092,139.226454" id="Fill-153" fill="#F9C557"></path>
                    <path d="M234.736602,134.706024 L234.723513,137.087774 C234.712132,139.172945 239.679053,140.890947 245.816569,140.924533 C251.954655,140.958119 256.939786,139.294765 256.951168,137.209594 L256.964257,134.827843 L234.736602,134.706024" id="Fill-154" fill="#E3AD3B"></path>
                    <path d="M256.964257,134.827843 C256.952875,136.913014 251.967743,138.576368 245.829658,138.542783 C239.691572,138.509197 234.72522,136.791763 234.736602,134.706024 C234.747984,132.620853 239.733115,130.957499 245.871201,130.991084 C252.008717,131.02467 256.975638,132.742673 256.964257,134.827843" id="Fill-155" fill="#F9C557"></path>
                    <path d="M254.896793,134.816458 C254.887118,136.513968 250.829586,137.86765 245.833641,137.840325 C240.837128,137.813001 236.794961,136.414918 236.804066,134.717409 C236.813171,133.019899 240.871273,131.666217 245.867217,131.693542 C250.863161,131.720866 254.905898,133.118949 254.896793,134.816458" id="Fill-156" fill="#E3AD3B"></path>
                    <path d="M243.104908,136.114353 C242.654197,135.976025 242.429411,135.757432 242.431118,135.460283 L242.431687,135.333339 L244.920839,135.347001 L244.92027,135.435805 C244.919701,135.576979 244.997664,135.674891 245.153592,135.7284 C245.310089,135.783048 245.517803,135.810373 245.776164,135.811511 C246.043062,135.813219 246.247931,135.784756 246.391908,135.726123 C246.534747,135.66749 246.606451,135.595765 246.60702,135.510946 C246.607589,135.404496 246.509138,135.319677 246.311099,135.255921 C246.113059,135.192165 245.864372,135.136378 245.565605,135.089699 C245.265701,135.042452 244.941326,134.995204 244.591342,134.947956 C244.240789,134.900708 243.916414,134.839229 243.617079,134.764087 C243.317743,134.688946 243.069625,134.591035 242.872155,134.470922 C242.674115,134.35138 242.576234,134.195404 242.577372,134.004705 C242.580786,133.418945 243.425868,133.083655 245.113757,132.998837 L245.115464,132.726734 L246.386786,132.733565 L246.385648,133.005668 C247.307556,133.0421 247.975086,133.14058 248.389375,133.301109 C248.803095,133.461639 249.009102,133.703001 249.007395,134.025767 L246.601329,134.012105 L246.601898,133.942087 C246.602467,133.848161 246.542714,133.765619 246.423776,133.694463 C246.303701,133.623306 246.119888,133.586874 245.870632,133.585735 C245.594059,133.584028 245.390898,133.613629 245.261717,133.67397 C245.132536,133.73431 245.067661,133.800343 245.067661,133.872639 C245.066523,133.981935 245.170095,134.068461 245.376671,134.132217 C245.583816,134.196543 245.843885,134.25176 246.157447,134.299008 C246.470441,134.345687 246.806766,134.391796 247.165855,134.435629 C247.525513,134.48003 247.861839,134.54094 248.174832,134.617789 C248.487257,134.694639 248.747895,134.794827 248.95447,134.917785 C249.161046,135.040744 249.264049,135.204688 249.262911,135.407911 C249.261204,135.727831 249.015362,135.962932 248.525954,136.113784 C248.036546,136.264066 247.31723,136.354578 246.367437,136.383609 L246.364592,136.806564 L245.092701,136.799733 L245.094977,136.376778 C244.219164,136.340346 243.556187,136.253251 243.104908,136.114353" id="Fill-157" fill="#F9C557"></path>
                    <path d="M235.90549,131.604169 L235.892401,133.98592 C235.88102,136.07109 240.847372,137.789093 246.985457,137.822109 C253.123543,137.855695 258.108674,136.192341 258.119487,134.10717 L258.132576,131.725989 L235.90549,131.604169" id="Fill-158" fill="#E3AD3B"></path>
                    <path d="M258.132576,131.725989 C258.121194,133.811159 253.136063,135.474514 246.998546,135.440928 C240.860461,135.407342 235.894109,133.689339 235.90549,131.604169 C235.916872,129.518999 240.902003,127.855644 247.03952,127.88923 C253.177605,127.922816 258.143957,129.640819 258.132576,131.725989" id="Fill-159" fill="#F9C557"></path>
                    <path d="M256.065112,131.714604 C256.056007,133.412114 251.998474,134.765795 247.001961,134.738471 C242.006016,134.711147 237.96328,133.313064 237.972954,131.615554 C237.982059,129.918044 242.039592,128.564363 247.036105,128.591687 C252.032049,128.619011 256.074786,130.017094 256.065112,131.714604" id="Fill-160" fill="#E3AD3B"></path>
                    <path d="M244.273796,133.012499 C243.823086,132.873601 243.598299,132.656147 243.599438,132.358428 L243.600576,132.230916 L246.089727,132.244578 L246.089158,132.334519 C246.08802,132.475125 246.165984,132.573036 246.32248,132.626546 C246.478977,132.680625 246.686122,132.708518 246.944484,132.710226 C247.211951,132.711364 247.416819,132.682902 247.560227,132.623699 C247.703635,132.565066 247.775339,132.49391 247.775908,132.409091 C247.776477,132.302641 247.677457,132.217823 247.479987,132.154066 C247.281947,132.09031 247.03326,132.034524 246.733924,131.987845 C246.434589,131.940597 246.110214,131.893349 245.759661,131.846101 C245.409678,131.798853 245.084734,131.737374 244.785967,131.662233 C244.486632,131.587091 244.238513,131.48918 244.041043,131.369068 C243.843003,131.248956 243.745122,131.09355 243.74626,130.902281 C243.749674,130.31709 244.594757,129.981801 246.282076,129.896982 L246.283783,129.62431 L247.555674,129.631711 L247.554536,129.903813 C248.475875,129.940245 249.143974,130.038726 249.557694,130.199255 C249.971984,130.359215 250.17799,130.601147 250.176283,130.923343 L247.770217,130.910251 L247.770786,130.840233 C247.771355,130.746306 247.711602,130.663765 247.592664,130.592608 C247.472589,130.521452 247.288207,130.485019 247.03952,130.483881 C246.762947,130.482173 246.559786,130.511205 246.430605,130.571546 C246.301424,130.632456 246.236549,130.698489 246.23598,130.770784 C246.235411,130.88008 246.338414,130.966607 246.545559,131.030932 C246.752704,131.094119 247.012773,131.149906 247.325766,131.197154 C247.639329,131.244402 247.975655,131.289942 248.334743,131.333774 C248.694401,131.378176 249.030158,131.438517 249.34372,131.515935 C249.656145,131.592784 249.916214,131.692972 250.122789,131.815931 C250.329934,131.939458 250.432938,132.102834 250.431799,132.306057 C250.430092,132.625407 250.183681,132.860508 249.694273,133.011929 C249.205434,133.162212 248.485549,133.252154 247.535757,133.281755 L247.53348,133.704709 L246.261589,133.697878 L246.263865,133.274355 C245.388053,133.238492 244.725076,133.151396 244.273796,133.012499" id="Fill-161" fill="#F9C557"></path>
                    <path d="M285.954845,151.294598 L285.954845,153.67578 C285.954845,155.761519 290.930303,157.452198 297.068388,157.452198 C303.206474,157.452198 308.1825,155.761519 308.1825,153.67578 L308.1825,151.294598 L285.954845,151.294598" id="Fill-162" fill="#E3AD3B"></path>
                    <path d="M308.1825,151.294598 C308.1825,153.379769 303.206474,155.070447 297.068388,155.070447 C290.930303,155.070447 285.954845,153.379769 285.954845,151.294598 C285.954845,149.209428 290.930303,147.518749 297.068388,147.518749 C303.206474,147.518749 308.1825,149.209428 308.1825,151.294598" id="Fill-163" fill="#F9C557"></path>
                    <path d="M306.115036,151.294598 C306.115036,152.992108 302.064901,154.36799 297.068388,154.36799 C292.072444,154.36799 288.02174,152.992108 288.02174,151.294598 C288.02174,149.597089 292.072444,148.221206 297.068388,148.221206 C302.064901,148.221206 306.115036,149.597089 306.115036,151.294598" id="Fill-164" fill="#E3AD3B"></path>
                    <path d="M294.330549,152.656819 C293.878701,152.520767 293.653345,152.303882 293.653345,152.006163 L293.653345,151.87922 L296.142497,151.87922 L296.142497,151.968593 C296.142497,152.109767 296.220461,152.20654 296.377526,152.26005 C296.534023,152.31299 296.741737,152.339745 296.99953,152.339745 C297.266997,152.339745 297.471865,152.310144 297.614704,152.250373 C297.757543,152.19117 297.829247,152.118875 297.829247,152.034626 C297.829247,151.928176 297.730227,151.843357 297.531618,151.78074 C297.333579,151.718122 297.084891,151.664043 296.785556,151.618503 C296.485651,151.572963 296.160707,151.527992 295.810724,151.482452 C295.460171,151.436911 295.135227,151.377709 294.835322,151.303706 C294.535987,151.230273 294.28673,151.134069 294.088691,151.014526 C293.890651,150.896122 293.791632,150.741285 293.791632,150.550017 C293.791632,149.964256 294.635007,149.624413 296.321757,149.530486 L296.321757,149.257814 L297.594217,149.257814 L297.594217,149.530486 C298.516125,149.561795 299.184224,149.656291 299.599082,149.814543 C300.01451,149.972795 300.221655,150.213019 300.221655,150.535785 L297.81502,150.535785 L297.81502,150.465198 C297.81502,150.371271 297.755266,150.289299 297.63576,150.218712 C297.515684,150.148125 297.331303,150.112831 297.082615,150.112831 C296.806043,150.112831 296.603451,150.143571 296.47427,150.204481 C296.345089,150.265391 296.280783,150.331993 296.280783,150.404288 C296.280783,150.514154 296.384355,150.599542 296.592069,150.662729 C296.798645,150.725346 297.059283,150.779425 297.372845,150.824965 C297.686408,150.869936 298.023303,150.913769 298.382391,150.955893 C298.742049,150.998587 299.078375,151.05722 299.391938,151.132361 C299.7055,151.207503 299.966138,151.305983 300.173283,151.428373 C300.380428,151.550193 300.484569,151.713568 300.484569,151.916791 C300.484569,152.236141 300.239865,152.47295 299.751595,152.626648 C299.262757,152.779777 298.54401,152.873704 297.594217,152.908428 L297.594217,153.330813 L296.321757,153.330813 L296.321757,152.908428 C295.445944,152.87655 294.782398,152.793439 294.330549,152.656819" id="Fill-165" fill="#F9C557"></path>
                    <path d="M287.106661,148.185913 L287.106661,150.567663 C287.106661,152.652834 292.082118,154.343512 298.220204,154.343512 C304.358289,154.343512 309.334316,152.652834 309.334316,150.567663 L309.334316,148.185913 L287.106661,148.185913" id="Fill-166" fill="#E3AD3B"></path>
                    <path d="M309.334316,148.185913 C309.334316,150.271652 304.358289,151.961762 298.220204,151.961762 C292.082118,151.961762 287.106661,150.271652 287.106661,148.185913 C287.106661,146.100742 292.082118,144.410064 298.220204,144.410064 C304.358289,144.410064 309.334316,146.100742 309.334316,148.185913" id="Fill-167" fill="#F9C557"></path>
                    <path d="M307.266852,148.185913 C307.266852,149.883422 303.216717,151.259305 298.220204,151.259305 C293.22426,151.259305 289.173556,149.883422 289.173556,148.185913 C289.173556,146.488403 293.22426,145.112521 298.220204,145.112521 C303.216717,145.112521 307.266852,146.488403 307.266852,148.185913" id="Fill-168" fill="#E3AD3B"></path>
                    <path d="M295.482365,149.548702 C295.030516,149.412651 294.804592,149.195766 294.804592,148.898047 L294.804592,148.771104 L297.293743,148.771104 L297.293743,148.860476 C297.293743,149.001082 297.372276,149.098424 297.529342,149.151364 C297.68527,149.204874 297.893553,149.231629 298.151345,149.231629 C298.418812,149.231629 298.623681,149.201458 298.76652,149.142256 C298.909359,149.082485 298.981062,149.010759 298.981062,148.92594 C298.981062,148.81949 298.882043,148.735241 298.683434,148.672623 C298.485395,148.609436 298.236707,148.555927 297.937372,148.510386 C297.636898,148.464846 297.312523,148.419306 296.96197,148.373766 C296.611418,148.328795 296.286474,148.269024 295.987138,148.19559 C295.687803,148.121587 295.438546,148.025953 295.240507,147.906979 C295.041898,147.787436 294.943447,147.6326 294.943447,147.441331 C294.943447,146.855571 295.786822,146.515727 297.473572,146.421801 L297.473572,146.149698 L298.746033,146.149698 L298.746033,146.421801 C299.667941,146.453109 300.336039,146.548175 300.750898,146.706427 C301.166326,146.864109 301.37347,147.104903 301.37347,147.4271 L298.966836,147.4271 L298.966836,147.357082 C298.966836,147.263155 298.907082,147.180614 298.787576,147.110596 C298.6675,147.040008 298.483118,147.004715 298.234431,147.004715 C297.957289,147.004715 297.754697,147.034885 297.625516,147.096364 C297.496336,147.157274 297.432599,147.223877 297.432599,147.295602 C297.432599,147.405468 297.536171,147.491994 297.743885,147.554043 C297.950461,147.616661 298.211099,147.67074 298.524661,147.71628 C298.838224,147.76182 299.174549,147.805652 299.534207,147.847777 C299.893865,147.889902 300.230191,147.948535 300.543753,148.024245 C300.856747,148.098817 301.117954,148.197867 301.325099,148.320256 C301.532243,148.442076 301.636385,148.604882 301.636385,148.808675 C301.636385,149.128025 301.391681,149.364834 300.902842,149.517963 C300.414572,149.671661 299.695826,149.765587 298.746033,149.799742 L298.746033,150.222697 L297.473572,150.222697 L297.473572,149.799742 C296.59776,149.769003 295.934214,149.684753 295.482365,149.548702" id="Fill-169" fill="#F9C557"></path>
                    <path d="M286.338405,145.077796 L286.338405,147.459547 C286.338405,149.544717 291.314431,151.235396 297.452516,151.235396 C303.590602,151.235396 308.566628,149.544717 308.566628,147.459547 L308.566628,145.077796 L286.338405,145.077796" id="Fill-170" fill="#E3AD3B"></path>
                    <path d="M308.566628,145.077796 C308.566628,147.162967 303.590602,148.853645 297.452516,148.853645 C291.314431,148.853645 286.338405,147.162967 286.338405,145.077796 C286.338405,142.992626 291.314431,141.301947 297.452516,141.301947 C303.590602,141.301947 308.566628,142.992626 308.566628,145.077796" id="Fill-171" fill="#F9C557"></path>
                    <path d="M306.499164,145.077796 C306.499164,146.775306 302.44903,148.151188 297.452516,148.151188 C292.456003,148.151188 288.405868,146.775306 288.405868,145.077796 C288.405868,143.380287 292.456003,142.004404 297.452516,142.004404 C302.44903,142.004404 306.499164,143.380287 306.499164,145.077796" id="Fill-172" fill="#E3AD3B"></path>
                    <path d="M294.714678,146.440017 C294.262829,146.303965 294.036905,146.08708 294.036905,145.789361 L294.036905,145.662988 L296.526056,145.662988 L296.526056,145.751791 C296.526056,145.892965 296.604589,145.989738 296.761086,146.043248 C296.917582,146.096758 297.125296,146.122943 297.383658,146.122943 C297.651125,146.122943 297.855993,146.093342 297.998832,146.033571 C298.141671,145.974368 298.213375,145.902643 298.213375,145.817824 C298.213375,145.711374 298.113786,145.626555 297.915747,145.563938 C297.717707,145.50132 297.468451,145.447241 297.169684,145.40227 C296.869211,145.35673 296.544836,145.31119 296.194283,145.26565 C295.84373,145.220109 295.518786,145.160907 295.219451,145.086904 C294.919546,145.01404 294.670859,144.917267 294.472819,144.798294 C294.274211,144.67932 294.175191,144.524483 294.175191,144.333215 C294.175191,143.747454 295.018566,143.407611 296.705885,143.313684 L296.705885,143.041012 L297.978345,143.041012 L297.978345,143.313684 C298.900253,143.344993 299.568352,143.439489 299.983211,143.597741 C300.398638,143.756562 300.605783,143.996217 300.605783,144.318983 L298.199148,144.318983 L298.199148,144.248396 C298.199148,144.15447 298.139395,144.072497 298.019888,144.00191 C297.899812,143.931323 297.715431,143.896598 297.466174,143.896598 C297.189602,143.896598 296.98701,143.926769 296.857829,143.987679 C296.728648,144.049158 296.664911,144.115191 296.664911,144.187486 C296.664911,144.297352 296.768484,144.383309 296.975628,144.445927 C297.182773,144.508544 297.443411,144.562623 297.756974,144.608163 C298.070536,144.653704 298.406862,144.696967 298.765951,144.739661 C299.126178,144.781785 299.462503,144.840418 299.776066,144.91556 C300.089059,144.990701 300.350266,145.089751 300.556842,145.211571 C300.764556,145.33396 300.868697,145.496766 300.868697,145.700558 C300.868697,146.019909 300.623993,146.256148 300.135155,146.409846 C299.646885,146.562975 298.928138,146.656902 297.978345,146.691626 L297.978345,147.11458 L296.705885,147.11458 L296.705885,146.691626 C295.830072,146.660317 295.166526,146.576637 294.714678,146.440017" id="Fill-173" fill="#F9C557"></path>
                    <path d="M284.418901,141.96968 L284.418901,144.350861 C284.418901,146.436601 289.394928,148.126711 295.533013,148.126711 C301.671099,148.126711 306.647125,146.436601 306.647125,144.350861 L306.647125,141.96968 L284.418901,141.96968" id="Fill-174" fill="#E3AD3B"></path>
                    <path d="M306.647125,141.96968 C306.647125,144.05485 301.671099,145.745529 295.533013,145.745529 C289.394928,145.745529 284.418901,144.05485 284.418901,141.96968 C284.418901,139.88394 289.394928,138.193831 295.533013,138.193831 C301.671099,138.193831 306.647125,139.88394 306.647125,141.96968" id="Fill-175" fill="#F9C557"></path>
                    <path d="M304.579661,141.96968 C304.579661,143.66662 300.529526,145.043072 295.533013,145.043072 C290.5365,145.043072 286.486365,143.66662 286.486365,141.96968 C286.486365,140.27217 290.5365,138.896288 295.533013,138.896288 C300.529526,138.896288 304.579661,140.27217 304.579661,141.96968" id="Fill-176" fill="#E3AD3B"></path>
                    <path d="M292.795174,143.3319 C292.343326,143.195849 292.117401,142.978964 292.117401,142.681245 L292.117401,142.554302 L294.606553,142.554302 L294.606553,142.643675 C294.606553,142.78428 294.685086,142.881622 294.841582,142.935132 C294.998079,142.988072 295.206362,143.014827 295.464155,143.014827 C295.731622,143.014827 295.93649,142.985226 296.079329,142.925454 C296.222168,142.866252 296.293872,142.793957 296.293872,142.709708 C296.293872,142.603258 296.194283,142.518439 295.996243,142.455821 C295.798204,142.393204 295.548947,142.339125 295.250181,142.293584 C294.949707,142.248614 294.625332,142.203073 294.27478,142.157533 C293.924227,142.111993 293.599283,142.052222 293.299947,141.978788 C293.000043,141.905355 292.751355,141.809151 292.553316,141.690177 C292.354707,141.571204 292.255687,141.415798 292.255687,141.225098 C292.255687,140.639338 293.099062,140.299494 294.786382,140.205568 L294.786382,139.932896 L296.058842,139.932896 L296.058842,140.205568 C296.980181,140.236877 297.648849,140.331373 298.063707,140.489625 C298.478566,140.647877 298.68628,140.888101 298.68628,141.210867 L296.279645,141.210867 L296.279645,141.14028 C296.279645,141.046353 296.219891,140.964381 296.100385,140.893794 C295.980309,140.823206 295.795928,140.787913 295.546671,140.787913 C295.270668,140.787913 295.067507,140.818652 294.938326,140.879562 C294.809145,140.940472 294.744839,141.007075 294.744839,141.07937 C294.744839,141.188666 294.84898,141.275193 295.056125,141.337241 C295.26327,141.400428 295.523908,141.454507 295.83747,141.499478 C296.151033,141.545018 296.487359,141.58885 296.846447,141.631544 C297.206674,141.673669 297.543,141.732302 297.856562,141.807443 C298.169556,141.882584 298.430763,141.981065 298.637908,142.103454 C298.845053,142.225843 298.949194,142.38865 298.949194,142.591873 C298.949194,142.911792 298.703921,143.148032 298.215651,143.301161 C297.727382,143.454859 297.008635,143.548785 296.058842,143.58294 L296.058842,144.005895 L294.786382,144.005895 L294.786382,143.58294 C293.910569,143.552201 293.247023,143.467952 292.795174,143.3319" id="Fill-177" fill="#F9C557"></path>
                    <path d="M285.570717,138.860994 L285.570717,141.242745 C285.570717,143.328485 290.546743,145.018594 296.684829,145.018594 C302.822914,145.018594 307.798372,143.328485 307.798372,141.242745 L307.798372,138.860994 L285.570717,138.860994" id="Fill-178" fill="#E3AD3B"></path>
                    <path d="M307.798372,138.860994 C307.798372,140.946165 302.822914,142.636843 296.684829,142.636843 C290.546743,142.636843 285.570717,140.946165 285.570717,138.860994 C285.570717,136.775824 290.546743,135.085715 296.684829,135.085715 C302.822914,135.085715 307.798372,136.775824 307.798372,138.860994" id="Fill-179" fill="#F9C557"></path>
                    <path d="M305.730908,138.860994 C305.730908,140.558504 301.680773,141.934386 296.684829,141.934386 C291.688316,141.934386 287.638181,140.558504 287.638181,138.860994 C287.638181,137.163485 291.688316,135.787602 296.684829,135.787602 C301.680773,135.787602 305.730908,137.163485 305.730908,138.860994" id="Fill-180" fill="#E3AD3B"></path>
                    <path d="M293.94699,140.223215 C293.495141,140.087163 293.269217,139.870848 293.269217,139.573129 L293.269217,139.446186 L295.758368,139.446186 L295.758368,139.534989 C295.758368,139.676733 295.836332,139.773506 295.993398,139.826446 C296.149895,139.879956 296.357609,139.906711 296.61597,139.906711 C296.883437,139.906711 297.087737,139.877109 297.231145,139.817338 C297.373984,139.758136 297.445687,139.685841 297.445687,139.601022 C297.445687,139.494572 297.346099,139.410323 297.148059,139.347136 C296.949451,139.285087 296.700763,139.231008 296.401428,139.185468 C296.101523,139.139928 295.776579,139.094957 295.426595,139.048848 C295.076043,139.003877 294.751099,138.944105 294.451763,138.870672 C294.151859,138.797238 293.903171,138.700465 293.704562,138.581492 C293.506523,138.462518 293.407503,138.307681 293.407503,138.116413 C293.407503,137.530652 294.250878,137.190809 295.938197,137.096882 L295.938197,136.82478 L297.210089,136.82478 L297.210089,137.096882 C298.131997,137.128191 298.800664,137.223256 299.215523,137.381508 C299.630382,137.53976 299.837526,137.779985 299.837526,138.102181 L297.431461,138.102181 L297.431461,138.032163 C297.431461,137.938237 297.371707,137.855695 297.252201,137.785108 C297.132125,137.71509 296.947743,137.679796 296.698487,137.679796 C296.421914,137.679796 296.219322,137.709967 296.090141,137.771446 C295.960961,137.832356 295.896655,137.898958 295.896655,137.970684 C295.896655,138.08055 296.000227,138.166507 296.207941,138.229694 C296.415086,138.291742 296.675724,138.346391 296.989286,138.391361 C297.302849,138.436902 297.639174,138.480734 297.998263,138.522859 C298.357921,138.564983 298.694816,138.623616 299.008378,138.699327 C299.321372,138.774468 299.58201,138.872949 299.789155,138.994769 C299.996868,139.117158 300.10101,139.279964 300.10101,139.483756 C300.10101,139.803107 299.855737,140.039916 299.367467,140.193044 C298.879197,140.346742 298.159882,140.440669 297.210089,140.474824 L297.210089,140.897778 L295.938197,140.897778 L295.938197,140.474824 C295.062385,140.443515 294.39827,140.359835 293.94699,140.223215" id="Fill-181" fill="#F9C557"></path>
                    <path d="M287.106661,135.752878 L287.106661,138.134629 C287.106661,140.219799 292.082118,141.910478 298.220204,141.910478 C304.358289,141.910478 309.334316,140.219799 309.334316,138.134629 L309.334316,135.752878 L287.106661,135.752878" id="Fill-182" fill="#E3AD3B"></path>
                    <path d="M309.334316,135.752878 C309.334316,137.838618 304.358289,139.528727 298.220204,139.528727 C292.082118,139.528727 287.106661,137.838618 287.106661,135.752878 C287.106661,133.667708 292.082118,131.977029 298.220204,131.977029 C304.358289,131.977029 309.334316,133.667708 309.334316,135.752878" id="Fill-183" fill="#F9C557"></path>
                    <path d="M307.266852,135.752878 C307.266852,137.450388 303.216717,138.82627 298.220204,138.82627 C293.22426,138.82627 289.173556,137.450388 289.173556,135.752878 C289.173556,134.055938 293.22426,132.679486 298.220204,132.679486 C303.216717,132.679486 307.266852,134.055938 307.266852,135.752878" id="Fill-184" fill="#E3AD3B"></path>
                    <path d="M295.482365,137.115668 C295.030516,136.979047 294.804592,136.762162 294.804592,136.464443 L294.804592,136.3375 L297.293743,136.3375 L297.293743,136.427442 C297.293743,136.568047 297.372276,136.66482 297.529342,136.71833 C297.68527,136.771839 297.893553,136.798025 298.151345,136.798025 C298.418812,136.798025 298.623681,136.768424 298.76652,136.709222 C298.909359,136.64945 298.981062,136.577724 298.981062,136.492906 C298.981062,136.386456 298.882043,136.301637 298.683434,136.239019 C298.485395,136.176402 298.236707,136.122323 297.937372,136.076783 C297.636898,136.031812 297.312523,135.986271 296.96197,135.940731 C296.611418,135.895191 296.286474,135.835989 295.987138,135.762555 C295.687803,135.688553 295.438546,135.592349 295.240507,135.473375 C295.041898,135.354402 294.943447,135.198996 294.943447,135.008296 C294.943447,134.422536 295.786822,134.082693 297.473572,133.988766 L297.473572,133.716094 L298.746033,133.716094 L298.746033,133.988766 C299.667941,134.020075 300.336039,134.11514 300.750898,134.272823 C301.166326,134.431075 301.37347,134.671868 301.37347,134.994065 L298.966836,134.994065 L298.966836,134.923478 C298.966836,134.829551 298.907082,134.747579 298.787576,134.676992 C298.6675,134.606404 298.483118,134.571111 298.234431,134.571111 C297.957289,134.571111 297.754697,134.60185 297.625516,134.66276 C297.496336,134.72424 297.432599,134.790842 297.432599,134.862568 C297.432599,134.972434 297.536171,135.058391 297.743885,135.121008 C297.950461,135.183626 298.211099,135.237705 298.524661,135.283245 C298.838224,135.328785 299.174549,135.372048 299.534207,135.414742 C299.893865,135.456867 300.230191,135.5155 300.543753,135.590641 C300.856747,135.666352 301.117954,135.764263 301.325099,135.886652 C301.532243,136.009042 301.636385,136.171848 301.636385,136.37564 C301.636385,136.69499 301.391681,136.93123 300.902842,137.084928 C300.414572,137.238057 299.695826,137.331983 298.746033,137.366708 L298.746033,137.789662 L297.473572,137.789662 L297.473572,137.366708 C296.59776,137.335399 295.934214,137.251719 295.482365,137.115668" id="Fill-185" fill="#F9C557"></path>
                </g>
            </g>
        </g>
    </g>
</svg>