<?xml version="1.0" encoding="UTF-8"?>
<svg width="560px" height="621px" viewBox="0 0 560 621" version="1.1" xmlns="http://www.w3.org/2000/svg" xmlns:xlink="http://www.w3.org/1999/xlink">
    <!-- Generator: Sketch 3.8.1 (29687) - http://www.bohemiancoding.com/sketch -->
    <title>policeman</title>
    <desc>Created with Sketch.</desc>
    <defs></defs>
    <g id="Page-1" stroke="none" stroke-width="1" fill="none" fill-rule="evenodd">
        <g id="Gatepass-Landing-Page-4" transform="translate(-759.000000, -2545.000000)">
            <g id="Group-25" transform="translate(465.000000, 2545.000000)">
                <g id="policeman" transform="translate(294.000000, 0.000000)">
                    <g id="Group">
                        <path d="M337.816836,570.014532 C304.033941,532.496623 287.612822,500.639318 287.612822,472.623065 L287.612822,470.983247 L287.832847,469.357565 C288.028649,467.913636 289.99878,453.442039 292.633022,434.711357 L260.063291,425.262208 L257.55622,394.073351 C305.073508,364.496039 328.634332,301.756838 322.824869,241.398604 C292.457406,267.916403 245.838383,278.482325 205.382075,278.482325 C164.925767,278.482325 118.272429,267.88813 87.9392812,241.398604 C81.8916263,304.19839 107.412488,365.568383 153.207931,394.073351 L150.700859,425.262208 L26.8228433,461.202903 C9.27334001,466.294013 -1.89140609,483.48989 0.593461464,501.600591 L12.8159416,590.683916 C15.1029887,607.360786 29.3460638,619.786649 46.1708982,619.786649 L364.593252,619.786649 C371.371632,619.786649 377.71198,617.742935 383.039003,614.245195 C368.981637,601.873857 352.687688,586.529844 337.816836,570.014532 L337.816836,570.014532 Z" id="Shape" fill="#00BEC5"></path>
                        <path d="M56.3425047,161.988591 C67.6566254,169.602032 74.4673022,174.184234 85.7127914,181.751227 C79.8690127,221.266403 135.878452,254.252597 205.384094,254.252597 C274.970478,254.252597 330.887063,221.226013 325.055396,181.751227 C336.276662,174.20039 343.133766,169.587896 354.425683,161.988591 C360.574266,157.850675 363.432571,150.269545 361.543183,143.10039 L344.58916,78.7193506 C342.415153,70.4596753 336.825715,63.5187208 329.223756,59.6312208 L219.0438,3.28973377 C210.464851,-1.09657792 200.301318,-1.09657792 191.722369,3.28973377 L81.5424125,59.6312208 C73.9404538,63.5187208 68.3530343,70.4596753 66.1770089,78.7193506 L49.2229857,143.10039 C47.3356167,150.271565 50.1919024,157.850675 56.3425047,161.988591 L56.3425047,161.988591 Z M169.790536,70.491987 C170.307291,66.9720325 173.325063,64.3669026 176.879776,64.3669026 L234.352684,64.3669026 C237.947768,64.3669026 240.985726,67.0305974 241.458073,70.5949805 L245.678916,102.494695 C245.678916,118.446571 220.370005,140.45689 209.867352,148.904377 C207.24724,151.010695 203.510855,151.004636 200.890743,148.898318 C190.384052,140.446792 165.087253,118.442532 165.087253,102.494695 L169.790536,70.491987 L169.790536,70.491987 Z" id="Shape" fill="#00BEC5"></path>
                        <path d="M542.466168,355.327597 C538.588483,334.096799 494.809598,328.690649 435.800553,328.569481 C376.791509,328.692669 333.012624,334.096799 329.134939,355.327597 C323.809934,384.486877 311.835739,472.623065 311.835739,472.623065 C311.835739,522.399221 391.936888,591.348325 423.362086,616.484799 C427.001579,619.39487 431.398038,620.850916 435.794498,620.850916 C440.203069,620.850916 444.609621,619.388812 448.259207,616.470662 C479.698535,591.322071 559.767386,522.391143 559.767386,472.625084 C559.765368,472.623065 547.791172,384.486877 542.466168,355.327597 L542.466168,355.327597 Z M501.519345,438.098026 C500.035692,438.098026 498.636818,437.754714 497.381264,437.156948 L474.817617,462.394396 L478.24516,496.087409 C482.928257,496.755857 486.531416,500.772604 486.531416,505.641571 C486.531416,510.977039 482.207625,515.302766 476.874546,515.302766 C471.541467,515.302766 467.217677,510.977039 467.217677,505.641571 C467.217677,505.306338 467.235844,504.975143 467.268141,504.650006 L435.800553,490.758 L404.7387,504.472292 C404.785127,504.855994 404.815406,505.245753 404.815406,505.643591 C404.815406,510.979058 400.491615,515.304786 395.158536,515.304786 C389.825457,515.304786 385.501666,510.979058 385.501666,505.643591 C385.501666,500.928104 388.880763,497.006273 393.349892,496.158091 L396.78349,462.398435 L374.219843,437.160987 C372.964288,437.758753 371.565415,438.102065 370.081761,438.102065 C364.748682,438.102065 360.424892,433.776338 360.424892,428.438851 C360.424892,423.103383 364.748682,418.777656 370.081761,418.777656 C373.68492,418.777656 376.821788,420.754727 378.481058,423.682974 L411.684621,416.50574 L428.640663,387.348481 C427.094433,385.635961 426.143684,383.372123 426.143684,380.880084 C426.143684,375.544617 430.467475,371.21889 435.800553,371.21889 C441.133632,371.21889 445.459442,375.544617 445.459442,380.880084 C445.459442,383.372123 444.508692,385.633942 442.962462,387.348481 L459.918504,416.50574 L493.124086,423.682974 C494.783356,420.756747 497.920224,418.777656 501.523383,418.777656 C506.856462,418.777656 511.180252,423.103383 511.180252,428.438851 C511.178234,433.772299 506.854443,438.098026 501.519345,438.098026 L501.519345,438.098026 Z" id="Shape" fill="#004860"></path>
                    </g>
                </g>
            </g>
        </g>
    </g>
</svg>