<?xml version="1.0" encoding="UTF-8"?>
<svg width="366px" height="366px" viewBox="0 0 366 366" version="1.1" xmlns="http://www.w3.org/2000/svg" xmlns:xlink="http://www.w3.org/1999/xlink">
    <!-- Generator: Sketch 3.8.1 (29687) - http://www.bohemiancoding.com/sketch -->
    <title>Page 1</title>
    <desc>Created with Sketch.</desc>
    <defs></defs>
    <g id="Page-1" stroke="none" stroke-width="1" fill="none" fill-rule="evenodd">
        <g id="Desktop-HD" transform="translate(665.000000, -63.000000) scale(1, -1) translate(-665.000000, 63.000000) translate(-55.000000, -575.000000)">
            <g id="Page-1" transform="translate(238.000000, 266.000000) scale(1, -1) translate(-238.000000, -266.000000) translate(55.000000, 83.000000)">
                <path d="M365.997141,183 C365.997141,284.067469 284.067469,366 182.997141,366 C81.9325312,366 0,284.067469 0,183 C0,81.9325312 81.9325312,0 182.997141,0 C284.067469,0 365.997141,81.9325312 365.997141,183" id="Fill-1" fill="#3DB39E"></path>
                <path d="M157.199859,305.953125 L100.143891,305.953125 C98.5283437,305.953125 97.21875,304.674984 97.21875,303.09375 C97.21875,301.512516 98.5283437,300.234375 100.143891,300.234375 L157.199859,300.234375 C158.815406,300.234375 160.125,301.512516 160.125,303.09375 C160.125,304.674984 158.815406,305.953125 157.199859,305.953125" id="Fill-3" fill="#0C508E"></path>
                <path d="M265.855252,305.953125 L185.927142,305.953125 C184.308736,305.953125 182.999142,304.674984 182.999142,303.09375 C182.999142,301.512516 184.308736,300.234375 185.927142,300.234375 L265.855252,300.234375 C267.473658,300.234375 268.780392,301.512516 268.780392,303.09375 C268.780392,304.674984 267.473658,305.953125 265.855252,305.953125" id="Fill-5" fill="#0C508E"></path>
                <path d="M181.813359,203.216639 C181.813359,168.572452 147.174891,140.481952 104.444391,140.481952 C61.7196094,140.481952 27.0811406,168.569592 27.0811406,203.216639 C27.0811406,237.866545 61.7196094,265.948467 104.444391,265.948467 C108.204469,265.948467 111.867328,265.66253 115.481578,265.242202 C131.551266,277.763405 147.746766,280.837233 147.961219,280.465514 C142.313953,274.643827 138.876984,267.26378 136.761047,260.16967 C163.3275,250.233342 181.813359,228.504952 181.813359,203.216639" id="Fill-7" fill="#F99900"></path>
                <path d="M181.813359,203.216639 C181.813359,198.08978 181.035609,193.114467 179.605922,188.347889 C179.628797,188.905467 179.665969,189.463045 179.665969,190.029202 C179.665969,219.835327 146.305641,243.999905 105.153516,243.999905 C64.0071094,243.999905 30.6467812,219.835327 30.6467812,190.029202 C30.6467812,187.524389 30.9012656,185.059608 31.3587656,182.646295 C28.5994688,189.094186 27.0811406,196.008155 27.0811406,203.216639 C27.0811406,237.866545 61.7196094,265.948467 104.444391,265.948467 C108.204469,265.948467 111.867328,265.66253 115.481578,265.242202 C131.551266,277.763405 147.746766,280.837233 147.961219,280.465514 C142.313953,274.643827 138.876984,267.26378 136.761047,260.16967 C163.3275,250.233342 181.813359,228.504952 181.813359,203.216639" id="Fill-9" fill="#D6742B"></path>
                <path d="M114.900267,262.093744 C115.540767,262.093744 116.164111,262.302478 116.67308,262.697072 C125.485673,269.510962 134.269673,273.399712 140.23147,275.435587 C137.492189,271.195134 135.270455,266.265572 133.594861,260.695509 C133.163095,259.254384 133.929408,257.727478 135.350517,257.198494 C161.808314,247.3794 178.904517,226.0599 178.904517,202.887525 C178.904517,169.850306 145.201064,142.972181 103.77158,142.972181 C62.3449547,142.972181 28.6415016,169.850306 28.6415016,202.887525 C28.6415016,235.924744 61.5100172,263.063072 102.936642,263.063072 C106.224923,263.063072 110.488252,262.582697 114.56858,262.113759 C114.680095,262.099462 114.791611,262.093744 114.900267,262.093744 M147.491423,283.078697 L147.491423,283.078697 C144.620611,283.075837 129.15997,279.26715 114.06533,267.926869 C110.262361,268.3329 103.271189,268.781822 100.077267,268.781822 C55.4710172,268.781822 22.8741422,239.078634 22.8741422,202.887525 C22.8741422,166.696416 59.1653297,137.250572 103.77158,137.250572 C148.380689,137.250572 184.671877,166.696416 184.671877,202.887525 C184.671877,227.704041 167.203955,250.484681 139.931236,261.5619 C142.287361,268.367212 145.575642,273.951572 149.721736,278.194884 C150.61958,279.109884 150.794002,280.505259 150.153502,281.611837 C149.638814,282.501103 148.523658,283.078697 147.491423,283.078697" id="Fill-11" fill="#6B3C1C"></path>
                <path d="M365.179073,165.94297 C361.147355,122.34322 341.849433,83.1755016 312.643777,53.8554703 C295.416042,46.7527828 271.517386,41.3457047 251.624714,41.3457047 C186.087839,41.3457047 132.960652,83.5929703 132.960652,135.70508 C132.960652,173.749064 161.28562,206.508923 202.071745,221.44058 C198.914995,231.951642 193.782417,242.880173 185.410167,251.492611 C185.733277,252.050189 209.740589,247.483767 233.596355,228.980752 C239.478089,229.692736 245.497073,230.064455 251.624714,230.064455 C302.232792,230.064455 348.03998,201.525033 365.179073,165.94297" id="Fill-13" fill="#3AD0F9"></path>
                <path d="M133.019555,194.496117 C128.05282,194.496117 124.023961,198.522117 124.023961,203.488852 C124.023961,208.461305 128.05282,212.487305 133.019555,212.487305 C137.986289,212.487305 142.018008,208.461305 142.018008,203.488852 C142.018008,198.522117 137.986289,194.496117 133.019555,194.496117 M101.56643,194.496117 C96.5996953,194.496117 92.5708359,198.522117 92.5708359,203.488852 C92.5708359,208.461305 96.5996953,212.487305 101.56643,212.487305 C106.533164,212.487305 110.564883,208.461305 110.564883,203.488852 C110.564883,198.522117 106.533164,194.496117 101.56643,194.496117 M72.7811016,194.496117 C67.8086484,194.496117 63.7826484,198.522117 63.7826484,203.488852 C63.7826484,208.461305 67.8086484,212.487305 72.7811016,212.487305 C77.7478359,212.487305 81.7738359,208.461305 81.7738359,203.488852 C81.7738359,198.522117 77.7478359,194.496117 72.7811016,194.496117" id="Fill-15" fill="#FFFFFF"></path>
                <path d="M300.561202,122.525934 C292.612139,122.525934 286.167108,128.976684 286.167108,136.922888 C286.167108,144.877669 292.612139,151.316981 300.561202,151.316981 C308.507405,151.316981 314.952436,144.877669 314.952436,136.922888 C314.952436,128.976684 308.507405,122.525934 300.561202,122.525934 M250.181873,122.525934 C242.23567,122.525934 235.790639,128.976684 235.790639,136.922888 C235.790639,144.877669 242.23567,151.316981 250.181873,151.316981 C258.130936,151.316981 264.575967,144.877669 264.575967,136.922888 C264.575967,128.976684 258.130936,122.525934 250.181873,122.525934 M199.805405,122.525934 C191.853483,122.525934 185.411311,128.976684 185.411311,136.922888 C185.411311,144.877669 191.853483,151.316981 199.805405,151.316981 C207.754467,151.316981 214.199498,144.877669 214.199498,136.922888 C214.199498,128.976684 207.754467,122.525934 199.805405,122.525934" id="Fill-17" fill="#FFFFFF"></path>
                <path d="M325.12552,37.8615562 C324.39352,37.8615562 323.66152,37.5813375 323.103942,37.0237594 C321.985927,35.9057437 321.985927,34.0957594 323.103942,32.9806031 L341.301005,14.7864 C342.41902,13.6683844 344.229005,13.6683844 345.344161,14.7864 C346.462177,15.9015562 346.462177,17.7144 345.344161,18.8295562 L327.147098,37.0237594 C326.58952,37.5813375 325.85752,37.8615562 325.12552,37.8615562" id="Fill-19" fill="#0C508E"></path>
                <path d="M310.133245,29.1996516 C309.947386,29.1996516 309.758667,29.1824953 309.569948,29.1424641 C308.023027,28.8336516 307.016527,27.3267609 307.328198,25.7798391 L310.973902,7.54560469 C311.279855,5.99582344 312.795323,4.99790156 314.339386,5.30385469 C315.886308,5.61266719 316.889948,7.11955781 316.581136,8.66647969 L312.932573,26.9007141 C312.663792,28.2589172 311.468573,29.1996516 310.133245,29.1996516" id="Fill-21" fill="#0C508E"></path>
                <path d="M333.790284,52.8621234 C332.454956,52.8621234 331.259737,51.9213891 330.988097,50.5631859 C330.679284,49.0162641 331.685784,47.5093734 333.232706,47.2005609 L351.466941,43.5519984 C353.033878,43.2431859 354.523612,44.2468266 354.829566,45.7937484 C355.141237,47.3435297 354.134737,48.8504203 352.587816,49.1592328 L334.353581,52.8049359 C334.164862,52.8449672 333.973284,52.8621234 333.790284,52.8621234" id="Fill-23" fill="#0C508E"></path>
                <path d="M200.15625,125.8125 C193.848469,125.8125 188.71875,130.945078 188.71875,137.25 C188.71875,143.557781 193.848469,148.6875 200.15625,148.6875 C206.464031,148.6875 211.59375,143.557781 211.59375,137.25 C211.59375,130.945078 206.464031,125.8125 200.15625,125.8125 M200.15625,154.40625 C190.697437,154.40625 183,146.711672 183,137.25 C183,127.791187 190.697437,120.09375 200.15625,120.09375 C209.615062,120.09375 217.3125,127.791187 217.3125,137.25 C217.3125,146.711672 209.615062,154.40625 200.15625,154.40625 M248.762766,125.8125 C242.457844,125.8125 237.328125,130.945078 237.328125,137.25 C237.328125,143.557781 242.457844,148.6875 248.762766,148.6875 C255.070547,148.6875 260.203125,143.557781 260.203125,137.25 C260.203125,130.945078 255.070547,125.8125 248.762766,125.8125 M248.762766,154.40625 C239.303953,154.40625 231.609375,146.711672 231.609375,137.25 C231.609375,127.791187 239.303953,120.09375 248.762766,120.09375 C258.224437,120.09375 265.921875,127.791187 265.921875,137.25 C265.921875,146.711672 258.224437,154.40625 248.762766,154.40625 M297.375,125.8125 C291.067219,125.8125 285.9375,130.945078 285.9375,137.25 C285.9375,143.557781 291.067219,148.6875 297.375,148.6875 C303.677062,148.6875 308.806781,143.557781 308.806781,137.25 C308.806781,130.945078 303.677062,125.8125 297.375,125.8125 M297.375,154.40625 C287.916187,154.40625 280.21875,146.711672 280.21875,137.25 C280.21875,127.791187 287.916187,120.09375 297.375,120.09375 C306.836672,120.09375 314.53125,127.791187 314.53125,137.25 C314.53125,146.711672 306.836672,154.40625 297.375,154.40625" id="Fill-25" fill="#0C508E"></path>
                <path d="M68.6264297,197.355492 C65.4725391,197.355492 62.9076797,199.908914 62.9076797,203.042789 C62.9076797,206.182383 65.4725391,208.732945 68.6264297,208.732945 C71.7803203,208.732945 74.3451797,206.182383 74.3451797,203.042789 C74.3451797,199.908914 71.7803203,197.355492 68.6264297,197.355492 M68.6264297,214.451695 C62.3186484,214.451695 57.1889297,209.321977 57.1889297,203.014195 C57.1889297,196.706414 62.3186484,191.576695 68.6264297,191.576695 C74.9313516,191.576695 80.0639297,196.706414 80.0639297,203.014195 C80.0639297,209.321977 74.9313516,214.451695 68.6264297,214.451695 M100.136742,197.295445 C97.0171641,197.295445 94.4780391,199.863164 94.4780391,203.014195 C94.4780391,206.168086 97.0171641,208.732945 100.136742,208.732945 C103.25918,208.732945 105.798305,206.168086 105.798305,203.014195 C105.798305,199.863164 103.25918,197.295445 100.136742,197.295445 M100.079555,214.451695 C93.7717734,214.451695 88.6420547,209.333414 88.6420547,203.042789 C88.6420547,196.752164 93.7717734,191.636742 100.079555,191.636742 C106.384477,191.636742 111.517055,196.752164 111.517055,203.042789 C111.517055,209.333414 106.384477,214.451695 100.079555,214.451695 M131.53268,197.295445 C128.378789,197.295445 125.81393,199.863164 125.81393,203.014195 C125.81393,206.168086 128.378789,208.732945 131.53268,208.732945 C134.683711,208.732945 137.25143,206.168086 137.25143,203.014195 C137.25143,199.863164 134.683711,197.295445 131.53268,197.295445 M131.53268,214.451695 C125.224898,214.451695 120.09518,209.321977 120.09518,203.014195 C120.09518,196.706414 125.224898,191.576695 131.53268,191.576695 C137.837602,191.576695 142.97018,196.706414 142.97018,203.014195 C142.97018,209.321977 137.837602,214.451695 131.53268,214.451695" id="Fill-27" fill="#6B3C1C"></path>
                <path d="M248.764481,265.921875 C245.610591,265.921875 243.048591,268.486734 243.048591,271.643484 C243.048591,274.797375 245.610591,277.359375 248.764481,277.359375 C251.918372,277.359375 254.483231,274.797375 254.483231,271.643484 C254.483231,268.486734 251.918372,265.921875 248.764481,265.921875 M248.764481,283.078125 C242.4567,283.078125 237.326981,277.948406 237.326981,271.643484 C237.326981,265.335703 242.4567,260.203125 248.764481,260.203125 C255.072262,260.203125 260.201981,265.335703 260.201981,271.643484 C260.201981,277.948406 255.072262,283.078125 248.764481,283.078125" id="Fill-29" fill="#FFFFFF"></path>
                <path d="M111.514481,68.625 C108.36345,68.625 105.798591,71.1927187 105.798591,74.3466094 C105.798591,77.4976406 108.36345,80.0625 111.514481,80.0625 C114.668372,80.0625 117.233231,77.4976406 117.233231,74.3466094 C117.233231,71.1927187 114.668372,68.625 111.514481,68.625 M111.514481,85.78125 C105.2067,85.78125 100.076981,80.6515313 100.076981,74.3466094 C100.076981,68.0388281 105.2067,62.90625 111.514481,62.90625 C117.822262,62.90625 122.951981,68.0388281 122.951981,74.3466094 C122.951981,80.6515313 117.822262,85.78125 111.514481,85.78125" id="Fill-31" fill="#FFFFFF"></path>
                <path d="M77.1276375,121.277817 C77.1276375,120.159802 75.8552156,119.053223 74.302575,118.815895 L68.9784188,118.009552 C67.4286375,117.772223 65.9617781,116.308223 65.7273094,114.755583 L64.923825,109.440005 C64.6864969,107.887364 63.5799188,106.614942 62.4619031,106.614942 C61.3438875,106.614942 60.2373094,107.887364 60.0028406,109.440005 L59.1993563,114.755583 C58.9648875,116.308223 57.4980281,117.772223 55.9453875,118.009552 L50.6212312,118.815895 C49.0685906,119.053223 47.7961687,120.159802 47.7961687,121.277817 C47.7961687,122.395833 49.0685906,123.502411 50.6212312,123.73688 L55.9453875,124.543223 C57.4980281,124.777692 58.9648875,126.241692 59.1993563,127.797192 L60.0028406,133.109911 C60.2373094,134.665411 61.3438875,135.937833 62.4619031,135.937833 C63.5799188,135.937833 64.6750594,134.665411 64.8952313,133.107052 L65.7559031,126.970833 C65.976075,125.412473 67.4343563,124.042833 69.0041531,123.925598 L74.2768406,123.525286 C75.8466375,123.408052 77.1276375,122.395833 77.1276375,121.277817" id="Fill-33" fill="#FFFFFF"></path>
                <path d="M169.906636,36.8590594 C169.906636,35.7410438 168.634214,34.6344656 167.081573,34.3971375 L161.757417,33.5907938 C160.204777,33.3534656 158.740777,31.8894656 158.506308,30.336825 L157.699964,25.0212469 C157.465495,23.4686063 156.358917,22.1961844 155.240902,22.1961844 C154.122886,22.1961844 153.016308,23.4686063 152.781839,25.0212469 L151.975495,30.336825 C151.741027,31.8894656 150.277027,33.3534656 148.724386,33.5907938 L143.40023,34.3971375 C141.847589,34.6344656 140.575167,35.7410438 140.575167,36.8590594 C140.575167,37.977075 141.847589,39.0836531 143.403089,39.3181219 L148.721527,40.1244656 C150.277027,40.3589344 151.741027,41.8229344 151.975495,43.375575 L152.781839,48.6940125 C153.016308,50.2466531 154.122886,51.519075 155.240902,51.519075 C156.358917,51.519075 157.454058,50.2466531 157.67423,48.6882938 L158.532042,42.552075 C158.755073,40.9937156 160.213355,39.624075 161.783152,39.5068406 L167.055839,39.1065281 C168.625636,38.9892938 169.906636,37.977075 169.906636,36.8590594" id="Fill-35" fill="#FFFFFF"></path>
                <path d="M314.466914,259.253812 C314.466914,258.135797 313.197352,257.029219 311.641852,256.791891 L306.317695,255.985547 C304.765055,255.748219 303.301055,254.284219 303.066586,252.731578 L302.263102,247.418859 C302.028633,245.863359 300.919195,244.590937 299.80118,244.590937 C298.686023,244.590937 297.576586,245.863359 297.342117,247.418859 L296.538633,252.731578 C296.304164,254.284219 294.840164,255.748219 293.284664,255.985547 L287.963367,256.791891 C286.407867,257.029219 285.135445,258.135797 285.135445,259.253812 C285.135445,260.371828 286.410727,261.478406 287.966227,261.712875 L293.281805,262.519219 C294.837305,262.753687 296.304164,264.217687 296.538633,265.770328 L297.342117,271.088766 C297.576586,272.641406 298.686023,273.913828 299.80118,273.913828 C300.919195,273.913828 302.014336,272.641406 302.234508,271.083047 L303.09518,264.946828 C303.315352,263.388469 304.773633,262.018828 306.34343,261.901594 L311.616117,261.501281 C313.185914,261.384047 314.466914,260.371828 314.466914,259.253812" id="Fill-37" fill="#FFFFFF"></path>
                <path d="M305.888503,65.765625 C305.248003,65.765625 304.601784,65.5683281 304.064222,65.1622969 C303.998456,65.1136875 296.046534,59.3949375 277.017394,56.9330156 C275.421862,56.7242813 274.303847,55.3403438 274.526878,53.8391719 C274.744191,52.338 276.171019,51.2914688 277.815159,51.4944844 C298.648566,54.190875 307.358222,60.6101719 307.718503,60.8818125 C308.976628,61.831125 309.179644,63.5581875 308.170284,64.7391094 C307.589831,65.4139219 306.743456,65.765625 305.888503,65.765625" id="Fill-39" fill="#FFFFFF"></path>
                <path d="M365.3046,167.598834 C364.303819,155.618053 362.153569,143.974678 358.956787,132.763069 C341.669006,167.613131 297.728991,192.624084 249.522787,192.624084 C192.589772,192.624084 145.221366,160.530459 135.050569,118.11735 C133.698084,123.818944 132.960366,129.6921 132.960366,135.705366 C132.960366,173.74935 161.288194,206.509209 202.071459,221.440866 C198.914709,231.951928 193.782131,242.880459 185.409881,251.492897 C185.732991,252.050475 209.740303,247.484053 233.598928,228.981038 C239.477803,229.693022 245.496787,230.064741 251.624428,230.064741 C299.384569,230.064741 345.743616,200.899116 365.3046,167.598834" id="Fill-41" fill="#00B3F9"></path>
                <path d="M168.852956,91.5 C168.14955,91.5 167.443284,91.2283594 166.897144,90.6822187 C165.776269,89.5642031 165.741956,87.7113281 166.8228,86.5504219 C180.127472,72.2249531 204.666628,54.5740312 246.021769,51.8519062 C251.974987,51.4573125 257.756644,51.3686719 263.206612,51.5802656 C264.762113,51.6403125 265.977347,52.9956562 265.920159,54.6112031 C265.865831,56.2238906 264.533363,57.4877344 262.997878,57.4219687 C257.733769,57.2160937 252.14655,57.3075937 246.379191,57.6850312 C206.831175,60.2899219 183.495816,77.0229844 170.883112,90.6050156 C170.331253,91.1997656 169.593534,91.5 168.852956,91.5" id="Fill-43" fill="#FFFFFF"></path>
                <path d="M47.8416328,183 C47.2097109,183 46.5749297,182.785547 46.0430859,182.345203 C44.7821016,181.301531 44.5676484,179.382891 45.5627109,178.059 C46.4405391,176.892375 67.4626641,149.473828 102.830273,148.6875 C104.374336,148.741828 105.763992,149.991375 105.795445,151.672687 C105.829758,153.356859 104.557336,154.752234 102.950367,154.786547 C70.2963047,155.512828 50.3207109,181.576031 50.1234141,181.839094 C49.5486797,182.602547 48.6994453,183 47.8416328,183" id="Fill-45" fill="#FFFFFF"></path>
                <path d="M365.597972,171.000061 C365.349206,166.999795 364.954612,163.04242 364.454222,159.116498 C348.944972,197.869608 303.057722,228.750858 251.626144,228.750858 C245.678644,228.750858 239.002003,226.755014 233.140284,226.045889 C232.388269,225.94867 231.630534,226.163123 231.032925,226.629202 C215.72955,238.504186 200.5863,244.465983 191.868066,247.053717 C196.920581,240.142608 200.932284,231.798952 203.83455,222.139983 C204.272034,220.678842 203.497144,219.13478 202.067456,218.608655 C160.975378,203.559764 134.426081,170.751295 134.426081,135.020545 C134.426081,84.2409047 186.689737,42.9286547 250.934175,42.9286547 C273.537534,42.9286547 298.90305,48.7903734 318.884362,59.6045297 C315.435956,55.7586703 311.807409,52.0843734 308.050191,48.5416078 C289.061081,40.8270141 268.599394,37.1727328 250.934175,37.1727328 C183.518691,37.1727328 128.673019,81.0669984 128.673019,135.020545 C128.673019,172.435467 155.599753,206.73367 197.515331,223.043545 C193.926816,233.90917 188.797097,242.818983 182.254847,249.55567 C181.351284,250.482108 181.179722,251.894639 181.8288,253.012655 C182.346347,253.893342 183.532987,254.485233 184.553784,254.485233 C187.012847,254.485233 209.882128,249.973139 233.620659,231.89617 C239.333691,232.542389 245.844487,234.469608 251.626144,234.469608 C300.861722,234.469608 342.1368,210.525202 365.597972,171.000061" id="Fill-47" fill="#0C508E"></path>
            </g>
        </g>
    </g>
</svg>