<?xml version="1.0" encoding="UTF-8"?>
<svg width="362px" height="362px" viewBox="0 0 362 362" version="1.1" xmlns="http://www.w3.org/2000/svg" xmlns:xlink="http://www.w3.org/1999/xlink">
    <!-- Generator: Sketch 3.8.1 (29687) - http://www.bohemiancoding.com/sketch -->
    <title>Page 1</title>
    <desc>Created with Sketch.</desc>
    <defs></defs>
    <g id="Page-1" stroke="none" stroke-width="1" fill="none" fill-rule="evenodd">
        <g id="Desktop-HD" transform="translate(578.000000, 479.000000) scale(1, -1) translate(-578.000000, -479.000000) translate(-142.000000, -33.000000)">
            <g id="Page-1" transform="translate(323.000000, 810.000000) scale(1, -1) translate(-323.000000, -810.000000) translate(142.000000, 629.000000)">
                <path d="M362,181 C362,280.962906 280.962906,362 181,362 C81.0370937,362 0,280.962906 0,181 C0,81.0370937 81.0370937,0 181,0 C280.962906,0 362,81.0370937 362,181" id="Fill-1" fill="#28A5C6"></path>
                <path d="M207.916963,180.121867 C207.916963,195.218398 195.676838,207.458523 180.580306,207.458523 C165.483775,207.458523 153.24365,195.218398 153.24365,180.121867 C153.24365,165.025336 165.483775,152.785211 180.580306,152.785211 C195.676838,152.785211 207.916963,165.025336 207.916963,180.121867" id="Fill-3" fill="#FBD000"></path>
                <path d="M180.580306,193.317898 C167.932931,193.317898 157.318978,184.714742 154.199556,173.051555 C153.594337,175.311227 153.24365,177.672711 153.24365,180.121867 C153.24365,195.218398 165.483775,207.458523 180.580306,207.458523 C195.676838,207.458523 207.916963,195.218398 207.916963,180.121867 C207.916963,177.672711 207.563447,175.311227 206.961056,173.051555 C203.841634,184.714742 193.227681,193.317898 180.580306,193.317898" id="Fill-5" fill="#F4B10B"></path>
                <path d="M179.585937,155.518877 C166.282437,155.518877 155.459203,166.330798 155.459203,179.620158 C155.459203,192.906689 166.282437,203.718611 179.585937,203.718611 C192.889437,203.718611 203.712672,192.906689 203.712672,179.620158 C203.712672,166.330798 192.889437,155.518877 179.585937,155.518877 M179.585938,209.281533 C163.211094,209.281533 149.890625,195.972377 149.890625,179.620158 C149.890625,163.262283 163.211094,149.955955 179.585938,149.955955 C195.957953,149.955955 209.28125,163.262283 209.28125,179.620158 C209.28125,195.972377 195.957953,209.281533 179.585938,209.281533" id="Fill-7" fill="#064370"></path>
                <path d="M76.2657641,231.90625 C75.8754828,231.90625 75.4767172,231.827063 75.0977484,231.654547 C44.9075141,218.141766 28.2809672,199.781578 28.2809672,179.953594 C28.2809672,149.655891 67.2468734,123.340188 127.548155,112.918547 C129.097967,112.661188 130.568592,113.679313 130.837264,115.214984 C131.105936,116.747828 130.070842,118.209969 128.523858,118.478641 C71.9670141,128.252641 33.9654984,152.959141 33.9654984,179.953594 C33.9654984,197.428578 49.4042328,213.964625 77.4366078,226.515844 C78.8676391,227.155 79.5039672,228.826422 78.8591547,230.246141 C78.3840297,231.289719 77.3489359,231.90625 76.2657641,231.90625" id="Fill-9" fill="#064370"></path>
                <path d="M180.86623,251.703125 C150.23198,251.703125 120.661105,247.6985 95.3493859,240.124781 C93.8306828,239.669453 92.9879016,238.125297 93.4601984,236.671641 C93.9324953,235.217984 95.5445266,234.409141 97.0604016,234.858813 C121.82912,242.271328 150.806089,246.188281 180.86623,246.188281 C188.37773,246.188281 195.951448,245.939406 203.378105,245.441656 C204.950542,245.39075 206.333495,246.482406 206.44662,248.003938 C206.556917,249.522641 205.36062,250.840547 203.77687,250.945188 C196.217292,251.448594 188.510652,251.703125 180.86623,251.703125" id="Fill-11" fill="#064370"></path>
                <path d="M231.937359,248.875 C230.568547,248.875 229.355281,247.8795 229.117719,246.473922 C228.854703,244.901484 229.901109,243.411063 231.459406,243.145219 L233.065781,242.865234 C289.846047,232.831047 327.991797,207.581547 327.991797,180.032781 C327.991797,162.351344 312.731234,145.56925 285.018437,132.777641 C283.578922,132.113031 282.951078,130.402016 283.607203,128.951188 C284.266156,127.506016 285.957375,126.861203 287.402547,127.528641 C317.270375,141.31575 333.71875,159.961578 333.71875,180.032781 C333.71875,210.958328 294.600125,237.850969 234.058453,248.546938 L232.420969,248.835406 C232.259766,248.860859 232.095734,248.875 231.937359,248.875" id="Fill-13" fill="#064370"></path>
                <path d="M263.092833,124.4375 C262.815677,124.4375 262.53852,124.397906 262.261364,124.313063 C238.069583,116.948625 209.825098,113.057125 180.579458,113.057125 C172.711614,113.057125 164.815489,113.342766 157.10602,113.902734 C155.505302,113.998891 154.190223,112.859156 154.077098,111.323484 C153.961145,109.784984 155.131989,108.444453 156.687458,108.331328 C164.535505,107.757219 172.573036,107.46875 180.579458,107.46875 C210.382239,107.46875 239.203661,111.445094 263.924302,118.970734 C265.417552,119.426063 266.254677,120.990016 265.79652,122.463469 C265.42038,123.665422 264.30327,124.4375 263.092833,124.4375" id="Fill-15" fill="#064370"></path>
                <path d="M192.199092,279.984375 C191.47792,279.984375 190.756748,279.69025 190.222233,279.110484 C189.195623,277.990547 189.24653,276.231453 190.338186,275.179391 C207.174014,258.962922 223.192514,238.198828 236.660045,215.135469 C241.272717,207.239344 245.548842,199.133937 249.372467,191.051156 C250.025764,189.665375 251.66042,189.09975 252.998123,189.758703 C254.347139,190.428969 254.912764,192.091906 254.259467,193.472031 C250.365139,201.704703 246.012655,209.954344 241.317967,217.991875 C227.595905,241.490766 211.25217,262.664937 194.059998,279.229266 C193.533967,279.7355 192.86653,279.984375 192.199092,279.984375" id="Fill-17" fill="#064370"></path>
                <path d="M107.480911,171.902488 C107.062348,171.902488 106.640958,171.811988 106.239364,171.619675 C104.82813,170.938097 104.242708,169.252534 104.927114,167.852613 C108.948708,159.656706 113.431286,151.446659 118.256067,143.45155 C161.413255,71.9141281 224.220255,30.1342375 258.299161,50.3383625 C284.117114,65.6526594 287.134723,111.581409 265.988833,167.349206 C265.437348,168.805691 263.785723,169.535347 262.332067,168.992347 C260.861442,168.446519 260.117645,166.820347 260.671958,165.363863 C269.53813,141.983753 274.297864,119.969628 274.297864,101.813066 C274.297864,79.1880656 268.087302,62.7114094 255.380536,55.1744563 C224.008145,36.5653938 164.682567,77.4713938 123.134583,146.341894 C118.391817,154.201253 113.985598,162.267066 110.037536,170.318738 C109.545442,171.319894 108.532973,171.902488 107.480911,171.902488" id="Fill-19" fill="#064370"></path>
                <path d="M123.197933,315.63685 C115.853292,315.63685 109.181745,313.897553 103.350152,310.376537 C78.2505422,295.212131 75.0236516,249.792444 95.1259641,194.660975 C95.6576516,193.193178 97.2640266,192.446553 98.7205109,192.983897 C100.171339,193.521241 100.915136,195.147412 100.38062,196.615209 C81.5481359,248.265256 83.8983078,292.030491 106.226355,305.520647 C121.025933,314.46035 143.693355,309.519616 168.428136,291.973928 C169.695136,291.071756 171.440089,291.388506 172.330948,292.661162 C173.21898,293.939475 172.913542,295.704225 171.64937,296.603569 C153.883089,309.208522 137.30462,315.63685 123.197933,315.63685" id="Fill-21" fill="#064370"></path>
                <path d="M271.569006,220.59375 C270.310491,220.59375 269.159444,219.759453 268.831381,218.500937 C262.700006,194.922859 251.766475,169.797797 237.212944,145.84075 C232.812381,138.60075 228.112037,131.521953 223.239178,124.793844 C222.334178,123.543812 222.628303,121.804516 223.903787,120.910828 C225.170787,120.019969 226.938366,120.311266 227.846194,121.561297 C232.803897,128.408187 237.589084,135.61425 242.066006,142.984344 C256.896694,167.393891 268.045162,193.030844 274.312287,217.117984 C274.699741,218.608406 273.786256,220.127109 272.273209,220.506078 C272.038475,220.565469 271.800912,220.59375 271.569006,220.59375" id="Fill-23" fill="#064370"></path>
                <path d="M238.472591,316.75 C212.6207,316.75 178.796325,295.680469 147.737856,258.674453 C146.722559,257.464016 146.869622,255.648359 148.065919,254.618922 C149.2707,253.597969 151.066559,253.742203 152.079028,254.955469 C190.080544,300.228094 231.603075,320.986531 255.376294,306.605516 C270.164559,297.665812 276.618341,276.256906 273.549825,246.321203 C273.388622,244.743109 274.525528,243.329047 276.089481,243.165016 C277.625153,243.017953 279.050528,244.149203 279.214559,245.732953 C282.520637,278.016 275.093981,301.387625 258.300575,311.54625 C252.494434,315.053125 245.803091,316.75 238.472591,316.75" id="Fill-25" fill="#064370"></path>
                <path d="M132.92838,237.382914 C132.034692,237.382914 131.157973,236.955867 130.609317,236.163992 C126.287942,229.913836 122.099489,223.372383 118.162739,216.723461 C102.438364,190.164539 90.9420359,162.398008 84.9181297,136.427336 C84.5617859,134.891664 85.5063797,133.35882 87.0250828,132.99682 C88.5324734,132.637648 90.0624891,133.590727 90.4188328,135.12357 C96.3098172,160.531445 107.579895,187.73518 123.010145,213.793523 C126.87902,220.32932 130.993942,226.75482 135.241786,232.897508 C136.135473,234.187133 135.821552,235.968852 134.543239,236.868195 C134.051145,237.216055 133.48552,237.382914 132.92838,237.382914" id="Fill-27" fill="#064370"></path>
                <path d="M85.4537766,115.969811 C84.0227453,115.969811 82.8009953,114.883811 82.6595891,113.435811 C79.6900578,82.5922797 87.0573234,60.2331234 103.409542,50.4760922 C129.422636,34.9496859 171.855823,54.6984828 211.491995,100.788436 C212.501636,101.962108 212.368714,103.732514 211.192214,104.739327 C210.015714,105.751795 208.239652,105.616045 207.230011,104.436717 C170.048652,61.2031703 129.484855,41.4430609 106.291402,55.2839047 C91.9075578,63.8672641 85.5018547,84.3287484 88.2536203,112.898467 C88.4006828,114.439795 87.2694328,115.808608 85.7252766,115.958498 C85.6319484,115.966983 85.5414484,115.969811 85.4537766,115.969811" id="Fill-29" fill="#064370"></path>
                <path d="M240.584069,49.8954781 C240.584069,58.6513531 233.482647,65.7499469 224.726772,65.7499469 C215.973725,65.7499469 208.872303,58.6513531 208.872303,49.8954781 C208.872303,41.1396031 215.973725,34.0438375 224.726772,34.0438375 C233.482647,34.0438375 240.584069,41.1396031 240.584069,49.8954781" id="Fill-31" fill="#FF4848"></path>
                <path d="M224.728186,55.435775 C217.782311,55.435775 211.891327,50.9588531 209.747608,44.7369781 C209.190467,46.3574938 208.873717,48.0854781 208.873717,49.8954781 C208.873717,58.6513531 215.972311,65.7499469 224.728186,65.7499469 C233.484061,65.7499469 240.585483,58.6513531 240.585483,49.8954781 C240.585483,48.0854781 240.265905,46.3574938 239.708764,44.7369781 C237.565045,50.9588531 231.674061,55.435775 224.728186,55.435775" id="Fill-33" fill="#E01F1F"></path>
                <path d="M224.835937,36.7639281 C217.768453,36.7639281 212.018875,42.4965375 212.018875,49.544225 C212.018875,56.5919125 217.768453,62.3245219 224.835937,62.3245219 C231.903422,62.3245219 237.653,56.5919125 237.653,49.544225 C237.653,42.4965375 231.903422,36.7639281 224.835937,36.7639281 M224.835938,67.8761313 C214.699938,67.8761313 206.453125,59.6519438 206.453125,49.544225 C206.453125,39.4365063 214.699938,31.2151469 224.835938,31.2151469 C234.971937,31.2151469 243.21875,39.4365063 243.21875,49.544225 C243.21875,59.6519438 234.971937,67.8761313 224.835938,67.8761313" id="Fill-35" fill="#064370"></path>
                <path d="M287.656795,287.457978 C287.656795,296.213853 280.555373,303.312447 271.799498,303.312447 C263.046452,303.312447 255.94503,296.213853 255.94503,287.457978 C255.94503,278.702103 263.046452,271.606338 271.799498,271.606338 C280.555373,271.606338 287.656795,278.702103 287.656795,287.457978" id="Fill-37" fill="#FF4848"></path>
                <path d="M271.800912,292.998275 C264.855037,292.998275 258.964053,288.521353 256.820334,282.299478 C256.263194,283.919994 255.946444,285.647978 255.946444,287.457978 C255.946444,296.213853 263.045037,303.312447 271.800912,303.312447 C280.556787,303.312447 287.658209,296.213853 287.658209,287.457978 C287.658209,285.647978 287.338631,283.919994 286.781491,282.299478 C284.637772,288.521353 278.746787,292.998275 271.800912,292.998275" id="Fill-39" fill="#E01F1F"></path>
                <path d="M272.914062,274.237342 C265.846578,274.237342 260.097,279.98692 260.097,287.054405 C260.097,294.121889 265.846578,299.871467 272.914062,299.871467 C279.981547,299.871467 285.731125,294.121889 285.731125,287.054405 C285.731125,279.98692 279.981547,274.237342 272.914062,274.237342 M272.914062,305.437217 C262.778062,305.437217 254.53125,297.190405 254.53125,287.054405 C254.53125,276.918405 262.778062,268.671592 272.914062,268.671592 C283.050062,268.671592 291.296875,276.918405 291.296875,287.054405 C291.296875,297.190405 283.050062,305.437217 272.914062,305.437217" id="Fill-41" fill="#064370"></path>
                <path d="M68.4771078,215.340791 C68.4771078,224.096666 61.3756859,231.195259 52.6198109,231.195259 C43.8667641,231.195259 36.7653422,224.096666 36.7653422,215.340791 C36.7653422,206.584916 43.8667641,199.48915 52.6198109,199.48915 C61.3756859,199.48915 68.4771078,206.584916 68.4771078,215.340791" id="Fill-43" fill="#FF4848"></path>
                <path d="M52.621225,220.881088 C45.67535,220.881088 39.7843656,216.404166 37.6406469,210.182291 C37.0835062,211.802806 36.7667562,213.530791 36.7667562,215.340791 C36.7667562,224.096666 43.86535,231.195259 52.621225,231.195259 C61.3771,231.195259 68.4785219,224.096666 68.4785219,215.340791 C68.4785219,213.530791 68.1589437,211.802806 67.6018031,210.182291 C65.4580844,216.404166 59.5671,220.881088 52.621225,220.881088" id="Fill-45" fill="#E01F1F"></path>
                <path d="M52.3203125,203.534217 C45.2528281,203.534217 39.50325,209.283795 39.50325,216.35128 C39.50325,223.418764 45.2528281,229.168342 52.3203125,229.168342 C59.3877969,229.168342 65.137375,223.418764 65.137375,216.35128 C65.137375,209.283795 59.3877969,203.534217 52.3203125,203.534217 M52.3203125,234.734092 C42.1843125,234.734092 33.9375,226.48728 33.9375,216.35128 C33.9375,206.21528 42.1843125,197.968467 52.3203125,197.968467 C62.4563125,197.968467 70.703125,206.21528 70.703125,216.35128 C70.703125,226.48728 62.4563125,234.734092 52.3203125,234.734092" id="Fill-47" fill="#064370"></path>
                <path d="M229.787984,47.5645375 C228.860359,47.5645375 227.952531,47.1092094 227.409531,46.2720844 C226.74775,45.245475 226.091625,45.0135688 225.66175,44.928725 C224.111937,44.6346 222.106797,45.7375688 221.521375,46.1448188 C220.248719,47.0356781 218.483969,46.738725 217.584625,45.4660688 C216.685281,44.1962406 216.976578,42.4428031 218.237922,41.5378031 C218.664969,41.2323656 222.519703,38.5711 226.699672,39.3714594 C228.922578,39.7900219 230.808937,41.1164125 232.160781,43.2007406 C233.009219,44.5101625 232.633078,46.2636 231.320828,47.1092094 C230.845703,47.417475 230.314016,47.5645375 229.787984,47.5645375" id="Fill-49" fill="#FFFFFF"></path>
                <path d="M276.523881,285.127038 C275.596256,285.127038 274.688428,284.671709 274.145428,283.834584 C273.483647,282.807975 272.827522,282.578897 272.397647,282.491225 C270.853491,282.188616 268.842694,283.294413 268.257272,283.707319 C266.984616,284.598178 265.219866,284.298397 264.320522,283.028569 C263.421178,281.758741 263.712475,280.005303 264.973819,279.100303 C265.398037,278.797694 269.252772,276.1336 273.435569,276.931131 C275.658475,277.352522 277.544834,278.678913 278.896678,280.763241 C279.745116,282.072663 279.368975,283.823272 278.056725,284.674538 C277.5816,284.979975 277.049912,285.127038 276.523881,285.127038" id="Fill-51" fill="#FFFFFF"></path>
                <path d="M57.5732719,214.352078 C56.6456469,214.352078 55.7378187,213.89675 55.1976469,213.059625 C54.5302094,212.033016 53.8797406,211.803938 53.4470375,211.716266 C51.9255062,211.413656 49.8949125,212.519453 49.3066625,212.932359 C48.0311781,213.823219 46.2692562,213.520609 45.3727406,212.253609 C44.4733969,210.983781 44.7590375,209.230344 46.0260375,208.325344 C46.4502562,208.022734 50.313475,205.369953 54.4849594,206.156172 C56.7078656,206.577563 58.594225,207.903953 59.9432406,209.988281 C60.7945062,211.297703 60.4183656,213.048313 59.1061156,213.899578 C58.6309906,214.205016 58.0993031,214.352078 57.5732719,214.352078" id="Fill-53" fill="#FFFFFF"></path>
                <path d="M311.091205,107.107881 C307.773814,107.107881 305.075783,109.808741 305.075783,113.128959 C305.075783,116.443522 307.773814,119.141553 311.091205,119.141553 C314.411423,119.141553 317.109455,116.443522 317.109455,113.128959 C317.109455,109.808741 314.411423,107.107881 311.091205,107.107881 M311.091205,124.438631 C304.855189,124.438631 299.781533,119.364975 299.781533,113.128959 C299.781533,106.887287 304.855189,101.813631 311.091205,101.813631 C317.330048,101.813631 322.406533,106.887287 322.406533,113.128959 C322.406533,119.364975 317.330048,124.438631 311.091205,124.438631" id="Fill-55" fill="#FFFFFF"></path>
                <path d="M130.091205,75.9987891 C126.773814,75.9987891 124.075783,78.6968203 124.075783,82.0170391 C124.075783,85.3344297 126.773814,88.0324609 130.091205,88.0324609 C133.411423,88.0324609 136.112283,85.3344297 136.112283,82.0170391 C136.112283,78.6968203 133.411423,75.9987891 130.091205,75.9987891 M130.091205,93.3295391 C123.855189,93.3295391 118.781533,88.2558828 118.781533,82.0170391 C118.781533,75.7781953 123.855189,70.7045391 130.091205,70.7045391 C136.330048,70.7045391 141.406533,75.7781953 141.406533,82.0170391 C141.406533,88.2558828 136.330048,93.3295391 130.091205,93.3295391" id="Fill-57" fill="#FFFFFF"></path>
                <path d="M193.621639,327.278261 C193.621639,326.172464 192.363123,325.07798 190.827452,324.846073 L185.561483,324.042886 C184.025811,323.81098 182.577811,322.36298 182.345905,320.82448 L181.551202,315.569823 C181.319295,314.031323 180.224811,312.772808 179.119014,312.772808 C178.013217,312.772808 176.918733,314.031323 176.686827,315.569823 L175.889295,320.82448 C175.657389,322.36298 174.209389,323.81098 172.673717,324.042886 L167.40492,324.846073 C165.869248,325.07798 164.610733,326.172464 164.610733,327.278261 C164.610733,328.384058 165.869248,329.478542 167.407748,329.710448 L172.673717,330.50798 C174.209389,330.739886 175.657389,332.187886 175.889295,333.726386 L176.686827,338.981042 C176.918733,340.519542 178.013217,341.778058 179.119014,341.778058 C180.224811,341.778058 181.307983,340.519542 181.52292,338.978214 L182.374186,332.90623 C182.591952,331.364902 184.034295,330.01023 185.586936,329.894277 L190.801998,329.501167 C192.354639,329.385214 193.621639,328.384058 193.621639,327.278261" id="Fill-59" fill="#FFFFFF"></path>
                <path d="M67.1266781,111.304819 C67.1266781,110.199022 65.8681625,109.104537 64.3324906,108.872631 L59.0665219,108.069444 C57.53085,107.837537 56.08285,106.389537 55.8509437,104.851037 L55.0562406,99.5963812 C54.8243344,98.0578812 53.72985,96.7993656 52.6240531,96.7993656 C51.5182562,96.7993656 50.4237719,98.0578812 50.1918656,99.5963812 L49.3943344,104.851037 C49.1624281,106.389537 47.7144281,107.837537 46.1787562,108.069444 L40.9099594,108.872631 C39.3742875,109.104537 38.1157719,110.199022 38.1157719,111.304819 C38.1157719,112.410616 39.3742875,113.5051 40.9127875,113.737006 L46.1787562,114.534537 C47.7144281,114.766444 49.1624281,116.214444 49.3943344,117.752944 L50.1918656,123.0076 C50.4237719,124.5461 51.5182562,125.804616 52.6240531,125.804616 C53.72985,125.804616 54.8130219,124.5461 55.0279594,123.004772 L55.879225,116.932787 C56.0969906,115.391459 57.5393344,114.036787 59.091975,113.920834 L64.3070375,113.527725 C65.8596781,113.411772 67.1266781,112.410616 67.1266781,111.304819" id="Fill-61" fill="#FFFFFF"></path>
                <path d="M336.91142,244.765452 C336.91142,243.659655 335.652905,242.56517 334.117233,242.333264 L328.851264,241.530077 C327.315592,241.29817 325.867592,239.85017 325.635686,238.31167 L324.840983,233.057014 C324.609077,231.518514 323.514592,230.259998 322.408795,230.259998 C321.305827,230.259998 320.208514,231.518514 319.976608,233.057014 L319.179077,238.31167 C318.94717,239.85017 317.49917,241.29817 315.963498,241.530077 L310.694702,242.333264 C309.15903,242.56517 307.900514,243.659655 307.900514,244.765452 C307.900514,245.871248 309.15903,246.965733 310.700358,247.197639 L315.963498,247.99517 C317.49917,248.227077 318.94717,249.675077 319.179077,251.213577 L319.976608,256.468233 C320.208514,258.006733 321.305827,259.265248 322.408795,259.265248 C323.514592,259.265248 324.594936,258.006733 324.812702,256.465405 L325.663967,250.39342 C325.881733,248.852092 327.324077,247.49742 328.876717,247.381467 L334.09178,246.988358 C335.64442,246.872405 336.91142,245.871248 336.91142,244.765452" id="Fill-63" fill="#FFFFFF"></path>
                <path d="M215.462117,171.286522 C215.462117,170.090225 214.209258,168.888272 212.679242,168.6196 L199.22868,166.227006 C197.698664,165.955506 196.219555,164.482053 195.950883,162.949209 L193.555461,149.498647 C193.283961,147.965803 192.082008,146.715772 190.888539,146.715772 C189.69507,146.715772 188.493117,147.965803 188.221617,149.498647 L185.83468,162.949209 C185.56318,164.482053 184.08407,165.955506 182.554055,166.227006 L169.100664,168.6196 C167.570648,168.888272 166.314961,170.090225 166.314961,171.286522 C166.314961,172.479991 167.576305,173.628209 169.117633,173.837491 L182.537086,175.661631 C184.075586,175.870913 185.551867,177.296288 185.814883,178.831959 L188.241414,193.071569 C188.50443,194.604413 189.69507,195.857272 190.888539,195.857272 C192.082008,195.857272 193.272648,194.601584 193.535664,193.071569 L195.97068,178.738631 C196.230867,177.208616 197.707148,175.786069 199.248477,175.585272 L212.659445,173.82335 C214.200773,173.622553 215.462117,172.479991 215.462117,171.286522" id="Fill-65" fill="#FFFFFF"></path>
            </g>
        </g>
    </g>
</svg>