<svg xmlns="http://www.w3.org/2000/svg" width="35" height="35" viewBox="0 0 35 35">
    <g fill="none" fill-rule="evenodd">
        <circle cx="17.5" cy="17.5" r="17.5" fill="#55ACEE"/>
        <path fill="#FFF" d="M25.516 10.807c-.494.316-1.628.776-2.187.776a3.507 3.507 0 0 0-5.953 3.206h-.001c-2.627-.069-5.5-1.385-7.23-3.639-1.063 1.84-.143 3.888 1.064 4.634-.413.031-1.174-.048-1.532-.397-.024 1.222.564 2.84 2.706 3.428-.413.222-1.143.158-1.46.11.11 1.032 1.555 2.38 3.134 2.38-.563.651-2.68 1.832-5.057 1.457a10.538 10.538 0 0 0 5.486 1.55c5.658 0 10.053-4.585 9.816-10.242l-.001-.02.001-.044-.002-.05A6.05 6.05 0 0 0 26 12.16c-.286.157-1.145.473-1.945.552.513-.277 1.273-1.184 1.461-1.905"/>
    </g>
</svg>
