<svg xmlns="http://www.w3.org/2000/svg" width="67" height="66" viewBox="0 0 67 66">
    <g fill="none" fill-rule="evenodd">
        <path fill="#DBDBDB" d="M33.5 0c18.226 0 33 14.775 33 33 0 18.226-14.774 33-33 33-18.225 0-33-14.774-33-33 0-18.225 14.775-33 33-33z"/>
        <path fill="#FFF" d="M46.756 22.416a10.975 10.975 0 0 1-3.52 1.38A5.46 5.46 0 0 0 39.194 22c-3.06 0-5.54 2.545-5.54 5.681 0 .445.05.879.144 1.294-4.604-.237-8.685-2.499-11.417-5.936a5.755 5.755 0 0 0-.749 2.856c0 1.971.979 3.71 2.463 4.728a5.421 5.421 0 0 1-2.508-.714v.071c0 2.753 1.91 5.048 4.442 5.573a5.46 5.46 0 0 1-1.459.199c-.358 0-.704-.038-1.043-.103.705 2.256 2.75 3.9 5.173 3.946a10.94 10.94 0 0 1-8.2 2.353 15.402 15.402 0 0 0 8.491 2.552c10.188 0 15.76-8.657 15.76-16.164l-.019-.737a11.298 11.298 0 0 0 2.768-2.937c-.993.452-2.06.758-3.18.895a5.691 5.691 0 0 0 2.436-3.14z"/>
    </g>
</svg>
